<svg id="Layer_1" data-name="Layer 1" xmlns="http://www.w3.org/2000/svg" xmlns:xlink="http://www.w3.org/1999/xlink" viewBox="0 0 259.26 59.71"><defs><style>.cls-1,.cls-2{stroke:#010101;stroke-miterlimit:10;stroke-width:2px;}.cls-1{fill:url(#radial-gradient);}.cls-2{fill:none;}.cls-3{fill:#c7842a;}.cls-4{opacity:0.6;}.cls-5{fill:url(#linear-gradient);}.cls-6{fill:url(#linear-gradient-2);}.cls-7{fill:url(#linear-gradient-3);}.cls-8{fill:url(#linear-gradient-4);}.cls-9{fill:url(#linear-gradient-5);}.cls-10{fill:url(#linear-gradient-6);}.cls-11{fill:url(#linear-gradient-7);}.cls-12{fill:url(#linear-gradient-8);}.cls-13{fill:url(#linear-gradient-9);}</style><radialGradient id="radial-gradient" cx="135.53" cy="134.19" r="92.14" gradientUnits="userSpaceOnUse"><stop offset="0" stop-color="#471047"/><stop offset="0.6" stop-color="#380d44"/><stop offset="1" stop-color="#2c0b41"/></radialGradient><linearGradient id="linear-gradient" x1="89.48" y1="132.73" x2="89.48" y2="150.59" gradientUnits="userSpaceOnUse"><stop offset="0" stop-color="#c7842a"/><stop offset="0.45" stop-color="#f9ed32"/><stop offset="1" stop-color="#ce942b"/></linearGradient><linearGradient id="linear-gradient-2" x1="104.4" y1="137.55" x2="104.4" y2="151.18" xlink:href="#linear-gradient"/><linearGradient id="linear-gradient-3" x1="116.72" y1="137.86" x2="116.72" y2="151.37" xlink:href="#linear-gradient"/><linearGradient id="linear-gradient-4" x1="127.12" y1="134.92" x2="127.12" y2="151.52" xlink:href="#linear-gradient"/><linearGradient id="linear-gradient-5" x1="144.91" y1="133.67" x2="144.91" y2="151.58" xlink:href="#linear-gradient"/><linearGradient id="linear-gradient-6" x1="159.3" y1="137.85" x2="159.3" y2="155.59" xlink:href="#linear-gradient"/><linearGradient id="linear-gradient-7" x1="173.8" y1="137.52" x2="173.8" y2="151.04" xlink:href="#linear-gradient"/><linearGradient id="linear-gradient-8" x1="184.07" y1="131.59" x2="184.07" y2="150.56" xlink:href="#linear-gradient"/><linearGradient id="linear-gradient-9" x1="191.56" y1="131.28" x2="191.56" y2="150.27" xlink:href="#linear-gradient"/></defs><title>castspellbutton</title><path class="cls-1" d="M262.64,137.07c-7.18-5.24-10.69-7.94-17.52-13.45,4.73-7.19,7-10.81,11.39-18.12a516.27,516.27,0,0,1-67.24,6.59c.2,3.54.41,7.08.61,10.62q-54.36,2.58-108.71,0,.31-5.31.62-10.62a516.27,516.27,0,0,1-67.24-6.59c4.38,7.31,6.66,10.93,11.38,18.12-6.82,5.51-10.33,8.21-17.52,13.45,12.85,2.14,25.65,3.81,38.49,5,.2,5.78.38,11.56.34,17.34a1133.78,1133.78,0,0,0,176.57,0c0-5.78.15-11.56.35-17.34C237,140.88,249.8,139.21,262.64,137.07Z" transform="translate(-5.9 -104.17)"/><path class="cls-2" d="M224.17,142.12c12.84-1.23,25.63-2.91,38.48-5.05-7.19-5.24-10.69-7.94-17.52-13.45,4.72-7.19,7-10.81,11.38-18.12a516.12,516.12,0,0,1-67.23,6.59q.28,5.32.6,10.62" transform="translate(-5.9 -104.17)"/><line class="cls-2" x1="218.71" y1="16.29" x2="183.44" y2="8.54"/><path class="cls-2" d="M46.46,142.08c-12.69-1.23-25.34-2.89-38-5,7.19-5.24,10.69-7.94,17.52-13.45-4.72-7.19-7-10.81-11.38-18.12a516.12,516.12,0,0,0,67.23,6.59c-.2,3.74-.42,7.47-.64,11.2" transform="translate(-5.9 -104.17)"/><line class="cls-2" x1="40.56" y1="16.29" x2="75.83" y2="8.54"/><path class="cls-2" d="M45.56,121.43" transform="translate(-5.9 -104.17)"/><path class="cls-2" d="M223.82,159.44a1133.78,1133.78,0,0,1-176.57,0c.08-13-.94-25.92-.82-38.9a1147.43,1147.43,0,0,0,178.21,0C224.75,133.52,223.74,146.46,223.82,159.44Z" transform="translate(-5.9 -104.17)"/><path class="cls-3" d="M90.33,134a4,4,0,0,0-3.5,1.35,7,7,0,0,0-1.25,2.42,12.74,12.74,0,0,0-.56,3.34,13.54,13.54,0,0,0,.22,3.24,7.9,7.9,0,0,0,.92,2.54,4.14,4.14,0,0,0,1.53,1.55,5.32,5.32,0,0,0,2.35.57,5.42,5.42,0,0,0,3.51-.89,4.72,4.72,0,0,0,1.75-3l1.34.05a7.1,7.1,0,0,1-2.35,4.15,6.75,6.75,0,0,1-4.56,1.21,7.4,7.4,0,0,1-5.31-2.16,7.51,7.51,0,0,1-1.7-3,11.3,11.3,0,0,1-.45-3.94,11.79,11.79,0,0,1,1-4.37,7.78,7.78,0,0,1,2.4-3.06,7.39,7.39,0,0,1,4.92-1.32,9.71,9.71,0,0,1,1.33.14,4.48,4.48,0,0,1,1.09.33,4.33,4.33,0,0,1,.94.58,6.6,6.6,0,0,1,.87.88c.22-.6.33-.9.54-1.5l1.33.05c-.08,2.13-.11,3.19-.19,5.33L95,138.49Q94.49,134.2,90.33,134Z" transform="translate(-5.9 -104.17)"/><path class="cls-3" d="M98.36,147.84a3.27,3.27,0,0,1,.49-1.66,3.87,3.87,0,0,1,1.39-1.24,9.46,9.46,0,0,1,2.42-.9,29.31,29.31,0,0,1,3.53-.63,17.86,17.86,0,0,0-.22-2.22,4.47,4.47,0,0,0-.39-1.3,2.12,2.12,0,0,0-.92-.95,2.89,2.89,0,0,0-1.3-.34,3.06,3.06,0,0,0-1.23.2,1.4,1.4,0,0,0-.76.63,1.63,1.63,0,0,1,.48.66,1.88,1.88,0,0,1,.13.71,1.16,1.16,0,0,1-.43.94,1.38,1.38,0,0,1-1,.32,1.29,1.29,0,0,1-1-.41,1.51,1.51,0,0,1-.35-1.1,2.32,2.32,0,0,1,.46-1.33,3.55,3.55,0,0,1,1.11-.95,5.56,5.56,0,0,1,1.53-.56,6.71,6.71,0,0,1,1.66-.15,4.41,4.41,0,0,1,3.22,1.27q1.47,1.53,1.37,5.35c0,1.39,0,2.09-.08,3.49a6.13,6.13,0,0,0,.11,1.66.65.65,0,0,0,.69.46l1.1,0v.72a8.28,8.28,0,0,1-2.77.64A1.52,1.52,0,0,1,107,151a1,1,0,0,1-.38-.43,2.71,2.71,0,0,1-.18-.82,8.43,8.43,0,0,1,0-1.28h-.1a5.47,5.47,0,0,1-2.06,1.88,5.55,5.55,0,0,1-2.72.62,3.48,3.48,0,0,1-2.4-.89A2.91,2.91,0,0,1,98.36,147.84Zm4.28,1.8a3.45,3.45,0,0,0,1.45-.31,3.52,3.52,0,0,0,1.28-.94,4.16,4.16,0,0,0,.84-2.68c0-.28,0-.55,0-.81s0-.52,0-.76a21.4,21.4,0,0,0-2.49.53,6.52,6.52,0,0,0-1.61.66,2.3,2.3,0,0,0-.87.89,2.82,2.82,0,0,0-.28,1.19,2.42,2.42,0,0,0,.43,1.62A1.63,1.63,0,0,0,102.64,149.64Z" transform="translate(-5.9 -104.17)"/><path class="cls-3" d="M116.5,150.26a4.18,4.18,0,0,0,2.27-.5,1.76,1.76,0,0,0,.88-1.55,1.71,1.71,0,0,0-.3-1,3,3,0,0,0-.81-.71,5.5,5.5,0,0,0-1.12-.51c-.41-.15-.81-.28-1.2-.4a14.06,14.06,0,0,1-1.46-.53,5.25,5.25,0,0,1-1.28-.77,3.16,3.16,0,0,1-.89-1.1,3.27,3.27,0,0,1-.31-1.56,3.43,3.43,0,0,1,1.34-2.76,5.38,5.38,0,0,1,3.57-1,5.22,5.22,0,0,1,3.06.85,2.59,2.59,0,0,1,1.09,2.23,1.81,1.81,0,0,1-.36,1.2,1.13,1.13,0,0,1-1,.42,1.28,1.28,0,0,1-.92-.35,1.15,1.15,0,0,1-.35-.88,1.48,1.48,0,0,1,.26-.82,1.45,1.45,0,0,1,.64-.54,2.1,2.1,0,0,0-.92-.75,4,4,0,0,0-1.47-.25c-1.94,0-2.92.62-2.95,2a1.94,1.94,0,0,0,.17.92,1.76,1.76,0,0,0,.58.64,4,4,0,0,0,.95.49c.38.15.82.3,1.32.47s1.09.38,1.62.58a7,7,0,0,1,1.44.75,3.64,3.64,0,0,1,1,1.1,3.05,3.05,0,0,1,.38,1.63,3.39,3.39,0,0,1-.42,1.65,3.59,3.59,0,0,1-1.12,1.21,5.6,5.6,0,0,1-1.7.73,8.26,8.26,0,0,1-2.17.23,6.29,6.29,0,0,1-3.47-.93,2.67,2.67,0,0,1-1.26-2.38,1.92,1.92,0,0,1,.38-1.21,1.21,1.21,0,0,1,1-.42,1.48,1.48,0,0,1,1,.35,1.14,1.14,0,0,1,.38.91,1.72,1.72,0,0,1-.91,1.45,2.21,2.21,0,0,0,1.12.8A5.67,5.67,0,0,0,116.5,150.26Z" transform="translate(-5.9 -104.17)"/><path class="cls-3" d="M123.22,138.54l2.36-.31.35-3,2-.27c0,1.33,0,2,0,3.33l3.11,0v1.21l-3.11,0c0,3.44,0,5.17-.07,8.61,0,.55,0,.92,0,1.13a2,2,0,0,0,.09.49.4.4,0,0,0,.27.25,3.07,3.07,0,0,0,.64.05h1.71v.7a15.77,15.77,0,0,1-2.08.62,6.57,6.57,0,0,1-1.44.2,1.35,1.35,0,0,1-1.41-.91,2.35,2.35,0,0,1-.15-.74c0-.3,0-.75,0-1.36l.1-9.08-2.36,0Z" transform="translate(-5.9 -104.17)"/><path class="cls-3" d="M145.3,151.58a7.63,7.63,0,0,1-2.65-.43,5.14,5.14,0,0,1-2-1.22c-.11.56-.16.84-.27,1.4h-1.37v-5.48h1.49a5.23,5.23,0,0,0,1.16,3.36,4.15,4.15,0,0,0,3.13,1c2.34,0,3.5-.9,3.48-2.65a2.86,2.86,0,0,0-.31-1.35,3.6,3.6,0,0,0-.88-1.05,6.82,6.82,0,0,0-1.38-.86c-.55-.26-1.16-.53-1.85-.79s-1.46-.61-2.06-.9a6,6,0,0,1-1.48-1,3.91,3.91,0,0,1-.92-1.3,5.25,5.25,0,0,1,1.12-5.38,5.66,5.66,0,0,1,3.86-1.29,5.58,5.58,0,0,1,3.9,1.33c.07-.44.11-.66.18-1.09h1.35c0,2.19,0,3.28.06,5.48h-1.39a5.42,5.42,0,0,0-.88-3.39,3.41,3.41,0,0,0-2.76-1q-3.31,0-3.3,3a3.37,3.37,0,0,0,.14,1,1.9,1.9,0,0,0,.55.78,5,5,0,0,0,1.09.7c.45.22,1,.48,1.75.78,1,.43,1.87.84,2.59,1.23a8.11,8.11,0,0,1,1.75,1.23,4.07,4.07,0,0,1,1.34,3.08,4.71,4.71,0,0,1-.39,2,4.14,4.14,0,0,1-1.11,1.5,5.22,5.22,0,0,1-1.73.93A7.93,7.93,0,0,1,145.3,151.58Z" transform="translate(-5.9 -104.17)"/><path class="cls-3" d="M159.44,154.5l0,1-6.67.1,0-1,1.89-.48c-.08-5.79-.12-8.69-.19-14.48l-1.88-.44v-1l3.49,0c.16.74.24,1.11.39,1.85a4.33,4.33,0,0,1,1.74-1.68,5.39,5.39,0,0,1,2.21-.49,6.69,6.69,0,0,1,2.25.32,3.59,3.59,0,0,1,1.66,1.12,7.45,7.45,0,0,1,1.21,2.17,9.16,9.16,0,0,1,.49,2.79,9,9,0,0,1-.41,2.92,6.7,6.7,0,0,1-1.24,2.31,4.91,4.91,0,0,1-3.91,1.65,4.71,4.71,0,0,1-1.91-.35A4,4,0,0,1,157,149.4c0,1.87.05,2.81.08,4.68Zm-2.57-10.05a8,8,0,0,0,.92,4.19,2.83,2.83,0,0,0,1,.94,2.94,2.94,0,0,0,1.5.3,2.83,2.83,0,0,0,2.45-1.19,4.16,4.16,0,0,0,.6-1.69,14.55,14.55,0,0,0,.14-2.5,8,8,0,0,0-.94-4.15,2.85,2.85,0,0,0-1-.94,2.91,2.91,0,0,0-1.48-.3,3.54,3.54,0,0,0-1.46.31,2.13,2.13,0,0,0-.93.85,5.32,5.32,0,0,0-.61,1.7A12.9,12.9,0,0,0,156.87,144.45Z" transform="translate(-5.9 -104.17)"/><path class="cls-3" d="M170.76,144.52a7.44,7.44,0,0,0,.57,2.91,3.08,3.08,0,0,0,1.42,1.56,4.17,4.17,0,0,0,2,.42,4.8,4.8,0,0,0,2.1-.54,5.74,5.74,0,0,0,1.66-1.35l.8.55a11,11,0,0,1-.9,1.12,6.22,6.22,0,0,1-1.11.93,5.69,5.69,0,0,1-1.41.65,6.53,6.53,0,0,1-1.73.27,6.14,6.14,0,0,1-3-.63,4.71,4.71,0,0,1-2-2,6.36,6.36,0,0,1-.58-1.64,10.67,10.67,0,0,1-.22-2,8,8,0,0,1,1.42-5.29,5.33,5.33,0,0,1,4.22-2,4.82,4.82,0,0,1,3.88,1.42,6.18,6.18,0,0,1,1.48,4.18c0,.17,0,.31,0,.45s0,.37,0,.69C175.86,144.38,174.16,144.43,170.76,144.52Zm3.07-5.69c-1.94.06-3,1.56-3.08,4.51l6.09-.18,0-.8a4.27,4.27,0,0,0-.83-2.65A2.56,2.56,0,0,0,173.83,138.83Z" transform="translate(-5.9 -104.17)"/><path class="cls-3" d="M182.56,133.13l-1.87-.39,0-1,4.2-.16c.27,6.95.41,10.42.68,17.37l1.91.38,0,1c-2.46.1-3.69.15-6.16.23l0-1,1.87-.53Z" transform="translate(-5.9 -104.17)"/><path class="cls-3" d="M190,132.83l-1.88-.38,0-1,4.2-.18c.32,6.94.48,10.41.79,17.36L195,149l.05,1-6.16.27,0-1,1.87-.54C190.42,142.38,190.28,139.19,190,132.83Z" transform="translate(-5.9 -104.17)"/><g class="cls-4"><path class="cls-5" d="M90.33,134a4,4,0,0,0-3.5,1.35,7,7,0,0,0-1.25,2.42,12.74,12.74,0,0,0-.56,3.34,13.54,13.54,0,0,0,.22,3.24,7.9,7.9,0,0,0,.92,2.54,4.14,4.14,0,0,0,1.53,1.55,5.32,5.32,0,0,0,2.35.57,5.42,5.42,0,0,0,3.51-.89,4.72,4.72,0,0,0,1.75-3l1.34.05a7.1,7.1,0,0,1-2.35,4.15,6.75,6.75,0,0,1-4.56,1.21,7.4,7.4,0,0,1-5.31-2.16,7.51,7.51,0,0,1-1.7-3,11.3,11.3,0,0,1-.45-3.94,11.79,11.79,0,0,1,1-4.37,7.78,7.78,0,0,1,2.4-3.06,7.39,7.39,0,0,1,4.92-1.32,9.71,9.71,0,0,1,1.33.14,4.48,4.48,0,0,1,1.09.33,4.33,4.33,0,0,1,.94.58,6.6,6.6,0,0,1,.87.88c.22-.6.33-.9.54-1.5l1.33.05c-.08,2.13-.11,3.19-.19,5.33L95,138.49Q94.49,134.2,90.33,134Z" transform="translate(-5.9 -104.17)"/><path class="cls-6" d="M98.36,147.84a3.27,3.27,0,0,1,.49-1.66,3.87,3.87,0,0,1,1.39-1.24,9.46,9.46,0,0,1,2.42-.9,29.31,29.31,0,0,1,3.53-.63,17.86,17.86,0,0,0-.22-2.22,4.47,4.47,0,0,0-.39-1.3,2.12,2.12,0,0,0-.92-.95,2.89,2.89,0,0,0-1.3-.34,3.06,3.06,0,0,0-1.23.2,1.4,1.4,0,0,0-.76.63,1.63,1.63,0,0,1,.48.66,1.88,1.88,0,0,1,.13.71,1.16,1.16,0,0,1-.43.94,1.39,1.39,0,0,1-1,.32,1.28,1.28,0,0,1-.94-.41,1.51,1.51,0,0,1-.35-1.1,2.32,2.32,0,0,1,.46-1.33,3.55,3.55,0,0,1,1.11-.95,5.56,5.56,0,0,1,1.53-.56,6.71,6.71,0,0,1,1.66-.15,4.41,4.41,0,0,1,3.22,1.27q1.47,1.53,1.37,5.35c0,1.39,0,2.09-.08,3.49a6.13,6.13,0,0,0,.11,1.66.65.65,0,0,0,.69.46l1.1,0v.72a8.28,8.28,0,0,1-2.77.64A1.52,1.52,0,0,1,107,151a1,1,0,0,1-.38-.43,2.71,2.71,0,0,1-.18-.82,8.43,8.43,0,0,1,0-1.28h-.1a5.47,5.47,0,0,1-2.06,1.88,5.55,5.55,0,0,1-2.72.62,3.48,3.48,0,0,1-2.4-.89A2.91,2.91,0,0,1,98.36,147.84Zm4.28,1.8a3.45,3.45,0,0,0,1.45-.31,3.52,3.52,0,0,0,1.28-.94,4.16,4.16,0,0,0,.84-2.68c0-.28,0-.55,0-.81s0-.52,0-.76a21.4,21.4,0,0,0-2.49.53,6.52,6.52,0,0,0-1.61.66,2.3,2.3,0,0,0-.87.89,2.82,2.82,0,0,0-.28,1.19,2.42,2.42,0,0,0,.43,1.62A1.63,1.63,0,0,0,102.64,149.64Z" transform="translate(-5.9 -104.17)"/><path class="cls-7" d="M116.5,150.26a4.18,4.18,0,0,0,2.27-.5,1.76,1.76,0,0,0,.88-1.55,1.71,1.71,0,0,0-.3-1,3,3,0,0,0-.81-.71,5.5,5.5,0,0,0-1.12-.51c-.41-.15-.81-.28-1.2-.4a14.06,14.06,0,0,1-1.46-.53,5.25,5.25,0,0,1-1.28-.77,3.16,3.16,0,0,1-.89-1.1,3.27,3.27,0,0,1-.31-1.56,3.43,3.43,0,0,1,1.34-2.76,5.38,5.38,0,0,1,3.57-1,5.22,5.22,0,0,1,3.06.85,2.59,2.59,0,0,1,1.09,2.23,1.81,1.81,0,0,1-.36,1.2,1.13,1.13,0,0,1-1,.42,1.28,1.28,0,0,1-.92-.35,1.15,1.15,0,0,1-.35-.88,1.48,1.48,0,0,1,.26-.82,1.45,1.45,0,0,1,.64-.54,2.1,2.1,0,0,0-.92-.75,4,4,0,0,0-1.47-.25c-1.94,0-2.92.62-2.95,2a1.94,1.94,0,0,0,.17.92,1.76,1.76,0,0,0,.58.64,4,4,0,0,0,.95.49c.38.15.82.3,1.32.47s1.09.38,1.62.58a7,7,0,0,1,1.44.75,3.64,3.64,0,0,1,1,1.1,3.05,3.05,0,0,1,.38,1.63,3.39,3.39,0,0,1-.42,1.65,3.59,3.59,0,0,1-1.12,1.21,5.6,5.6,0,0,1-1.7.73,8.26,8.26,0,0,1-2.17.23,6.29,6.29,0,0,1-3.47-.93,2.67,2.67,0,0,1-1.26-2.38,1.92,1.92,0,0,1,.38-1.21,1.21,1.21,0,0,1,1-.42,1.48,1.48,0,0,1,1,.35,1.14,1.14,0,0,1,.38.91,1.72,1.72,0,0,1-.91,1.45,2.21,2.21,0,0,0,1.12.8A5.67,5.67,0,0,0,116.5,150.26Z" transform="translate(-5.9 -104.17)"/><path class="cls-8" d="M123.22,138.54l2.36-.31.35-3,2-.27c0,1.33,0,2,0,3.33l3.11,0v1.21l-3.11,0c0,3.44,0,5.17-.07,8.61,0,.55,0,.92,0,1.13a2,2,0,0,0,.09.49.4.4,0,0,0,.27.25,3.07,3.07,0,0,0,.64.05h1.71v.7a15.77,15.77,0,0,1-2.08.62,6.57,6.57,0,0,1-1.44.2,1.35,1.35,0,0,1-1.41-.91,2.35,2.35,0,0,1-.15-.74c0-.3,0-.75,0-1.36l.1-9.08-2.36,0Z" transform="translate(-5.9 -104.17)"/><path class="cls-9" d="M145.3,151.58a7.63,7.63,0,0,1-2.65-.43,5.14,5.14,0,0,1-2-1.22c-.11.56-.16.84-.27,1.4h-1.37v-5.48h1.49a5.23,5.23,0,0,0,1.16,3.36,4.15,4.15,0,0,0,3.13,1c2.34,0,3.5-.9,3.48-2.65a2.86,2.86,0,0,0-.31-1.35,3.6,3.6,0,0,0-.88-1.05,6.82,6.82,0,0,0-1.38-.86c-.55-.26-1.16-.53-1.85-.79s-1.46-.61-2.06-.9a6,6,0,0,1-1.48-1,3.91,3.91,0,0,1-.92-1.3,5.25,5.25,0,0,1,1.12-5.38,5.66,5.66,0,0,1,3.86-1.29,5.58,5.58,0,0,1,3.9,1.33c.07-.44.11-.66.18-1.09h1.36l.05,5.48h-1.39a5.42,5.42,0,0,0-.88-3.39,3.41,3.41,0,0,0-2.76-1q-3.31,0-3.3,3a3.37,3.37,0,0,0,.14,1,1.9,1.9,0,0,0,.55.78,5,5,0,0,0,1.09.7c.45.22,1,.48,1.75.78,1,.43,1.87.84,2.59,1.23a8.11,8.11,0,0,1,1.75,1.23,4.19,4.19,0,0,1,1,1.39,4.32,4.32,0,0,1,.34,1.69,4.71,4.71,0,0,1-.39,2,4.14,4.14,0,0,1-1.11,1.5,5.22,5.22,0,0,1-1.73.93A7.93,7.93,0,0,1,145.3,151.58Z" transform="translate(-5.9 -104.17)"/><path class="cls-10" d="M159.44,154.5l0,1-6.67.1,0-1,1.89-.48c-.08-5.79-.12-8.69-.19-14.48l-1.88-.44v-1l3.49,0c.16.74.24,1.11.39,1.85a4.33,4.33,0,0,1,1.74-1.68,5.39,5.39,0,0,1,2.21-.49,6.69,6.69,0,0,1,2.25.32,3.59,3.59,0,0,1,1.66,1.12,7.45,7.45,0,0,1,1.21,2.17,9.16,9.16,0,0,1,.49,2.79,9,9,0,0,1-.41,2.92,6.7,6.7,0,0,1-1.24,2.31,4.91,4.91,0,0,1-3.91,1.65,4.71,4.71,0,0,1-1.91-.35A4,4,0,0,1,157,149.4c0,1.87.05,2.81.08,4.68Zm-2.57-10.05a8,8,0,0,0,.92,4.19,2.83,2.83,0,0,0,1,.94,2.94,2.94,0,0,0,1.5.3,2.83,2.83,0,0,0,2.45-1.19,4.16,4.16,0,0,0,.6-1.69,14.55,14.55,0,0,0,.14-2.5,8,8,0,0,0-.94-4.15,2.85,2.85,0,0,0-1-.94,2.91,2.91,0,0,0-1.48-.3,3.54,3.54,0,0,0-1.46.31,2.13,2.13,0,0,0-.93.85,5.32,5.32,0,0,0-.61,1.7A12.9,12.9,0,0,0,156.87,144.45Z" transform="translate(-5.9 -104.17)"/><path class="cls-11" d="M170.76,144.52a7.44,7.44,0,0,0,.57,2.91,3.08,3.08,0,0,0,1.42,1.56,4.17,4.17,0,0,0,2,.42,4.8,4.8,0,0,0,2.1-.54,5.74,5.74,0,0,0,1.66-1.35l.8.55a11,11,0,0,1-.9,1.12,6.22,6.22,0,0,1-1.11.93,5.69,5.69,0,0,1-1.41.65,6.53,6.53,0,0,1-1.73.27,6.14,6.14,0,0,1-3-.63,4.71,4.71,0,0,1-2-2,6.36,6.36,0,0,1-.58-1.64,10.67,10.67,0,0,1-.22-2,8,8,0,0,1,1.42-5.29,5.33,5.33,0,0,1,4.22-2,4.82,4.82,0,0,1,3.88,1.42,6.18,6.18,0,0,1,1.48,4.18c0,.16,0,.31,0,.45s0,.37,0,.69C175.86,144.38,174.16,144.43,170.76,144.52Zm3.07-5.69c-1.94.06-3,1.56-3.08,4.51l6.09-.18,0-.8a4.27,4.27,0,0,0-.83-2.65A2.56,2.56,0,0,0,173.83,138.83Z" transform="translate(-5.9 -104.17)"/><path class="cls-12" d="M182.57,133.13l-1.88-.39,0-1,4.2-.16c.27,6.95.41,10.42.68,17.37l1.91.38,0,1c-2.46.1-3.69.15-6.16.23l0-1,1.87-.53C182.92,142.68,182.8,139.5,182.57,133.13Z" transform="translate(-5.9 -104.17)"/><path class="cls-13" d="M190,132.83l-1.88-.38,0-1,4.2-.18c.32,6.94.48,10.41.79,17.36L195,149l.05,1-6.16.27,0-1,1.87-.54C190.42,142.38,190.28,139.19,190,132.83Z" transform="translate(-5.9 -104.17)"/></g></svg>