<svg id="Layer_1" data-name="Layer 1" xmlns="http://www.w3.org/2000/svg" xmlns:xlink="http://www.w3.org/1999/xlink" viewBox="0 0 1178.51 52.97"><defs><style>.cls-1{stroke:#010101;stroke-miterlimit:10;stroke-width:2px;fill:url(#linear-gradient);}.cls-2{fill:#e8ad22;}</style><linearGradient id="linear-gradient" x1="3.88" y1="26.48" x2="1177.51" y2="26.48" gradientUnits="userSpaceOnUse"><stop offset="0" stop-color="#27235e"/><stop offset="0.34" stop-color="#573594"/><stop offset="0.55" stop-color="#462f80"/><stop offset="0.98" stop-color="#1b204d"/><stop offset="1" stop-color="#191f4b"/></linearGradient></defs><title>cookiesbanner2</title><polygon class="cls-1" points="1177.51 51.97 3.88 51.97 50.1 26.48 3.88 1 1177.51 1 1177.51 51.97"/><path class="cls-2" d="M497.8,33.66V39.2h-1.38l-.84-4h-4.33V50.89l2.8.63v1.14h-8.23V51.52l2.8-.63V35.24h-4.36l-.82,4h-1.37V33.66Z" transform="translate(-19.04 -16.02)"/><path class="cls-2" d="M510.3,45.19q0-1.68-.09-2.55a4,4,0,0,0-.33-1.33A2.38,2.38,0,0,0,507.56,40a4.11,4.11,0,0,0-1.43.26,4.31,4.31,0,0,0-1.21.72,3.28,3.28,0,0,0-.86,1.21,5.64,5.64,0,0,0-.33,1.71v7.15l1.77.51v1.08h-6.36V51.58l2-.51V33.66l-2-.5V32.08h4.59v8.81a5.84,5.84,0,0,1,2.1-2,5.54,5.54,0,0,1,2.81-.74,4.63,4.63,0,0,1,1.9.37,3.22,3.22,0,0,1,1.35,1,5,5,0,0,1,.75,2.07,22.79,22.79,0,0,1,.22,3.6v5.83l2,.51v1.08h-6.36V51.58l1.77-.51Z" transform="translate(-19.04 -16.02)"/><path class="cls-2" d="M516.42,39.49V38.41H521V51.07l2,.51v1.08h-6.63V51.58l2-.51V40Zm1.67-5.33a1.66,1.66,0,0,1,.43-1.21,1.59,1.59,0,0,1,1.2-.45,1.55,1.55,0,0,1,1.66,1.66,1.59,1.59,0,0,1-.45,1.2,1.65,1.65,0,0,1-1.21.44,1.51,1.51,0,0,1-1.63-1.64Z" transform="translate(-19.04 -16.02)"/><path class="cls-2" d="M530.14,51.71a4.42,4.42,0,0,0,2.43-.6,1.9,1.9,0,0,0,.92-1.7,1.77,1.77,0,0,0-.34-1.11,3.12,3.12,0,0,0-.88-.76,6.81,6.81,0,0,0-1.22-.54c-.45-.15-.88-.29-1.3-.41a16.74,16.74,0,0,1-1.6-.55,5.83,5.83,0,0,1-1.4-.81,3.69,3.69,0,0,1-1-1.19,3.65,3.65,0,0,1-.37-1.7,3.76,3.76,0,0,1,1.39-3.05,5.9,5.9,0,0,1,3.86-1.14A5.61,5.61,0,0,1,534,39a2.81,2.81,0,0,1,1.23,2.41,2.12,2.12,0,0,1-.37,1.32,1.26,1.26,0,0,1-1.06.48,1.39,1.39,0,0,1-1-.37,1.26,1.26,0,0,1-.4-.95,1.62,1.62,0,0,1,.27-.91,1.49,1.49,0,0,1,.68-.59,2.28,2.28,0,0,0-1-.81,4.3,4.3,0,0,0-1.6-.25c-2.11,0-3.16.75-3.16,2.24a2.16,2.16,0,0,0,.21,1,1.93,1.93,0,0,0,.63.68,4.38,4.38,0,0,0,1,.52q.63.22,1.44.48c.6.2,1.19.4,1.77.61a7.44,7.44,0,0,1,1.57.79,3.89,3.89,0,0,1,1.13,1.19,3.32,3.32,0,0,1,.44,1.77,3.67,3.67,0,0,1-1.61,3.15,5.75,5.75,0,0,1-1.82.83,8.93,8.93,0,0,1-2.32.29,6.65,6.65,0,0,1-3.76-.94,2.92,2.92,0,0,1-1.41-2.57,2.08,2.08,0,0,1,.38-1.33,1.32,1.32,0,0,1,1.09-.49,1.58,1.58,0,0,1,1.07.37,1.23,1.23,0,0,1,.44,1,1.84,1.84,0,0,1-.28,1,1.76,1.76,0,0,1-.67.66,2.32,2.32,0,0,0,1.22.84A6,6,0,0,0,530.14,51.71Z" transform="translate(-19.04 -16.02)"/><path class="cls-2" d="M550.11,51.71a4.39,4.39,0,0,0,2.43-.6,1.88,1.88,0,0,0,.92-1.7,1.77,1.77,0,0,0-.34-1.11,3.12,3.12,0,0,0-.88-.76A6.51,6.51,0,0,0,551,47c-.44-.15-.88-.29-1.3-.41a16.74,16.74,0,0,1-1.6-.55,6,6,0,0,1-1.4-.81,3.69,3.69,0,0,1-1-1.19,3.65,3.65,0,0,1-.37-1.7,3.79,3.79,0,0,1,1.39-3.05,5.9,5.9,0,0,1,3.86-1.14A5.61,5.61,0,0,1,554,39a2.81,2.81,0,0,1,1.23,2.41,2.05,2.05,0,0,1-.37,1.32,1.26,1.26,0,0,1-1.06.48,1.41,1.41,0,0,1-1-.37,1.25,1.25,0,0,1-.39-.95,1.61,1.61,0,0,1,.26-.91,1.52,1.52,0,0,1,.69-.59,2.37,2.37,0,0,0-1-.81,4.26,4.26,0,0,0-1.6-.25c-2.11,0-3.16.75-3.16,2.24a2.16,2.16,0,0,0,.21,1,1.93,1.93,0,0,0,.63.68,4.38,4.38,0,0,0,1,.52q.63.22,1.44.48c.6.2,1.19.4,1.77.61a7.44,7.44,0,0,1,1.57.79,3.77,3.77,0,0,1,1.13,1.19,3.32,3.32,0,0,1,.44,1.77,3.85,3.85,0,0,1-.42,1.82,3.78,3.78,0,0,1-1.19,1.33,5.75,5.75,0,0,1-1.82.83,8.88,8.88,0,0,1-2.32.29,6.65,6.65,0,0,1-3.76-.94,2.92,2.92,0,0,1-1.41-2.57,2.08,2.08,0,0,1,.38-1.33,1.32,1.32,0,0,1,1.09-.49,1.57,1.57,0,0,1,1.07.37,1.23,1.23,0,0,1,.44,1,1.93,1.93,0,0,1-1,1.61,2.35,2.35,0,0,0,1.23.84A5.93,5.93,0,0,0,550.11,51.71Z" transform="translate(-19.04 -16.02)"/><path class="cls-2" d="M557.9,39.49V38.41h4.59V51.07l2,.51v1.08H557.9V51.58l2-.51V40Zm1.66-5.33A1.66,1.66,0,0,1,560,33a1.59,1.59,0,0,1,1.2-.45,1.65,1.65,0,0,1,1.22.45,1.63,1.63,0,0,1,.45,1.21,1.59,1.59,0,0,1-.45,1.2,1.69,1.69,0,0,1-1.22.44,1.51,1.51,0,0,1-1.63-1.64Z" transform="translate(-19.04 -16.02)"/><path class="cls-2" d="M565.41,38.78l2.56-.37.35-3.32,2.21-.32v3.64h3.38v1.32h-3.38v9.42q0,.9,0,1.23a1.83,1.83,0,0,0,.11.54.37.37,0,0,0,.29.26,2.82,2.82,0,0,0,.68,0h1.85V52a20.17,20.17,0,0,1-2.23.7,7.11,7.11,0,0,1-1.54.22,1.45,1.45,0,0,1-1.54-1,3.18,3.18,0,0,1-.17-.81c0-.32,0-.82,0-1.49V39.73h-2.56Z" transform="translate(-19.04 -16.02)"/><path class="cls-2" d="M578.08,45.69a8.14,8.14,0,0,0,.53,3.19,3.34,3.34,0,0,0,1.49,1.76,4.46,4.46,0,0,0,2.12.51,5,5,0,0,0,2.28-.51,6.33,6.33,0,0,0,1.84-1.41l.84.63a12.93,12.93,0,0,1-1,1.19,6.49,6.49,0,0,1-1.23,1,5.53,5.53,0,0,1-1.53.66,6.86,6.86,0,0,1-1.88.24,6.47,6.47,0,0,1-3.21-.78,5.09,5.09,0,0,1-2.14-2.28,6.74,6.74,0,0,1-.58-1.81,11.1,11.1,0,0,1-.19-2.15,8.7,8.7,0,0,1,1.69-5.73,5.74,5.74,0,0,1,4.65-2,5.21,5.21,0,0,1,4.16,1.67,6.84,6.84,0,0,1,1.46,4.63c0,.18,0,.34,0,.49s0,.4-.06.75Zm3.51-6.12q-3.17,0-3.49,4.83h6.6v-.87a4.71,4.71,0,0,0-.8-2.93A2.76,2.76,0,0,0,581.59,39.57Z" transform="translate(-19.04 -16.02)"/><path class="cls-2" d="M600.32,45.88q0,.84,0,1.47c0,.43,0,.79.06,1.09a5.81,5.81,0,0,0,.12.76,2.17,2.17,0,0,0,.21.56A2.23,2.23,0,0,0,603,51.05a3.6,3.6,0,0,0,1.37-.27,3.69,3.69,0,0,0,1.16-.71,3.32,3.32,0,0,0,.86-1.22,6,6,0,0,0,.33-1.81V40l-2.3-.5V38.41h4.86V51.07l2,.51v1.08l-4.09.26-.29-2.9h-.11a5.64,5.64,0,0,1-2.08,2.12,5.45,5.45,0,0,1-2.82.78,4.45,4.45,0,0,1-1.84-.37,3,3,0,0,1-1.3-1,5,5,0,0,1-.76-2.07,22.84,22.84,0,0,1-.22-3.61V40l-1.77-.5V38.41h4.33Z" transform="translate(-19.04 -16.02)"/><path class="cls-2" d="M618.37,51.71a4.36,4.36,0,0,0,2.42-.6,1.89,1.89,0,0,0,.93-1.7,1.77,1.77,0,0,0-.35-1.11,3.12,3.12,0,0,0-.88-.76,6.71,6.71,0,0,0-1.21-.54c-.45-.15-.89-.29-1.31-.41a16.74,16.74,0,0,1-1.6-.55,5.76,5.76,0,0,1-1.39-.81A3.45,3.45,0,0,1,614,44a3.53,3.53,0,0,1-.37-1.7A3.79,3.79,0,0,1,615,39.29a5.93,5.93,0,0,1,3.87-1.14,5.58,5.58,0,0,1,3.33.88,2.81,2.81,0,0,1,1.23,2.41,2.05,2.05,0,0,1-.37,1.32,1.24,1.24,0,0,1-1,.48,1.42,1.42,0,0,1-1-.37,1.25,1.25,0,0,1-.39-.95,1.69,1.69,0,0,1,.26-.91,1.57,1.57,0,0,1,.69-.59,2.31,2.31,0,0,0-1-.81,4.21,4.21,0,0,0-1.59-.25c-2.11,0-3.17.75-3.17,2.24a2.16,2.16,0,0,0,.21,1,1.93,1.93,0,0,0,.63.68,4.47,4.47,0,0,0,1,.52c.41.15.89.31,1.43.48s1.19.4,1.77.61a7.21,7.21,0,0,1,1.57.79,3.81,3.81,0,0,1,1.14,1.19,3.32,3.32,0,0,1,.43,1.77,3.85,3.85,0,0,1-.42,1.82,3.78,3.78,0,0,1-1.19,1.33,5.65,5.65,0,0,1-1.82.83,8.88,8.88,0,0,1-2.32.29A6.65,6.65,0,0,1,614.5,52a2.92,2.92,0,0,1-1.41-2.57,2.14,2.14,0,0,1,.38-1.33,1.34,1.34,0,0,1,1.1-.49,1.56,1.56,0,0,1,1.06.37,1.2,1.2,0,0,1,.44,1,1.93,1.93,0,0,1-1,1.61,2.35,2.35,0,0,0,1.23.84A6,6,0,0,0,618.37,51.71Z" transform="translate(-19.04 -16.02)"/><path class="cls-2" d="M629.1,45.69a8.33,8.33,0,0,0,.53,3.19,3.38,3.38,0,0,0,1.49,1.76,4.47,4.47,0,0,0,2.13.51,5,5,0,0,0,2.28-.51,6.29,6.29,0,0,0,1.83-1.41l.85.63a13,13,0,0,1-1,1.19A6.19,6.19,0,0,1,636,52a5.29,5.29,0,0,1-1.53.66,6.78,6.78,0,0,1-1.87.24,6.5,6.5,0,0,1-3.22-.78,5.2,5.2,0,0,1-2.14-2.28,7.53,7.53,0,0,1-.58-1.81,12,12,0,0,1-.18-2.15,8.65,8.65,0,0,1,1.69-5.73,5.7,5.7,0,0,1,4.64-2,5.24,5.24,0,0,1,4.17,1.67,6.83,6.83,0,0,1,1.45,4.63c0,.18,0,.34,0,.49s0,.4-.07.75Zm3.51-6.12q-3.17,0-3.48,4.83h6.6v-.87a4.64,4.64,0,0,0-.81-2.93A2.74,2.74,0,0,0,632.61,39.57Z" transform="translate(-19.04 -16.02)"/><path class="cls-2" d="M646,51.71a4.42,4.42,0,0,0,2.43-.6,1.9,1.9,0,0,0,.92-1.7A1.83,1.83,0,0,0,649,48.3a3.17,3.17,0,0,0-.89-.76A6.41,6.41,0,0,0,646.9,47c-.45-.15-.88-.29-1.31-.41s-1.07-.34-1.59-.55a5.83,5.83,0,0,1-1.4-.81,3.45,3.45,0,0,1-1-1.19,3.53,3.53,0,0,1-.37-1.7,3.76,3.76,0,0,1,1.39-3.05,5.9,5.9,0,0,1,3.86-1.14,5.61,5.61,0,0,1,3.34.88,2.8,2.8,0,0,1,1.22,2.41,2.12,2.12,0,0,1-.36,1.32,1.26,1.26,0,0,1-1.06.48,1.37,1.37,0,0,1-1-.37,1.22,1.22,0,0,1-.4-.95,1.62,1.62,0,0,1,.27-.91,1.49,1.49,0,0,1,.68-.59,2.28,2.28,0,0,0-1-.81,4.3,4.3,0,0,0-1.6-.25c-2.11,0-3.17.75-3.17,2.24a2.16,2.16,0,0,0,.21,1,2,2,0,0,0,.64.68,4.38,4.38,0,0,0,1,.52q.62.22,1.44.48l1.77.61a7.13,7.13,0,0,1,1.56.79,3.81,3.81,0,0,1,1.14,1.19,3.32,3.32,0,0,1,.43,1.77,3.85,3.85,0,0,1-.42,1.82A3.75,3.75,0,0,1,650,51.8a5.7,5.7,0,0,1-1.83.83,8.82,8.82,0,0,1-2.32.29,6.67,6.67,0,0,1-3.76-.94,2.92,2.92,0,0,1-1.41-2.57,2.14,2.14,0,0,1,.38-1.33,1.34,1.34,0,0,1,1.1-.49,1.58,1.58,0,0,1,1.07.37,1.22,1.22,0,0,1,.43,1,1.83,1.83,0,0,1-.27,1,1.78,1.78,0,0,1-.68.66,2.35,2.35,0,0,0,1.23.84A6,6,0,0,0,646,51.71Z" transform="translate(-19.04 -16.02)"/><path class="cls-2" d="M667.49,38.15a5.53,5.53,0,0,1,3.65,1.12,3.67,3.67,0,0,1,1.36,3c0,1.36-.54,2-1.63,2a1.61,1.61,0,0,1-1.19-.42,1.53,1.53,0,0,1-.42-1.13,1.78,1.78,0,0,1,1.32-1.8,3,3,0,0,0-2.93-1.45,3.6,3.6,0,0,0-3.15,1.4,7.73,7.73,0,0,0-1,4.41,8.59,8.59,0,0,0,.68,3.82,3.61,3.61,0,0,0,3.46,2,5.35,5.35,0,0,0,2.32-.52,5.56,5.56,0,0,0,1.9-1.51l.79.64a6.94,6.94,0,0,1-2.43,2.4,6.46,6.46,0,0,1-3.21.76,6.54,6.54,0,0,1-3.21-.75,5.24,5.24,0,0,1-2.12-2.2A7.65,7.65,0,0,1,661,48a10.3,10.3,0,0,1-.25-2.34,9.47,9.47,0,0,1,.47-3.1,6.91,6.91,0,0,1,1.36-2.37,6,6,0,0,1,2.14-1.53A6.93,6.93,0,0,1,667.49,38.15Z" transform="translate(-19.04 -16.02)"/><path class="cls-2" d="M687.81,45.4a10.28,10.28,0,0,1-.52,3.27,6.89,6.89,0,0,1-1.44,2.54,7,7,0,0,1-9.1,0,6.62,6.62,0,0,1-1.38-2.41,9.6,9.6,0,0,1-.49-3.13,10.55,10.55,0,0,1,.5-3.3,6.58,6.58,0,0,1,1.45-2.56,5,5,0,0,1,1.95-1.3,7.3,7.3,0,0,1,2.59-.41,7.61,7.61,0,0,1,2.61.41,4.85,4.85,0,0,1,1.95,1.25,6.29,6.29,0,0,1,1.4,2.44A10.09,10.09,0,0,1,687.81,45.4Zm-10.11,0a9.29,9.29,0,0,0,.95,4.72,3.11,3.11,0,0,0,1.07,1,3.19,3.19,0,0,0,1.62.36,3.12,3.12,0,0,0,2.72-1.24,4.88,4.88,0,0,0,.7-1.9,15.52,15.52,0,0,0,.22-2.8,9.09,9.09,0,0,0-1-4.69A3.17,3.17,0,0,0,683,39.87a3.39,3.39,0,0,0-1.63-.35,3,3,0,0,0-2.67,1.21A9,9,0,0,0,677.7,45.43Z" transform="translate(-19.04 -16.02)"/><path class="cls-2" d="M703.16,45.4a10.28,10.28,0,0,1-.51,3.27,7.19,7.19,0,0,1-1.44,2.54,7,7,0,0,1-9.1,0,6.79,6.79,0,0,1-1.39-2.41,9.6,9.6,0,0,1-.49-3.13,10.85,10.85,0,0,1,.5-3.3,6.71,6.71,0,0,1,1.45-2.56,5.07,5.07,0,0,1,2-1.3,7.28,7.28,0,0,1,2.58-.41,7.61,7.61,0,0,1,2.61.41,4.82,4.82,0,0,1,2,1.25,6.41,6.41,0,0,1,1.4,2.44A10.39,10.39,0,0,1,703.16,45.4Zm-10.1,0a9.3,9.3,0,0,0,.94,4.72,3.11,3.11,0,0,0,1.07,1,3.25,3.25,0,0,0,1.63.36,3.11,3.11,0,0,0,2.71-1.24,4.88,4.88,0,0,0,.7-1.9,15.45,15.45,0,0,0,.23-2.8,9.19,9.19,0,0,0-1-4.69,3.17,3.17,0,0,0-1.08-1.05,3.44,3.44,0,0,0-1.64-.35A3,3,0,0,0,694,40.73,9,9,0,0,0,693.06,45.43Z" transform="translate(-19.04 -16.02)"/><path class="cls-2" d="M715.69,51.07l-4.06-5.48-2,1.69v3.79l2,.51v1.08H705V51.58l2-.51V33.66l-2-.5V32.08h4.59V46l5.62-6-1.74-.5V38.41h5.67v1.08l-1.92.5-4,4.09,5.25,7.05,1.4.45v1.08h-5.77V51.58Z" transform="translate(-19.04 -16.02)"/><path class="cls-2" d="M721.05,39.49V38.41h4.59V51.07l2,.51v1.08h-6.62V51.58l2-.51V40Zm1.66-5.33a1.62,1.62,0,0,1,.44-1.21,1.59,1.59,0,0,1,1.2-.45A1.55,1.55,0,0,1,726,34.16a1.59,1.59,0,0,1-.45,1.2,1.66,1.66,0,0,1-1.21.44,1.62,1.62,0,0,1-1.2-.44A1.59,1.59,0,0,1,722.71,34.16Z" transform="translate(-19.04 -16.02)"/><path class="cls-2" d="M732.23,45.69a8.33,8.33,0,0,0,.53,3.19,3.38,3.38,0,0,0,1.49,1.76,4.47,4.47,0,0,0,2.13.51,5,5,0,0,0,2.28-.51,6.29,6.29,0,0,0,1.83-1.41l.85.63a13,13,0,0,1-1,1.19,6.19,6.19,0,0,1-1.23,1,5.29,5.29,0,0,1-1.53.66,6.78,6.78,0,0,1-1.87.24,6.5,6.5,0,0,1-3.22-.78,5.2,5.2,0,0,1-2.14-2.28,7.53,7.53,0,0,1-.58-1.81,12,12,0,0,1-.18-2.15,8.65,8.65,0,0,1,1.69-5.73,5.7,5.7,0,0,1,4.64-2,5.24,5.24,0,0,1,4.17,1.67,6.83,6.83,0,0,1,1.45,4.63c0,.18,0,.34,0,.49s0,.4-.07.75Zm3.51-6.12q-3.16,0-3.48,4.83h6.6v-.87a4.64,4.64,0,0,0-.81-2.93A2.74,2.74,0,0,0,735.74,39.57Z" transform="translate(-19.04 -16.02)"/><path class="cls-2" d="M749.12,51.71a4.42,4.42,0,0,0,2.43-.6,1.9,1.9,0,0,0,.92-1.7,1.83,1.83,0,0,0-.34-1.11,3.17,3.17,0,0,0-.89-.76A6.41,6.41,0,0,0,750,47c-.45-.15-.88-.29-1.31-.41s-1.07-.34-1.59-.55a5.83,5.83,0,0,1-1.4-.81,3.69,3.69,0,0,1-1-1.19,3.53,3.53,0,0,1-.37-1.7,3.76,3.76,0,0,1,1.39-3.05,5.9,5.9,0,0,1,3.86-1.14A5.61,5.61,0,0,1,753,39a2.8,2.8,0,0,1,1.22,2.41,2.12,2.12,0,0,1-.36,1.32,1.26,1.26,0,0,1-1.06.48,1.37,1.37,0,0,1-1-.37,1.22,1.22,0,0,1-.4-.95,1.62,1.62,0,0,1,.27-.91,1.49,1.49,0,0,1,.68-.59,2.28,2.28,0,0,0-1-.81,4.3,4.3,0,0,0-1.6-.25c-2.11,0-3.17.75-3.17,2.24a2.16,2.16,0,0,0,.21,1,2,2,0,0,0,.64.68,4.38,4.38,0,0,0,1,.52q.62.22,1.44.48c.6.2,1.19.4,1.77.61a7.44,7.44,0,0,1,1.57.79,3.89,3.89,0,0,1,1.13,1.19,3.32,3.32,0,0,1,.44,1.77,3.85,3.85,0,0,1-.43,1.82,3.75,3.75,0,0,1-1.18,1.33,5.7,5.7,0,0,1-1.83.83,8.82,8.82,0,0,1-2.32.29,6.67,6.67,0,0,1-3.76-.94,2.92,2.92,0,0,1-1.41-2.57,2.08,2.08,0,0,1,.39-1.33,1.32,1.32,0,0,1,1.09-.49,1.58,1.58,0,0,1,1.07.37,1.22,1.22,0,0,1,.43,1,1.83,1.83,0,0,1-.27,1,1.78,1.78,0,0,1-.68.66,2.35,2.35,0,0,0,1.23.84A6,6,0,0,0,749.12,51.71Z" transform="translate(-19.04 -16.02)"/></svg>