<svg id="Layer_1" data-name="Layer 1" xmlns="http://www.w3.org/2000/svg" xmlns:xlink="http://www.w3.org/1999/xlink" viewBox="0 0 1183.09 53.41"><defs><style>.cls-1{stroke:#010101;stroke-miterlimit:10;stroke-width:2px;fill:url(#linear-gradient);}.cls-2{fill:#e8ad22;}</style><linearGradient id="linear-gradient" x1="-450.47" y1="1024.89" x2="177.53" y2="1024.89" gradientTransform="translate(849.02 -1060.62) scale(1.88 1.06)" gradientUnits="userSpaceOnUse"><stop offset="0" stop-color="#a41d4e"/><stop offset="0.34" stop-color="#d01e4e"/><stop offset="1" stop-color="#991b4e"/></linearGradient></defs><title>cookiesbanner</title><polygon class="cls-1" points="1182.09 52.41 3.88 52.41 50.51 26.71 3.88 1 1182.09 1 1182.09 52.41"/><path class="cls-2" d="M268.48,34.25v5.54h-1.37l-.84-4h-4.33V51.48l2.8.63v1.13h-8.23V52.11l2.79-.63V35.83H255l-.82,4h-1.37V34.25Z" transform="translate(-14.46 -17.93)"/><path class="cls-2" d="M281,45.78q0-1.7-.09-2.55a4,4,0,0,0-.33-1.33,2.39,2.39,0,0,0-2.32-1.29,3.86,3.86,0,0,0-1.43.26,4.15,4.15,0,0,0-1.21.71,3.32,3.32,0,0,0-.86,1.22,5.58,5.58,0,0,0-.33,1.71v7.15l1.77.5v1.08h-6.36V52.16l2-.5V34.25l-2-.5V32.67h4.59v8.81a5.78,5.78,0,0,1,2.1-2,5.65,5.65,0,0,1,2.81-.74,4.84,4.84,0,0,1,1.9.37,3.22,3.22,0,0,1,1.34,1.06,5,5,0,0,1,.76,2.07,24.06,24.06,0,0,1,.22,3.6v5.83l2,.5v1.08h-6.36V52.16l1.77-.5Z" transform="translate(-14.46 -17.93)"/><path class="cls-2" d="M287.11,40.08V39h4.59V51.66l2,.5v1.08h-6.62V52.16l2-.5V40.58Zm1.66-5.33a1.66,1.66,0,0,1,.44-1.21,1.59,1.59,0,0,1,1.2-.45,1.55,1.55,0,0,1,1.66,1.66,1.59,1.59,0,0,1-.45,1.2,1.66,1.66,0,0,1-1.21.44,1.52,1.52,0,0,1-1.64-1.64Z" transform="translate(-14.46 -17.93)"/><path class="cls-2" d="M300.83,52.29a4.42,4.42,0,0,0,2.43-.59,1.91,1.91,0,0,0,.92-1.7,1.77,1.77,0,0,0-.34-1.11,3,3,0,0,0-.89-.76,5.35,5.35,0,0,0-1.21-.54c-.45-.15-.88-.29-1.31-.41s-1.07-.35-1.59-.56a5.8,5.8,0,0,1-1.4-.8,3.8,3.8,0,0,1-1-1.19,3.56,3.56,0,0,1-.37-1.7,3.75,3.75,0,0,1,1.39-3,5.9,5.9,0,0,1,3.86-1.15,5.61,5.61,0,0,1,3.34.89A2.81,2.81,0,0,1,305.9,42a2.16,2.16,0,0,1-.37,1.32,1.26,1.26,0,0,1-1.06.48,1.43,1.43,0,0,1-1-.37,1.24,1.24,0,0,1-.4-1,1.6,1.6,0,0,1,.27-.91A1.51,1.51,0,0,1,304,41a2.26,2.26,0,0,0-1-.8,4.3,4.3,0,0,0-1.6-.25c-2.11,0-3.17.74-3.17,2.24a2,2,0,0,0,.22,1,2,2,0,0,0,.63.69,4.8,4.8,0,0,0,1,.51c.41.15.89.32,1.44.49s1.19.4,1.77.61a7,7,0,0,1,1.57.79A3.89,3.89,0,0,1,306,47.47a3.3,3.3,0,0,1,.44,1.76,3.77,3.77,0,0,1-1.61,3.16,6,6,0,0,1-1.82.83,9,9,0,0,1-2.33.29,6.69,6.69,0,0,1-3.76-.94A2.92,2.92,0,0,1,295.55,50a2.07,2.07,0,0,1,.39-1.33,1.29,1.29,0,0,1,1.09-.49,1.58,1.58,0,0,1,1.07.37,1.2,1.2,0,0,1,.43,1,1.87,1.87,0,0,1-.95,1.61,2.31,2.31,0,0,0,1.23.85A6,6,0,0,0,300.83,52.29Z" transform="translate(-14.46 -17.93)"/><path class="cls-2" d="M320.8,52.29a4.42,4.42,0,0,0,2.43-.59,1.91,1.91,0,0,0,.92-1.7,1.77,1.77,0,0,0-.34-1.11,2.89,2.89,0,0,0-.89-.76,5.35,5.35,0,0,0-1.21-.54c-.45-.15-.88-.29-1.3-.41a16.78,16.78,0,0,1-1.6-.56,5.8,5.8,0,0,1-1.4-.8,3.8,3.8,0,0,1-1-1.19,3.68,3.68,0,0,1-.37-1.7,3.75,3.75,0,0,1,1.39-3,5.9,5.9,0,0,1,3.86-1.15,5.61,5.61,0,0,1,3.34.89A2.81,2.81,0,0,1,325.87,42a2.16,2.16,0,0,1-.37,1.32,1.26,1.26,0,0,1-1.06.48,1.43,1.43,0,0,1-1-.37,1.28,1.28,0,0,1-.4-1,1.6,1.6,0,0,1,.27-.91A1.51,1.51,0,0,1,324,41a2.26,2.26,0,0,0-1-.8,4.3,4.3,0,0,0-1.6-.25c-2.11,0-3.16.74-3.16,2.24a2.12,2.12,0,0,0,.21,1,2,2,0,0,0,.63.69,4.8,4.8,0,0,0,1,.51c.42.15.89.32,1.44.49s1.19.4,1.77.61a7,7,0,0,1,1.57.79A3.89,3.89,0,0,1,326,47.47a3.3,3.3,0,0,1,.44,1.76,3.79,3.79,0,0,1-.42,1.82,3.91,3.91,0,0,1-1.19,1.34,6,6,0,0,1-1.82.83,8.93,8.93,0,0,1-2.32.29,6.65,6.65,0,0,1-3.76-.94A2.91,2.91,0,0,1,315.52,50a2.07,2.07,0,0,1,.39-1.33,1.29,1.29,0,0,1,1.09-.49,1.58,1.58,0,0,1,1.07.37,1.21,1.21,0,0,1,.44,1,1.79,1.79,0,0,1-.28.95,1.83,1.83,0,0,1-.67.66,2.24,2.24,0,0,0,1.22.85A6,6,0,0,0,320.8,52.29Z" transform="translate(-14.46 -17.93)"/><path class="cls-2" d="M328.58,40.08V39h4.59V51.66l2,.5v1.08h-6.63V52.16l2-.5V40.58Zm1.67-5.33a1.66,1.66,0,0,1,.43-1.21,1.59,1.59,0,0,1,1.2-.45,1.54,1.54,0,0,1,1.66,1.66,1.62,1.62,0,0,1-.44,1.2,1.69,1.69,0,0,1-1.22.44,1.51,1.51,0,0,1-1.63-1.64Z" transform="translate(-14.46 -17.93)"/><path class="cls-2" d="M336.1,39.37l2.56-.37.35-3.33,2.21-.31V39h3.38v1.32h-3.38v9.42c0,.59,0,1,0,1.22a1.86,1.86,0,0,0,.1.54.43.43,0,0,0,.29.27,3.59,3.59,0,0,0,.69,0h1.85v.76a18.24,18.24,0,0,1-2.23.7,7.32,7.32,0,0,1-1.55.23,1.45,1.45,0,0,1-1.53-1,2.73,2.73,0,0,1-.17-.8c0-.33,0-.82,0-1.49V40.32H336.1Z" transform="translate(-14.46 -17.93)"/><path class="cls-2" d="M348.77,46.28a8.38,8.38,0,0,0,.52,3.19,3.47,3.47,0,0,0,1.49,1.76,4.5,4.5,0,0,0,2.13.51,5,5,0,0,0,2.28-.51A6.36,6.36,0,0,0,357,49.81l.85.64a11.68,11.68,0,0,1-1,1.18,6.47,6.47,0,0,1-1.22,1,6.2,6.2,0,0,1-1.53.66,6.91,6.91,0,0,1-1.88.24,6.53,6.53,0,0,1-3.22-.78,5.12,5.12,0,0,1-2.13-2.28,6.86,6.86,0,0,1-.58-1.81,11.17,11.17,0,0,1-.19-2.15,8.7,8.7,0,0,1,1.69-5.74,5.75,5.75,0,0,1,4.64-2,5.19,5.19,0,0,1,4.17,1.68A6.83,6.83,0,0,1,358.05,45c0,.17,0,.34,0,.49s0,.4-.07.75Zm3.51-6.12q-3.18,0-3.49,4.83h6.6v-.87a4.63,4.63,0,0,0-.81-2.93A2.73,2.73,0,0,0,352.28,40.16Z" transform="translate(-14.46 -17.93)"/><path class="cls-2" d="M371,46.46c0,.57,0,1.06,0,1.48s0,.78.07,1.08a6,6,0,0,0,.12.77,2.1,2.1,0,0,0,.21.55,2.22,2.22,0,0,0,2.22,1.29,3.59,3.59,0,0,0,1.37-.26,3.81,3.81,0,0,0,1.16-.71,3.39,3.39,0,0,0,.86-1.23,6,6,0,0,0,.33-1.81v-7l-2.3-.5V39h4.86V51.66l2,.5v1.08l-4.09.27-.29-2.9h-.11a5.72,5.72,0,0,1-2.08,2.12,5.46,5.46,0,0,1-2.83.78,4.53,4.53,0,0,1-1.83-.37,3.13,3.13,0,0,1-1.31-1.06,5,5,0,0,1-.75-2.07,22.79,22.79,0,0,1-.22-3.6V40.58l-1.77-.5V39H371Z" transform="translate(-14.46 -17.93)"/><path class="cls-2" d="M389.05,52.29a4.37,4.37,0,0,0,2.43-.59,1.89,1.89,0,0,0,.92-1.7,1.77,1.77,0,0,0-.34-1.11,3,3,0,0,0-.88-.76,5.43,5.43,0,0,0-1.22-.54c-.44-.15-.88-.29-1.3-.41a16.78,16.78,0,0,1-1.6-.56,6,6,0,0,1-1.4-.8,3.8,3.8,0,0,1-1-1.19,3.68,3.68,0,0,1-.37-1.7,3.78,3.78,0,0,1,1.39-3,5.9,5.9,0,0,1,3.86-1.15,5.61,5.61,0,0,1,3.34.89A2.81,2.81,0,0,1,394.12,42a2.09,2.09,0,0,1-.37,1.32,1.26,1.26,0,0,1-1.06.48,1.45,1.45,0,0,1-1-.37,1.27,1.27,0,0,1-.39-1,1.59,1.59,0,0,1,.26-.91,1.54,1.54,0,0,1,.69-.6,2.34,2.34,0,0,0-1-.8,4.26,4.26,0,0,0-1.6-.25c-2.11,0-3.16.74-3.16,2.24a2.12,2.12,0,0,0,.21,1,2,2,0,0,0,.63.69,4.8,4.8,0,0,0,1,.51c.42.15.9.32,1.44.49s1.19.4,1.77.61a7,7,0,0,1,1.57.79,3.77,3.77,0,0,1,1.13,1.19,3.3,3.3,0,0,1,.44,1.76,3.7,3.7,0,0,1-1.61,3.16,6,6,0,0,1-1.82.83,8.88,8.88,0,0,1-2.32.29,6.65,6.65,0,0,1-3.76-.94A2.92,2.92,0,0,1,383.78,50a2.06,2.06,0,0,1,.38-1.33,1.29,1.29,0,0,1,1.09-.49,1.57,1.57,0,0,1,1.07.37,1.21,1.21,0,0,1,.44,1,1.7,1.7,0,0,1-.28.95,1.76,1.76,0,0,1-.67.66A2.31,2.31,0,0,0,387,52,5.93,5.93,0,0,0,389.05,52.29Z" transform="translate(-14.46 -17.93)"/><path class="cls-2" d="M399.79,46.28a8.37,8.37,0,0,0,.53,3.19,3.42,3.42,0,0,0,1.49,1.76,4.46,4.46,0,0,0,2.12.51,5,5,0,0,0,2.29-.51,6.65,6.65,0,0,0,1.83-1.42l.84.64a10.46,10.46,0,0,1-1,1.18,6.12,6.12,0,0,1-2.76,1.64,6.83,6.83,0,0,1-1.87.24,6.48,6.48,0,0,1-3.22-.78,5.14,5.14,0,0,1-2.14-2.28,7.24,7.24,0,0,1-.58-1.81,12.06,12.06,0,0,1-.18-2.15,8.7,8.7,0,0,1,1.69-5.74,5.73,5.73,0,0,1,4.64-2,5.22,5.22,0,0,1,4.17,1.68A6.88,6.88,0,0,1,409.08,45c0,.17,0,.34,0,.49s0,.4-.07.75Zm3.51-6.12q-3.17,0-3.48,4.83h6.59v-.87a4.63,4.63,0,0,0-.8-2.93A2.76,2.76,0,0,0,403.3,40.16Z" transform="translate(-14.46 -17.93)"/><path class="cls-2" d="M416.68,52.29a4.36,4.36,0,0,0,2.42-.59A1.9,1.9,0,0,0,420,50a1.77,1.77,0,0,0-.35-1.11,2.85,2.85,0,0,0-.88-.76,5.35,5.35,0,0,0-1.21-.54c-.45-.15-.89-.29-1.31-.41s-1.08-.35-1.6-.56a5.93,5.93,0,0,1-1.39-.8,3.46,3.46,0,0,1-1.36-2.89,3.77,3.77,0,0,1,1.38-3,5.93,5.93,0,0,1,3.87-1.15,5.63,5.63,0,0,1,3.34.89A2.82,2.82,0,0,1,421.74,42a2.09,2.09,0,0,1-.37,1.32,1.24,1.24,0,0,1-1.05.48,1.46,1.46,0,0,1-1-.37,1.27,1.27,0,0,1-.39-1,1.67,1.67,0,0,1,.26-.91,1.59,1.59,0,0,1,.69-.6,2.24,2.24,0,0,0-1-.8,4.21,4.21,0,0,0-1.59-.25c-2.11,0-3.17.74-3.17,2.24a2.12,2.12,0,0,0,.21,1,1.9,1.9,0,0,0,.64.69,4.58,4.58,0,0,0,1,.51c.41.15.89.32,1.44.49s1.18.4,1.76.61a6.79,6.79,0,0,1,1.57.79,3.81,3.81,0,0,1,1.14,1.19,3.3,3.3,0,0,1,.43,1.76,3.7,3.7,0,0,1-1.61,3.16,5.87,5.87,0,0,1-1.82.83,8.82,8.82,0,0,1-2.32.29,6.67,6.67,0,0,1-3.76-.94A2.92,2.92,0,0,1,411.4,50a2.12,2.12,0,0,1,.38-1.33,1.31,1.31,0,0,1,1.1-.49,1.58,1.58,0,0,1,1.07.37,1.2,1.2,0,0,1,.43,1,1.93,1.93,0,0,1-.95,1.61,2.31,2.31,0,0,0,1.23.85A6,6,0,0,0,416.68,52.29Z" transform="translate(-14.46 -17.93)"/><path class="cls-2" d="M438.18,38.73a5.53,5.53,0,0,1,3.65,1.13,3.65,3.65,0,0,1,1.36,3c0,1.35-.54,2-1.63,2a1.6,1.6,0,0,1-1.19-.42,1.54,1.54,0,0,1-.42-1.14,1.78,1.78,0,0,1,1.32-1.79,3,3,0,0,0-2.93-1.45,3.61,3.61,0,0,0-3.16,1.4,7.71,7.71,0,0,0-1,4.4,8.48,8.48,0,0,0,.69,3.83,3.61,3.61,0,0,0,3.46,2,5.45,5.45,0,0,0,4.22-2l.79.63a6.94,6.94,0,0,1-2.43,2.4,7.16,7.16,0,0,1-6.42,0,5.23,5.23,0,0,1-2.13-2.21,7.9,7.9,0,0,1-.7-1.94,10.81,10.81,0,0,1-.25-2.33,9.43,9.43,0,0,1,.48-3.1,7,7,0,0,1,1.36-2.38,6.12,6.12,0,0,1,2.14-1.53A6.93,6.93,0,0,1,438.18,38.73Z" transform="translate(-14.46 -17.93)"/><path class="cls-2" d="M458.49,46a10.28,10.28,0,0,1-.51,3.27,6.77,6.77,0,0,1-1.44,2.53,7,7,0,0,1-9.1.06,6.75,6.75,0,0,1-1.39-2.42,9.81,9.81,0,0,1-.48-3.12,10.5,10.5,0,0,1,.5-3.3,6.46,6.46,0,0,1,1.45-2.56,5.09,5.09,0,0,1,2-1.31,7.53,7.53,0,0,1,2.59-.41,7.94,7.94,0,0,1,2.61.41,4.88,4.88,0,0,1,1.95,1.26,6.29,6.29,0,0,1,1.4,2.44A10,10,0,0,1,458.49,46Zm-10.1,0a9.29,9.29,0,0,0,.95,4.72,3.12,3.12,0,0,0,1.07,1,3.68,3.68,0,0,0,4.34-.88,5,5,0,0,0,.7-1.9,15.52,15.52,0,0,0,.22-2.8,9.26,9.26,0,0,0-.95-4.7,3.24,3.24,0,0,0-1.08-1,3.3,3.3,0,0,0-1.64-.35,3,3,0,0,0-2.66,1.21A9,9,0,0,0,448.39,46Z" transform="translate(-14.46 -17.93)"/><path class="cls-2" d="M473.85,46a10,10,0,0,1-.52,3.27,6.89,6.89,0,0,1-1.43,2.53,7,7,0,0,1-9.11.06,6.73,6.73,0,0,1-1.38-2.42,9.54,9.54,0,0,1-.49-3.12,10.8,10.8,0,0,1,.5-3.3,6.71,6.71,0,0,1,1.45-2.56,5.21,5.21,0,0,1,2-1.31,7.47,7.47,0,0,1,2.58-.41,7.85,7.85,0,0,1,2.61.41,4.84,4.84,0,0,1,2,1.26,6.27,6.27,0,0,1,1.39,2.44A10,10,0,0,1,473.85,46Zm-10.11,0a9.29,9.29,0,0,0,.95,4.72,2.89,2.89,0,0,0,2.69,1.4,3.15,3.15,0,0,0,2.72-1.24,4.88,4.88,0,0,0,.7-1.9,15.45,15.45,0,0,0,.23-2.8,9.26,9.26,0,0,0-.95-4.7,3.17,3.17,0,0,0-1.09-1,3.26,3.26,0,0,0-1.63-.35,3,3,0,0,0-2.67,1.21A9,9,0,0,0,463.74,46Z" transform="translate(-14.46 -17.93)"/><path class="cls-2" d="M486.38,51.66l-4.06-5.49-2,1.69v3.8l2,.5v1.08h-6.62V52.16l2-.5V34.25l-2-.5V32.67h4.59V46.62l5.62-6-1.74-.5V39h5.67v1.08l-1.92.5-4,4.09,5.25,7,1.4.45v1.08h-5.78V52.16Z" transform="translate(-14.46 -17.93)"/><path class="cls-2" d="M491.74,40.08V39h4.59V51.66l2,.5v1.08h-6.62V52.16l2-.5V40.58Zm1.66-5.33a1.66,1.66,0,0,1,.43-1.21,1.59,1.59,0,0,1,1.2-.45,1.65,1.65,0,0,1,1.22.45,1.63,1.63,0,0,1,.45,1.21,1.59,1.59,0,0,1-.45,1.2,1.69,1.69,0,0,1-1.22.44,1.51,1.51,0,0,1-1.63-1.64Z" transform="translate(-14.46 -17.93)"/><path class="cls-2" d="M502.92,46.28a8.37,8.37,0,0,0,.53,3.19,3.42,3.42,0,0,0,1.49,1.76,4.46,4.46,0,0,0,2.12.51,5,5,0,0,0,2.29-.51,6.65,6.65,0,0,0,1.83-1.42l.84.64a10.46,10.46,0,0,1-1,1.18,6.12,6.12,0,0,1-2.76,1.64,6.83,6.83,0,0,1-1.87.24,6.48,6.48,0,0,1-3.22-.78A5.14,5.14,0,0,1,501,50.45a7.24,7.24,0,0,1-.58-1.81,12.06,12.06,0,0,1-.18-2.15A8.7,8.7,0,0,1,502,40.75a5.73,5.73,0,0,1,4.64-2,5.22,5.22,0,0,1,4.17,1.68A6.88,6.88,0,0,1,512.21,45c0,.17,0,.34,0,.49s0,.4-.07.75Zm3.51-6.12q-3.17,0-3.48,4.83h6.59v-.87a4.63,4.63,0,0,0-.8-2.93A2.76,2.76,0,0,0,506.43,40.16Z" transform="translate(-14.46 -17.93)"/><path class="cls-2" d="M519.81,52.29a4.36,4.36,0,0,0,2.42-.59,1.9,1.9,0,0,0,.93-1.7,1.77,1.77,0,0,0-.35-1.11,2.85,2.85,0,0,0-.88-.76,5.35,5.35,0,0,0-1.21-.54c-.45-.15-.89-.29-1.31-.41a16.59,16.59,0,0,1-1.59-.56,5.8,5.8,0,0,1-1.4-.8,3.46,3.46,0,0,1-1.36-2.89,3.77,3.77,0,0,1,1.38-3,5.93,5.93,0,0,1,3.87-1.15,5.61,5.61,0,0,1,3.34.89A2.82,2.82,0,0,1,524.87,42a2.09,2.09,0,0,1-.37,1.32,1.23,1.23,0,0,1-1,.48,1.42,1.42,0,0,1-1-.37,1.24,1.24,0,0,1-.4-1,1.67,1.67,0,0,1,.26-.91A1.59,1.59,0,0,1,523,41a2.24,2.24,0,0,0-1-.8,4.21,4.21,0,0,0-1.59-.25c-2.11,0-3.17.74-3.17,2.24a2.12,2.12,0,0,0,.21,1,1.9,1.9,0,0,0,.64.69,4.58,4.58,0,0,0,1,.51c.41.15.89.32,1.44.49s1.18.4,1.76.61a6.79,6.79,0,0,1,1.57.79A3.81,3.81,0,0,1,525,47.47a3.3,3.3,0,0,1,.43,1.76,3.7,3.7,0,0,1-1.61,3.16,5.87,5.87,0,0,1-1.82.83,8.82,8.82,0,0,1-2.32.29,6.67,6.67,0,0,1-3.76-.94A2.92,2.92,0,0,1,514.53,50a2.12,2.12,0,0,1,.38-1.33,1.31,1.31,0,0,1,1.1-.49,1.58,1.58,0,0,1,1.07.37,1.2,1.2,0,0,1,.43,1,1.93,1.93,0,0,1-1,1.61,2.31,2.31,0,0,0,1.23.85A6,6,0,0,0,519.81,52.29Z" transform="translate(-14.46 -17.93)"/></svg>