<svg id="Layer_1" data-name="Layer 1" xmlns="http://www.w3.org/2000/svg" xmlns:xlink="http://www.w3.org/1999/xlink" viewBox="0 0 256.66 45.51"><defs><style>.cls-1{stroke:#010101;stroke-miterlimit:10;stroke-width:2px;fill:url(#radial-gradient);}.cls-2{fill:#e8ad22;}</style><radialGradient id="radial-gradient" cx="128.33" cy="22.76" r="90.55" gradientUnits="userSpaceOnUse"><stop offset="0" stop-color="#3b3092"/><stop offset="1" stop-color="#282663"/></radialGradient></defs><title>editprofilebutton</title><polygon class="cls-1" points="254.53 44.51 2.13 44.51 20.16 22.76 2.13 1 254.53 1 236.5 22.76 254.53 44.51"/><path class="cls-2" d="M71.56,45,71,42h-4.8V50.1H75l.89-4.71h1.68v6.45H60.62V50.6L63.34,50V32.87l-2.72-.61V31H76.91v6.13H75.4l-.92-4.46H66.23v7.58H71l.53-3H73V45Z" transform="translate(-8.12 -19.56)"/><path class="cls-2" d="M80.52,44.18A12.61,12.61,0,0,1,81,40.59a7.11,7.11,0,0,1,1.48-2.78,5.63,5.63,0,0,1,2-1.4,6.84,6.84,0,0,1,2.67-.48,5.43,5.43,0,0,1,2.35.5,4.71,4.71,0,0,1,1.88,1.76V31l-2.23-.55V29.28h5V50.1l2.23.55v1.19l-4.48.29-.24-2.37a4.84,4.84,0,0,1-2,1.86,6,6,0,0,1-2.52.51,7.94,7.94,0,0,1-2.66-.43,4.52,4.52,0,0,1-2-1.39,8.37,8.37,0,0,1-1.46-2.71A10.48,10.48,0,0,1,80.52,44.18Zm10.85,0a10.06,10.06,0,0,0-1-5.18,3.22,3.22,0,0,0-1.12-1.14,3.52,3.52,0,0,0-1.77-.39,3.32,3.32,0,0,0-2.92,1.36,5.09,5.09,0,0,0-.75,2.08,17.5,17.5,0,0,0-.23,3.06,10.17,10.17,0,0,0,1,5.15,3.63,3.63,0,0,0,1.16,1.15,3.45,3.45,0,0,0,1.76.39,4.18,4.18,0,0,0,1.74-.34,2.47,2.47,0,0,0,1.12-1,6.5,6.5,0,0,0,.76-2.09A15.91,15.91,0,0,0,91.37,44.15Z" transform="translate(-8.12 -19.56)"/><path class="cls-2" d="M98.16,37.41V36.22h5V50.1l2.23.55v1.19H98.16V50.65l2.23-.55V38ZM100,31.57a1.81,1.81,0,0,1,.48-1.33,1.76,1.76,0,0,1,1.32-.5,1.8,1.8,0,0,1,1.33.5,1.77,1.77,0,0,1,.49,1.33,1.73,1.73,0,0,1-.49,1.31,1.82,1.82,0,0,1-1.33.48,1.78,1.78,0,0,1-1.32-.48A1.76,1.76,0,0,1,100,31.57Z" transform="translate(-8.12 -19.56)"/><path class="cls-2" d="M106.4,36.63l2.81-.41.38-3.64,2.43-.35v4h3.7v1.45H112V48c0,.66,0,1.11,0,1.35a2.1,2.1,0,0,0,.12.59.43.43,0,0,0,.32.29,3.26,3.26,0,0,0,.75.06h2v.84a20.35,20.35,0,0,1-2.44.76,7.54,7.54,0,0,1-1.69.25,1.59,1.59,0,0,1-1.68-1.07,2.88,2.88,0,0,1-.19-.88c0-.36,0-.9,0-1.64V37.67H106.4Z" transform="translate(-8.12 -19.56)"/><path class="cls-2" d="M130.06,43.66V50l2.75.61v1.24h-8.07V50.6l2.43-.61V32.87l-2.43-.61V31h9.57a8.07,8.07,0,0,1,2.48.36,5.07,5.07,0,0,1,1.86,1,7,7,0,0,1,1.61,2.16,6.14,6.14,0,0,1,.59,2.64,6.67,6.67,0,0,1-.62,2.79,6.81,6.81,0,0,1-1.64,2.24,5.31,5.31,0,0,1-1.88,1,7.64,7.64,0,0,1-2.43.38ZM133.65,42a4.49,4.49,0,0,0,1.52-.25,2.84,2.84,0,0,0,1.11-.65,4.9,4.9,0,0,0,1-1.59,5.47,5.47,0,0,0,.41-2.11,5.07,5.07,0,0,0-.39-2,6.26,6.26,0,0,0-1-1.63,3.39,3.39,0,0,0-1.2-.77,4.32,4.32,0,0,0-1.55-.28h-3.47V42Z" transform="translate(-8.12 -19.56)"/><path class="cls-2" d="M151.35,37.9a1,1,0,0,0-.58-.17,1.64,1.64,0,0,0-1.16.68,6.58,6.58,0,0,0-1.07,1.72,11,11,0,0,0-.63,2.15,12,12,0,0,0-.23,2.42v5.4l3.12.55v1.19h-8.16V50.65l2.23-.55V38l-2.23-.55V36.22h4.17l.63,3.82h.12a7.49,7.49,0,0,1,1.78-3,3.52,3.52,0,0,1,2.5-1.07,2.65,2.65,0,0,1,1.88.71,2.51,2.51,0,0,1,.75,1.9,2,2,0,0,1-.45,1.37,1.68,1.68,0,0,1-2.38,0,1.81,1.81,0,0,1-.44-1.26,1.58,1.58,0,0,1,0-.32C151.25,38.27,151.29,38.11,151.35,37.9Z" transform="translate(-8.12 -19.56)"/><path class="cls-2" d="M170.2,43.89a11,11,0,0,1-.56,3.58,7.59,7.59,0,0,1-1.58,2.78,7.64,7.64,0,0,1-10,.06,7.26,7.26,0,0,1-1.52-2.65,10.5,10.5,0,0,1-.54-3.43,11.91,11.91,0,0,1,.55-3.61,7.38,7.38,0,0,1,1.59-2.81,5.64,5.64,0,0,1,2.14-1.43,8.18,8.18,0,0,1,2.84-.45,8.54,8.54,0,0,1,2.86.45,5.28,5.28,0,0,1,2.14,1.38,6.74,6.74,0,0,1,1.53,2.67A11.05,11.05,0,0,1,170.2,43.89Zm-11.07,0a10.16,10.16,0,0,0,1,5.17,3.66,3.66,0,0,0,1.17,1.15,3.56,3.56,0,0,0,1.78.39,3.46,3.46,0,0,0,3-1.36,5.29,5.29,0,0,0,.76-2.09,16.39,16.39,0,0,0,.25-3.06,10.13,10.13,0,0,0-1-5.15,3.4,3.4,0,0,0-1.19-1.14,3.62,3.62,0,0,0-1.79-.39,3.26,3.26,0,0,0-2.92,1.33A9.83,9.83,0,0,0,159.13,43.92Z" transform="translate(-8.12 -19.56)"/><path class="cls-2" d="M172.05,36.63l2.81-.41v-.29a7.89,7.89,0,0,1,.49-2.87,6.3,6.3,0,0,1,1.39-2.2,6,6,0,0,1,2.18-1.39,8.3,8.3,0,0,1,2.91-.48,6.57,6.57,0,0,1,3.6.88,2.71,2.71,0,0,1,1.35,2.36c0,1.08-.52,1.62-1.54,1.62a1.27,1.27,0,0,1-1.44-1.44,3,3,0,0,1,.46-1.51,3.88,3.88,0,0,0-2.55-.81,5.67,5.67,0,0,0-1.88.29,2.73,2.73,0,0,0-1.69,1.4,7.27,7.27,0,0,0-.47,3v1.44h9.08V50.1l2.22.55v1.19h-7V50.65l1.94-.55V37.67h-6.27V50.1l2.25.55v1.19h-7.29V50.65l2.23-.55V37.67h-2.81Z" transform="translate(-8.12 -19.56)"/><path class="cls-2" d="M192.73,31l-2.22-.55V29.28h5V50.1l2.23.55v1.19h-7.26V50.65l2.22-.55Z" transform="translate(-8.12 -19.56)"/><path class="cls-2" d="M202.88,44.21a9.22,9.22,0,0,0,.58,3.49,3.74,3.74,0,0,0,1.64,1.93,4.92,4.92,0,0,0,2.33.56,5.57,5.57,0,0,0,2.5-.56,7,7,0,0,0,2-1.55l.92.69a12.79,12.79,0,0,1-1.11,1.31,7.15,7.15,0,0,1-1.35,1.07,6.44,6.44,0,0,1-1.67.72,7.74,7.74,0,0,1-2.06.26,7.26,7.26,0,0,1-3.53-.85,5.64,5.64,0,0,1-2.34-2.51,7.41,7.41,0,0,1-.63-2,12.3,12.3,0,0,1-.21-2.35,9.55,9.55,0,0,1,1.85-6.29,6.28,6.28,0,0,1,5.09-2.22,5.73,5.73,0,0,1,4.57,1.84,7.5,7.5,0,0,1,1.59,5.08c0,.19,0,.37,0,.53s0,.44-.07.83Zm3.85-6.71c-2.31,0-3.59,1.76-3.82,5.29h7.23v-1a5.13,5.13,0,0,0-.88-3.21A3,3,0,0,0,206.73,37.5Z" transform="translate(-8.12 -19.56)"/></svg>