<svg id="Layer_1" data-name="Layer 1" xmlns="http://www.w3.org/2000/svg" xmlns:xlink="http://www.w3.org/1999/xlink" viewBox="0 0 256.66 45.51"><defs><style>.cls-1{stroke:#010101;stroke-miterlimit:10;stroke-width:2px;fill:url(#radial-gradient);}.cls-2{fill:#e8ad22;}</style><radialGradient id="radial-gradient" cx="128.33" cy="22.76" r="90.55" gradientUnits="userSpaceOnUse"><stop offset="0" stop-color="#3b3092"/><stop offset="1" stop-color="#282663"/></radialGradient></defs><title>homebutton</title><polygon class="cls-1" points="254.53 44.51 2.13 44.51 20.16 22.76 2.13 1 254.53 1 236.5 22.76 254.53 44.51"/><path class="cls-2" d="M114.57,196.35,117,197v1.24h-7.75V197l2.43-.61v-8h-9.8v8l2.43.61v1.24H96.56V197l2.43-.61V179.23l-2.43-.61v-1.24h7.75v1.24l-2.43.61v7.43h9.8v-7.43l-2.43-.61v-1.24H117v1.24l-2.43.61Z" transform="translate(-8.12 -165.92)"/><path class="cls-2" d="M133.29,190.25a11.05,11.05,0,0,1-.57,3.58,7.57,7.57,0,0,1-1.57,2.78,7.66,7.66,0,0,1-10,.06,7.4,7.4,0,0,1-1.52-2.65,10.5,10.5,0,0,1-.53-3.43,11.9,11.9,0,0,1,.54-3.61,7.27,7.27,0,0,1,1.6-2.81,5.57,5.57,0,0,1,2.14-1.43,8.12,8.12,0,0,1,2.83-.45,8.54,8.54,0,0,1,2.86.45,5.37,5.37,0,0,1,2.14,1.37,7,7,0,0,1,1.54,2.68A11.35,11.35,0,0,1,133.29,190.25Zm-11.08,0a10.2,10.2,0,0,0,1,5.18,3.52,3.52,0,0,0,1.17,1.14,3.58,3.58,0,0,0,1.78.39,3.45,3.45,0,0,0,3-1.35,5.51,5.51,0,0,0,.77-2.09,17.35,17.35,0,0,0,.24-3.06,10,10,0,0,0-1-5.15,3.46,3.46,0,0,0-1.18-1.14,3.67,3.67,0,0,0-1.8-.39,3.26,3.26,0,0,0-2.92,1.33A9.81,9.81,0,0,0,122.21,190.27Z" transform="translate(-8.12 -165.92)"/><path class="cls-2" d="M137.88,184.32l-2.22-.55v-1.19h4.16l.64,2.89h.11a6.27,6.27,0,0,1,2.25-2.32,5.64,5.64,0,0,1,3-.86,4.7,4.7,0,0,1,2.12.45,3.31,3.31,0,0,1,1.35,1.11,6.34,6.34,0,0,1,.75,1.91,7,7,0,0,1,2.4-2.56,6,6,0,0,1,3.15-.91,4.72,4.72,0,0,1,2.09.45,3.34,3.34,0,0,1,1.41,1.23,3.86,3.86,0,0,1,.44,1,11.17,11.17,0,0,1,.29,1.43c.07.57.13,1.24.16,2s0,1.67,0,2.71v5.35l2.23.55v1.19h-7V197l1.93-.55V190a27.7,27.7,0,0,0-.1-2.79,4.37,4.37,0,0,0-.36-1.46,2.51,2.51,0,0,0-2.43-1.41,3.48,3.48,0,0,0-1.43.29,4.42,4.42,0,0,0-1.23.78,3.55,3.55,0,0,0-.94,1.34,6.37,6.37,0,0,0-.36,2v7.72l1.94.55v1.19h-6.68V197l1.93-.55V190a27.7,27.7,0,0,0-.1-2.79,4.14,4.14,0,0,0-.36-1.46,2.51,2.51,0,0,0-2.43-1.41,3.48,3.48,0,0,0-1.43.29,4.42,4.42,0,0,0-1.23.78,3.55,3.55,0,0,0-.94,1.34,6.37,6.37,0,0,0-.36,2v7.72l1.94.55v1.19h-7V197l2.22-.55Z" transform="translate(-8.12 -165.92)"/><path class="cls-2" d="M167.1,190.56a9.25,9.25,0,0,0,.57,3.5,3.74,3.74,0,0,0,1.64,1.93,4.92,4.92,0,0,0,2.33.56,5.54,5.54,0,0,0,2.5-.56,7.23,7.23,0,0,0,2-1.55l.92.69a11.64,11.64,0,0,1-1.11,1.31,7,7,0,0,1-1.34,1.06,7.06,7.06,0,0,1-1.68.73,7.74,7.74,0,0,1-2.06.26,7.19,7.19,0,0,1-3.52-.85,5.61,5.61,0,0,1-2.35-2.51,7.41,7.41,0,0,1-.63-2,12.37,12.37,0,0,1-.21-2.35,9.55,9.55,0,0,1,1.86-6.3,6.29,6.29,0,0,1,5.09-2.21,5.72,5.72,0,0,1,4.57,1.84,7.49,7.49,0,0,1,1.59,5.07c0,.2,0,.38,0,.54s0,.44-.07.82Zm3.84-6.71q-3.47,0-3.82,5.3h7.24v-1a5.09,5.09,0,0,0-.89-3.21A3,3,0,0,0,170.94,183.85Z" transform="translate(-8.12 -165.92)"/></svg>