<?xml version="1.0" encoding="utf-8"?>
<!-- Generator: Adobe Illustrator 22.1.0, SVG Export Plug-In . SVG Version: 6.00 Build 0)  -->
<svg version="1.1" id="Layer_1" xmlns="http://www.w3.org/2000/svg" xmlns:xlink="http://www.w3.org/1999/xlink" x="0px" y="0px"
	 viewBox="0 0 221 57" style="enable-background:new 0 0 221 57;" xml:space="preserve">
<style type="text/css">
	.st0{fill:url(#SVGID_1_);stroke:#010101;stroke-miterlimit:10;}
	.st1{fill:none;stroke:#010101;stroke-width:1.5;stroke-miterlimit:10;}
	.st2{fill:#C7842A;}
</style>
<title>learnspellbutton</title>
<radialGradient id="SVGID_1_" cx="110.025" cy="2536.1812" r="75.5926" gradientTransform="matrix(1 0 0 -1 -1.86 2563.74)" gradientUnits="userSpaceOnUse">
	<stop  offset="0" style="stop-color:#4F0E46"/>
	<stop  offset="6.000000e-02" style="stop-color:#4C0E46"/>
	<stop  offset="0.64" style="stop-color:#350C42"/>
	<stop  offset="1" style="stop-color:#2C0B41"/>
</radialGradient>
<path class="st0" d="M212.4,29.9c-5.9-4.3-8.8-6.5-14.4-11C202,13,203.8,10,207.4,4c-18.2,3-36.7,4.8-55.2,5.4
	c0.2,2.9,0.3,5.8,0.5,8.7c-29.7,1.4-59.5,1.4-89.2,0c0.2-2.9,0.3-5.8,0.5-8.7C45.6,8.8,27.2,7,8.9,4c3.6,6,5.5,9,9.3,14.9
	c-5.6,4.5-8.5,6.7-14.4,11c10.5,1.8,21,3.1,31.6,4.1c0.2,4.7,0.3,9.5,0.3,14.2c48.2,3.8,96.6,3.8,144.9,0c0-4.7,0.1-9.5,0.3-14.2
	C191.4,33,201.9,31.7,212.4,29.9z"/>
<path class="st1" d="M180.9,34c10.5-1,21-2.4,31.6-4.1c-5.9-4.3-8.8-6.5-14.4-11C202,13,203.8,10,207.4,4c-18.2,3-36.7,4.8-55.2,5.4
	c0.2,2.9,0.3,5.8,0.5,8.7"/>
<line class="st1" x1="181.2" y1="16.3" x2="152.3" y2="9.9"/>
<path class="st1" d="M35.1,34c-10.4-1-20.8-2.4-31.2-4.1c5.9-4.3,8.8-6.5,14.4-11C14.4,13,12.6,10,9,4c18.2,3,36.7,4.8,55.2,5.4
	c-0.2,3.1-0.3,6.1-0.5,9.2"/>
<line class="st1" x1="35.1" y1="16.3" x2="64" y2="9.9"/>
<path class="st1" d="M34.4,17.1"/>
<path class="st1" d="M180.6,48.3C132.4,52,84,52,35.8,48.3C35.8,37.6,35,27,35.1,16.3c48.7,3.8,97.5,3.8,146.2,0
	C181.4,27,180.5,37.6,180.6,48.3z"/>
<path class="st2" d="M61,39.3l5.3,0.2l0.8-3.3h1.1C68,38,68,38.9,67.9,40.7c-4.3-0.2-6.5-0.3-10.7-0.4v-0.8l1.8-0.3
	c0.2-4.5,0.3-6.8,0.5-11.3l-1.8-0.5v-0.8l5.7,0.3v0.8l-2,0.3L61,39.3z"/>
<path class="st2" d="M71.6,35.9c-0.1,0.8,0.1,1.6,0.3,2.3c0.2,0.5,0.5,1,1,1.3c0.5,0.3,1,0.4,1.5,0.4c0.6,0,1.2-0.1,1.7-0.3
	c0.5-0.2,1-0.6,1.4-1l0.6,0.5c-0.2,0.3-0.5,0.6-0.8,0.8c-0.3,0.3-0.6,0.5-0.9,0.7c-0.4,0.2-0.7,0.3-1.1,0.4
	c-0.5,0.1-0.9,0.1-1.4,0.1c-0.8,0-1.6-0.2-2.3-0.6c-0.7-0.4-1.2-1-1.5-1.7c-0.2-0.4-0.3-0.9-0.4-1.3c-0.1-0.5-0.1-1-0.1-1.6
	c0-1.5,0.5-2.9,1.4-4.1c0.9-1,2.1-1.4,3.4-1.3c1.1,0,2.2,0.4,3,1.3c0.7,1,1.1,2.2,1,3.4c0,0.1,0,0.3,0,0.3s0,0.3-0.1,0.6L71.6,35.9z
	 M74.3,31.5c-1.5,0-2.4,1.1-2.7,3.4l4.8,0.2v-0.6c0.1-0.8-0.1-1.5-0.5-2.1C75.5,31.8,74.9,31.5,74.3,31.5z"/>
<path class="st2" d="M79.8,38.9c0-0.5,0.1-0.9,0.4-1.3c0.3-0.4,0.7-0.8,1.1-1c0.6-0.3,1.2-0.6,1.9-0.7c0.9-0.2,1.9-0.4,2.8-0.5
	c0-0.8-0.1-1.3-0.2-1.8c-0.1-0.3-0.2-0.7-0.3-1c-0.2-0.3-0.4-0.6-0.7-0.8c-0.3-0.2-0.7-0.3-1-0.3c-0.3,0-0.7,0-1,0.2
	c-0.3,0.1-0.5,0.3-0.6,0.5c0.2,0.1,0.3,0.3,0.4,0.5c0.1,0.2,0.1,0.4,0.1,0.6c0,0.3-0.1,0.6-0.3,0.7c-0.2,0.2-0.5,0.3-0.8,0.3
	c-0.3,0-0.6-0.1-0.8-0.3c-0.2-0.2-0.3-0.5-0.3-0.9c0-0.4,0.1-0.7,0.3-1.1c0.2-0.3,0.5-0.6,0.9-0.8c0.4-0.2,0.8-0.4,1.2-0.4
	c0.4-0.1,0.9-0.2,1.3-0.1c1,0,1.9,0.3,2.6,1c0.8,0.8,1.1,2.2,1.1,4.2v2.8c0,0.4,0,0.9,0.1,1.3c0.1,0.2,0.3,0.4,0.5,0.4h0.9V41
	c-0.7,0.3-1.4,0.5-2.2,0.5c-0.2,0-0.3,0-0.5-0.1c-0.1-0.1-0.2-0.2-0.3-0.3c-0.1-0.2-0.1-0.4-0.2-0.7c0-0.3,0-0.7,0-1h-0.2
	c-0.4,0.6-1,1.1-1.6,1.5c-0.7,0.4-1.4,0.5-2.1,0.5c-0.7,0-1.4-0.2-1.9-0.7C80,40.2,79.8,39.6,79.8,38.9z M83.2,40.3
	c0.4,0,0.8-0.1,1.1-0.3c0.4-0.2,0.7-0.4,1-0.8c0.5-0.6,0.7-1.4,0.7-2.1c0-0.2,0-0.4,0-0.6s0-0.4,0-0.6c-0.8,0.1-1.4,0.3-2,0.4
	c-0.4,0.1-0.9,0.3-1.3,0.5c-0.3,0.2-0.5,0.4-0.7,0.7c-0.1,0.3-0.2,0.6-0.2,0.9c-0.1,0.4,0,0.9,0.3,1.3
	C82.4,40.2,82.8,40.3,83.2,40.3z"/>
<path class="st2" d="M96.1,32.3c-0.1-0.1-0.2-0.1-0.4-0.1c-0.3,0-0.6,0.2-0.8,0.4c-0.3,0.3-0.5,0.7-0.7,1.2
	c-0.2,0.5-0.3,0.9-0.4,1.4c-0.1,0.5-0.2,1.1-0.2,1.6l-0.1,3.6l2.1,0.4v0.8l-5.5-0.1v-0.8l1.5-0.3c0-3.2,0.1-4.8,0.1-8l-1.5-0.4v-0.8
	h2.8c0.2,1,0.2,1.5,0.4,2.5h0.1c0.2-0.8,0.7-1.4,1.2-2c0.4-0.4,1-0.7,1.7-0.7c0.5,0,0.9,0.2,1.2,0.5c0.4,0.3,0.5,0.8,0.5,1.3
	c0,0.3-0.1,0.7-0.3,0.9C97.6,33.9,97.3,34,97,34c-0.3,0-0.6-0.1-0.8-0.3c-0.2-0.2-0.3-0.5-0.3-0.8c0-0.1,0-0.1,0-0.2
	C96,32.5,96,32.4,96.1,32.3z"/>
<path class="st2" d="M100.6,32.3L99.1,32v-0.8h2.8c0.2,0.8,0.3,1.2,0.4,1.9h0.1c0.4-0.6,0.9-1.2,1.6-1.5c0.6-0.4,1.4-0.6,2.1-0.6
	c0.5,0,0.9,0.1,1.4,0.3c0.4,0.2,0.7,0.4,1,0.8c0.3,0.5,0.5,1,0.6,1.5c0.1,0.9,0.2,1.7,0.2,2.6v4.2l1.5,0.4v0.8h-4.7v-0.8l1.3-0.4
	v-4.3c0-0.6,0-1.2-0.1-1.8c0-0.3-0.1-0.7-0.2-1c-0.3-0.6-1-1-1.7-0.9c-0.3,0-0.7,0.1-1,0.2c-0.3,0.1-0.6,0.3-0.9,0.5
	c-0.3,0.2-0.5,0.5-0.6,0.9c-0.2,0.4-0.2,0.9-0.3,1.3c0,2,0,3.1,0,5.1l1.3,0.4v0.8h-4.7v-0.8l1.5-0.3
	C100.5,37.2,100.5,35.5,100.6,32.3z"/>
<path class="st2" d="M122.1,41.7c-0.7,0-1.4-0.1-2.1-0.3c-0.6-0.2-1.1-0.6-1.6-1l-0.2,1.1h-1.2v-4.3h1.2c0,1,0.3,1.9,0.9,2.7
	c0.7,0.6,1.6,0.9,2.5,0.8c1.8,0,2.8-0.7,2.7-2.1c0-0.4-0.1-0.7-0.3-1.1c-0.2-0.3-0.4-0.6-0.7-0.8c-0.3-0.3-0.7-0.5-1.1-0.7
	c-0.4-0.2-0.9-0.4-1.5-0.6c-0.6-0.2-1.1-0.4-1.6-0.7c-0.4-0.2-0.8-0.5-1.2-0.8c-0.3-0.3-0.6-0.6-0.7-1c-0.2-0.5-0.3-0.9-0.3-1.4
	c-0.1-1.1,0.3-2.1,1.1-2.8c1.8-1.4,4.3-1.4,6.1,0c0-0.3,0.1-0.5,0.1-0.9h1.1c0,1.7,0,2.6,0.1,4.3h-1.1c0.1-0.9-0.2-1.9-0.7-2.7
	c-0.6-0.6-1.4-0.9-2.2-0.8c-1.8,0-2.6,0.8-2.6,2.4c0,0.3,0,0.5,0.1,0.8c0.1,0.2,0.2,0.5,0.4,0.6c0.3,0.2,0.5,0.4,0.9,0.5
	c0.4,0.2,0.8,0.4,1.4,0.6c0.7,0.3,1.4,0.6,2,1c0.5,0.3,1,0.6,1.4,1c0.3,0.3,0.6,0.7,0.8,1.1c0.2,0.4,0.3,0.9,0.3,1.3
	c0,0.5-0.1,1.1-0.3,1.6c-0.2,0.5-0.5,0.9-0.9,1.2c-0.4,0.3-0.9,0.6-1.4,0.8C123.3,41.6,122.7,41.7,122.1,41.7z"/>
<path class="st2" d="M133.3,43.9v0.8c-2.1,0-3.1,0.1-5.3,0.1v-0.8l1.5-0.4l-0.2-11.4l-1.5-0.3v-0.8h2.8c0.1,0.6,0.2,0.9,0.3,1.5
	c0.3-0.6,0.8-1,1.4-1.3c0.5-0.3,1.1-0.4,1.8-0.4c0.6,0,1.2,0.1,1.8,0.3c0.5,0.2,1,0.5,1.3,0.9c0.4,0.5,0.8,1.1,1,1.7
	c0.5,1.5,0.5,3,0.1,4.5c-0.2,0.7-0.5,1.3-1,1.8c-0.8,0.9-1.9,1.4-3.1,1.3c-0.5,0-1-0.1-1.5-0.3c-0.5-0.2-0.9-0.6-1.3-1.1
	c0,1.5,0.1,2.2,0.1,3.7L133.3,43.9z M131.2,36c-0.1,1.2,0.2,2.3,0.8,3.3c0.2,0.3,0.5,0.6,0.8,0.7c0.4,0.2,0.8,0.3,1.2,0.2
	c0.8,0,1.5-0.4,1.9-1c0.3-0.4,0.4-0.9,0.5-1.3c0.1-0.7,0.1-1.3,0.1-2c0-1.1-0.2-2.3-0.8-3.3c-0.2-0.3-0.5-0.6-0.8-0.7
	c-0.4-0.2-0.8-0.3-1.2-0.2c-0.4,0-0.8,0.1-1.1,0.3c-0.3,0.1-0.6,0.4-0.7,0.7c-0.2,0.4-0.4,0.9-0.5,1.3
	C131.2,34.6,131.2,35.3,131.2,36L131.2,36z"/>
<path class="st2" d="M142.1,36c0,0.8,0.2,1.6,0.5,2.3c0.2,0.5,0.6,1,1.1,1.2c0.5,0.2,1,0.4,1.6,0.3c0.6,0,1.1-0.2,1.7-0.4
	c0.5-0.3,0.9-0.6,1.3-1.1l0.6,0.4c-0.2,0.3-0.5,0.6-0.7,0.9c-0.3,0.3-0.5,0.5-0.9,0.7c-0.3,0.2-0.7,0.4-1.1,0.5
	c-0.4,0.1-0.9,0.2-1.4,0.2c-0.8,0-1.6-0.1-2.4-0.5c-0.7-0.3-1.3-0.9-1.6-1.6c-0.2-0.4-0.4-0.8-0.5-1.3c-0.1-0.5-0.2-1-0.2-1.6
	c-0.1-1.5,0.3-3,1.1-4.2c0.8-1,2-1.6,3.3-1.6c1.1-0.1,2.3,0.3,3.1,1.1c0.8,0.9,1.2,2.1,1.2,3.3v0.3c0,0.1,0,0.3,0,0.6
	C146.2,35.9,144.9,35.9,142.1,36z M144.6,31.5c-1.5,0-2.3,1.2-2.4,3.6l4.8-0.2v-0.6c0-0.8-0.2-1.5-0.7-2.1
	C145.9,31.7,145.2,31.4,144.6,31.5L144.6,31.5z"/>
<path class="st2" d="M151.5,27l-1.5-0.3v-0.8l3.3-0.1c0.2,5.5,0.3,8.2,0.6,13.7l1.5,0.3v0.8l-4.9,0.2V40l1.5-0.4
	C151.8,34.5,151.7,32,151.5,27z"/>
<path class="st2" d="M157.4,26.7l-1.5-0.3v-0.8l3.3-0.2c0.3,5.5,0.4,8.2,0.6,13.7l1.5,0.3v0.8l-4.9,0.2v-0.8l1.5-0.4L157.4,26.7z"/>
</svg>
