<svg id="Layer_1" data-name="Layer 1" xmlns="http://www.w3.org/2000/svg" xmlns:xlink="http://www.w3.org/1999/xlink" viewBox="0 0 2325.26 2617.74"><defs><style>.cls-1,.cls-3,.cls-4{stroke:#010101;stroke-miterlimit:10;}.cls-1{stroke-width:2px;fill:url(#linear-gradient);}.cls-2{fill:#e8ad22;}.cls-3{fill:url(#radial-gradient);}.cls-4{fill:none;stroke-width:1.5px;}.cls-5{fill:#c7842a;}</style><linearGradient id="linear-gradient" x1="2035.14" y1="2591.92" x2="2323.14" y2="2591.92" gradientUnits="userSpaceOnUse"><stop offset="0" stop-color="#a41d4e"/><stop offset="0.34" stop-color="#d01e4e"/><stop offset="1" stop-color="#991b4e"/></linearGradient><radialGradient id="radial-gradient" cx="108.03" cy="78.8" r="75.6" gradientUnits="userSpaceOnUse"><stop offset="0" stop-color="#4f0e46"/><stop offset="0.06" stop-color="#4c0e46"/><stop offset="0.64" stop-color="#350c42"/><stop offset="1" stop-color="#2c0b41"/></radialGradient></defs><title>learnspellbutton</title><polygon class="cls-1" points="2323.14 2616.74 2035.14 2616.74 2055.71 2591.92 2035.14 2567.11 2323.14 2567.11 2302.57 2591.92 2323.14 2616.74"/><path class="cls-2" d="M2131.73,2658.41a11.06,11.06,0,0,1-3.89-.65,7.63,7.63,0,0,1-2.88-1.84l-.4,2.09h-2v-8.17h2.19a7.9,7.9,0,0,0,1.71,5,6.06,6.06,0,0,0,4.59,1.57q5.14,0,5.15-3.93a4.29,4.29,0,0,0-.45-2,5.24,5.24,0,0,0-1.28-1.57,9.58,9.58,0,0,0-2-1.29c-.8-.4-1.71-.8-2.72-1.21s-2.17-.91-3-1.35a9.05,9.05,0,0,1-2.2-1.51,5.8,5.8,0,0,1-1.35-1.95,6.85,6.85,0,0,1-.46-2.68,6.77,6.77,0,0,1,2.14-5.33,9.48,9.48,0,0,1,11.53.11l.29-1.62h2v8.17h-2c0-2.32-.43-4-1.28-5.05a5,5,0,0,0-4.09-1.57q-4.93,0-4.93,4.5a4.58,4.58,0,0,0,.22,1.53,2.76,2.76,0,0,0,.81,1.17,6.81,6.81,0,0,0,1.6,1c.67.34,1.53.74,2.59,1.19,1.49.65,2.76,1.27,3.82,1.86a11.75,11.75,0,0,1,2.57,1.85,6.35,6.35,0,0,1,1.46,2.09,6.47,6.47,0,0,1,.47,2.52,7.1,7.1,0,0,1-.6,3,6.26,6.26,0,0,1-1.65,2.21,7.23,7.23,0,0,1-2.56,1.37A11,11,0,0,1,2131.73,2658.41Z" transform="translate(-1.86 -54.26)"/><path class="cls-2" d="M2148.68,2648.76c0,.77,0,1.44,0,2s.05,1.06.09,1.47a6.5,6.5,0,0,0,.16,1.05,3,3,0,0,0,.29.75,3,3,0,0,0,3,1.77,5,5,0,0,0,1.87-.36,5.37,5.37,0,0,0,1.59-1,4.38,4.38,0,0,0,1.17-1.67,8,8,0,0,0,.45-2.47v-9.61l-3.13-.68v-1.48h6.62v17.28l2.77.69V2658l-5.58.36-.39-4h-.15a7.68,7.68,0,0,1-2.84,2.9,7.45,7.45,0,0,1-3.85,1.06,6.21,6.21,0,0,1-2.51-.5,4.25,4.25,0,0,1-1.78-1.44,6.77,6.77,0,0,1-1-2.83,30.21,30.21,0,0,1-.31-4.91v-8l-2.41-.68v-1.48h5.9Z" transform="translate(-1.86 -54.26)"/><path class="cls-2" d="M2184.5,2648.11a14.26,14.26,0,0,1-.68,4.45,9.91,9.91,0,0,1-1.91,3.47,7.24,7.24,0,0,1-5.8,2.34,6.37,6.37,0,0,1-3.27-.84,7.2,7.2,0,0,1-2.56-3.15l-1.08,3.63h-1.69v-25.92l-2.77-.68v-1.48H2171v10.73a6,6,0,0,1,2.41-1.91,7.92,7.92,0,0,1,3-.54,9.69,9.69,0,0,1,3.33.54,5.3,5.3,0,0,1,2.43,1.73,9.74,9.74,0,0,1,1.73,3.35A14.38,14.38,0,0,1,2184.5,2648.11Zm-13.5,0q0,4.42,1.26,6.44a4,4,0,0,0,1.41,1.42,4.23,4.23,0,0,0,2.19.49,4.14,4.14,0,0,0,3.64-1.69,6.57,6.57,0,0,0,.93-2.59,21.76,21.76,0,0,0,.29-3.82q0-4.32-1.26-6.41a4.42,4.42,0,0,0-1.44-1.42,4.33,4.33,0,0,0-2.19-.49,5.07,5.07,0,0,0-2.16.42,3.15,3.15,0,0,0-1.41,1.24,7.94,7.94,0,0,0-.93,2.61A19.05,19.05,0,0,0,2171,2648.15Z" transform="translate(-1.86 -54.26)"/><path class="cls-2" d="M2190.23,2640.73l-2.78-.68v-1.48h5.19l.79,3.6h.14a8,8,0,0,1,2.79-2.9,7.15,7.15,0,0,1,3.73-1.06,6,6,0,0,1,2.65.56,4,4,0,0,1,1.67,1.39,8,8,0,0,1,.94,2.37,8.47,8.47,0,0,1,3-3.18,7.35,7.35,0,0,1,3.93-1.14,5.9,5.9,0,0,1,2.59.56,4.07,4.07,0,0,1,1.76,1.53,4.58,4.58,0,0,1,.54,1.22,10.61,10.61,0,0,1,.36,1.79,23,23,0,0,1,.2,2.5c0,1,.06,2.09.06,3.38v6.66l2.77.69V2658h-8.68v-1.47l2.41-.69v-8c0-1.53,0-2.69-.12-3.47a5.79,5.79,0,0,0-.45-1.82,3.14,3.14,0,0,0-3-1.76,4.53,4.53,0,0,0-1.78.36,5.59,5.59,0,0,0-1.53,1,4.45,4.45,0,0,0-1.17,1.67,8,8,0,0,0-.45,2.47v9.61l2.41.69V2658h-8.31v-1.47l2.41-.69v-8a33.2,33.2,0,0,0-.13-3.47,5.29,5.29,0,0,0-.45-1.82,3.13,3.13,0,0,0-3-1.76,4.49,4.49,0,0,0-1.78.36,5.3,5.3,0,0,0-1.53,1,4.45,4.45,0,0,0-1.17,1.67,8,8,0,0,0-.45,2.47v9.61l2.41.69V2658h-8.68v-1.47l2.78-.69Z" transform="translate(-1.86 -54.26)"/><path class="cls-2" d="M2222.55,2640.05v-1.48h6.27v17.28l2.77.69V2658h-9v-1.47l2.78-.69v-15.12Zm2.27-7.27a2.27,2.27,0,0,1,.6-1.66,2.15,2.15,0,0,1,1.63-.61,2.11,2.11,0,0,1,2.27,2.27,2.15,2.15,0,0,1-.61,1.63,2.27,2.27,0,0,1-1.66.6,2.07,2.07,0,0,1-2.23-2.23Z" transform="translate(-1.86 -54.26)"/><path class="cls-2" d="M2232.81,2639.08l3.5-.51.46-4.53,3-.44v5h4.61v1.8h-4.61v12.85q0,1.23,0,1.68a3.2,3.2,0,0,0,.15.74.54.54,0,0,0,.39.36,5,5,0,0,0,.94.07h2.52v1a26.86,26.86,0,0,1-3,1,10,10,0,0,1-2.11.3,2,2,0,0,1-2.09-1.33,3.78,3.78,0,0,1-.23-1.1c0-.44-.05-1.12-.05-2v-13.54h-3.5Z" transform="translate(-1.86 -54.26)"/><path class="cls-3" d="M212.31,81.16c-5.89-4.3-8.77-6.51-14.37-11,3.88-5.9,5.74-8.87,9.34-14.86a425.66,425.66,0,0,1-55.16,5.4q.24,4.36.5,8.71-44.59,2.12-89.18,0,.26-4.35.5-8.71a425.49,425.49,0,0,1-55.16-5.4c3.59,6,5.46,9,9.34,14.86-5.6,4.52-8.48,6.73-14.38,11,10.54,1.76,21,3.12,31.57,4.13.17,4.74.32,9.48.29,14.22a929.11,929.11,0,0,0,144.86,0c0-4.74.12-9.48.28-14.22C191.28,84.28,201.77,82.92,212.31,81.16Z" transform="translate(-1.86 -54.26)"/><path class="cls-4" d="M180.75,85.3c10.53-1,21-2.38,31.57-4.14-5.9-4.3-8.77-6.51-14.38-11,3.88-5.9,5.75-8.87,9.34-14.86a425.32,425.32,0,0,1-55.16,5.4q.24,4.36.5,8.71" transform="translate(-1.86 -54.26)"/><line class="cls-4" x1="179.24" y1="13.27" x2="150.31" y2="6.91"/><path class="cls-4" d="M35,85.27c-10.42-1-20.79-2.37-31.21-4.11,5.89-4.3,8.77-6.51,14.37-11-3.87-5.9-5.74-8.87-9.34-14.86a425.66,425.66,0,0,0,55.16,5.4c-.17,3.06-.34,6.13-.52,9.19" transform="translate(-1.86 -54.26)"/><line class="cls-4" x1="33.09" y1="13.27" x2="62.03" y2="6.91"/><path class="cls-4" d="M34.22,68.33" transform="translate(-1.86 -54.26)"/><path class="cls-4" d="M180.46,99.51a929,929,0,0,1-144.85,0c.06-10.65-.77-21.26-.68-31.91a941.37,941.37,0,0,0,146.2,0C181.23,78.25,180.39,88.86,180.46,99.51Z" transform="translate(-1.86 -54.26)"/><path class="cls-5" d="M60.84,90.59l5.26.22.78-3.28,1.06,0c-.06,1.78-.1,2.67-.16,4.45-4.3-.16-6.45-.25-10.74-.45l0-.82,1.83-.32c.21-4.52.31-6.77.52-11.29l-1.78-.48,0-.82,5.69.25,0,.82-2,.31Z" transform="translate(-1.86 -54.26)"/><path class="cls-5" d="M71.41,87.11a5.93,5.93,0,0,0,.31,2.32,2.44,2.44,0,0,0,1,1.3,3.2,3.2,0,0,0,1.54.43A3.75,3.75,0,0,0,76,90.84a4.83,4.83,0,0,0,1.37-1l.6.48a7.67,7.67,0,0,1-.77.84,4.57,4.57,0,0,1-.92.68,4.5,4.5,0,0,1-1.13.44,5.49,5.49,0,0,1-1.38.13,4.8,4.8,0,0,1-2.34-.64,3.7,3.7,0,0,1-1.51-1.71,4.94,4.94,0,0,1-.38-1.32,8.66,8.66,0,0,1-.08-1.56,6.36,6.36,0,0,1,1.38-4.11,4.18,4.18,0,0,1,3.42-1.34,3.81,3.81,0,0,1,3,1.3,5,5,0,0,1,1,3.38c0,.13,0,.25,0,.35s0,.29-.07.55Zm2.71-4.35c-1.54,0-2.42,1.09-2.66,3.41l4.82.16V85.7a3.32,3.32,0,0,0-.52-2.14A2,2,0,0,0,74.12,82.76Z" transform="translate(-1.86 -54.26)"/><path class="cls-5" d="M79.7,90.17a2.54,2.54,0,0,1,.37-1.31,3,3,0,0,1,1.1-1,7.47,7.47,0,0,1,1.9-.73,23.62,23.62,0,0,1,2.79-.51c0-.75-.11-1.34-.18-1.76a4,4,0,0,0-.32-1,1.71,1.71,0,0,0-.73-.75,2.16,2.16,0,0,0-1-.26,2.41,2.41,0,0,0-1,.16,1.07,1.07,0,0,0-.59.5,1.37,1.37,0,0,1,.38.52,1.51,1.51,0,0,1,.11.57,1,1,0,0,1-.34.74,1.1,1.1,0,0,1-.78.26,1,1,0,0,1-.75-.33,1.12,1.12,0,0,1-.28-.86,1.81,1.81,0,0,1,.35-1.05,2.71,2.71,0,0,1,.88-.76,4.52,4.52,0,0,1,1.2-.45A5.38,5.38,0,0,1,84.12,82a3.48,3.48,0,0,1,2.55,1c.77.8,1.14,2.21,1.1,4.22l0,2.77a4.57,4.57,0,0,0,.1,1.31.51.51,0,0,0,.54.36l.87,0v.57a6.38,6.38,0,0,1-2.17.51,1.15,1.15,0,0,1-.49-.1.78.78,0,0,1-.3-.34,2.31,2.31,0,0,1-.15-.65,7.57,7.57,0,0,1,0-1H86a4.37,4.37,0,0,1-1.62,1.49,4.2,4.2,0,0,1-2.14.51,2.7,2.7,0,0,1-1.9-.69A2.28,2.28,0,0,1,79.7,90.17Zm3.38,1.4a2.71,2.71,0,0,0,1.14-.25,2.81,2.81,0,0,0,1-.75,3.32,3.32,0,0,0,.65-2.13c0-.21,0-.43,0-.64s0-.41,0-.6c-.79.14-1.44.28-2,.43a5.4,5.4,0,0,0-1.26.54,1.86,1.86,0,0,0-.69.71,2.28,2.28,0,0,0-.21.94A1.93,1.93,0,0,0,82,91.1,1.32,1.32,0,0,0,83.08,91.57Z" transform="translate(-1.86 -54.26)"/><path class="cls-5" d="M95.93,83.51a.66.66,0,0,0-.38-.12,1.13,1.13,0,0,0-.78.44A4.3,4.3,0,0,0,94.05,85a7.06,7.06,0,0,0-.45,1.41,7.69,7.69,0,0,0-.17,1.6l-.05,3.57,2.08.39v.78L90,92.63v-.79l1.5-.33c0-3.21.08-4.81.13-8l-1.47-.39v-.78l2.76,0c.16,1,.23,1.52.39,2.53h.07a5,5,0,0,1,1.21-2,2.36,2.36,0,0,1,1.67-.68,1.7,1.7,0,0,1,1.24.48A1.63,1.63,0,0,1,98,84a1.35,1.35,0,0,1-.31.91,1,1,0,0,1-.8.32,1,1,0,0,1-.79-.32,1.14,1.14,0,0,1-.27-.83.68.68,0,0,1,0-.21A2.87,2.87,0,0,1,95.93,83.51Z" transform="translate(-1.86 -54.26)"/><path class="cls-5" d="M100.42,83.59l-1.48-.37v-.78l2.76,0c.17.76.25,1.15.41,1.91h.08a4.37,4.37,0,0,1,1.55-1.53,4.18,4.18,0,0,1,2.11-.55,3.4,3.4,0,0,1,1.38.27,2.37,2.37,0,0,1,1,.76,3.6,3.6,0,0,1,.55,1.5,16.36,16.36,0,0,1,.16,2.61v4.22l1.49.36v.78h-4.66V92l1.3-.36V87.39a17.36,17.36,0,0,0-.06-1.84,2.68,2.68,0,0,0-.24-1,1.74,1.74,0,0,0-1.69-.94,2.81,2.81,0,0,0-1,.19,2.69,2.69,0,0,0-.89.51,2.38,2.38,0,0,0-.63.88,4.06,4.06,0,0,0-.25,1.31c0,2,0,3.06,0,5.1l1.29.37v.78l-4.66,0V92l1.5-.35C100.38,88.41,100.39,86.8,100.42,83.59Z" transform="translate(-1.86 -54.26)"/><path class="cls-5" d="M122,92.93a6,6,0,0,1-2.09-.32,4.29,4.29,0,0,1-1.56-1l-.2,1.11H117l0-4.33h1.18a4.1,4.1,0,0,0,.94,2.66,3.23,3.23,0,0,0,2.47.8c1.84,0,2.76-.73,2.74-2.11a2.26,2.26,0,0,0-.26-1.07,2.8,2.8,0,0,0-.69-.82,5.44,5.44,0,0,0-1.1-.67c-.43-.21-.92-.42-1.46-.63a17.67,17.67,0,0,1-1.63-.7,4.58,4.58,0,0,1-1.18-.79,3,3,0,0,1-.73-1,3.53,3.53,0,0,1-.26-1.42,3.6,3.6,0,0,1,1.11-2.84,5.07,5.07,0,0,1,6.14,0c0-.34.08-.51.14-.86h1.07c0,1.73,0,2.59.06,4.33h-1.09a4.26,4.26,0,0,0-.72-2.67,2.65,2.65,0,0,0-2.18-.8c-1.75,0-2.61.82-2.6,2.41a2.39,2.39,0,0,0,.12.81,1.58,1.58,0,0,0,.44.62,3.55,3.55,0,0,0,.86.54c.36.18.83.38,1.39.62a21.41,21.41,0,0,1,2,1,6.25,6.25,0,0,1,1.39,1,3.52,3.52,0,0,1,.8,1.09,3.56,3.56,0,0,1,.27,1.34,3.68,3.68,0,0,1-.3,1.58,3.19,3.19,0,0,1-.87,1.18,3.74,3.74,0,0,1-1.36.75A6.14,6.14,0,0,1,122,92.93Z" transform="translate(-1.86 -54.26)"/><path class="cls-5" d="M133.14,95.19V96c-2.1,0-3.15.07-5.26.1v-.78l1.48-.39-.2-11.45-1.49-.34v-.78l2.76,0c.13.58.19.88.32,1.46a3.31,3.31,0,0,1,1.36-1.33,4.25,4.25,0,0,1,1.75-.4,5.33,5.33,0,0,1,1.78.25,2.85,2.85,0,0,1,1.31.88,5.6,5.6,0,0,1,1,1.72,7.22,7.22,0,0,1,.08,4.51,5.14,5.14,0,0,1-1,1.83,3.88,3.88,0,0,1-3.08,1.31,3.36,3.36,0,0,1-1.51-.27,3.1,3.1,0,0,1-1.25-1.08c0,1.48.05,2.22.08,3.7Zm-2.07-7.94a6.29,6.29,0,0,0,.75,3.31,2.14,2.14,0,0,0,.77.73,2.28,2.28,0,0,0,1.18.24,2.23,2.23,0,0,0,1.93-1,3.14,3.14,0,0,0,.47-1.34,10.75,10.75,0,0,0,.11-2,6.34,6.34,0,0,0-.76-3.29,2.28,2.28,0,0,0-.78-.74,2.39,2.39,0,0,0-1.18-.23,2.59,2.59,0,0,0-1.14.25,1.66,1.66,0,0,0-.74.67,4,4,0,0,0-.47,1.35A9.57,9.57,0,0,0,131.07,87.25Z" transform="translate(-1.86 -54.26)"/><path class="cls-5" d="M142,87.26a5.93,5.93,0,0,0,.46,2.3,2.4,2.4,0,0,0,1.13,1.23,3.27,3.27,0,0,0,1.56.33,3.71,3.71,0,0,0,1.66-.43,4.6,4.6,0,0,0,1.31-1.07l.63.44a8.54,8.54,0,0,1-.71.88,4.48,4.48,0,0,1-.87.74,4.34,4.34,0,0,1-1.11.51,5.17,5.17,0,0,1-1.37.22,4.7,4.7,0,0,1-2.37-.49,3.68,3.68,0,0,1-1.62-1.6,5.12,5.12,0,0,1-.46-1.3,9,9,0,0,1-.18-1.55,6.31,6.31,0,0,1,1.11-4.19,4.22,4.22,0,0,1,3.33-1.56,3.82,3.82,0,0,1,3.07,1.11,4.94,4.94,0,0,1,1.18,3.31v.35c0,.11,0,.29,0,.55C146.07,87.14,144.73,87.18,142,87.26Zm2.42-4.51q-2.29.07-2.43,3.58l4.81-.16,0-.63a3.37,3.37,0,0,0-.66-2.1A2,2,0,0,0,144.46,82.75Z" transform="translate(-1.86 -54.26)"/><path class="cls-5" d="M151.35,78.23l-1.48-.31,0-.78,3.32-.13c.22,5.5.33,8.24.56,13.74l1.5.3,0,.78L150.4,92l0-.78,1.47-.42C151.65,85.78,151.55,83.27,151.35,78.23Z" transform="translate(-1.86 -54.26)"/><path class="cls-5" d="M157.24,78l-1.49-.3,0-.78,3.32-.15c.25,5.49.38,8.24.63,13.73l1.5.29,0,.79-4.86.21,0-.78,1.47-.43Z" transform="translate(-1.86 -54.26)"/></svg>