<svg id="Layer_1" data-name="Layer 1" xmlns="http://www.w3.org/2000/svg" xmlns:xlink="http://www.w3.org/1999/xlink" viewBox="0 0 250 366"><defs><style>.cls-1,.cls-3{fill:#ffb600;}.cls-1{opacity:0.2;}.cls-2,.cls-23,.cls-24,.cls-3,.cls-4{opacity:0.3;}.cls-2{fill:url(#radial-gradient);}.cls-34,.cls-4{fill:#ffe000;}.cls-10,.cls-5{fill:#9298a8;}.cls-11,.cls-15,.cls-25,.cls-30,.cls-5,.cls-7,.cls-9{stroke:#0a0025;}.cls-12,.cls-15,.cls-29,.cls-32,.cls-5,.cls-7,.cls-8{stroke-linejoin:round;}.cls-11,.cls-12,.cls-13,.cls-14,.cls-15,.cls-16,.cls-20,.cls-21,.cls-25,.cls-28,.cls-29,.cls-32,.cls-5,.cls-7,.cls-8,.cls-9{stroke-width:2px;}.cls-6,.cls-8,.cls-9{fill:#f2f1e9;}.cls-11,.cls-12,.cls-28,.cls-29,.cls-7{fill:none;}.cls-12,.cls-13,.cls-14,.cls-16,.cls-20,.cls-21,.cls-28,.cls-29,.cls-32,.cls-33,.cls-8{stroke:#000;}.cls-11,.cls-15,.cls-25,.cls-28,.cls-29,.cls-9{stroke-linecap:round;}.cls-11,.cls-13,.cls-14,.cls-16,.cls-20,.cls-21,.cls-25,.cls-28,.cls-30,.cls-33,.cls-9{stroke-miterlimit:10;}.cls-13{fill:#281f5b;}.cls-14{fill:url(#linear-gradient);}.cls-15{fill:#e3f1f5;}.cls-16{fill:url(#linear-gradient-2);}.cls-17{fill:url(#linear-gradient-3);}.cls-18{opacity:0.7;}.cls-19,.cls-33{fill:#ffcd46;}.cls-19{opacity:0.4;}.cls-20{fill:url(#linear-gradient-4);}.cls-21{fill:#006177;}.cls-22{fill:#0a0025;}.cls-23{fill:url(#radial-gradient-2);}.cls-24{fill:url(#radial-gradient-3);}.cls-25{fill:#ffec82;}.cls-26{fill:#f7ba00;}.cls-27{fill:url(#linear-gradient-5);}.cls-30{fill:#9e5e81;}.cls-31{fill:#000821;}.cls-32{fill:#108699;}</style><radialGradient id="radial-gradient" cx="51.5" cy="141.5" r="48.5" gradientUnits="userSpaceOnUse"><stop offset="0" stop-color="#ffe000"/><stop offset="0.1" stop-color="#ffe001" stop-opacity="0.94"/><stop offset="0.29" stop-color="#ffdf02" stop-opacity="0.77"/><stop offset="0.56" stop-color="#ffdd05" stop-opacity="0.49"/><stop offset="0.9" stop-color="#ffdc08" stop-opacity="0.12"/><stop offset="1" stop-color="#ffdb09" stop-opacity="0"/></radialGradient><linearGradient id="linear-gradient" x1="22.58" y1="183.3" x2="87.42" y2="183.3" gradientTransform="translate(41.01 -21.8) rotate(2.96)" gradientUnits="userSpaceOnUse"><stop offset="0" stop-color="#099180"/><stop offset="0.11" stop-color="#068584"/><stop offset="0.31" stop-color="#037788"/><stop offset="0.56" stop-color="#016f8a"/><stop offset="1" stop-color="#006d8b"/></linearGradient><linearGradient id="linear-gradient-2" x1="175" y1="138.64" x2="150.2" y2="191.22" gradientTransform="translate(56.59 -42.93) rotate(4.75)" xlink:href="#linear-gradient"/><linearGradient id="linear-gradient-3" x1="139.05" y1="100.76" x2="139.05" y2="288.79" gradientUnits="userSpaceOnUse"><stop offset="0" stop-color="#00ad90"/><stop offset="0.02" stop-color="#00aa90"/><stop offset="0.26" stop-color="#008f8e"/><stop offset="0.5" stop-color="#007c8c"/><stop offset="0.74" stop-color="#00718b"/><stop offset="1" stop-color="#006d8b"/></linearGradient><linearGradient id="linear-gradient-4" x1="137.75" y1="4.01" x2="137.75" y2="92.7" gradientUnits="userSpaceOnUse"><stop offset="0" stop-color="#00ad90"/><stop offset="0.33" stop-color="#00938e"/><stop offset="0.75" stop-color="#00778c"/><stop offset="1" stop-color="#006d8b"/></linearGradient><radialGradient id="radial-gradient-2" cx="100.35" cy="102.98" r="9.95" gradientTransform="translate(22.21) scale(0.89 1)" gradientUnits="userSpaceOnUse"><stop offset="0" stop-color="#ff456d"/><stop offset="0.22" stop-color="#ff527c" stop-opacity="0.76"/><stop offset="0.6" stop-color="#ff6896" stop-opacity="0.36"/><stop offset="0.87" stop-color="#ff76a6" stop-opacity="0.1"/><stop offset="1" stop-color="#ff7bac" stop-opacity="0"/></radialGradient><radialGradient id="radial-gradient-3" cx="151.76" cy="102.98" r="9.95" xlink:href="#radial-gradient-2"/><linearGradient id="linear-gradient-5" x1="142.5" y1="52" x2="142.5" y2="80.69" gradientUnits="userSpaceOnUse"><stop offset="0" stop-color="#00848d"/><stop offset="0.38" stop-color="#007d8c"/><stop offset="1" stop-color="#007a8c"/></linearGradient></defs><title>level3</title><polygon class="cls-1" points="37.76 117.55 44.73 110.86 40.43 102.81 49.74 104.94 55.11 97.04 57.45 105.86 67.11 106.01 60.96 111.32 65.25 119.37 55.13 118.63 49.76 126.52 47.42 117.7 37.76 117.55"/><polygon class="cls-1" points="67.16 156.55 68.93 151.15 64.28 147.73 69.88 146.66 70.44 140.98 74.27 145.31 79.49 143.06 77.72 148.46 82.37 151.88 76.77 152.95 76.2 158.63 72.38 154.3 67.16 156.55"/><circle class="cls-2" cx="51.5" cy="141.5" r="48.5"/><polygon class="cls-3" points="137.28 272.39 168.96 298.36 247 295.3 200.63 318.2 247 341.1 168.96 338.03 137.28 364 105.61 338.03 27.56 341.1 73.94 318.2 27.56 295.3 105.61 298.36 137.28 272.39"/><polygon class="cls-4" points="33.64 318.2 92.4 308.83 85.46 285.75 137.28 299.46 189.1 285.75 182.16 308.83 240.93 318.2 182.16 327.56 189.1 350.65 137.28 336.93 85.46 350.65 92.4 327.56 33.64 318.2"/><path class="cls-5" d="M172.89,310.12a5.85,5.85,0,0,1,7.57,4.33,1.61,1.61,0,0,1-.07.95c-.28.56-1,.67-1.66.69A48,48,0,0,1,166.78,315c-.35-.08-.74-.2-.88-.52s.18-.87.53-1.18a13.59,13.59,0,0,1,8.09-3.28l-5.32.41"/><path class="cls-5" d="M129.76,257.7a28.08,28.08,0,0,1,26.59-3.2c8.47,3.23,15.57,10,21.39,17.84s10.74,17.33,17.94,23.59A34.81,34.81,0,0,0,216,304.29a19.91,19.91,0,0,0,10.93-1.82,15,15,0,0,0,7.6-9.79c1-4.39-.66-9.42-4.08-10.7a4.45,4.45,0,0,0-3.73.23c-2.25,1.23-3.43,4.32-5.3,6.35-3.45,3.76-8.59,3.29-12.66,1.58a30.59,30.59,0,0,1-11.35-8.48c-3.95-4.66-6.78-10.55-10.29-15.71-8.55-12.6-20.85-21.82-34.68-23.58S120,245,111,260.8c-2,3.62-11.11,13.79-9.9,17.85,1.86,6.22,12.37,12.54,15.26,3.89C119.8,272.32,120.88,264.05,129.76,257.7Z"/><path class="cls-6" d="M216,304.29a35.36,35.36,0,0,1-9.94-2.21c-.1-1.63,1.91-3,3.59-3.7-2.05-.91-5.86-3.41-4.94-4.53s2.63-1.38,4.08-1.61c-1.93.27-3.35-1.78-3.45-3.84a28.93,28.93,0,0,0,3.42,1.74c4.07,1.71,9.21,2.18,12.66-1.58,1.87-2,3.05-5.12,5.3-6.35a4.45,4.45,0,0,1,3.73-.23c3.42,1.28,5.07,6.31,4.08,10.7a15,15,0,0,1-7.6,9.79A19.91,19.91,0,0,1,216,304.29Z"/><path class="cls-7" d="M129.76,257.7a28.08,28.08,0,0,1,26.59-3.2c8.47,3.23,15.57,10,21.39,17.84s10.74,17.33,17.94,23.59A34.81,34.81,0,0,0,216,304.29a19.91,19.91,0,0,0,10.93-1.82,15,15,0,0,0,7.6-9.79c1-4.39-.66-9.42-4.08-10.7a4.45,4.45,0,0,0-3.73.23c-2.25,1.23-3.43,4.32-5.3,6.35-3.45,3.76-8.59,3.29-12.66,1.58a30.59,30.59,0,0,1-11.35-8.48c-3.95-4.66-6.78-10.55-10.29-15.71-8.55-12.6-20.85-21.82-34.68-23.58S120,245,111,260.8c-2,3.62-11.11,13.79-9.9,17.85,1.86,6.22,12.37,12.54,15.26,3.89C119.8,272.32,120.88,264.05,129.76,257.7Z"/><path class="cls-5" d="M161.81,308.63c4.83.68,16.13-.95,14.33,8.09,0,0-17.4-1.9-25.59-3.52a81.15,81.15,0,0,0,.65-14.95l-.66-36.83c0-1.85,15.45.19,16.9.67,5.17,1.73,2.46,6,2,10.64A160.31,160.31,0,0,1,161.81,308.63Z"/><path class="cls-8" d="M103.8,309.42a5.85,5.85,0,0,0-7.92,3.65,1.54,1.54,0,0,0,0,.95c.23.59,1,.76,1.59.83a47.25,47.25,0,0,0,12-.06c.35-.05.76-.13.92-.44s-.1-.89-.42-1.22a13.58,13.58,0,0,0-7.78-4l5.27.87"/><path class="cls-9" d="M114.4,308.82c-4.86.36-16-2-14.82,7.14,0,0,17.48-.77,25.76-1.84a80.57,80.57,0,0,1,.33-15q1.53-18.34,3.07-36.7c.15-1.85-15.43-.82-16.91-.44-5.28,1.39-2.85,5.8-2.71,10.49A161,161,0,0,0,114.4,308.82Z"/><path class="cls-10" d="M111.76,297a10.19,10.19,0,0,0,4-2.09c.47,2.55,4.73,3.08,5.82.73a3.93,3.93,0,0,0,4.23,2l2.94-35.14c.15-1.85-15.43-.82-16.91-.44-5.28,1.39-2.85,5.8-2.71,10.49A161.3,161.3,0,0,0,111.76,297Z"/><path class="cls-11" d="M114.4,308.82c-4.86.36-16-2-14.82,7.14,0,0,17.48-.77,25.76-1.84a80.57,80.57,0,0,1,.33-15q1.53-18.34,3.07-36.7c.15-1.85-15.43-.82-16.91-.44-5.28,1.39-2.85,5.8-2.71,10.49A161,161,0,0,0,114.4,308.82Z"/><path class="cls-8" d="M87.92,152.33c-1.34,3.08-2.46,8-4.84,10.68s-6.27,6.64-9.73,7.87A26.37,26.37,0,0,1,63,172.31c-5.38-.31-10.12-2.09-15.1-3.32a16.1,16.1,0,0,0-8-.37,7.44,7.44,0,0,0,4.76,4.09,12.83,12.83,0,0,0-3.91-.44,1.67,1.67,0,0,0-1.07.34,1,1,0,0,0,.12,1.45,8.49,8.49,0,0,0,4,2.44l-3.6-.1a2.27,2.27,0,0,0-1.41.3c-.89.62-.49,1.73.11,2.31,2.45,2.37,6.11,3.47,9.79,4.28,8.41,1.86,17.9,2.45,27.22-1.07,7.16-2.71,18.5-12.55,19.67-20.67"/><path class="cls-10" d="M68.74,183.16c.13-1.1-.64-2-1-3s1-1.2,1-2.79-1.83-3.59-2.58-5.39c-.72,0-1.44,0-2.14,0-5.38-.31-10.12-2.09-15.09-3.32a16,16,0,0,0-8-.36,7.45,7.45,0,0,0,4.76,4.08,12.5,12.5,0,0,0-3.91-.43,1.6,1.6,0,0,0-1.07.33,1,1,0,0,0,.12,1.45,8.49,8.49,0,0,0,4.05,2.44l-3.6-.09a2.2,2.2,0,0,0-1.41.29c-.89.62-.49,1.73.11,2.31,2.45,2.37,6.11,3.47,9.79,4.28A53.07,53.07,0,0,0,68.45,184,2.79,2.79,0,0,0,68.74,183.16Z"/><path class="cls-12" d="M87.92,152.33c-1.34,3.08-2.46,8-4.84,10.68s-6.27,6.64-9.73,7.87A26.37,26.37,0,0,1,63,172.31c-5.38-.31-10.12-2.09-15.1-3.32a16.1,16.1,0,0,0-8-.37,7.44,7.44,0,0,0,4.76,4.09,12.83,12.83,0,0,0-3.91-.44,1.67,1.67,0,0,0-1.07.34,1,1,0,0,0,.12,1.45,8.49,8.49,0,0,0,4,2.44l-3.6-.1a2.27,2.27,0,0,0-1.41.3c-.89.62-.49,1.73.11,2.31,2.45,2.37,6.11,3.47,9.79,4.28,8.41,1.86,17.9,2.45,27.22-1.07,7.16-2.71,18.5-12.55,19.67-20.67"/><path class="cls-13" d="M108.33,143a230.56,230.56,0,0,0-17.27,36c-12,33-25.69,69.77-27,75-1.94,7.76,134.14,1.3,141.22.95s8.29-.25,13.77-4.75c.4-.33,3.82-1.71,4-2.21S211.21,220.68,204,208.45c-7.54-12.73-15.54-26.37-19.83-40.52-3.59-11.8-11.86-27.31-18.14-37.93"/><path class="cls-14" d="M77.69,159.61c-3.28,1.79-7.38,3.55-8,7.23-2.6.6-5.26-.41-7.9-.79s-5.89.24-6.9,2.71a7.75,7.75,0,0,0-.14,4c1.3,10.23-4.28,21.47-1.94,33.39,0,0,38,1,48.73-23.34,7.55-17.09,17.72-33.09,19.11-51.72.2-2.68.24-5.63-1.45-7.72-5.18-6.4-17.63,10.56-20.43,14.19C92.53,145.54,86.86,154.62,77.69,159.61Z"/><path class="cls-15" d="M190.67,129.82a154,154,0,0,0,42.76-25.6c1.3-1.1,2.73-2.28,4.36-2.42-.81,2.44.13,3.15-1.89,5,2.2-1.25,1.95-.9,4.14-2.14a8,8,0,0,1-1.72,4.79c1.58-1,4.21-1.76,4.56-.18a2.86,2.86,0,0,1-.73,2c-7.69,11-20.59,17.85-33.14,23.25-6.79,2.92-13.69,5.58-20.65,7.95"/><path class="cls-16" d="M192.29,124.16a12.75,12.75,0,0,1,3.73-.75c1.18,0,2.34.42,3.5.34a7,7,0,0,0,3.54-1.56c6.89-4.86,21.31-9.68,21.31-9.68s8.49,6,10.75,14.14c2.36,8.48,4.54,26.69,3.34,26.91-12,2.19-24.17,4.39-36.62,4s-25.4-3.83-33.93-11.19a12.65,12.65,0,0,1-3.33-4,10.3,10.3,0,0,1-.82-3.84c-.27-4.84.51-10.23,3.21-14.53C174.87,125,184.71,126.34,192.29,124.16Z"/><path class="cls-17" d="M152.45,105.18c22.05,18.32,55.38,168.08,55.38,168.08-24.72,19.8-55.08,13.68-85.3,14.56-5,.14-10,1.09-15.1,1-16.38-.41-22.62-6.35-37.16-13.52,2-41,50.8-172.68,52.11-172.92,9.1-1.63,30.54-2.17,39.72-.8"/><g class="cls-18"><path class="cls-19" d="M103.79,172.62l-6.28-4.24c-.22-.15,5.19-13.26,5.19-13.26a.85.85,0,0,0,.57.51l7.33,1.9a.83.83,0,0,1,.3,1.45l-6,4.65a.83.83,0,0,0-.32.7l.46,7.56A.82.82,0,0,1,103.79,172.62Z"/><path class="cls-19" d="M125.55,199.3l2.55-3.15a.44.44,0,0,0,.08-.4L127,191.87a.44.44,0,0,1,.58-.54l3.78,1.46a.46.46,0,0,0,.41,0l3.34-2.29a.44.44,0,0,1,.69.38l-.22,4a.48.48,0,0,0,.17.37l3.22,2.47a.44.44,0,0,1-.16.77l-3.91,1a.44.44,0,0,0-.3.28l-1.36,3.81a.44.44,0,0,1-.78.1l-2.21-3.4a.41.41,0,0,0-.35-.2l-4.05-.12A.43.43,0,0,1,125.55,199.3Z"/><path class="cls-19" d="M93.36,210.19l-4.51-7.56a1,1,0,0,0-.75-.47L86.48,202l5.41-15.64a1,1,0,0,0,.89-.07l7.45-4.69a.94.94,0,0,1,1.45.89l-.8,8.76a1,1,0,0,0,.34.83L108,197.7a1,1,0,0,1-.4,1.66L99,201.3a1,1,0,0,0-.67.58l-3.27,8.17A1,1,0,0,1,93.36,210.19Z"/><path class="cls-19" d="M159.48,182.48l3.16-7.54a.88.88,0,0,0-.07-.82l-4.43-6.88a.89.89,0,0,1,.82-1.37l8.15.67a.87.87,0,0,0,.76-.32l5.17-6.33a.89.89,0,0,1,1.55.35l1.88,8a.89.89,0,0,0,.55.63l3.86,1.5.91,4.86-4,2.43a.87.87,0,0,0-.42.71l-.47,8.16a.88.88,0,0,1-1.46.63l-6.2-5.34a.86.86,0,0,0-.8-.18l-7.91,2.08A.89.89,0,0,1,159.48,182.48Z"/><path class="cls-19" d="M155.55,215l-2.16-4.39a.53.53,0,0,0-.39-.29l-4.84-.71a.53.53,0,0,1-.29-.91l3.51-3.4a.55.55,0,0,0,.15-.47l-.82-4.82a.53.53,0,0,1,.77-.56l4.33,2.28a.5.5,0,0,0,.49,0l4.33-2.27a.53.53,0,0,1,.77.56l-.84,4.82a.52.52,0,0,0,.16.47l3.49,3.42a.53.53,0,0,1-.3.9l-4.84.69a.57.57,0,0,0-.4.29L156.5,215A.53.53,0,0,1,155.55,215Z"/><path class="cls-19" d="M160.53,240.36l-2.39-2.12a.35.35,0,0,0-.31-.08l-3.1.76a.34.34,0,0,1-.4-.47l1.28-2.93a.33.33,0,0,0,0-.32l-1.68-2.71a.35.35,0,0,1,.33-.53l3.17.32a.36.36,0,0,0,.3-.12l2.06-2.44a.35.35,0,0,1,.61.15l.68,3.12a.32.32,0,0,0,.21.24l2.95,1.21a.35.35,0,0,1,.05.62l-2.76,1.61a.35.35,0,0,0-.17.28l-.23,3.18A.35.35,0,0,1,160.53,240.36Z"/><path class="cls-19" d="M164.68,152.21l-9.43-2.86a1.11,1.11,0,0,0-1,.18l-7.7,6.15a1.07,1.07,0,0,1-1.74-.82l-.18-9.85a1.08,1.08,0,0,0-.48-.87l-4.5-3s17.5-9.87,17.85-9.88l9.85-.44a1.06,1.06,0,0,1,.92,1.67l-5.64,8.09a1,1,0,0,0-.12,1l3.46,9.23A1.06,1.06,0,0,1,164.68,152.21Z"/><path class="cls-19" d="M135.55,180l-1.37-5.1a.54.54,0,0,0-.36-.39l-5-1.77a.57.57,0,0,1-.12-1l4.43-2.87a.58.58,0,0,0,.26-.47l.14-5.27a.58.58,0,0,1,.94-.43l4.1,3.32a.57.57,0,0,0,.52.11l5.06-1.5a.58.58,0,0,1,.7.76l-1.9,4.93a.6.6,0,0,0,.06.52l3,4.36a.57.57,0,0,1-.5.89l-5.27-.28a.59.59,0,0,0-.49.23l-3.22,4.18A.57.57,0,0,1,135.55,180Z"/><path class="cls-19" d="M113.26,147.51l1.95-8.83a1,1,0,0,0-.25-.88L110.45,133l22,4.67a4.1,4.1,0,0,0-.57,1.82l1.11,9a1,1,0,0,1-1.47,1l-7.8-4.57a1,1,0,0,0-.91,0l-8.18,3.83A1,1,0,0,1,113.26,147.51Z"/><path class="cls-19" d="M187.64,215.88l4.77-1a.56.56,0,0,0,.38-.32l3.53,8.64a.53.53,0,0,0-.49,0l-4.15,2.59a.53.53,0,0,1-.81-.5l.47-4.87a.52.52,0,0,0-.19-.46l-3.74-3.14A.53.53,0,0,1,187.64,215.88Z"/><path class="cls-19" d="M112.13,223.47l2.19-2.7a.35.35,0,0,0,.07-.34l-1-3.34a.38.38,0,0,1,.5-.46l3.24,1.25a.36.36,0,0,0,.35,0l2.87-2a.38.38,0,0,1,.59.33l-.19,3.47a.38.38,0,0,0,.15.32l2.76,2.13a.38.38,0,0,1-.14.66l-3.36.89a.39.39,0,0,0-.26.24l-1.17,3.28a.38.38,0,0,1-.67.08l-1.89-2.92a.37.37,0,0,0-.3-.18l-3.48-.1A.37.37,0,0,1,112.13,223.47Z"/></g><path d="M151.66,106c8.69,7.43,13,21.3,16.93,31.57,6.51,17,11.83,34.57,16.84,52.12,4.89,17.14,9.4,34.4,13.68,51.71q2.38,9.65,4.66,19.31c.85,3.58,2.27,7.48,2.59,11.17,0,.34.53,1.36.38,1.68,0,.08-4.31,2.25-5,2.67q-2.06,1.31-4.22,2.45a62.94,62.94,0,0,1-11.4,4.6c-14.19,4.21-29.24,3.81-43.89,3.51-7.19-.14-14.44-.42-21.63,0-8.37.5-16.32,1.53-24.6-.62-6.39-1.65-12.1-4.92-17.86-8-2.07-1.12-6.24-2.34-6.69-4.35-.29-1.27.3-3.31.45-4.58,2.08-16.86,6.84-33.48,11.51-49.77,5.64-19.61,11.92-39,18.5-58.36,5.2-15.29,10.57-30.52,16.29-45.63,1.3-3.43,2.31-8.21,4.44-11.25,1.21-1.7,1.95-1.1,4.6-1.38,5.87-.62,11.8-.85,17.7-.9a113.8,113.8,0,0,1,16.82.73c1.42.19,2-2,.6-2.17-10-1.38-20.32-1-30.32-.32-3.41.24-9.31-.56-11.25,2.71-1.62,2.74-2.54,6.19-3.68,9.15-2.06,5.38-4.06,10.8-6,16.22-12.11,33.29-23.51,67-32.79,101.17-4,14.91-8.36,30.37-9.18,45.87a1.12,1.12,0,0,0,.55,1c10,5,19.45,11.45,30.76,13.09,6.49.95,12.75.23,19.24-.23,6.68-.48,13.42-.26,20.11-.13,24.22.48,48.77.69,68.81-14.92a1.09,1.09,0,0,0,.29-1.09c-3.92-17.59-8.25-35.09-12.79-52.53-7.78-29.91-15.85-60.14-27.46-88.83C165,122.51,161,111,153.25,104.39c-1.1-.94-2.7.65-1.59,1.59Z"/><path class="cls-20" d="M106,35.94a29.64,29.64,0,0,1,4.34-7.75c2.92-3.45,7.25-5.71,11.47-7.88l14.68-7.55a24.5,24.5,0,0,1,6.11-2.48c2.79-.6,5.71-.27,8.58-.12C162.26,10.77,179.8,4,183.4,4s-2.06,17.31-10.64,20.69A8,8,0,0,1,170,33.92l7.48,21c1.87,5.27,3.77,10.79,2.68,16.22-2.08,10.42-14.26,16.87-25.92,19.46-17,3.77-47,3.24-60.23-9-5.63-5.21-2.11-10.89.33-16.75C98.35,55.29,101.83,45.52,106,35.94Z"/><path class="cls-13" d="M137,132.67c4.68.33,22.06-18.06,26.95-28.83,4.57,1.08,3.53,7.77,6.29,10S173,125,173,125c-7,3-22,19.14-33,20-7.16.54-28-13.11-38-13,0,0,2-8.93,6-12.93,4.62-4.62-2-15.59,7-11.75,3.73,1.6,8.86,10.9,11,13.94C129.13,125.63,132.32,132.33,137,132.67Z"/><path class="cls-13" d="M137.62,134.79c6.06.72,19.47-15.77,20.44-17.15,2.32-3.34.85-7.57-1.13-11.06-6.86,6.22-16.25,18.89-20.59,18.3s-8.34-11.25-17.37-15C114.08,118.25,131.56,134.07,137.62,134.79Z"/><path class="cls-21" d="M151.62,79.46c19.38-2,38.92-7.95,58-3.72,3,.68,6.55,2.15,7.26,5.47,1,4.45-3.79,7.73-7.85,8.75-16.21,4.06-32.82-.11-49.4-1.45-10.8-.87-21.62-2.25-32.39-1-15.7,1.76-26,11.42-47.27,2S55.05,61,59.6,56,74,57.18,80.06,61c6.69,4.22,13.17,8.69,20.4,11.76C116.64,79.6,134.45,81.21,151.62,79.46Z"/><path class="cls-10" d="M164,66.32A30.45,30.45,0,0,0,146,59.15c-6.53-.47-13.08.72-19.41,2.48a109.21,109.21,0,0,0-20.16,7.85c-3.4,1.72-7,4-8.07,7.86l.32.72c-1.42,6-1.6,10.18,1.63,18.26s8.93,15.16,18.59,20.79,27.78,5.51,39.17-2.77c6.9-5,12.69-13.31,14.45-22C174.39,82.93,171,72.51,164,66.32Z"/><path class="cls-22" d="M164.84,65.52C150.76,53.82,131.62,57.87,116,64c-5.93,2.32-15.57,5.21-18.25,11.71-.72,1.75-.63,3.85-.9,5.76a24.12,24.12,0,0,0,.09,7.77c2.5,14,13.88,27.59,27.7,31.5,13.65,3.86,29.62.27,39.38-10.19,11.84-12.69,14.14-32.41.84-45-1.05-1-2.65.6-1.59,1.59,15,14.16,8.44,38-8.16,47.8a37.32,37.32,0,0,1-44.58-5.39A39,39,0,0,1,99.09,88.6a25.71,25.71,0,0,1,.67-10.54c.08-.31-.39-.68-.32-.93.82-2.77,3.92-4.67,6.22-6,16-9.26,41.74-17.19,57.59-4C164.35,68,166,66.45,164.84,65.52Z"/><path class="cls-6" d="M136.53,79.5c-2.37-18.53-4.14-.71-4.14-.71S126,107,113.07,112.69a41,41,0,0,0,4.74,3.25C129.89,122.9,148,122,157,113,144,106,138,91,136.53,79.5Z"/><path class="cls-22" d="M164.84,65.52C150.76,53.82,131.62,57.87,116,64c-5.93,2.32-15.57,5.21-18.25,11.71-.72,1.75-.63,3.85-.9,5.76a24.12,24.12,0,0,0,.09,7.77c2.5,14,13.88,27.59,27.7,31.5,13.65,3.86,29.62.27,39.38-10.19,11.84-12.69,14.14-32.41.84-45-1.05-1-2.65.6-1.59,1.59,15,14.16,8.44,38-8.16,47.8a37.32,37.32,0,0,1-44.58-5.39A39,39,0,0,1,99.09,88.6a25.71,25.71,0,0,1,.67-10.54c.08-.31-.39-.68-.32-.93.82-2.77,3.92-4.67,6.22-6,16-9.26,41.74-17.19,57.59-4C164.35,68,166,66.45,164.84,65.52Z"/><path class="cls-11" d="M206.82,96.55,176,99.23"/><path class="cls-11" d="M203.5,111.6a191.51,191.51,0,0,0-32.09-4"/><path class="cls-11" d="M97.6,98.75A152.92,152.92,0,0,0,68,95.1a7.12,7.12,0,0,0-2.52.24"/><path class="cls-11" d="M99.56,107.08Q82.9,109,66.34,111.83"/><ellipse class="cls-23" cx="112" cy="102.98" rx="10" ry="8.55"/><ellipse class="cls-24" cx="158" cy="102.98" rx="10" ry="8.55"/><path class="cls-25" d="M110.75,96a11.68,11.68,0,0,0,8.7,0c3.86-1.76,7.35-4.74,8.78-8.74a36.1,36.1,0,0,0-22.42-4C97.81,84.42,106.47,94.5,110.75,96Z"/><path class="cls-26" d="M109,91.55c.82,1.52,2.06,3,3.77,3.26a5.43,5.43,0,0,0,3.36-.86,7.38,7.38,0,0,0,2.93-2.66,8,8,0,0,0,.76-4.46,1.73,1.73,0,0,0-.36-1.14,1.65,1.65,0,0,0-.79-.37c-2.44-.68-8-1.95-10.32-.45C106.45,86.12,108.15,89.92,109,91.55Z"/><path class="cls-25" d="M151.31,96.76a11.7,11.7,0,0,0,8.49-1.91c3.38-2.56,6.12-6.24,6.64-10.45a36.09,36.09,0,0,0-22.75,1C136.14,88.34,146.81,96.26,151.31,96.76Z"/><path class="cls-26" d="M147.41,92.4c1,1.4,2.42,2.73,4.14,2.77a5.45,5.45,0,0,0,3.23-1.26,7.36,7.36,0,0,0,2.58-3,8.06,8.06,0,0,0,.21-4.52A1.33,1.33,0,0,0,156.23,85c-2.5-.36-8.17-.94-10.29.84C144.18,87.33,146.34,90.89,147.41,92.4Z"/><path class="cls-10" d="M117,55.54c-7.42-7.82-19.61-23.17-22.27-23.48s-6.39,24.5-5.54,37A5.1,5.1,0,0,0,90.07,72a5.42,5.42,0,0,0,3.61,1.5A33.55,33.55,0,0,0,117,67.9a8.57,8.57,0,0,0,3.28-3.54C121.49,61.29,117,55.54,117,55.54Z"/><path class="cls-22" d="M117.81,54.75c-4.73-5-9.15-10.37-13.77-15.52-1.83-2-5.81-8-9-8.25-2.19-.14-2.86,2.65-3.38,4.3-1.69,5.4-2.34,11.23-2.94,16.83s-2.12,13.38-.4,18.83c1.66,5.22,9.73,4.22,13.84,3.72,5.84-.72,15.07-3.27,18.47-8.69,2.29-3.64-.38-8-2.65-11-.86-1.14-2.82,0-1.94,1.14a21.26,21.26,0,0,1,1.81,2.77c2.28,4.24.26,7.13-3.51,9.35a32.44,32.44,0,0,1-19,4.35c-6.42-.55-5.2-7.89-5-12.69a142.49,142.49,0,0,1,1.48-14.43A58.25,58.25,0,0,1,94,35.52c.37-1.12.4-2.05,1.29-2s2.67,2.4,3.29,3c6.18,6.31,11.63,13.31,17.68,19.75C117.22,57.39,118.8,55.8,117.81,54.75Z"/><path class="cls-10" d="M149.72,63.09c7.64-7.39,25.43-30.18,28.46-29.57,5.91,1.19,8,32.59-.39,41.95-1.25,1.39,0-.31-1.42,0a36.79,36.79,0,0,1-12.49.61c-4.89-.59-10.13-2.49-12.44-6.34Z"/><path class="cls-22" d="M150.52,63.89c5.25-5.16,9.92-10.91,14.77-16.44,2.43-2.77,4.88-5.55,7.45-8.21,1-1,4-4.87,5.58-4.46,1.88.49,2.65,5.66,3,7.12a56.37,56.37,0,0,1,1,11.23c0,7-.44,16.84-5.81,22.09H178l.05,0a1.19,1.19,0,0,0-1.08-.83c-3.07-.31-6.34.89-9.51.81-3.89-.1-8.11-.7-11.51-2.73-3.87-2.29-4.15-5.74-5.17-9.69a1.13,1.13,0,0,0-2.17.59c1.31,5,1.82,8.72,6.84,11.38a26.53,26.53,0,0,0,11.11,2.66,30.79,30.79,0,0,0,6.58-.26c1.28-.23,2.59-1.24,3.27-.36a1.14,1.14,0,0,0,1.59,0c5.83-5.7,6.47-16.05,6.47-23.68,0-5.26.25-16.1-4.48-19.86-3.88-3.09-9.15,4.63-11.32,7C162,47.52,156,55.38,148.93,62.3,147.89,63.32,149.48,64.91,150.52,63.89Z"/><path class="cls-6" d="M173.12,49.91c.27-.28.7-.57,1-.32a.81.81,0,0,1,.18.67,25.31,25.31,0,0,1-2.2,9.09A4.72,4.72,0,0,1,176,57.86q-1.38,2.78-2.88,5.51c1.21.4,2.78.18,3.52,1.21a2.11,2.11,0,0,1,0,2.16,5.39,5.39,0,0,1-1.55,1.64c-3.42,2.65-7.79,4.46-12.05,3.69a3.42,3.42,0,0,1-2.76-4.63c.29-1,1.39-1.63,2.07-2.36a31.89,31.89,0,0,0,2.3-2.88C167.52,58.14,169.65,53.53,173.12,49.91Z"/><path class="cls-6" d="M100.19,45.33c-1,1.35-.54,3.37.23,4.87s1.8,3,1.77,4.71c-1.38-.73-3.21-1.38-4.33-.2s-.65,2.94.2,4.12,2.08,2,2.93,3.16c-1.2-.29-2.32,1.2-2.18,2.54a4.33,4.33,0,0,0,2.17,3,15.49,15.49,0,0,0,5.11,1.83,6.14,6.14,0,0,0,4,0C115.63,66.77,102.28,48.5,100.19,45.33Z"/><path class="cls-27" d="M103,77.5c19,6.45,40.12.86,60.3,2.32,6.35.46,13.21,1.54,18.71-1.49C167,80,158.93,63.63,156,52c-11.51,1.55-25,0-37.47,1.55C121.71,55.46,105.75,78.44,103,77.5Z"/><path class="cls-28" d="M118.73,51.5c-1.43,8.15-4.29,14.46-9.92,19"/><path class="cls-29" d="M156.14,51.61c.65,5.78,6.23,19.63,11.72,22.78"/><path class="cls-30" d="M135.78,96.71a1.48,1.48,0,0,0-1.85-1,3.45,3.45,0,0,0-1.81,1.5,3.05,3.05,0,0,0-2.65-1.94c-1.35-.06,1.15,4,2.76,5.18A31.88,31.88,0,0,0,135,98.29,2,2,0,0,0,135.78,96.71Z"/><ellipse class="cls-31" cx="113.76" cy="88.69" rx="6" ry="3.5" transform="translate(12.72 191.64) rotate(-83.48)"/><ellipse class="cls-31" cx="151.52" cy="89.09" rx="6" ry="3.5" transform="translate(58.36 238.14) rotate(-88.45)"/><polyline class="cls-11" points="129 111 132 102 135 111"/><path class="cls-32" d="M103.84,68.36C92,63.21,73.27,57,73.27,57c7.41,7.1,7.29,14,20,22s23.71,7.87,28.58,8.09c13.71.61,27.62,1,41-2.47,11.61-3.05,22.53-8,34.32-10C166,75.89,115.66,73.51,103.84,68.36Z"/><g class="cls-18"><path class="cls-19" d="M166.42,34l.43,4.57a.51.51,0,0,0,.23.39l3.56,2.19c.32.2-3.73,2.77-3.73,2.77a.5.5,0,0,0-.25.37s-1.42,3-1.66,2.72l-2.55-1.37a.42.42,0,0,0-.38-.16l-4,.6a.49.49,0,0,1-.44-.74l2-4a.57.57,0,0,0,0-.46l-1.75-4.15a.48.48,0,0,1,.49-.7l4,.95a.41.41,0,0,0,.39-.13l2.94-3.17A.43.43,0,0,1,166.42,34Z"/><path class="cls-19" d="M115.92,28.54l2.09,5a.54.54,0,0,0,.39.33l4.83.89a.62.62,0,0,1,.28,1L120,39.62a.64.64,0,0,0-.16.53l.75,5.49c.06.49-.4.86-.78.62l-4.29-2.66a.47.47,0,0,0-.5,0l-4.36,2.51a.55.55,0,0,1-.76-.65l.9-5.46a.69.69,0,0,0-.14-.54l-3.45-3.93a.63.63,0,0,1,.31-1l4.85-.71a.52.52,0,0,0,.4-.32L115,28.52A.51.51,0,0,1,115.92,28.54Z"/><path class="cls-19" d="M96.42,67.17l7,7.83a1,1,0,0,0,1,.32l9.67-2.15a1.18,1.18,0,0,1,1.16,1.73l-4.38,10a1.35,1.35,0,0,0,0,1.13l-18-6.13a1.24,1.24,0,0,0,.57-.92l1.19-11.11A1,1,0,0,1,96.42,67.17Z"/><path class="cls-19" d="M140,47.81l3.69,4.91a.75.75,0,0,0,.57.28l6.25,0a.66.66,0,0,1,.57,1l-3.66,4.67a.6.6,0,0,0-.09.58L149.47,65a.64.64,0,0,1-.85.8l-6-2a.67.67,0,0,0-.63.08l-4.95,3.44a.7.7,0,0,1-1.09-.55l0-5.92a.63.63,0,0,0-.3-.53l-5.16-3.53a.62.62,0,0,1,.17-1.13L136.63,54a.62.62,0,0,0,.44-.42L138.83,48A.69.69,0,0,1,140,47.81Z"/><path class="cls-19" d="M90.12,228.16l2.16,2.2a.3.3,0,0,0,.28.09l2.87-.76a.34.34,0,0,1,.36.49l-1.24,3a.42.42,0,0,0,0,.33l1.5,2.81a.36.36,0,0,1-.31.54l-2.92-.35a.32.32,0,0,0-.28.12l-1.94,2.5a.31.31,0,0,1-.55-.16l-.57-3.22a.34.34,0,0,0-.18-.25l-2.7-1.27a.38.38,0,0,1,0-.64L89.16,232a.35.35,0,0,0,.16-.28l.27-3.27C89.62,228.1,89.93,228,90.12,228.16Z"/><path class="cls-19" d="M146.71,29.63l.24,3.42a.38.38,0,0,0,.17.28l2.7,1.5a.39.39,0,0,1,0,.67l-2.88,1.56a.39.39,0,0,0-.2.28l-.65,3.42a.34.34,0,0,1-.59.21l-2-2.45a.29.29,0,0,0-.3-.1l-3.09.61a.35.35,0,0,1-.33-.54l1.63-3.07a.39.39,0,0,0,0-.35l-1.26-3a.39.39,0,0,1,.39-.55l3,.56a.36.36,0,0,0,.3-.11l2.32-2.5A.32.32,0,0,1,146.71,29.63Z"/><path class="cls-19" d="M133.86,86.31l.53-8.26a1.14,1.14,0,0,0-.38-.93l-5.22-4.5,22.49.84a5.19,5.19,0,0,0-.28,2.15l2.51,9.8c.22.88-.55,1.69-1.3,1.37l-8.43-3.56a.87.87,0,0,0-.9.13l-7.49,3.91A1,1,0,0,1,133.86,86.31Z"/><path class="cls-19" d="M145.36,10.11l-6.45,5.69a1,1,0,0,0-.34.78l.49,7.89a1,1,0,0,1-1.38.93l-6.78-3.62a.88.88,0,0,0-.82,0l-7.61,3.84a.78.78,0,0,1-1.17-.9l1.77-6.22S145.94,9.6,145.36,10.11Z"/></g><path class="cls-22" d="M157.73,56.1c3.89-4.42,7.7-8.9,11.65-13.25,1.58-1.74,6.11-8.22,8.8-8.21a1.13,1.13,0,0,0,0-2.25c-3,0-6.13,4.3-7.92,6.19-4.87,5.15-9.44,10.6-14.12,15.93-.95,1.08.63,2.68,1.59,1.59Z"/><path class="cls-12" d="M103.84,68.36C92,63.21,73.27,57,73.27,57c7.41,7.1,7.29,14,20,22s23.71,7.87,28.58,8.09c13.71.61,27.62,1,41-2.47,11.61-3.05,22.53-8,34.32-10C166,75.89,115.66,73.51,103.84,68.36Z"/><path class="cls-33" d="M153.68,56.67l4.48,5.27a.79.79,0,0,0,.65.26l6.87-.71a.75.75,0,0,1,.72,1.14l-3.62,5.89a.74.74,0,0,0-.05.69l2.8,6.32a.75.75,0,0,1-.86,1L158,74.94a.73.73,0,0,0-.68.17l-5.15,4.61a.74.74,0,0,1-1.24-.5l-.53-6.89a.75.75,0,0,0-.37-.59l-6-3.47a.75.75,0,0,1,.09-1.34l6.39-2.64a.72.72,0,0,0,.44-.53L152.38,57A.75.75,0,0,1,153.68,56.67Z"/><path class="cls-33" d="M122.7,56.8l-4.42,3.73a.62.62,0,0,1-.57.12l-5.57-1.53a.63.63,0,0,0-.75.84l2.18,5.36a.6.6,0,0,1-.06.58l-3.17,4.83a.63.63,0,0,0,.57,1l5.76-.42a.65.65,0,0,1,.54.23L120.82,76a.63.63,0,0,0,1.1-.24l1.38-5.62a.6.6,0,0,1,.39-.43l5.41-2a.63.63,0,0,0,.11-1.12l-4.91-3A.63.63,0,0,1,124,63l-.27-5.77A.63.63,0,0,0,122.7,56.8Z"/><path class="cls-33" d="M135.7,61.33l2,4.31a.51.51,0,0,0,.38.3l4.66.83a.51.51,0,0,1,.25.89l-3.49,3.18a.53.53,0,0,0-.17.45l.65,4.69a.51.51,0,0,1-.76.52l-4.12-2.34a.49.49,0,0,0-.47,0l-4.26,2.06a.51.51,0,0,1-.73-.56l1-4.64a.53.53,0,0,0-.14-.46l-3.27-3.41a.51.51,0,0,1,.31-.87l4.7-.52a.52.52,0,0,0,.4-.27l2.23-4.17A.52.52,0,0,1,135.7,61.33Z"/><path class="cls-34" d="M49.92,123.55l5.62,9.75a1.21,1.21,0,0,0,1,.61l11.23.9a1.22,1.22,0,0,1,.8,2L61,145.21a1.23,1.23,0,0,0-.28,1.1l2.61,10.95a1.22,1.22,0,0,1-1.68,1.4l-10.29-4.59a1.22,1.22,0,0,0-1.13.07L40.61,160a1.22,1.22,0,0,1-1.85-1.17L40,147.64a1.23,1.23,0,0,0-.42-1L31,139.26a1.22,1.22,0,0,1,.55-2.12l11-2.33a1.23,1.23,0,0,0,.88-.73l4.32-10.39A1.22,1.22,0,0,1,49.92,123.55Z"/></svg>