<svg id="Layer_1" data-name="Layer 1" xmlns="http://www.w3.org/2000/svg" xmlns:xlink="http://www.w3.org/1999/xlink" viewBox="0 0 225 366"><defs><style>.cls-1,.cls-30{fill:#ffb600;}.cls-1,.cls-16,.cls-17,.cls-2{opacity:0.3;}.cls-2{fill:#ffe000;}.cls-10,.cls-3,.cls-8{fill:#f2f1e9;}.cls-22,.cls-23,.cls-27,.cls-29,.cls-3,.cls-5{stroke:#000;}.cls-24,.cls-3,.cls-5,.cls-6,.cls-9{stroke-linejoin:round;}.cls-10,.cls-11,.cls-13,.cls-14,.cls-18,.cls-22,.cls-23,.cls-3,.cls-5,.cls-6,.cls-9{stroke-width:2px;}.cls-4,.cls-6{fill:#9298a8;}.cls-11,.cls-23,.cls-24,.cls-25,.cls-26,.cls-29,.cls-5,.cls-9{fill:none;}.cls-10,.cls-11,.cls-13,.cls-14,.cls-18,.cls-21,.cls-26,.cls-28,.cls-6,.cls-9{stroke:#0a0025;}.cls-7{fill:#5424a0;}.cls-10,.cls-11,.cls-13,.cls-14,.cls-18,.cls-21,.cls-23,.cls-24,.cls-25,.cls-26{stroke-linecap:round;}.cls-10,.cls-11,.cls-13,.cls-14,.cls-18,.cls-21,.cls-22,.cls-23,.cls-25,.cls-26,.cls-27,.cls-28,.cls-29{stroke-miterlimit:10;}.cls-12{fill:url(#linear-gradient);}.cls-13{fill:#00bab5;}.cls-14{fill:#39a8a8;}.cls-15{fill:#0a0025;}.cls-16{fill:url(#radial-gradient);}.cls-17{fill:url(#radial-gradient-2);}.cls-18{fill:#ffe669;}.cls-19{fill:#f7ba00;}.cls-20{fill:#000821;}.cls-21{fill:#348399;}.cls-22{fill:#281f5b;}.cls-24,.cls-25{stroke:#39a8a8;opacity:0.5;}.cls-26{stroke-width:4px;}.cls-27{fill:#ffcd46;}.cls-27,.cls-29{stroke-width:1.5px;}.cls-28{fill:#9e5e81;}.cls-30{opacity:0.2;}</style><linearGradient id="linear-gradient" x1="108.49" y1="282.96" x2="108.49" y2="92" gradientUnits="userSpaceOnUse"><stop offset="0" stop-color="#5424a0"/><stop offset="0.28" stop-color="#45228c"/><stop offset="0.85" stop-color="#1e1e59"/><stop offset="1" stop-color="#131d4b"/></linearGradient><radialGradient id="radial-gradient" cx="72.41" cy="102.98" r="9.95" gradientTransform="translate(22.21) scale(0.89 1)" gradientUnits="userSpaceOnUse"><stop offset="0" stop-color="#ff456d"/><stop offset="0.22" stop-color="#ff527c" stop-opacity="0.76"/><stop offset="0.6" stop-color="#ff6896" stop-opacity="0.36"/><stop offset="0.87" stop-color="#ff76a6" stop-opacity="0.1"/><stop offset="1" stop-color="#ff7bac" stop-opacity="0"/></radialGradient><radialGradient id="radial-gradient-2" cx="121.59" cy="102.98" r="9.95" xlink:href="#radial-gradient"/></defs><title>level1</title><polygon class="cls-1" points="112.28 272.39 143.96 298.36 222 295.3 175.63 318.2 222 341.1 143.96 338.03 112.28 364 80.61 338.03 2.56 341.1 48.94 318.2 2.56 295.3 80.61 298.36 112.28 272.39"/><polygon class="cls-2" points="8.64 318.2 67.4 308.83 60.46 285.75 112.28 299.46 164.1 285.75 157.16 308.83 215.93 318.2 157.16 327.56 164.1 350.65 112.28 336.93 60.46 350.65 67.4 327.56 8.64 318.2"/><path class="cls-3" d="M80,169c-2.55,1.77-5.87,5.14-9,6s-8,1.88-11.16.91a22.76,22.76,0,0,1-8.31-4.72c-3.79-3.33-6.35-7.5-9.38-11.34A14.68,14.68,0,0,0,36.49,155a8.11,8.11,0,0,0,1.41,6.07,12.08,12.08,0,0,0-2.65-2.59,1.37,1.37,0,0,0-1-.34c-.58.1-.71.76-.65,1.26a9,9,0,0,0,1.73,4.32l-2.6-2.14a2,2,0,0,0-1.18-.56c-1,0-1.24,1.15-1.1,2,.59,3.35,2.72,6.34,5,9.11,5.23,6.32,11.89,12.23,20.52,14.65,6.65,1.87,20,.26,25-5.74"/><path class="cls-4" d="M49.33,183.1c.65-.83.55-2,.76-3s1.36-.39,2.14-1.73.48-4,.85-5.9c-.54-.4-1.06-.82-1.55-1.25-3.79-3.33-6.35-7.5-9.38-11.34A14.68,14.68,0,0,0,36.49,155a8.11,8.11,0,0,0,1.41,6.07,12.08,12.08,0,0,0-2.65-2.59,1.37,1.37,0,0,0-1-.34c-.58.1-.71.76-.65,1.26a9,9,0,0,0,1.73,4.32l-2.6-2.14a2,2,0,0,0-1.18-.56c-1,0-1.24,1.15-1.1,2,.59,3.35,2.72,6.34,5,9.11a48.81,48.81,0,0,0,13.19,11.56A2.44,2.44,0,0,0,49.33,183.1Z"/><path class="cls-5" d="M80,169c-2.55,1.77-5.87,5.14-9,6s-8,1.88-11.16.91a22.76,22.76,0,0,1-8.31-4.72c-3.79-3.33-6.35-7.5-9.38-11.34A14.68,14.68,0,0,0,36.49,155a8.11,8.11,0,0,0,1.41,6.07,12.08,12.08,0,0,0-2.65-2.59,1.37,1.37,0,0,0-1-.34c-.58.1-.71.76-.65,1.26a9,9,0,0,0,1.73,4.32l-2.6-2.14a2,2,0,0,0-1.18-.56c-1,0-1.24,1.15-1.1,2,.59,3.35,2.72,6.34,5,9.11,5.23,6.32,11.89,12.23,20.52,14.65,6.65,1.87,20,.26,25-5.74"/><path class="cls-6" d="M145.89,310.12a5.85,5.85,0,0,1,7.57,4.33,1.61,1.61,0,0,1-.07.95c-.28.56-1,.67-1.66.69A48,48,0,0,1,139.78,315c-.35-.08-.74-.2-.88-.52s.18-.87.53-1.18a13.59,13.59,0,0,1,8.09-3.28l-5.32.41"/><path class="cls-6" d="M134.81,308.63c4.83.68,16.13-.95,14.33,8.09,0,0-17.4-1.9-25.59-3.52a81.15,81.15,0,0,0,.65-14.95l-.66-36.83c0-1.85,15.45.19,16.9.67,5.17,1.73,2.46,6,2,10.64A160.31,160.31,0,0,1,134.81,308.63Z"/><path class="cls-7" d="M144.34,79.48c.77-10.81.38-21.8-3-32.24a51.4,51.4,0,0,0-19.93-27,34.3,34.3,0,0,0-7.31-3.82c-3.66-1.34-7.63-1.9-11.51-2.69A92.8,92.8,0,0,1,86,8.62c-2-.82-4-1.73-6.24-1.61A13.48,13.48,0,0,0,75.51,8.2C66.29,11.94,47.5,22.11,51,23.3s8.06-1,12.1-1.46c2.35-.29,5.08-.48,6.77,1,1.14,1,10,7.92,11.88,5.84.8,2.73-3.25,12.86-1.25,16.86,1.75,3.5.83,7.07-1.08,10.6-1.45,2.71-3.38,5.21-5,7.82a48.25,48.25,0,0,0-5.53,12Z"/><path d="M145.47,79.48c1-15.83-.48-32.21-9.35-45.82a50.33,50.33,0,0,0-14.83-14.88c-6.74-4.33-14.2-5.08-21.82-7a93.07,93.07,0,0,1-12.39-4c-3-1.2-5.81-2.38-9.1-1.7-5.26,1.09-10.68,4.47-15.36,7-1.74.93-16.85,8-12,11.21,2.19,1.48,6.73-.09,8.94-.61,4.47-1.06,7.91-1.27,11.69,1.53,2.36,1.76,7.92,6.57,11.12,4.36l-1.66-.68c.51,3-1,6.74-1.49,9.75a17.68,17.68,0,0,0,.54,7.87c1.68,6.65-3,11.55-6.31,16.81a53.81,53.81,0,0,0-5.65,12.22A1.14,1.14,0,0,0,68.84,77l75.5,3.61c1.45.07,1.45-2.18,0-2.25l-75.5-3.61,1.08,1.42c2-6.07,5.11-11,8.55-16.33,2.19-3.38,4.47-7.28,4-11.48-.2-1.92-1.26-3.54-1.42-5.48a24.42,24.42,0,0,1,.81-6.58c.5-2.57,1.4-5.33,1-8a1.13,1.13,0,0,0-1.65-.68c-2.76,1.92-9.5-5.46-12-6.57s-5.41-.55-7.92-.09c-1.58.3-3.12.81-4.71,1.12a29.05,29.05,0,0,1-4.64.53,7.56,7.56,0,0,1,.82-.78c.94-1.61,4.29-3,5.84-3.91C61,16.53,63.45,15.2,66,13.91s4.9-2.46,7.4-3.57C77.73,8.39,81,7.89,85.68,9.7c7.65,3,15.32,4.56,23.27,6.39,8.45,1.95,15.54,6.84,21.2,13.35,12.06,13.85,14.2,32.38,13.07,50C143.13,80.93,145.38,80.92,145.47,79.48Z"/><path class="cls-3" d="M77.64,310.12a5.86,5.86,0,0,0-7.58,4.33,1.54,1.54,0,0,0,.08.95c.28.56,1,.67,1.65.69a48.09,48.09,0,0,0,12-1.11c.34-.08.73-.2.87-.52s-.18-.87-.52-1.18A13.62,13.62,0,0,0,76,310l5.33.41"/><path class="cls-6" d="M172.77,226.85A26.61,26.61,0,0,0,185,205.64c.45-8.23-2.41-16.53-6.65-24.15s-10.07-15-12.5-23.24a32.55,32.55,0,0,1,.61-20,18.88,18.88,0,0,1,5.42-8.54,13.31,13.31,0,0,1,10.63-3c3.9.7,7.35,3.83,7.15,7.14a4.22,4.22,0,0,1-1.53,3.05c-1.82,1.46-4.73,1.38-7,2.24-4.28,1.6-5.76,6.07-5.85,10.08a27.85,27.85,0,0,0,2.72,12.47c2.33,4.94,6.05,9.35,8.94,14.09,7.06,11.54,10,25.07,6.45,37.29S179.5,239.5,163.5,241.5c-3.66.46-15.13,4.54-18,2.11-4.34-3.71-5.63-14.73,2.38-14.16C157.4,230.13,164.45,232.09,172.77,226.85Z"/><path class="cls-8" d="M166.44,138.29a33.49,33.49,0,0,0-1.81,9.11c1.28.65,3.14-.54,4.27-1.72,0,2,.63,6.1,1.87,5.71s2.06-1.72,2.77-2.86c-.91,1.53.22,3.43,1.84,4.23a29,29,0,0,1-.16-3.48c.09-4,1.57-8.48,5.85-10.08,2.31-.86,5.22-.78,7-2.24a4.22,4.22,0,0,0,1.53-3.05c.2-3.31-3.25-6.44-7.15-7.14a13.31,13.31,0,0,0-10.63,3A18.88,18.88,0,0,0,166.44,138.29Z"/><path class="cls-9" d="M172.77,226.85A26.61,26.61,0,0,0,185,205.64c.45-8.23-2.41-16.53-6.65-24.15s-10.07-15-12.5-23.24a32.55,32.55,0,0,1,.61-20,18.88,18.88,0,0,1,5.42-8.54,13.31,13.31,0,0,1,10.63-3c3.9.7,7.35,3.83,7.15,7.14a4.22,4.22,0,0,1-1.53,3.05c-1.82,1.46-4.73,1.38-7,2.24-4.28,1.6-5.76,6.07-5.85,10.08a27.85,27.85,0,0,0,2.72,12.47c2.33,4.94,6.05,9.35,8.94,14.09,7.06,11.54,10,25.07,6.45,37.29S179.5,239.5,163.5,241.5c-3.66.46-15.13,4.54-18,2.11-4.34-3.71-5.63-14.73,2.38-14.16C157.4,230.13,164.45,232.09,172.77,226.85Z"/><path class="cls-10" d="M88.14,308.6C83.34,309.38,72,308,74,317c0,0,17.35-2.28,25.5-4.07a81,81,0,0,1-1-14.94q-.06-18.42-.13-36.83c0-1.86-15.45.52-16.88,1-5.14,1.84-2.33,6-1.79,10.67A161.14,161.14,0,0,0,88.14,308.6Z"/><path class="cls-4" d="M84.48,297a10,10,0,0,0,3.79-2.42c.69,2.49,5,2.65,5.86.21a3.93,3.93,0,0,0,4.39,1.59q-.06-17.62-.13-35.26c0-1.86-15.45.52-16.88,1-5.14,1.84-2.33,6-1.79,10.67A161.4,161.4,0,0,0,84.48,297Z"/><path class="cls-11" d="M88.14,308.6C83.34,309.38,72,308,74,317c0,0,17.35-2.28,25.5-4.07a81,81,0,0,1-1-14.94q-.06-18.42-.13-36.83c0-1.86-15.45.52-16.88,1-5.14,1.84-2.33,6-1.79,10.67A161.14,161.14,0,0,0,88.14,308.6Z"/><path class="cls-12" d="M100.5,96.5c-23,41-60.73,155.94-62,170,36,15,51.81,9.23,79.46,14.36a109.4,109.4,0,0,0,14.62,2c16,.75,31.27-5.49,45.91-11.61-.88-17-5.11-32-8-48.79-7.32-42.64-28.18-85.62-49-124-.78-1.43-1-3.56-2.24-3.89a81.65,81.65,0,0,0-26.93-2.35"/><path d="M99.53,95.93c-12.61,22.63-21.74,47.4-30.72,71.63-9.4,25.39-18.25,51.05-25.94,77-2.1,7.09-4.75,14.52-5.49,21.92a1.12,1.12,0,0,0,.82,1.08,146.6,146.6,0,0,0,36.07,10.13c9.09,1.24,18.27,1.44,27.41,2.18,12.13,1,24.19,4.71,36.4,4.12,14.27-.68,27.7-6.2,40.71-11.64a1.14,1.14,0,0,0,.82-1.08c-1.09-18.31-5.47-36.47-9-54.42-3.71-18.79-9.79-37.07-17-54.78-7.14-17.49-15.42-34.48-24.2-51.2-2-3.8-4.1-7.54-6-11.36-1.16-2.26-1.56-4.65-3.78-6-3.11-1.89-9.12-1.9-12.75-2.26a86.43,86.43,0,0,0-14.48-.14c-1.43.1-1.44,2.35,0,2.25a86,86,0,0,1,16.28.34c3.62.44,9,.62,11.3,3.91,1.27,1.8,2.18,4.32,3.22,6.26,5.43,10.12,10.71,20.32,15.7,30.66,10.39,21.55,19.64,43.78,25.86,66.93,2.86,10.65,4.63,21.48,6.79,32.28,1.07,5.34,2.2,10.66,3.18,16,.54,3,1,5.95,1.46,8.94.38,2.69,2,8,1.13,10.69-.81,2.47-4.53,3.07-6.72,3.94-2.58,1-5.16,2-7.78,3a102,102,0,0,1-16.82,4.57c-11.85,2-22.78-.6-34.46-2.19C96,276.58,80.29,277.12,65,273.82q-6.34-1.38-12.55-3.37c-2.3-.74-12.28-3.24-12.69-4.72-.58-2.12,1.45-6.69,2-8.74,6.41-24.41,14.77-48.41,23.23-72.17,10.54-29.64,21.17-60.19,36.53-87.75.71-1.27-1.24-2.4-1.94-1.14Z"/><path class="cls-13" d="M105.4,117.19c2.65-.83,5.72.32,7.72,2.17a19.65,19.65,0,0,1,4.2,6.69,305.18,305.18,0,0,1,13,34.46c1.08,3.49,2,7.57-.4,10.41-5.72,2.44-16.16,8-17.1,7.15S110.25,140,109,120.91c-2.73,13.69-3.08,24.45-4.62,36.68-.83,6.61-1.68,13.29-4,19.56A41.46,41.46,0,0,1,88,160.38,14.06,14.06,0,0,1,86.9,156a15.3,15.3,0,0,1,.88-5.08,87.53,87.53,0,0,1,15.63-29.3l1.68-4.35"/><path class="cls-13" d="M97.32,141.66c-2.46-1.08-8.15-5.64-11.41-9.36s-3.82-8.62-4.37-13.34a1.93,1.93,0,0,1,.3-1.64,2.06,2.06,0,0,1,1.34-.41c4.31-.35,8.19-2.59,12.15-4.35s8.34-.29,12.36,1.29c-.25,2.8,1.32.79,2.26-1.63a65.59,65.59,0,0,0,19.71,4.12c.6,0,4.75-.35,6.89,2.86S128.25,142,126,142.86s-4.24-2.39-5.53-4.54c-3.84-6.44-7.46-13.13-11.63-19.34-2,3.33-4.11,4.35-5.65,8.38C102.49,129.13,99.78,142.75,97.32,141.66Z"/><path class="cls-14" d="M104,113.06a10.43,10.43,0,0,0,.9,5c.87,2.41,1.3,5.8,2.6,7.24s2.37.46,2.65,1.57a36.82,36.82,0,0,0,3.32-7.39,12.39,12.39,0,0,0-.12-8,4,4,0,0,0-1.06-1.63C109.77,107.7,104.43,110,104,113.06Z"/><path class="cls-4" d="M71.63,79.69c-1.42,5.9-.33,12.17,1.63,17.9a30.16,30.16,0,0,0,3.67,7.6,37.19,37.19,0,0,0,6.95,7,58,58,0,0,0,8,5.84c12.09,6.93,27.78,4.39,39.17-3.72,6.9-4.92,12.69-12.06,14.45-20.56A27.29,27.29,0,0,0,137,68.18a30.74,30.74,0,0,0-18.09-7c-6.53-.46-13.08.7-19.41,2.43a111.5,111.5,0,0,0-20.16,7.69c-3.4,1.7-7,4-8.07,7.71"/><path class="cls-15" d="M70.55,79.39c-1.53,7.7,0,15.65,3.32,22.7,3.13,6.59,9.36,11.57,15.32,15.55,12,8,27.78,6.59,39.8-.7,11.62-7,20.32-19.88,17.61-33.89-2.77-14.33-15.33-22.71-29.44-23.11-9.89-.28-19.89,2.67-29,6.23-6.58,2.58-15.21,5.32-17.91,12.51-.51,1.36,1.66,1.95,2.17.6,1.76-4.69,6.59-6.66,10.8-8.59a107.62,107.62,0,0,1,13.18-5c8.18-2.52,17-4.43,25.53-3.05,18,2.88,28.55,21.83,19.71,38.31-7.4,13.77-24.82,22.34-40.22,19.37C83.59,116.87,69.12,98.14,72.72,80c.28-1.42-1.89-2-2.17-.6Z"/><path class="cls-8" d="M109.5,84.5c-5-18-3.14,2.3-3.14,2.3S98,108,87.1,113.73A41.12,41.12,0,0,0,91.85,117c12.09,6.93,30.15,5,39.15-4C125,109,113.15,97.64,109.5,84.5Z"/><path class="cls-15" d="M70.55,79.39c-1.53,7.7,0,15.65,3.32,22.7,3.13,6.59,9.36,11.57,15.32,15.55,12,8,27.78,6.59,39.8-.7,11.62-7,20.32-19.88,17.61-33.89-2.77-14.33-15.33-22.71-29.44-23.11-9.89-.28-19.89,2.67-29,6.23-6.58,2.58-15.21,5.32-17.91,12.51-.51,1.36,1.66,1.95,2.17.6,1.76-4.69,6.59-6.66,10.8-8.59a107.62,107.62,0,0,1,13.18-5c8.18-2.52,17-4.43,25.53-3.05,18,2.88,28.55,21.83,19.71,38.31-7.4,13.77-24.82,22.34-40.22,19.37C83.59,116.87,69.12,98.14,72.72,80c.28-1.42-1.89-2-2.17-.6Z"/><path class="cls-11" d="M39.47,96.55l30.86,2.68"/><path class="cls-11" d="M43.94,114.52a190.73,190.73,0,0,1,31.8-5.83"/><path class="cls-11" d="M147.7,96.75a152.92,152.92,0,0,1,29.61-3.65,7.06,7.06,0,0,1,2.51.24"/><path class="cls-11" d="M144.51,105q17.6,4.23,35,9.38"/><path class="cls-11" d="M104.47,110.22l3.31-8.17,4,9"/><ellipse class="cls-16" cx="87" cy="102.98" rx="10" ry="8.55"/><ellipse class="cls-17" cx="131" cy="102.98" rx="10" ry="8.55"/><path class="cls-18" d="M86.65,97.45a11.64,11.64,0,0,0,8.64-1.07c3.62-2.22,6.71-5.61,7.63-9.75a36.14,36.14,0,0,0-22.74-1.21C72.39,87.59,82.23,96.52,86.65,97.45Z"/><path class="cls-19" d="M84.62,93.4c1.1,1.4,2.65,2.73,4.54,2.77a6.32,6.32,0,0,0,3.54-1.26,7.6,7.6,0,0,0,2.82-3,7.27,7.27,0,0,0,.24-4.52,1.66,1.66,0,0,0-.56-1.08,2,2,0,0,0-.91-.28c-2.74-.36-9-.94-11.28.84C81.07,88.33,83.44,91.89,84.62,93.4Z"/><path class="cls-11" d="M88.93,84.48a9,9,0,0,0,1,7.82,8.86,8.86,0,0,0-1-8.28.59.59,0,0,0-.16.71"/><path class="cls-18" d="M124.65,97.45a11.64,11.64,0,0,0,8.64-1.07c3.62-2.22,6.71-5.61,7.63-9.75a36.14,36.14,0,0,0-22.74-1.21C110.39,87.59,120.23,96.52,124.65,97.45Z"/><path class="cls-19" d="M123.62,93.4c1.1,1.4,2.65,2.73,4.54,2.77a6.32,6.32,0,0,0,3.54-1.26,7.6,7.6,0,0,0,2.82-3,7.27,7.27,0,0,0,.24-4.52,1.66,1.66,0,0,0-.56-1.08,2,2,0,0,0-.91-.28c-2.74-.36-9-.94-11.28.84C120.07,88.33,122.44,91.89,123.62,93.4Z"/><path class="cls-11" d="M127.93,84.48a9,9,0,0,0,1,7.82,8.86,8.86,0,0,0-.95-8.28.59.59,0,0,0-.16.71"/><ellipse class="cls-20" cx="89.5" cy="90" rx="3.5" ry="6"/><ellipse class="cls-20" cx="128.5" cy="90" rx="3.5" ry="6"/><path class="cls-4" d="M89.44,56.32c-7.82-6.89-21-20.68-23.46-20.69s-3.07,24.86-.8,37.11a5.2,5.2,0,0,0,1.14,2.81,5,5,0,0,0,3.53,1.08,30.08,30.08,0,0,0,21-8.11,8.49,8.49,0,0,0,2.64-3.86C94.28,61.5,89.44,56.32,89.44,56.32Z"/><path class="cls-15" d="M90.24,55.53c-5.17-4.61-10-9.53-15.12-14.24-1.84-1.71-5.94-6.74-8.84-6.74-5.28,0-3.68,19.1-3.61,22,.12,5.45-.32,12.79,1.79,18s10,3.23,14.05,2.11C83.9,75.17,91.34,71.7,94,66.4c2-4-1.11-8-3.72-10.87-1-1.08-2.56.52-1.59,1.59a19.08,19.08,0,0,1,2.44,3.22c2.37,4.1-.94,7.72-4.41,10.09a29.12,29.12,0,0,1-8,3.84c-2.2.67-6.56,2.1-8.8,1.23-5.22-2-4.53-9.75-4.77-14.37q-.33-6.37-.14-12.75c.11-3.44.57-6.75.94-10.16a3.16,3.16,0,0,1,.3-1.09c.63-.89-.82-.32.33-.11s2.36,1.72,3.22,2.45C76.31,45,82.21,51.38,88.65,57.12,89.73,58.08,91.32,56.49,90.24,55.53Z"/><path class="cls-4" d="M121.5,64.5c7-8,22.83-32.2,25.9-31.84,6,.69,10.71,31.81,3.1,41.84-1.13,1.49-.07-.3-1.41.12a36.8,36.8,0,0,1-12.4,1.64c-4.92-.18-10.31-1.64-12.92-5.28Z"/><path class="cls-15" d="M122.3,65.3c4.6-5.35,8.62-11.2,12.8-16.87,2.38-3.22,4.75-6.45,7.29-9.54.84-1,3.56-5.22,5.17-5,1.92.23,3.2,5.48,3.58,6.81a56.36,56.36,0,0,1,2,11.1c.57,6.95,1,16.87-3.89,22.52h1.59l-.1-.23a1.1,1.1,0,0,0-1-.55c-3.09-.06-6.26,1.4-9.41,1.59-4,.24-8.2,0-11.8-1.82-4.14-2.07-4.52-5.08-5.93-9.08-.47-1.36-2.65-.77-2.16.6,1.61,4.61,2.3,8.21,7,10.53A23.86,23.86,0,0,0,137.6,77.4c1.24,0,11.46-1.66,11.6-1.52a1.12,1.12,0,0,0,1.59,0c5.35-6.18,5.18-16.49,4.55-24.11-.45-5.38-1-15.93-6.06-19.45-4.14-2.9-8.71,5.21-10.7,7.77-6.05,7.79-11.44,16.14-17.88,23.61C119.76,64.8,121.35,66.4,122.3,65.3Z"/><path class="cls-21" d="M121.77,129.57c2.65,3.25,4.85,7.2,4.63,11.38a2.45,2.45,0,0,1-.44,1.46,1.86,1.86,0,0,1-2.33.23,5.31,5.31,0,0,1-1.69-1.86c-3-4.68-5.87-9.5-8.5-14.42-1.64-3.09.81-2.63,2.85-1.58A18.23,18.23,0,0,1,121.77,129.57Z"/><path class="cls-21" d="M95.45,135.71a8.5,8.5,0,0,0,.28,4.72,2.4,2.4,0,0,0,.92,1.18A2.12,2.12,0,0,0,99.2,141a6.38,6.38,0,0,0,1.08-2.63,133,133,0,0,1,5.08-15.13C100,124.34,96.3,130.86,95.45,135.71Z"/><path class="cls-8" d="M142.72,45.41c.24-.3.65-.62,1-.4a.82.82,0,0,1,.23.65,25,25,0,0,1-1.43,9.24,4.72,4.72,0,0,1,3.73-1.8c-.77,1.92-1.58,3.84-2.42,5.73,1.24.3,2.78,0,3.61.91a2.1,2.1,0,0,1,.2,2.15,5.21,5.21,0,0,1-1.4,1.77c-3.19,2.92-7.39,5.09-11.7,4.68A3.42,3.42,0,0,1,131.37,64c.21-1,1.26-1.75,1.87-2.54a31.24,31.24,0,0,0,2-3.05C137.82,54.08,139.56,49.31,142.72,45.41Z"/><path class="cls-8" d="M71.19,48.06c-.79,1.26-.13,2.92.75,4.12s2,2.35,2.15,3.82c-1.35-.47-3.12-.85-4,.27s-.29,2.57.63,3.48,2.15,1.47,3.06,2.39c-1.15-.12-2,1.26-1.74,2.38a3.82,3.82,0,0,0,2.35,2.36,15.5,15.5,0,0,0,4.92,1A6.22,6.22,0,0,0,83,67.5C87.83,64.73,73.47,50.55,71.19,48.06Z"/><path class="cls-7" d="M74,74.5c19,6.45,40.12.86,60.3,2.32,6.35.46,13.21,1.54,18.71-1.49-12.2-3.34-22.13-13.17-25-24.8-11.51,1.55-27.19,3.43-38.42,0C92.71,52.46,76.75,75.44,74,74.5Z"/><path class="cls-22" d="M41.86,79.53C46,82.05,50.5,83.22,55,84.16c35,7.36,96.38,1.66,106.19-.25S189,65,186,64s-9.37,5.74-14.52,6.51c-34.91,5.18-70.42-4.8-105.24,1.35-5.66,1-11.34,2.42-17,2-6.25-.44-12.13-3.54-18.29-4.36C30.81,72.77,39.71,78.22,41.86,79.53Z"/><path class="cls-23" d="M89.54,52C87.41,60,84,66,78,70"/><path class="cls-23" d="M128,52c1.78,5.53,10,18,16,20"/><path class="cls-24" d="M40.67,258.67c1.88,1.68,2.37,2.67,4.89,2.74a5.13,5.13,0,0,0,4-1.38c1-1.1.92-3.13-.38-3.82-1.91,2-.89,5.4,1,7.38a11.51,11.51,0,0,0,13.12,2.21c2.75-1.4,5-4.85,3.39-7.51-2,.91-1.57,4-.3,5.86a14.16,14.16,0,0,0,16.08,5.09c3.44-1.28,6.57-4.77,5.59-8.31-1.35-.22-2.18,1.49-2.19,2.86-.05,4.07,3,7.82,6.87,9.11A13.45,13.45,0,0,0,104.42,271c2.27-1.55,4.1-5.09,1.94-6.8a4.25,4.25,0,0,0-1.75,4.59,7.65,7.65,0,0,0,3,4.21c2.93,2.24,7.07,3.11,10.41,1.53s5.33-5.87,3.79-9.22c-2.14,1.77-2,5.37-.16,7.49s4.72,3,7.5,3.1,5.92-.46,8-2.43,2.77-5.56.91-7.74c-2,2.08-1.2,5.76,1,7.6s5.3,2.17,8.15,1.87a14.11,14.11,0,0,0,8.84-3.9c2.26-2.39,3.2-6.18,1.67-9.09-2.66,1.06-3.09,5.05-1.27,7.27s5,2.87,7.83,2.62a11,11,0,0,0,7.67-3.65c1.82-2.26,2.21-5.79.39-8.06-2.37.75-2.61,4.37-.9,6.17s4.44,2.15,6.92,2.11"/><path class="cls-25" d="M53.64,73.39a24.19,24.19,0,0,0,9.91,3.5c2.86.34,6.59-.5,7-3.35-2.46.78-2.48,4.65-.51,6.31s4.84,1.63,7.38,1.22a35,35,0,0,0,7.45-2c1.35-.54,2.93-1.91,2.15-3.14s-3.13.09-3.15,1.69c0,2.1,2,3.81,4,4.11a10.47,10.47,0,0,0,6-1.39,7.2,7.2,0,0,0,3-2.35,2.92,2.92,0,0,0-.16-3.6c-1.71,1.07-1.75,3.76-.48,5.33a7.51,7.51,0,0,0,5.4,2.34,15.86,15.86,0,0,0,9.85-2.63,4.57,4.57,0,0,0,2-2.36,1.94,1.94,0,0,0-1.35-2.46,3.26,3.26,0,0,0,.44,4,7,7,0,0,0,3.91,1.88,17.38,17.38,0,0,0,10.59-1.28,4.11,4.11,0,0,0,2.59-2.54c.27-1.23-1.12-2.67-2.18-2-.16,2,2.15,3.33,4.16,3.73a18,18,0,0,0,13.38-2.66,3.44,3.44,0,0,0-3.6-1.69c-.07,2.78,3.29,4.34,6.08,4.4a16.09,16.09,0,0,0,12.62-5.83"/><path class="cls-6" d="M140,179c3.32,16.26,3.56,30.16,1.48,46.7-.21,1.68-.43,3.53.35,5,1.6-2,2.71-1.61,3.16-4.31.15,2.53.31,2.12.47,4.64a8.08,8.08,0,0,0,3.07-4.06c0,1.87.82,4.48,2.34,3.92.64-.24.9-1.07,1.3-1.73C159,218,155,181,151,173"/><path class="cls-8" d="M151.59,199.05a1.71,1.71,0,0,1-2.3,1.29,3.37,3.37,0,0,1-1.79-2.21,6,6,0,0,1-4.92,3,153.72,153.72,0,0,1-1.1,24.56c-.21,1.68-.43,3.53.35,5,1.6-2,2.71-1.61,3.16-4.31.15,2.53.31,2.12.47,4.64a8.08,8.08,0,0,0,3.07-4.06c0,1.87.82,4.48,2.34,3.92a2.81,2.81,0,0,0,1.3-1.73c3.52-8.75,3.93-18.56,3.05-28.3A3.62,3.62,0,0,1,151.59,199.05Z"/><path class="cls-23" d="M138.65,180c4.49-3,9-6.91,14.37-6.94"/><line class="cls-26" x1="50.21" y1="143.05" x2="27" y2="192"/><path class="cls-27" d="M58,125l.91,9.5a1,1,0,0,0,.53.8L67.81,140a1,1,0,0,1-.09,1.86L59,145.63a1.06,1.06,0,0,0-.6.75l-1.82,9.37a1,1,0,0,1-1.79.48l-6.33-7.14a1,1,0,0,0-.9-.34l-9.47,1.15a1,1,0,0,1-1-1.55l4.84-8.22a1,1,0,0,0,0-1l-4-8.65a1,1,0,0,1,1.16-1.44l9.31,2.06a1,1,0,0,0,.93-.25l7-6.5A1,1,0,0,1,58,125Z"/><path class="cls-28" d="M110.6,95.27a1.47,1.47,0,0,0-2-.79A3.45,3.45,0,0,0,107,96.2a3.59,3.59,0,0,0-2.88-1.58,7.08,7.08,0,0,0,3.41,4.78L110,96.94A2,2,0,0,0,110.6,95.27Z"/><circle class="cls-27" cx="108.5" cy="127.5" r="7.5"/><circle cx="109.75" cy="130" r="1.87"/><path class="cls-29" d="M109.75,128.75s.31,4.38-3.28,5.63"/><path class="cls-9" d="M140,179c3.32,16.26,3.56,30.16,1.48,46.7-.21,1.68-.43,3.53.35,5,1.6-2,2.71-1.61,3.16-4.31.15,2.53.31,2.12.47,4.64a8.08,8.08,0,0,0,3.07-4.06c0,1.87.82,4.48,2.34,3.92.64-.24.9-1.07,1.3-1.73C159,218,155,181,151,173"/><polygon class="cls-30" points="58.79 131.07 60.73 125.66 56.28 122.43 61.83 121.17 62.6 115.52 66.21 119.67 71.42 117.25 69.48 122.66 73.93 125.89 68.38 127.15 67.61 132.8 64.01 128.65 58.79 131.07"/><polygon class="cls-30" points="28.68 147.12 30.74 136.42 21.49 131.73 31.5 127.7 31.29 116.92 39.22 123.6 48.26 117.51 46.2 128.21 55.44 132.9 45.44 136.93 45.65 147.71 37.71 141.03 28.68 147.12"/><polygon class="cls-30" points="16.81 120.86 18.13 117.18 15.1 114.98 18.88 114.12 19.4 110.28 21.85 113.11 25.41 111.46 24.08 115.14 27.11 117.33 23.33 118.19 22.81 122.04 20.36 119.21 16.81 120.86"/></svg>