<svg id="Layer_1" data-name="Layer 1" xmlns="http://www.w3.org/2000/svg" xmlns:xlink="http://www.w3.org/1999/xlink" viewBox="0 0 252 366"><defs><style>.cls-1,.cls-19,.cls-4{fill:#ffb600;}.cls-1,.cls-2,.cls-29,.cls-36,.cls-37{opacity:0.3;}.cls-2{fill:#ffe000;}.cls-15,.cls-16,.cls-17,.cls-18,.cls-21,.cls-23,.cls-3,.cls-43{fill:none;}.cls-20,.cls-23,.cls-25,.cls-3,.cls-30,.cls-38,.cls-41{stroke:#0a0025;}.cls-25,.cls-3,.cls-30,.cls-38,.cls-43{stroke-linecap:round;}.cls-16,.cls-17,.cls-18,.cls-25,.cls-27,.cls-3,.cls-31,.cls-33,.cls-35,.cls-38,.cls-41,.cls-44,.cls-45,.cls-5,.cls-7,.cls-9{stroke-miterlimit:10;}.cls-20,.cls-21,.cls-23,.cls-24,.cls-25,.cls-27,.cls-3,.cls-30,.cls-31,.cls-33,.cls-35,.cls-38,.cls-43,.cls-7{stroke-width:2px;}.cls-4{opacity:0.2;}.cls-14,.cls-5{fill:#f3efda;}.cls-18,.cls-21,.cls-24,.cls-27,.cls-31,.cls-33,.cls-35,.cls-43,.cls-44,.cls-45,.cls-5,.cls-7{stroke:#000;}.cls-5{stroke-width:3px;}.cls-6{fill:#482e1f;}.cls-7{fill:#281f5b;}.cls-17,.cls-8{opacity:0.5;}.cls-9{fill:#dea227;stroke-width:0.5px;}.cls-16,.cls-17,.cls-9{stroke:#dea227;}.cls-10{fill:#5d401b;}.cls-11{fill:#653d2e;}.cls-12{fill:#473e85;}.cls-13{fill:#47271c;}.cls-16{stroke-width:0.83px;}.cls-16,.cls-19{opacity:0.75;}.cls-17{stroke-width:0.42px;}.cls-18,.cls-44{stroke-width:1.5px;}.cls-20,.cls-26,.cls-30{fill:#9298a8;}.cls-20,.cls-21,.cls-23,.cls-24,.cls-30,.cls-43{stroke-linejoin:round;}.cls-22,.cls-24,.cls-25{fill:#f2f1e9;}.cls-27{fill:#a50057;}.cls-28{fill:url(#linear-gradient);}.cls-29,.cls-32,.cls-44{fill:#ffcd46;}.cls-31{fill:url(#linear-gradient-2);}.cls-32{opacity:0.4;}.cls-33,.cls-45{fill:#66004c;}.cls-34{fill:#0a0025;}.cls-35{fill:url(#linear-gradient-3);}.cls-36{fill:url(#radial-gradient);}.cls-37{fill:url(#radial-gradient-2);}.cls-38{fill:#ffec82;}.cls-39{fill:#f7ba00;}.cls-40{fill:#000821;}.cls-41{fill:#9e5e81;}.cls-42{fill:url(#linear-gradient-4);}</style><linearGradient id="linear-gradient" x1="114.5" y1="91" x2="114.5" y2="284.22" gradientUnits="userSpaceOnUse"><stop offset="0" stop-color="#66004c"/><stop offset="0.07" stop-color="#6c004d"/><stop offset="0.45" stop-color="#8b0053"/><stop offset="0.77" stop-color="#9e0056"/><stop offset="1" stop-color="#a50057"/></linearGradient><linearGradient id="linear-gradient-2" x1="89.49" y1="134.9" x2="89.49" y2="214.73" xlink:href="#linear-gradient"/><linearGradient id="linear-gradient-3" x1="93.69" y1="87.1" x2="93.69" y2="6.25" xlink:href="#linear-gradient"/><radialGradient id="radial-gradient" cx="85.82" cy="102.98" r="9.95" gradientTransform="translate(22.21) scale(0.89 1)" gradientUnits="userSpaceOnUse"><stop offset="0" stop-color="#ff456d"/><stop offset="0.22" stop-color="#ff527c" stop-opacity="0.76"/><stop offset="0.6" stop-color="#ff6896" stop-opacity="0.36"/><stop offset="0.87" stop-color="#ff76a6" stop-opacity="0.1"/><stop offset="1" stop-color="#ff7bac" stop-opacity="0"/></radialGradient><radialGradient id="radial-gradient-2" cx="135" cy="100.98" r="9.95" xlink:href="#radial-gradient"/><linearGradient id="linear-gradient-4" x1="117.51" y1="77.2" x2="117.51" y2="42.1" gradientUnits="userSpaceOnUse"><stop offset="0" stop-color="#66004c"/><stop offset="0.58" stop-color="#840051"/><stop offset="1" stop-color="#950054"/></linearGradient></defs><title>level2</title><polygon class="cls-1" points="113.28 272.39 144.96 298.36 223 295.3 176.63 318.2 223 341.1 144.96 338.03 113.28 364 81.61 338.03 3.56 341.1 49.94 318.2 3.56 295.3 81.61 298.36 113.28 272.39"/><polygon class="cls-2" points="9.64 318.2 68.4 308.83 61.46 285.75 113.28 299.46 165.1 285.75 158.16 308.83 216.93 318.2 158.16 327.56 165.1 350.65 113.28 336.93 61.46 350.65 68.4 327.56 9.64 318.2"/><path class="cls-3" d="M146.7,95.75a152.92,152.92,0,0,1,29.61-3.65,7.06,7.06,0,0,1,2.51.24"/><polygon class="cls-4" points="183.53 138.72 199.83 123.08 189.79 104.28 211.53 109.25 224.08 90.8 229.53 111.4 252.11 111.75 235.81 127.39 245.85 146.19 224.1 141.22 211.56 159.67 206.11 139.07 183.53 138.72"/><path class="cls-5" d="M245.91,127.53v-.08h0s-29.56-22.55-30.68-22.66-25.54,7.53-25.54,7.53a11.69,11.69,0,0,0-.88,4,8.76,8.76,0,0,0,0,2.65,16,16,0,0,0,1.87,1.95h0l.11.1h0l2,1.9h0l.08.07h0c5.54,5.18,15.43,14.09,21.3,19.37l0,0c.64.57,1.22,1.09,1.74,1.57h0l3,2.66h0s.1,0,.21,0,.1,0,.1,0c2.78-.75,23.42-10.41,25.93-12.06a.65.65,0,0,0,.22-.71v0l0-.05a.61.61,0,0,0-.62-.49l.56-4.64h.15a.36.36,0,0,0,.23-.06.42.42,0,0,0,.08-.12l.11-.28h0V128A.67.67,0,0,0,245.91,127.53Z"/><path class="cls-6" d="M189.7,112.32a13.4,13.4,0,0,0-.84,6.08c.35,1,30.06,28.17,30.06,28.17l.81-8.07S190.27,111.56,189.7,112.32Z"/><path class="cls-7" d="M189.7,112.32c-.57.76-1.24,5.57-.89,6.61s30.11,27.64,30.11,27.64l.81-8.07S190.27,111.56,189.7,112.32Z"/><g class="cls-8"><path class="cls-9" d="M193.88,115.46l-.07-.06a9.5,9.5,0,0,0-.65,1.88,17.81,17.81,0,0,0-.31,3.78c0,.6,0,1.21-.06,1.82l.08.07c0-.63,0-1.26.06-1.89a18.31,18.31,0,0,1,.32-3.76A9.08,9.08,0,0,1,193.88,115.46Z"/><path class="cls-9" d="M190.87,118a27.48,27.48,0,0,1,1-4.21l-.07-.06a26.87,26.87,0,0,0-1,4.25,9.74,9.74,0,0,0-.11,2.87l.11.1A9.33,9.33,0,0,1,190.87,118Z"/></g><g class="cls-8"><path class="cls-9" d="M216.26,135.34l-.07-.06a10.8,10.8,0,0,0-2,7l.1.08A10.66,10.66,0,0,1,216.26,135.34Z"/><path class="cls-9" d="M218,136.91l-.07-.06a11.56,11.56,0,0,0-2,7.06l.1.08A11.41,11.41,0,0,1,218,136.91Z"/></g><path class="cls-10" d="M218,141.83a6,6,0,0,0-.33,2.71,2.62,2.62,0,0,0,1.58,2.08,30.42,30.42,0,0,1,.16-6.11,4,4,0,0,1,.73-2C219,138.24,218.22,141,218,141.83Z"/><path class="cls-11" d="M245.76,128.37a.42.42,0,0,1-.08.12.36.36,0,0,1-.23.06l-.81,0a.17.17,0,0,1-.22-.22.94.94,0,0,1,.46-.58c.22-.15.65-.42.93-.35S245.87,128.11,245.76,128.37Z"/><path class="cls-12" d="M219.71,138.67l26.21-11.22s-29.56-22.55-30.68-22.66-25.54,7.53-25.54,7.53Z"/><path class="cls-13" d="M245.39,133.74a.35.35,0,0,0,0-.08c-.21-.27-.84.57-1.14.73a1.3,1.3,0,0,1-1.62-.64,2.65,2.65,0,0,1-.19-1.37,4.3,4.3,0,0,1,.79-2.25,4.7,4.7,0,0,1,.73-.75,6.8,6.8,0,0,1,2-1.3c0-.39,0-.63,0-.63l-26.19,11s-1.28,7.63-.81,8.07,23.58-10.34,26.24-12.09c.51-.34.16-1.41-.46-1.28a.8.8,0,0,0-.43.34,3.06,3.06,0,0,0-.6,1c0,.09,0,.21,0,.27a.19.19,0,0,0,.15,0,2.14,2.14,0,0,0,1.18-.44"/><path class="cls-14" d="M220,139.28c-.52.55-1.16,6.4-.62,6.15l25.21-11.34.71-5.88S220.56,138.74,220,139.28Z"/><path class="cls-15" d="M190.83,112.59a14.72,14.72,0,0,0-.82,8.84"/><polygon class="cls-16" points="192.15 112.72 220.23 137.42 243.9 127.13 214.9 105.82 192.15 112.72"/><polygon class="cls-17" points="194.96 113 220.61 134.9 241.38 126.86 214.52 106.97 194.96 113"/><path class="cls-18" d="M189.5,111.5l30,27a8.22,8.22,0,0,0,0,9"/><line class="cls-18" x1="219" y1="139" x2="247" y2="127"/><polygon class="cls-19" points="216.81 125.87 215.32 121.9 208.57 119.45 213.55 118.59 210.68 114.43 217.15 117.55 221.03 115.82 222.52 119.8 229.27 122.24 224.29 123.1 227.16 127.26 220.69 124.15 216.81 125.87"/><path class="cls-3" d="M143.51,104q17.6,4.23,35,9.38"/><path class="cls-20" d="M74.62,260.12c-1.57,8.21-5,16.41-11.49,21.73s-16.3,7-23.3,2.47c-5.62-3.66-8.34-10.3-11.55-16.19a75.72,75.72,0,0,0-5.7-8.92c-2.32-3.14-5.14-6.26-8.92-7.23s-8.58,1.29-8.89,5.19c-.17,2.26,1.17,4.4,2.85,5.93s3.7,2.63,5.5,4c8.33,6.46,10.64,17.33,18.35,24.51a23.49,23.49,0,0,0,17.68,6.15c6.37-.52,16.11-3.62,21.35-7.28,13.77-9.61,19.29-24.63,23-41"/><path class="cls-21" d="M146.46,149c2.55,1.77,5.87,5.14,9,6s8,1.88,11.15.91a22.72,22.72,0,0,0,8.32-4.72c3.79-3.33,6.35-7.5,9.38-11.34A14.68,14.68,0,0,1,190,135a8.11,8.11,0,0,1-1.41,6.07,11.86,11.86,0,0,1,2.65-2.59,1.34,1.34,0,0,1,.95-.34c.59.1.71.76.66,1.26a8.89,8.89,0,0,1-1.74,4.32l2.6-2.14a2,2,0,0,1,1.19-.56c1,0,1.24,1.15,1.09,2-.58,3.35-2.71,6.34-5,9.11-5.23,6.32-11.9,12.23-20.53,14.65-6.64,1.87-20,.26-25-5.74"/><path class="cls-22" d="M28.28,268.13a75.72,75.72,0,0,0-5.7-8.92c-2.32-3.14-5.14-6.26-8.92-7.23s-8.58,1.29-8.89,5.19c-.17,2.26,1.17,4.4,2.85,5.93s3.7,2.63,5.5,4a30.77,30.77,0,0,1,7.3,8.8,30.69,30.69,0,0,0,.16-4.39c1.37,1.76,2.67,2.55,4.55,1.51.87-1-.18-3.56-.18-3.56s1.21,1.82,2.26,1.83A2.42,2.42,0,0,0,29.29,270C29,269.39,28.62,268.75,28.28,268.13Z"/><path class="cls-23" d="M74.62,260.12c-1.57,8.21-5,16.41-11.49,21.73s-16.3,7-23.3,2.47c-5.62-3.66-8.34-10.3-11.55-16.19a75.72,75.72,0,0,0-5.7-8.92c-2.32-3.14-5.14-6.26-8.92-7.23s-8.58,1.29-8.89,5.19c-.17,2.26,1.17,4.4,2.85,5.93s3.7,2.63,5.5,4c8.33,6.46,10.64,17.33,18.35,24.51a23.49,23.49,0,0,0,17.68,6.15c6.37-.52,16.11-3.62,21.35-7.28,13.77-9.61,19.29-24.63,23-41"/><path class="cls-20" d="M146.89,310.12a5.85,5.85,0,0,1,7.57,4.33,1.61,1.61,0,0,1-.07.95c-.28.56-1,.67-1.66.69A48,48,0,0,1,140.78,315c-.35-.08-.74-.2-.88-.52s.18-.87.53-1.18a13.59,13.59,0,0,1,8.09-3.28l-5.32.41"/><path class="cls-20" d="M136.3,309.65c4.86.32,16-2.15,14.88,7,0,0-17.48-.6-25.77-1.6a80.54,80.54,0,0,0-.47-15q-1.69-18.34-3.4-36.67c-.17-1.85,15.42-1,16.9-.59,5.29,1.34,2.9,5.77,2.81,10.45A161.15,161.15,0,0,1,136.3,309.65Z"/><path class="cls-24" d="M105.52,311.89a5.87,5.87,0,0,1,7.71,4.11,1.51,1.51,0,0,1,0,.94c-.26.58-1,.7-1.63.75a48.1,48.1,0,0,1-12-.75,1.18,1.18,0,0,1-.9-.5c-.19-.42.16-.88.5-1.19a13.53,13.53,0,0,1,8-3.52l-5.31.57"/><path class="cls-25" d="M95,310.69c4.83.64,16.12-1.08,14.39,8,0,0-17.41-1.75-25.61-3.3a80.39,80.39,0,0,0,.52-15q-.48-18.4-1-36.82c0-1.85,15.46.06,16.91.53,5.19,1.69,2.51,5.95,2.1,10.62A160.52,160.52,0,0,1,95,310.69Z"/><path class="cls-26" d="M98.29,299a9.94,9.94,0,0,1-3.86-2.31c-.62,2.52-4.9,2.8-5.85.39a3.93,3.93,0,0,1-4.34,1.72l-.93-35.25c0-1.85,15.46.06,16.91.53,5.19,1.69,2.51,5.95,2.1,10.62A159.8,159.8,0,0,1,98.29,299Z"/><path class="cls-3" d="M95,310.69c4.83.64,16.12-1.08,14.39,8,0,0-17.41-1.75-25.61-3.3a80.39,80.39,0,0,0,.52-15q-.48-18.4-1-36.82c0-1.85,15.46.06,16.91.53,5.19,1.69,2.51,5.95,2.1,10.62A160.52,160.52,0,0,1,95,310.69Z"/><path class="cls-27" d="M157.38,148.82c1.17,0,2.44-.32,3.44.3s1.39,2,2.39,2.67,2.67.36,3.95-.13a42.86,42.86,0,0,0,13.91-8.75,153.63,153.63,0,0,0,4.78,43.65c.42,1.61.82,3.47-.14,4.83-.82,1.16-2.34,1.54-3.73,1.83-3.87.81-7.86,1.63-11.75.92A23.57,23.57,0,0,1,162.5,191a52.53,52.53,0,0,1-25.37-43.83c0-2.07.12-4.27,1.31-6C142.61,135.22,151.41,149.1,157.38,148.82Z"/><path class="cls-28" d="M124.5,95.5c23,41,60.73,158.94,62,173-41,27-46.35,9.87-74,15-4.84.9-15.16-1.84-20.08-1.6-16,.75-35.92-.4-49.92-12.4.88-16.95,37.18-134.62,58-173,.78-1.43,4-2.56,5.24-2.89a81.65,81.65,0,0,1,26.93-2.35"/><path d="M123.53,96.07c8.27,14.83,14.66,30.74,20.85,46.52,7.5,19.13,14.4,38.49,21,58,5.45,16.21,10.71,32.5,15.4,48.95,1.41,4.93,2.81,9.88,3.9,14.89a10,10,0,0,1,.49,2.39c0,.3.23.68.16,1-.3,1.37.75-1.22-1,.85-1.92,2.28-6.47,4-9.08,5.46a96.73,96.73,0,0,1-10,4.89,51.3,51.3,0,0,1-23.07,4c-6.82-.45-13.53-1.8-20.41-1.59-3.74.12-7.4,1-11.12,1.18-5.44.22-10.8-1.47-16.22-1.75-12.66-.65-24.66.45-36.91-4-3-1.1-12.86-4.74-13.75-8.19-.4-1.53.68-4.38,1-5.89,1.23-6,2.78-12,4.38-17.92,4.66-17.37,9.94-34.58,15.47-51.69C71.4,171.86,78.67,150.73,86.83,130c3.35-8.51,6.84-17,10.77-25.24,2.08-4.36,3.43-8.49,8.44-10,8.47-2.6,17.84-2.92,26.63-2.32,1.44.1,1.43-2.15,0-2.25-9.15-.62-19.21-.28-28,2.63-4.89,1.61-6.17,5-8.28,9.32-4.74,9.74-8.83,19.8-12.75,29.89C73.71,157.54,65,183.59,56.91,209.8c-5.69,18.41-12.21,37.33-15.15,56.44-.66,4.26.67,5,4.54,7.51A57.6,57.6,0,0,0,68.67,282c7.93,1.3,15.76,1.07,23.75,1,6.49,0,13,2.35,19.47,1.69,6.3-.65,12.14-1.36,18.48-.76,5,.47,9.92,1.34,14.93,1.39,15.35.15,29.28-7.73,41.77-15.87a1.1,1.1,0,0,0,.55-1c-.63-6.36-2.77-12.71-4.5-18.83-3.28-11.59-6.89-23.09-10.61-34.55-9.18-28.33-19-56.5-30.33-84.06-5-12.26-10.25-24.54-16.71-36.13-.7-1.26-2.65-.13-1.94,1.14Z"/><path class="cls-29" d="M106.69,163.31l6.87,6.63a1,1,0,0,0,.92.26l9.35-1.89a1,1,0,0,1,1.14,1.46l-4.18,8.58a1,1,0,0,0,0,1l4.69,8.3a1,1,0,0,1-1,1.54L115,187.82a1.07,1.07,0,0,0-.91.33l-6.44,7a1,1,0,0,1-1.78-.52l-1.66-9.39a1.06,1.06,0,0,0-.59-.77L95,180.55a1,1,0,0,1-.06-1.86l8.42-4.48a1,1,0,0,0,.54-.79l1.09-9.48A1,1,0,0,1,106.69,163.31Z"/><path class="cls-30" d="M98.1,171.5a152.26,152.26,0,0,0-2.28,52c.22,1.76.45,3.69-.41,5.18-1.75-2.09-3-1.69-3.46-4.51-.18,2.64-.35,2.21-.53,4.84a8.52,8.52,0,0,1-3.37-4.25c0,2-.92,4.68-2.59,4.08A3,3,0,0,1,84,227c-5.44-13-4-28.19-1.38-42.23q2.13-11.4,5.16-22.56"/><path class="cls-29" d="M148.55,156.75l.26-1.38c-3-8.05-6.1-15.92-9.13-23.38l-8.61-1.91a1,1,0,0,0-1.16,1.44l4,8.65a1,1,0,0,1-.05,1l-4.84,8.22a1,1,0,0,0,1,1.55l9.47-1.15a1,1,0,0,1,.9.34l6.33,7.14A1,1,0,0,0,148.55,156.75Z"/><path class="cls-31" d="M86.55,135.17c-7.21,24.1-18.76,69.68-15.65,73.75s17.52,3.82,21.22,5.08a15.07,15.07,0,0,0,16.49-5.16c-.61-14.84-5.47-52.7-6.2-58.89a69.47,69.47,0,0,1-.1-15"/><path class="cls-27" d="M92.46,133.66a12.66,12.66,0,0,0-3.9-.65c-3.67.17-6.28,3.37-8.36,6.27-1.79-2.16-1.16-5.36.18-7.8s3.31-4.6,4.12-7.25c.41-1.36-.61-6.92-.07-8.23,1.85-4.42,9.07-1.51,13.94-.56s9.41,3.34,14.36,3.68c7.25.5,13.89-3.43,20.6-6.08,2.21-.88,5-1.54,6.79,0,1.42,1.19,1.58,3.21,1.63,5l.28,9.81a15.41,15.41,0,0,1-.8,6.72c-1.38,3.18-4.67,5.14-7.19,7.61-1.65,1.62-5.64,8.56-8.22,8.35-2-.16-7.18-6.36-9.27-7.64C109.24,138.37,100.74,136,92.46,133.66Z"/><path class="cls-32" d="M148.69,246.31l6.87,6.63a1,1,0,0,0,.92.26l9.35-1.89a1,1,0,0,1,1.14,1.46l-4.18,8.58a1,1,0,0,0,0,1l4.69,8.3a1,1,0,0,1-1,1.54L157,270.82a1.07,1.07,0,0,0-.91.33l-6.44,7a1,1,0,0,1-1.78-.52l-1.66-9.39a1.06,1.06,0,0,0-.59-.77L137,263.55a1,1,0,0,1-.06-1.86l8.42-4.48a1,1,0,0,0,.54-.79l1.09-9.48A1,1,0,0,1,148.69,246.31Z"/><path class="cls-29" d="M116.15,211.89l3.42,8.9a1.06,1.06,0,0,0,.73.64l9.27,2.22a1,1,0,0,1,.42,1.81l-7.41,6a1,1,0,0,0-.38.89l.75,9.51a1,1,0,0,1-1.59.95l-8-5.19a1,1,0,0,0-1-.09l-8.81,3.65a1,1,0,0,1-1.4-1.22l2.46-9.22a1,1,0,0,0-.21-.93l-6.2-7.26a1,1,0,0,1,.73-1.7l9.53-.51a1,1,0,0,0,.83-.49l5-8.14A1,1,0,0,1,116.15,211.89Z"/><path class="cls-29" d="M149.06,219.9l9.47-1.15a1,1,0,0,1,.9.34l6.33,7.14a1,1,0,0,0,1.79-.48l1.82-9.37a1,1,0,0,1,.3-.54c-1.9-5.79-3.93-11.84-6-18l-3.31,3.08a1,1,0,0,1-.93.25l-9.31-2.06a1,1,0,0,0-1.16,1.44l4,8.65a1,1,0,0,1-.05,1l-4.84,8.22A1,1,0,0,0,149.06,219.9Z"/><path class="cls-32" d="M50.68,252.26a1,1,0,0,0,1.73.64l6.94-6.55a1.06,1.06,0,0,1,.93-.26l9.33,2a1,1,0,0,0,1.15-1.46L66.67,238a1,1,0,0,1,0-1l4.79-8.25a1,1,0,0,0-1-1.55L61,228.48a1,1,0,0,1-.9-.33l-4.24-4.72c-2.29,7.18-4.36,13.89-6.12,19.89Z"/><path class="cls-32" d="M105.81,274l-8.34-4.63a1,1,0,0,1-.53-.8L96,259a1,1,0,0,0-1.74-.65l-7,6.5a1,1,0,0,1-.93.25l-9.31-2.06a1,1,0,0,0-1.16,1.44l4,8.65a1,1,0,0,1,0,1l-.48.81c4.49.22,8.88.15,13,0,3-.14,7.84.78,12.32,1.35l1-.42A1,1,0,0,0,105.81,274Z"/><path class="cls-29" d="M175.55,161.12,172,157a1,1,0,0,0-1.79.47l-1.91,9.35a1.05,1.05,0,0,1-.61.75l-8.78,3.73a1,1,0,0,0-.1,1.85l8.3,4.7a1,1,0,0,1,.52.81l.83,9.5a1,1,0,0,0,1.73.67l7-6.44a1,1,0,0,1,.93-.24l.71.16A153,153,0,0,1,175.55,161.12Z"/><path class="cls-29" d="M117.27,141.88a1,1,0,0,0,0-.71l-3.27-9a1,1,0,0,1,.15-1l5.9-7.69a1,1,0,0,0-.89-1.64l-10,.19a1.09,1.09,0,0,1-.9-.43l-5.81-7.75a1.1,1.1,0,0,0-1.91.3l-2.9,9.13a1,1,0,0,1-.7.69l-9.5,2.9a1,1,0,0,0-.29,1.83l8.18,5.45a.91.91,0,0,1,.21.18c5.6.27,11,3.59,16.31,5.76A43.62,43.62,0,0,0,117.27,141.88Z"/><path class="cls-33" d="M167.43,55.44c.94,2.75.09,5.82-1.3,8.38-4.78,8.84-15.06,13.09-24.81,15.55a133.25,133.25,0,0,1-33.62,4,51.87,51.87,0,0,1-10.56-1,60.08,60.08,0,0,1-11.21-4c-7.45-3.26-14.85-6.74-22.72-8.79s-16.34-2.62-24,0c-1.45.49-3,1.27-3.46,2.74a4,4,0,0,0,.16,2.35c1.51,4.63,6.5,7,11.09,8.66a113,113,0,0,0,37.21,6.32l-.41,1.75"/><path class="cls-26" d="M153.35,79.69c1.43,5.9.34,12.17-1.63,17.9-.92,2.67-6.85,15.91-15.85,20.91s-28,6.12-39.38-2c-6.9-4.92-15.22-14.3-17-22.8a27.31,27.31,0,0,1,8.43-25.52,30.77,30.77,0,0,1,18.1-7c6.53-.46,13.08.7,19.41,2.43a112.07,112.07,0,0,1,20.16,7.69c3.4,1.7,7,4,8.06,7.71"/><path class="cls-34" d="M152.27,80c2.61,13.13-5.46,31.84-17.87,38-14.1,7-32.42,3.29-43.27-7.56-6.5-6.5-11.72-14.6-10.93-24.14a25.69,25.69,0,0,1,16.52-22c9.17-3.47,19.21-2.12,28.43.39a108.79,108.79,0,0,1,15,5.28c4.66,2,10.51,4.16,12.45,9.33.5,1.34,2.68.76,2.17-.6-2.61-7-10.72-9.63-17.08-12.18-8.59-3.44-17.88-6.23-27.19-6.54-15.66-.51-30.27,8.51-32.39,24.86-1.87,14.5,9.74,29.55,22.57,35.34,11,5,27.68,5.27,37.87-2,11.33-8.12,18.6-25.11,15.9-38.73-.28-1.42-2.45-.82-2.17.6Z"/><path class="cls-22" d="M124.66,88.36s.62-21.11-3.52-2.17C118.12,100,106.22,112,100,118c0,0,4.48,2.4,6.86,3.3,10.62,2.37,22.62.78,29.31-2.8A26.66,26.66,0,0,0,143,113C132.23,106.26,124.66,88.36,124.66,88.36Z"/><path class="cls-34" d="M152.27,80c2.61,13.13-5.46,31.84-17.87,38-14.1,7-32.42,3.29-43.27-7.56-6.5-6.5-11.72-14.6-10.93-24.14a25.69,25.69,0,0,1,16.52-22c9.17-3.47,19.21-2.12,28.43.39a108.79,108.79,0,0,1,15,5.28c4.66,2,10.51,4.16,12.45,9.33.5,1.34,2.68.76,2.17-.6-2.61-7-10.72-9.63-17.08-12.18-8.59-3.44-17.88-6.23-27.19-6.54-15.66-.51-30.27,8.51-32.39,24.86-1.87,14.5,9.74,29.55,22.57,35.34,11,5,27.68,5.27,37.87-2,11.33-8.12,18.6-25.11,15.9-38.73-.28-1.42-2.45-.82-2.17.6Z"/><path class="cls-35" d="M139.18,44.16a36.15,36.15,0,0,0-5.9-11.2c-3.72-4.44-9.23-7.68-14.67-10.68Q108.55,16.73,98.1,11.69c-4.85-2.33-9.91-4.63-15.31-5.26S72.15,6.9,67.06,8c-12.27,7.5-28.45,3.21-27.67,7.6s5.28,7.81,10,10c7.93,3.62,7.84,3.2,16.07,1.49-.59,1.84-1.18,3.8-.44,5.71S70.86,40.67,73,40c-5.32,9.61-7.67,19-6.63,30,.08.85,13.54,5.9,19,8,14.16,5.43,21.53,8,36.63,9,5.91.41,21.29-.14,22-7,.13-1.22,4.45,1,4-.12a24,24,0,0,1-1.28-6A140.42,140.42,0,0,0,144,59.94,149,149,0,0,0,139.18,44.16Z"/><path class="cls-3" d="M46.47,96.55l30.86,2.68"/><path class="cls-3" d="M50.94,114.52a190.73,190.73,0,0,1,31.8-5.83"/><path class="cls-3" d="M127.14,110.41c-2.28-2.35-3.88-8.39-3.88-8.39s-1.45,6.89-4.45,8.8"/><ellipse class="cls-36" cx="99" cy="102.98" rx="10" ry="8.55"/><ellipse class="cls-37" cx="143" cy="100.98" rx="10" ry="8.55"/><path class="cls-38" d="M96.75,95.46c4.75,2.69,7.69,2.46,10.5,1.61C111.16,95.89,113,94,115,88c-5.77-4.62-13.46-5.82-20.84-5.8C86.45,82.23,92,92.78,96.75,95.46Z"/><path class="cls-39" d="M99.64,92c.67,1.73,1.8,3.52,3.65,4.09a6.25,6.25,0,0,0,3.84-.28,6.72,6.72,0,0,0,5.2-6.78,1.74,1.74,0,0,0-.22-1.25,2,2,0,0,0-.81-.54c-2.59-1.15-8.53-3.49-11.33-2.35C97.64,85.82,98.93,90.1,99.64,92Z"/><path class="cls-38" d="M137.3,95.84c2.8.18,6.57-.35,8.66-2.31,2.91-2.72,3.16-6.58,3.33-10.8a27.78,27.78,0,0,0-19.79,2.21C122.79,88.23,133.14,95.58,137.3,95.84Z"/><path class="cls-39" d="M136.32,91.4c1.05,1.4,2.53,2.72,4.29,2.72a5.55,5.55,0,0,0,3.28-1.34,7.51,7.51,0,0,0,2.58-3.1,8,8,0,0,0,.13-4.59,1.78,1.78,0,0,0-.54-1.09,1.82,1.82,0,0,0-.86-.27c-2.56-.32-8.39-.78-10.52,1.06C132.9,86.32,135.19,89.89,136.32,91.4Z"/><ellipse class="cls-40" cx="105.5" cy="90" rx="3.5" ry="6"/><ellipse class="cls-40" cx="141.52" cy="88.09" rx="6" ry="3.5" transform="translate(49.63 227.17) rotate(-88.45)"/><path class="cls-26" d="M98.72,55.18c-8-6.74-21.51-21-23.87-20.22-4.35,1.54-2.58,24.92-.06,37.12A5.19,5.19,0,0,0,76,74.86a4.94,4.94,0,0,0,3.55,1,30.11,30.11,0,0,0,20.83-8.54,8.39,8.39,0,0,0,2.55-3.9C103.66,60.26,98.72,55.18,98.72,55.18Z"/><path class="cls-34" d="M99.52,54.39c-5.15-4.42-10-9.23-15-13.8-2-1.81-6.06-6.64-9.14-6.74-6.68-.23-4.19,19-3.94,22.19.44,5.45.42,12.73,2.62,17.84,2.28,5.28,10.7,3,14.81,1.63C94,73.86,101,70.28,103.44,65.19c1.89-4-1.25-8-3.92-10.8-1-1.06-2.59.54-1.59,1.59a19.23,19.23,0,0,1,2.51,3.17c2.49,4.06-.8,7.78-4.17,10.18-3.72,2.65-11.13,6.51-16,5.4-5.74-1.32-5.5-8.55-6.06-13.38-.5-4.34-.84-8.71-.91-13.08,0-3.27-.24-7.07.81-10.22,1.14-3.44,3.37-.6,5.38,1.08C85.9,44.48,91.62,50.56,97.93,56,99,56.92,100.62,55.33,99.52,54.39Z"/><path class="cls-22" d="M79.68,48.77c-.83,1.37-.08,3.16.9,4.44s2.21,2.5,2.42,4.1c-1.49-.49-3.4-.86-4.36.37s-.25,2.79.76,3.76S81.76,63,82.77,64c-1.25-.12-2.15,1.4-1.83,2.61a4.19,4.19,0,0,0,2.59,2.51,17.27,17.27,0,0,0,5.36,1,6.72,6.72,0,0,0,4-.55C98.07,66.46,82.2,51.41,79.68,48.77Z"/><path class="cls-41" d="M122.58,100.37c1.86-.79,4-2.46,3.92-4.36a3.54,3.54,0,0,0-3,1.25,3.52,3.52,0,0,0-1.4-1.9,1.48,1.48,0,0,0-2,.56,2,2,0,0,0,.41,1.73,10.65,10.65,0,0,0,2.22,2.51"/><path class="cls-26" d="M122.5,64.5c7-8,22.83-32.2,25.9-31.84,6,.69,10.71,31.81,3.1,41.84-1.13,1.49-.07-.3-1.41.12a36.8,36.8,0,0,1-12.4,1.64c-4.92-.18-10.31-1.64-12.92-5.28Z"/><path class="cls-34" d="M123.3,65.3c4.6-5.35,8.62-11.2,12.8-16.87,2.38-3.22,4.75-6.45,7.29-9.54.84-1,3.56-5.22,5.17-5,1.92.23,3.2,5.48,3.58,6.81a56.36,56.36,0,0,1,2,11.1c.57,6.95,1,16.87-3.89,22.52h1.59l-.1-.23a1.1,1.1,0,0,0-1-.55c-3.09-.06-6.26,1.4-9.41,1.59-4,.24-8.2,0-11.8-1.82-4.14-2.07-4.52-5.08-5.93-9.08-.47-1.36-2.65-.77-2.16.6,1.61,4.61,2.3,8.21,7,10.53A23.86,23.86,0,0,0,138.6,77.4c1.24,0,11.46-1.66,11.6-1.52a1.12,1.12,0,0,0,1.59,0c5.35-6.18,5.18-16.49,4.55-24.11-.45-5.38-1-15.93-6.06-19.45-4.14-2.9-8.71,5.21-10.7,7.77-6.05,7.79-11.44,16.14-17.88,23.61C120.76,64.8,122.35,66.4,123.3,65.3Z"/><path class="cls-22" d="M148.87,42.41c.19-.3.5-.62.75-.4a1,1,0,0,1,.18.65,32,32,0,0,1-1.11,9.24,3.43,3.43,0,0,1,2.89-1.8c-.6,1.92-1.22,3.84-1.88,5.73,1,.3,2.16,0,2.8.91a2.63,2.63,0,0,1,.16,2.15,5.38,5.38,0,0,1-1.09,1.77c-2.47,2.92-5.72,5.09-9.06,4.68-1.78-.22-2.81-2.05-2.43-4.38a7.63,7.63,0,0,1,1.45-2.54,31.34,31.34,0,0,0,1.58-3.05C145.08,51.08,146.42,46.31,148.87,42.41Z"/><path class="cls-42" d="M80,75.26c17.84-.23,36,4.38,53.3.14,2.76-.68,5.45-1.57,8.15-2.46,1.85-.61,11.69-7.33,13.54-7.94-2.54,3.22-16-6-18-19-1.48-9.61-44,1-44,5a38.79,38.79,0,0,1-3,14C89.2,66.8,82.26,75.23,80,75.26Z"/><path class="cls-29" d="M99.15,46.89l3.42,8.9a1.06,1.06,0,0,0,.73.64l9.27,2.22a1,1,0,0,1,.42,1.81l-7.41,6a1,1,0,0,0-.38.89l.75,9.51a1,1,0,0,1-1.59.95l-8-5.19a1,1,0,0,0-1-.09l-8.81,3.65c-.79.33-2.62-.39-2.4-1.22,0,0,8.82-14,8.31-19.62a36.1,36.1,0,0,1,4.81-8.63A1,1,0,0,1,99.15,46.89Z"/><path class="cls-29" d="M138.55,77.44l4.94-8.16a1,1,0,0,1,.82-.5l5.9-.34c-1.14-2.57-2.34-5.1-3.62-7.61-1.66-3.25-8.27-6.21-8.27-6.21-.32.13,1.33-2.9,1-3.09l-8-5.14a1,1,0,0,0-1.59,1l.8,9.5a1,1,0,0,1-.37.89l-7.38,6a1,1,0,0,0,.42,1.81l9.29,2.17a1.05,1.05,0,0,1,.73.63l3.47,8.88A1,1,0,0,0,138.55,77.44Z"/><path class="cls-43" d="M93.21,49.67a33.75,33.75,0,0,1-11,25.8"/><path class="cls-27" d="M140.05,85.28a75.65,75.65,0,0,0,18-6.5,58,58,0,0,0,23.05-22.37c1.65-2.91,3.07-6.45,1.73-9.52-1.16-2.66-4.2-4.14-7.1-4.13a15.66,15.66,0,0,0-8.12,2.79c-5.37,3.39-9.65,8.23-14.51,12.33a64.52,64.52,0,0,1-35.29,14.83c-9.43.89-18.88-.31-28.31.15C86.79,73,64,70.08,64,70.08S83.73,82.15,85.64,83C101.67,90,123.2,89.29,140.05,85.28Z"/><path class="cls-44" d="M39.65,15.85l-1.43,4.42a.51.51,0,0,0,.08.46l2.83,3.68a.5.5,0,0,1-.4.81H36.08a.51.51,0,0,0-.41.21L33,29.27a.5.5,0,0,1-.89-.13L30.7,24.73a.5.5,0,0,0-.33-.33l-4.46-1.32a.5.5,0,0,1-.15-.89l3.76-2.73a.5.5,0,0,0,.2-.42l-.12-4.65a.5.5,0,0,1,.8-.42l3.76,2.73a.53.53,0,0,0,.47.07L39,15.22A.5.5,0,0,1,39.65,15.85Z"/><path class="cls-45" d="M128.5,273.5c-20,3-30,2-47.06.08-8.85-1-18-2.13-26.07-6a44,44,0,0,1-10.65-7.43c-.12-.11-.27-.25-.42-.41a63,63,0,0,0-1.8,9.75c14,12,34,13.15,49.92,12.4,4.92-.24,15.24,2.5,20.08,1.6,27.65-5.13,33,12,74-15-.13-1.4-1.62-5.84-2.42-9.12-8.58,7.12-17.72,13.88-28.58,15.12C148.82,275.26,135.15,272.5,128.5,273.5Z"/><path class="cls-29" d="M95.69,187.35l-7.83-5.44a1,1,0,0,1-.45-.85l0-9.54a1,1,0,0,0-1.66-.83l-7.59,5.77a1,1,0,0,1-1,.16l-.6-.2q-2.19,8.81-4,17.67l2,0a1,1,0,0,1,.86.43l5.58,7.74a1,1,0,0,0,1.82-.3l2.76-9.14a1,1,0,0,1,.67-.68l9.09-2.91A1,1,0,0,0,95.69,187.35Z"/><path class="cls-45" d="M185.71,191.39c1-1.36.56-3.22.14-4.83a153.63,153.63,0,0,1-4.78-43.65,42.76,42.76,0,0,1-8.3,6.1c-.05,4.26.75,9,1.09,12.55a137.21,137.21,0,0,0,6.91,31.91l1.21-.25C183.37,192.93,184.89,192.55,185.71,191.39Z"/><path class="cls-45" d="M108.61,208.84c-.08-2-.24-4.42-.46-7.12a19.76,19.76,0,0,1-6.22,4.11c-3.26,1.24-6.85,1.17-10.34,1.09-7.83-.18-14.6-1-20.86-5.7-.49,4.05-.5,6.83.17,7.7C74,213,88.42,212.74,92.12,214A15.07,15.07,0,0,0,108.61,208.84Z"/><path class="cls-29" d="M106.31,73.82,108,77a1,1,0,0,1,0,.87l-3.31,8.47c1.5.35,2.48,0,4,.2l4.76-1.18a1,1,0,0,1,.83.27l1.25,1.28c2.31.13,4.63.16,7,.07l.61-4.22a.93.93,0,0,1,.51-.7l7.7-3.81a.93.93,0,0,0,0-1.67l-7.5-2.71c-1.14.2-2.29-.62-3.43-.49A113.6,113.6,0,0,1,106.31,73.82Z"/><path class="cls-33" d="M99.6,131c7.8,1.56,14.84,5.51,21.47,9.73,1.87,1.2,4,2.48,6.21,2.08,1.82-.33,3.2-1.72,4.43-3q5.4-5.79,10.52-11.81c2.45,2.58,2.27,6.71.56,9.79s-4.63,5.34-7.48,7.52a31.33,31.33,0,0,1-7.81,4.83c-2.9,1.09-13.12-4.41-15.28-6.43-3.3-3.07-8-4.32-12.59-4.77-8.16-.81-12.34,1.9-19.9,4.63C75.3,131.54,92.18,129.49,99.6,131Z"/><path class="cls-29" d="M175,64.11l0-8.38a1,1,0,0,0-1.66-.83l-7.6,5.77a1,1,0,0,1-1,.16l-9.06-3a1,1,0,0,0-1.3,1.32l3.14,9a1,1,0,0,1-.14,1l-5.65,7.69a1,1,0,0,0,.86,1.65l4.19-.09c.4-.2.8-.39,1.18-.59A57.82,57.82,0,0,0,175,64.11Z"/><path class="cls-29" d="M63.36,86.72a1,1,0,0,1,.3-.82l6.1-5.7a1,1,0,0,0-.41-1.63l-8-1.71a.9.9,0,0,1-.64-.55L58,69.56c-.9-.07-1.8-.12-2.69-.13l-3.35,6.38a.85.85,0,0,1-.69.47l-8.11.78a.94.94,0,0,0-.78,1.12c2,2.82,5.47,4.38,8.73,5.45C55.11,85,63.36,86.72,63.36,86.72Z"/><path class="cls-43" d="M135.83,44.46c1.06,5.59,10.62,17.37,10.41,17.27"/><path class="cls-29" d="M120,24.53c-1.91-1.06-3.83-2.09-5.77-3.11l-.15-.05a.91.91,0,0,1-.4-.24c-2.61-1.38-5.23-2.73-7.88-4.05l-1.59,2.29a1,1,0,0,1-.78.4l-8.66,0A.94.94,0,0,0,94,21.24l5.24,6.9a1,1,0,0,1,.14.86l-2.72,8.23a.94.94,0,0,0,1.2,1.18L106,35.56a1,1,0,0,1,.87.13l7,5.13a.94.94,0,0,0,1.5-.78l-.18-8.66a.93.93,0,0,1,.39-.78l6.66-4.79C121.48,25.37,120.72,25,120,24.53Z"/><path class="cls-29" d="M73,23.77a1,1,0,0,1-.35-.89l1-9.48a1,1,0,0,0-1.57-1l-8.15,5a1,1,0,0,1-1,.06l-8.7-3.91a1,1,0,0,0-1.44,1.18L55,24a1,1,0,0,1-.24.93l-1,1.15c4.78,2,5.87,1.46,12.74,0-.59,1.84-1.18,3.8-.44,5.71a17.31,17.31,0,0,0,3,4.09l.63-1.51a1,1,0,0,1,.74-.61l9.34-1.95a1,1,0,0,0,.47-1.8Z"/><path class="cls-44" d="M129.58,149.45l3.38,6.37a.78.78,0,0,0,.6.41l7.17.83a.78.78,0,0,1,.47,1.32l-5,5.19a.74.74,0,0,0-.2.69l1.42,7.08a.78.78,0,0,1-1.11.85L129.81,169a.82.82,0,0,0-.73,0l-6.29,3.54a.78.78,0,0,1-1.15-.79l1-7.14a.78.78,0,0,0-.24-.69l-5.31-4.88a.78.78,0,0,1,.39-1.35l7.11-1.24a.81.81,0,0,0,.58-.45l3-6.55A.78.78,0,0,1,129.58,149.45Z"/><polygon class="cls-4" points="197.79 99.07 199.73 93.66 195.28 90.43 200.83 89.17 201.6 83.52 205.21 87.67 210.43 85.25 208.48 90.66 212.93 93.89 207.38 95.15 206.62 100.8 203.01 96.65 197.79 99.07"/><polygon class="cls-4" points="174.68 151.12 175.94 141.63 166.79 136.79 176.09 133.83 175.17 124.12 183.2 130.65 191.44 125.77 190.18 135.26 199.33 140.1 190.03 143.06 190.94 152.77 182.91 146.24 174.68 151.12"/><polygon class="cls-4" points="227.81 159.86 229.13 156.18 226.1 153.99 229.88 153.12 230.4 149.28 232.85 152.1 236.41 150.46 235.08 154.14 238.11 156.33 234.33 157.19 233.81 161.04 231.36 158.21 227.81 159.86"/></svg>