<svg id="Layer_1" data-name="Layer 1" xmlns="http://www.w3.org/2000/svg" xmlns:xlink="http://www.w3.org/1999/xlink" viewBox="0 0 281 366"><defs><style>.cls-1,.cls-4{fill:#ffb600;}.cls-1,.cls-2,.cls-29,.cls-30,.cls-31,.cls-32{opacity:0.3;}.cls-2,.cls-33{fill:#ffe000;}.cls-26,.cls-3{fill:#a50057;}.cls-10,.cls-18,.cls-19,.cls-20,.cls-27,.cls-3,.cls-34,.cls-6,.cls-9{stroke:#000;}.cls-11,.cls-13,.cls-18,.cls-19,.cls-20,.cls-22,.cls-28,.cls-3,.cls-6{stroke-miterlimit:10;}.cls-10,.cls-11,.cls-13,.cls-18,.cls-20,.cls-22,.cls-27,.cls-3,.cls-34,.cls-5,.cls-8,.cls-9{stroke-width:2px;}.cls-4{opacity:0.2;}.cls-12,.cls-5{fill:#9298a8;}.cls-11,.cls-13,.cls-22,.cls-28,.cls-5,.cls-8{stroke:#0a0025;}.cls-10,.cls-17,.cls-27,.cls-34,.cls-5,.cls-8,.cls-9{stroke-linejoin:round;}.cls-6{fill:url(#linear-gradient);}.cls-11,.cls-7,.cls-9{fill:#f2f1e9;}.cls-13,.cls-17,.cls-18,.cls-27,.cls-8{fill:none;}.cls-10{fill:url(#linear-gradient-2);}.cls-11,.cls-13,.cls-17,.cls-22,.cls-27{stroke-linecap:round;}.cls-14{fill:url(#linear-gradient-3);}.cls-15{opacity:0.6;}.cls-16{fill:#00b6bf;}.cls-16,.cls-25{opacity:0.4;}.cls-17{stroke:#d1004b;}.cls-19{fill:#7f0049;}.cls-20{fill:url(#linear-gradient-4);}.cls-21{fill:#0a0025;}.cls-22{fill:#ffe669;}.cls-23{fill:#f7ba00;}.cls-24{fill:#000821;}.cls-28{fill:#9e5e81;}.cls-29{fill:url(#radial-gradient);}.cls-30{fill:url(#radial-gradient-2);}.cls-31{fill:url(#radial-gradient-3);}.cls-32{fill:url(#radial-gradient-4);}.cls-34{fill:#281f5b;}</style><linearGradient id="linear-gradient" x1="1531.65" y1="1152.49" x2="1531.65" y2="1053.42" gradientTransform="matrix(-0.41, -0.91, -0.91, 0.41, 1717.6, 1117.92)" gradientUnits="userSpaceOnUse"><stop offset="0" stop-color="#006b84"/><stop offset="0.12" stop-color="#0c5979"/><stop offset="0.34" stop-color="#203c66"/><stop offset="0.57" stop-color="#2f2859"/><stop offset="0.79" stop-color="#371b51"/><stop offset="1" stop-color="#3a174e"/></linearGradient><linearGradient id="linear-gradient-2" x1="541.25" y1="14.45" x2="541.25" y2="-95.15" gradientTransform="matrix(-0.5, 0.86, 0.86, 0.5, 495.56, -279.69)" gradientUnits="userSpaceOnUse"><stop offset="0" stop-color="#154e7e"/><stop offset="0.13" stop-color="#184275"/><stop offset="0.43" stop-color="#1e2e66"/><stop offset="0.72" stop-color="#21215d"/><stop offset="1" stop-color="#221d5a"/></linearGradient><linearGradient id="linear-gradient-3" x1="135.81" y1="288.48" x2="135.81" y2="112.35" gradientTransform="matrix(1, 0, 0, 1, 0, 0)" xlink:href="#linear-gradient"/><linearGradient id="linear-gradient-4" x1="125.77" y1="88.53" x2="125.77" y2="170.05" gradientTransform="matrix(1.07, 0.09, -0.08, 1.05, -0.55, -97.75)" gradientUnits="userSpaceOnUse"><stop offset="0" stop-color="#135382"/><stop offset="0.4" stop-color="#1b366c"/><stop offset="0.75" stop-color="#20245f"/><stop offset="1" stop-color="#221d5a"/></linearGradient><radialGradient id="radial-gradient" cx="100.35" cy="104.98" r="9.95" gradientTransform="translate(22.21) scale(0.89 1)" gradientUnits="userSpaceOnUse"><stop offset="0" stop-color="#ff456d"/><stop offset="0.22" stop-color="#ff527c" stop-opacity="0.76"/><stop offset="0.6" stop-color="#ff6896" stop-opacity="0.36"/><stop offset="0.87" stop-color="#ff76a6" stop-opacity="0.1"/><stop offset="1" stop-color="#ff7bac" stop-opacity="0"/></radialGradient><radialGradient id="radial-gradient-2" cx="149.53" cy="104.98" r="9.95" xlink:href="#radial-gradient"/><radialGradient id="radial-gradient-3" cx="53.5" cy="143.5" r="48.5" gradientUnits="userSpaceOnUse"><stop offset="0" stop-color="#ffe000"/><stop offset="0.1" stop-color="#ffe001" stop-opacity="0.94"/><stop offset="0.29" stop-color="#ffdf02" stop-opacity="0.77"/><stop offset="0.56" stop-color="#ffdd05" stop-opacity="0.49"/><stop offset="0.9" stop-color="#ffdc08" stop-opacity="0.12"/><stop offset="1" stop-color="#ffdb09" stop-opacity="0"/></radialGradient><radialGradient id="radial-gradient-4" cx="228.5" xlink:href="#radial-gradient-3"/></defs><title>level4</title><polygon class="cls-1" points="132.28 274.39 163.96 300.36 242 297.3 195.63 320.2 242 343.1 163.96 340.03 132.28 366 100.61 340.03 22.56 343.1 68.94 320.2 22.56 297.3 100.61 300.36 132.28 274.39"/><polygon class="cls-2" points="28.64 320.2 87.4 310.83 80.46 287.75 132.28 301.46 184.1 287.75 177.16 310.83 235.93 320.2 177.16 329.56 184.1 352.65 132.28 338.93 80.46 352.65 87.4 329.56 28.64 320.2"/><path class="cls-3" d="M204.74,222.39C213.8,237,227.43,251,244.62,252c-1.42,4-6.43,5-10.26,6.86-10.07,4.82-14,17.64-23.64,23.32-3.14,1.85-6.69,2.83-10.11,4.11-8.88,3.31-17,8.72-26.36,10.48a21.22,21.22,0,0,1-12.33-.88c-2.45-1.07-27.57-4.47-31.92-5.86-5.23-1.68,1.86-6.76-2.84-9.62a6.58,6.58,0,0,1-4-7.11c.12-26.5,12.88-51.57,14.18-78,.32-6.5,0-13.06,1.07-19.47s4-12.85,9.37-16.52a10.79,10.79,0,0,1,6.64-2.11c11,.74,22.73,15.17,27.32,24.41C188.68,195.39,196.59,209.22,204.74,222.39Z"/><polygon class="cls-4" points="233.79 126.07 235.73 120.66 231.28 117.43 236.83 116.17 237.6 110.52 241.21 114.67 246.43 112.25 244.48 117.66 248.93 120.89 243.38 122.15 242.62 127.8 239.01 123.65 233.79 126.07"/><path class="cls-5" d="M111.76,164.06c-4.15,11.16-12.85,21.31-23.75,26.11-12.3,5.42-26.73,3-38.94-2.63-5.35-2.46-12.88-8-13.74-10.66s3.15-1,4.65,0c-1.59-1.11-2.4-1-3.1-2.79a2.24,2.24,0,0,1-.11-1.06c.3-3.2,5.15-.71,6.55-.17-1.12-.68-4.84-4.27-2.31-5.37s12,7.53,24.35,11c7.38,2.06,15.21.52,22-3.14C93.4,172.05,97.5,166,100.86,160"/><path class="cls-6" d="M113.44,161.22c-5.56,11.33-13.22,21.93-23.58,29.27-14,9.94-24.72,15.17-41.7,13.13,5.43-11.74,2.53-24.94,6.14-37.32.08.94,14.17,2.23,19.92.62,10-2.79,16.42-12.18,23.13-20.1,3.53-4.16,21.27-24.89,25.66-18.43C127.65,135.25,116.48,155,113.44,161.22Z"/><path class="cls-5" d="M123.6,281.73a26.6,26.6,0,0,1-21.4,11.85c-8.23.32-16.48-2.67-24-7s-14.86-10.31-23-12.88a32.55,32.55,0,0,0-20,.29,18.88,18.88,0,0,0-8.63,5.28,13.3,13.3,0,0,0-3.16,10.58c.64,3.91,3.71,7.41,7,7.26a4.2,4.2,0,0,0,3.07-1.48c1.49-1.79,1.46-4.7,2.36-7,1.66-4.25,6.16-5.66,10.17-5.68a28,28,0,0,1,12.43,2.92c4.89,2.41,9.25,6.2,13.94,9.17,11.42,7.24,24.9,10.44,37.17,7.06s26.6-13.4,28.86-29.37c.51-3.65,4.78-15.05,2.4-17.92-3.64-4.4-14.63-5.87-14.19,2.15C127.14,266.41,129,273.49,123.6,281.73Z"/><path class="cls-7" d="M35.17,274a33.88,33.88,0,0,1,9.13-1.67c.63,1.29-.59,3.14-1.79,4.25,2,0,6.09.73,5.68,2s-1.76,2-2.9,2.72c1.54-.89,3.42.28,4.19,1.92a25.17,25.17,0,0,0-3.47-.22c-4,0-8.51,1.43-10.17,5.68-.9,2.3-.87,5.21-2.36,7a4.2,4.2,0,0,1-3.07,1.48c-3.32.15-6.39-3.35-7-7.26a13.3,13.3,0,0,1,3.16-10.58A18.88,18.88,0,0,1,35.17,274Z"/><path class="cls-8" d="M123.6,281.73a26.6,26.6,0,0,1-21.4,11.85c-8.23.32-16.48-2.67-24-7s-14.86-10.31-23-12.88a32.55,32.55,0,0,0-20,.29,18.88,18.88,0,0,0-8.63,5.28,13.3,13.3,0,0,0-3.16,10.58c.64,3.91,3.71,7.41,7,7.26a4.2,4.2,0,0,0,3.07-1.48c1.49-1.79,1.46-4.7,2.36-7,1.66-4.25,6.16-5.66,10.17-5.68a28,28,0,0,1,12.43,2.92c4.89,2.41,9.25,6.2,13.94,9.17,11.42,7.24,24.9,10.44,37.17,7.06s26.6-13.4,28.86-29.37c.51-3.65,4.78-15.05,2.4-17.92-3.64-4.4-14.63-5.87-14.19,2.15C127.14,266.41,129,273.49,123.6,281.73Z"/><path class="cls-9" d="M187.63,164.35c1.82,2.85,8.08,13.73,17.05,15.63s20.19-6.3,24.85-8.89a16.11,16.11,0,0,1,7.73-2.49,8.8,8.8,0,0,1-4,5.51,12.85,12.85,0,0,1,3.75-1.49,1.47,1.47,0,0,1,1.11.07c.54.33.39,1.05.12,1.53a9.63,9.63,0,0,1-3.56,3.61l3.51-1.05a2.2,2.2,0,0,1,1.43-.07c1,.42.77,1.68.28,2.44-2,3.12-5.4,5.23-8.86,7-7.91,4.16-18.45,8.76-28.15,7.56-7.46-.92-18.84-9.63-21.34-17.77"/><path class="cls-10" d="M175.63,187.06C161.42,172.2,154.05,150.8,148,129.47c-.83-2.9,6.05-11.55,8.09-9.83,2.75,2.32,4.41,5.84,6.14,9.19a127.48,127.48,0,0,0,25.74,34.35c3.13,2.94,6.53,5.77,10.76,6.67,7.38,1.56,15.58-3,23-7.31,3.11,4.37,6.28,8.89,7.37,14.58,1.42,7.34-.51,16.69,4.18,21.62C212.42,209,189.84,201.91,175.63,187.06Z"/><path class="cls-5" d="M163.89,312.12a5.85,5.85,0,0,1,7.57,4.33,1.61,1.61,0,0,1-.07.95c-.28.56-1,.67-1.66.69A48,48,0,0,1,157.78,317c-.35-.08-.74-.2-.88-.52s.18-.87.53-1.18a13.59,13.59,0,0,1,8.09-3.28l-5.32.41"/><path class="cls-5" d="M152.81,310.63c4.83.68,16.13-.95,14.33,8.09,0,0-17.4-1.9-25.59-3.52a81.15,81.15,0,0,0,.65-14.95l-.66-36.83c0-1.85,15.45.19,16.9.67,5.17,1.73,2.46,6,2,10.64A160.31,160.31,0,0,1,152.81,310.63Z"/><path class="cls-9" d="M94.8,311.42a5.85,5.85,0,0,0-7.92,3.65,1.54,1.54,0,0,0,0,.95c.23.59,1,.76,1.59.83a47.25,47.25,0,0,0,12-.06c.35-.05.76-.13.92-.44s-.1-.89-.42-1.22a13.58,13.58,0,0,0-7.78-4l5.27.87"/><path class="cls-11" d="M105.4,310.82c-4.86.36-16-2-14.82,7.14,0,0,17.48-.77,25.76-1.84a80.57,80.57,0,0,1,.33-15q1.53-18.34,3.07-36.7c.15-1.85-15.43-.82-16.91-.44-5.28,1.39-2.85,5.8-2.71,10.49A161,161,0,0,0,105.4,310.82Z"/><path class="cls-12" d="M102.76,299a10.19,10.19,0,0,0,4-2.09c.47,2.55,4.73,3.08,5.82.73a3.93,3.93,0,0,0,4.23,2l2.94-35.14c.15-1.85-15.43-.82-16.91-.44-5.28,1.39-2.85,5.8-2.71,10.49A161.3,161.3,0,0,0,102.76,299Z"/><path class="cls-13" d="M105.4,310.82c-4.86.36-16-2-14.82,7.14,0,0,17.48-.77,25.76-1.84a80.57,80.57,0,0,1,.33-15q1.53-18.34,3.07-36.7c.15-1.85-15.43-.82-16.91-.44-5.28,1.39-2.85,5.8-2.71,10.49A161,161,0,0,0,105.4,310.82Z"/><path class="cls-14" d="M149.59,115.23c23.55,40.14,58.82,157.94,58.82,157.94-32.42,18.88-34.7,12-65.84,15.16-5.45.55-33-.67-38.51-.75-17.86-.27-24.83-7.63-40.85-14.31,1.12-38.82,56.48-160.32,57.9-160.55C131,111.11,149.59,115.23,149.59,115.23Z"/><path d="M148.62,115.79C157.47,131,164,147.62,170.31,164c7.4,19.19,14.18,38.62,20.67,58.13q7.22,21.63,13.93,43.41c.38,1.23,3,6.6,2.38,7.81-.44.92,6.09-5.69-1.13-.18a35.64,35.64,0,0,1-4.72,2.64c-2.89,1.56-5.82,3.07-8.81,4.42a64.61,64.61,0,0,1-14.3,4.77c-9,1.73-18.39,1-27.51,1.55-8.85.52-17.42.81-26.3.55-9.32-.27-19.32.21-28.53-1.34-6.42-1.08-12.29-3.69-18-6.63-2.66-1.35-5.31-2.75-8-4.05-1.33-.64-3.41-1.15-4.54-2.09s-.84-.25-1-1.82C64,264.78,66.62,257,68.17,250.9c2.16-8.48,4.76-16.84,7.52-25.14,6.17-18.49,13.22-36.7,20.61-54.74,6.12-15,12.49-29.81,19.24-44.49,1.75-3.81,3.47-7.66,5.43-11.37.92-1.74.54-1.35,2.3-1.57,5.62-.68,11.72.28,17.27,1.13,2.93.44,5.86,1,8.75,1.59,1.41.31,2-1.86.6-2.17a118.66,118.66,0,0,0-21.13-2.87c-3.62-.13-7.52-1-9.49,2.29-4.66,7.76-7.94,16.72-11.59,25-13.31,30.17-25.93,60.83-36,92.24-4.37,13.63-9.09,28.07-9.61,42.49a1.09,1.09,0,0,0,.56,1C73.76,279,84,286.17,96.16,288.05c8.66,1.33,17.85,1,26.59,1.25a255.59,255.59,0,0,0,26-.37c8.93-.63,18-.07,26.89-1.23,12.06-1.58,23-7.55,33.37-13.55a1.16,1.16,0,0,0,.52-1.28c-12.43-41.47-26-82.9-42.38-123-4.91-12-10-24-16.56-35.22A1.12,1.12,0,0,0,148.62,115.79Z"/><g class="cls-15"><path class="cls-16" d="M175,244.49l5.38,6.06a.74.74,0,0,0,.73.25l7.44-1.59a.9.9,0,0,1,.88,1.33L186,258.22a1.06,1.06,0,0,0,0,.87l3.63,7.54a.91.91,0,0,1-.84,1.37l-7.49-1.31a.77.77,0,0,0-.72.28l-5.19,6.26a.8.8,0,0,1-1.41-.49l-1.21-8.49a1,1,0,0,0-.46-.69l-6.85-3.68a1,1,0,0,1,0-1.67l6.74-3.93a1,1,0,0,0,.44-.71l1-8.53A.8.8,0,0,1,175,244.49Z"/><path class="cls-16" d="M163.42,229l.43,4.57a.51.51,0,0,0,.23.39l3.56,2.19a.54.54,0,0,1,0,.9l-3.7,1.87a.5.5,0,0,0-.25.37l-.74,4.52a.43.43,0,0,1-.76.25l-2.71-3.42a.42.42,0,0,0-.38-.16l-4,.6a.49.49,0,0,1-.44-.74l2-4a.57.57,0,0,0,0-.46l-1.75-4.15a.48.48,0,0,1,.49-.7l4,.95a.41.41,0,0,0,.39-.13l2.94-3.17A.43.43,0,0,1,163.42,229Z"/><path class="cls-16" d="M185,210.54l5.11,8.13a.92.92,0,0,0,.8.45l1.62,0,2.73,9.55a1.19,1.19,0,0,0-.14,1l2.87,9.45c.25.85-.46,1.67-1.21,1.38l-8.35-3.16a.83.83,0,0,0-.87.16l-7,6a1,1,0,0,1-1.53-.87l.07-10a1.12,1.12,0,0,0-.4-.89l-7.21-5.74a1.14,1.14,0,0,1,.26-1.92l8.39-3a1,1,0,0,0,.63-.71l2.57-9.56A.91.91,0,0,1,185,210.54Z"/><path class="cls-16" d="M94.39,240.28l1.72,9.08a1,1,0,0,0,.52.72l7.56,3.55a1.07,1.07,0,0,1,.11,1.8l-7.08,4.66a1,1,0,0,0-.44.79l-.64,9.26a.87.87,0,0,1-1.47.67l-6.09-6.2a.78.78,0,0,0-.8-.23l-8,2.17c-.71.2-1.31-.62-1-1.39l3.32-8.49a1.12,1.12,0,0,0,0-.93l-4.28-7.92a1,1,0,0,1,.84-1.52l8.14.95a.83.83,0,0,0,.77-.34l5.3-7.07A.85.85,0,0,1,94.39,240.28Z"/><path class="cls-16" d="M107.92,224.54l2.09,5a.54.54,0,0,0,.39.33l4.83.89a.62.62,0,0,1,.28,1L112,235.62a.64.64,0,0,0-.16.53l.75,5.49c.06.49-.4.86-.78.62l-4.29-2.66a.47.47,0,0,0-.5,0l-4.36,2.51a.55.55,0,0,1-.76-.65l.9-5.46a.69.69,0,0,0-.14-.54l-3.45-3.93a.63.63,0,0,1,.31-1l4.85-.71a.52.52,0,0,0,.4-.32l2.23-4.94A.51.51,0,0,1,107.92,224.54Z"/><path class="cls-16" d="M81,213.58,83.38,216a.33.33,0,0,0,.31.1l3.11-.82a.38.38,0,0,1,.39.54l-1.32,3.31a.45.45,0,0,0,0,.36l1.65,3.11a.39.39,0,0,1-.34.59L84,222.8a.33.33,0,0,0-.3.14l-2.1,2.73a.33.33,0,0,1-.6-.18l-.64-3.55a.39.39,0,0,0-.2-.28l-2.94-1.42a.42.42,0,0,1,0-.7L80,217.75a.4.4,0,0,0,.18-.31l.27-3.61A.34.34,0,0,1,81,213.58Z"/><path class="cls-16" d="M111.42,263.17l7,7.83a1,1,0,0,0,1,.32l9.67-2.15a1.18,1.18,0,0,1,1.16,1.73l-4.38,10a1.35,1.35,0,0,0,0,1.13l2.62,5.35s-20.08.77-20.4.6l-8.94-4.72a1.29,1.29,0,0,1,0-2.17l8.73-5.19a1.24,1.24,0,0,0,.57-.92l1.19-11.11A1,1,0,0,1,111.42,263.17Z"/><path class="cls-16" d="M138.7,243.18,140,249a.64.64,0,0,0,.36.45l4.94,2.08a.69.69,0,0,1,.11,1.16l-4.47,3.19a.65.65,0,0,0-.26.53l-.22,6a.57.57,0,0,1-.94.47l-4-3.84a.54.54,0,0,0-.52-.13l-5.09,1.62c-.45.15-.86-.37-.68-.87l2-5.56a.7.7,0,0,0-.06-.6l-2.92-5a.65.65,0,0,1,.51-1l5.27.4a.56.56,0,0,0,.49-.25l3.27-4.7A.56.56,0,0,1,138.7,243.18Z"/><path class="cls-16" d="M142.89,215.59l1.66,1.7a.23.23,0,0,0,.22.06l2.2-.58a.26.26,0,0,1,.28.38l-.95,2.31a.31.31,0,0,0,0,.25l1.16,2.16a.28.28,0,0,1-.24.42L145,222a.22.22,0,0,0-.21.09L143.28,224a.24.24,0,0,1-.43-.12l-.43-2.48a.26.26,0,0,0-.15-.19l-2.07-1a.29.29,0,0,1,0-.5l2-1.26a.24.24,0,0,0,.12-.21l.21-2.52A.25.25,0,0,1,142.89,215.59Z"/><path class="cls-16" d="M132.05,225.23l1.28,3.18a.35.35,0,0,0,.25.21l3,.6a.4.4,0,0,1,.17.65l-2.26,2.37a.42.42,0,0,0-.11.33l.44,3.45a.35.35,0,0,1-.5.39l-2.68-1.71a.29.29,0,0,0-.31,0l-2.75,1.54a.35.35,0,0,1-.48-.42l.61-3.42a.45.45,0,0,0-.09-.34l-2.14-2.5a.39.39,0,0,1,.2-.64l3-.41a.35.35,0,0,0,.26-.2l1.43-3.08A.32.32,0,0,1,132.05,225.23Z"/><path class="cls-16" d="M163.91,271.65l.2,10.26a1.15,1.15,0,0,0,.45.9l5.52,4.12-22.48.77a5.45,5.45,0,0,0,.12-2.17l-3.2-9.6a1.06,1.06,0,0,1,1.2-1.46l8.65,3a.91.91,0,0,0,.9-.2l7-6.43A1,1,0,0,1,163.91,271.65Z"/><path class="cls-16" d="M66.76,265.53l5.37,6.06a.75.75,0,0,0,.73.25l7.45-1.59c.66-.15,1.19.64.88,1.33l-3.41,7.68a1.06,1.06,0,0,0,0,.87l-11.61-6C66.42,274,66.27,265,66.76,265.53Z"/><path class="cls-16" d="M105.67,208.26l.12,2.52a.3.3,0,0,0,.12.22l1.9,1.31a.29.29,0,0,1,0,.49l-2.08.91a.26.26,0,0,0-.14.19l-.52,2.46a.23.23,0,0,1-.42.11l-1.4-2a.23.23,0,0,0-.21-.1l-2.21.2a.27.27,0,0,1-.22-.42l1.2-2.12a.31.31,0,0,0,0-.25l-.85-2.33c-.08-.21.09-.43.28-.37l2.15.65a.23.23,0,0,0,.22-.06l1.68-1.64A.24.24,0,0,1,105.67,208.26Z"/><path class="cls-16" d="M203.38,268.08l2.1,5a.53.53,0,0,0,.39.34l-7.63,6.11a.65.65,0,0,0-.15-.54l-3.45-3.93a.62.62,0,0,1,.31-1l4.85-.72a.55.55,0,0,0,.4-.33l2.23-4.94A.5.5,0,0,1,203.38,268.08Z"/><path class="cls-16" d="M74,221.88l.08,8.59a1,1,0,0,0,.37.77l6.28,4.8a1,1,0,0,1-.2,1.65l-7.17,2.75a.87.87,0,0,0-.53.63l-2.08,8.27a.78.78,0,0,1-1.44.3l-3.55-5.42S74,221.1,74,221.88Z"/></g><path d="M148.62,115.79C157.47,131,164,147.62,170.31,164c7.4,19.19,14.18,38.62,20.67,58.13q7.22,21.63,13.93,43.41c.38,1.23,3,6.6,2.38,7.81-.44.92,6.09-5.69-1.13-.18a35.64,35.64,0,0,1-4.72,2.64c-2.89,1.56-5.82,3.07-8.81,4.42a64.61,64.61,0,0,1-14.3,4.77c-9,1.73-18.39,1-27.51,1.55-8.85.52-17.42.81-26.3.55-9.32-.27-19.32.21-28.53-1.34-6.42-1.08-12.29-3.69-18-6.63-2.66-1.35-5.31-2.75-8-4.05-1.33-.64-3.41-1.15-4.54-2.09s-.84-.25-1-1.82C64,264.78,66.62,257,68.17,250.9c2.16-8.48,4.76-16.84,7.52-25.14,6.17-18.49,13.22-36.7,20.61-54.74,6.12-15,12.49-29.81,19.24-44.49,1.75-3.81,3.47-7.66,5.43-11.37.92-1.74.54-1.35,2.3-1.57,5.62-.68,11.72.28,17.27,1.13,2.93.44,5.86,1,8.75,1.59,1.41.31,2-1.86.6-2.17a118.66,118.66,0,0,0-21.13-2.87c-3.62-.13-7.52-1-9.49,2.29-4.66,7.76-7.94,16.72-11.59,25-13.31,30.17-25.93,60.83-36,92.24-4.37,13.63-9.09,28.07-9.61,42.49a1.09,1.09,0,0,0,.56,1C73.76,279,84,286.17,96.16,288.05c8.66,1.33,17.85,1,26.59,1.25a255.59,255.59,0,0,0,26-.37c8.93-.63,18-.07,26.89-1.23,12.06-1.58,23-7.55,33.37-13.55a1.16,1.16,0,0,0,.52-1.28c-12.43-41.47-26-82.9-42.38-123-4.91-12-10-24-16.56-35.22A1.12,1.12,0,0,0,148.62,115.79Z"/><path class="cls-3" d="M108.26,133.72a1.76,1.76,0,0,0,.4,1.14c.52.52,1.38.25,2.1.09,3.11-.67,6,1.55,9.08,2.46,3.89,1.16,8.06.16,12-.84,2-.51,4.13-1.1,5.47-2.67,1.83-2.13,1.66-5.46,3.49-7.59a35.13,35.13,0,0,0-11.66-4.51c-3.28-.78-7.2-3.19-10.57-3-3.1.19-4.86,2.57-7.22,4.24s-2.78,1.62-3.38,4.15C107.52,129.14,108.05,131.77,108.26,133.72Z"/><path class="cls-3" d="M155.69,122c-2.76-.29-5.54,1.43-7.14,3.64a19.74,19.74,0,0,0-2.82,7.38,264.44,264.44,0,0,0-5.43,33.72c-.38,3.64,19.22,17.38,20,16.42s-4.92-37.88-7.37-56.82c5.35,12.9,7.78,23.39,11.68,35.08,2.1,6.33,4.24,12.71,7.76,18.41A41.5,41.5,0,0,0,181.19,161a14.18,14.18,0,0,0,.21-4.54,15.21,15.21,0,0,0-1.86-4.81,87.44,87.44,0,0,0-21-25.69L156,122"/><path class="cls-17" d="M168.76,172.44c2.23-1.71,2.65-4.92,2.28-7.71a2.43,2.43,0,0,0-.85-1.83,1.61,1.61,0,0,0-2,.3,2.62,2.62,0,0,0-.64,2,4.32,4.32,0,0,0,2.27,3.48,5.32,5.32,0,0,0,4.21.29,1.45,1.45,0,0,0,.7-.43,1.59,1.59,0,0,0,.24-1,19.19,19.19,0,0,0-.92-6.11,3.16,3.16,0,0,0-1.77-2.28,10.52,10.52,0,0,0,.36,3,3.59,3.59,0,0,0,1.88,2.28,4.63,4.63,0,0,0,2,.25,2,2,0,0,0,1.72-.74,1.87,1.87,0,0,0,.19-.78,20.32,20.32,0,0,0-.29-5.77c-.15-.75-.66-1.7-1.4-1.49a1.17,1.17,0,0,0-.69.83,3.15,3.15,0,0,0,1.25,3.26,6,6,0,0,0,3.5,1"/><path class="cls-17" d="M141.05,161.6l2.76,2.39a1.39,1.39,0,0,0,.8.44,1.22,1.22,0,0,0,.69-.21,4.47,4.47,0,0,0,2.19-3.5c.06-.77-.35-1.77-1.12-1.7a1.45,1.45,0,0,0-1,.83,7.28,7.28,0,0,0-.59,6.11,3.35,3.35,0,0,0,1.54,2,2.61,2.61,0,0,0,3.12-1,4,4,0,0,0,.41-3.41,1.33,1.33,0,0,0-1.56.48,2.83,2.83,0,0,0-.48,1.66,6.87,6.87,0,0,0,1.68,4.67,3.48,3.48,0,0,0,3.52,1.33,3.08,3.08,0,0,0,1.85-2.58,9,9,0,0,0-.4-3.3,1.34,1.34,0,0,0-1.36.8,3.88,3.88,0,0,0-.25,1.66,9.25,9.25,0,0,0,.78,4.37,3.48,3.48,0,0,0,3.68,1.94"/><path class="cls-18" d="M155.69,122c-2.76-.29-5.54,1.43-7.14,3.64a19.74,19.74,0,0,0-2.82,7.38,264.44,264.44,0,0,0-5.43,33.72c-.38,3.64,19.22,17.38,20,16.42s-4.92-37.88-7.37-56.82c5.35,12.9,7.78,23.39,11.68,35.08,2.1,6.33,4.24,12.71,7.76,18.41A41.5,41.5,0,0,0,181.19,161a14.18,14.18,0,0,0,.21-4.54,15.21,15.21,0,0,0-1.86-4.81,87.44,87.44,0,0,0-21-25.69L156,122"/><path class="cls-3" d="M144.4,147.27c-2.73-.75-9.34-4.6-13.3-8-3.81-3.24-5.3-8.36-6.6-13.18a2,2,0,0,1,.06-1.75,2.19,2.19,0,0,1,1.34-.63c4.42-1,8.1-4,11.93-6.39s8.62-1.59,13-.56c.18,2.93,1.5.61,2.1-2a69.22,69.22,0,0,0,21.1,1.24c.63-.06,4.88-1.1,7.59,1.9s-5.11,24.9-7.32,26.2-4.77-1.83-6.44-3.86c-5-6.09-9.77-12.48-15.06-18.29-1.54,3.77-3.6,5.15-4.58,9.58C147.83,133.45,147.12,148,144.4,147.27Z"/><path class="cls-19" d="M168.31,130.73c3.1,2.83,5.86,6.4,6.25,10.58a2.43,2.43,0,0,1-.21,1.51,1.9,1.9,0,0,1-2.28.57,5.33,5.33,0,0,1-1.94-1.6c-3.69-4.18-7.2-8.53-10.52-13-2.08-2.81.41-2.73,2.59-2A18.15,18.15,0,0,1,168.31,130.73Z"/><path class="cls-19" d="M142.21,140.87a8.38,8.38,0,0,0,1,4.63,2.39,2.39,0,0,0,1.08,1,2.09,2.09,0,0,0,2.42-1,6.36,6.36,0,0,0,.69-2.76,131.54,131.54,0,0,1,2.8-15.71C145.06,129,142.33,136,142.21,140.87Z"/><path class="cls-19" d="M145.38,119a13.64,13.64,0,0,0,3.1,6.34,31.25,31.25,0,0,1,4.1,5.88,2.47,2.47,0,0,0,3.36-.31,7.2,7.2,0,0,0,1.53-3.39c.79-3.13-.07-5.83,0-9.06,0-1-.74-5-2-5.26a7.93,7.93,0,0,0-8.7,5.32"/><path class="cls-20" d="M101.05,35.07a26,26,0,0,1-6.26-4c-.72-.63-.93-3.5-.52-4l4.38-5.28a97.67,97.67,0,0,1-18.78-6.71c-1.14-.55-2.38-1.23-2.79-2.37-.59-1.62,18.63-8.45,27.31-7.49,12.58,1.38,24.18-.82,36.29,2.86,4.43,1.35,9.95,6.67,13.47,9.59a31.91,31.91,0,0,1,6.95,8.82,75.87,75.87,0,0,1,10.21,34.3c.26,5.58-.19,11.43-3.29,16.11-2.2,3.32-5.56,5.8-9.1,7.84-12,6.92-27.23,9.4-40.87,5.29a88.93,88.93,0,0,1-13.71-5.84c-3.75-1.88-7.58-3.85-10.35-6.9a15.79,15.79,0,0,1-3.64-14.6c1.42-5.12,6.18-9.54,6.43-14.94C97,42.74,95.75,38.45,101.05,35.07Z"/><path class="cls-12" d="M96.63,81.69c-1.42,5.9-3.6,5,1.63,18.9S114,118.34,116.85,120c12.09,6.93,27.78,4.39,39.17-3.72,6.9-4.92,12.69-12.06,14.45-20.56,1.92-9.24,0-21.13-7-27.2-5-4.37-13-4.88-19.55-5.35s-13.08.7-19.41,2.43a111.5,111.5,0,0,0-20.16,7.69"/><path class="cls-21" d="M95.55,81.39c-.86,3.32-2,6-1.49,9.45a45,45,0,0,0,8.32,19.47c6.71,8.65,18.88,14.68,29.74,14.8,15.17.18,31.14-9.06,37.45-23.08,5.21-11.57,3.63-30.63-9.1-36.82-7.39-3.59-17.6-3.85-25.57-2.89-10.81,1.31-21.35,5.23-31.09,10-1.3.64-.16,2.58,1.13,2C119.41,67.19,135,62.64,151.15,65c8.11,1.17,14.25,4.88,17.1,12.83a32.47,32.47,0,0,1,.35,20.55c-4.71,14.29-20.29,24.05-34.95,24.5-9.65.3-20.46-4.38-27.26-11.34-5.1-5.22-8.1-12.44-9.77-19.47-.93-3.93.14-6.35,1.1-10.05a1.13,1.13,0,0,0-2.17-.6Z"/><path class="cls-7" d="M134.5,86.5c-5-18-3.14,2.3-3.14,2.3S123,110,112.1,115.73a41.12,41.12,0,0,0,4.75,3.25c12.09,6.93,30.15,5,39.15-4C150,111,138.15,99.64,134.5,86.5Z"/><path class="cls-21" d="M95.55,81.39c-.86,3.32-2,6-1.49,9.45a45,45,0,0,0,8.32,19.47c6.71,8.65,18.88,14.68,29.74,14.8,15.17.18,31.14-9.06,37.45-23.08,5.21-11.57,3.63-30.63-9.1-36.82-7.39-3.59-17.6-3.85-25.57-2.89-10.81,1.31-21.35,5.23-31.09,10-1.3.64-.16,2.58,1.13,2C119.41,67.19,135,62.64,151.15,65c8.11,1.17,14.25,4.88,17.1,12.83a32.47,32.47,0,0,1,.35,20.55c-4.71,14.29-20.29,24.05-34.95,24.5-9.65.3-20.46-4.38-27.26-11.34-5.1-5.22-8.1-12.44-9.77-19.47-.93-3.93.14-6.35,1.1-10.05a1.13,1.13,0,0,0-2.17-.6Z"/><path class="cls-13" d="M63.47,98.55l30.86,2.68"/><path class="cls-13" d="M64.94,113.52a190.73,190.73,0,0,1,31.8-5.83"/><path class="cls-13" d="M172.6,100.51a153.2,153.2,0,0,1,29.81-1.36,7.25,7.25,0,0,1,2.49.43"/><path class="cls-13" d="M170.65,107.54q15.4,1.42,30.7,3.56"/><path class="cls-13" d="M130.32,113.16c1.15-2.71,3.48-9.11,3.48-9.11l3.82,9.09"/><path class="cls-22" d="M152.67,81c9.33.29,12,4.74,12.68,7.86-.35,3.13-5.44,10.41-13.9,9.74s-13-8.74-12.75-9.18S143.34,80.72,152.67,81Z"/><path class="cls-22" d="M111.65,99.45a11.64,11.64,0,0,0,8.64-1.07c3.62-2.22,6.71-5.61,7.63-9.75a36.14,36.14,0,0,0-22.74-1.21C97.39,89.59,107.23,98.52,111.65,99.45Z"/><path class="cls-23" d="M109.62,95.4c1.1,1.4,2.65,2.73,4.54,2.77a6.32,6.32,0,0,0,3.54-1.26,7.6,7.6,0,0,0,2.82-3,7.27,7.27,0,0,0,.24-4.52,1.66,1.66,0,0,0-.56-1.08,2,2,0,0,0-.91-.28c-2.74-.36-9-.94-11.28.84C106.07,90.33,108.44,93.89,109.62,95.4Z"/><path class="cls-23" d="M148.41,94.52A6.14,6.14,0,0,0,150,96.39c4.9,3.51,10.8-2.84,10.5-7.66-.12-1.87-1.68-3.28-3.14-4.46s-3-2.29-4.76-2a6.57,6.57,0,0,0-2.63,1.21c-2.82,1.84-4.25,3.67-3.21,7A19.46,19.46,0,0,0,148.41,94.52Z"/><ellipse class="cls-24" cx="114.5" cy="92" rx="3.5" ry="6"/><ellipse class="cls-24" cx="153.5" cy="91" rx="3.5" ry="6"/><g class="cls-25"><path class="cls-16" d="M122.49,29.35l4.63-3.57a.65.65,0,0,0,.24-.54L127,19.41a.63.63,0,0,1,1-.56l4.83,3.3a.63.63,0,0,0,.58.06l5.45-2.11a.64.64,0,0,1,.84.77l-1.64,5.61a.61.61,0,0,0,.12.58l3.69,4.53a.64.64,0,0,1-.48,1l-5.84.17a.6.6,0,0,0-.51.29L131.9,38a.64.64,0,0,1-1.13-.13l-2-5.51a.66.66,0,0,0-.43-.4l-5.65-1.49A.64.64,0,0,1,122.49,29.35Z"/><path class="cls-16" d="M111.55,9.27l4,.11A.46.46,0,0,0,116,9.2l2.38-3.28a.44.44,0,0,1,.77.13l1.16,3.89a.41.41,0,0,0,.28.29l3.86,1.25a.44.44,0,0,1,.11.78l-3.34,2.3a.44.44,0,0,0-.19.36v4a.44.44,0,0,1-.71.35l-3.21-2.46a.43.43,0,0,0-.41-.07L112.82,18a.44.44,0,0,1-.55-.57l1.35-3.82a.42.42,0,0,0-.06-.4L111.18,10A.45.45,0,0,1,111.55,9.27Z"/><path class="cls-16" d="M111.92,43.65l2.69-2.26a.39.39,0,0,0,.13-.32l-.33-3.5a.38.38,0,0,1,.58-.36l3,1.86a.38.38,0,0,0,.36,0l3.22-1.4a.38.38,0,0,1,.52.44l-.85,3.41a.38.38,0,0,0,.08.34l2.33,2.63a.39.39,0,0,1-.26.64l-3.5.24a.37.37,0,0,0-.3.19l-1.79,3a.38.38,0,0,1-.68,0l-1.31-3.26a.38.38,0,0,0-.27-.22l-3.43-.77A.38.38,0,0,1,111.92,43.65Z"/><path class="cls-16" d="M97.61,10l2.21-.19a.25.25,0,0,0,.19-.12l1.1-1.93a.24.24,0,0,1,.43,0l.86,2a.26.26,0,0,0,.18.14l2.17.45a.23.23,0,0,1,.11.41l-1.68,1.46a.24.24,0,0,0-.08.21l.25,2.21a.24.24,0,0,1-.36.23l-1.91-1.15a.24.24,0,0,0-.22,0l-2,.92a.24.24,0,0,1-.33-.28l.5-2.16A.25.25,0,0,0,99,12l-1.5-1.64A.24.24,0,0,1,97.61,10Z"/><path class="cls-16" d="M108.9,25.19l2.21.17a.27.27,0,0,0,.21-.09l1.4-1.73a.24.24,0,0,1,.42.09l.52,2.16a.23.23,0,0,0,.15.17l2.07.8a.24.24,0,0,1,0,.43L114,28.35a.21.21,0,0,0-.11.19l-.12,2.22a.24.24,0,0,1-.39.17l-1.7-1.44a.23.23,0,0,0-.21,0l-2.15.58a.24.24,0,0,1-.28-.32l.84-2.06a.25.25,0,0,0,0-.22l-1.21-1.86A.24.24,0,0,1,108.9,25.19Z"/><path class="cls-16" d="M140.42,41.37l5.77.9a.64.64,0,0,0,.56-.19l4-4.25a.63.63,0,0,1,1.08.34l.93,5.77a.63.63,0,0,0,.35.47l5.28,2.51a.63.63,0,0,1,0,1.13l-5.2,2.67a.61.61,0,0,0-.34.48l-.76,5.8a.62.62,0,0,1-1.07.36l-4.14-4.12a.63.63,0,0,0-.57-.17l-5.74,1.07a.63.63,0,0,1-.68-.91L142.57,48a.65.65,0,0,0,0-.59l-2.8-5.13A.64.64,0,0,1,140.42,41.37Z"/><path class="cls-16" d="M153.22,17.23l1.88,3.59a.46.46,0,0,0,.34.23l4,.49a.44.44,0,0,1,.26.74l-2.83,2.89a.45.45,0,0,0-.12.4l.78,4a.44.44,0,0,1-.63.48l-3.63-1.8a.43.43,0,0,0-.4,0l-3.55,2a.43.43,0,0,1-.64-.45l.59-4a.43.43,0,0,0-.14-.38l-3-2.76a.45.45,0,0,1,.23-.76l4-.67a.45.45,0,0,0,.33-.25l1.71-3.68A.43.43,0,0,1,153.22,17.23Z"/></g><path class="cls-3" d="M101,61.05c1.24-.78,2.59-1.6,3.15-2.95a7,7,0,0,0,.3-2.84l-.35-9.86c5,1.66,10.48.49,15.68-.53,13.51-2.64,28.35-4,40.31,2.88a8.35,8.35,0,0,1,3,2.5,9.6,9.6,0,0,1,1.17,3.28l3.11,13.89c-15.09,3.75-30.28,7.52-45.8,8.33-3.64.19-7.48.17-10.68-1.56-2.26-1.22-4-3.19-6-4.81-2.19-1.79-4.3-2.28-6.93-2.83C97.69,64,98.79,62.41,101,61.05Z"/><path class="cls-12" d="M114.49,55.48c-7.69-7-20.56-21.08-23.07-21.13s-3.54,24.79-1.5,37.08A5.17,5.17,0,0,0,91,74.27a5,5,0,0,0,3.51,1.15,30.08,30.08,0,0,0,21.14-7.72,8.44,8.44,0,0,0,2.71-3.8C119.23,60.75,114.49,55.48,114.49,55.48Z"/><path class="cls-21" d="M115.29,54.69C110.21,50,105.42,45,100.44,40.17c-1.78-1.71-5.79-6.87-8.72-6.9-5.14-.07-4,18.62-4,21.34,0,5.6-.1,11.62,1.12,17.12,1.46,6.57,9,5.2,14.15,3.92,5.35-1.31,14.75-5.22,16.36-11.19,1-3.58-1.81-7.22-4-9.77-1-1.09-2.54.5-1.59,1.59a18,18,0,0,1,2.37,3.27c2.28,4.25.14,6.59-3.54,9.25A29.11,29.11,0,0,1,104,73.05c-2.34.71-7.1,2.23-9.46,1.24-5.1-2.14-4.33-9.87-4.48-14.48-.14-4.25-.11-8.51.11-12.75a101.1,101.1,0,0,1,1.13-10.14,3.07,3.07,0,0,1,.32-1.08c.65-.87-.8-.33.35-.07s2.34,1.78,3.17,2.51c6.46,5.71,12.25,12.14,18.58,18C114.76,57.26,116.35,55.67,115.29,54.69Z"/><path class="cls-12" d="M144.5,64.5c7-8,22.83-32.2,25.9-31.84,6,.69,10.71,31.81,3.1,41.84-1.13,1.49-.07-.3-1.41.12a36.8,36.8,0,0,1-12.4,1.64c-4.92-.18-10.31-1.64-12.92-5.28Z"/><path class="cls-21" d="M145.3,65.3c4.6-5.35,8.62-11.2,12.8-16.87,2.38-3.22,4.75-6.45,7.29-9.54.84-1,3.56-5.22,5.17-5,1.92.23,3.2,5.48,3.58,6.81a56.36,56.36,0,0,1,2,11.1c.57,6.95,1,16.87-3.89,22.52h1.59l-.1-.23a1.1,1.1,0,0,0-1-.55c-3.09-.06-6.26,1.4-9.41,1.59-4,.24-8.2,0-11.8-1.82-4.14-2.07-4.52-5.08-5.93-9.08-.47-1.36-2.65-.77-2.16.6,1.61,4.61,2.3,8.21,7,10.53A23.86,23.86,0,0,0,160.6,77.4c1.24,0,11.46-1.66,11.6-1.52a1.12,1.12,0,0,0,1.59,0c5.35-6.18,5.18-16.49,4.55-24.11-.45-5.38-1-15.93-6.06-19.45-4.14-2.9-8.71,5.21-10.7,7.77-6.05,7.79-11.44,16.14-17.88,23.61C142.76,64.8,144.35,66.4,145.3,65.3Z"/><path class="cls-7" d="M166.54,45.41c.26-.3.7-.62,1-.4a.77.77,0,0,1,.25.65,23.73,23.73,0,0,1-1.53,9.24,5.17,5.17,0,0,1,4-1.8c-.83,1.92-1.69,3.84-2.59,5.73,1.32.3,3,0,3.87.91a2,2,0,0,1,.22,2.15,5.43,5.43,0,0,1-1.51,1.77c-3.42,2.92-7.92,5.09-12.54,4.68-2.46-.22-3.9-2-3.36-4.38.22-1,1.34-1.75,2-2.54a29.43,29.43,0,0,0,2.2-3.05C161.29,54.08,163.16,49.31,166.54,45.41Z"/><path class="cls-7" d="M96.4,46.88c-.82,1.24-.19,2.91.67,4.13s2,2.39,2.08,3.86c-1.35-.5-3.1-.91-4,.19s-.33,2.57.57,3.5,2.11,1.51,3,2.45c-1.14-.15-2,1.22-1.78,2.34a3.84,3.84,0,0,0,2.3,2.41,15.76,15.76,0,0,0,4.9,1.13,6.18,6.18,0,0,0,3.67-.36C112.72,63.86,98.63,49.41,96.4,46.88Z"/><path class="cls-26" d="M115,56.77c.66-2.7.82-5.79,2.83-7.72a9.38,9.38,0,0,1,3-1.74A39,39,0,0,1,146.62,46a2.85,2.85,0,0,1,1.26.64,3,3,0,0,1,.6,1.47,43.88,43.88,0,0,0,6.72,16.48c-4.24.92-8.63.7-12.95,1-5.21.38-10.31,1.55-15.48,2.24s-10.53.88-15.51-.65c-2.79-.86-.2-2.68.74-3.95A18.19,18.19,0,0,0,115,56.77Z"/><path class="cls-17" d="M113,59.22a10.08,10.08,0,0,0,8.41-2.71,5.67,5.67,0,0,0,.64-7.1c-3.68,3.07-1.55,9,3.63,10.13s10.91-3.09,9.8-7.2a2,2,0,0,0-1.64-1.59,2,2,0,0,0-2,2.13c0,3.1,3.24,6,7.17,6.41,2.45-1.25,5-2.6,6.25-4.68A3.9,3.9,0,0,0,143,48.79c-2.4,4.26,1.26,9.9,7.08,10.89"/><path class="cls-27" d="M149.33,51.84a41.5,41.5,0,0,0,1.85,7,13.76,13.76,0,0,0,4.1,5.82,11,11,0,0,1,2.34,2"/><path class="cls-27" d="M107.34,68.68a7.1,7.1,0,0,0,2.85-2.75A38.33,38.33,0,0,0,113.78,60a13.93,13.93,0,0,0,1.41-6.7"/><path class="cls-28" d="M136.74,97.32a1.49,1.49,0,0,0-2-.83,3.46,3.46,0,0,0-1.63,1.7c-.61-1-2-2.59-2.84-1.64s1.57,3.81,3.31,4.84L136.11,99A2,2,0,0,0,136.74,97.32Z"/><ellipse class="cls-29" cx="112" cy="104.98" rx="10" ry="8.55"/><ellipse class="cls-30" cx="156" cy="104.98" rx="10" ry="8.55"/><polygon class="cls-4" points="85.03 147.48 79.44 141.66 72.73 145.24 74.5 137.48 67.92 133 75.28 131.05 75.4 122.99 79.83 128.13 86.54 124.54 85.92 132.99 92.51 137.47 85.15 139.41 85.03 147.48"/><polygon class="cls-4" points="55.81 137.86 57.13 134.18 54.1 131.99 57.88 131.12 58.4 127.28 60.85 130.1 64.41 128.46 63.08 132.14 66.11 134.33 62.33 135.19 61.81 139.04 59.36 136.21 55.81 137.86"/><circle class="cls-31" cx="53.5" cy="143.5" r="48.5"/><circle class="cls-32" cx="228.5" cy="143.5" r="48.5"/><path class="cls-33" d="M47.55,142.17a18.67,18.67,0,0,1,3.68-24,20.71,20.71,0,1,0,19.52,31.34A18.67,18.67,0,0,1,47.55,142.17Z"/><path class="cls-34" d="M214.25,86.68c-4.15-11.68-29.46-18-43.53-21-9-1.91-18.17-3.83-27.46-3.86-13.43-.05-26.41,3.85-39.79,4.73-25.35,1.67-40.78-9.73-50.78-17.75-3.36.87-8.83,19,10.05,29S114.82,89.75,134.85,90c12.61.17,26.31-4.6,38.8-5.91,10.52-1.11,25.51,1.06,39.67,6.69C214.93,91.45,214.76,88.13,214.25,86.68Z"/><path class="cls-3" d="M64.69,210.52A44.26,44.26,0,0,0,53,207c-2.39-.38-4.86-.57-7.06-1.61a2.21,2.21,0,0,1-1.3-1.22,2.5,2.5,0,0,1,.17-1.42,129.76,129.76,0,0,0,6.39-38.29l13.38.32a10.21,10.21,0,0,0,5.55-1.19c1.72-1,1.34-2.36,3-.42,2.56,3,.79,10.92.43,14.36A108.54,108.54,0,0,1,64.69,210.52Z"/><path class="cls-3" d="M224.06,162.07c1.45,2.53,1.69,5.54,2.47,8.34.95,3.45,2.71,6.62,3.73,10.05,2.07,7,1,14.83,4.28,21.33a71.82,71.82,0,0,0-17.76,6.92c-2.34-5.67-4.7-11.41-5.64-17.47-.5-3.21-.6-6.5-1.57-9.6-1.2-3.84-6.27-10.17-1.85-13.51C209.05,167.12,223.26,160.66,224.06,162.07Z"/><path class="cls-17" d="M55.22,164.2A7.1,7.1,0,0,0,59.65,171c1,.4,2.42.44,3-.48a1.89,1.89,0,0,0-.43-2.36,3.18,3.18,0,0,0-2.45-.66,5.3,5.3,0,0,0-4.49,6.14c.45,2.05,2.09,3.6,3.74,4.89a5,5,0,0,0,2.29,1.2,1.89,1.89,0,0,0,2.11-1.12c.35-1.17-.93-2.23-2.13-2.4a4.66,4.66,0,0,0-5.09,4.09c-.2,2.69,2,4.94,4.13,6.58a5.29,5.29,0,0,0,3,1.39c1.14,0,2.34-1,2.11-2.08l-4.15-1.32c-1.21-.38-2.69-.7-3.59.17a3.58,3.58,0,0,0-.81,1.85l-.73,3.25a4.44,4.44,0,0,0,0,2.86,3.63,3.63,0,0,0,2.27,1.64,3.86,3.86,0,0,0,2.82,0,1.8,1.8,0,0,0,.9-2.39l-3.86-1.49a1.27,1.27,0,0,0-.87-.12,1.25,1.25,0,0,0-.61.59,22.16,22.16,0,0,0-3.16,8.23,3.38,3.38,0,0,0,0,1.38,3.48,3.48,0,0,0,1.36,1.66,7,7,0,0,0,3.32,1.8c1.26.16,2.74-.65,2.81-1.92-2.92-1.72-7.3.69-7.41,4.08"/><path class="cls-17" d="M214.17,165.35a4.63,4.63,0,0,1,1.75-1.71c1.57-.69,3.47.67,3.83,2.35a5.86,5.86,0,0,1-1.54,4.73,11.42,11.42,0,0,1-5.24,3.59c-.87-.65-.31-2.05.42-2.87,1.33-1.5,3.49-2.72,5.27-1.8,1.2.62,1.77,2,2.25,3.24,1,2.73,2,6.12,0,8.3a7.71,7.71,0,0,1-4.23,2,6.61,6.61,0,0,1-.87-3.84c2.74-1,5.62,1.54,6.47,4.31a6.47,6.47,0,0,1-.51,5.44,4,4,0,0,1-4.91,1.53,4.7,4.7,0,0,1,8.24-1.12,9.48,9.48,0,0,1,1.31,4.55c.2,1.72.35,3.61-.61,5.06a5.41,5.41,0,0,1-4.57,2.06,1.4,1.4,0,0,1-.92-.23,1.23,1.23,0,0,1-.37-.7c-.58-2.5,2.31-4.95,4.79-4.25s3.78,3.82,2.87,6.22"/><polygon class="cls-4" points="194.96 146.63 197.69 138.34 190.54 133.08 199.15 131.44 200.01 122.72 205.89 129.37 213.9 125.91 211.18 134.2 218.32 139.46 209.72 141.1 208.85 149.82 202.97 143.17 194.96 146.63"/><path class="cls-33" d="M223.25,119.55l5.8,10.94a1.35,1.35,0,0,0,1,.71l12.3,1.43a1.33,1.33,0,0,1,.81,2.26l-8.61,8.9a1.33,1.33,0,0,0-.35,1.2l2.44,12.14a1.34,1.34,0,0,1-1.91,1.47l-11.12-5.44a1.35,1.35,0,0,0-1.25,0l-10.79,6.08a1.34,1.34,0,0,1-2-1.36l1.74-12.26a1.34,1.34,0,0,0-.42-1.18l-9.12-8.39a1.35,1.35,0,0,1,.68-2.31l12.2-2.13a1.34,1.34,0,0,0,1-.76l5.16-11.26A1.34,1.34,0,0,1,223.25,119.55Z"/><path class="cls-18" d="M64.69,210.52A44.26,44.26,0,0,0,53,207c-2.39-.38-4.86-.57-7.06-1.61a2.21,2.21,0,0,1-1.3-1.22,2.5,2.5,0,0,1,.17-1.42,129.76,129.76,0,0,0,6.39-38.29l13.38.32a10.21,10.21,0,0,0,5.55-1.19c1.72-1,1.34-2.36,3-.42,2.56,3,.79,10.92.43,14.36A108.54,108.54,0,0,1,64.69,210.52Z"/><path class="cls-18" d="M224.06,162.07c1.45,2.53,1.69,5.54,2.47,8.34.95,3.45,2.71,6.62,3.73,10.05,2.07,7,1,14.83,4.28,21.33a71.82,71.82,0,0,0-17.76,6.92c-2.34-5.67-4.7-11.41-5.64-17.47-.5-3.21-.6-6.5-1.57-9.6-1.2-3.84-6.27-10.17-1.85-13.51C209.05,167.12,223.26,160.66,224.06,162.07Z"/></svg>