<svg id="Layer_1" data-name="Layer 1" xmlns="http://www.w3.org/2000/svg" xmlns:xlink="http://www.w3.org/1999/xlink" viewBox="0 0 212.7 37.94"><defs><style>.cls-1{stroke:#010101;stroke-miterlimit:10;stroke-width:2px;fill:url(#radial-gradient);}.cls-2{fill:#e8ad22;}</style><radialGradient id="radial-gradient" cx="106.35" cy="18.97" r="74.78" gradientUnits="userSpaceOnUse"><stop offset="0" stop-color="#3b3092"/><stop offset="1" stop-color="#282663"/></radialGradient></defs><title>loginbutton</title><polygon class="cls-1" points="210.58 36.94 2.13 36.94 17.02 18.97 2.13 1 210.58 1 195.69 18.97 210.58 36.94"/><path class="cls-2" d="M78.63,68.13h6.5L85.94,64h1.32v5.57H74v-1l2.25-.5V53.89L74,53.39v-1h7.12v1l-2.49.5Z" transform="translate(-2.75 -43.45)"/><path class="cls-2" d="M100.8,63a9.23,9.23,0,0,1-.47,3,6.26,6.26,0,0,1-1.3,2.3,6.31,6.31,0,0,1-8.24,0,6,6,0,0,1-1.25-2.18,8.61,8.61,0,0,1-.45-2.83,9.8,9.8,0,0,1,.46-3A5.9,5.9,0,0,1,90.86,58a4.55,4.55,0,0,1,1.77-1.19A6.92,6.92,0,0,1,95,56.42a7.32,7.32,0,0,1,2.37.37,4.4,4.4,0,0,1,1.76,1.14,5.71,5.71,0,0,1,1.27,2.21A9.05,9.05,0,0,1,100.8,63Zm-9.15,0a8.4,8.4,0,0,0,.86,4.27,2.8,2.8,0,0,0,1,.94,3.31,3.31,0,0,0,3.93-.8A4.56,4.56,0,0,0,98,65.71a13.59,13.59,0,0,0,.2-2.53,8.26,8.26,0,0,0-.86-4.25,2.74,2.74,0,0,0-1-.94,2.93,2.93,0,0,0-1.48-.32,2.69,2.69,0,0,0-2.41,1.09A8.16,8.16,0,0,0,91.65,63Z" transform="translate(-2.75 -43.45)"/><path class="cls-2" d="M114,69.8a3.52,3.52,0,0,1-.4,1.67,3.65,3.65,0,0,1-1.14,1.31,5.7,5.7,0,0,1-1.84.86,10.9,10.9,0,0,1-6.61-.46A2.43,2.43,0,0,1,102.61,71a2.21,2.21,0,0,1,.67-1.72,3.59,3.59,0,0,1,1.84-.79v-.09a1.87,1.87,0,0,1-1.57-1.87,2.06,2.06,0,0,1,.53-1.37,3.86,3.86,0,0,1,1.69-1,3.64,3.64,0,0,1-1.83-1.34,3.78,3.78,0,0,1-.63-2.22,4,4,0,0,1,.34-1.71,3.75,3.75,0,0,1,1-1.29,4.48,4.48,0,0,1,1.53-.82,6.66,6.66,0,0,1,2-.29,5.25,5.25,0,0,1,3.51,1.1l.81-.29,2.2-1h.41v2.11h-.41l-1.67-.2h-.82a3.78,3.78,0,0,1,.7,2.3,3.67,3.67,0,0,1-1.29,3A5.41,5.41,0,0,1,108,64.45h-.49l-.46,0q-1.89.28-1.89,1.41a.74.74,0,0,0,.43.75,4.43,4.43,0,0,0,1.67.2H110a5,5,0,0,1,3,.73A2.67,2.67,0,0,1,114,69.8Zm-6.57-1.2a3.9,3.9,0,0,0-2.32.55,1.74,1.74,0,0,0-.72,1.44c0,1.45,1.25,2.17,3.73,2.17a6.28,6.28,0,0,0,3.09-.61,2,2,0,0,0,1.07-1.83,1.38,1.38,0,0,0-.73-1.33A6,6,0,0,0,109,68.6Zm-2-8.16a3.21,3.21,0,0,0,.64,2.17,3.22,3.22,0,0,0,4.11,0,4,4,0,0,0,0-4.35,3.22,3.22,0,0,0-4.11,0A3.24,3.24,0,0,0,105.41,60.44Z" transform="translate(-2.75 -43.45)"/><path class="cls-2" d="M127,68l2.24.5v1h-6.87v-1l2.24-.5V53.89l-2.24-.5v-1h6.87v1l-2.24.5Z" transform="translate(-2.75 -43.45)"/><path class="cls-2" d="M133,58.09l-1.84-.45v-1h3.44l.53,2.39h.09a5.35,5.35,0,0,1,1.92-1.92,5.13,5.13,0,0,1,2.62-.71,4.13,4.13,0,0,1,1.72.34,3,3,0,0,1,1.22,1,4.57,4.57,0,0,1,.68,1.88,21.27,21.27,0,0,1,.2,3.26v5.28l1.84.45v1h-5.76v-1l1.6-.45V62.8a22.12,22.12,0,0,0-.08-2.3,3.6,3.6,0,0,0-.3-1.21,2.16,2.16,0,0,0-2.1-1.17,3.52,3.52,0,0,0-1.29.24,3.87,3.87,0,0,0-1.1.64,2.89,2.89,0,0,0-.77,1.11,5.06,5.06,0,0,0-.3,1.64v6.38l1.6.45v1h-5.76v-1l1.84-.45Z" transform="translate(-2.75 -43.45)"/></svg>