<svg id="Layer_1" data-name="Layer 1" xmlns="http://www.w3.org/2000/svg" xmlns:xlink="http://www.w3.org/1999/xlink" viewBox="0 0 256.66 45.51"><defs><style>.cls-1{stroke:#010101;stroke-miterlimit:10;stroke-width:2px;fill:url(#radial-gradient);}.cls-2{fill:#e8ad22;}</style><radialGradient id="radial-gradient" cx="128.33" cy="22.76" r="90.55" gradientUnits="userSpaceOnUse"><stop offset="0" stop-color="#3b3092"/><stop offset="1" stop-color="#282663"/></radialGradient></defs><title>logoutbutton</title><polygon class="cls-1" points="254.53 44.51 2.13 44.51 20.16 22.76 2.13 1 254.53 1 236.5 22.76 254.53 44.51"/><path class="cls-2" d="M91.93,117.59H99.8l1-5h1.59v6.74H86.32v-1.24l2.72-.61V100.35l-2.72-.61V98.5h8.62v1.24l-3,.61Z" transform="translate(-8.12 -87.92)"/><path class="cls-2" d="M118.77,111.37a11.39,11.39,0,0,1-.56,3.59,7.77,7.77,0,0,1-1.58,2.77,7.66,7.66,0,0,1-10,.06,7.46,7.46,0,0,1-1.52-2.65,10.75,10.75,0,0,1-.53-3.42,11.62,11.62,0,0,1,.55-3.62,7,7,0,0,1,1.59-2.8,5.48,5.48,0,0,1,2.14-1.44,8.37,8.37,0,0,1,2.83-.44,8.87,8.87,0,0,1,2.87.44,5.35,5.35,0,0,1,2.14,1.38,7,7,0,0,1,1.53,2.67A11.1,11.1,0,0,1,118.77,111.37Zm-11.08,0a10.23,10.23,0,0,0,1,5.18,3.52,3.52,0,0,0,1.17,1.14,3.58,3.58,0,0,0,1.78.39,3.42,3.42,0,0,0,3-1.36,5.46,5.46,0,0,0,.77-2.08,17.47,17.47,0,0,0,.24-3.07,10,10,0,0,0-1-5.15,3.37,3.37,0,0,0-1.18-1.14,3.67,3.67,0,0,0-1.8-.39,3.27,3.27,0,0,0-2.92,1.33A9.85,9.85,0,0,0,107.69,111.4Z" transform="translate(-8.12 -87.92)"/><path class="cls-2" d="M134.76,119.61a4.37,4.37,0,0,1-.48,2,4.62,4.62,0,0,1-1.38,1.59,7.09,7.09,0,0,1-2.23,1,10.87,10.87,0,0,1-3,.37,10.66,10.66,0,0,1-5-.94A2.9,2.9,0,0,1,121,121a2.63,2.63,0,0,1,.81-2.08,4.37,4.37,0,0,1,2.22-1v-.11a2.26,2.26,0,0,1-1.91-2.26,2.52,2.52,0,0,1,.65-1.66,4.76,4.76,0,0,1,2-1.26,4.47,4.47,0,0,1-2.21-1.62,4.59,4.59,0,0,1-.76-2.69,4.91,4.91,0,0,1,.41-2.07,4.64,4.64,0,0,1,1.19-1.56,5.39,5.39,0,0,1,1.85-1,8,8,0,0,1,2.44-.34,6.35,6.35,0,0,1,4.26,1.33l1-.35,2.66-1.27h.49v2.54h-.49l-2-.23h-1a4.61,4.61,0,0,1,.84,2.78,4.47,4.47,0,0,1-1.56,3.6,6.57,6.57,0,0,1-4.37,1.31h-.59l-.56,0c-1.53.23-2.29.8-2.29,1.7a.9.9,0,0,0,.52.91,5.34,5.34,0,0,0,2,.25H130a6.08,6.08,0,0,1,3.59.88A3.22,3.22,0,0,1,134.76,119.61Zm-7.95-1.44a4.71,4.71,0,0,0-2.81.66,2.08,2.08,0,0,0-.86,1.74q0,2.63,4.51,2.63a7.65,7.65,0,0,0,3.74-.74,2.39,2.39,0,0,0,1.29-2.21,1.67,1.67,0,0,0-.88-1.62,7.33,7.33,0,0,0-3.11-.46Zm-2.46-9.9a3.93,3.93,0,0,0,.78,2.64,3.93,3.93,0,0,0,5,0,4.84,4.84,0,0,0,0-5.27,3.93,3.93,0,0,0-5,0A3.91,3.91,0,0,0,124.35,108.27Z" transform="translate(-8.12 -87.92)"/><path class="cls-2" d="M159.14,111.37a11.39,11.39,0,0,1-.56,3.59,7.62,7.62,0,0,1-1.58,2.77,7.66,7.66,0,0,1-10,.06,7.3,7.3,0,0,1-1.51-2.65,10.48,10.48,0,0,1-.54-3.42,11.62,11.62,0,0,1,.55-3.62,7.26,7.26,0,0,1,1.59-2.8,5.55,5.55,0,0,1,2.14-1.44,8.37,8.37,0,0,1,2.83-.44,8.82,8.82,0,0,1,2.87.44,5.28,5.28,0,0,1,2.14,1.38,7,7,0,0,1,1.53,2.67A11.1,11.1,0,0,1,159.14,111.37Zm-11.08,0a10.11,10.11,0,0,0,1.05,5.18,3.35,3.35,0,0,0,1.17,1.14,3.53,3.53,0,0,0,1.78.39,3.4,3.4,0,0,0,3-1.36,5.3,5.3,0,0,0,.77-2.08,16.5,16.5,0,0,0,.25-3.07,10.15,10.15,0,0,0-1-5.15,3.48,3.48,0,0,0-1.19-1.14,3.62,3.62,0,0,0-1.79-.39,3.25,3.25,0,0,0-2.92,1.33A9.74,9.74,0,0,0,148.06,111.4Z" transform="translate(-8.12 -87.92)"/><path class="cls-2" d="M166.05,111.89q0,.93,0,1.62c0,.46,0,.86.07,1.19a7,7,0,0,0,.13.83,2.28,2.28,0,0,0,.24.61,2.43,2.43,0,0,0,2.43,1.42,4,4,0,0,0,1.5-.29,4.1,4.1,0,0,0,1.27-.78,3.55,3.55,0,0,0,.94-1.35,6.37,6.37,0,0,0,.36-2v-7.72l-2.51-.55v-1.18h5.32v13.88l2.23.55v1.18l-4.49.29-.32-3.18h-.11a6.24,6.24,0,0,1-2.29,2.33,5.94,5.94,0,0,1-3.09.85,4.91,4.91,0,0,1-2-.4,3.3,3.3,0,0,1-1.43-1.16,5.51,5.51,0,0,1-.83-2.27,25.51,25.51,0,0,1-.24-4v-6.39l-1.94-.55v-1.18h4.74Z" transform="translate(-8.12 -87.92)"/><path class="cls-2" d="M179,104.11l2.8-.4.38-3.65,2.43-.35v4h3.7v1.44h-3.7v10.33c0,.65,0,1.1,0,1.34a2.59,2.59,0,0,0,.11.59.43.43,0,0,0,.32.29,3.38,3.38,0,0,0,.75.06h2v.84a20.68,20.68,0,0,1-2.45.77,8,8,0,0,1-1.69.24,1.59,1.59,0,0,1-1.68-1.07,3.16,3.16,0,0,1-.18-.88c0-.36,0-.9,0-1.63V105.15H179Z" transform="translate(-8.12 -87.92)"/></svg>