<?xml version="1.0" encoding="utf-8"?>
<!-- Generator: Adobe Illustrator 22.1.0, SVG Export Plug-In . SVG Version: 6.00 Build 0)  -->
<svg version="1.1" id="Layer_1" xmlns="http://www.w3.org/2000/svg" xmlns:xlink="http://www.w3.org/1999/xlink" x="0px" y="0px"
	 viewBox="0 0 262 71.5" style="enable-background:new 0 0 262 71.5;" xml:space="preserve">
<style type="text/css">
	.st0{fill:url(#SVGID_1_);stroke:#010101;stroke-width:2;stroke-miterlimit:10;}
	.st1{fill:url(#SVGID_2_);stroke:#010101;stroke-width:2;stroke-miterlimit:10;}
	.st2{fill:url(#SVGID_3_);stroke:#010101;stroke-width:2;stroke-miterlimit:10;}
	.st3{fill:url(#SVGID_4_);stroke:#010101;stroke-width:2;stroke-miterlimit:10;}
	.st4{fill:url(#SVGID_5_);stroke:#010101;stroke-width:2;stroke-miterlimit:10;}
	.st5{fill:url(#SVGID_6_);stroke:#010101;stroke-width:2;stroke-miterlimit:10;}
	.st6{fill:#E8AD22;}
	.st7{fill:#C7842A;}
</style>
<title>logo</title>
<radialGradient id="SVGID_1_" cx="41.62" cy="-26.615" r="31.0446" gradientTransform="matrix(1 0 0 -1 -2.25 20.17)" gradientUnits="userSpaceOnUse">
	<stop  offset="0" style="stop-color:#1A1249"/>
	<stop  offset="0.1483" style="stop-color:#1A1242"/>
	<stop  offset="0.4737" style="stop-color:#19113A"/>
	<stop  offset="1" style="stop-color:#191137"/>
</radialGradient>
<path class="st0" d="M74.6,23.4c-24.3,1-48.5,3.9-72.4,8.7C9.5,38.4,13,41.7,20,48.3c-4.8,8.7-7.1,13-11.5,21.8
	c22.5-4.4,45.2-7.1,68.1-8C75.9,49.3,75.3,36.3,74.6,23.4z"/>
<radialGradient id="SVGID_2_" cx="58.61" cy="39.405" r="22.8211" gradientTransform="matrix(1 0 0 -1 0 74)" gradientUnits="userSpaceOnUse">
	<stop  offset="0" style="stop-color:#1C1544"/>
	<stop  offset="0.41" style="stop-color:#1A133D"/>
	<stop  offset="1" style="stop-color:#191137"/>
</radialGradient>
<polygon class="st1" points="40.7,52.1 76.5,61.5 73.7,7.7 "/>
<radialGradient id="SVGID_3_" cx="224.88" cy="-26.615" r="31.0446" gradientTransform="matrix(1 0 0 -1 -2.25 20.17)" gradientUnits="userSpaceOnUse">
	<stop  offset="0" style="stop-color:#1A1249"/>
	<stop  offset="0.1483" style="stop-color:#1A1242"/>
	<stop  offset="0.4737" style="stop-color:#19113A"/>
	<stop  offset="1" style="stop-color:#191137"/>
</radialGradient>
<path class="st2" d="M187.4,23.4c24.3,1,48.5,3.9,72.4,8.7c-7.3,6.3-10.8,9.6-17.8,16.2c4.8,8.7,7.1,13,11.5,21.8
	c-22.5-4.4-45.2-7.1-68.1-8C186.1,49.3,186.7,36.3,187.4,23.4z"/>
<radialGradient id="SVGID_4_" cx="203.385" cy="39.405" r="22.8191" gradientTransform="matrix(1 0 0 -1 0 74)" gradientUnits="userSpaceOnUse">
	<stop  offset="0" style="stop-color:#1C1544"/>
	<stop  offset="0.41" style="stop-color:#1A133D"/>
	<stop  offset="1" style="stop-color:#191137"/>
</radialGradient>
<polygon class="st3" points="221.3,52.1 185.5,61.5 188.3,7.7 "/>
<radialGradient id="SVGID_5_" cx="224.42" cy="-30.78" r="0" gradientTransform="matrix(1 0 0 -1 -2.25 20.17)" gradientUnits="userSpaceOnUse">
	<stop  offset="0" style="stop-color:#1C1544"/>
	<stop  offset="0.41" style="stop-color:#1A133D"/>
	<stop  offset="1" style="stop-color:#191137"/>
</radialGradient>
<path class="st4" d="M222.2,50.9"/>
<radialGradient id="SVGID_6_" cx="133.254" cy="-6.3713" r="66.354" gradientTransform="matrix(1 0 0 -1 -2.25 20.17)" gradientUnits="userSpaceOnUse">
	<stop  offset="0" style="stop-color:#1C156F"/>
	<stop  offset="1" style="stop-color:#191137"/>
</radialGradient>
<path class="st5" d="M41.5,5.2c59.5-5.5,119.4-5.5,178.9,0c-0.1,15.7,1,31.2,0.8,46.9c-60.1-5.6-120.5-5.6-180.6,0
	C40.6,36.4,41.6,20.8,41.5,5.2z"/>
<path class="st6" d="M77.8,27.1c-0.8,0-1.6-0.1-2.4-0.3c-0.7-0.2-1.3-0.6-1.8-1.1c-0.1,0.5-0.1,0.8-0.2,1.3l-1.3,0.1
	c-0.1-2-0.1-3-0.2-5l1.4-0.1c0,1.1,0.5,2.2,1.2,3c0.8,0.7,1.9,1,2.9,0.8c2.1-0.1,3.2-0.9,3.1-2.6c0-0.4-0.1-0.9-0.3-1.2
	c-0.2-0.4-0.5-0.7-0.8-0.9c-0.4-0.3-0.8-0.6-1.3-0.8c-0.5-0.2-1.1-0.4-1.7-0.7s-1.4-0.5-1.9-0.8c-0.5-0.2-1-0.5-1.4-0.8
	c-0.4-0.3-0.7-0.7-0.9-1.2c-0.2-0.5-0.4-1.1-0.4-1.6c-0.1-1.3,0.3-2.5,1.2-3.4c2.1-1.7,5-1.8,7.2-0.2c0-0.4,0.1-0.6,0.1-1h1.3l0.2,5
	h-1.3c0-1.1-0.3-2.2-0.9-3.1c-0.7-0.7-1.6-1-2.6-0.9c-2.1,0.1-3,1.1-3,2.9c0,0.3,0.1,0.6,0.2,0.9c0.1,0.3,0.3,0.5,0.5,0.7
	c0.3,0.2,0.6,0.5,1,0.6c0.4,0.2,1,0.4,1.7,0.7c0.8,0.3,1.6,0.6,2.4,1c0.6,0.3,1.1,0.7,1.7,1.1c0.8,0.7,1.3,1.7,1.3,2.8
	c0,0.6-0.1,1.3-0.3,1.8c-0.2,0.5-0.6,1-1,1.4c-0.5,0.4-1,0.7-1.6,0.9C79.1,26.9,78.4,27,77.8,27.1z"/>
<path class="st6" d="M90.6,29.4v0.9l-6,0.2v-0.9l1.7-0.5c-0.2-5.3-0.3-8-0.5-13.3l-1.8-0.4v-0.9l3.2-0.1c0.2,0.7,0.2,1,0.4,1.7
	c0.4-0.7,0.9-1.2,1.6-1.6c0.6-0.3,1.3-0.5,2-0.5c0.7,0,1.4,0.1,2.1,0.3c0.6,0.2,1.1,0.5,1.6,1c0.5,0.6,0.9,1.3,1.1,2
	c0.3,0.8,0.5,1.7,0.5,2.6c0,0.9-0.1,1.8-0.4,2.7c-0.2,0.8-0.6,1.5-1.1,2.1c-0.9,1-2.2,1.6-3.6,1.6c-0.6,0-1.2-0.1-1.7-0.3
	c-0.6-0.3-1.1-0.7-1.5-1.2l0.1,4.3L90.6,29.4z M88.1,20.2c-0.1,1.3,0.3,2.7,0.9,3.8c0.2,0.4,0.5,0.6,0.9,0.8
	c0.4,0.2,0.9,0.3,1.4,0.3c0.9,0,1.7-0.4,2.2-1.1c0.3-0.5,0.5-1,0.5-1.6c0.1-0.8,0.1-1.6,0.1-2.3c0.1-1.3-0.3-2.7-0.9-3.8
	c-0.2-0.3-0.6-0.6-0.9-0.8c-0.4-0.2-0.9-0.3-1.4-0.3c-0.5,0-0.9,0.1-1.3,0.3c-0.4,0.2-0.7,0.4-0.8,0.8c-0.3,0.5-0.5,1-0.5,1.6
	C88.1,18.7,88.1,19.5,88.1,20.2z"/>
<path class="st6" d="M100.9,20.2c0,0.9,0.2,1.8,0.5,2.7c0.3,0.6,0.7,1.1,1.3,1.4c0.6,0.3,1.2,0.4,1.8,0.4c0.7,0,1.3-0.2,1.9-0.5
	c0.6-0.3,1.1-0.7,1.5-1.2l0.7,0.5c-0.3,0.4-0.5,0.7-0.8,1c-0.6,0.7-1.4,1.2-2.3,1.4c-0.5,0.1-1,0.2-1.6,0.2c-0.9,0-1.9-0.2-2.7-0.6
	c-0.8-0.4-1.4-1.1-1.8-1.9c-0.2-0.5-0.4-1-0.5-1.5c-0.1-0.6-0.2-1.2-0.2-1.8c-0.2-1.7,0.3-3.5,1.3-4.9c1-1.2,2.4-1.8,3.9-1.8
	c1.3-0.1,2.7,0.4,3.6,1.3c0.9,1.1,1.4,2.5,1.3,3.9c0,0.2,0,0.3,0,0.4s0,0.3,0,0.6C105.6,20.1,104,20.2,100.9,20.2z M103.8,15
	c-1.8,0-2.8,1.4-2.9,4.1l5.6-0.1v-0.7c0-0.9-0.2-1.7-0.7-2.4C105.2,15.2,104.5,14.9,103.8,15z"/>
<path class="st6" d="M111.9,9.8l-1.7-0.4V8.5l3.9-0.1c0.1,6.4,0.1,9.6,0.2,16l1.7,0.4v0.9l-5.6,0.1V25l1.7-0.4
	C112.1,18.6,112,15.7,111.9,9.8z"/>
<path class="st6" d="M118.9,9.8l-1.7-0.4V8.4h3.9c0,6.4,0.1,9.6,0.1,16l1.7,0.4v0.9h-5.6v-0.9l1.7-0.4L118.9,9.8z"/>
<path class="st6" d="M136,19.6c0,0.9-0.1,1.9-0.4,2.8c-0.3,0.8-0.7,1.5-1.2,2.1c-0.9,1-2.3,1.5-3.6,1.4c-0.7,0-1.4-0.2-2-0.5
	c-0.7-0.5-1.3-1.1-1.6-1.9c-0.3,0.9-0.4,1.3-0.7,2.3h-1.1c0-6.4,0-9.6-0.1-16l-1.7-0.4V8.4h3.9c0,2.7,0,4,0,6.6
	c0.4-0.5,0.9-0.9,1.5-1.2c0.6-0.2,1.2-0.3,1.9-0.3c0.7,0,1.4,0.1,2.1,0.3c0.6,0.2,1.1,0.6,1.5,1.1c0.5,0.6,0.8,1.3,1.1,2.1
	C135.9,17.8,136,18.7,136,19.6z M127.6,19.6c-0.1,1.4,0.2,2.8,0.8,4c0.2,0.4,0.5,0.7,0.9,0.9c0.4,0.2,0.9,0.3,1.4,0.3
	c0.9,0.1,1.7-0.3,2.3-1c0.3-0.5,0.5-1,0.6-1.6c0.1-0.8,0.2-1.6,0.2-2.3c0.1-1.4-0.2-2.8-0.8-4c-0.2-0.4-0.5-0.7-0.9-0.9
	c-0.4-0.2-0.9-0.3-1.4-0.3c-0.5,0-0.9,0.1-1.4,0.3c-0.4,0.2-0.7,0.4-0.9,0.8c-0.3,0.5-0.5,1-0.6,1.6C127.6,18,127.6,18.8,127.6,19.6
	L127.6,19.6z"/>
<path class="st6" d="M149,19.7c0,0.9-0.2,1.9-0.5,2.8c-0.3,0.8-0.7,1.5-1.2,2.1c-2.2,1.9-5.5,1.9-7.7,0c-0.5-0.6-0.9-1.3-1.2-2
	c-0.3-0.8-0.4-1.7-0.4-2.6c0-0.9,0.1-1.9,0.4-2.8c0.2-0.8,0.7-1.6,1.3-2.2c0.5-0.5,1-0.9,1.7-1.1c0.7-0.2,1.5-0.3,2.2-0.3
	c0.8,0,1.5,0.1,2.2,0.4c0.6,0.2,1.2,0.6,1.6,1.1c0.5,0.6,0.9,1.3,1.2,2.1C148.9,17.9,149,18.8,149,19.7z M140.4,19.6
	c-0.1,1.4,0.2,2.8,0.8,4c0.2,0.4,0.5,0.7,0.9,0.9c0.4,0.2,0.9,0.3,1.4,0.3c0.9,0.1,1.8-0.3,2.3-1c0.3-0.5,0.5-1,0.6-1.6
	c0.1-0.8,0.2-1.6,0.2-2.3c0.1-1.4-0.1-2.8-0.8-4c-0.2-0.4-0.5-0.7-0.9-0.9c-0.4-0.2-0.9-0.3-1.4-0.3c-0.9-0.1-1.7,0.3-2.3,1
	C140.6,16.9,140.3,18.3,140.4,19.6z"/>
<path class="st6" d="M154.4,20.2c0,0.5,0,0.9,0,1.3s0,0.7,0,0.9c0,0.2,0,0.4,0.1,0.6c0,0.2,0.1,0.3,0.2,0.5c0.3,0.7,1.1,1.2,1.9,1.1
	c0.4,0,0.8-0.1,1.2-0.2c0.4-0.1,0.7-0.3,1-0.6c0.3-0.3,0.6-0.6,0.8-1c0.2-0.5,0.3-1,0.3-1.5c0.1-2.4,0.1-3.6,0.1-5.9l-1.9-0.5V14
	l4.1,0.1l-0.3,10.7l1.7,0.5v0.9l-3.5,0.1c-0.1-1-0.1-1.5-0.2-2.4h-0.1c-0.4,0.7-1.1,1.3-1.8,1.8c-0.7,0.4-1.6,0.6-2.4,0.6
	c-0.5,0-1.1-0.1-1.5-0.3c-0.4-0.2-0.8-0.5-1.1-0.9c-0.3-0.5-0.5-1.1-0.6-1.8c-0.1-1-0.2-2-0.1-3c0-2,0.1-2.9,0.1-4.9l-1.5-0.4v-0.9
	l3.7,0.1C154.4,16.4,154.4,17.7,154.4,20.2z"/>
<path class="st6" d="M166.9,15.5l-1.7-0.5v-0.9l3.2,0.1c0.2,0.9,0.3,1.3,0.4,2.2h0.1c0.5-0.7,1.1-1.3,1.9-1.7
	c0.8-0.4,1.6-0.6,2.5-0.6c0.6,0,1.1,0.1,1.6,0.4c0.4,0.2,0.8,0.5,1.1,0.9c0.3,0.5,0.5,1.1,0.6,1.8c0.1,1,0.1,2,0.1,3
	c-0.1,2-0.1,3-0.2,4.9l1.7,0.5v0.9l-5.4-0.2v-0.9l1.5-0.4c0.1-2,0.1-3,0.2-5c0-1,0-1.7,0-2.2c0-0.4-0.1-0.8-0.3-1.1
	c-0.3-0.7-1.1-1.2-1.9-1.2c-0.4,0-0.8,0-1.2,0.2c-0.4,0.1-0.7,0.3-1.1,0.6c-0.3,0.3-0.6,0.6-0.8,1c-0.2,0.5-0.3,1-0.3,1.5
	c-0.1,2.4-0.1,3.6-0.2,5.9l1.5,0.5v0.9l-5.4-0.2v-0.9l1.7-0.4L166.9,15.5z"/>
<path class="st6" d="M179.9,20.7c0-0.9,0.2-1.9,0.5-2.7c0.2-0.8,0.7-1.5,1.2-2.1c0.4-0.4,1-0.8,1.6-1c0.7-0.2,1.4-0.3,2.1-0.3
	c0.6,0,1.2,0.2,1.8,0.5c0.6,0.3,1.1,0.8,1.4,1.4c0.1-2.2,0.1-3.3,0.2-5.5l-1.7-0.5V9.6l3.9,0.2c-0.3,6.4-0.4,9.6-0.7,16l1.7,0.5
	l-0.1,0.9l-3.5,0.1l-0.1-1.8c-0.4,0.6-0.9,1-1.6,1.3c-0.6,0.2-1.3,0.3-2,0.3c-0.7,0-1.4-0.2-2-0.4c-0.6-0.2-1.1-0.6-1.5-1.1
	c-0.5-0.6-0.8-1.4-1-2.1C180,22.5,179.9,21.6,179.9,20.7z M188.3,21c0.2-1.4-0.1-2.7-0.6-4c-0.2-0.4-0.5-0.7-0.8-0.9
	c-0.4-0.2-0.9-0.4-1.4-0.3c-0.9-0.1-1.8,0.3-2.3,1c-0.3,0.5-0.5,1-0.6,1.6c-0.2,0.8-0.3,1.6-0.3,2.3c-0.1,1.4,0.1,2.7,0.6,4
	c0.2,0.4,0.5,0.7,0.9,0.9c0.4,0.2,0.9,0.4,1.4,0.3c0.5,0,0.9,0,1.4-0.2c0.4-0.1,0.7-0.4,0.9-0.7c0.3-0.5,0.5-1,0.6-1.6
	C188.2,22.6,188.3,21.8,188.3,21L188.3,21z"/>
<path class="st7" d="M98.2,38.3c-0.1-0.4-0.1-0.6-0.2-0.9l-1.5,0.1c0,1,0.1,1.5,0.1,2.6l2.8-0.1c0.1-0.6,0.1-0.9,0.2-1.5h0.5
	c0,0.8,0,1.2,0.1,2c-2.1,0.1-3.2,0.1-5.3,0.2v-0.4l0.8-0.2l-0.3-5.4l-0.9-0.2v-0.4l5.2-0.2c0,0.8,0,1.2,0.1,1.9h-0.5l-0.3-1.4
	l-2.6,0.1c0,1,0.1,1.4,0.1,2.4l1.5-0.1c0-0.4,0.1-0.6,0.1-0.9h0.5l0.1,2.4L98.2,38.3z"/>
<path class="st7" d="M101.5,36l-0.7-0.2v-0.4h1.3l0.2,0.9l0,0c0.2-0.3,0.4-0.6,0.7-0.8c0.3-0.2,0.6-0.3,1-0.3c0.2,0,0.5,0,0.7,0.1
	c0.2,0.1,0.4,0.2,0.5,0.3c0.1,0.2,0.2,0.4,0.3,0.7c0.1,0.4,0.1,0.8,0.1,1.3c0,0.8,0,1.2,0.1,2l0.7,0.2v0.4l-2.2,0.1v-0.4l0.6-0.2
	c0-0.8,0-1.2-0.1-2c0-0.4,0-0.7-0.1-0.9c0-0.2-0.1-0.3-0.1-0.5c-0.2-0.3-0.5-0.5-0.8-0.4c-0.2,0-0.3,0-0.5,0.1
	c-0.2,0.1-0.3,0.2-0.4,0.3c-0.1,0.1-0.2,0.3-0.3,0.4c-0.1,0.2-0.1,0.4-0.1,0.6l0.1,2.4l0.6,0.2v0.4l-2.2,0.1v-0.4l0.7-0.2L101.5,36z
	"/>
<path class="st7" d="M109.2,35.1c0.5,0,0.9,0.1,1.3,0.4c0.3,0.2,0.5,0.6,0.5,1c0,0.5-0.2,0.7-0.6,0.7c-0.2,0-0.3,0-0.4-0.1
	c-0.1-0.1-0.2-0.2-0.2-0.4c0-0.1,0-0.3,0.1-0.4c0.1-0.1,0.2-0.2,0.3-0.2c-0.2-0.3-0.6-0.5-1-0.5c-0.4,0-0.8,0.2-1.1,0.5
	c-0.3,0.5-0.4,1-0.3,1.5c0,0.5,0.1,0.9,0.3,1.3c0.2,0.5,0.7,0.7,1.2,0.7c0.3,0,0.6-0.1,0.8-0.2c0.3-0.1,0.5-0.3,0.6-0.5l0.3,0.2
	c-0.2,0.3-0.5,0.6-0.8,0.8c-0.7,0.4-1.5,0.4-2.2,0.1c-0.3-0.2-0.6-0.4-0.8-0.7c-0.1-0.2-0.2-0.4-0.3-0.7c-0.1-0.3-0.1-0.5-0.1-0.8
	c0-0.4,0-0.7,0.1-1.1c0.1-0.3,0.2-0.6,0.4-0.8c0.2-0.2,0.4-0.4,0.7-0.6C108.6,35.2,108.9,35.1,109.2,35.1z"/>
<path class="st7" d="M115.6,37.4c0-0.4,0-0.7,0-0.9c0-0.2-0.1-0.3-0.1-0.5c-0.2-0.3-0.5-0.5-0.8-0.4c-0.2,0-0.3,0-0.5,0.1
	c-0.2,0.1-0.3,0.2-0.4,0.3c-0.1,0.1-0.2,0.3-0.3,0.4c-0.1,0.2-0.1,0.4-0.1,0.6c0,1,0,1.5,0.1,2.5l0.6,0.2V40l-2.2,0.1v-0.4l0.7-0.2
	c-0.1-2.4-0.1-3.6-0.2-6l-0.7-0.2v-0.4h1.6c0,1.2,0,1.8,0.1,3c0.2-0.3,0.4-0.5,0.7-0.7c0.3-0.2,0.6-0.3,1-0.3c0.2,0,0.4,0,0.7,0.1
	c0.2,0.1,0.4,0.2,0.5,0.3c0.1,0.2,0.2,0.5,0.3,0.7c0.1,0.4,0.1,0.8,0.1,1.3c0,0.8,0,1.2,0,2l0.7,0.2v0.4H115v-0.4l0.6-0.2
	L115.6,37.4z"/>
<path class="st7" d="M117.8,38.8c0-0.2,0-0.4,0.2-0.6c0.1-0.2,0.3-0.4,0.5-0.5c0.3-0.2,0.6-0.3,0.9-0.4c0.4-0.1,0.9-0.2,1.3-0.3
	c0-0.3-0.1-0.6-0.1-0.8c0-0.2-0.1-0.3-0.2-0.5c-0.1-0.1-0.2-0.3-0.4-0.3c-0.2-0.1-0.3-0.1-0.5-0.1c-0.2,0-0.3,0-0.5,0.1
	c-0.1,0.1-0.2,0.1-0.3,0.3c0.1,0.1,0.1,0.1,0.2,0.2c0,0.1,0.1,0.2,0.1,0.3c0,0.1,0,0.3-0.1,0.4c-0.1,0.1-0.2,0.1-0.4,0.1
	c-0.1,0-0.3,0-0.4-0.1c-0.1-0.1-0.2-0.3-0.2-0.4c0-0.2,0-0.4,0.1-0.5c0.1-0.2,0.2-0.3,0.4-0.4c0.2-0.1,0.4-0.2,0.6-0.2
	c0.2-0.1,0.4-0.1,0.6-0.1c0.5,0,0.9,0.1,1.2,0.4c0.5,0.6,0.7,1.3,0.6,2v1.3c0,0.2,0,0.4,0.1,0.6c0,0.1,0.2,0.2,0.3,0.2h0.4v0.3
	c-0.3,0.2-0.7,0.2-1,0.3c-0.1,0-0.2,0-0.2,0c-0.1,0-0.1-0.1-0.2-0.2c0-0.1-0.1-0.2-0.1-0.3c0-0.2,0-0.3,0-0.5l0,0
	c-0.2,0.3-0.4,0.6-0.7,0.7c-0.3,0.2-0.6,0.3-1,0.3c-0.3,0-0.7-0.1-0.9-0.3C117.9,39.5,117.7,39.2,117.8,38.8z M119.4,39.4
	c0.2,0,0.4-0.1,0.5-0.2c0.2-0.1,0.3-0.2,0.5-0.4c0.2-0.3,0.3-0.6,0.3-1c0-0.1,0-0.2,0-0.3v-0.3c-0.4,0.1-0.7,0.2-0.9,0.2
	c-0.2,0.1-0.4,0.2-0.6,0.3c-0.1,0.1-0.3,0.2-0.4,0.3c-0.1,0.1-0.1,0.3-0.1,0.5c0,0.2,0.1,0.4,0.2,0.6
	C119,39.4,119.2,39.4,119.4,39.4L119.4,39.4z"/>
<path class="st7" d="M123.3,35.4l-0.7-0.2v-0.4h1.3c0.1,0.4,0.1,0.5,0.2,0.9l0,0c0.2-0.3,0.4-0.6,0.7-0.8c0.3-0.2,0.6-0.3,1-0.3
	c0.2,0,0.5,0,0.7,0.1c0.2,0.1,0.3,0.2,0.5,0.4c0.1,0.2,0.2,0.5,0.3,0.7c0.1,0.4,0.1,0.8,0.1,1.2c0,0.8,0,1.2,0,2l0.7,0.2v0.4h-2.2
	v-0.4l0.6-0.2c0-0.8,0-1.2,0-2c0-0.3,0-0.6,0-0.9c0-0.2-0.1-0.3-0.1-0.5c-0.2-0.3-0.5-0.5-0.8-0.4c-0.2,0-0.3,0-0.5,0.1
	c-0.2,0.1-0.3,0.1-0.4,0.3c-0.1,0.1-0.2,0.3-0.3,0.4c-0.1,0.2-0.1,0.4-0.1,0.6c0,1,0,1.5,0,2.4l0.6,0.2v0.4h-2.2v-0.4l0.7-0.2
	L123.3,35.4z"/>
<path class="st7" d="M128.3,35l0.9-0.1c0-0.5,0.1-0.7,0.1-1.2l0.8-0.1v1.3h1.2v0.4h-1.2c0,1.3,0,2,0,3.3c0,0.2,0,0.3,0,0.4
	c0,0.1,0,0.1,0,0.2c0,0,0.1,0.1,0.1,0.1h0.2h0.6v0.3c-0.3,0.1-0.5,0.2-0.8,0.2c-0.2,0-0.4,0.1-0.5,0.1c-0.2,0-0.4-0.1-0.5-0.3
	c0-0.1-0.1-0.2-0.1-0.3c0-0.1,0-0.3,0-0.5c0-1.4,0-2.1,0-3.4h-0.9L128.3,35z"/>
<path class="st7" d="M132.8,37.3c0,0.4,0.1,0.8,0.2,1.1c0.1,0.3,0.3,0.5,0.5,0.6c0.2,0.1,0.5,0.2,0.7,0.2c0.3,0,0.5-0.1,0.8-0.2
	c0.2-0.1,0.5-0.3,0.6-0.5l0.3,0.2c-0.1,0.1-0.2,0.3-0.4,0.4c-0.3,0.3-0.6,0.5-0.9,0.6c-0.2,0.1-0.4,0.1-0.6,0.1
	c-0.4,0-0.8-0.1-1.1-0.3c-0.3-0.2-0.6-0.5-0.7-0.8c-0.1-0.2-0.2-0.4-0.2-0.6c0-0.2-0.1-0.5-0.1-0.7c-0.1-0.7,0.2-1.4,0.6-2
	c0.4-0.5,1-0.7,1.6-0.7c0.5,0,1.1,0.2,1.4,0.6c0.4,0.5,0.5,1,0.5,1.6v0.2c0,0,0,0.1,0,0.3L132.8,37.3z M133.9,35.2
	c-0.7,0-1.1,0.6-1.2,1.7h2.3v-0.3c0-0.4-0.1-0.7-0.3-1C134.6,35.3,134.3,35.2,133.9,35.2z"/>
<path class="st7" d="M136.8,37.3c0-0.4,0.1-0.8,0.2-1.1c0.1-0.3,0.3-0.6,0.5-0.9c0.2-0.2,0.4-0.3,0.6-0.4c0.3-0.1,0.6-0.2,0.9-0.2
	c0.3,0,0.5,0.1,0.8,0.2c0.2,0.1,0.4,0.3,0.6,0.6v-2.3l-0.7-0.2v-0.4h1.6v6.6l0.7,0.2v0.4l-1.4,0.1c0-0.3,0-0.4-0.1-0.8
	c-0.2,0.3-0.4,0.5-0.6,0.6c-0.3,0.1-0.5,0.2-0.8,0.2c-0.3,0-0.6,0-0.8-0.1c-0.2-0.1-0.5-0.2-0.6-0.4c-0.2-0.3-0.4-0.5-0.5-0.8
	C136.8,38.1,136.8,37.7,136.8,37.3z M140.2,37.3c0-0.6-0.1-1.1-0.3-1.6c-0.1-0.1-0.2-0.3-0.4-0.4c-0.2-0.1-0.4-0.1-0.6-0.1
	c-0.4,0-0.7,0.1-0.9,0.4c-0.1,0.2-0.2,0.4-0.2,0.7c-0.1,0.3-0.1,0.7-0.1,1c0,0.6,0.1,1.1,0.3,1.6c0.1,0.1,0.2,0.3,0.4,0.4
	c0.2,0.1,0.4,0.1,0.6,0.1c0.2,0,0.4,0,0.6-0.1c0.1-0.1,0.3-0.2,0.4-0.3c0.1-0.2,0.2-0.4,0.2-0.7C140.2,38,140.2,37.7,140.2,37.3
	L140.2,37.3z"/>
<path class="st7" d="M148.4,37.7h-2.4l-0.6,1.6l0.8,0.2v0.4h-2.1v-0.4l0.8-0.2c0.9-2.4,1.4-3.6,2.3-6h0.9c0.8,2.4,1.2,3.7,2.1,6.1
	l0.7,0.2V40h-2.5v-0.4l0.8-0.2C148.7,38.6,148.6,38.3,148.4,37.7z M146.1,37.1h2.1l-1-3.1l0,0C146.8,35.2,146.6,35.8,146.1,37.1z"/>
<path class="st7" d="M152.8,39.6c0.3,0,0.6,0,0.9-0.2c0.2-0.1,0.3-0.3,0.3-0.6c0-0.1,0-0.3-0.1-0.4c-0.1-0.1-0.2-0.2-0.3-0.3
	c-0.1-0.1-0.3-0.1-0.4-0.2c-0.1-0.1-0.3-0.1-0.4-0.2l-0.6-0.2c-0.2-0.1-0.3-0.2-0.5-0.3c-0.1-0.1-0.2-0.3-0.3-0.4
	c-0.3-0.6-0.1-1.2,0.4-1.6c0.4-0.3,0.9-0.4,1.4-0.4c0.4,0,0.8,0.1,1.1,0.3c0.3,0.2,0.4,0.5,0.4,0.8c0,0.2,0,0.3-0.1,0.5
	c-0.1,0.1-0.2,0.2-0.4,0.2c-0.1,0-0.2,0-0.3-0.1c-0.1-0.1-0.1-0.2-0.1-0.3c0-0.1,0-0.2,0.1-0.3c0.1-0.1,0.2-0.2,0.3-0.2
	c-0.1-0.1-0.2-0.2-0.4-0.3c-0.2-0.1-0.4-0.1-0.6-0.1c-0.7,0-1.1,0.2-1.1,0.8c0,0.1,0,0.2,0.1,0.3c0,0.1,0.1,0.2,0.2,0.2
	c0.1,0.1,0.2,0.1,0.4,0.2l0.5,0.2l0.6,0.2c0.2,0.1,0.4,0.2,0.5,0.3c0.2,0.1,0.3,0.3,0.4,0.4c0.1,0.2,0.1,0.4,0.1,0.6
	c0,0.2-0.1,0.4-0.2,0.6c-0.1,0.2-0.2,0.3-0.4,0.5c-0.2,0.1-0.4,0.2-0.6,0.3c-0.3,0.1-0.5,0.1-0.8,0.1c-0.5,0-0.9-0.1-1.3-0.3
	c-0.3-0.2-0.5-0.5-0.5-0.9c0-0.2,0-0.3,0.1-0.5c0.1-0.1,0.2-0.2,0.4-0.2c0.1,0,0.3,0,0.4,0.1c0.1,0.1,0.2,0.2,0.1,0.3
	c0,0.2-0.1,0.4-0.3,0.5c0.1,0.1,0.3,0.2,0.4,0.3C152.4,39.6,152.6,39.6,152.8,39.6z"/>
<path class="st7" d="M158.1,35c0.5,0,0.9,0.1,1.3,0.4c0.3,0.2,0.5,0.6,0.4,1c0,0.5-0.2,0.7-0.6,0.7c-0.2,0-0.3-0.1-0.4-0.2
	c-0.1-0.1-0.1-0.2-0.1-0.4c0-0.1,0-0.3,0.1-0.4c0.1-0.1,0.2-0.2,0.3-0.2c-0.2-0.4-0.6-0.6-1-0.5c-0.4-0.1-0.8,0.1-1.1,0.4
	c-0.3,0.5-0.4,1-0.4,1.5c0,0.5,0,0.9,0.2,1.3c0.2,0.5,0.7,0.8,1.2,0.7c0.3,0,0.6,0,0.8-0.2c0.3-0.1,0.5-0.3,0.7-0.5l0.3,0.3
	c-0.2,0.3-0.5,0.6-0.9,0.8c-0.4,0.2-0.7,0.2-1.1,0.2c-0.4,0-0.8-0.1-1.1-0.3c-0.3-0.2-0.6-0.5-0.7-0.8c-0.1-0.2-0.2-0.4-0.2-0.7
	c-0.1-0.3-0.1-0.5-0.1-0.8c0-0.4,0.1-0.7,0.2-1.1c0.1-0.3,0.3-0.6,0.5-0.8c0.2-0.2,0.5-0.4,0.8-0.5C157.4,35.1,157.7,35,158.1,35z"
	/>
<path class="st7" d="M161.5,37.8c0,0.4,0,0.8,0.1,1.1c0.1,0.3,0.3,0.5,0.5,0.6c0.2,0.1,0.5,0.2,0.7,0.2c0.3,0,0.5,0,0.8-0.2
	c0.2-0.1,0.5-0.3,0.6-0.5l0.3,0.2c-0.1,0.1-0.2,0.3-0.4,0.4c-0.1,0.1-0.3,0.2-0.4,0.3c-0.2,0.1-0.4,0.2-0.5,0.2
	c-0.6,0.1-1.2,0-1.8-0.2c-0.3-0.2-0.6-0.5-0.7-0.8c-0.1-0.2-0.1-0.4-0.2-0.6c0-0.2,0-0.5,0-0.7c0-0.7,0.2-1.4,0.6-2
	c0.4-0.5,1-0.7,1.6-0.6c0.5,0,1.1,0.2,1.4,0.6c0.3,0.5,0.5,1,0.4,1.6c0,0.1,0,0.1,0,0.2c0,0.1,0,0.2,0,0.3L161.5,37.8z M162.8,35.7
	c-0.7,0-1.2,0.5-1.3,1.6l2.3,0.1v-0.3c0-0.4-0.1-0.7-0.2-1C163.4,35.8,163.1,35.7,162.8,35.7L162.8,35.7z"/>
<path class="st7" d="M166.2,36l-0.7-0.2v-0.4l1.3,0.1c0.1,0.4,0.1,0.6,0.2,0.9l0,0c0.2-0.3,0.5-0.5,0.8-0.7c0.3-0.2,0.7-0.2,1-0.2
	c0.2,0,0.5,0.1,0.7,0.2c0.2,0.1,0.3,0.2,0.4,0.4c0.1,0.2,0.2,0.5,0.2,0.7c0,0.4,0,0.8,0,1.2c0,0.8-0.1,1.2-0.1,2l0.7,0.2v0.4
	l-2.2-0.1V40l0.6-0.2c0-0.8,0.1-1.2,0.1-2c0-0.3,0-0.6,0-0.9c0-0.2,0-0.3-0.1-0.5c-0.1-0.3-0.5-0.5-0.8-0.5c-0.2,0-0.3,0-0.5,0.1
	c-0.2,0.1-0.3,0.1-0.4,0.2c-0.1,0.1-0.2,0.3-0.3,0.4c-0.1,0.2-0.1,0.4-0.1,0.6l-0.1,2.4l0.6,0.2v0.4l-2.2-0.1v-0.4l0.7-0.1
	C166.1,38.3,166.2,37.5,166.2,36z"/>
<path class="st7" d="M171.3,35.7l0.9-0.1c0.1-0.5,0.1-0.7,0.2-1.2l0.8-0.1l-0.1,1.3h1.2v0.5l-1.2,0l-0.1,3.3c0,0.1,0,0.3,0,0.4
	c0,0.1,0,0.1,0,0.2c0,0,0,0.1,0.1,0.1c0.1,0,0.2,0,0.2,0h0.6v0.3c-0.3,0.1-0.5,0.1-0.8,0.2c-0.2,0-0.4,0.1-0.5,0.1
	c-0.2,0-0.4-0.1-0.5-0.4c0-0.1,0-0.2,0-0.3c0-0.1,0-0.3,0-0.5c0.1-1.4,0.1-2.1,0.2-3.4h-0.9L171.3,35.7z"/>
</svg>
