<svg id="Layer_1" data-name="Layer 1" xmlns="http://www.w3.org/2000/svg" xmlns:xlink="http://www.w3.org/1999/xlink" viewBox="0 0 262 71.53"><defs><style>.cls-1,.cls-2,.cls-3,.cls-4,.cls-5,.cls-6{stroke:#010101;stroke-miterlimit:10;stroke-width:2px;}.cls-1{fill:url(#radial-gradient);}.cls-2{fill:url(#radial-gradient-2);}.cls-3{fill:url(#radial-gradient-3);}.cls-4{fill:url(#radial-gradient-4);}.cls-5{fill:url(#radial-gradient-5);}.cls-6{fill:url(#radial-gradient-6);}.cls-7{fill:#e8ad22;}.cls-8{fill:#c7842a;}</style><radialGradient id="radial-gradient" cx="41.62" cy="100.61" r="31.05" gradientUnits="userSpaceOnUse"><stop offset="0" stop-color="#1c1544"/><stop offset="0.41" stop-color="#1a133d"/><stop offset="1" stop-color="#191137"/></radialGradient><radialGradient id="radial-gradient-2" cx="58.61" cy="34.6" r="22.82" xlink:href="#radial-gradient"/><radialGradient id="radial-gradient-3" cx="224.88" cy="100.61" r="31.05" xlink:href="#radial-gradient"/><radialGradient id="radial-gradient-4" cx="203.39" cy="34.6" r="22.82" xlink:href="#radial-gradient"/><radialGradient id="radial-gradient-5" cx="224.42" cy="104.78" r="0" xlink:href="#radial-gradient"/><radialGradient id="radial-gradient-6" cx="133.25" cy="80.34" r="66.35" xlink:href="#radial-gradient"/></defs><title>logo</title><path class="cls-1" d="M76.83,77.25A473.49,473.49,0,0,0,4.45,85.93c7.28,6.33,10.83,9.57,17.75,16.22-4.78,8.66-7.09,13-11.53,21.83A444,444,0,0,1,78.79,116Q77.89,96.63,76.83,77.25Z" transform="translate(-2.25 -53.83)"/><polygon class="cls-2" points="40.74 52.13 76.48 61.47 73.73 7.72 40.74 52.13"/><path class="cls-3" d="M189.67,77.25a473.49,473.49,0,0,1,72.38,8.68c-7.28,6.33-10.83,9.57-17.75,16.22,4.78,8.66,7.09,13,11.53,21.83A444,444,0,0,0,187.71,116Q188.61,96.63,189.67,77.25Z" transform="translate(-2.25 -53.83)"/><polygon class="cls-4" points="221.25 52.13 185.52 61.47 188.27 7.72 221.25 52.13"/><path class="cls-5" d="M224.42,104.78" transform="translate(-2.25 -53.83)"/><path class="cls-6" d="M43.8,59a966.67,966.67,0,0,1,178.9,0c-.08,15.65,1,31.24.84,46.89a977.83,977.83,0,0,0-180.58,0C42.85,90.21,43.88,74.62,43.8,59Z" transform="translate(-2.25 -53.83)"/><path class="cls-7" d="M80,80.92a6.68,6.68,0,0,1-2.42-.3,4.7,4.7,0,0,1-1.84-1.05c-.07.52-.11.78-.18,1.3l-1.25.06c-.1-2-.14-3-.24-5l1.37-.06a4.82,4.82,0,0,0,1.2,3,3.83,3.83,0,0,0,2.89.84c2.12-.1,3.15-.94,3.09-2.56a2.67,2.67,0,0,0-.33-1.23,3.07,3.07,0,0,0-.84-.93,5.7,5.7,0,0,0-1.3-.75c-.51-.22-1.08-.45-1.72-.67s-1.37-.5-1.93-.75A5.64,5.64,0,0,1,75.08,72a3.74,3.74,0,0,1-.9-1.16,4.27,4.27,0,0,1-.37-1.64A4.17,4.17,0,0,1,75,65.81a6,6,0,0,1,7.23-.24c0-.4.08-.61.14-1l1.26,0,.2,5-1.28,0a4.88,4.88,0,0,0-.93-3.08,3.1,3.1,0,0,0-2.6-.86c-2.06.09-3,1.06-3,2.91a3.08,3.08,0,0,0,.18.94,1.72,1.72,0,0,0,.54.69,3.87,3.87,0,0,0,1,.6c.43.19,1,.41,1.65.67a23,23,0,0,1,2.43,1,7.86,7.86,0,0,1,1.65,1.08,3.68,3.68,0,0,1,1.31,2.8,4.54,4.54,0,0,1-.3,1.84,4,4,0,0,1-1,1.41,4.74,4.74,0,0,1-1.55.91A7.11,7.11,0,0,1,80,80.92Z" transform="translate(-2.25 -53.83)"/><path class="cls-7" d="M92.87,83.28l0,.91-6,.21,0-.91,1.7-.48c-.2-5.33-.29-8-.48-13.33l-1.75-.36,0-.91,3.24-.11c.15.68.23,1,.39,1.69a4,4,0,0,1,1.58-1.57,4.8,4.8,0,0,1,2-.48,6.34,6.34,0,0,1,2.09.27,3.3,3.3,0,0,1,1.55,1,6.49,6.49,0,0,1,1.12,2,8,8,0,0,1,.47,2.57,8.26,8.26,0,0,1-.37,2.69,6.15,6.15,0,0,1-1.11,2.13,4.48,4.48,0,0,1-3.55,1.55,4.07,4.07,0,0,1-1.73-.3,3.55,3.55,0,0,1-1.46-1.24l.14,4.31Zm-2.49-9.21a7.39,7.39,0,0,0,.91,3.84,2.6,2.6,0,0,0,.9.85,2.67,2.67,0,0,0,1.37.25,2.57,2.57,0,0,0,2.22-1.11,3.75,3.75,0,0,0,.54-1.56A13.69,13.69,0,0,0,96.43,74a7.36,7.36,0,0,0-.9-3.82,2.86,2.86,0,0,0-.93-.85,2.69,2.69,0,0,0-1.38-.25,3,3,0,0,0-1.34.3,2,2,0,0,0-.85.79,4.64,4.64,0,0,0-.53,1.58A11.42,11.42,0,0,0,90.38,74.07Z" transform="translate(-2.25 -53.83)"/><path class="cls-7" d="M103.13,74a7.18,7.18,0,0,0,.51,2.68,2.85,2.85,0,0,0,1.3,1.44,3.79,3.79,0,0,0,1.81.4,4.33,4.33,0,0,0,1.92-.48,5.35,5.35,0,0,0,1.53-1.21l.72.52a10.22,10.22,0,0,1-.84,1,5.33,5.33,0,0,1-2.3,1.43,6,6,0,0,1-1.58.23,5.67,5.67,0,0,1-2.74-.59,4.36,4.36,0,0,1-1.85-1.88,5.86,5.86,0,0,1-.53-1.51,9.89,9.89,0,0,1-.21-1.81,7.22,7.22,0,0,1,1.32-4.86,4.88,4.88,0,0,1,3.91-1.8,4.5,4.5,0,0,1,3.59,1.34A5.74,5.74,0,0,1,111,72.82c0,.15,0,.28,0,.41s0,.34,0,.63C107.82,73.92,106.26,74,103.13,74ZM106,68.81q-2.7.06-2.87,4.13l5.6-.12v-.74a4,4,0,0,0-.74-2.45A2.34,2.34,0,0,0,106,68.81Z" transform="translate(-2.25 -53.83)"/><path class="cls-7" d="M114.19,63.67l-1.74-.39,0-.91,3.94-.06c.08,6.4.13,9.6.22,16l1.72.4v.91l-5.59.08,0-.91,1.71-.45C114.33,72.47,114.29,69.54,114.19,63.67Z" transform="translate(-2.25 -53.83)"/><path class="cls-7" d="M121.15,63.58l-1.74-.4,0-.91,3.94,0c0,6.4.08,9.6.13,16l1.73.41v.91l-5.6,0v-.91l1.72-.44Z" transform="translate(-2.25 -53.83)"/><path class="cls-7" d="M138.23,73.41a8.52,8.52,0,0,1-.43,2.75,6.23,6.23,0,0,1-1.19,2.14A4.49,4.49,0,0,1,133,79.74a3.91,3.91,0,0,1-2-.52,4.28,4.28,0,0,1-1.59-1.94c-.27.9-.4,1.35-.66,2.25h-1.05c0-6.4,0-9.6-.08-16l-1.74-.41v-.91l3.93,0c0,2.65,0,4,0,6.62a3.79,3.79,0,0,1,1.51-1.18,5,5,0,0,1,1.87-.33,6,6,0,0,1,2.08.33,3.33,3.33,0,0,1,1.52,1.07,6.14,6.14,0,0,1,1.07,2.07A8.6,8.6,0,0,1,138.23,73.41Zm-8.4,0a7.69,7.69,0,0,0,.8,4,2.53,2.53,0,0,0,.87.88,2.69,2.69,0,0,0,1.36.3,2.61,2.61,0,0,0,2.26-1,4.13,4.13,0,0,0,.58-1.6,13.7,13.7,0,0,0,.18-2.35,7.85,7.85,0,0,0-.78-4,2.78,2.78,0,0,0-.9-.88,2.73,2.73,0,0,0-1.37-.3,3.22,3.22,0,0,0-1.35.26,1.94,1.94,0,0,0-.88.77,5.18,5.18,0,0,0-.58,1.61A12.33,12.33,0,0,0,129.83,73.44Z" transform="translate(-2.25 -53.83)"/><path class="cls-7" d="M151.27,73.52a8.53,8.53,0,0,1-.47,2.75,6,6,0,0,1-1.24,2.12,5.94,5.94,0,0,1-7.7,0,5.66,5.66,0,0,1-1.17-2,8.24,8.24,0,0,1-.4-2.63,9,9,0,0,1,.44-2.78A5.6,5.6,0,0,1,142,68.76a4.36,4.36,0,0,1,1.67-1.09,6.51,6.51,0,0,1,2.21-.32,6.73,6.73,0,0,1,2.23.36,4.16,4.16,0,0,1,1.65,1.08,5.24,5.24,0,0,1,1.17,2.07A8.48,8.48,0,0,1,151.27,73.52Zm-8.58-.06a7.8,7.8,0,0,0,.78,4,2.6,2.6,0,0,0,.9.88,2.72,2.72,0,0,0,1.37.32,2.66,2.66,0,0,0,2.31-1,4.22,4.22,0,0,0,.61-1.59,13.4,13.4,0,0,0,.21-2.35,7.58,7.58,0,0,0-.76-4,2.63,2.63,0,0,0-.91-.88,2.83,2.83,0,0,0-1.39-.32,2.52,2.52,0,0,0-2.28,1A7.34,7.34,0,0,0,142.69,73.46Z" transform="translate(-2.25 -53.83)"/><path class="cls-7" d="M156.62,74c0,.48,0,.89,0,1.25s0,.66,0,.91a4.47,4.47,0,0,0,.09.64,1.84,1.84,0,0,0,.17.47,1.89,1.89,0,0,0,1.86,1.13,3,3,0,0,0,1.16-.2,3.2,3.2,0,0,0,1-.58,2.87,2.87,0,0,0,.75-1,5.12,5.12,0,0,0,.31-1.51c.05-2.38.07-3.56.13-5.94l-1.95-.46,0-.91,4.14.09-.25,10.66,1.71.47,0,.91-3.46.14c-.07-1-.11-1.47-.19-2.45H162a4.87,4.87,0,0,1-1.8,1.75,4.71,4.71,0,0,1-2.4.61,3.7,3.7,0,0,1-1.54-.34,2.58,2.58,0,0,1-1.09-.91,4.26,4.26,0,0,1-.61-1.75,19.71,19.71,0,0,1-.14-3c0-2,.05-2.94.08-4.91l-1.5-.44v-.92l3.69.06C156.69,70.23,156.67,71.49,156.62,74Z" transform="translate(-2.25 -53.83)"/><path class="cls-7" d="M169.14,69.32l-1.72-.46,0-.91,3.24.08c.18.9.26,1.35.44,2.24h.09a4.91,4.91,0,0,1,1.86-1.73,4.75,4.75,0,0,1,2.48-.58,4.09,4.09,0,0,1,1.61.36,2.79,2.79,0,0,1,1.12.93,4,4,0,0,1,.58,1.77,18.44,18.44,0,0,1,.08,3c-.06,2-.1,3-.17,4.91l1.7.49,0,.91-5.37-.19,0-.91,1.51-.37c.06-2,.1-3,.16-5,0-1,0-1.67,0-2.15a3.33,3.33,0,0,0-.25-1.13,2,2,0,0,0-1.94-1.15,3.15,3.15,0,0,0-1.22.18,3.66,3.66,0,0,0-1.05.57,2.67,2.67,0,0,0-.76,1,4.77,4.77,0,0,0-.33,1.51c-.07,2.38-.1,3.56-.17,5.94l1.48.46,0,.91-5.38-.15,0-.91,1.73-.37Z" transform="translate(-2.25 -53.83)"/><path class="cls-7" d="M182.18,74.53a10,10,0,0,1,.48-2.74,5.44,5.44,0,0,1,1.23-2.09,4.22,4.22,0,0,1,1.58-1,5.49,5.49,0,0,1,2.1-.28,4.17,4.17,0,0,1,1.8.46,3.65,3.65,0,0,1,1.41,1.41c.09-2.2.14-3.3.24-5.5l-1.72-.5,0-.91,3.93.17c-.29,6.4-.44,9.59-.73,16l1.7.5-.05.91-3.46.06-.1-1.82A3.77,3.77,0,0,1,189,80.53a4.81,4.81,0,0,1-2,.31,6.05,6.05,0,0,1-2-.42,3.4,3.4,0,0,1-1.48-1.13,6.68,6.68,0,0,1-1-2.12A8.08,8.08,0,0,1,182.18,74.53Zm8.4.32a7.65,7.65,0,0,0-.62-4,2.57,2.57,0,0,0-.83-.92,2.75,2.75,0,0,0-1.36-.35,2.56,2.56,0,0,0-2.31,1,4,4,0,0,0-.65,1.57,13,13,0,0,0-.27,2.35,7.89,7.89,0,0,0,.62,4,2.83,2.83,0,0,0,.86.92,2.68,2.68,0,0,0,1.35.35,3.15,3.15,0,0,0,1.35-.2,1.89,1.89,0,0,0,.9-.72,5.11,5.11,0,0,0,.65-1.59A12.08,12.08,0,0,0,190.58,74.85Z" transform="translate(-2.25 -53.83)"/><path class="cls-8" d="M100.4,92.18c-.08-.37-.12-.56-.21-.93l-1.52.07c0,1,.07,1.53.12,2.55l2.76-.12c.08-.6.13-.89.22-1.49l.53,0c0,.82,0,1.22.08,2-2.13.08-3.2.13-5.34.23v-.39l.85-.23-.25-5.4-.88-.15v-.39l5.17-.23c0,.77,0,1.16.08,1.93l-.48,0-.35-1.39-2.62.12c0,1,.07,1.43.11,2.38l1.52-.06c0-.38.08-.57.13-.94l.46,0,.11,2.41Z" transform="translate(-2.25 -53.83)"/><path class="cls-8" d="M103.76,89.83l-.71-.15,0-.37,1.33,0,.23.9h0a2,2,0,0,1,.71-.76,2,2,0,0,1,1-.31,1.6,1.6,0,0,1,.67.11,1.07,1.07,0,0,1,.48.35,1.76,1.76,0,0,1,.29.7,8.51,8.51,0,0,1,.12,1.25c0,.8,0,1.2.07,2l.7.15,0,.37-2.2.08,0-.37.61-.2c0-.81,0-1.22-.07-2,0-.39,0-.68-.06-.88a1.72,1.72,0,0,0-.13-.46.85.85,0,0,0-.83-.42,1.66,1.66,0,0,0-.49.11,1.33,1.33,0,0,0-.41.27,1,1,0,0,0-.28.43,2.07,2.07,0,0,0-.1.63l.1,2.43.61.15,0,.38-2.2.08v-.37l.69-.2Z" transform="translate(-2.25 -53.83)"/><path class="cls-8" d="M111.48,88.92a2,2,0,0,1,1.29.36,1.27,1.27,0,0,1,.5,1c0,.47-.17.7-.55.72a.56.56,0,0,1-.42-.14.5.5,0,0,1-.15-.39.58.58,0,0,1,.11-.39.68.68,0,0,1,.33-.24,1,1,0,0,0-1-.47,1.26,1.26,0,0,0-1.08.51,2.63,2.63,0,0,0-.29,1.54,2.77,2.77,0,0,0,.28,1.31,1.23,1.23,0,0,0,1.21.67,1.87,1.87,0,0,0,.8-.21,1.82,1.82,0,0,0,.64-.53l.29.21a2.58,2.58,0,0,1-.82.85,2.46,2.46,0,0,1-2.22.07,1.75,1.75,0,0,1-.76-.74,2.84,2.84,0,0,1-.27-.66,4.06,4.06,0,0,1-.11-.8,3.34,3.34,0,0,1,.13-1.08,2.43,2.43,0,0,1,.45-.84,2,2,0,0,1,.72-.55A2.7,2.7,0,0,1,111.48,88.92Z" transform="translate(-2.25 -53.83)"/><path class="cls-8" d="M117.8,91.2c0-.39,0-.69,0-.88a1.42,1.42,0,0,0-.13-.46.81.81,0,0,0-.81-.43,1.71,1.71,0,0,0-.5.1,1.43,1.43,0,0,0-.41.26,1.13,1.13,0,0,0-.29.43,2,2,0,0,0-.1.59c0,1,0,1.49.06,2.48l.62.15v.38l-2.2.05V93.5l.7-.19c-.07-2.41-.1-3.61-.16-6l-.71-.16v-.37l1.6,0c0,1.22,0,1.83.07,3a2.13,2.13,0,0,1,.72-.71,2,2,0,0,1,1-.28,1.76,1.76,0,0,1,.66.12,1.15,1.15,0,0,1,.48.35,1.73,1.73,0,0,1,.27.71,7.48,7.48,0,0,1,.11,1.25c0,.8,0,1.21,0,2l.71.16v.38l-2.2,0v-.37l.61-.19Z" transform="translate(-2.25 -53.83)"/><path class="cls-8" d="M120,92.67a1.34,1.34,0,0,1,.15-.64,1.38,1.38,0,0,1,.5-.49,3.38,3.38,0,0,1,.89-.39,11.3,11.3,0,0,1,1.31-.3,5.59,5.59,0,0,0-.12-.83,2.16,2.16,0,0,0-.16-.49.81.81,0,0,0-.37-.34,1.18,1.18,0,0,0-.5-.11,1.35,1.35,0,0,0-.46.1.53.53,0,0,0-.27.26.6.6,0,0,1,.19.23.74.74,0,0,1,.06.27.42.42,0,0,1-.14.36.53.53,0,0,1-.37.14.42.42,0,0,1-.36-.14.52.52,0,0,1-.15-.4.82.82,0,0,1,.14-.51,1.32,1.32,0,0,1,.4-.38,1.81,1.81,0,0,1,.57-.24,2.28,2.28,0,0,1,.63-.09,1.65,1.65,0,0,1,1.23.42,2.77,2.77,0,0,1,.6,2l0,1.33a2.42,2.42,0,0,0,.07.62.26.26,0,0,0,.27.17h.41v.27a2.8,2.8,0,0,1-1,.28.53.53,0,0,1-.23,0,.34.34,0,0,1-.15-.16,1.26,1.26,0,0,1-.08-.3,3.23,3.23,0,0,1,0-.48h0a2.07,2.07,0,0,1-.73.74,2,2,0,0,1-1,.28,1.25,1.25,0,0,1-.91-.29A1.13,1.13,0,0,1,120,92.67Zm1.63.6a1.22,1.22,0,0,0,.53-.15,1.31,1.31,0,0,0,.47-.37,1.62,1.62,0,0,0,.26-1c0-.1,0-.21,0-.31l0-.28q-.55.12-.93.24a2.5,2.5,0,0,0-.59.28A.93.93,0,0,0,121,92a1.34,1.34,0,0,0-.08.46,1,1,0,0,0,.19.6A.63.63,0,0,0,121.6,93.27Z" transform="translate(-2.25 -53.83)"/><path class="cls-8" d="M125.52,89.26l-.71-.16v-.38h1.32c.09.36.13.54.21.91h0a2,2,0,0,1,.73-.75,2.06,2.06,0,0,1,1-.28,1.78,1.78,0,0,1,.67.12,1.23,1.23,0,0,1,.47.37,1.63,1.63,0,0,1,.26.71A6.78,6.78,0,0,1,129.6,91c0,.81,0,1.21,0,2l.7.17v.37l-2.2,0v-.37l.61-.18c0-.82,0-1.22,0-2a6.54,6.54,0,0,0,0-.88,1.55,1.55,0,0,0-.11-.46.86.86,0,0,0-.82-.44,1.64,1.64,0,0,0-.49.1,1.46,1.46,0,0,0-.42.25,1.13,1.13,0,0,0-.29.43,1.78,1.78,0,0,0-.11.63c0,1,0,1.46,0,2.43l.61.17v.37l-2.2,0v-.37l.7-.19Z" transform="translate(-2.25 -53.83)"/><path class="cls-8" d="M130.58,88.79l.89-.13c0-.46.06-.69.11-1.15l.77-.12v1.26h1.17v.45h-1.17c0,1.3,0,2,0,3.26,0,.2,0,.34,0,.42a.84.84,0,0,0,0,.19.15.15,0,0,0,.1.09l.24,0h.64v.27a5.92,5.92,0,0,1-.77.24,2.62,2.62,0,0,1-.53.08.51.51,0,0,1-.53-.33,1,1,0,0,1-.06-.28c0-.11,0-.28,0-.52,0-1.37,0-2.05,0-3.43h-.89Z" transform="translate(-2.25 -53.83)"/><path class="cls-8" d="M135,91.16a3,3,0,0,0,.18,1.11,1.2,1.2,0,0,0,.52.6,1.53,1.53,0,0,0,.74.18,1.73,1.73,0,0,0,.79-.18,2.24,2.24,0,0,0,.63-.49l.29.22a2.8,2.8,0,0,1-.35.41,2.07,2.07,0,0,1-.95.57,2.63,2.63,0,0,1-.65.08,2.29,2.29,0,0,1-1.12-.27,1.77,1.77,0,0,1-.74-.79,2.26,2.26,0,0,1-.2-.62,4.32,4.32,0,0,1-.07-.74,3,3,0,0,1,.58-2,2,2,0,0,1,1.62-.7,1.81,1.81,0,0,1,1.45.58,2.39,2.39,0,0,1,.5,1.6v.17s0,.14,0,.26ZM136.2,89c-.73,0-1.13.56-1.2,1.67h2.29v-.3a1.64,1.64,0,0,0-.28-1A1,1,0,0,0,136.2,89Z" transform="translate(-2.25 -53.83)"/><path class="cls-8" d="M139,91.15a4.17,4.17,0,0,1,.16-1.13,2.27,2.27,0,0,1,.47-.87,1.71,1.71,0,0,1,.63-.44,2.26,2.26,0,0,1,.85-.15,1.8,1.8,0,0,1,.75.16,1.55,1.55,0,0,1,.59.56l0-2.26-.71-.18v-.37h1.6l0,6.57.7.18v.37l-1.42.08c0-.3,0-.45-.06-.75a1.62,1.62,0,0,1-.65.59,2,2,0,0,1-.79.15,2.47,2.47,0,0,1-.84-.14,1.39,1.39,0,0,1-.62-.44,2.57,2.57,0,0,1-.46-.85A3.51,3.51,0,0,1,139,91.15Zm3.44,0a3.21,3.21,0,0,0-.31-1.63,1.16,1.16,0,0,0-.36-.37,1.11,1.11,0,0,0-.56-.12,1.06,1.06,0,0,0-.93.42,1.69,1.69,0,0,0-.24.66,5.54,5.54,0,0,0-.07,1,3.18,3.18,0,0,0,.31,1.63,1,1,0,0,0,.36.36,1.13,1.13,0,0,0,.56.13,1.32,1.32,0,0,0,.55-.1.86.86,0,0,0,.36-.32,2.29,2.29,0,0,0,.24-.66A6.28,6.28,0,0,0,142.47,91.16Z" transform="translate(-2.25 -53.83)"/><path class="cls-8" d="M150.62,91.48l-2.45,0-.58,1.62.75.2v.39l-2.14,0v-.39l.75-.18c.9-2.42,1.36-3.63,2.28-6h.86c.83,2.45,1.24,3.67,2.06,6.12l.73.2v.4l-2.51,0v-.39l.75-.18C150.93,92.46,150.83,92.13,150.62,91.48Zm-2.26-.57,2.1,0-1-3.12h0C149,89.05,148.8,89.67,148.36,90.91Z" transform="translate(-2.25 -53.83)"/><path class="cls-8" d="M155.08,93.44a1.56,1.56,0,0,0,.85-.18.7.7,0,0,0,.33-.59.59.59,0,0,0-.11-.38,1,1,0,0,0-.3-.27,2,2,0,0,0-.42-.2,4,4,0,0,0-.45-.15l-.55-.2a2.92,2.92,0,0,1-.48-.29,1.34,1.34,0,0,1-.33-.42,1.39,1.39,0,0,1,.39-1.64,2,2,0,0,1,1.35-.36,1.94,1.94,0,0,1,1.15.33,1,1,0,0,1,.41.84.7.7,0,0,1-.14.46.44.44,0,0,1-.37.15.48.48,0,0,1-.34-.13.42.42,0,0,1-.13-.34.56.56,0,0,1,.09-.31.6.6,0,0,1,.25-.2.8.8,0,0,0-.35-.28,1.26,1.26,0,0,0-.55-.1c-.74,0-1.11.23-1.12.75a.75.75,0,0,0,.07.35.59.59,0,0,0,.21.24,1.51,1.51,0,0,0,.36.18l.49.18.61.23a2.3,2.3,0,0,1,.54.28,1.55,1.55,0,0,1,.39.42,1.21,1.21,0,0,1,.13.62,1.24,1.24,0,0,1-.16.62,1.32,1.32,0,0,1-.42.46,2,2,0,0,1-.64.27,2.9,2.9,0,0,1-.8.08,2.33,2.33,0,0,1-1.3-.35,1,1,0,0,1-.47-.9.79.79,0,0,1,.14-.46.47.47,0,0,1,.39-.16.52.52,0,0,1,.36.14.42.42,0,0,1,.15.34A.74.74,0,0,1,154,93a.79.79,0,0,0,.42.3A2.07,2.07,0,0,0,155.08,93.44Z" transform="translate(-2.25 -53.83)"/><path class="cls-8" d="M160.34,88.88a2,2,0,0,1,1.26.43,1.27,1.27,0,0,1,.44,1c0,.47-.21.7-.59.69a.57.57,0,0,1-.41-.16.52.52,0,0,1-.14-.39.62.62,0,0,1,.14-.39.65.65,0,0,1,.34-.22,1,1,0,0,0-1-.53,1.23,1.23,0,0,0-1.11.45,2.67,2.67,0,0,0-.39,1.52,3,3,0,0,0,.21,1.32,1.25,1.25,0,0,0,1.17.74,1.89,1.89,0,0,0,.81-.16,1.85,1.85,0,0,0,.68-.5L162,93a2.4,2.4,0,0,1-.86.8A2.15,2.15,0,0,1,160,94a2.12,2.12,0,0,1-1.1-.29,1.82,1.82,0,0,1-.72-.78,2.51,2.51,0,0,1-.22-.67,3.1,3.1,0,0,1-.07-.81,3.24,3.24,0,0,1,.19-1.07,2.34,2.34,0,0,1,.49-.81,2.21,2.21,0,0,1,.76-.51A2.41,2.41,0,0,1,160.34,88.88Z" transform="translate(-2.25 -53.83)"/><path class="cls-8" d="M163.76,91.59a2.62,2.62,0,0,0,.15,1.11,1.18,1.18,0,0,0,.49.63,1.62,1.62,0,0,0,.73.2,1.76,1.76,0,0,0,.8-.15,2.24,2.24,0,0,0,.65-.47l.28.23a2.77,2.77,0,0,1-.36.4,2.36,2.36,0,0,1-.44.32,1.84,1.84,0,0,1-.54.21,2.52,2.52,0,0,1-1.75-.24,1.75,1.75,0,0,1-.72-.82,2.9,2.9,0,0,1-.18-.63,4.35,4.35,0,0,1,0-.74,3,3,0,0,1,.65-2,2,2,0,0,1,1.64-.64,1.8,1.8,0,0,1,1.43.63,2.35,2.35,0,0,1,.44,1.62.81.81,0,0,1,0,.16,1.7,1.7,0,0,1,0,.26Zm1.29-2.07c-.74,0-1.16.52-1.27,1.63l2.29.07v-.3a1.58,1.58,0,0,0-.24-1A1,1,0,0,0,165.05,89.52Z" transform="translate(-2.25 -53.83)"/><path class="cls-8" d="M168.49,89.79l-.7-.2v-.38l1.33.05c.06.37.1.56.16.92h0a2,2,0,0,1,.77-.7,2,2,0,0,1,1-.23,1.57,1.57,0,0,1,.66.16,1.12,1.12,0,0,1,.45.38,1.65,1.65,0,0,1,.23.73,7.77,7.77,0,0,1,0,1.24c0,.81-.06,1.21-.09,2l.7.2,0,.38-2.2-.1,0-.37.61-.15c0-.81.06-1.22.09-2a8.38,8.38,0,0,0,0-.88,1.35,1.35,0,0,0-.09-.47.85.85,0,0,0-.79-.48,1.68,1.68,0,0,0-.5.07,1.76,1.76,0,0,0-.43.23,1.18,1.18,0,0,0-.32.42,1.92,1.92,0,0,0-.13.62l-.1,2.43.61.2,0,.37-2.2-.08,0-.38.71-.14C168.4,92.09,168.43,91.32,168.49,89.79Z" transform="translate(-2.25 -53.83)"/><path class="cls-8" d="M173.56,89.57l.9-.08c.07-.46.1-.69.17-1.15l.77-.07-.05,1.26,1.17,0,0,.46L175.33,90l-.15,3.26a3.28,3.28,0,0,0,0,.42.5.5,0,0,0,0,.19.11.11,0,0,0,.09.09.7.7,0,0,0,.24,0l.64,0,0,.27a6.42,6.42,0,0,1-.78.2,3.15,3.15,0,0,1-.53.06.52.52,0,0,1-.52-.36,1.08,1.08,0,0,1,0-.29c0-.11,0-.28,0-.51.06-1.37.1-2.06.16-3.43l-.89,0Z" transform="translate(-2.25 -53.83)"/></svg>