<svg id="Layer_1" data-name="Layer 1" xmlns="http://www.w3.org/2000/svg" xmlns:xlink="http://www.w3.org/1999/xlink" viewBox="0 0 212.7 37.94"><defs><style>.cls-1{stroke:#010101;stroke-miterlimit:10;stroke-width:2px;fill:url(#radial-gradient);}.cls-2{fill:#e8ad22;}</style><radialGradient id="radial-gradient" cx="106.35" cy="18.97" r="74.78" gradientUnits="userSpaceOnUse"><stop offset="0" stop-color="#3b3092"/><stop offset="1" stop-color="#282663"/></radialGradient></defs><title>signupbutton</title><polygon class="cls-1" points="210.58 36.94 2.13 36.94 17.02 18.97 2.13 1 210.58 1 195.69 18.97 210.58 36.94"/><path class="cls-2" d="M71.28,48a7.42,7.42,0,0,1-2.58-.43,5.06,5.06,0,0,1-1.91-1.22l-.26,1.39H65.19V42.35h1.46a5.21,5.21,0,0,0,1.13,3.34,4,4,0,0,0,3,1c2.28,0,3.42-.86,3.42-2.6a2.88,2.88,0,0,0-.3-1.34,3.45,3.45,0,0,0-.85-1,6.55,6.55,0,0,0-1.35-.86c-.53-.26-1.13-.52-1.8-.8s-1.44-.6-2-.89a6.26,6.26,0,0,1-1.45-1,4.06,4.06,0,0,1-.9-1.29,4.5,4.5,0,0,1-.31-1.78,4.49,4.49,0,0,1,1.42-3.54,6.31,6.31,0,0,1,7.66.07l.19-1.07h1.33V36H74.5a5.38,5.38,0,0,0-.84-3.36,3.32,3.32,0,0,0-2.72-1q-3.27,0-3.27,3a3,3,0,0,0,.15,1,1.88,1.88,0,0,0,.53.77,4.71,4.71,0,0,0,1.07.69c.44.23,1,.49,1.72.79,1,.43,1.83.84,2.53,1.23a8,8,0,0,1,1.71,1.23,4.3,4.3,0,0,1,1,1.39,4.21,4.21,0,0,1,.31,1.67,4.78,4.78,0,0,1-.39,2,4.12,4.12,0,0,1-1.1,1.47,4.86,4.86,0,0,1-1.7.91A7.5,7.5,0,0,1,71.28,48Z" transform="translate(-1.69 -21.67)"/><path class="cls-2" d="M78.78,35.86v-1h4.15V46.34l1.84.46v1h-6v-1l1.84-.46v-10ZM80.28,31a1.49,1.49,0,0,1,.4-1.1,1.43,1.43,0,0,1,1.08-.4,1.47,1.47,0,0,1,1.1.4,1.49,1.49,0,0,1,.41,1.1,1.46,1.46,0,0,1-.41,1.09,1.51,1.51,0,0,1-1.1.39A1.37,1.37,0,0,1,80.28,31Z" transform="translate(-1.69 -21.67)"/><path class="cls-2" d="M97.48,48a3.64,3.64,0,0,1-.39,1.68A3.87,3.87,0,0,1,95.94,51a5.81,5.81,0,0,1-1.84.86,10.79,10.79,0,0,1-6.6-.47,2.41,2.41,0,0,1-1.41-2.21,2.19,2.19,0,0,1,.67-1.72,3.51,3.51,0,0,1,1.83-.78v-.1A1.85,1.85,0,0,1,87,44.72a2.09,2.09,0,0,1,.54-1.38,3.81,3.81,0,0,1,1.68-1A3.7,3.7,0,0,1,87.41,41a3.82,3.82,0,0,1-.63-2.22A3.9,3.9,0,0,1,87.13,37a3.72,3.72,0,0,1,1-1.29,4.5,4.5,0,0,1,1.53-.82,6.36,6.36,0,0,1,2-.29,5.25,5.25,0,0,1,3.51,1.1l.82-.29,2.19-1.05h.41v2.1h-.41l-1.67-.19h-.81a3.81,3.81,0,0,1,.69,2.29,3.7,3.7,0,0,1-1.29,3,5.46,5.46,0,0,1-3.61,1.08H91l-.47,0q-1.89.29-1.89,1.41a.77.77,0,0,0,.43.75,4.69,4.69,0,0,0,1.67.2h2.77a5,5,0,0,1,3,.73A2.64,2.64,0,0,1,97.48,48Zm-6.57-1.19a3.83,3.83,0,0,0-2.32.55,1.73,1.73,0,0,0-.71,1.43c0,1.45,1.24,2.18,3.72,2.18a6.41,6.41,0,0,0,3.1-.61,2,2,0,0,0,1.06-1.83A1.38,1.38,0,0,0,95,47.2a6.11,6.11,0,0,0-2.57-.38Zm-2-8.17a3.24,3.24,0,0,0,.65,2.18,3.21,3.21,0,0,0,4.1,0,3.24,3.24,0,0,0,.65-2.18,3.21,3.21,0,0,0-.65-2.17,3.21,3.21,0,0,0-4.1,0A3.21,3.21,0,0,0,88.88,38.65Z" transform="translate(-1.69 -21.67)"/><path class="cls-2" d="M101.44,36.31l-1.83-.45v-1H103l.53,2.39h.1a5.16,5.16,0,0,1,1.92-1.93,5.06,5.06,0,0,1,2.61-.7,4.29,4.29,0,0,1,1.72.33,2.93,2.93,0,0,1,1.22,1,4.39,4.39,0,0,1,.68,1.87,20,20,0,0,1,.21,3.26v5.28l1.83.46v1h-5.75v-1l1.6-.46V41a21.86,21.86,0,0,0-.09-2.31,3.63,3.63,0,0,0-.29-1.21,2.16,2.16,0,0,0-2.11-1.17,3.6,3.6,0,0,0-1.29.24,3.71,3.71,0,0,0-1.09.65,3,3,0,0,0-.78,1.11,5,5,0,0,0-.3,1.63v6.38l1.6.46v1H99.61v-1l1.83-.46Z" transform="translate(-1.69 -21.67)"/><path class="cls-2" d="M134.6,32.11l-2-.5v-1h5.52v1l-2,.5V42a6,6,0,0,1-1.59,4.53A6.51,6.51,0,0,1,129.82,48a7,7,0,0,1-4.9-1.58A5.85,5.85,0,0,1,123.23,42V32.11l-2-.5v-1h6.4v1l-2,.5v9.43c0,3.46,1.57,5.18,4.73,5.18a4,4,0,0,0,3.24-1.2,6.15,6.15,0,0,0,1-3.93Z" transform="translate(-1.69 -21.67)"/><path class="cls-2" d="M145.44,51.1v1H139v-1l1.84-.46V36.31L139,35.86v-1h3.44l.36,1.84a4.13,4.13,0,0,1,1.73-1.64,5.24,5.24,0,0,1,2.18-.44,6.44,6.44,0,0,1,2.21.36,3.55,3.55,0,0,1,1.61,1.14,7,7,0,0,1,1.14,2.18,9.2,9.2,0,0,1,0,5.65,6.75,6.75,0,0,1-1.25,2.25,4.81,4.81,0,0,1-3.85,1.56,4.29,4.29,0,0,1-1.85-.39A3.9,3.9,0,0,1,143.12,46v4.63Zm-2.34-10a8,8,0,0,0,.84,4.16,2.62,2.62,0,0,0,.93.94,2.78,2.78,0,0,0,1.45.32,2.75,2.75,0,0,0,2.42-1.12,4.21,4.21,0,0,0,.62-1.66,14.86,14.86,0,0,0,.19-2.47,8,8,0,0,0-.84-4.13,3,3,0,0,0-1-.95,2.93,2.93,0,0,0-1.46-.32,3.26,3.26,0,0,0-1.43.28,2,2,0,0,0-.93.82,5.07,5.07,0,0,0-.63,1.67A12.53,12.53,0,0,0,143.1,41.11Z" transform="translate(-1.69 -21.67)"/></svg>