<svg id="Layer_1" data-name="Layer 1" xmlns="http://www.w3.org/2000/svg" xmlns:xlink="http://www.w3.org/1999/xlink" viewBox="0 0 723 529"><defs><style>.cls-1,.cls-3,.cls-4,.cls-5,.cls-6,.cls-7{stroke:#000;stroke-width:2px;}.cls-1,.cls-2,.cls-3,.cls-6,.cls-7{stroke-miterlimit:10;}.cls-1{fill:url(#linear-gradient);}.cls-2{fill:none;stroke-width:3px;stroke:url(#linear-gradient-2);}.cls-3{fill:url(#linear-gradient-3);}.cls-4{fill:#a39678;}.cls-4,.cls-5{stroke-linejoin:round;}.cls-5{fill:#bcb599;}.cls-6{fill:url(#linear-gradient-4);}.cls-7{fill:#f3efda;}</style><linearGradient id="linear-gradient" x1="19" y1="267.5" x2="706" y2="267.5" gradientUnits="userSpaceOnUse"><stop offset="0" stop-color="#99024b"/><stop offset="0.17" stop-color="#95024a"/><stop offset="0.32" stop-color="#8a0149"/><stop offset="0.47" stop-color="#780046"/><stop offset="0.5" stop-color="#740045"/><stop offset="0.55" stop-color="#7f0147"/><stop offset="0.67" stop-color="#8e0149"/><stop offset="0.8" stop-color="#96024b"/><stop offset="1" stop-color="#99024b"/></linearGradient><linearGradient id="linear-gradient-2" x1="27" y1="266.52" x2="696.94" y2="266.52" gradientUnits="userSpaceOnUse"><stop offset="0" stop-color="#c7841f"/><stop offset="0.59" stop-color="#ff7bac" stop-opacity="0.1"/><stop offset="1" stop-color="#cf8332" stop-opacity="0.92"/></linearGradient><linearGradient id="linear-gradient-3" x1="36" y1="235.93" x2="685" y2="235.93" gradientUnits="userSpaceOnUse"><stop offset="0" stop-color="#f3efda"/><stop offset="0.15" stop-color="#f1edd7"/><stop offset="0.25" stop-color="#ede6cf"/><stop offset="0.33" stop-color="#e4dbc0"/><stop offset="0.4" stop-color="#d8caac"/><stop offset="0.47" stop-color="#c9b591"/><stop offset="0.5" stop-color="#bfa881"/><stop offset="0.52" stop-color="#c3ad88"/><stop offset="0.59" stop-color="#d2c3a4"/><stop offset="0.67" stop-color="#ded4ba"/><stop offset="0.76" stop-color="#e6e0c9"/><stop offset="0.86" stop-color="#ebe7d2"/><stop offset="1" stop-color="#ede9d5"/></linearGradient><linearGradient id="linear-gradient-4" x1="399.71" y1="422.71" x2="452.69" y2="514.47" gradientUnits="userSpaceOnUse"><stop offset="0" stop-color="#cd8d23"/><stop offset="0.32" stop-color="#f2bb3d"/><stop offset="0.9" stop-color="#cb8a22"/><stop offset="1" stop-color="#c7841f"/></linearGradient></defs><title>spellbook</title><path class="cls-1" d="M703.07,469,391,452c-19.06,8.59-36.92,9-55,0L21.93,469A2.73,2.73,0,0,1,19,466.52l39.09-398A2.73,2.73,0,0,1,61,66l303.92,3.31L664,66a2.73,2.73,0,0,1,2.93,2.48l39.09,398A2.73,2.73,0,0,1,703.07,469Z"/><path class="cls-2" d="M692.78,461.55,393.5,443.5c-17,8-32,14-67,0L31.17,460.55A2.6,2.6,0,0,1,28.5,458L64.72,74a2.59,2.59,0,0,1,2.67-2.51l589.17,2A2.59,2.59,0,0,1,659.22,76l36.22,383A2.59,2.59,0,0,1,692.78,461.55Z"/><path class="cls-3" d="M36,451l227.5-31.5S331,423,362,425s50.5-10.5,50.5-10.5L685,451,638.5,54c-27.5,8.5-68-19.5-150-30.5-88.17-11.83-126,20-126,20s-46-31-142-19c-72.5,9.06-105,34-135,30Z"/><path class="cls-4" d="M116.5,421.5c-31,6-61,3-61,3l-16.59,3.22L36,451c53.5,9.5,232.5-31.5,290.5-11.5,0,0,4.5-16.5,35.5-14.5l.47,0,0-.54C312.5,387.5,147.5,415.5,116.5,421.5Z"/><polygon class="cls-5" points="35.5 450.5 55.5 424.5 84.99 54 69 84 35.5 450.5"/><path class="cls-4" d="M606.5,421.5c31,6,61,3,61,3l16.59,3.22L687,451c-53.5,9.5-232.5-31.5-290.5-11.5,0,0-4.5-16.5-35.5-14.5l-.47,0,0-.54C410.5,387.5,575.5,415.5,606.5,421.5Z"/><path class="cls-6" d="M404.08,420.18,405.93,518l20.17-27.55,21.21,27.13-1.9-100.23C429.39,416.27,413.61,418.43,404.08,420.18Z"/><polygon class="cls-5" points="687.5 450.5 667.5 424.5 638.01 54 654 89 687.5 450.5"/><line class="cls-7" x1="362.5" y1="43.5" x2="360.5" y2="424.5"/></svg>