<svg xmlns="http://www.w3.org/2000/svg" viewBox="0 0 179 204.67"><defs><style>.cls-1{fill:#707071;opacity:0.5;}</style></defs><title>spell1grey</title><g id="Layer_3" data-name="Layer 3"><polygon class="cls-1" points="1.91 102.33 51.57 80.44 45.7 26.48 89.5 58.54 133.29 26.48 127.43 80.44 177.09 102.33 127.43 124.23 133.29 178.19 89.5 146.13 45.7 178.19 51.57 124.23 1.91 102.33"/><polygon class="cls-1" points="89.5 1.19 114.78 58.54 177.09 51.76 140.07 102.33 177.09 152.9 114.78 146.13 89.5 203.47 64.22 146.13 1.91 152.9 38.93 102.33 1.91 51.76 64.22 58.54 89.5 1.19"/><polygon class="cls-1" points="126.95 102.33 105.72 111.7 108.22 134.76 89.5 121.06 70.78 134.76 73.28 111.7 52.05 102.33 73.28 92.97 70.78 69.9 89.5 83.61 108.22 69.9 105.72 92.97 126.95 102.33"/></g></svg>