<svg id="Layer_1" data-name="Layer 1" xmlns="http://www.w3.org/2000/svg" xmlns:xlink="http://www.w3.org/1999/xlink" viewBox="0 0 179 204.67"><defs><style>.cls-1{opacity:0.5;fill:url(#radial-gradient);}.cls-2{opacity:0.2;fill:url(#radial-gradient-2);}.cls-3{fill:#df8c26;}</style><radialGradient id="radial-gradient" cx="89.5" cy="102.33" r="81.93" gradientUnits="userSpaceOnUse"><stop offset="0" stop-color="#c7842a"/><stop offset="0.15" stop-color="#cf8242" stop-opacity="0.81"/><stop offset="0.45" stop-color="#de7f6e" stop-opacity="0.47"/><stop offset="0.7" stop-color="#e97d8f" stop-opacity="0.21"/><stop offset="0.89" stop-color="#ef7ca3" stop-opacity="0.06"/><stop offset="1" stop-color="#f27baa" stop-opacity="0"/></radialGradient><radialGradient id="radial-gradient-2" cx="-878.43" cy="-523.64" r="94.61" gradientTransform="translate(-434.14 980.76) rotate(90)" xlink:href="#radial-gradient"/></defs><title>spell2</title><polygon class="cls-1" points="1.91 102.33 51.57 80.44 45.7 26.48 89.5 58.54 133.29 26.48 127.43 80.44 177.09 102.33 127.43 124.23 133.29 178.19 89.5 146.13 45.7 178.19 51.57 124.23 1.91 102.33"/><polygon class="cls-2" points="89.5 1.19 114.78 58.54 177.09 51.76 140.07 102.33 177.09 152.9 114.78 146.13 89.5 203.47 64.22 146.13 1.91 152.9 38.93 102.33 1.91 51.76 64.22 58.54 89.5 1.19"/><path class="cls-3" d="M91.79,103.65a44.49,44.49,0,0,1,13.67-56.3,49.33,49.33,0,1,0,39.89,78.37A44.48,44.48,0,0,1,91.79,103.65Z"/></svg>