<svg id="Layer_1" data-name="Layer 1" xmlns="http://www.w3.org/2000/svg" xmlns:xlink="http://www.w3.org/1999/xlink" viewBox="0 0 689 500.37"><defs><style>.cls-1,.cls-10,.cls-3,.cls-4,.cls-5,.cls-8,.cls-9{stroke:#000;}.cls-1,.cls-2,.cls-3,.cls-8,.cls-9{stroke-miterlimit:10;}.cls-1,.cls-3,.cls-4,.cls-5,.cls-9{stroke-width:2px;}.cls-1{fill:url(#linear-gradient);}.cls-2{fill:none;stroke-width:3px;stroke:url(#linear-gradient-2);}.cls-3{fill:url(#linear-gradient-3);}.cls-4{fill:#897a5c;}.cls-10,.cls-4,.cls-5{stroke-linejoin:round;}.cls-16,.cls-5{fill:#bcb599;}.cls-15,.cls-6{opacity:0.5;}.cls-7{fill:#6b5d44;}.cls-8{stroke-width:1.5px;fill:url(#linear-gradient-4);}.cls-9{fill:#f3efda;}.cls-10{fill:#cc9;}.cls-11{fill:#de8b26;}.cls-12{fill:#e08b19;}.cls-13,.cls-14{opacity:0.3;}.cls-13{fill:url(#radial-gradient);}.cls-14{fill:url(#radial-gradient-2);}.cls-15{fill:url(#linear-gradient-5);}</style><linearGradient id="linear-gradient" x1="19" y1="267.5" x2="706" y2="267.5" gradientUnits="userSpaceOnUse"><stop offset="0" stop-color="#99024b"/><stop offset="0.17" stop-color="#95024a"/><stop offset="0.32" stop-color="#8a0149"/><stop offset="0.47" stop-color="#780046"/><stop offset="0.5" stop-color="#740045"/><stop offset="0.55" stop-color="#7f0147"/><stop offset="0.67" stop-color="#8e0149"/><stop offset="0.8" stop-color="#96024b"/><stop offset="1" stop-color="#99024b"/></linearGradient><linearGradient id="linear-gradient-2" x1="27" y1="266.52" x2="696.94" y2="266.52" gradientUnits="userSpaceOnUse"><stop offset="0" stop-color="#c7841f"/><stop offset="0.59" stop-color="#ff7bac" stop-opacity="0.1"/><stop offset="1" stop-color="#cf8332" stop-opacity="0.92"/></linearGradient><linearGradient id="linear-gradient-3" x1="36" y1="235.93" x2="685" y2="235.93" gradientUnits="userSpaceOnUse"><stop offset="0" stop-color="#f3efda"/><stop offset="0.15" stop-color="#f1edd7"/><stop offset="0.25" stop-color="#ede6cf"/><stop offset="0.33" stop-color="#e4dbc0"/><stop offset="0.4" stop-color="#d8caac"/><stop offset="0.47" stop-color="#c9b591"/><stop offset="0.5" stop-color="#bfa881"/><stop offset="0.52" stop-color="#c3ad88"/><stop offset="0.59" stop-color="#d2c3a4"/><stop offset="0.67" stop-color="#ded4ba"/><stop offset="0.76" stop-color="#e6e0c9"/><stop offset="0.86" stop-color="#ebe7d2"/><stop offset="1" stop-color="#ede9d5"/></linearGradient><linearGradient id="linear-gradient-4" x1="399.71" y1="422.71" x2="452.69" y2="514.47" gradientUnits="userSpaceOnUse"><stop offset="0" stop-color="#cd8d23"/><stop offset="0.32" stop-color="#f2bb3d"/><stop offset="0.9" stop-color="#cb8a22"/><stop offset="1" stop-color="#c7841f"/></linearGradient><radialGradient id="radial-gradient" cx="214.5" cy="114.5" r="81.5" gradientTransform="translate(-23.09 -9.78) rotate(-2.66)" gradientUnits="userSpaceOnUse"><stop offset="0" stop-color="#ffe000"/><stop offset="0.1" stop-color="#ffe001" stop-opacity="0.94"/><stop offset="0.29" stop-color="#ffdf02" stop-opacity="0.77"/><stop offset="0.56" stop-color="#ffdd05" stop-opacity="0.49"/><stop offset="0.9" stop-color="#ffdc08" stop-opacity="0.12"/><stop offset="1" stop-color="#ffdb09" stop-opacity="0"/></radialGradient><radialGradient id="radial-gradient-2" cx="187.5" cy="273.63" r="81.5" gradientTransform="matrix(1, 0, 0, 1, 0, 0)" xlink:href="#radial-gradient"/><linearGradient id="linear-gradient-5" x1="467.43" y1="140.71" x2="630.39" y2="140.71" gradientUnits="userSpaceOnUse"><stop offset="0" stop-color="#bcb599" stop-opacity="0.7"/><stop offset="0.18" stop-color="#beb695" stop-opacity="0.55"/><stop offset="0.56" stop-color="#c1b88e" stop-opacity="0.25"/><stop offset="0.85" stop-color="#c3b98a" stop-opacity="0.07"/><stop offset="1" stop-color="#c4b988" stop-opacity="0"/></linearGradient></defs><title>spellbook2</title><path class="cls-1" d="M703.07,469,391,452c-19.06,8.59-36.92,9-55,0L21.93,469A2.73,2.73,0,0,1,19,466.52l39.09-398A2.73,2.73,0,0,1,61,66l303.92,3.31L664,66a2.73,2.73,0,0,1,2.93,2.48l39.09,398A2.73,2.73,0,0,1,703.07,469Z" transform="translate(-18 -19.87)"/><path class="cls-2" d="M692.78,461.55,393.5,443.5c-17,8-32,14-67,0L31.17,460.55A2.6,2.6,0,0,1,28.5,458L64.72,74a2.59,2.59,0,0,1,2.67-2.51l589.17,2A2.59,2.59,0,0,1,659.22,76l36.22,383A2.59,2.59,0,0,1,692.78,461.55Z" transform="translate(-18 -19.87)"/><path class="cls-3" d="M36,451l227.5-31.5S331,423,362,425s50.5-10.5,50.5-10.5L685,451,638.5,54c-27.5,8.5-68-19.5-150-30.5-88.17-11.83-126,20-126,20s-46-31-142-19c-72.5,9.06-105,34-135,30Z" transform="translate(-18 -19.87)"/><path class="cls-4" d="M116.5,421.5c-31,6-61,3-61,3l-16.59,3.22L36,451c53.5,9.5,232.5-31.5,290.5-11.5,0,0,4.5-16.5,35.5-14.5l.47,0,0-.54C312.5,387.5,147.5,415.5,116.5,421.5Z" transform="translate(-18 -19.87)"/><polygon class="cls-5" points="17.5 430.63 37.5 404.63 66.99 34.13 51 64.14 17.5 430.63"/><path class="cls-4" d="M606.5,421.5c31,6,61,3,61,3l16.59,3.22L687,451c-53.5,9.5-232.5-31.5-290.5-11.5,0,0-4.5-16.5-35.5-14.5l-.47,0,0-.54C410.5,387.5,575.5,415.5,606.5,421.5Z" transform="translate(-18 -19.87)"/><g class="cls-6"><path class="cls-7" d="M420.43,418c16.3-2.11,32.78-2.37,49.22-2.62,22-.33,44.06-.66,65.77,2.7,16.62,2.57,32.88,7.29,49.58,9.28,13.11,1.56,26.36,1.43,39.57,1.3l34.13-.34c-59.49,7.27-120,3.53-178.91-7.69-8.44-1.61-16.92-3.38-25.52-3.39-20,0-39.27,9.44-59.24,8.32" transform="translate(-18 -19.87)"/><path class="cls-7" d="M671.11,436.15c-9.15,3.54-18.55,7.14-28.37,7.24A92.33,92.33,0,0,1,628,441.86q-14.29-2.17-28.72-3.21c-6.34-.46-15.52.9-21.06-2.71,14.33-2,30.48-.06,45,0Z" transform="translate(-18 -19.87)"/></g><path class="cls-7" d="M564.18,437.16c-12.43-4.73-26.21-3.43-39.46-4.58a220.38,220.38,0,0,1-23.88-3.9c-12.6-2.51-25.26-4.95-38.07-6.16-4.82-.46-13.69-2.53-18.26-.59-3.22,1.37-4.37,4.18-.78,6.26,3.79,2.2,14.53.74,19.09,1.09,6.48.5,12.95,1.12,19.41,1.79,12.94,1.35,25.86,2.91,38.81,4.11,7.27.68,14.55,1.25,21.85,1.61C548.76,437.08,558.83,435.12,564.18,437.16Z" transform="translate(-18 -19.87)"/><path class="cls-8" d="M404.08,420.18,405.93,518l20.17-27.55,21.21,27.13-1.9-100.23C429.39,416.27,413.61,418.43,404.08,420.18Z" transform="translate(-18 -19.87)"/><polygon class="cls-5" points="669.5 430.63 649.5 404.63 620.01 34.13 636 69.14 669.5 430.63"/><line class="cls-9" x1="344.5" y1="23.63" x2="342.5" y2="404.63"/><path class="cls-10" d="M55.5,424.5" transform="translate(-18 -19.87)"/><g class="cls-6"><path class="cls-7" d="M182.89,431.07c-44,11.72-90.29,10.38-135.8,9L47,443.88c9.18,4.12,19.72,3.23,29.73,2.26l72.24-7" transform="translate(-18 -19.87)"/><path class="cls-7" d="M341,425.54c-1.21-2.87-7.89-3.23-10.64-3.84q-15.68-3.46-31.63-5.83A448.35,448.35,0,0,0,235.56,411c-10.11-.07-20.3.2-30.19,2-6.43,1.19-12.67,3-19,4.68-40.57,10.6-83.23,13.06-125.47,15.45,26.27,1.57,52.68.43,78.86-2.1A497.77,497.77,0,0,0,206,420.63c9.77-2.31,19.46-5,29.49-6.15s20-.72,30-.12c19.39,1.15,39.27,3.11,56.53,11-22.31-2.41-44.66-4.82-67.13-5.44-18.23-.51-61.18,11.28-52,10.93s27.58-5.2,41.75-5.21l55.85,0c8.24,0,17.05.14,23.84,4.24a42.19,42.19,0,0,0,4.26,2.52A27.56,27.56,0,0,1,341,425.54Z" transform="translate(-18 -19.87)"/></g><path class="cls-11" d="M143.14,376.75l5.42-.49c.15-1.4.23-2.1.38-3.51l1.1-.09.4,4.64c-4.42.38-6.64.58-11.06,1l-.08-.86,1.84-.59L140,365.06l-1.93-.24L138,364l6-.55.08.86-2,.61C142.49,369.62,142.7,372,143.14,376.75Z" transform="translate(-18 -19.87)"/><path class="cls-11" d="M154.36,371.81c0,.42.07.8.11,1.11s.08.59.12.82a4.76,4.76,0,0,0,.14.57,1.87,1.87,0,0,0,.2.4,1.68,1.68,0,0,0,1.76.84,2.78,2.78,0,0,0,1-.29,2.83,2.83,0,0,0,.83-.61,2.39,2.39,0,0,0,.58-1,4.57,4.57,0,0,0,.14-1.38c-.18-2.13-.26-3.2-.44-5.32l-1.78-.24-.06-.82,3.69-.3c.31,3.83.46,5.74.77,9.57l1.57.26.06.82-3.08.44c-.15-.87-.23-1.3-.39-2.17h-.08a4.38,4.38,0,0,1-1.45,1.74A4.18,4.18,0,0,1,156,377a3.4,3.4,0,0,1-1.4-.16,2.36,2.36,0,0,1-1.06-.72,3.8,3.8,0,0,1-.7-1.51,16.35,16.35,0,0,1-.4-2.71c-.16-1.76-.23-2.64-.38-4.4l-1.38-.27-.07-.81,3.29-.28C154.07,368.42,154.17,369.55,154.36,371.81Z" transform="translate(-18 -19.87)"/><path class="cls-11" d="M165.09,366.47l-1.58-.26-.06-.81,2.89-.23.6,2H167a4.46,4.46,0,0,1,1.49-1.73,4.38,4.38,0,0,1,2.16-.75,3.68,3.68,0,0,1,1.47.17,2.44,2.44,0,0,1,1.08.73,3.65,3.65,0,0,1,.69,1.52,17.4,17.4,0,0,1,.36,2.71c.13,1.77.19,2.65.32,4.41l1.57.27.05.82c-1.92.13-2.89.2-4.81.35l-.06-.82,1.31-.48c-.13-1.78-.19-2.67-.32-4.45q-.11-1.28-.21-1.92a3,3,0,0,0-.33-1,1.82,1.82,0,0,0-1.84-.84,2.88,2.88,0,0,0-1.07.28,2.92,2.92,0,0,0-.88.6,2.35,2.35,0,0,0-.58,1,4,4,0,0,0-.15,1.38l.4,5.33L169,375l.06.82-4.81.36-.06-.82,1.5-.49C165.48,371.5,165.35,369.82,165.09,366.47Z" transform="translate(-18 -19.87)"/><path class="cls-11" d="M177.25,372.86a2.7,2.7,0,0,1,.25-1.4,3.25,3.25,0,0,1,1-1.14,7.72,7.72,0,0,1,1.91-.94,25.19,25.19,0,0,1,2.85-.8c-.12-.78-.24-1.38-.35-1.82a4.06,4.06,0,0,0-.42-1,1.89,1.89,0,0,0-.84-.72,2.65,2.65,0,0,0-2.1.09,1.16,1.16,0,0,0-.58.58,1.29,1.29,0,0,1,.45.51,1.43,1.43,0,0,1,.17.57,1,1,0,0,1-.28.82,1.22,1.22,0,0,1-.79.34,1.11,1.11,0,0,1-.82-.26,1.26,1.26,0,0,1-.37-.88,1.91,1.91,0,0,1,.26-1.13,2.93,2.93,0,0,1,.84-.88,4.69,4.69,0,0,1,1.21-.59,6.12,6.12,0,0,1,1.37-.26,3.68,3.68,0,0,1,2.76.8c.89.77,1.4,2.21,1.53,4.31.08,1.16.12,1.74.19,2.9a4.79,4.79,0,0,0,.22,1.36.54.54,0,0,0,.59.33l.9-.06,0,.6a6.38,6.38,0,0,1-2.2.72,1,1,0,0,1-.51-.07.69.69,0,0,1-.34-.32,2.13,2.13,0,0,1-.21-.66,10.22,10.22,0,0,1-.12-1.06h-.08a4.43,4.43,0,0,1-1.54,1.7,4.26,4.26,0,0,1-2.16.73,2.79,2.79,0,0,1-2-.53A2.43,2.43,0,0,1,177.25,372.86Zm3.63,1.14a2.85,2.85,0,0,0,1.16-.37,2.92,2.92,0,0,0,1-.88,3.48,3.48,0,0,0,.48-2.27c0-.23,0-.45-.07-.67s-.06-.43-.1-.62a17.28,17.28,0,0,0-2,.63,5.5,5.5,0,0,0-1.27.67,2,2,0,0,0-.64.81,2.48,2.48,0,0,0-.13,1,2,2,0,0,0,.48,1.3A1.34,1.34,0,0,0,180.88,374Z" transform="translate(-18 -19.87)"/><path class="cls-11" d="M198.91,360.31a3.38,3.38,0,0,0-2.79,1.4,5.8,5.8,0,0,0-.83,2.1,10.57,10.57,0,0,0-.18,2.8,11.27,11.27,0,0,0,.46,2.65,6.9,6.9,0,0,0,1,2,3.4,3.4,0,0,0,1.38,1.15,4.21,4.21,0,0,0,2,.29,4.44,4.44,0,0,0,2.8-1,4,4,0,0,0,1.21-2.59l1.1-.06a6,6,0,0,1-1.62,3.6,5.53,5.53,0,0,1-3.62,1.35,6.11,6.11,0,0,1-4.5-1.35,6.41,6.41,0,0,1-1.64-2.32,9.69,9.69,0,0,1-.71-3.21,9.38,9.38,0,0,1,.44-3.69,6.49,6.49,0,0,1,1.72-2.73,6.15,6.15,0,0,1,4-1.49,8.23,8.23,0,0,1,1.12,0,3.93,3.93,0,0,1,.93.19,3.15,3.15,0,0,1,.82.41,5.07,5.07,0,0,1,.8.66c.13-.52.2-.77.34-1.28l1.11-.06c.09,1.76.14,2.65.23,4.41l-1.23.07Q202.4,360.12,198.91,360.31Z" transform="translate(-18 -19.87)"/><path class="cls-11" d="M212.22,363.52a.72.72,0,0,0-.41-.11,1.23,1.23,0,0,0-.78.51,4.49,4.49,0,0,0-.69,1.23,8,8,0,0,0-.37,1.51,8.4,8.4,0,0,0-.07,1.67c.07,1.5.11,2.24.18,3.74l2.18.27,0,.82-5.65.28,0-.82,1.52-.46c-.16-3.35-.25-5-.42-8.39l-1.57-.3,0-.82,2.9-.14.58,2.61h.08a5.13,5.13,0,0,1,1.13-2.16,2.48,2.48,0,0,1,1.71-.82,1.86,1.86,0,0,1,1.33.43,1.71,1.71,0,0,1,.59,1.28,1.38,1.38,0,0,1-.27,1,1.2,1.2,0,0,1-1.66.09,1.24,1.24,0,0,1-.34-.85.79.79,0,0,1,0-.22C212.17,363.77,212.19,363.66,212.22,363.52Z" transform="translate(-18 -19.87)"/><path class="cls-11" d="M217.74,367.63a6.39,6.39,0,0,0,.5,2.4,2.64,2.64,0,0,0,1.2,1.28,3.29,3.29,0,0,0,1.63.32,3.76,3.76,0,0,0,1.72-.46,4.92,4.92,0,0,0,1.35-1.12l.66.45a9.74,9.74,0,0,1-.74.93,4.86,4.86,0,0,1-.9.78,4.61,4.61,0,0,1-1.14.54,5.2,5.2,0,0,1-1.42.24,5,5,0,0,1-2.47-.48,3.94,3.94,0,0,1-1.7-1.66,5,5,0,0,1-.5-1.35,8.69,8.69,0,0,1-.22-1.62,6.53,6.53,0,0,1,1.1-4.4,4.35,4.35,0,0,1,3.48-1.68,4,4,0,0,1,3.24,1.13,5.2,5.2,0,0,1,1.25,3.47v.37q0,.17,0,.57Zm2.47-4.75c-1.61.07-2.44,1.32-2.5,3.77l5-.21,0-.66a3.51,3.51,0,0,0-.71-2.19A2.1,2.1,0,0,0,220.21,362.88Z" transform="translate(-18 -19.87)"/><path class="cls-11" d="M230.77,371.68a3.39,3.39,0,0,0,1.83-.52,1.43,1.43,0,0,0,.66-1.31A1.34,1.34,0,0,0,233,369a2.44,2.44,0,0,0-.7-.56,4.72,4.72,0,0,0-.94-.37c-.34-.11-.68-.2-1-.28a12.49,12.49,0,0,1-1.23-.37,4.5,4.5,0,0,1-1.09-.57,2.77,2.77,0,0,1-.79-.88,2.71,2.71,0,0,1-.33-1.27,2.8,2.8,0,0,1,1-2.35,4.52,4.52,0,0,1,2.92-1,4.34,4.34,0,0,1,2.58.58,2.15,2.15,0,0,1,1,1.8,1.61,1.61,0,0,1-.25,1,.94.94,0,0,1-.79.39,1.1,1.1,0,0,1-.78-.26,1,1,0,0,1-.33-.71,1.27,1.27,0,0,1,.18-.69,1.21,1.21,0,0,1,.51-.47,1.71,1.71,0,0,0-.8-.58,3.16,3.16,0,0,0-1.22-.15c-1.62.06-2.4.65-2.36,1.78a1.55,1.55,0,0,0,.19.76,1.49,1.49,0,0,0,.5.5,3.39,3.39,0,0,0,.81.36l1.11.33c.46.13.92.27,1.37.42a5.58,5.58,0,0,1,1.21.55,2.8,2.8,0,0,1,.9.88,2.45,2.45,0,0,1,.37,1.32,2.84,2.84,0,0,1-.27,1.39,2.81,2.81,0,0,1-.87,1,4.44,4.44,0,0,1-1.36.68,6.83,6.83,0,0,1-1.76.28,5.18,5.18,0,0,1-2.88-.6,2.24,2.24,0,0,1-1.15-1.91,1.58,1.58,0,0,1,.25-1,1,1,0,0,1,.82-.4,1.18,1.18,0,0,1,.83.25.92.92,0,0,1,.36.72,1.35,1.35,0,0,1-.19.73,1.37,1.37,0,0,1-.49.52,1.73,1.73,0,0,0,1,.6A4.37,4.37,0,0,0,230.77,371.68Z" transform="translate(-18 -19.87)"/><path class="cls-11" d="M241.73,361a4.29,4.29,0,0,1,2.82.78,2.79,2.79,0,0,1,1.1,2.24c0,1-.38,1.55-1.21,1.57a1.27,1.27,0,0,1-.92-.29,1.18,1.18,0,0,1-.34-.85,1.37,1.37,0,0,1,1-1.39,2.31,2.31,0,0,0-2.27-1,2.74,2.74,0,0,0-2.38,1.13,5.8,5.8,0,0,0-.66,3.36,6.35,6.35,0,0,0,.62,2.88,2.75,2.75,0,0,0,2.67,1.47,4.13,4.13,0,0,0,3.17-1.63l.62.46a5.31,5.31,0,0,1-1.8,1.87,5.49,5.49,0,0,1-4.89.15,4,4,0,0,1-1.66-1.62,5.78,5.78,0,0,1-.58-1.45,7.63,7.63,0,0,1-.25-1.76,7,7,0,0,1,.29-2.36,5.16,5.16,0,0,1,1-1.84,4.56,4.56,0,0,1,1.6-1.2A5.32,5.32,0,0,1,241.73,361Z" transform="translate(-18 -19.87)"/><path class="cls-11" d="M249.58,366.56A6.26,6.26,0,0,0,250,369a2.57,2.57,0,0,0,1.17,1.31,3.38,3.38,0,0,0,1.62.35,3.63,3.63,0,0,0,1.73-.43,4.92,4.92,0,0,0,1.38-1.09l.65.46a8.44,8.44,0,0,1-.76.92,4.83,4.83,0,0,1-.91.76,4.71,4.71,0,0,1-1.16.52,5.17,5.17,0,0,1-1.42.21,5.06,5.06,0,0,1-2.46-.53,3.9,3.9,0,0,1-1.67-1.69,5.6,5.6,0,0,1-.48-1.36,10,10,0,0,1-.18-1.63,6.57,6.57,0,0,1,1.18-4.38,4.39,4.39,0,0,1,3.52-1.61,4,4,0,0,1,3.22,1.2,5.17,5.17,0,0,1,1.18,3.49v.37c0,.12,0,.31,0,.57Zm2.58-4.7q-2.43.06-2.58,3.72l5-.11,0-.66a3.49,3.49,0,0,0-.66-2.2A2.12,2.12,0,0,0,252.16,361.86Z" transform="translate(-18 -19.87)"/><path class="cls-11" d="M259.75,362l-1.56-.36v-.82l2.91-.05.48,2h.08a4.43,4.43,0,0,1,3.8-2.26,3.59,3.59,0,0,1,1.46.26,2.45,2.45,0,0,1,1,.79,3.64,3.64,0,0,1,.6,1.56,17,17,0,0,1,.2,2.73c0,1.77,0,2.65.06,4.42l1.55.36c0,.33,0,.49,0,.82l-4.84.06,0-.82,1.35-.4c0-1.78,0-2.67-.06-4.46,0-.85-.05-1.49-.1-1.93a3.06,3.06,0,0,0-.26-1,1.85,1.85,0,0,0-1.8-1,3.06,3.06,0,0,0-1.08.22,3,3,0,0,0-.92.55,2.42,2.42,0,0,0-.65.94,4.26,4.26,0,0,0-.22,1.37c0,2.14.05,3.21.08,5.34l1.35.36c0,.33,0,.49,0,.82l-4.84.08,0-.82,1.54-.4C259.84,367.08,259.82,365.4,259.75,362Z" transform="translate(-18 -19.87)"/><path class="cls-11" d="M270.88,361l2-.3c.09-1,.14-1.52.23-2.52l1.7-.26c0,1.11,0,1.66,0,2.76h2.59v1H274.8c0,2.86,0,4.29.06,7.14q0,.69,0,.93a1.32,1.32,0,0,0,.09.41.3.3,0,0,0,.22.2,2.21,2.21,0,0,0,.52,0h1.41v.58a15.21,15.21,0,0,1-1.69.54,5.85,5.85,0,0,1-1.18.18,1.11,1.11,0,0,1-1.17-.73,2,2,0,0,1-.13-.61,10.69,10.69,0,0,1,0-1.13c0-3-.05-4.51-.08-7.52l-2,0Z" transform="translate(-18 -19.87)"/><path class="cls-11" d="M280.61,366.14a6.26,6.26,0,0,0,.41,2.42,2.55,2.55,0,0,0,1.14,1.32,3.4,3.4,0,0,0,1.62.39,3.78,3.78,0,0,0,1.74-.39,4.93,4.93,0,0,0,1.4-1.07l.64.48a9.59,9.59,0,0,1-.77.9,5.22,5.22,0,0,1-.93.74,4.74,4.74,0,0,1-1.17.5,5.28,5.28,0,0,1-1.43.18,5,5,0,0,1-2.45-.58,4,4,0,0,1-1.64-1.72,5.8,5.8,0,0,1-.45-1.37,10.16,10.16,0,0,1-.15-1.63,6.55,6.55,0,0,1,1.27-4.36,4.4,4.4,0,0,1,3.55-1.54,4,4,0,0,1,3.2,1.27,5.2,5.2,0,0,1,1.12,3.51c0,.13,0,.26,0,.37s0,.3-.05.57Zm2.67-4.65q-2.43,0-2.66,3.67h5.05v-.66a3.51,3.51,0,0,0-.62-2.22A2.15,2.15,0,0,0,283.28,361.49Z" transform="translate(-18 -19.87)"/><path class="cls-11" d="M194.72,199.89a6,6,0,0,1-2.19-.13,4.16,4.16,0,0,1-1.7-.83c0,.47-.06.7-.09,1.17l-1.12.13c-.2-1.8-.31-2.71-.51-4.51l1.22-.14a4.35,4.35,0,0,0,1.26,2.67,3.44,3.44,0,0,0,2.64.59c1.9-.2,2.78-1,2.63-2.46a2.31,2.31,0,0,0-.36-1.09,3,3,0,0,0-.8-.8,5.93,5.93,0,0,0-1.21-.59c-.48-.18-1-.35-1.6-.51s-1.26-.37-1.78-.56a5.12,5.12,0,0,1-1.32-.7,3.08,3.08,0,0,1-.88-1,4.2,4.2,0,0,1,.43-4.52,5.48,5.48,0,0,1,6.55-.64c0-.36,0-.55.07-.91l1.14-.11.45,4.51-1.15.12a4.33,4.33,0,0,0-1-2.72,2.85,2.85,0,0,0-2.4-.63c-1.87.2-2.7,1.13-2.52,2.78a2.63,2.63,0,0,0,.22.84,1.47,1.47,0,0,0,.53.59,3.57,3.57,0,0,0,1,.48c.4.15.91.31,1.52.5a21.53,21.53,0,0,1,2.25.81,6.59,6.59,0,0,1,1.55.88,3.72,3.72,0,0,1,.93,1.07,3.65,3.65,0,0,1,.39,1.37,3.8,3.8,0,0,1-.17,1.67,3.42,3.42,0,0,1-.8,1.32,4,4,0,0,1-1.33.9A6.6,6.6,0,0,1,194.72,199.89Z" transform="translate(-18 -19.87)"/><path class="cls-11" d="M199.42,188.63l1.94-.46c0-1,0-1.52,0-2.53l1.69-.39.25,2.75,2.6-.22c0,.39.05.59.09,1l-2.6.22c.25,2.85.37,4.27.62,7.11,0,.46.08.76.1.93a1.59,1.59,0,0,0,.12.4.32.32,0,0,0,.24.18,2.18,2.18,0,0,0,.52,0l1.4-.12,0,.58a16.35,16.35,0,0,1-1.64.67,6.13,6.13,0,0,1-1.16.27,1.11,1.11,0,0,1-1.22-.64,2,2,0,0,1-.18-.59c-.05-.25-.09-.62-.14-1.12-.27-3-.41-4.5-.68-7.49l-2,.18Z" transform="translate(-18 -19.87)"/><path class="cls-11" d="M209.59,193a6.1,6.1,0,0,0,.59,2.38,2.58,2.58,0,0,0,1.23,1.25,3.47,3.47,0,0,0,1.64.27,4,4,0,0,0,1.71-.51,4.82,4.82,0,0,0,1.32-1.16l.68.44a9.48,9.48,0,0,1-.72.95,4.77,4.77,0,0,1-.88.79A4.46,4.46,0,0,1,214,198a4.9,4.9,0,0,1-1.4.28,5,5,0,0,1-2.49-.41,3.89,3.89,0,0,1-1.75-1.59,5,5,0,0,1-.55-1.34,8.42,8.42,0,0,1-.28-1.61,6.55,6.55,0,0,1,.95-4.44,4.45,4.45,0,0,1,3.47-1.79,4.06,4.06,0,0,1,3.31,1,5.08,5.08,0,0,1,1.34,3.43c0,.13,0,.25,0,.37s0,.3,0,.57C213.81,192.71,212.4,192.81,209.59,193Zm2.34-4.82c-1.62.11-2.42,1.4-2.4,3.84l5.06-.36-.05-.66a3.43,3.43,0,0,0-.77-2.17A2.13,2.13,0,0,0,211.93,188.2Z" transform="translate(-18 -19.87)"/><path class="cls-11" d="M219.16,183.24l-1.61-.29-.05-.82,3.58-.2c.33,5.75.49,8.62.81,14.37l1.57.3c0,.33,0,.49,0,.82-2,.1-3,.16-5,.28l-.05-.82,1.52-.47C219.63,191.14,219.48,188.51,219.16,183.24Z" transform="translate(-18 -19.87)"/><path class="cls-11" d="M225.49,182.9l-1.6-.3,0-.82,3.59-.16.65,14.38,1.56.32c0,.32,0,.49,0,.81l-5,.23,0-.82,1.53-.45C225.88,190.81,225.75,188.18,225.49,182.9Z" transform="translate(-18 -19.87)"/><path class="cls-11" d="M230.92,194.74a2.66,2.66,0,0,1,.31-1.39,3.07,3.07,0,0,1,1.08-1.11,7.76,7.76,0,0,1,1.95-.87,22.06,22.06,0,0,1,2.91-.69,17.37,17.37,0,0,0-.29-1.83,3.5,3.5,0,0,0-.39-1,1.8,1.8,0,0,0-.82-.75,2.43,2.43,0,0,0-1.11-.22,2.39,2.39,0,0,0-1,.24,1.17,1.17,0,0,0-.61.56,1.34,1.34,0,0,1,.44.51,1.36,1.36,0,0,1,.15.59,1,1,0,0,1-.3.8,1.23,1.23,0,0,1-.82.32,1.11,1.11,0,0,1-.81-.29,1.23,1.23,0,0,1-.35-.89,1.8,1.8,0,0,1,.3-1.12,2.89,2.89,0,0,1,.88-.86,4.72,4.72,0,0,1,1.25-.54,5.65,5.65,0,0,1,1.4-.21,3.75,3.75,0,0,1,2.77.9c.86.81,1.32,2.26,1.37,4.37,0,1.16,0,1.74.07,2.9a5.12,5.12,0,0,0,.16,1.37.55.55,0,0,0,.59.35l.9,0v.6a6.48,6.48,0,0,1-2.23.63,1,1,0,0,1-.51-.09.73.73,0,0,1-.33-.34,2.18,2.18,0,0,1-.19-.66,9.35,9.35,0,0,1-.07-1.06h-.09a4.52,4.52,0,0,1-3.79,2.3,2.91,2.91,0,0,1-2-.6A2.48,2.48,0,0,1,230.92,194.74Zm3.62,1.26a2.66,2.66,0,0,0,1.16-.33,2.86,2.86,0,0,0,1-.84,3.43,3.43,0,0,0,.56-2.25c0-.23,0-.45,0-.67a6,6,0,0,0-.08-.63,17.66,17.66,0,0,0-2,.56,5.43,5.43,0,0,0-1.3.63,2,2,0,0,0-.67.78,2.29,2.29,0,0,0-.16,1,2,2,0,0,0,.43,1.31A1.38,1.38,0,0,0,234.54,196Z" transform="translate(-18 -19.87)"/><polygon class="cls-12" points="133.57 97.58 168.38 80.25 162.38 41.83 194.79 63.32 225.07 38.92 222.66 77.73 258.93 91.75 224.12 109.07 230.12 147.49 197.71 126 167.43 150.41 169.84 111.59 133.57 97.58"/><circle class="cls-13" cx="196.5" cy="94.63" r="81.5"/><path class="cls-11" d="M201.79,294.33a46.75,46.75,0,0,1,14.37-59.15,51.84,51.84,0,1,0,41.92,82.35A46.75,46.75,0,0,1,201.79,294.33Z" transform="translate(-18 -19.87)"/><circle class="cls-14" cx="187.5" cy="273.63" r="81.5"/><path class="cls-15" d="M467.43,99.37S545.6,95,585,105c22,5.61,45.44,18.13,45.44,18.13L578,183c-6.21-60.61-107.37-71.69-107.37-71.69Z" transform="translate(-18 -19.87)"/><polygon class="cls-16" points="436.04 53.69 459.46 62.78 475.2 43.2 479.04 68.03 503.87 71.87 484.29 87.61 493.37 111.03 469.95 101.94 454.21 121.52 450.37 96.69 425.54 92.85 445.12 77.11 436.04 53.69"/><polygon class="cls-16" points="499.42 208.11 511.52 240.43 546 238.66 524.05 265.31 542.83 294.27 508.78 288.59 493.08 319.33 480.97 287.01 446.5 288.78 468.44 262.14 449.67 233.17 483.72 238.85 499.42 208.11"/><polygon class="cls-16" points="448.56 296.79 453.72 299.13 457.52 294.93 458.06 300.56 463.61 301.75 459 305.04 460.74 310.43 455.58 308.09 451.79 312.3 451.24 306.65 445.7 305.47 450.31 302.18 448.56 296.79"/><polygon class="cls-16" points="543.55 255.64 551.68 259.34 557.66 252.71 558.52 261.6 567.25 263.46 559.99 268.65 562.74 277.14 554.61 273.44 548.63 280.07 547.77 271.19 539.04 269.32 546.3 264.13 543.55 255.64"/><polygon class="cls-16" points="431.2 254.71 435.15 256.5 438.05 253.29 438.47 257.6 442.71 258.51 439.18 261.02 440.52 265.15 436.57 263.35 433.67 266.57 433.25 262.26 429.01 261.35 432.54 258.83 431.2 254.71"/></svg>