<svg id="Layer_1" data-name="Layer 1" xmlns="http://www.w3.org/2000/svg" xmlns:xlink="http://www.w3.org/1999/xlink" viewBox="0 0 179 204.67"><defs><style>.cls-1,.cls-2,.cls-4{opacity:0.5;}.cls-1{fill:url(#radial-gradient);}.cls-2{fill:url(#radial-gradient-2);}.cls-3{fill:#df8c26;}.cls-4{fill:#ffd435;}</style><radialGradient id="radial-gradient" cx="89.59" cy="102.33" r="81.93" gradientUnits="userSpaceOnUse"><stop offset="0" stop-color="#c7842a"/><stop offset="0.15" stop-color="#cf8242" stop-opacity="0.81"/><stop offset="0.45" stop-color="#de7f6e" stop-opacity="0.47"/><stop offset="0.7" stop-color="#e97d8f" stop-opacity="0.21"/><stop offset="0.89" stop-color="#ef7ca3" stop-opacity="0.06"/><stop offset="1" stop-color="#f27baa" stop-opacity="0"/></radialGradient><radialGradient id="radial-gradient-2" cx="-878.43" cy="-523.73" r="94.61" gradientTransform="translate(-434.14 980.76) rotate(90)" xlink:href="#radial-gradient"/></defs><title>spell4</title><polygon class="cls-1" points="2 102.33 51.66 80.44 45.8 26.48 89.59 58.54 133.38 26.48 127.52 80.44 177.18 102.33 127.52 124.23 133.38 178.19 89.59 146.13 45.8 178.19 51.66 124.23 2 102.33"/><polygon class="cls-2" points="89.59 1.19 114.88 58.54 177.18 51.76 140.16 102.33 177.18 152.9 114.88 146.13 89.59 203.47 64.31 146.13 2 152.9 39.02 102.33 2 51.76 64.31 58.54 89.59 1.19"/><polygon class="cls-3" points="89.59 48.15 103.14 78.87 136.52 75.24 116.68 102.33 136.52 129.43 103.14 125.8 89.59 156.52 76.04 125.8 42.66 129.43 62.5 102.33 42.66 75.24 76.04 78.87 89.59 48.15"/><path class="cls-4" d="M87.3,104.84a16,16,0,0,1,4.92-20.26,17.75,17.75,0,1,0,14.35,28.2A16,16,0,0,1,87.3,104.84Z"/></svg>