<svg id="Layer_1" data-name="Layer 1" xmlns="http://www.w3.org/2000/svg" viewBox="0 0 231 205"><defs><style>.cls-1{fill:#f3efda;}.cls-2{fill:#482e1f;}.cls-3{fill:#750043;}.cls-10,.cls-4,.cls-9{opacity:0.5;}.cls-5,.cls-8,.cls-9{fill:#dea227;}.cls-6{fill:#99024b;}.cls-7{fill:none;}.cls-8{opacity:0.75;}.cls-10{fill:#ffb600;}</style></defs><title>spellbook</title><path class="cls-1" d="M221.17,148.15l.12-.32h0S136,22.21,131.77,20.32,23.08,16.45,23.08,16.45c-2,1.39-5.93,8.22-8.53,14.18-2,4.33-3.46,8.42-3.47,10.26,0,.66,1.77,4.32,4.74,10h0l.28.53h0c1.5,2.86,3.29,6.19,5.31,9.93h0l.22.4h0C36.37,89,63.16,136.31,79.09,164.35l.08.14,4.72,8.3,0,0C88.87,181.54,92,187,92,187h0c.06.1.38.17.82.22.12.1.4.15.42,0,11.72.72,104.2-10,116.07-13.16a2.66,2.66,0,0,0,1.74-2.47l.09-.08a1.05,1.05,0,0,0-.06-.24,2.51,2.51,0,0,0-1.75-2.71l8.15-17.25.6.17a1.47,1.47,0,0,0,1,0,1.3,1.3,0,0,0,.45-.36c.22-.24.5-.57.79-.93h.06l.08-.19A2.69,2.69,0,0,0,221.17,148.15Z"/><path d="M93.1,188.8a2,2,0,0,1-.75-.15,3.25,3.25,0,0,1-.59-.12.81.81,0,0,1-.47-.19,1.65,1.65,0,0,1-.63-.65l.06,0c-.47-.68-1.12-1.83-2.22-3.75-1.4-2.45-3.41-6-5.89-10.35l-.07-.11-4.67-8.22-.08-.14C62.74,138.6,35.26,90.05,20.3,62.46l-.22-.41c-2-3.79-3.83-7.12-5.28-9.89l0-.06-.24-.47,0-.08c-4.9-9.36-4.9-10.08-4.9-10.66C9.59,38.3,11.84,33,13.19,30c2.05-4.72,6.34-12.94,9-14.8a1.52,1.52,0,0,1,.88-.26c17.5.33,105,2.09,109.27,4s70.07,98.47,90.14,128a1.51,1.51,0,0,1,.27.85,1.47,1.47,0,0,1-.1.53,4.16,4.16,0,0,1-.94,2.43h0a1.44,1.44,0,0,1-.5.66c-.24.29-.46.54-.64.74a2.93,2.93,0,0,1-1,.73,2.47,2.47,0,0,1-1.36.16l-7,14.88a4.34,4.34,0,0,1,1.3,3.13,2.56,2.56,0,0,1,.05.27,1.49,1.49,0,0,1-.15.86,4,4,0,0,1-2.79,3.31c-12.62,3.37-103.44,13.69-116.17,13.22A1.83,1.83,0,0,1,93.1,188.8Zm.15-2.62,0,0Zm0-.44h.09c11.13.68,102.93-9.73,115.59-13.11.37-.1.58-.66.64-1.17a.88.88,0,0,1,0-.17v0c0-.44-.13-1.12-.56-1.21a1.5,1.5,0,0,1-1-.79,1.53,1.53,0,0,1,0-1.32l8.16-17.25a1.48,1.48,0,0,1,1.75-.8l.6.16h0c.18-.2.4-.46.63-.74l0,0a.83.83,0,0,0,.08-.12,3.15,3.15,0,0,0,.46-.77,1.23,1.23,0,0,1,0-.27c-33.45-49.23-84.15-122.8-88.58-126.44C126.75,20.37,64.78,18.74,23.6,18c-1.6,1.52-4.93,7-7.67,13.27-2.4,5.27-3.3,8.37-3.34,9.57.12.46.83,2.26,4.56,9.37l0,.09.21.39,0,.05c1.47,2.8,3.25,6.14,5.3,9.92l.19.35c15,27.64,42.44,76.16,57.49,102.63L85.15,172l-1.24.85,1.3-.74L93,185.71l.18,0Zm-.62-.09ZM131,21.62Z"/><path class="cls-2" d="M23.08,16.45C19.88,18.65,12,34.44,12,38.92S92,187,92,187l13.58-30.24S26.28,14.25,23.08,16.45Z"/><path class="cls-3" d="M23.08,16.45c-3.2,2.2-12,20-12,24.44S92,187,92,187l13.58-30.24S26.28,14.25,23.08,16.45Z"/><g class="cls-4"><path class="cls-5" d="M35.23,34,35,33.69a37.51,37.51,0,0,0-4.94,6.43c-2.7,4.45-4.44,9.44-6.13,14.26-.81,2.3-1.64,4.65-2.57,7l.22.4c1-2.4,1.85-4.84,2.68-7.24,1.69-4.81,3.43-9.78,6.1-14.19A36.45,36.45,0,0,1,35.23,34Z"/><path class="cls-5" d="M21.62,62a.25.25,0,0,1-.22-.13l-.22-.4a.28.28,0,0,1,0-.22c.94-2.34,1.78-4.71,2.56-6.94,1.7-4.85,3.45-9.85,6.15-14.31a38.11,38.11,0,0,1,5-6.47.26.26,0,0,1,.39,0l.19.32a.24.24,0,0,1,0,.3,37,37,0,0,0-4.8,6.26c-2.65,4.38-4.39,9.34-6.07,14.13-.82,2.36-1.7,4.85-2.69,7.27a.23.23,0,0,1-.22.15Z"/><path class="cls-5" d="M20.26,40.08a109.05,109.05,0,0,1,9.4-15l-.21-.32a111.34,111.34,0,0,0-9.51,15.16,39.36,39.36,0,0,0-4.13,11l.28.53A38.17,38.17,0,0,1,20.26,40.08Z"/><path class="cls-5" d="M16.09,51.65a.25.25,0,0,1-.22-.13L15.59,51a.3.3,0,0,1,0-.16,39.51,39.51,0,0,1,4.15-11,111.05,111.05,0,0,1,9.53-15.2.24.24,0,0,1,.21-.1.27.27,0,0,1,.2.12l.21.32a.26.26,0,0,1,0,.28,109.84,109.84,0,0,0-9.38,15h0a37.67,37.67,0,0,0-4.14,11.25.25.25,0,0,1-.21.21ZM20.16,40l.1,0Z"/></g><g class="cls-4"><path class="cls-5" d="M96.2,140l-.18-.31a44.14,44.14,0,0,0-16.93,24.67l.25.44A43.7,43.7,0,0,1,96.2,140Z"/><path class="cls-5" d="M79.34,165a.23.23,0,0,1-.21-.13l-.26-.44a.25.25,0,0,1,0-.19,44.38,44.38,0,0,1,17-24.8.23.23,0,0,1,.2,0,.22.22,0,0,1,.16.12l.17.31a.24.24,0,0,1-.07.33,43.43,43.43,0,0,0-16.75,24.65.27.27,0,0,1-.21.19Z"/><path class="cls-5" d="M100.86,148.32l-.18-.31a47.06,47.06,0,0,0-16.79,24.78l.25.44A46.74,46.74,0,0,1,100.86,148.32Z"/><path class="cls-5" d="M84.14,173.48a.23.23,0,0,1-.21-.13l-.25-.43a.28.28,0,0,1,0-.2,47.18,47.18,0,0,1,16.88-24.91.26.26,0,0,1,.21,0,.22.22,0,0,1,.16.12l.18.31a.25.25,0,0,1-.07.32,46.29,46.29,0,0,0-16.63,24.77.25.25,0,0,1-.21.19Z"/></g><path class="cls-6" d="M105.26,157.4l116-9.57S136,22.21,131.77,20.32,23.08,16.45,23.08,16.45Z"/><path class="cls-3" d="M211.12,171.53a1.25,1.25,0,0,0-.09-.37c-.46-1.34-4,1.12-5.38,1.31-2.59.37-5-2-5.42-4.56a10.37,10.37,0,0,1,1-5.53,17.46,17.46,0,0,1,6-7.72,19.25,19.25,0,0,1,3.81-1.94c2.26-.89,6.54-2.63,9.32-2.47.59-1.5.94-2.42.94-2.42l-115.73,8.91S90.72,184.65,92,187s104.71-9.54,117.31-12.9c2.4-.64,2.41-5.24-.13-5.55a3.4,3.4,0,0,0-2.14.76,13.12,13.12,0,0,0-3.54,2.91c-.24.31-.45.76-.22,1.08a1,1,0,0,0,.53.29,8.44,8.44,0,0,0,5.14-.22"/><path class="cls-1" d="M105.75,160.18c-2.74,1.43-12.77,23.29-10.35,23l112.33-11.31L218.08,150S108.48,158.75,105.75,160.18Z"/><path class="cls-7" d="M27.1,18.93A60.47,60.47,0,0,0,12.48,52.15"/><path class="cls-8" d="M108.87,153.63a.42.42,0,0,1-.36-.21L31.71,21.36a.4.4,0,0,1,0-.42.44.44,0,0,1,.37-.2l97.05,2.7a.41.41,0,0,1,.33.18l84.77,120.1a.42.42,0,0,1,0,.42.43.43,0,0,1-.34.24l-105,9.25ZM32.8,21.59l76.3,131.19,104-9.17L128.9,24.27Z"/><path class="cls-9" d="M113.61,144.15a.22.22,0,0,1-.18-.1L42.4,26a.22.22,0,0,1,0-.22.27.27,0,0,1,.18-.1l83.57,2a.22.22,0,0,1,.17.09l78.31,111.84a.22.22,0,0,1,0,.21.22.22,0,0,1-.18.12l-90.84,4.26ZM43,26.09l70.77,117.64,90.35-4.24L126,28Z"/><path d="M91.52,188.4c-.89-18.65,8.24-29.27,11.25-32.24L24.07,16.74l2.61-1.48L106,155.71a1.49,1.49,0,0,1-.35,1.89c-.12.1-12.07,10.39-11.1,30.65Z"/><polygon points="102.14 158.49 102.02 156.99 222.01 146.74 222.13 148.24 102.14 158.49"/><polygon class="cls-10" points="110.58 104.04 109.96 86.71 86.96 68.51 107.38 71.62 101.63 51.77 122.67 72.22 139.93 70.57 140.54 87.9 163.55 106.1 143.13 102.99 148.88 122.83 127.84 102.39 110.58 104.04"/></svg>