<svg id="Layer_2" data-name="Layer 2" xmlns="http://www.w3.org/2000/svg" viewBox="0 0 179 204.67"><defs><style>.cls-1,.cls-2{fill:#696459;}.cls-1{opacity:0.5;}</style></defs><title>spell3grey</title><path class="cls-1" d="M70.17,102s52.19-58.36,87.09-79.11c19.54-11.62,45-19.32,45-19.32l5.89,88.72C160.85,53.86,80.88,108.22,80.88,108.22Z"/><polygon class="cls-1" points="1 102.34 41.17 84.63 36.43 40.98 71.85 66.91 107.28 40.98 102.53 84.63 142.7 102.34 102.53 120.05 107.28 163.7 71.85 137.76 36.43 163.7 41.17 120.05 1 102.34"/><polygon class="cls-1" points="71.85 39.13 87.66 74.97 126.6 70.73 103.46 102.34 126.6 133.95 87.66 129.71 71.85 165.55 56.05 129.71 17.11 133.95 40.24 102.34 17.11 70.73 56.05 74.97 71.85 39.13"/><polygon class="cls-2" points="42.45 104.39 58.15 97.46 56.3 80.4 70.14 90.54 83.99 80.4 82.13 97.46 97.83 104.39 82.13 111.31 83.99 128.37 70.14 118.23 56.3 128.37 58.15 111.31 42.45 104.39"/></svg>