<svg id="Layer_2" data-name="Layer 2" xmlns="http://www.w3.org/2000/svg" viewBox="0 0 179 204.67"><defs><style>.cls-1,.cls-2,.cls-3{fill:#707071;}.cls-1{opacity:0.5;}.cls-2{opacity:0.2;}</style></defs><title>spell2grey</title><polygon class="cls-1" points="1.91 102.33 51.57 80.44 45.7 26.48 89.5 58.54 133.29 26.48 127.43 80.44 177.09 102.33 127.43 124.23 133.29 178.19 89.5 146.13 45.7 178.19 51.57 124.23 1.91 102.33"/><polygon class="cls-2" points="89.5 1.19 114.78 58.54 177.09 51.76 140.07 102.33 177.09 152.9 114.78 146.13 89.5 203.47 64.22 146.13 1.91 152.9 38.93 102.33 1.91 51.76 64.22 58.54 89.5 1.19"/><path class="cls-3" d="M91.79,103.65a44.49,44.49,0,0,1,13.67-56.3,49.33,49.33,0,1,0,39.89,78.37A44.48,44.48,0,0,1,91.79,103.65Z"/></svg>