<svg id="Layer_1" data-name="Layer 1" xmlns="http://www.w3.org/2000/svg" xmlns:xlink="http://www.w3.org/1999/xlink" viewBox="0 0 264.17 60.82"><defs><style>.cls-1,.cls-2,.cls-3,.cls-4,.cls-5,.cls-6,.cls-7{stroke:#010101;stroke-miterlimit:10;stroke-width:2px;}.cls-1{fill:url(#radial-gradient);}.cls-2{fill:url(#radial-gradient-2);}.cls-3{fill:url(#radial-gradient-3);}.cls-4{fill:url(#radial-gradient-4);}.cls-5{fill:url(#radial-gradient-5);}.cls-6{fill:url(#radial-gradient-6);}.cls-7{fill:url(#radial-gradient-7);}.cls-8{fill:#e8ad22;}</style><radialGradient id="radial-gradient" cx="134.02" cy="101.46" r="93.92" gradientUnits="userSpaceOnUse"><stop offset="0" stop-color="#d01e4e"/><stop offset="0.33" stop-color="#bd1d4e"/><stop offset="1" stop-color="#991b4e"/></radialGradient><radialGradient id="radial-gradient-2" cx="226.2" cy="90.88" r="29.55" xlink:href="#radial-gradient"/><radialGradient id="radial-gradient-3" cx="204.9" cy="12.63" r="13.01" xlink:href="#radial-gradient"/><radialGradient id="radial-gradient-4" cx="41.85" cy="90.86" r="29.54" xlink:href="#radial-gradient"/><radialGradient id="radial-gradient-5" cx="59.27" cy="12.63" r="13.01" xlink:href="#radial-gradient"/><radialGradient id="radial-gradient-6" cx="42.31" cy="88.46" r="0" xlink:href="#radial-gradient"/><radialGradient id="radial-gradient-7" cx="134.02" cy="109.12" r="66.02" xlink:href="#radial-gradient"/></defs><title>spellbookbutton2</title><path class="cls-1" d="M263.58,104.39c-7.32-5.34-10.89-8.09-17.85-13.7,4.81-7.33,7.13-11,11.6-18.47a529.13,529.13,0,0,1-68.53,6.72q.3,5.4.62,10.82-55.41,2.63-110.81,0c.21-3.61.43-7.22.63-10.82A529.11,529.11,0,0,1,10.7,72.22c4.47,7.44,6.79,11.14,11.61,18.47-7,5.61-10.54,8.36-17.86,13.7,13.09,2.19,26.13,3.89,39.22,5.14.21,5.88.4,11.77.36,17.67a1157.68,1157.68,0,0,0,180,0c0-5.9.15-11.79.36-17.67C237.45,108.28,250.49,106.58,263.58,104.39Z" transform="translate(-1.94 -70.88)"/><path class="cls-2" d="M224.36,109.54c13.09-1.25,26.13-3,39.23-5.15-7.33-5.34-10.9-8.09-17.86-13.7,4.82-7.33,7.14-11,11.6-18.47a529,529,0,0,1-68.53,6.72c.2,3.61.41,7.21.62,10.82" transform="translate(-1.94 -70.88)"/><line class="cls-3" x1="222.88" y1="16.58" x2="186.93" y2="8.68"/><path class="cls-4" d="M43.23,109.5c-12.94-1.25-25.83-2.94-38.78-5.11,7.33-5.34,10.9-8.09,17.86-13.7-4.81-7.33-7.13-11-11.6-18.47a529,529,0,0,0,68.53,6.72q-.31,5.7-.65,11.41" transform="translate(-1.94 -70.88)"/><line class="cls-5" x1="41.29" y1="16.58" x2="77.24" y2="8.68"/><path class="cls-6" d="M42.31,88.46" transform="translate(-1.94 -70.88)"/><path class="cls-7" d="M224,127.2a1157.81,1157.81,0,0,1-180,0c.09-13.23-1-26.42-.83-39.66a1169.25,1169.25,0,0,0,181.64,0C225,100.78,223.92,114,224,127.2Z" transform="translate(-1.94 -70.88)"/><path class="cls-8" d="M84.77,118.76a7.94,7.94,0,0,1-2.74-.57,5.46,5.46,0,0,1-2-1.38c-.14.58-.2.87-.34,1.45l-1.43-.07c.1-2.28.16-3.42.27-5.7l1.55.07a5.34,5.34,0,0,0,1,3.56,4.36,4.36,0,0,0,3.2,1.24c2.43.1,3.68-.77,3.76-2.59a2.94,2.94,0,0,0-.27-1.42,3.51,3.51,0,0,0-.86-1.13,6.66,6.66,0,0,0-1.39-1c-.56-.3-1.19-.61-1.88-.92s-1.5-.7-2.11-1a6.11,6.11,0,0,1-1.49-1.12,4.07,4.07,0,0,1-.89-1.4,4.94,4.94,0,0,1-.24-1.89,4.76,4.76,0,0,1,1.67-3.65,5.88,5.88,0,0,1,4.08-1.15,5.82,5.82,0,0,1,4,1.57l.25-1.12,1.41,0c-.09,2.29-.13,3.43-.22,5.71l-1.44-.06a5.57,5.57,0,0,0-.76-3.56,3.47,3.47,0,0,0-2.81-1.21c-2.3-.1-3.5.89-3.59,3a3.19,3.19,0,0,0,.1,1.07,2,2,0,0,0,.53.84,4.58,4.58,0,0,0,1.1.78c.46.26,1.06.56,1.78.91,1,.49,1.91,1,2.64,1.4a8.75,8.75,0,0,1,1.76,1.37,4.49,4.49,0,0,1,1,1.49,4.6,4.6,0,0,1,.27,1.78,5,5,0,0,1-.5,2,4.51,4.51,0,0,1-1.23,1.5,5.22,5.22,0,0,1-1.85.89A8.06,8.06,0,0,1,84.77,118.76Z" transform="translate(-1.94 -70.88)"/><path class="cls-8" d="M99.33,122.51l0,1-7-.23,0-1,2-.41c.2-6,.31-9.05.51-15.08L93,106.24l0-1,3.64.13c.13.78.19,1.17.32,1.94a4.4,4.4,0,0,1,1.88-1.66,5.5,5.5,0,0,1,2.33-.39,6.85,6.85,0,0,1,2.33.44,3.75,3.75,0,0,1,1.67,1.25,7.63,7.63,0,0,1,1.15,2.32,9.5,9.5,0,0,1,.37,2.93,9.11,9.11,0,0,1-.58,3,7.27,7.27,0,0,1-1.39,2.34,5.19,5.19,0,0,1-4.16,1.52,4.8,4.8,0,0,1-2-.47A4.07,4.07,0,0,1,97,117.07c-.06,2-.1,2.93-.16,4.88Zm-2.17-10.59a8.36,8.36,0,0,0,.75,4.4,2.9,2.9,0,0,0,1,1,3.11,3.11,0,0,0,1.55.38,2.93,2.93,0,0,0,2.61-1.1,4.28,4.28,0,0,0,.71-1.73,13.86,13.86,0,0,0,.27-2.6,8.22,8.22,0,0,0-.77-4.37,2.92,2.92,0,0,0-1-1,3,3,0,0,0-1.53-.39,3.62,3.62,0,0,0-1.53.25,2.17,2.17,0,0,0-1,.83,5.43,5.43,0,0,0-.72,1.74A13,13,0,0,0,97.16,111.92Z" transform="translate(-1.94 -70.88)"/><path class="cls-8" d="M111.61,112.68a7.86,7.86,0,0,0,.44,3.06,3.23,3.23,0,0,0,1.41,1.7,4.26,4.26,0,0,0,2,.52,4.75,4.75,0,0,0,2.22-.45,5.81,5.81,0,0,0,1.79-1.32l.81.62a11.91,11.91,0,0,1-1,1.12,6.11,6.11,0,0,1-1.2.91,5.81,5.81,0,0,1-1.49.6,7,7,0,0,1-1.82.2,6.34,6.34,0,0,1-3.1-.8,5,5,0,0,1-2-2.22,6.41,6.41,0,0,1-.52-1.74,11.07,11.07,0,0,1-.14-2,8.28,8.28,0,0,1,1.75-5.43,5.54,5.54,0,0,1,4.49-1.84,5,5,0,0,1,4,1.66,6.56,6.56,0,0,1,1.33,4.44c0,.16,0,.32,0,.46s0,.38-.07.72C116.93,112.79,115.15,112.76,111.61,112.68Zm3.48-5.76c-2,0-3.17,1.47-3.43,4.53l6.34.12,0-.83a4.47,4.47,0,0,0-.73-2.81A2.65,2.65,0,0,0,115.09,106.92Z" transform="translate(-1.94 -70.88)"/><path class="cls-8" d="M124.46,101.42l-1.93-.5v-1l4.38,0c-.07,7.24-.1,10.87-.16,18.11l2,.49v1l-6.41-.06v-1l2-.46C124.36,111.38,124.39,108.06,124.46,101.42Z" transform="translate(-1.94 -70.88)"/><path class="cls-8" d="M132.22,101.48l-1.94-.49v-1l4.38,0,0,18.1,2,.48v1l-6.41,0v-1l2-.47C132.17,111.44,132.19,108.12,132.22,101.48Z" transform="translate(-1.94 -70.88)"/><path class="cls-8" d="M151.43,112.61a9.88,9.88,0,0,1-.45,3.11,6.89,6.89,0,0,1-1.33,2.44,5.14,5.14,0,0,1-4.1,1.66,4.38,4.38,0,0,1-2.32-.58,4.91,4.91,0,0,1-1.83-2.19l-.75,2.54h-1.21c0-7.24,0-10.86,0-18.1l-1.94-.48v-1h4.38c0,3,0,4.5,0,7.5a4.2,4.2,0,0,1,1.69-1.34,5.61,5.61,0,0,1,2.1-.39,6.69,6.69,0,0,1,2.34.36,3.9,3.9,0,0,1,1.72,1.19,7.08,7.08,0,0,1,1.24,2.33A10.18,10.18,0,0,1,151.43,112.61Zm-9.53.09a8.71,8.71,0,0,0,.91,4.5,2.87,2.87,0,0,0,1,1,3.17,3.17,0,0,0,1.56.33,3,3,0,0,0,2.57-1.2,4.6,4.6,0,0,0,.64-1.82,15.28,15.28,0,0,0,.18-2.67,8.71,8.71,0,0,0-.92-4.46,3,3,0,0,0-1-1,3.16,3.16,0,0,0-1.55-.33,3.48,3.48,0,0,0-1.51.3,2.2,2.2,0,0,0-1,.87,5.84,5.84,0,0,0-.65,1.82A13.79,13.79,0,0,0,141.9,112.7Z" transform="translate(-1.94 -70.88)"/><path class="cls-8" d="M166.22,112.36a9.72,9.72,0,0,1-.43,3.13,6.45,6.45,0,0,1-1.34,2.44,6.81,6.81,0,0,1-8.8.21,6.31,6.31,0,0,1-1.37-2.28,9.22,9.22,0,0,1-.51-3,10.26,10.26,0,0,1,.44-3.15,6.5,6.5,0,0,1,1.36-2.46,4.91,4.91,0,0,1,1.86-1.27,7.27,7.27,0,0,1,2.47-.43,7.67,7.67,0,0,1,2.51.34,4.81,4.81,0,0,1,1.89,1.16,6,6,0,0,1,1.39,2.3A9.61,9.61,0,0,1,166.22,112.36Zm-9.73.21a8.65,8.65,0,0,0,1,4.48,3,3,0,0,0,1.05,1,3.07,3.07,0,0,0,1.58.31,3,3,0,0,0,2.6-1.23,4.6,4.6,0,0,0,.64-1.82,14.5,14.5,0,0,0,.16-2.67,8.72,8.72,0,0,0-1-4.46,3,3,0,0,0-1.06-1,3.19,3.19,0,0,0-1.57-.31,2.86,2.86,0,0,0-2.54,1.2A8.47,8.47,0,0,0,156.49,112.57Z" transform="translate(-1.94 -70.88)"/><path class="cls-8" d="M181,111.94a9.44,9.44,0,0,1-.39,3.13,6.43,6.43,0,0,1-1.31,2.46,5.65,5.65,0,0,1-4.39,1.77,5.71,5.71,0,0,1-4.41-1.46,6.22,6.22,0,0,1-1.39-2.27,9.05,9.05,0,0,1-.55-3,10.27,10.27,0,0,1,.41-3.16A6.24,6.24,0,0,1,170.3,107a4.91,4.91,0,0,1,1.84-1.3,7.24,7.24,0,0,1,2.46-.45,7.39,7.39,0,0,1,2.51.31,4.65,4.65,0,0,1,1.91,1.13,6,6,0,0,1,1.42,2.28A9.34,9.34,0,0,1,181,111.94Zm-9.73.32a8.81,8.81,0,0,0,1,4.48,3.1,3.1,0,0,0,1.06,1,3.21,3.21,0,0,0,1.58.3,3,3,0,0,0,2.59-1.27,4.46,4.46,0,0,0,.62-1.83,14.72,14.72,0,0,0,.13-2.67,8.77,8.77,0,0,0-1-4.44,3,3,0,0,0-1.07-1,3.12,3.12,0,0,0-1.58-.3,2.86,2.86,0,0,0-2.52,1.23A8.41,8.41,0,0,0,171.27,112.26Z" transform="translate(-1.94 -70.88)"/><path class="cls-8" d="M193.3,116.87c-1.66-2-2.49-3-4.14-5.06l-1.87,1.69.15,3.61,2,.4,0,1c-2.56.11-3.84.16-6.41.25l0-1,1.94-.55c-.25-6.64-.37-9.95-.62-16.59l-2-.4,0-1,4.38-.17c.2,5.32.31,8,.52,13.29,2.07-2.38,3.1-3.58,5.16-6l-1.69-.41,0-1,5.43-.24,0,1-1.82.56-3.65,4.06c2.13,2.6,3.2,3.9,5.35,6.49l1.38.36,0,1c-2.23.11-3.35.16-5.59.25l0-1Z" transform="translate(-1.94 -70.88)"/></svg>