<svg id="Layer_1" data-name="Layer 1" xmlns="http://www.w3.org/2000/svg" viewBox="0 0 286 326"><defs><style>.cls-1{fill:#d3a533;opacity:0.5;}.cls-2{fill:#e8ac18;}</style></defs><title>spell1</title><polygon class="cls-1" points="9.1 173.3 85.05 139.81 76.07 57.29 143.05 106.32 210.02 57.29 201.05 139.81 277 173.3 201.05 206.79 210.02 289.31 143.05 240.28 76.07 289.31 85.05 206.79 9.1 173.3"/><polygon class="cls-1" points="220.63 108.8 229.12 86.9 210.82 72.19 234.03 68.6 237.62 45.39 252.33 63.69 274.23 55.2 265.74 77.09 284.04 91.81 260.83 95.4 257.24 118.61 242.52 100.31 220.63 108.8"/><polygon class="cls-2" points="143.05 72.47 168.25 129.64 230.37 122.89 193.46 173.3 230.37 223.71 168.25 216.96 143.05 274.12 117.84 216.96 55.73 223.71 92.64 173.3 55.73 122.89 117.84 129.64 143.05 72.47"/></svg>