<svg id="Layer_2" data-name="Layer 2" xmlns="http://www.w3.org/2000/svg" xmlns:xlink="http://www.w3.org/1999/xlink" viewBox="0 0 179 204.67"><defs><style>.cls-1,.cls-2,.cls-3{opacity:0.5;}.cls-1{fill:url(#linear-gradient);}.cls-2{fill:url(#radial-gradient);}.cls-3{fill:url(#radial-gradient-2);}.cls-4{fill:#df8c26;}</style><linearGradient id="linear-gradient" x1="101.89" y1="133.76" x2="217.12" y2="18.52" gradientUnits="userSpaceOnUse"><stop offset="0" stop-color="#c7842a"/><stop offset="0.02" stop-color="#c8842d" stop-opacity="0.98"/><stop offset="0.51" stop-color="#de7f70" stop-opacity="0.46"/><stop offset="0.84" stop-color="#ed7c9a" stop-opacity="0.13"/><stop offset="1" stop-color="#f27baa" stop-opacity="0"/></linearGradient><radialGradient id="radial-gradient" cx="71.85" cy="102.34" r="66.28" gradientUnits="userSpaceOnUse"><stop offset="0" stop-color="#c7842a"/><stop offset="0.15" stop-color="#cf8242" stop-opacity="0.81"/><stop offset="0.45" stop-color="#de7f6e" stop-opacity="0.47"/><stop offset="0.7" stop-color="#e97d8f" stop-opacity="0.21"/><stop offset="0.89" stop-color="#ef7ca3" stop-opacity="0.06"/><stop offset="1" stop-color="#f27baa" stop-opacity="0"/></radialGradient><radialGradient id="radial-gradient-2" cx="-878.42" cy="-505.99" r="59.13" gradientTransform="translate(-434.14 980.76) rotate(90)" xlink:href="#radial-gradient"/></defs><title>spell3</title><path class="cls-1" d="M70.17,102s52.19-58.36,87.09-79.11c19.54-11.62,45-19.32,45-19.32l5.89,88.72C160.85,53.86,80.88,108.22,80.88,108.22Z"/><polygon class="cls-2" points="1 102.34 41.17 84.63 36.43 40.98 71.85 66.91 107.28 40.98 102.53 84.63 142.7 102.34 102.53 120.05 107.28 163.7 71.85 137.76 36.43 163.7 41.17 120.05 1 102.34"/><polygon class="cls-3" points="71.85 39.13 87.66 74.97 126.6 70.73 103.46 102.34 126.6 133.95 87.66 129.71 71.85 165.55 56.05 129.71 17.11 133.95 40.24 102.34 17.11 70.73 56.05 74.97 71.85 39.13"/><polygon class="cls-4" points="42.45 104.39 58.15 97.46 56.3 80.4 70.14 90.54 83.99 80.4 82.13 97.46 97.83 104.39 82.13 111.31 83.99 128.37 70.14 118.23 56.3 128.37 58.15 111.31 42.45 104.39"/></svg>