<svg id="Layer_1" data-name="Layer 1" xmlns="http://www.w3.org/2000/svg" xmlns:xlink="http://www.w3.org/1999/xlink" viewBox="0 0 264.16 60.82"><defs><style>.cls-1,.cls-2{stroke:#010101;stroke-miterlimit:10;stroke-width:2px;}.cls-1{fill:url(#radial-gradient);}.cls-2{fill:none;}.cls-3{fill:#c87a29;}</style><radialGradient id="radial-gradient" cx="134.02" cy="176.48" r="93.92" gradientUnits="userSpaceOnUse"><stop offset="0" stop-color="#25215a"/><stop offset="1" stop-color="#17112e"/></radialGradient></defs><title>spellbookbutton1</title><path class="cls-1" d="M263.58,179.42c-7.32-5.35-10.89-8.09-17.85-13.71,4.81-7.33,7.13-11,11.6-18.47A527.38,527.38,0,0,1,188.8,154c.2,3.61.41,7.21.62,10.82q-55.41,2.63-110.8,0c.21-3.61.42-7.21.62-10.82a527.2,527.2,0,0,1-68.53-6.72c4.47,7.45,6.79,11.14,11.6,18.47-7,5.62-10.53,8.36-17.86,13.71,13.1,2.18,26.14,3.88,39.23,5.13.2,5.89.39,11.77.35,17.67a1157.68,1157.68,0,0,0,180,0c0-5.9.15-11.78.36-17.67C237.45,183.3,250.49,181.6,263.58,179.42Z" transform="translate(-1.94 -145.91)"/><path class="cls-2" d="M224.36,184.57c13.09-1.26,26.13-3,39.23-5.15-7.33-5.35-10.9-8.09-17.86-13.71,4.82-7.33,7.14-11,11.6-18.47A527.2,527.2,0,0,1,188.8,154q.3,5.41.62,10.83" transform="translate(-1.94 -145.91)"/><line class="cls-2" x1="222.87" y1="16.58" x2="186.93" y2="8.68"/><path class="cls-2" d="M43.23,184.52q-19.39-1.86-38.77-5.1c7.32-5.35,10.9-8.09,17.86-13.71-4.82-7.33-7.14-11-11.61-18.47A527.36,527.36,0,0,0,79.25,154q-.31,5.72-.65,11.41" transform="translate(-1.94 -145.91)"/><line class="cls-2" x1="41.29" y1="16.58" x2="77.24" y2="8.68"/><path class="cls-2" d="M42.31,163.48" transform="translate(-1.94 -145.91)"/><path class="cls-2" d="M224,202.22a1157.68,1157.68,0,0,1-180,0c.08-13.23-1-26.42-.84-39.65a1169.38,1169.38,0,0,0,181.65,0C225,175.8,223.93,189,224,202.22Z" transform="translate(-1.94 -145.91)"/><path class="cls-3" d="M80.72,193.55a8.05,8.05,0,0,1-2.8-.59,5.68,5.68,0,0,1-2-1.39L75.55,193,74.09,193c.11-2.33.17-3.49.28-5.81l1.58.07A5.48,5.48,0,0,0,77,190.86a4.44,4.44,0,0,0,3.26,1.26q3.72.15,3.83-2.64a3.06,3.06,0,0,0-.27-1.45,3.76,3.76,0,0,0-.87-1.15,7,7,0,0,0-1.43-1c-.56-.31-1.2-.62-1.91-.94s-1.53-.71-2.15-1.06A6.13,6.13,0,0,1,76,182.75a4.06,4.06,0,0,1-.91-1.42,5.54,5.54,0,0,1,1.46-5.64,6.8,6.8,0,0,1,8.23.42L85,175l1.44.05c-.09,2.33-.14,3.49-.22,5.82l-1.47-.06a5.76,5.76,0,0,0-.77-3.63,3.58,3.58,0,0,0-2.87-1.24q-3.52-.15-3.67,3.05a3.66,3.66,0,0,0,.11,1.1,2,2,0,0,0,.54.85,5.06,5.06,0,0,0,1.12.8c.47.26,1.08.56,1.82.92,1,.5,1.94,1,2.68,1.43a8.84,8.84,0,0,1,1.8,1.39,4.61,4.61,0,0,1,1,1.53,4.73,4.73,0,0,1,.27,1.8,5,5,0,0,1-.51,2.1A4.55,4.55,0,0,1,85,192.41a5.18,5.18,0,0,1-1.89.9A8.33,8.33,0,0,1,80.72,193.55Z" transform="translate(-1.94 -145.91)"/><path class="cls-3" d="M95.56,197.37l0,1-7.08-.24,0-1.05,2-.41c.21-6.15.32-9.23.53-15.37l-2-.56,0-1,3.71.13c.13.79.19,1.19.32,2a4.56,4.56,0,0,1,1.92-1.69,5.53,5.53,0,0,1,2.37-.4,6.86,6.86,0,0,1,2.38.45,3.81,3.81,0,0,1,1.7,1.27,7.61,7.61,0,0,1,1.17,2.37,9.48,9.48,0,0,1,.38,3,9.21,9.21,0,0,1-.59,3.08,7.14,7.14,0,0,1-1.42,2.38,5.26,5.26,0,0,1-4.24,1.55,4.79,4.79,0,0,1-2-.47,4.25,4.25,0,0,1-1.61-1.54c-.06,2-.09,3-.16,5Zm-2.21-10.79a8.43,8.43,0,0,0,.76,4.48,2.85,2.85,0,0,0,1,1.05,3.23,3.23,0,0,0,1.58.39,3,3,0,0,0,2.66-1.13,4.36,4.36,0,0,0,.72-1.76,14.16,14.16,0,0,0,.28-2.64,8.53,8.53,0,0,0-.78-4.46,3.22,3.22,0,0,0-1-1,3.15,3.15,0,0,0-1.57-.39,3.69,3.69,0,0,0-1.55.24,2.37,2.37,0,0,0-1,.86,5.39,5.39,0,0,0-.72,1.77A12.59,12.59,0,0,0,93.35,186.58Z" transform="translate(-1.94 -145.91)"/><path class="cls-3" d="M108.07,187.36a8,8,0,0,0,.45,3.11A3.31,3.31,0,0,0,110,192.2a4.56,4.56,0,0,0,2.08.54,5,5,0,0,0,2.26-.46,6.38,6.38,0,0,0,1.83-1.35l.82.63a13.82,13.82,0,0,1-1,1.14,6.66,6.66,0,0,1-1.22.93,6,6,0,0,1-1.52.61,7.16,7.16,0,0,1-5-.62,4.9,4.9,0,0,1-2-2.26,6.83,6.83,0,0,1-.54-1.76,11.67,11.67,0,0,1-.13-2.1,8.43,8.43,0,0,1,1.78-5.53,5.59,5.59,0,0,1,4.57-1.87,5.13,5.13,0,0,1,4,1.69,6.6,6.6,0,0,1,1.35,4.52c0,.17,0,.33,0,.47s0,.39-.08.73C113.49,187.46,111.69,187.43,108.07,187.36Zm3.55-5.88q-3.09-.06-3.5,4.62l6.47.12v-.85a4.44,4.44,0,0,0-.74-2.85A2.67,2.67,0,0,0,111.62,181.48Z" transform="translate(-1.94 -145.91)"/><path class="cls-3" d="M121.17,175.87l-2-.51,0-1.05,4.46.05c-.07,7.38-.1,11.07-.17,18.45l2,.51v1.05L119,194.3v-1.05l2-.46C121.06,186,121.1,182.64,121.17,175.87Z" transform="translate(-1.94 -145.91)"/><path class="cls-3" d="M129.08,175.93l-2-.49v-1.05h4.46c0,7.39,0,11.08,0,18.46l2,.49v1.05l-6.54,0v-1l2-.48C129,186.08,129.05,182.7,129.08,175.93Z" transform="translate(-1.94 -145.91)"/><path class="cls-3" d="M148.66,187.28a10,10,0,0,1-.46,3.17,7.12,7.12,0,0,1-1.35,2.48,5.26,5.26,0,0,1-4.18,1.7,4.54,4.54,0,0,1-2.37-.59,5,5,0,0,1-1.86-2.23c-.31,1-.46,1.55-.77,2.59h-1.23c0-7.38,0-11.07,0-18.45l-2-.49v-1.05h4.46c0,3.06,0,4.59,0,7.64a4.19,4.19,0,0,1,1.72-1.36,5.59,5.59,0,0,1,2.14-.4,6.91,6.91,0,0,1,2.38.37,3.84,3.84,0,0,1,1.75,1.21,7.44,7.44,0,0,1,1.27,2.37A10.26,10.26,0,0,1,148.66,187.28Zm-9.71.09a8.82,8.82,0,0,0,.92,4.59,3,3,0,0,0,1,1,3.08,3.08,0,0,0,1.59.34,3,3,0,0,0,2.62-1.22,4.85,4.85,0,0,0,.66-1.85,16,16,0,0,0,.18-2.72A9.08,9.08,0,0,0,145,183a3.28,3.28,0,0,0-1-1,3.14,3.14,0,0,0-1.58-.34,3.77,3.77,0,0,0-1.54.31,2.24,2.24,0,0,0-1,.89,5.76,5.76,0,0,0-.66,1.86A13.39,13.39,0,0,0,139,187.37Z" transform="translate(-1.94 -145.91)"/><path class="cls-3" d="M163.73,187a9.85,9.85,0,0,1-.44,3.19,6.53,6.53,0,0,1-1.36,2.48,6.91,6.91,0,0,1-9,.21,6.46,6.46,0,0,1-1.4-2.32,9.53,9.53,0,0,1-.52-3,10.56,10.56,0,0,1,.45-3.21,6.55,6.55,0,0,1,1.39-2.51,5,5,0,0,1,1.89-1.29,7.14,7.14,0,0,1,2.52-.44,7.61,7.61,0,0,1,2.55.35,4.77,4.77,0,0,1,1.94,1.17A6.36,6.36,0,0,1,163.2,184,10.06,10.06,0,0,1,163.73,187Zm-9.92.21a8.86,8.86,0,0,0,1,4.57,3.14,3.14,0,0,0,1.06,1,3.22,3.22,0,0,0,1.61.31,3.09,3.09,0,0,0,2.66-1.25,4.75,4.75,0,0,0,.65-1.86,15.07,15.07,0,0,0,.16-2.72,8.85,8.85,0,0,0-1-4.54,3,3,0,0,0-1.08-1,3.17,3.17,0,0,0-1.6-.32,2.93,2.93,0,0,0-2.59,1.22A8.66,8.66,0,0,0,153.81,187.24Z" transform="translate(-1.94 -145.91)"/><path class="cls-3" d="M178.8,186.6a9.84,9.84,0,0,1-.4,3.19,6.76,6.76,0,0,1-1.33,2.51,6.95,6.95,0,0,1-9,.31,6.38,6.38,0,0,1-1.43-2.31,9.42,9.42,0,0,1-.55-3,10.35,10.35,0,0,1,.41-3.22,6.49,6.49,0,0,1,1.36-2.52,5.07,5.07,0,0,1,1.87-1.32,7.53,7.53,0,0,1,2.51-.47,8,8,0,0,1,2.57.32,4.82,4.82,0,0,1,1.94,1.16,6.2,6.2,0,0,1,1.45,2.32A10,10,0,0,1,178.8,186.6Zm-9.92.33a9,9,0,0,0,1.06,4.56,2.84,2.84,0,0,0,2.69,1.28,3.08,3.08,0,0,0,2.64-1.29,4.6,4.6,0,0,0,.63-1.86,14.51,14.51,0,0,0,.13-2.73,8.86,8.86,0,0,0-1.07-4.53,3,3,0,0,0-1.09-1,3.25,3.25,0,0,0-1.61-.3,2.9,2.9,0,0,0-2.57,1.25A8.6,8.6,0,0,0,168.88,186.93Z" transform="translate(-1.94 -145.91)"/><path class="cls-3" d="M191.33,191.62l-4.22-5.15-1.9,1.71.15,3.69,2,.41,0,1.05-6.53.25,0-1.05,2-.56c-.25-6.76-.38-10.14-.63-16.91l-2-.41,0-1.05,4.46-.17c.21,5.42.32,8.13.53,13.55,2.12-2.43,3.17-3.65,5.26-6.09l-1.72-.42,0-1.05,5.53-.24.05,1-1.86.57c-1.48,1.66-2.23,2.49-3.72,4.14,2.17,2.65,3.26,4,5.46,6.61l1.39.37.05,1.05-5.69.26-.05-1Z" transform="translate(-1.94 -145.91)"/></svg>