<svg id="Layer_1" data-name="Layer 1" xmlns="http://www.w3.org/2000/svg" viewBox="0 0 179 204.67"><defs><style>.cls-1{fill:#707071;opacity:0.5;}</style></defs><title>spell4grey</title><polygon class="cls-1" points="2 102.33 51.66 80.44 45.8 26.48 89.59 58.54 133.38 26.48 127.52 80.44 177.18 102.33 127.52 124.23 133.38 178.19 89.59 146.13 45.8 178.19 51.66 124.23 2 102.33"/><polygon class="cls-1" points="89.59 1.19 114.88 58.54 177.18 51.76 140.16 102.33 177.18 152.9 114.88 146.13 89.59 203.47 64.31 146.13 2 152.9 39.02 102.33 2 51.76 64.31 58.54 89.59 1.19"/><polygon class="cls-1" points="89.59 48.15 103.14 78.87 136.52 75.24 116.68 102.33 136.52 129.43 103.14 125.8 89.59 156.52 76.04 125.8 42.66 129.43 62.5 102.33 42.66 75.24 76.04 78.87 89.59 48.15"/><path class="cls-1" d="M87.3,104.84a16,16,0,0,1,4.92-20.26,17.75,17.75,0,1,0,14.35,28.2A16,16,0,0,1,87.3,104.84Z"/></svg>