<?xml version="1.0" encoding="utf-8"?>
<!-- Generator: Adobe Illustrator 22.1.0, SVG Export Plug-In . SVG Version: 6.00 Build 0)  -->
<svg version="1.1" id="Layer_2_1_" xmlns="http://www.w3.org/2000/svg" xmlns:xlink="http://www.w3.org/1999/xlink" x="0px" y="0px"
	 viewBox="0 0 229.5 175" style="enable-background:new 0 0 229.5 175;" xml:space="preserve">
<style type="text/css">
	.st0{opacity:0.5;fill:url(#SVGID_1_);enable-background:new    ;}
	.st1{fill:#DE8B26;}
	.st2{opacity:0.3;fill:url(#SVGID_2_);enable-background:new    ;}
</style>
<title>spell3</title>
<linearGradient id="SVGID_1_" gradientUnits="userSpaceOnUse" x1="324.2494" y1="347.0313" x2="461.5695" y2="347.0313" gradientTransform="matrix(0.7071 0.7071 0.7071 -0.7071 -377.6096 57.9817)">
	<stop  offset="0" style="stop-color:#C5832A"/>
	<stop  offset="1.000000e-02" style="stop-color:#C6832C;stop-opacity:0.99"/>
	<stop  offset="0.5" style="stop-color:#DD7E6F;stop-opacity:0.46"/>
	<stop  offset="0.84" style="stop-color:#EB7B99;stop-opacity:0.13"/>
	<stop  offset="1" style="stop-color:#F17AA9;stop-opacity:0"/>
</linearGradient>
<path class="st0" d="M64.4,74.5c0,0,78.2-4.4,117.6,5.6c22,5.6,45.4,18.1,45.4,18.1L175,158.1C168.8,97.5,67.6,86.4,67.6,86.4
	L64.4,74.5z"/>
<polygon class="st1" points="51,48.7 74.5,57.8 90.2,38.2 94,63 118.9,66.9 99.3,82.6 108.4,106 85,96.9 69.2,116.5 65.4,91.7 
	40.5,87.8 60.1,72.1 "/>
<radialGradient id="SVGID_2_" cx="85.5" cy="119.37" r="81.5" gradientTransform="matrix(1 0 0 -1 0 206)" gradientUnits="userSpaceOnUse">
	<stop  offset="0" style="stop-color:#FFE000"/>
	<stop  offset="0.1" style="stop-color:#FFE001;stop-opacity:0.94"/>
	<stop  offset="0.29" style="stop-color:#FFDF02;stop-opacity:0.77"/>
	<stop  offset="0.56" style="stop-color:#FFDD05;stop-opacity:0.49"/>
	<stop  offset="0.9" style="stop-color:#FFDC08;stop-opacity:0.12"/>
	<stop  offset="1" style="stop-color:#FFDB09;stop-opacity:0"/>
</radialGradient>
<circle class="st2" cx="85.5" cy="86.6" r="81.5"/>
</svg>
