<?xml version="1.0" encoding="utf-8"?>
<!-- Generator: Adobe Illustrator 22.1.0, SVG Export Plug-In . SVG Version: 6.00 Build 0)  -->
<svg version="1.1" id="Layer_1" xmlns="http://www.w3.org/2000/svg" xmlns:xlink="http://www.w3.org/1999/xlink" x="0px" y="0px"
	 viewBox="0 0 1313.2 880.7" style="enable-background:new 0 0 1313.2 880.7;" xml:space="preserve">
<style type="text/css">
	.st0{opacity:0.4;}
	.st1{fill:url(#SVGID_1_);}
	.st2{fill:url(#SVGID_2_);}
	.st3{fill:url(#SVGID_3_);}
	.st4{fill:url(#SVGID_4_);}
	.st5{fill:url(#SVGID_5_);}
	.st6{fill:url(#SVGID_6_);}
	.st7{fill:url(#SVGID_7_);}
	.st8{fill:url(#SVGID_8_);}
	.st9{fill:url(#SVGID_9_);}
	.st10{fill:url(#SVGID_10_);}
	.st11{fill:url(#SVGID_11_);}
	.st12{fill:url(#SVGID_12_);}
	.st13{fill:url(#SVGID_13_);}
	.st14{fill:url(#SVGID_14_);}
	.st15{fill:url(#SVGID_15_);}
	.st16{fill:url(#SVGID_16_);}
	.st17{fill:url(#SVGID_17_);}
	.st18{fill:url(#SVGID_18_);}
	.st19{fill:url(#SVGID_19_);}
	.st20{fill:url(#SVGID_20_);}
	.st21{fill:url(#SVGID_21_);}
	.st22{fill:url(#SVGID_22_);}
	.st23{fill:url(#SVGID_23_);}
	.st24{fill:url(#SVGID_24_);}
	.st25{fill:url(#SVGID_25_);}
	.st26{fill:url(#SVGID_26_);}
	.st27{fill:url(#SVGID_27_);}
	.st28{fill:url(#SVGID_28_);}
	.st29{fill:url(#SVGID_29_);}
	.st30{fill:url(#SVGID_30_);}
	.st31{fill:url(#SVGID_31_);}
	.st32{fill:url(#SVGID_32_);}
	.st33{fill:url(#SVGID_33_);}
	.st34{fill:url(#SVGID_34_);}
	.st35{opacity:0.4;fill:url(#SVGID_35_);enable-background:new    ;}
	.st36{opacity:0.4;fill:url(#SVGID_36_);enable-background:new    ;}
	.st37{opacity:0.4;fill:url(#SVGID_37_);enable-background:new    ;}
	.st38{opacity:0.4;fill:url(#SVGID_38_);enable-background:new    ;}
	.st39{opacity:0.4;fill:url(#SVGID_39_);enable-background:new    ;}
	.st40{opacity:0.4;fill:url(#SVGID_40_);enable-background:new    ;}
	.st41{opacity:0.4;fill:url(#SVGID_41_);enable-background:new    ;}
	.st42{opacity:0.4;fill:url(#SVGID_42_);enable-background:new    ;}
	.st43{opacity:0.4;fill:url(#SVGID_43_);enable-background:new    ;}
	.st44{opacity:0.4;fill:url(#SVGID_44_);enable-background:new    ;}
	.st45{opacity:0.4;fill:url(#SVGID_45_);enable-background:new    ;}
	.st46{opacity:0.4;fill:url(#SVGID_46_);enable-background:new    ;}
	.st47{opacity:0.4;fill:url(#SVGID_47_);enable-background:new    ;}
	.st48{opacity:0.4;fill:url(#SVGID_48_);enable-background:new    ;}
	.st49{opacity:0.4;fill:url(#SVGID_49_);enable-background:new    ;}
	.st50{opacity:0.4;fill:url(#SVGID_50_);enable-background:new    ;}
	.st51{opacity:0.4;fill:url(#SVGID_51_);enable-background:new    ;}
	.st52{opacity:0.4;fill:url(#SVGID_52_);enable-background:new    ;}
	.st53{opacity:0.4;fill:url(#SVGID_53_);enable-background:new    ;}
	.st54{opacity:0.4;fill:url(#SVGID_54_);enable-background:new    ;}
	.st55{opacity:0.4;fill:url(#SVGID_55_);enable-background:new    ;}
	.st56{opacity:0.4;fill:url(#SVGID_56_);enable-background:new    ;}
	.st57{opacity:0.4;fill:url(#SVGID_57_);enable-background:new    ;}
	.st58{opacity:0.4;fill:url(#SVGID_58_);enable-background:new    ;}
	.st59{opacity:0.4;fill:url(#SVGID_59_);enable-background:new    ;}
	.st60{opacity:0.4;fill:url(#SVGID_60_);enable-background:new    ;}
	.st61{opacity:0.4;fill:url(#SVGID_61_);enable-background:new    ;}
	.st62{opacity:0.4;fill:url(#SVGID_62_);enable-background:new    ;}
	.st63{fill:url(#SVGID_63_);}
	.st64{fill:url(#SVGID_64_);}
	.st65{fill:url(#SVGID_65_);}
	.st66{fill:url(#SVGID_66_);}
	.st67{fill:url(#SVGID_67_);}
	.st68{fill:url(#SVGID_68_);}
	.st69{fill:url(#SVGID_69_);}
	.st70{fill:url(#SVGID_70_);}
	.st71{fill:url(#SVGID_71_);}
	.st72{fill:url(#SVGID_72_);}
	.st73{fill:url(#SVGID_73_);}
	.st74{fill:url(#SVGID_74_);}
	.st75{fill:url(#SVGID_75_);}
	.st76{fill:url(#SVGID_76_);}
	.st77{fill:url(#SVGID_77_);}
	.st78{opacity:0.4;fill:url(#SVGID_78_);enable-background:new    ;}
	.st79{opacity:0.4;fill:url(#SVGID_79_);enable-background:new    ;}
	.st80{opacity:0.4;fill:url(#SVGID_80_);enable-background:new    ;}
	.st81{opacity:0.4;fill:url(#SVGID_81_);enable-background:new    ;}
	.st82{opacity:0.4;fill:url(#SVGID_82_);enable-background:new    ;}
	.st83{opacity:0.4;fill:url(#SVGID_83_);enable-background:new    ;}
	.st84{opacity:0.4;fill:url(#SVGID_84_);enable-background:new    ;}
	.st85{opacity:0.4;fill:url(#SVGID_85_);enable-background:new    ;}
	.st86{opacity:0.4;fill:url(#SVGID_86_);enable-background:new    ;}
	.st87{opacity:0.4;fill:url(#SVGID_87_);enable-background:new    ;}
	.st88{opacity:0.4;fill:url(#SVGID_88_);enable-background:new    ;}
	.st89{opacity:0.4;fill:url(#SVGID_89_);enable-background:new    ;}
	.st90{opacity:0.4;fill:url(#SVGID_90_);enable-background:new    ;}
</style>
<title>starbg3</title>
<g class="st0">
	
		<linearGradient id="SVGID_1_" gradientUnits="userSpaceOnUse" x1="1239.687" y1="573.5387" x2="1281.657" y2="1559.1487" gradientTransform="matrix(0.79 0.62 -0.49 0.62 669.54 -772.39)">
		<stop  offset="0" style="stop-color:#F6AC07"/>
		<stop  offset="0.19" style="stop-color:#F8AF09;stop-opacity:0.79"/>
		<stop  offset="0.59" style="stop-color:#FCB50D;stop-opacity:0.37"/>
		<stop  offset="0.87" style="stop-color:#FEB90F;stop-opacity:0.1"/>
		<stop  offset="1" style="stop-color:#FFBA10;stop-opacity:0"/>
	</linearGradient>
	<path class="st1" d="M1219.8,574.8l-4.8,5.5c-0.2,0.2-0.2,0.5-0.1,0.8l2.2,7.3c0.1,0.4-0.1,0.8-0.5,1c-0.1,0-0.1,0-0.2,0
		c-0.1,0-0.3,0-0.4-0.1l-7.1-3.2c-0.2-0.1-0.5-0.1-0.8,0l-6.3,3.7c-0.3,0.2-0.8,0.1-1.1-0.2c-0.1-0.2-0.2-0.4-0.2-0.6l0.4-7.4
		c0-0.3-0.1-0.6-0.4-0.7l-6.1-5c-0.4-0.3-0.4-0.9-0.1-1.3c0,0,0,0,0,0c0.1-0.1,0.2-0.1,0.4-0.1l7.4-1.4c0.3-0.1,0.5-0.3,0.6-0.5
		l2.6-6.9c0.2-0.4,0.7-0.6,1.1-0.4c0.2,0.1,0.3,0.2,0.4,0.4l4.2,6.6c0.1,0.3,0.4,0.4,0.7,0.4l7.7,0.8c0.5,0.1,0.8,0.5,0.7,1
		C1219.9,574.6,1219.8,574.7,1219.8,574.8z"/>
	
		<linearGradient id="SVGID_2_" gradientUnits="userSpaceOnUse" x1="2650.792" y1="738.7416" x2="2695.3621" y2="1785.3417" gradientTransform="matrix(-1 0 0 -1 3646.49 1723.4099)">
		<stop  offset="0" style="stop-color:#F6AC07"/>
		<stop  offset="0.19" style="stop-color:#F8AF09;stop-opacity:0.79"/>
		<stop  offset="0.59" style="stop-color:#FCB50D;stop-opacity:0.37"/>
		<stop  offset="0.87" style="stop-color:#FEB90F;stop-opacity:0.1"/>
		<stop  offset="1" style="stop-color:#FFBA10;stop-opacity:0"/>
	</linearGradient>
	<path class="st2" d="M968.1,592.8l7.5,1.4c0.3,0.1,0.6-0.1,0.7-0.3l5.2-6.5c0.2-0.4,0.7-0.5,1-0.3c0,0,0,0,0,0
		c0.2,0.1,0.4,0.4,0.3,0.7l1.2,8.8c0,0.3,0.2,0.5,0.5,0.7l6.8,3.8c0.5,0.3,0.6,1,0.3,1.5c-0.1,0.1-0.2,0.2-0.3,0.3l-6.8,4.1
		c-0.2,0.2-0.4,0.5-0.5,0.8l-1,8.8c-0.1,0.8-0.9,1.2-1.4,0.5l-5.4-6.3c-0.2-0.2-0.4-0.3-0.7-0.2l-7.5,1.6c-0.7,0.2-1.2-0.7-0.9-1.4
		l3.5-7.9c0.2-0.3,0.2-0.6,0-0.9l-3.7-7.9c-0.3-0.4-0.1-1,0.3-1.3C967.7,592.7,967.9,592.7,968.1,592.8z"/>
	
		<linearGradient id="SVGID_3_" gradientUnits="userSpaceOnUse" x1="2695.3738" y1="670.3994" x2="2753.3635" y2="2032.4664" gradientTransform="matrix(-1 0 0 -1 3646.49 1723.4099)">
		<stop  offset="0" style="stop-color:#F6AC07"/>
		<stop  offset="0.19" style="stop-color:#F8AF09;stop-opacity:0.79"/>
		<stop  offset="0.59" style="stop-color:#FCB50D;stop-opacity:0.37"/>
		<stop  offset="0.87" style="stop-color:#FEB90F;stop-opacity:0.1"/>
		<stop  offset="1" style="stop-color:#FFBA10;stop-opacity:0"/>
	</linearGradient>
	<path class="st3" d="M920,514.4l0.5-10c0-0.3-0.1-0.7-0.4-0.9l-6.8-6.1c-0.4-0.3-0.5-1-0.2-1.4c0.1-0.1,0.1-0.1,0.2-0.2
		c0.1-0.1,0.2-0.2,0.4-0.3l8.2-2.6c0.3-0.1,0.5-0.4,0.6-0.7l2.8-9.4c0.1-0.4,0.5-0.8,0.9-0.7c0,0,0.1,0,0.1,0
		c0.3,0.1,0.5,0.2,0.6,0.5l4.6,8.4c0.1,0.3,0.5,0.5,0.8,0.5l8.5,0.3c0.6,0.1,1,0.7,0.9,1.3c0,0.2-0.1,0.3-0.2,0.5l-5.4,7.8
		c-0.2,0.3-0.3,0.7-0.2,1l2.4,9.6c0.2,0.9-0.5,1.6-1.2,1.3l-7.9-3.6c-0.3-0.1-0.6-0.1-0.9,0.1l-7,5.6
		C920.8,515.9,920,515.3,920,514.4z"/>
	
		<linearGradient id="SVGID_4_" gradientUnits="userSpaceOnUse" x1="2474.4536" y1="683.0499" x2="2532.3037" y2="2041.2899" gradientTransform="matrix(-1 0 0 -1 3646.49 1723.4099)">
		<stop  offset="0" style="stop-color:#F6AC07"/>
		<stop  offset="0.19" style="stop-color:#F8AF09;stop-opacity:0.79"/>
		<stop  offset="0.59" style="stop-color:#FCB50D;stop-opacity:0.37"/>
		<stop  offset="0.87" style="stop-color:#FEB90F;stop-opacity:0.1"/>
		<stop  offset="1" style="stop-color:#FFBA10;stop-opacity:0"/>
	</linearGradient>
	<path class="st4" d="M1163,490.2l-6.4,6.8c-0.2,0.3-0.4,0.6-0.3,1l1.1,10c0.1,0.9-0.7,1.5-1.4,1.1l-7.5-5c-0.3-0.2-0.6-0.2-0.9,0
		l-7.8,4.4c-0.7,0.4-1.5-0.3-1.3-1.2l1.8-9.9c0.1-0.3,0-0.7-0.2-1l-5.9-7.4c-0.4-0.5-0.3-1.2,0.1-1.6c0.1-0.1,0.2-0.2,0.4-0.2l8.6-1
		c0.3-0.1,0.6-0.3,0.7-0.6l4.1-8.9c0.1-0.4,0.6-0.7,1-0.5c0,0,0.1,0,0.1,0c0.3,0.1,0.5,0.3,0.5,0.6l3.5,9.2c0.1,0.3,0.4,0.5,0.7,0.6
		l8.5,1.9c0.5,0.3,0.8,0.9,0.6,1.5C1163.1,490,1163.1,490.1,1163,490.2z"/>
	
		<linearGradient id="SVGID_5_" gradientUnits="userSpaceOnUse" x1="2599.7822" y1="675.0699" x2="2657.7822" y2="2037.13" gradientTransform="matrix(-1 0 0 -1 3646.49 1723.4099)">
		<stop  offset="0" style="stop-color:#F6AC07"/>
		<stop  offset="0.19" style="stop-color:#F8AF09;stop-opacity:0.79"/>
		<stop  offset="0.59" style="stop-color:#FCB50D;stop-opacity:0.37"/>
		<stop  offset="0.87" style="stop-color:#FEB90F;stop-opacity:0.1"/>
		<stop  offset="1" style="stop-color:#FFBA10;stop-opacity:0"/>
	</linearGradient>
	<path class="st5" d="M1014.9,419.7l0.3-5.9c0-0.2-0.1-0.4-0.2-0.5l-4-3.6c-0.3-0.2-0.3-0.7-0.1-0.9c0,0,0,0,0.1-0.1l0.2-0.2
		l4.9-1.5c0.2-0.1,0.3-0.2,0.4-0.4l1.7-5.6c0-0.3,0.3-0.5,0.6-0.5c0.2,0,0.4,0.1,0.4,0.3l2.8,5c0.1,0.2,0.2,0.3,0.4,0.3l5.1,0.2
		c0.3,0.1,0.6,0.4,0.5,0.7c0,0,0,0.1,0,0.1c0,0.1,0,0.1-0.1,0.2l-3.2,4.6c-0.1,0.2-0.2,0.4-0.1,0.6l1.4,5.7c0.1,0.5-0.3,1-0.7,0.8
		l-4.7-2.1c-0.2-0.1-0.4-0.1-0.5,0.1l-4.2,3.4c-0.3,0.2-0.7,0.1-0.9-0.3C1014.9,420,1014.9,419.8,1014.9,419.7z"/>
	
		<linearGradient id="SVGID_6_" gradientUnits="userSpaceOnUse" x1="2796.55" y1="666.3495" x2="2854.4602" y2="2026.1095" gradientTransform="matrix(-1 0 0 -1 3646.49 1723.4099)">
		<stop  offset="0" style="stop-color:#F6AC07"/>
		<stop  offset="0.19" style="stop-color:#F8AF09;stop-opacity:0.79"/>
		<stop  offset="0.59" style="stop-color:#FCB50D;stop-opacity:0.37"/>
		<stop  offset="0.87" style="stop-color:#FEB90F;stop-opacity:0.1"/>
		<stop  offset="1" style="stop-color:#FFBA10;stop-opacity:0"/>
	</linearGradient>
	<path class="st6" d="M827.1,462.3l-5-5c-0.2-0.2-0.4-0.2-0.7-0.2l-6.4,2c-0.4,0.1-0.8-0.2-0.9-0.6c0-0.2,0-0.4,0.1-0.5l2.5-7.2
		c0.1-0.3,0.1-0.6-0.1-0.8l-3.6-6.5c-0.2-0.4-0.1-1,0.3-1.2c0.1-0.1,0.2-0.1,0.4-0.1l6.6,0.6c0.2,0,0.5-0.1,0.6-0.3l4.2-6
		c0.2-0.3,0.6-0.4,0.9-0.2c0,0,0,0,0,0c0.2,0.1,0.3,0.3,0.3,0.5l1.5,7.5c0,0.3,0.2,0.5,0.4,0.6l6.2,2.8c0.4,0.2,0.6,0.7,0.3,1.1
		c0,0,0,0,0,0.1c-0.1,0.1-0.1,0.2-0.2,0.3l-5.6,4c-0.2,0.2-0.3,0.4-0.3,0.7l-0.4,7.7C828.2,462.4,827.5,462.8,827.1,462.3z"/>
	
		<linearGradient id="SVGID_7_" gradientUnits="userSpaceOnUse" x1="2894.1621" y1="574.9799" x2="2952.1121" y2="1935.59" gradientTransform="matrix(-1 0 0 -1 3646.49 1723.4099)">
		<stop  offset="0" style="stop-color:#F6AC07"/>
		<stop  offset="0.19" style="stop-color:#F8AF09;stop-opacity:0.79"/>
		<stop  offset="0.59" style="stop-color:#FCB50D;stop-opacity:0.37"/>
		<stop  offset="0.87" style="stop-color:#FEB90F;stop-opacity:0.1"/>
		<stop  offset="1" style="stop-color:#FFBA10;stop-opacity:0"/>
	</linearGradient>
	<path class="st7" d="M725.1,601.5l-0.8-7.7c0-0.3-0.2-0.5-0.4-0.6l-5.9-3.6c-0.4-0.3-0.5-0.9-0.2-1.3c0.1-0.1,0.1-0.2,0.2-0.2
		l6-3.3c0.2-0.1,0.4-0.3,0.4-0.6l1.1-7.7c0-0.4,0.3-0.7,0.7-0.7c0,0,0,0,0,0c0.2,0,0.4,0.1,0.5,0.3l4.5,5.6c0.1,0.2,0.4,0.3,0.6,0.3
		l6.5-1.2c0.4,0,0.8,0.3,0.8,0.7c0,0.2,0,0.3-0.1,0.5l-3.2,6.8c-0.1,0.3-0.1,0.5,0,0.8l3,6.9c0.2,0.4,0.1,0.9-0.3,1.1
		c-0.1,0.1-0.3,0.1-0.5,0.1l-6.5-1.4c-0.2-0.1-0.5,0-0.6,0.2l-4.5,5.5c-0.3,0.3-0.8,0.3-1,0C725.1,601.9,725.1,601.7,725.1,601.5z"
		/>
	
		<linearGradient id="SVGID_8_" gradientUnits="userSpaceOnUse" x1="2570.1035" y1="676.5598" x2="2628.1238" y2="2039.0599" gradientTransform="matrix(-1 0 0 -1 3646.49 1723.4099)">
		<stop  offset="0" style="stop-color:#F6AC07"/>
		<stop  offset="0.19" style="stop-color:#F8AF09;stop-opacity:0.79"/>
		<stop  offset="0.59" style="stop-color:#FCB50D;stop-opacity:0.37"/>
		<stop  offset="0.87" style="stop-color:#FEB90F;stop-opacity:0.1"/>
		<stop  offset="1" style="stop-color:#FFBA10;stop-opacity:0"/>
	</linearGradient>
	<path class="st8" d="M1053.3,518.1l-3.3-6.7c-0.1-0.2-0.3-0.4-0.6-0.4l-6.6-0.6c-0.4-0.1-0.7-0.5-0.7-0.9c0-0.1,0-0.1,0.1-0.2
		c0-0.1,0.1-0.2,0.2-0.3l4.4-5.8c0.2-0.2,0.2-0.5,0.2-0.8l-1.5-7.5c-0.1-0.7,0.4-1.2,1-1l6,3.2c0.2,0.1,0.5,0.1,0.7-0.1l5.6-4
		c0.5-0.4,1.1,0.1,1.1,0.8l-0.7,7.7c0,0.3,0.1,0.5,0.3,0.7l5,5c0.3,0.4,0.3,0.9,0,1.3c-0.1,0.1-0.2,0.1-0.3,0.2l-6.5,1.6
		c-0.2,0.1-0.4,0.3-0.5,0.5l-2.5,7.2c-0.1,0.3-0.4,0.6-0.7,0.5c0,0-0.1,0-0.1,0C1053.7,518.5,1053.4,518.3,1053.3,518.1z"/>
	
		<linearGradient id="SVGID_9_" gradientUnits="userSpaceOnUse" x1="2864.5215" y1="661.77" x2="2922.5215" y2="2023.8398" gradientTransform="matrix(-1 0 0 -1 3646.49 1723.4099)">
		<stop  offset="0" style="stop-color:#F6AC07"/>
		<stop  offset="0.19" style="stop-color:#F8AF09;stop-opacity:0.79"/>
		<stop  offset="0.59" style="stop-color:#FCB50D;stop-opacity:0.37"/>
		<stop  offset="0.87" style="stop-color:#FEB90F;stop-opacity:0.1"/>
		<stop  offset="1" style="stop-color:#FFBA10;stop-opacity:0"/>
	</linearGradient>
	<path class="st9" d="M748.1,384.6l0.3-5.9c0-0.2-0.1-0.4-0.2-0.5l-4-3.6c-0.3-0.2-0.3-0.7-0.1-0.9c0,0,0,0,0.1-0.1l0.2-0.2l4.9-1.5
		c0.2-0.1,0.3-0.2,0.4-0.4l1.7-5.6c0-0.3,0.3-0.5,0.6-0.5c0.2,0,0.4,0.1,0.4,0.3l2.8,5c0.1,0.2,0.2,0.3,0.4,0.3l5.1,0.2
		c0.3,0.1,0.6,0.4,0.5,0.7c0,0,0,0.1,0,0.1c0,0.1-0.1,0.2-0.1,0.3l-3.2,4.6c-0.1,0.2-0.2,0.4-0.1,0.6l1.4,5.7c0.1,0.5-0.3,1-0.7,0.8
		l-4.7-2.1c-0.2-0.1-0.4-0.1-0.5,0.1l-4.2,3.4c-0.4,0.1-0.9-0.1-1-0.6C748.1,384.7,748.1,384.7,748.1,384.6z"/>
	
		<linearGradient id="SVGID_10_" gradientUnits="userSpaceOnUse" x1="2323.8215" y1="661.77" x2="2381.8215" y2="2023.8398" gradientTransform="matrix(-1 0 0 -1 3646.49 1723.4099)">
		<stop  offset="0" style="stop-color:#F6AC07"/>
		<stop  offset="0.19" style="stop-color:#F8AF09;stop-opacity:0.79"/>
		<stop  offset="0.59" style="stop-color:#FCB50D;stop-opacity:0.37"/>
		<stop  offset="0.87" style="stop-color:#FEB90F;stop-opacity:0.1"/>
		<stop  offset="1" style="stop-color:#FFBA10;stop-opacity:0"/>
	</linearGradient>
	<path class="st10" d="M1288.8,384.6l0.3-5.9c0-0.2-0.1-0.4-0.2-0.5l-4-3.6c-0.3-0.2-0.3-0.7-0.1-0.9c0,0,0,0,0.1-0.1l0.2-0.2
		l4.9-1.5c0.2-0.1,0.3-0.2,0.4-0.4l1.7-5.6c0-0.3,0.3-0.5,0.6-0.5c0.2,0,0.4,0.1,0.4,0.3l2.8,5c0.1,0.2,0.2,0.3,0.4,0.3l5.1,0.2
		c0.3,0.1,0.6,0.4,0.5,0.7c0,0,0,0.1,0,0.1c0,0.1-0.1,0.2-0.1,0.3l-3.2,4.6c-0.1,0.2-0.2,0.4-0.1,0.6l1.4,5.7c0.1,0.5-0.3,1-0.7,0.8
		l-4.7-2.1c-0.2-0.1-0.4-0.1-0.5,0.1l-4.2,3.4c-0.4,0.1-0.9-0.1-1-0.6C1288.8,384.7,1288.8,384.7,1288.8,384.6z"/>
	
		<linearGradient id="SVGID_11_" gradientUnits="userSpaceOnUse" x1="2940.3621" y1="987.1025" x2="2998.3621" y2="2349.1724" gradientTransform="matrix(-1 0 0 -1 3646.49 1723.4099)">
		<stop  offset="0" style="stop-color:#F6AC07"/>
		<stop  offset="0.19" style="stop-color:#F8AF09;stop-opacity:0.79"/>
		<stop  offset="0.59" style="stop-color:#FCB50D;stop-opacity:0.37"/>
		<stop  offset="0.87" style="stop-color:#FEB90F;stop-opacity:0.1"/>
		<stop  offset="1" style="stop-color:#FFBA10;stop-opacity:0"/>
	</linearGradient>
	<path class="st11" d="M672.3,59.3l0.3-5.9c0-0.2-0.1-0.4-0.2-0.5l-4-3.6c-0.3-0.2-0.3-0.7-0.1-0.9c0,0,0,0,0.1-0.1l0.2-0.2l4.9-1.5
		c0.2-0.1,0.3-0.2,0.4-0.4l1.7-5.6c0-0.3,0.3-0.5,0.6-0.5c0.2,0,0.4,0.1,0.4,0.3l2.8,5c0.1,0.2,0.2,0.3,0.4,0.3l5.1,0.2
		c0.3,0.1,0.6,0.4,0.5,0.7c0,0,0,0.1,0,0.1c0,0.1-0.1,0.2-0.1,0.3l-3.2,4.6c-0.1,0.2-0.2,0.4-0.1,0.6l1.4,5.7c0.1,0.5-0.3,1-0.7,0.8
		l-4.7-2.1c-0.2-0.1-0.4-0.1-0.5,0.1l-4.2,3.4c-0.4,0.1-0.9-0.1-1-0.6C672.3,59.4,672.3,59.3,672.3,59.3z"/>
	
		<linearGradient id="SVGID_12_" gradientUnits="userSpaceOnUse" x1="2496.8074" y1="681.5401" x2="2554.6973" y2="2040.77" gradientTransform="matrix(-1 0 0 -1 3646.49 1723.4099)">
		<stop  offset="0" style="stop-color:#F6AC07"/>
		<stop  offset="0.19" style="stop-color:#F8AF09;stop-opacity:0.79"/>
		<stop  offset="0.59" style="stop-color:#FCB50D;stop-opacity:0.37"/>
		<stop  offset="0.87" style="stop-color:#FEB90F;stop-opacity:0.1"/>
		<stop  offset="1" style="stop-color:#FFBA10;stop-opacity:0"/>
	</linearGradient>
	<path class="st12" d="M1130.6,409.5l-5.1-0.1c-0.2,0-0.4,0.1-0.5,0.3l-2.9,4.9c-0.1,0.3-0.4,0.4-0.7,0.3c0,0,0,0,0,0
		c-0.2-0.1-0.3-0.3-0.3-0.5l-1.5-5.7c0-0.2-0.2-0.3-0.4-0.4l-4.8-1.8c-0.3-0.2-0.5-0.6-0.3-0.9c0-0.1,0.1-0.2,0.2-0.2l4.2-3.4
		c0.2-0.1,0.2-0.3,0.2-0.5v-6c0-0.5,0.5-0.9,0.9-0.5l4,3.6c0.1,0.1,0.3,0.2,0.5,0.1l4.8-1.9c0.4-0.2,0.8,0.3,0.7,0.8l-1.6,5.6
		c-0.1,0.2,0,0.4,0.1,0.6l3,4.8c0.2,0.3,0.1,0.7-0.1,0.9L1130.6,409.5z"/>
	
		<linearGradient id="SVGID_13_" gradientUnits="userSpaceOnUse" x1="2915.4443" y1="659.6394" x2="2973.4246" y2="2021.1394" gradientTransform="matrix(-1 0 0 -1 3646.49 1723.4099)">
		<stop  offset="0" style="stop-color:#F6AC07"/>
		<stop  offset="0.19" style="stop-color:#F8AF09;stop-opacity:0.79"/>
		<stop  offset="0.59" style="stop-color:#FCB50D;stop-opacity:0.37"/>
		<stop  offset="0.87" style="stop-color:#FEB90F;stop-opacity:0.1"/>
		<stop  offset="1" style="stop-color:#FFBA10;stop-opacity:0"/>
	</linearGradient>
	<path class="st13" d="M706.4,472l-4.4-6.8c-0.1-0.2-0.4-0.4-0.7-0.4l-7.3,0.3c-0.7,0-1-0.8-0.7-1.5l4.2-7c0.2-0.2,0.2-0.5,0.1-0.8
		l-2.5-8c-0.2-0.7,0.4-1.4,1-1.2l6.9,2.5c0.3,0.1,0.5,0,0.7-0.2l5.7-5.3c0.5-0.5,1.3,0,1.3,0.7l0.1,8.5c0,0.3,0.1,0.6,0.4,0.8l6,4.7
		c0.4,0.4,0.5,1,0.1,1.4c-0.1,0.1-0.2,0.2-0.3,0.2l-6.9,2.8c-0.3,0.1-0.4,0.3-0.5,0.6l-2,8.2c-0.1,0.4-0.5,0.7-0.9,0.6
		C706.7,472.2,706.5,472.1,706.4,472z"/>
	
		<linearGradient id="SVGID_14_" gradientUnits="userSpaceOnUse" x1="2412.0256" y1="684.7798" x2="2470.0056" y2="2046.2997" gradientTransform="matrix(-1 0 0 -1 3646.49 1723.4099)">
		<stop  offset="0" style="stop-color:#F6AC07"/>
		<stop  offset="0.19" style="stop-color:#F8AF09;stop-opacity:0.79"/>
		<stop  offset="0.59" style="stop-color:#FCB50D;stop-opacity:0.37"/>
		<stop  offset="0.87" style="stop-color:#FEB90F;stop-opacity:0.1"/>
		<stop  offset="1" style="stop-color:#FFBA10;stop-opacity:0"/>
	</linearGradient>
	<path class="st14" d="M1209.9,450l-4.4-6.8c-0.1-0.2-0.4-0.4-0.7-0.4l-7.3,0.3c-0.5,0-0.8-0.5-0.8-1c0,0,0,0,0,0
		c0-0.2,0.1-0.3,0.2-0.4l4.2-7c0.1-0.3,0.2-0.6,0.1-0.9l-2.5-8c-0.2-0.7,0.3-1.4,1-1.2l6.9,2.5c0.3,0.1,0.5,0,0.7-0.2l5.7-5.3
		c0.5-0.5,1.3-0.1,1.3,0.7l0.1,8.5c0,0.3,0.1,0.6,0.4,0.8l6,4.7c0.4,0.4,0.5,1,0.1,1.4c-0.1,0.1-0.2,0.2-0.3,0.2l-6.9,2.7
		c-0.3,0.1-0.4,0.3-0.5,0.6l-2,8.2c0,0.4-0.4,0.7-0.8,0.7C1210.2,450.3,1210,450.2,1209.9,450z"/>
	
		<linearGradient id="SVGID_15_" gradientUnits="userSpaceOnUse" x1="2331.2559" y1="471.5298" x2="2389.2358" y2="1833.0398" gradientTransform="matrix(-1 0 0 -1 3646.49 1723.4099)">
		<stop  offset="0" style="stop-color:#F6AC07"/>
		<stop  offset="0.19" style="stop-color:#F8AF09;stop-opacity:0.79"/>
		<stop  offset="0.59" style="stop-color:#FCB50D;stop-opacity:0.37"/>
		<stop  offset="0.87" style="stop-color:#FEB90F;stop-opacity:0.1"/>
		<stop  offset="1" style="stop-color:#FFBA10;stop-opacity:0"/>
	</linearGradient>
	<path class="st15" d="M1290.7,663.3l-4.4-6.8c-0.1-0.2-0.4-0.4-0.7-0.4l-7.3,0.3c-0.5,0-0.8-0.5-0.8-1c0,0,0,0,0,0
		c0-0.2,0.1-0.3,0.2-0.4l4.2-7c0.1-0.3,0.2-0.6,0.1-0.9l-2.5-8c-0.2-0.7,0.3-1.4,1-1.2l6.9,2.5c0.3,0.1,0.5,0,0.7-0.2l5.7-5.3
		c0.5-0.5,1.3-0.1,1.3,0.7l0.1,8.5c0,0.3,0.1,0.6,0.4,0.8l6,4.7c0.4,0.4,0.5,1,0.1,1.4c-0.1,0.1-0.2,0.2-0.3,0.2l-6.9,2.7
		c-0.3,0.1-0.4,0.3-0.5,0.6l-2,8.2c0,0.4-0.4,0.7-0.8,0.7C1291,663.5,1290.8,663.5,1290.7,663.3z"/>
	
		<linearGradient id="SVGID_16_" gradientUnits="userSpaceOnUse" x1="2698.376" y1="670.2698" x2="2756.356" y2="2032.0198" gradientTransform="matrix(-1 0 0 -1 3646.49 1723.4099)">
		<stop  offset="0" style="stop-color:#F6AC07"/>
		<stop  offset="0.19" style="stop-color:#F8AF09;stop-opacity:0.79"/>
		<stop  offset="0.59" style="stop-color:#FCB50D;stop-opacity:0.37"/>
		<stop  offset="0.87" style="stop-color:#FEB90F;stop-opacity:0.1"/>
		<stop  offset="1" style="stop-color:#FFBA10;stop-opacity:0"/>
	</linearGradient>
	<path class="st16" d="M910.6,371.5l3-4.8c0.1-0.2,0.1-0.4,0.1-0.6l-1.6-5.6c-0.2-0.5,0.3-1,0.7-0.8l4.8,1.9c0.2,0.1,0.4,0,0.5-0.1
		l4.1-3.6c0.2-0.2,0.6-0.1,0.8,0.1c0.1,0.1,0.1,0.3,0.1,0.4l-0.1,5.9c0,0.2,0.1,0.4,0.2,0.5l4.2,3.4c0.3,0.2,0.3,0.7,0.1,0.9
		c0,0,0,0-0.1,0.1l-0.2,0.2l-4.9,1.8c-0.2,0.1-0.3,0.2-0.4,0.4l-1.5,5.7c0,0.3-0.2,0.5-0.5,0.5c-0.2,0-0.4-0.1-0.5-0.3l-2.9-4.9
		c-0.1-0.2-0.3-0.3-0.5-0.3l-5.1,0.1c-0.3-0.1-0.6-0.4-0.5-0.7c0,0,0-0.1,0-0.1C910.5,371.7,910.5,371.6,910.6,371.5z"/>
</g>
<g class="st0">
	
		<linearGradient id="SVGID_17_" gradientUnits="userSpaceOnUse" x1="3265.8005" y1="769.7738" x2="3305.4807" y2="1701.4137" gradientTransform="matrix(-1 0 0 -1 3646.49 1723.4099)">
		<stop  offset="0" style="stop-color:#F6AC07"/>
		<stop  offset="0.19" style="stop-color:#F8AF09;stop-opacity:0.79"/>
		<stop  offset="0.59" style="stop-color:#FCB50D;stop-opacity:0.37"/>
		<stop  offset="0.87" style="stop-color:#FEB90F;stop-opacity:0.1"/>
		<stop  offset="1" style="stop-color:#FFBA10;stop-opacity:0"/>
	</linearGradient>
	<path class="st17" d="M354.8,576.7l6.6,1.2c0.2,0.1,0.5,0,0.7-0.2l4.7-5.8c0.2-0.3,0.6-0.4,0.9-0.3c0,0,0.1,0,0.1,0.1
		c0.2,0.1,0.3,0.4,0.3,0.6l1.1,7.8c0,0.3,0.2,0.5,0.4,0.6l6.1,3.4c0.4,0.3,0.5,0.9,0.3,1.3c-0.1,0.1-0.1,0.2-0.3,0.3l-6,3.6
		c-0.2,0.1-0.4,0.4-0.4,0.7l-0.9,7.9c-0.1,0.7-0.8,1-1.2,0.5l-4.8-5.6c-0.1-0.2-0.4-0.3-0.6-0.2l-6.6,1.4c-0.6,0.1-1-0.6-0.8-1.2
		l3.1-7c0.1-0.3,0.1-0.6,0-0.8l-3.2-7c-0.3-0.4-0.2-0.9,0.2-1.1C354.5,576.7,354.7,576.7,354.8,576.7z"/>
	
		<linearGradient id="SVGID_18_" gradientUnits="userSpaceOnUse" x1="2828.3916" y1="1532.4941" x2="2886.3315" y2="2892.844" gradientTransform="matrix(-0.75 0.67 -0.52 -0.58 3229.8201 -113.22)">
		<stop  offset="0" style="stop-color:#F6AC07"/>
		<stop  offset="0.19" style="stop-color:#F8AF09;stop-opacity:0.79"/>
		<stop  offset="0.59" style="stop-color:#FCB50D;stop-opacity:0.37"/>
		<stop  offset="0.87" style="stop-color:#FEB90F;stop-opacity:0.1"/>
		<stop  offset="1" style="stop-color:#FFBA10;stop-opacity:0"/>
	</linearGradient>
	<path class="st18" d="M0.5,602.2l8.2-5.4c0.3-0.2,0.5-0.5,0.5-0.8l0.7-9.4c0-0.5,0.4-1,0.9-1.1c0.3-0.1,0.7,0,0.8,0.3l7.1,5.5
		c0.3,0.2,0.6,0.2,0.9,0.1l9.2-3c0.5-0.2,1,0,1.2,0.5c0,0.1,0.1,0.2,0.1,0.3c0,0.2,0,0.3-0.1,0.5l-3.8,8.9c-0.1,0.3-0.1,0.7,0.1,1
		l5,7.5c0.3,0.5,0.1,1.2-0.4,1.5c-0.2,0.1-0.4,0.1-0.6,0.1l-9.5-0.1c-0.3,0-0.6,0.1-0.8,0.4l-6.1,7.7c-0.3,0.5-0.9,0.6-1.4,0.3
		c-0.2-0.1-0.4-0.3-0.4-0.6l-2-9c-0.1-0.3-0.3-0.6-0.6-0.7l-8.8-2.8C-0.2,603.8-0.3,602.7,0.5,602.2z"/>
	
		<linearGradient id="SVGID_19_" gradientUnits="userSpaceOnUse" x1="3295.7109" y1="640.35" x2="3353.7205" y2="2002.4108" gradientTransform="matrix(-1 0 0 -1 3646.49 1723.4099)">
		<stop  offset="0" style="stop-color:#F6AC07"/>
		<stop  offset="0.19" style="stop-color:#F8AF09;stop-opacity:0.79"/>
		<stop  offset="0.59" style="stop-color:#FCB50D;stop-opacity:0.37"/>
		<stop  offset="0.87" style="stop-color:#FEB90F;stop-opacity:0.1"/>
		<stop  offset="1" style="stop-color:#FFBA10;stop-opacity:0"/>
	</linearGradient>
	<path class="st19" d="M318,503.4l0.4-10c0-0.3-0.1-0.7-0.4-0.9l-6.7-6.1c-0.5-0.4-0.5-1.1-0.1-1.6c0,0,0,0,0,0
		c0.1-0.1,0.2-0.2,0.4-0.3l8.2-2.6c0.3-0.1,0.5-0.4,0.6-0.7l2.8-9.4c0.1-0.4,0.5-0.8,0.9-0.7c0,0,0.1,0,0.1,0c0.3,0,0.5,0.2,0.6,0.5
		l4.6,8.4c0.1,0.3,0.4,0.5,0.7,0.5l8.5,0.3c0.6,0.1,1,0.7,0.9,1.3c0,0.2-0.1,0.3-0.2,0.5l-5.4,7.8c-0.2,0.3-0.3,0.7-0.2,1l2.4,9.6
		c0.2,0.9-0.5,1.6-1.2,1.3l-7.9-3.6c-0.3-0.1-0.6-0.1-0.9,0.1l-7,5.6C318.8,504.9,317.9,504.3,318,503.4z"/>
	
		<linearGradient id="SVGID_20_" gradientUnits="userSpaceOnUse" x1="3074.6826" y1="653.1199" x2="3132.5327" y2="2011.3599" gradientTransform="matrix(-1 0 0 -1 3646.49 1723.4099)">
		<stop  offset="0" style="stop-color:#F6AC07"/>
		<stop  offset="0.19" style="stop-color:#F8AF09;stop-opacity:0.79"/>
		<stop  offset="0.59" style="stop-color:#FCB50D;stop-opacity:0.37"/>
		<stop  offset="0.87" style="stop-color:#FEB90F;stop-opacity:0.1"/>
		<stop  offset="1" style="stop-color:#FFBA10;stop-opacity:0"/>
	</linearGradient>
	<path class="st20" d="M561,479.2l-6.4,6.8c-0.2,0.3-0.4,0.6-0.3,1l1.1,10c0.1,0.9-0.7,1.5-1.4,1.1l-7.5-5c-0.3-0.2-0.6-0.2-0.9,0
		l-7.8,4.4c-0.7,0.4-1.5-0.3-1.3-1.2l1.8-9.9c0.1-0.3,0-0.7-0.2-1l-5.9-7.4c-0.4-0.5-0.3-1.2,0.1-1.6c0.1-0.1,0.2-0.2,0.4-0.2
		l8.6-1.1c0.3,0,0.6-0.3,0.7-0.6l4.1-8.9c0.1-0.4,0.6-0.7,1-0.5c0,0,0.1,0,0.1,0c0.3,0.1,0.5,0.3,0.5,0.6l3.5,9.2
		c0.1,0.3,0.4,0.5,0.7,0.6l8.5,1.9c0.6,0.2,0.9,0.8,0.7,1.4c0,0,0,0.1-0.1,0.1C561.1,479,561,479.1,561,479.2z"/>
	
		<linearGradient id="SVGID_21_" gradientUnits="userSpaceOnUse" x1="3201.6946" y1="644.9898" x2="3259.7046" y2="2007.0598" gradientTransform="matrix(-1 0 0 -1 3646.49 1723.4099)">
		<stop  offset="0" style="stop-color:#F6AC07"/>
		<stop  offset="0.19" style="stop-color:#F8AF09;stop-opacity:0.79"/>
		<stop  offset="0.59" style="stop-color:#FCB50D;stop-opacity:0.37"/>
		<stop  offset="0.87" style="stop-color:#FEB90F;stop-opacity:0.1"/>
		<stop  offset="1" style="stop-color:#FFBA10;stop-opacity:0"/>
	</linearGradient>
	<path class="st21" d="M412.8,446.7l0.3-6c0-0.2-0.1-0.4-0.2-0.5l-4-3.6c-0.3-0.2-0.3-0.7-0.1-0.9c0,0,0,0,0.1-0.1l0.2-0.2l4.9-1.5
		c0.2-0.1,0.3-0.2,0.4-0.4l1.7-5.6c0-0.3,0.2-0.5,0.4-0.5c0,0,0,0,0.1,0c0.2,0,0.4,0.2,0.5,0.4l2.8,5c0.1,0.2,0.3,0.3,0.5,0.3
		l5.1,0.2c0.3,0.1,0.6,0.4,0.5,0.7c0,0,0,0.1,0,0.1c0,0.1,0,0.1-0.1,0.2l-3.2,4.6c-0.1,0.2-0.1,0.4-0.1,0.6l1.4,5.7
		c0.1,0.5-0.3,1-0.7,0.8l-4.7-2.1c-0.2-0.1-0.4-0.1-0.5,0.1l-4.2,3.4c-0.4,0.2-0.9,0-1-0.4C412.9,446.9,412.8,446.8,412.8,446.7z"/>
	
		<linearGradient id="SVGID_22_" gradientUnits="userSpaceOnUse" x1="3396.8398" y1="636.3796" x2="3454.7498" y2="1996.1295" gradientTransform="matrix(-1 0 0 -1 3646.49 1723.4099)">
		<stop  offset="0" style="stop-color:#F6AC07"/>
		<stop  offset="0.19" style="stop-color:#F8AF09;stop-opacity:0.79"/>
		<stop  offset="0.59" style="stop-color:#FCB50D;stop-opacity:0.37"/>
		<stop  offset="0.87" style="stop-color:#FEB90F;stop-opacity:0.1"/>
		<stop  offset="1" style="stop-color:#FFBA10;stop-opacity:0"/>
	</linearGradient>
	<path class="st22" d="M225,451.3l-5-5c-0.2-0.2-0.4-0.2-0.6-0.2l-6.4,2c-0.4,0.1-0.8-0.2-0.9-0.6c0-0.2,0-0.4,0.1-0.5l2.5-7.2
		c0.1-0.3,0.1-0.6-0.1-0.8l-3.6-6.5c-0.3-0.4-0.2-0.9,0.1-1.2c0,0,0,0,0.1,0c0.1-0.1,0.3-0.1,0.4-0.1l6.6,0.6c0.2,0,0.5-0.1,0.6-0.3
		l4.2-6c0.2-0.3,0.7-0.4,1-0.2c0.2,0.1,0.3,0.3,0.3,0.5l1.5,7.5c0,0.3,0.2,0.5,0.4,0.6l6.2,2.8c0.4,0.2,0.6,0.8,0.3,1.2c0,0,0,0,0,0
		c-0.1,0.1-0.1,0.2-0.2,0.3l-5.6,4c-0.2,0.2-0.3,0.4-0.4,0.7l-0.4,7.7C226.2,451.5,225.5,451.8,225,451.3z"/>
	
		<linearGradient id="SVGID_23_" gradientUnits="userSpaceOnUse" x1="3427.7324" y1="604.4507" x2="3485.6724" y2="1965.0508" gradientTransform="matrix(-1 0 0 -1 3646.49 1723.4099)">
		<stop  offset="0" style="stop-color:#F6AC07"/>
		<stop  offset="0.19" style="stop-color:#F8AF09;stop-opacity:0.79"/>
		<stop  offset="0.59" style="stop-color:#FCB50D;stop-opacity:0.37"/>
		<stop  offset="0.87" style="stop-color:#FEB90F;stop-opacity:0.1"/>
		<stop  offset="1" style="stop-color:#FFBA10;stop-opacity:0"/>
	</linearGradient>
	<path class="st23" d="M189.7,531l-0.8-7.7c0-0.3-0.2-0.5-0.4-0.6l-5.9-3.6c-0.4-0.3-0.5-0.9-0.2-1.3c0.1-0.1,0.1-0.2,0.2-0.2l6-3.3
		c0.2-0.1,0.4-0.3,0.4-0.6l1.1-7.7c0-0.4,0.3-0.7,0.7-0.7c0,0,0,0,0,0c0.2,0,0.4,0.1,0.5,0.2l4.5,5.6c0.1,0.2,0.4,0.3,0.6,0.3
		l6.5-1.2c0.4,0,0.8,0.3,0.8,0.7c0,0.2,0,0.3-0.1,0.5l-3.2,6.8c-0.1,0.3-0.1,0.5,0,0.8l3,6.9c0.2,0.4,0.1,0.9-0.3,1.1
		c-0.1,0.1-0.3,0.1-0.5,0.1l-6.5-1.4c-0.2-0.1-0.5,0-0.6,0.2l-4.7,5.5C190.5,532,189.8,531.7,189.7,531z"/>
	
		<linearGradient id="SVGID_24_" gradientUnits="userSpaceOnUse" x1="3170.355" y1="646.4998" x2="3228.3752" y2="2008.9999" gradientTransform="matrix(-1 0 0 -1 3646.49 1723.4099)">
		<stop  offset="0" style="stop-color:#F6AC07"/>
		<stop  offset="0.19" style="stop-color:#F8AF09;stop-opacity:0.79"/>
		<stop  offset="0.59" style="stop-color:#FCB50D;stop-opacity:0.37"/>
		<stop  offset="0.87" style="stop-color:#FEB90F;stop-opacity:0.1"/>
		<stop  offset="1" style="stop-color:#FFBA10;stop-opacity:0"/>
	</linearGradient>
	<path class="st24" d="M451.3,507.1l-3.3-6.7c-0.1-0.2-0.3-0.4-0.6-0.4l-6.6-0.6c-0.4-0.1-0.7-0.5-0.7-0.9c0-0.1,0-0.1,0.1-0.2
		c0-0.1,0.1-0.2,0.2-0.3l4.4-5.8c0.2-0.2,0.2-0.5,0.2-0.8l-1.5-7.5c-0.1-0.7,0.4-1.2,1-1l6,3.1c0.2,0.1,0.5,0.1,0.7,0l5.6-4
		c0.5-0.4,1.2,0.1,1.1,0.8l-0.7,7.7c0,0.3,0.1,0.5,0.3,0.7l5,5c0.3,0.4,0.3,0.9,0,1.3c-0.1,0.1-0.2,0.1-0.3,0.2l-6.5,1.6
		c-0.2,0.1-0.4,0.3-0.5,0.5l-2.5,7.2c-0.1,0.4-0.4,0.6-0.8,0.5c0,0,0,0,0,0C451.5,507.5,451.3,507.3,451.3,507.1z"/>
	
		<linearGradient id="SVGID_25_" gradientUnits="userSpaceOnUse" x1="3452.042" y1="632.3899" x2="3510.042" y2="1994.4598" gradientTransform="matrix(-1 0 0 -1 3646.49 1723.4099)">
		<stop  offset="0" style="stop-color:#F6AC07"/>
		<stop  offset="0.19" style="stop-color:#F8AF09;stop-opacity:0.79"/>
		<stop  offset="0.59" style="stop-color:#FCB50D;stop-opacity:0.37"/>
		<stop  offset="0.87" style="stop-color:#FEB90F;stop-opacity:0.1"/>
		<stop  offset="1" style="stop-color:#FFBA10;stop-opacity:0"/>
	</linearGradient>
	<path class="st25" d="M159.7,394.6l0.3-5.9c0-0.2-0.1-0.4-0.2-0.6l-4-3.6c-0.3-0.2-0.3-0.7-0.1-0.9c0,0,0,0,0.1-0.1l0.2-0.2
		l4.9-1.5c0.2-0.1,0.3-0.2,0.4-0.4l1.7-5.6c0-0.3,0.3-0.5,0.6-0.5c0.2,0,0.4,0.1,0.4,0.3l2.8,5c0.1,0.2,0.3,0.3,0.5,0.3l5.1,0.2
		c0.3,0.1,0.6,0.4,0.5,0.7c0,0,0,0.1,0,0.1c0,0.1,0,0.1-0.1,0.2l-3.2,4.6c-0.1,0.2-0.1,0.4-0.1,0.6l1.4,5.7c0.1,0.5-0.3,1-0.7,0.8
		l-4.7-2.1c-0.2-0.1-0.4,0-0.5,0.1l-4.2,3.4C160.2,395.5,159.7,395.2,159.7,394.6z"/>
	
		<linearGradient id="SVGID_26_" gradientUnits="userSpaceOnUse" x1="3574.9421" y1="632.3899" x2="3632.9421" y2="1994.4598" gradientTransform="matrix(-1 0 0 -1 3646.49 1723.4099)">
		<stop  offset="0" style="stop-color:#F6AC07"/>
		<stop  offset="0.19" style="stop-color:#F8AF09;stop-opacity:0.79"/>
		<stop  offset="0.59" style="stop-color:#FCB50D;stop-opacity:0.37"/>
		<stop  offset="0.87" style="stop-color:#FEB90F;stop-opacity:0.1"/>
		<stop  offset="1" style="stop-color:#FFBA10;stop-opacity:0"/>
	</linearGradient>
	<path class="st26" d="M36.8,394.6l0.3-5.9c0-0.2-0.1-0.4-0.2-0.6l-4-3.6c-0.3-0.2-0.3-0.7-0.1-0.9c0,0,0,0,0.1-0.1l0.2-0.2l4.9-1.5
		c0.2-0.1,0.3-0.2,0.4-0.4l1.7-5.6c0-0.3,0.3-0.5,0.6-0.5c0.2,0,0.4,0.1,0.4,0.3l2.8,5c0.1,0.2,0.3,0.3,0.5,0.3l5.1,0.2
		c0.3,0.1,0.6,0.4,0.5,0.7c0,0,0,0.1,0,0.1c0,0.1,0,0.1-0.1,0.2l-3.2,4.6c-0.1,0.2-0.1,0.4-0.1,0.6L48,393c0.1,0.5-0.3,1-0.7,0.8
		l-4.7-2.1c-0.2-0.1-0.4,0-0.5,0.1l-4.2,3.4C37.3,395.5,36.8,395.2,36.8,394.6z"/>
	
		<linearGradient id="SVGID_27_" gradientUnits="userSpaceOnUse" x1="3436.7715" y1="969.0524" x2="3494.7715" y2="2331.1223" gradientTransform="matrix(-1 0 0 -1 3646.49 1723.4099)">
		<stop  offset="0" style="stop-color:#F6AC07"/>
		<stop  offset="0.19" style="stop-color:#F8AF09;stop-opacity:0.79"/>
		<stop  offset="0.59" style="stop-color:#FCB50D;stop-opacity:0.37"/>
		<stop  offset="0.87" style="stop-color:#FEB90F;stop-opacity:0.1"/>
		<stop  offset="1" style="stop-color:#FFBA10;stop-opacity:0"/>
	</linearGradient>
	<path class="st27" d="M175,57.9l0.3-5.9c0-0.2-0.1-0.4-0.2-0.6l-4-3.6c-0.3-0.2-0.3-0.7-0.1-0.9c0,0,0,0,0.1-0.1l0.2-0.2l4.9-1.5
		c0.2-0.1,0.3-0.2,0.4-0.4l1.7-5.6c0-0.3,0.3-0.5,0.6-0.5c0.2,0,0.4,0.1,0.4,0.3l2.8,5c0.1,0.2,0.3,0.3,0.5,0.3l5.1,0.2
		c0.3,0.1,0.6,0.4,0.5,0.7c0,0,0,0.1,0,0.1c0,0.1,0,0.1-0.1,0.2l-3.2,4.6c-0.1,0.2-0.1,0.4-0.1,0.6l1.4,5.7c0.1,0.5-0.3,1-0.7,0.8
		l-4.7-2.1c-0.2-0.1-0.4,0-0.5,0.1l-4.2,3.4C175.5,58.8,175,58.5,175,57.9z"/>
	
		<linearGradient id="SVGID_28_" gradientUnits="userSpaceOnUse" x1="3097.1189" y1="651.58" x2="3155.009" y2="2010.8101" gradientTransform="matrix(-1 0 0 -1 3646.49 1723.4099)">
		<stop  offset="0" style="stop-color:#F6AC07"/>
		<stop  offset="0.19" style="stop-color:#F8AF09;stop-opacity:0.79"/>
		<stop  offset="0.59" style="stop-color:#FCB50D;stop-opacity:0.37"/>
		<stop  offset="0.87" style="stop-color:#FEB90F;stop-opacity:0.1"/>
		<stop  offset="1" style="stop-color:#FFBA10;stop-opacity:0"/>
	</linearGradient>
	<path class="st28" d="M528.6,398.6l-5.1-0.1c-0.2,0-0.4,0.1-0.5,0.3l-2.9,4.9c-0.1,0.3-0.4,0.4-0.7,0.3c0,0,0,0,0,0
		c-0.2-0.1-0.3-0.3-0.3-0.5l-1.5-5.7c0-0.2-0.2-0.4-0.4-0.4l-4.8-1.8c-0.3-0.2-0.5-0.6-0.3-0.9c0-0.1,0.1-0.2,0.2-0.2l4.2-3.4
		c0.2-0.1,0.2-0.3,0.2-0.5l-0.1-6c0-0.3,0.2-0.6,0.5-0.6c0.1,0,0.3,0,0.4,0.1l4.1,3.6c0.1,0.1,0.3,0.2,0.5,0.1l4.8-1.9
		c0.4-0.2,0.8,0.3,0.7,0.8l-1.7,5.6c-0.1,0.2,0,0.4,0.1,0.6l3,4.8c0.2,0.3,0.1,0.7-0.2,0.9c0,0,0,0,0,0
		C528.8,398.5,528.7,398.5,528.6,398.6z"/>
	
		<linearGradient id="SVGID_29_" gradientUnits="userSpaceOnUse" x1="3515.7461" y1="629.6097" x2="3573.7263" y2="1991.1097" gradientTransform="matrix(-1 0 0 -1 3646.49 1723.4099)">
		<stop  offset="0" style="stop-color:#F6AC07"/>
		<stop  offset="0.19" style="stop-color:#F8AF09;stop-opacity:0.79"/>
		<stop  offset="0.59" style="stop-color:#FCB50D;stop-opacity:0.37"/>
		<stop  offset="0.87" style="stop-color:#FEB90F;stop-opacity:0.1"/>
		<stop  offset="1" style="stop-color:#FFBA10;stop-opacity:0"/>
	</linearGradient>
	<path class="st29" d="M104.4,461l-4.4-6.8c-0.1-0.2-0.4-0.4-0.7-0.4l-7.3,0.4c-0.5-0.1-0.9-0.6-0.8-1.1c0-0.1,0.1-0.3,0.1-0.4
		l4.2-7c0.2-0.3,0.2-0.6,0.1-0.9l-2.5-8c-0.2-0.7,0.4-1.4,1-1.2l6.9,2.5c0.3,0.1,0.5,0,0.7-0.2l5.6-5.2c0.5-0.5,1.3-0.1,1.3,0.7
		l0.1,8.5c0,0.3,0.1,0.6,0.4,0.8l6,4.7c0.4,0.4,0.5,1,0.1,1.4c-0.1,0.1-0.2,0.2-0.3,0.2l-6.9,2.7c-0.3,0.1-0.5,0.3-0.5,0.6l-2,8.2
		c-0.1,0.4-0.5,0.6-0.9,0.5c0,0,0,0,0,0C104.6,461.2,104.5,461.1,104.4,461z"/>
	
		<linearGradient id="SVGID_30_" gradientUnits="userSpaceOnUse" x1="2528.3718" y1="954.1469" x2="2586.3521" y2="2315.647" gradientTransform="matrix(-0.82 1.12 -0.98 -0.72 3703.7002 -1208.73)">
		<stop  offset="0" style="stop-color:#F6AC07"/>
		<stop  offset="0.19" style="stop-color:#F8AF09;stop-opacity:0.79"/>
		<stop  offset="0.59" style="stop-color:#FCB50D;stop-opacity:0.37"/>
		<stop  offset="0.87" style="stop-color:#FEB90F;stop-opacity:0.1"/>
		<stop  offset="1" style="stop-color:#FFBA10;stop-opacity:0"/>
	</linearGradient>
	<path class="st30" d="M44.5,503.9H34.2c-0.4,0-0.7,0.2-1,0.5l-5.6,8.5c-0.4,0.5-1.1,0.6-1.6,0.2c0,0,0,0-0.1-0.1
		c-0.1-0.1-0.2-0.3-0.3-0.4l-3.4-9.8c-0.1-0.4-0.4-0.7-0.8-0.8l-9.9-3c-0.6-0.2-0.9-0.9-0.7-1.5c0.1-0.2,0.2-0.3,0.3-0.5l8.1-5.9
		c0.3-0.2,0.4-0.6,0.4-0.9l-0.5-10c0-0.6,0.4-1.1,1-1.2c0.3,0,0.5,0.1,0.8,0.3l8.4,6c0.3,0.2,0.7,0.3,1.1,0.1l9.6-3.3
		c0.6-0.2,1.3,0.1,1.5,0.7c0,0.1,0,0.1,0,0.2c0,0.2,0,0.4-0.1,0.5l-3,9.7c-0.1,0.3,0,0.7,0.2,1l6.4,8.2c0.3,0.5,0.2,1.1-0.3,1.4
		c0,0,0,0,0,0C44.9,503.8,44.7,503.8,44.5,503.9z"/>
	
		<linearGradient id="SVGID_31_" gradientUnits="userSpaceOnUse" x1="1987.7217" y1="117.5826" x2="2045.7017" y2="1479.0826" gradientTransform="matrix(-0.82 1.12 -0.98 -0.72 3703.7002 -1208.73)">
		<stop  offset="0" style="stop-color:#F6AC07"/>
		<stop  offset="0.19" style="stop-color:#F8AF09;stop-opacity:0.79"/>
		<stop  offset="0.59" style="stop-color:#FCB50D;stop-opacity:0.37"/>
		<stop  offset="0.87" style="stop-color:#FEB90F;stop-opacity:0.1"/>
		<stop  offset="1" style="stop-color:#FFBA10;stop-opacity:0"/>
	</linearGradient>
	<path class="st31" d="M1312.5,503.9h-10.3c-0.4,0-0.7,0.2-1,0.5l-5.6,8.5c-0.4,0.5-1.1,0.6-1.6,0.2c0,0,0,0-0.1-0.1
		c-0.1-0.1-0.2-0.3-0.3-0.4l-3.4-9.8c-0.1-0.4-0.4-0.7-0.8-0.8l-9.9-3c-0.6-0.2-0.9-0.9-0.7-1.5c0.1-0.2,0.2-0.3,0.3-0.5l8.1-5.9
		c0.3-0.2,0.4-0.6,0.4-0.9l-0.5-10c0-0.6,0.4-1.1,1-1.2c0.3,0,0.5,0.1,0.8,0.3l8.4,6c0.3,0.2,0.7,0.3,1.1,0.1l9.6-3.3
		c0.6-0.2,1.3,0.1,1.5,0.7c0,0.1,0,0.1,0,0.2c0,0.2,0,0.4-0.1,0.5l-3,9.7c-0.1,0.3,0,0.7,0.2,1l6.4,8.2c0.3,0.5,0.2,1.1-0.3,1.4
		c0,0,0,0,0,0C1312.9,503.8,1312.7,503.8,1312.5,503.9z"/>
	
		<linearGradient id="SVGID_32_" gradientUnits="userSpaceOnUse" x1="2992.8938" y1="655.6699" x2="3050.874" y2="2017.1698" gradientTransform="matrix(-1 0 0 -1 3646.49 1723.4099)">
		<stop  offset="0" style="stop-color:#F6AC07"/>
		<stop  offset="0.19" style="stop-color:#F8AF09;stop-opacity:0.79"/>
		<stop  offset="0.59" style="stop-color:#FCB50D;stop-opacity:0.37"/>
		<stop  offset="0.87" style="stop-color:#FEB90F;stop-opacity:0.1"/>
		<stop  offset="1" style="stop-color:#FFBA10;stop-opacity:0"/>
	</linearGradient>
	<path class="st32" d="M624.9,382.1l-4.4-6.8c-0.1-0.2-0.4-0.4-0.7-0.4l-7.3,0.3c-0.5,0-0.8-0.5-0.8-1c0,0,0,0,0,0
		c0-0.2,0.1-0.3,0.2-0.4l4.2-7c0.2-0.3,0.2-0.6,0.1-0.9l-2.5-8c-0.2-0.7,0.3-1.4,1-1.2l6.9,2.5c0.3,0.1,0.5,0,0.7-0.2l5.7-5.3
		c0.5-0.5,1.3-0.1,1.3,0.7l0.1,8.5c0,0.3,0.1,0.6,0.4,0.8l6,4.7c0.4,0.4,0.5,1,0.1,1.4c-0.1,0.1-0.2,0.2-0.3,0.2l-6.9,2.8
		c-0.3,0.1-0.4,0.3-0.5,0.6l-2,8.2c0,0.4-0.4,0.7-0.8,0.7C625.3,382.4,625,382.3,624.9,382.1C624.9,382.1,624.9,382.1,624.9,382.1z"
		/>
	
		<linearGradient id="SVGID_33_" gradientUnits="userSpaceOnUse" x1="3291.8574" y1="640.6097" x2="3349.8474" y2="2002.3596" gradientTransform="matrix(-1 0 0 -1 3646.49 1723.4099)">
		<stop  offset="0" style="stop-color:#F6AC07"/>
		<stop  offset="0.19" style="stop-color:#F8AF09;stop-opacity:0.79"/>
		<stop  offset="0.59" style="stop-color:#FCB50D;stop-opacity:0.37"/>
		<stop  offset="0.87" style="stop-color:#FEB90F;stop-opacity:0.1"/>
		<stop  offset="1" style="stop-color:#FFBA10;stop-opacity:0"/>
	</linearGradient>
	<path class="st33" d="M316.7,388.9l3-4.8c0.1-0.2,0.1-0.4,0.1-0.6l-1.6-5.6c-0.2-0.5,0.3-1,0.7-0.8l4.8,1.9c0.2,0.1,0.4,0,0.5-0.1
		l4.1-3.6c0.2-0.2,0.6-0.1,0.8,0.1c0.1,0.1,0.1,0.3,0.1,0.4l-0.1,6c0,0.2,0.1,0.4,0.2,0.5l4.1,3.5c0.3,0.2,0.3,0.7,0.1,0.9
		c0,0,0,0-0.1,0.1l-0.2,0.2l-4.9,1.8c-0.2,0.1-0.3,0.2-0.4,0.4l-1.5,5.7c0,0.3-0.2,0.5-0.5,0.5c-0.2,0-0.4-0.1-0.5-0.3l-2.9-4.9
		c-0.1-0.2-0.3-0.3-0.5-0.3l-5.1,0.1c-0.3-0.1-0.6-0.4-0.5-0.7c0,0,0-0.1,0-0.1C316.6,389.1,316.7,389,316.7,388.9z"/>
	
		<linearGradient id="SVGID_34_" gradientUnits="userSpaceOnUse" x1="2990.6907" y1="729.3017" x2="3038.6106" y2="1854.6816" gradientTransform="matrix(-1 0 0 -1 3646.49 1723.4099)">
		<stop  offset="0" style="stop-color:#F6AC07"/>
		<stop  offset="0.19" style="stop-color:#F8AF09;stop-opacity:0.79"/>
		<stop  offset="0.59" style="stop-color:#FCB50D;stop-opacity:0.37"/>
		<stop  offset="0.87" style="stop-color:#FEB90F;stop-opacity:0.1"/>
		<stop  offset="1" style="stop-color:#FFBA10;stop-opacity:0"/>
	</linearGradient>
	<path class="st34" d="M629.1,555.9l0.1-10.6c0-0.3-0.1-0.7-0.4-0.9l-7.4-6.1c-0.5-0.4-0.6-1.2-0.1-1.7c0,0,0,0,0-0.1
		c0.1-0.2,0.2-0.3,0.4-0.3l8.6-3.1c0.3-0.1,0.6-0.4,0.7-0.8l2.6-10.1c0.1-0.5,0.5-0.8,1-0.8c0.3,0,0.6,0.2,0.7,0.5l5.2,8.6
		c0.2,0.3,0.5,0.5,0.8,0.5l9-0.2c0.6,0.1,1.1,0.7,1.1,1.3c0,0.2-0.1,0.4-0.2,0.6l-5.4,8.5c-0.2,0.3-0.2,0.7-0.2,1.1l2.9,10
		c0.3,0.9-0.5,1.7-1.2,1.5l-8.5-3.4c-0.3-0.2-0.7-0.1-0.9,0.2l-7.2,6.4c-0.5,0.3-1.2,0.1-1.5-0.5
		C629.2,556.3,629.1,556.1,629.1,555.9z"/>
</g>
<linearGradient id="SVGID_35_" gradientUnits="userSpaceOnUse" x1="2648.2339" y1="756.3898" x2="2705.874" y2="2110.0498" gradientTransform="matrix(-1 0 0 -1 3646.49 1723.4099)">
	<stop  offset="0" style="stop-color:#F6AC07"/>
	<stop  offset="0.19" style="stop-color:#F8AF09;stop-opacity:0.79"/>
	<stop  offset="0.59" style="stop-color:#FCB50D;stop-opacity:0.37"/>
	<stop  offset="0.87" style="stop-color:#FEB90F;stop-opacity:0.1"/>
	<stop  offset="1" style="stop-color:#FFBA10;stop-opacity:0"/>
</linearGradient>
<path class="st35" d="M964.1,20.2l-0.9,5.8c0,0.2,0,0.4,0.1,0.6l3.6,4.2c0.2,0.3,0.2,0.7-0.1,0.9c0,0,0,0,0,0
	c-0.1,0.1-0.2,0.1-0.3,0.1l-5,0.8c-0.2,0-0.3,0.2-0.4,0.3l-2.3,5.3c-0.1,0.3-0.3,0.5-0.6,0.4c-0.2,0-0.4-0.2-0.4-0.4l-2.2-5.4
	c-0.1-0.2-0.2-0.3-0.4-0.4l-5-1c-0.4-0.1-0.6-0.5-0.5-0.9c0,0,0,0,0,0c0-0.1,0.1-0.2,0.2-0.3l3.7-4c0.1-0.2,0.2-0.4,0.2-0.6
	l-0.8-5.9c-0.1-0.3,0.1-0.6,0.4-0.7c0.1,0,0.2,0,0.4,0l4.4,2.8c0.2,0.1,0.3,0.1,0.5,0l4.5-2.7C963.7,19.3,964.2,19.7,964.1,20.2z"/>
<linearGradient id="SVGID_36_" gradientUnits="userSpaceOnUse" x1="2618.7717" y1="612.0031" x2="2676.5837" y2="1969.6969" gradientTransform="matrix(-6.123234e-17 1 -1 -6.123234e-17 2532.4722 -2538.7581)">
	<stop  offset="0" style="stop-color:#F6AC07"/>
	<stop  offset="0.19" style="stop-color:#F8AF09;stop-opacity:0.79"/>
	<stop  offset="0.59" style="stop-color:#FCB50D;stop-opacity:0.37"/>
	<stop  offset="0.87" style="stop-color:#FEB90F;stop-opacity:0.1"/>
	<stop  offset="1" style="stop-color:#FFBA10;stop-opacity:0"/>
</linearGradient>
<path class="st36" d="M970.9,112.6l5.8,1.2c0.2,0,0.4,0,0.6-0.1l4.2-4.6c0.3-0.3,0.7-0.2,0.9,0.1c0,0,0,0,0,0
	c0.1,0.1,0.1,0.2,0.1,0.4l0.8,6.4c0,0.3,0.2,0.4,0.3,0.5l5.3,3c0.3,0.1,0.5,0.4,0.4,0.8c0,0.3-0.2,0.5-0.4,0.5l-5.4,2.8
	c-0.2,0.1-0.3,0.3-0.4,0.5l-1,6.4c-0.1,0.5-0.5,0.8-0.9,0.7c0,0,0,0,0,0c-0.1,0-0.2-0.1-0.3-0.3l-4-4.8c-0.2-0.1-0.4-0.2-0.6-0.3
	l-5.9,1c-0.3,0.1-0.6-0.2-0.7-0.6c0-0.2,0-0.3,0-0.5l2.8-5.7c0.1-0.2,0.1-0.4,0-0.6l-2.7-5.8C970,113.1,970.4,112.5,970.9,112.6z"/>
<linearGradient id="SVGID_37_" gradientUnits="userSpaceOnUse" x1="2613.2854" y1="767.5033" x2="2671.0972" y2="2125.197" gradientTransform="matrix(-6.123234e-17 1 -1 -6.123234e-17 2532.4722 -2538.7581)">
	<stop  offset="0" style="stop-color:#F6AC07"/>
	<stop  offset="0.19" style="stop-color:#F8AF09;stop-opacity:0.79"/>
	<stop  offset="0.59" style="stop-color:#FCB50D;stop-opacity:0.37"/>
	<stop  offset="0.87" style="stop-color:#FEB90F;stop-opacity:0.1"/>
	<stop  offset="1" style="stop-color:#FFBA10;stop-opacity:0"/>
</linearGradient>
<path class="st37" d="M815.4,107.1l5.8,1.2c0.2,0,0.4,0,0.6-0.1l4.2-4.6c0.3-0.3,0.7-0.2,0.9,0.1c0,0,0,0,0,0
	c0.1,0.1,0.1,0.2,0.1,0.4l0.8,6.4c0,0.3,0.2,0.4,0.3,0.5l5.3,3c0.3,0.1,0.5,0.4,0.4,0.8c0,0.3-0.2,0.5-0.4,0.5l-5.4,2.8
	c-0.2,0.1-0.3,0.3-0.4,0.5l-1,6.4c-0.1,0.5-0.5,0.8-0.9,0.7c0,0,0,0,0,0c-0.1,0-0.2-0.1-0.3-0.3l-4-4.8c-0.2-0.1-0.4-0.2-0.6-0.3
	l-5.9,1c-0.3,0.1-0.6-0.2-0.7-0.6c0-0.2,0-0.3,0-0.5l2.8-5.7c0.1-0.2,0.1-0.4,0-0.6l-2.7-5.8C814.5,107.6,814.9,107,815.4,107.1z"/>
<linearGradient id="SVGID_38_" gradientUnits="userSpaceOnUse" x1="2508.5684" y1="680.1271" x2="2566.3083" y2="2035.9772" gradientTransform="matrix(-1 0 0 -1 3646.49 1723.4099)">
	<stop  offset="0" style="stop-color:#F6AC07"/>
	<stop  offset="0.19" style="stop-color:#F8AF09;stop-opacity:0.79"/>
	<stop  offset="0.59" style="stop-color:#FCB50D;stop-opacity:0.37"/>
	<stop  offset="0.87" style="stop-color:#FEB90F;stop-opacity:0.1"/>
	<stop  offset="1" style="stop-color:#FFBA10;stop-opacity:0"/>
</linearGradient>
<path class="st38" d="M1100.4,195.4l3.6,4.2c0.1,0.1,0.3,0.2,0.5,0.2l5-1.2c0.4-0.1,0.8,0.4,0.6,0.9l-2.2,5.3
	c-0.1,0.2-0.1,0.4,0,0.6l2.5,5.2c0.2,0.3,0,0.8-0.3,0.9c-0.1,0-0.1,0.1-0.2,0.1l-5-0.9c-0.2,0-0.4,0.1-0.5,0.2l-3.4,4.4
	c-0.2,0.2-0.5,0.3-0.7,0.1c0,0,0,0,0,0c-0.1-0.1-0.2-0.2-0.2-0.4l-0.9-5.8c0-0.2-0.1-0.4-0.3-0.5l-4.6-2.5c-0.3-0.2-0.4-0.7-0.2-1
	l0.2-0.2l4.5-2.8c0.2-0.1,0.3-0.3,0.3-0.5l0.6-5.9c0-0.3,0.2-0.5,0.5-0.6C1100.2,195.3,1100.3,195.3,1100.4,195.4z"/>
<linearGradient id="SVGID_39_" gradientUnits="userSpaceOnUse" x1="2335.6702" y1="786.8495" x2="2393.4102" y2="2142.6995" gradientTransform="matrix(-1 0 0 -1 3646.49 1723.4099)">
	<stop  offset="0" style="stop-color:#F6AC07"/>
	<stop  offset="0.19" style="stop-color:#F8AF09;stop-opacity:0.79"/>
	<stop  offset="0.59" style="stop-color:#FCB50D;stop-opacity:0.37"/>
	<stop  offset="0.87" style="stop-color:#FEB90F;stop-opacity:0.1"/>
	<stop  offset="1" style="stop-color:#FFBA10;stop-opacity:0"/>
</linearGradient>
<path class="st39" d="M1273.3,88.7l3.6,4.2c0.1,0.1,0.3,0.2,0.5,0.2l5-1.2c0.4-0.1,0.8,0.4,0.6,0.9l-2.2,5.3c-0.1,0.2-0.1,0.4,0,0.6
	l2.5,5.2c0.2,0.3,0,0.8-0.3,0.9c-0.1,0-0.1,0.1-0.2,0.1l-5-0.9c-0.2,0-0.4,0.1-0.5,0.2l-3.4,4.4c-0.2,0.2-0.5,0.3-0.7,0.1
	c0,0,0,0,0,0c-0.1-0.1-0.2-0.2-0.2-0.4l-0.9-5.8c0-0.2-0.1-0.4-0.3-0.5l-4.6-2.5c-0.3-0.2-0.4-0.7-0.2-1l0.2-0.2l4.5-2.8
	c0.2-0.1,0.3-0.3,0.3-0.5l0.6-5.9c0-0.3,0.2-0.5,0.5-0.6C1273.1,88.6,1273.2,88.6,1273.3,88.7z"/>
<linearGradient id="SVGID_40_" gradientUnits="userSpaceOnUse" x1="2447.729" y1="772.9344" x2="2505.469" y2="2128.7844" gradientTransform="matrix(-1 0 0 -1 3646.49 1723.4099)">
	<stop  offset="0" style="stop-color:#F6AC07"/>
	<stop  offset="0.19" style="stop-color:#F8AF09;stop-opacity:0.79"/>
	<stop  offset="0.59" style="stop-color:#FCB50D;stop-opacity:0.37"/>
	<stop  offset="0.87" style="stop-color:#FEB90F;stop-opacity:0.1"/>
	<stop  offset="1" style="stop-color:#FFBA10;stop-opacity:0"/>
</linearGradient>
<path class="st40" d="M1161.3,102.6l3.6,4.2c0.1,0.1,0.3,0.2,0.5,0.2l5-1.2c0.4-0.1,0.8,0.4,0.6,0.9l-2.2,5.3
	c-0.1,0.2-0.1,0.4,0,0.6l2.5,5.2c0.2,0.3,0,0.8-0.3,0.9c-0.1,0-0.1,0.1-0.2,0.1l-5-0.9c-0.2,0-0.4,0.1-0.5,0.2l-3.4,4.4
	c-0.2,0.2-0.5,0.3-0.7,0.1c0,0,0,0,0,0c-0.1-0.1-0.2-0.2-0.2-0.4l-0.9-5.8c0-0.2-0.1-0.4-0.3-0.5l-4.6-2.5c-0.3-0.2-0.4-0.7-0.2-1
	l0.2-0.2l4.5-2.8c0.2-0.1,0.3-0.3,0.3-0.5l0.6-5.9c0-0.3,0.2-0.5,0.5-0.6C1161.1,102.5,1161.2,102.5,1161.3,102.6z"/>
<linearGradient id="SVGID_41_" gradientUnits="userSpaceOnUse" x1="2902.3198" y1="741.3856" x2="2960.0598" y2="2097.2954" gradientTransform="matrix(-1 0 0 -1 3646.49 1723.4099)">
	<stop  offset="0" style="stop-color:#F6AC07"/>
	<stop  offset="0.19" style="stop-color:#F8AF09;stop-opacity:0.79"/>
	<stop  offset="0.59" style="stop-color:#FCB50D;stop-opacity:0.37"/>
	<stop  offset="0.87" style="stop-color:#FEB90F;stop-opacity:0.1"/>
	<stop  offset="1" style="stop-color:#FFBA10;stop-opacity:0"/>
</linearGradient>
<path class="st41" d="M701.7,157l5,0.9c0.2,0,0.4,0,0.5-0.2l3.5-4.3c0.2-0.2,0.5-0.3,0.7-0.1c0,0,0,0,0,0c0.1,0.1,0.2,0.2,0.2,0.4
	l0.8,5.9c0,0.2,0.1,0.4,0.3,0.5l4.6,2.5c0.3,0.2,0.4,0.7,0.2,1l-0.2,0.2l-4.5,2.7c-0.2,0.1-0.3,0.3-0.3,0.5l-0.6,5.9
	c0,0.3-0.2,0.5-0.5,0.6c-0.2,0-0.3-0.1-0.4-0.2l-3.6-4.2c-0.1-0.1-0.3-0.2-0.5-0.2l-5,1.1c-0.5,0.1-0.8-0.4-0.6-0.9l2.3-5.3
	c0.1-0.2,0.1-0.4,0-0.6l-2.4-5.2C700.9,157.5,701.2,156.9,701.7,157z"/>
<linearGradient id="SVGID_42_" gradientUnits="userSpaceOnUse" x1="2725.7961" y1="702.3152" x2="2783.426" y2="2055.6553" gradientTransform="matrix(-1 0 0 -1 3646.49 1723.4099)">
	<stop  offset="0" style="stop-color:#F6AC07"/>
	<stop  offset="0.19" style="stop-color:#F8AF09;stop-opacity:0.79"/>
	<stop  offset="0.59" style="stop-color:#FCB50D;stop-opacity:0.37"/>
	<stop  offset="0.87" style="stop-color:#FEB90F;stop-opacity:0.1"/>
	<stop  offset="1" style="stop-color:#FFBA10;stop-opacity:0"/>
</linearGradient>
<path class="st42" d="M894.6,213.4l-3.6,4.2c-0.1,0.2-0.2,0.4-0.1,0.6l1,5.8c0.1,0.3-0.1,0.6-0.4,0.7c-0.1,0-0.2,0-0.4,0l-4.5-2.7
	c-0.2-0.1-0.3-0.1-0.5,0l-4.4,2.9c-0.4,0.3-0.9-0.1-0.8-0.7l0.8-5.9c0-0.2,0-0.4-0.2-0.6l-3.7-4.1c-0.3-0.3-0.2-0.7,0.1-1
	c0,0,0,0,0,0c0.1-0.1,0.1-0.1,0.2-0.1l5-1c0.2,0,0.3-0.2,0.4-0.4l2.2-5.3c0.1-0.2,0.3-0.4,0.6-0.4c0.2,0,0.3,0.2,0.4,0.4l2.3,5.3
	c0.1,0.2,0.2,0.3,0.4,0.3l5,0.7c0.3,0.1,0.6,0.4,0.5,0.7c0,0,0,0.1,0,0.1C894.7,213.2,894.7,213.3,894.6,213.4z"/>
<linearGradient id="SVGID_43_" gradientUnits="userSpaceOnUse" x1="3153.5264" y1="649.0598" x2="3211.3665" y2="2007.2598" gradientTransform="matrix(-1 0 0 -1 3646.49 1723.4099)">
	<stop  offset="0" style="stop-color:#F6AC07"/>
	<stop  offset="0.19" style="stop-color:#F8AF09;stop-opacity:0.79"/>
	<stop  offset="0.59" style="stop-color:#FCB50D;stop-opacity:0.37"/>
	<stop  offset="0.87" style="stop-color:#FEB90F;stop-opacity:0.1"/>
	<stop  offset="1" style="stop-color:#FFBA10;stop-opacity:0"/>
</linearGradient>
<path class="st43" d="M459.3,274.1l2.5,5.2c0.1,0.2,0.2,0.3,0.4,0.3l5,0.5c0.4,0.1,0.6,0.4,0.5,0.8c0,0,0,0,0,0
	c0,0.1-0.1,0.2-0.1,0.3l-3.4,4.4c-0.1,0.2-0.2,0.4-0.1,0.6l1.1,5.8c0.1,0.5-0.3,1-0.8,0.7l-4.6-2.5c-0.2-0.1-0.3-0.1-0.5,0l-4.3,3
	c-0.2,0.2-0.6,0.1-0.7-0.1c-0.1-0.1-0.1-0.3-0.1-0.5l0.6-5.9c0-0.2,0-0.4-0.2-0.6l-3.8-3.9c-0.3-0.2-0.3-0.7-0.1-0.9
	c0,0,0,0,0.1-0.1c0.1-0.1,0.1-0.1,0.2-0.1l5-1.2c0.2-0.1,0.3-0.2,0.4-0.4l2-5.5c0.1-0.2,0.3-0.4,0.5-0.3c0.1,0,0.1,0,0.2,0.1
	C459.2,273.9,459.3,274,459.3,274.1z"/>
<linearGradient id="SVGID_44_" gradientUnits="userSpaceOnUse" x1="3072.1545" y1="872.4463" x2="3129.9946" y2="2230.6462" gradientTransform="matrix(-1 0 0 -1 3646.49 1723.4099)">
	<stop  offset="0" style="stop-color:#F6AC07"/>
	<stop  offset="0.19" style="stop-color:#F8AF09;stop-opacity:0.79"/>
	<stop  offset="0.59" style="stop-color:#FCB50D;stop-opacity:0.37"/>
	<stop  offset="0.87" style="stop-color:#FEB90F;stop-opacity:0.1"/>
	<stop  offset="1" style="stop-color:#FFBA10;stop-opacity:0"/>
</linearGradient>
<path class="st44" d="M540.7,50.7l2.5,5.2c0.1,0.2,0.2,0.3,0.4,0.3l5,0.5c0.4,0.1,0.6,0.4,0.5,0.8c0,0,0,0,0,0
	c0,0.1-0.1,0.2-0.1,0.3l-3.4,4.4c-0.1,0.2-0.2,0.4-0.1,0.6l1.1,5.8c0.1,0.5-0.3,1-0.8,0.7l-4.6-2.5c-0.2-0.1-0.3-0.1-0.5,0l-4.3,3
	c-0.2,0.2-0.6,0.1-0.7-0.1c-0.1-0.1-0.1-0.3-0.1-0.5l0.6-5.9c0-0.2,0-0.4-0.2-0.6l-3.8-3.9c-0.3-0.2-0.3-0.7-0.1-0.9
	c0,0,0,0,0.1-0.1c0.1-0.1,0.1-0.1,0.2-0.1l5-1.2c0.2-0.1,0.3-0.2,0.4-0.4l2-5.5c0.1-0.2,0.3-0.4,0.5-0.3c0.1,0,0.1,0,0.2,0.1
	C540.6,50.5,540.7,50.6,540.7,50.7z"/>
<linearGradient id="SVGID_45_" gradientUnits="userSpaceOnUse" x1="3020.8369" y1="667.0578" x2="3078.677" y2="2025.2578" gradientTransform="matrix(-0.6424 -0.7664 0.7664 -0.6424 1458.3795 3532.9834)">
	<stop  offset="0" style="stop-color:#F6AC07"/>
	<stop  offset="0.19" style="stop-color:#F8AF09;stop-opacity:0.79"/>
	<stop  offset="0.59" style="stop-color:#FCB50D;stop-opacity:0.37"/>
	<stop  offset="0.87" style="stop-color:#FEB90F;stop-opacity:0.1"/>
	<stop  offset="1" style="stop-color:#FFBA10;stop-opacity:0"/>
</linearGradient>
<path class="st45" d="M620.6,249.5l-2.4,5.3c-0.1,0.2-0.1,0.3,0,0.5l2.8,4.2c0.2,0.3,0,0.7-0.3,0.9c0,0,0,0,0,0
	c-0.1,0.1-0.2,0.1-0.3,0.1l-5.6,0.2c-0.2,0-0.4,0.1-0.5,0.3l-3.7,4.6c-0.3,0.4-1,0.4-1.1-0.2l-1-5.1c0-0.2-0.1-0.3-0.3-0.4l-5.1-1.4
	c-0.3-0.1-0.4-0.4-0.4-0.7c0-0.2,0.2-0.3,0.3-0.3l4.9-3.3c0.2-0.1,0.3-0.3,0.3-0.5l0.5-5.4c0-0.4,0.3-0.7,0.7-0.6c0,0,0.1,0,0.1,0
	c0.1,0,0.1,0,0.2,0.1l4.1,3.1c0.2,0.1,0.4,0.1,0.6,0l5.5-2c0.2-0.1,0.5,0,0.6,0.2c0,0.1,0,0.1,0,0.2
	C620.7,249.3,620.7,249.5,620.6,249.5z"/>
<linearGradient id="SVGID_46_" gradientUnits="userSpaceOnUse" x1="2839.8169" y1="649.0598" x2="2897.657" y2="2007.2598" gradientTransform="matrix(-1 0 0 -1 3646.49 1723.4099)">
	<stop  offset="0" style="stop-color:#F6AC07"/>
	<stop  offset="0.19" style="stop-color:#F8AF09;stop-opacity:0.79"/>
	<stop  offset="0.59" style="stop-color:#FCB50D;stop-opacity:0.37"/>
	<stop  offset="0.87" style="stop-color:#FEB90F;stop-opacity:0.1"/>
	<stop  offset="1" style="stop-color:#FFBA10;stop-opacity:0"/>
</linearGradient>
<path class="st46" d="M773,274.1l2.5,5.2c0.1,0.2,0.2,0.3,0.4,0.3l5,0.5c0.4,0.1,0.6,0.4,0.5,0.8c0,0,0,0,0,0c0,0.1-0.1,0.2-0.1,0.3
	l-3.4,4.4c-0.1,0.2-0.2,0.4-0.1,0.6l1.1,5.8c0.1,0.5-0.3,1-0.8,0.7l-4.6-2.5c-0.2-0.1-0.3-0.1-0.5,0l-4.3,3
	c-0.2,0.2-0.6,0.1-0.7-0.1c-0.1-0.1-0.1-0.3-0.1-0.5l0.6-5.9c0-0.2,0-0.4-0.2-0.6l-3.8-3.9c-0.3-0.2-0.3-0.7-0.1-0.9
	c0,0,0,0,0.1-0.1c0.1-0.1,0.1-0.1,0.2-0.1l5-1.2c0.2-0.1,0.3-0.2,0.4-0.4l2-5.5c0.1-0.2,0.3-0.4,0.5-0.3c0.1,0,0.1,0,0.2,0.1
	C772.9,273.9,773,274,773,274.1z"/>
<linearGradient id="SVGID_47_" gradientUnits="userSpaceOnUse" x1="3182.9431" y1="667.3699" x2="3240.7832" y2="2025.5599" gradientTransform="matrix(-1 0 0 -1 3646.49 1723.4099)">
	<stop  offset="0" style="stop-color:#F6AC07"/>
	<stop  offset="0.19" style="stop-color:#F8AF09;stop-opacity:0.79"/>
	<stop  offset="0.59" style="stop-color:#FCB50D;stop-opacity:0.37"/>
	<stop  offset="0.87" style="stop-color:#FEB90F;stop-opacity:0.1"/>
	<stop  offset="1" style="stop-color:#FFBA10;stop-opacity:0"/>
</linearGradient>
<path class="st47" d="M420.3,30.9l2.5,5.2c0.1,0.2,0.2,0.3,0.4,0.3l5,0.5c0.3,0.1,0.6,0.4,0.5,0.7c0,0,0,0.1,0,0.1
	c0,0.1-0.1,0.2-0.1,0.3l-3.4,4.4c-0.1,0.2-0.2,0.4-0.1,0.6l1.1,5.8c0.1,0.5-0.3,1-0.8,0.7l-4.6-2.5c-0.2-0.1-0.3-0.1-0.5,0l-4.3,3
	c-0.2,0.2-0.6,0.1-0.7-0.1c-0.1-0.1-0.1-0.3-0.1-0.5l0.6-5.9c0-0.2,0-0.4-0.2-0.6l-3.8-3.9c-0.3-0.2-0.3-0.7-0.1-0.9
	c0,0,0,0,0.1-0.1c0.1-0.1,0.1-0.1,0.2-0.1l5-1.2c0.2-0.1,0.3-0.2,0.4-0.4l2-5.5c0.1-0.3,0.3-0.5,0.6-0.4
	C420.2,30.5,420.3,30.7,420.3,30.9z"/>
<linearGradient id="SVGID_48_" gradientUnits="userSpaceOnUse" x1="3509.4414" y1="644.6899" x2="3567.1614" y2="2000.04" gradientTransform="matrix(-1 0 0 -1 3646.49 1723.4099)">
	<stop  offset="0" style="stop-color:#F6AC07"/>
	<stop  offset="0.19" style="stop-color:#F8AF09;stop-opacity:0.79"/>
	<stop  offset="0.59" style="stop-color:#FCB50D;stop-opacity:0.37"/>
	<stop  offset="0.87" style="stop-color:#FEB90F;stop-opacity:0.1"/>
	<stop  offset="1" style="stop-color:#FFBA10;stop-opacity:0"/>
</linearGradient>
<path class="st48" d="M95.3,288.5l4.3-3.1c0.2-0.1,0.3-0.3,0.3-0.5l0.3-5.9c0-0.5,0.6-0.8,0.9-0.5l3.8,3.9c0.1,0.1,0.3,0.2,0.5,0.1
	l4.9-1.5c0.4-0.1,0.8,0.4,0.7,0.9l-2,5.5c-0.1,0.2-0.1,0.4,0,0.6l2.8,5c0.2,0.3,0.1,0.7-0.2,0.9c0,0,0,0,0,0
	c-0.1,0.1-0.2,0.1-0.3,0.1l-5-0.5c-0.2,0-0.4,0.1-0.5,0.2l-3.2,4.6c-0.1,0.2-0.3,0.4-0.6,0.3c-0.1,0-0.1,0-0.1-0.1
	c-0.2-0.1-0.3-0.3-0.3-0.5l-1.2-5.8c0-0.2-0.1-0.4-0.3-0.5l-4.7-2.1c-0.3-0.2-0.5-0.6-0.3-0.9C95.2,288.7,95.2,288.6,95.3,288.5z"/>
<linearGradient id="SVGID_49_" gradientUnits="userSpaceOnUse" x1="3587.0425" y1="722.3099" x2="3644.7625" y2="2077.6599" gradientTransform="matrix(-1 0 0 -1 3646.49 1723.4099)">
	<stop  offset="0" style="stop-color:#F6AC07"/>
	<stop  offset="0.19" style="stop-color:#F8AF09;stop-opacity:0.79"/>
	<stop  offset="0.59" style="stop-color:#FCB50D;stop-opacity:0.37"/>
	<stop  offset="0.87" style="stop-color:#FEB90F;stop-opacity:0.1"/>
	<stop  offset="1" style="stop-color:#FFBA10;stop-opacity:0"/>
</linearGradient>
<path class="st49" d="M17.7,210.9l4.3-3.1c0.2-0.1,0.3-0.3,0.3-0.5l0.3-5.9c0-0.5,0.6-0.8,0.9-0.5l3.8,3.9c0.1,0.1,0.3,0.2,0.5,0.1
	l4.9-1.5c0.4-0.1,0.8,0.4,0.7,0.9l-2,5.5c-0.1,0.2-0.1,0.4,0,0.6l2.8,5c0.2,0.3,0.1,0.7-0.2,0.9c0,0,0,0,0,0
	c-0.1,0.1-0.2,0.1-0.3,0.1l-5-0.5c-0.2,0-0.4,0.1-0.5,0.2l-3.2,4.6c-0.1,0.2-0.3,0.4-0.6,0.3c-0.1,0-0.1,0-0.1-0.1
	c-0.2-0.1-0.3-0.3-0.3-0.5l-1.2-5.8c0-0.2-0.1-0.4-0.3-0.5l-4.7-2.1c-0.3-0.2-0.5-0.6-0.3-0.9C17.6,211.1,17.6,211,17.7,210.9z"/>
<linearGradient id="SVGID_50_" gradientUnits="userSpaceOnUse" x1="3222.1882" y1="651.7797" x2="3280.0081" y2="2009.6697" gradientTransform="matrix(-1 0 0 -1 3646.49 1723.4099)">
	<stop  offset="0" style="stop-color:#F6AC07"/>
	<stop  offset="0.19" style="stop-color:#F8AF09;stop-opacity:0.79"/>
	<stop  offset="0.59" style="stop-color:#FCB50D;stop-opacity:0.37"/>
	<stop  offset="0.87" style="stop-color:#FEB90F;stop-opacity:0.1"/>
	<stop  offset="1" style="stop-color:#FFBA10;stop-opacity:0"/>
</linearGradient>
<path class="st50" d="M390.8,164.1l-0.4,5.9c0,0.2,0.1,0.4,0.2,0.5l3.9,3.7c0.3,0.2,0.3,0.7,0.1,0.9c0,0,0,0-0.1,0.1l-0.2,0.2
	l-4.9,1.4c-0.2,0.1-0.3,0.2-0.4,0.4l-1.8,5.5c0,0.2-0.2,0.4-0.4,0.4c-0.1,0-0.1,0-0.2,0c-0.2,0-0.3-0.2-0.4-0.3l-2.6-5.1
	c-0.1-0.2-0.2-0.3-0.4-0.3l-5.1-0.3c-0.3-0.1-0.6-0.4-0.5-0.7c0,0,0-0.1,0-0.1c0-0.1,0.1-0.2,0.1-0.3l3.3-4.5
	c0.1-0.2,0.2-0.4,0.1-0.6l-1.3-5.7c-0.1-0.5,0.3-1,0.7-0.8l4.7,2.3c0.2,0.1,0.3,0.1,0.5,0l4.2-3.3c0.3-0.2,0.7-0.1,0.8,0.2
	C390.8,163.8,390.8,163.9,390.8,164.1z"/>
<linearGradient id="SVGID_51_" gradientUnits="userSpaceOnUse" x1="3292.9993" y1="722.5908" x2="3350.8191" y2="2080.4807" gradientTransform="matrix(-1 0 0 -1 3646.49 1723.4099)">
	<stop  offset="0" style="stop-color:#F6AC07"/>
	<stop  offset="0.19" style="stop-color:#F8AF09;stop-opacity:0.79"/>
	<stop  offset="0.59" style="stop-color:#FCB50D;stop-opacity:0.37"/>
	<stop  offset="0.87" style="stop-color:#FEB90F;stop-opacity:0.1"/>
	<stop  offset="1" style="stop-color:#FFBA10;stop-opacity:0"/>
</linearGradient>
<path class="st51" d="M320,93.3l-0.4,5.9c0,0.2,0.1,0.4,0.2,0.5l3.9,3.7c0.3,0.2,0.3,0.7,0.1,0.9c0,0,0,0-0.1,0.1l-0.2,0.2l-4.9,1.4
	c-0.2,0.1-0.3,0.2-0.4,0.4l-1.8,5.5c0,0.2-0.2,0.4-0.4,0.4c-0.1,0-0.1,0-0.2,0c-0.2,0-0.3-0.2-0.4-0.3l-2.6-5.1
	c-0.1-0.2-0.2-0.3-0.4-0.3l-5.1-0.3c-0.3-0.1-0.6-0.4-0.5-0.7c0,0,0-0.1,0-0.1c0-0.1,0.1-0.2,0.1-0.3l3.3-4.5
	c0.1-0.2,0.2-0.4,0.1-0.6l-1.3-5.7c-0.1-0.5,0.3-1,0.7-0.8l4.7,2.3c0.2,0.1,0.3,0.1,0.5,0l4.2-3.3c0.3-0.2,0.7-0.1,0.8,0.2
	C320,93,320,93.1,320,93.3z"/>
<linearGradient id="SVGID_52_" gradientUnits="userSpaceOnUse" x1="3388.8899" y1="641.8284" x2="3446.7097" y2="1999.7184" gradientTransform="matrix(-1 0 0 -1 3646.49 1723.4099)">
	<stop  offset="0" style="stop-color:#F6AC07"/>
	<stop  offset="0.19" style="stop-color:#F8AF09;stop-opacity:0.79"/>
	<stop  offset="0.59" style="stop-color:#FCB50D;stop-opacity:0.37"/>
	<stop  offset="0.87" style="stop-color:#FEB90F;stop-opacity:0.1"/>
	<stop  offset="1" style="stop-color:#FFBA10;stop-opacity:0"/>
</linearGradient>
<path class="st52" d="M224.1,174l-0.4,5.9c0,0.2,0.1,0.4,0.2,0.5l3.9,3.7c0.3,0.2,0.3,0.7,0.1,0.9c0,0,0,0-0.1,0.1l-0.2,0.2
	l-4.9,1.4c-0.2,0.1-0.3,0.2-0.4,0.4l-1.8,5.5c0,0.2-0.2,0.4-0.4,0.4c-0.1,0-0.1,0-0.2,0c-0.2,0-0.3-0.2-0.4-0.3l-2.6-5.1
	c-0.1-0.2-0.2-0.3-0.4-0.3l-5.1-0.3c-0.3-0.1-0.6-0.4-0.5-0.7c0,0,0-0.1,0-0.1c0-0.1,0.1-0.2,0.1-0.3l3.3-4.5
	c0.1-0.2,0.2-0.4,0.1-0.6l-1.3-5.7c-0.1-0.5,0.3-1,0.7-0.8l4.7,2.3c0.2,0.1,0.3,0.1,0.5,0l4.2-3.3
	C223.6,173.1,224.1,173.5,224.1,174z"/>
<linearGradient id="SVGID_53_" gradientUnits="userSpaceOnUse" x1="3297.1895" y1="536.0635" x2="3355.0093" y2="1893.9535" gradientTransform="matrix(-1 0 0 -1 3646.49 1723.4099)">
	<stop  offset="0" style="stop-color:#F6AC07"/>
	<stop  offset="0.19" style="stop-color:#F8AF09;stop-opacity:0.79"/>
	<stop  offset="0.59" style="stop-color:#FCB50D;stop-opacity:0.37"/>
	<stop  offset="0.87" style="stop-color:#FEB90F;stop-opacity:0.1"/>
	<stop  offset="1" style="stop-color:#FFBA10;stop-opacity:0"/>
</linearGradient>
<path class="st53" d="M315.8,279.7l-0.4,5.9c0,0.2,0.1,0.4,0.2,0.5l3.9,3.7c0.3,0.2,0.3,0.7,0.1,0.9c0,0,0,0-0.1,0.1l-0.2,0.2
	l-4.9,1.4c-0.2,0.1-0.3,0.2-0.4,0.4l-1.8,5.5c0,0.2-0.2,0.4-0.4,0.4c-0.1,0-0.1,0-0.2,0c-0.2,0-0.3-0.2-0.4-0.3l-2.6-5.1
	c-0.1-0.2-0.2-0.3-0.4-0.3l-5.1-0.3c-0.3-0.1-0.6-0.4-0.5-0.7c0,0,0-0.1,0-0.1c0-0.1,0.1-0.2,0.1-0.3l3.3-4.5
	c0.1-0.2,0.2-0.4,0.1-0.6l-1.3-5.7c-0.1-0.5,0.3-1,0.7-0.8l4.7,2.3c0.2,0.1,0.3,0.1,0.5,0l4.2-3.3
	C315.3,278.8,315.8,279.2,315.8,279.7z"/>
<linearGradient id="SVGID_54_" gradientUnits="userSpaceOnUse" x1="3047.1755" y1="671.7997" x2="3104.9956" y2="2029.6897" gradientTransform="matrix(-1 0 0 -1 3646.49 1723.4099)">
	<stop  offset="0" style="stop-color:#F6AC07"/>
	<stop  offset="0.19" style="stop-color:#F8AF09;stop-opacity:0.79"/>
	<stop  offset="0.59" style="stop-color:#FCB50D;stop-opacity:0.37"/>
	<stop  offset="0.87" style="stop-color:#FEB90F;stop-opacity:0.1"/>
	<stop  offset="1" style="stop-color:#FFBA10;stop-opacity:0"/>
</linearGradient>
<path class="st54" d="M565.8,144l-0.4,5.9c0,0.2,0.1,0.4,0.2,0.5l3.9,3.7c0.3,0.2,0.3,0.7,0.1,0.9c0,0,0,0-0.1,0.1l-0.2,0.2
	l-4.9,1.4c-0.2,0.1-0.3,0.2-0.4,0.4l-1.8,5.5c0,0.2-0.2,0.4-0.4,0.4c-0.1,0-0.1,0-0.2,0c-0.2,0-0.3-0.2-0.4-0.3l-2.6-5.1
	c-0.1-0.2-0.2-0.3-0.4-0.3l-5.1-0.3c-0.3-0.1-0.6-0.4-0.5-0.7c0,0,0-0.1,0-0.1c0-0.1,0.1-0.2,0.1-0.3l3.3-4.5
	c0.1-0.2,0.2-0.4,0.1-0.6l-1.3-5.7c-0.1-0.5,0.3-1,0.7-0.8l4.7,2.3c0.2,0.1,0.3,0.1,0.5,0l4.2-3.3
	C565.3,143.1,565.8,143.5,565.8,144z"/>
<linearGradient id="SVGID_55_" gradientUnits="userSpaceOnUse" x1="3517.1003" y1="725.0189" x2="3574.9204" y2="2082.9087" gradientTransform="matrix(-1 0 0 -1 3646.49 1723.4099)">
	<stop  offset="0" style="stop-color:#F6AC07"/>
	<stop  offset="0.19" style="stop-color:#F8AF09;stop-opacity:0.79"/>
	<stop  offset="0.59" style="stop-color:#FCB50D;stop-opacity:0.37"/>
	<stop  offset="0.87" style="stop-color:#FEB90F;stop-opacity:0.1"/>
	<stop  offset="1" style="stop-color:#FFBA10;stop-opacity:0"/>
</linearGradient>
<path class="st55" d="M95.9,90.8l-0.4,5.9c0,0.2,0.1,0.4,0.2,0.5l3.9,3.7c0.3,0.2,0.3,0.7,0.1,0.9c0,0,0,0-0.1,0.1l-0.2,0.2
	l-4.9,1.4c-0.2,0.1-0.3,0.2-0.4,0.4l-1.8,5.5c0,0.2-0.2,0.4-0.4,0.4c-0.1,0-0.1,0-0.2,0c-0.2,0-0.3-0.2-0.4-0.3l-2.6-5.1
	c-0.1-0.2-0.2-0.3-0.4-0.3l-5.1-0.3c-0.3-0.1-0.6-0.4-0.5-0.7c0,0,0-0.1,0-0.1c0-0.1,0.1-0.2,0.1-0.3l3.3-4.5
	c0.1-0.2,0.2-0.4,0.1-0.6l-1.3-5.7c-0.1-0.5,0.3-1,0.7-0.8l4.7,2.3c0.2,0.1,0.3,0.1,0.5,0l4.2-3.3C95.4,89.9,95.9,90.3,95.9,90.8z"
	/>
<linearGradient id="SVGID_56_" gradientUnits="userSpaceOnUse" x1="2363.1741" y1="688.7998" x2="2420.9841" y2="2046.4597" gradientTransform="matrix(-1 0 0 -1 3646.49 1723.4099)">
	<stop  offset="0" style="stop-color:#F6AC07"/>
	<stop  offset="0.19" style="stop-color:#F8AF09;stop-opacity:0.79"/>
	<stop  offset="0.59" style="stop-color:#FCB50D;stop-opacity:0.37"/>
	<stop  offset="0.87" style="stop-color:#FEB90F;stop-opacity:0.1"/>
	<stop  offset="1" style="stop-color:#FFBA10;stop-opacity:0"/>
</linearGradient>
<path class="st56" d="M1243.4,214.4l0.3-5.9c0-0.2-0.1-0.4-0.2-0.5l-4-3.6c-0.3-0.2-0.3-0.7-0.1-0.9c0,0,0,0,0.1-0.1l0.2-0.2
	l4.8-1.6c0.2-0.1,0.3-0.2,0.4-0.4l1.7-5.6c0-0.3,0.3-0.5,0.6-0.5c0.2,0,0.4,0.1,0.4,0.3l2.8,5c0.1,0.2,0.2,0.3,0.4,0.3l5.1,0.2
	c0.3,0.1,0.6,0.4,0.5,0.7c0,0,0,0.1,0,0.1c0,0.1-0.1,0.2-0.1,0.3l-3.2,4.6c-0.1,0.2-0.2,0.4-0.1,0.6l1.4,5.7c0.1,0.5-0.3,1-0.7,0.8
	l-4.7-2.1c-0.2-0.1-0.4,0-0.5,0.1l-4.2,3.4c-0.3,0.2-0.7,0-0.9-0.3C1243.4,214.7,1243.4,214.5,1243.4,214.4z"/>
<linearGradient id="SVGID_57_" gradientUnits="userSpaceOnUse" x1="2618.293" y1="676.1498" x2="2676.103" y2="2033.8099" gradientTransform="matrix(-1 0 0 -1 3646.49 1723.4099)">
	<stop  offset="0" style="stop-color:#F6AC07"/>
	<stop  offset="0.19" style="stop-color:#F8AF09;stop-opacity:0.79"/>
	<stop  offset="0.59" style="stop-color:#FCB50D;stop-opacity:0.37"/>
	<stop  offset="0.87" style="stop-color:#FEB90F;stop-opacity:0.1"/>
	<stop  offset="1" style="stop-color:#FFBA10;stop-opacity:0"/>
</linearGradient>
<path class="st57" d="M991,290.9l0.3-5.9c0-0.2-0.1-0.4-0.2-0.5l-4-3.6c-0.3-0.2-0.3-0.7-0.1-0.9c0,0,0,0,0.1-0.1l0.2-0.2l4.9-1.5
	c0.2-0.1,0.3-0.2,0.4-0.4l1.7-5.6c0-0.3,0.3-0.5,0.6-0.5c0.2,0,0.4,0.1,0.4,0.3l2.8,5c0.1,0.2,0.2,0.3,0.4,0.3l5,0.1
	c0.3,0.1,0.6,0.4,0.5,0.7c0,0,0,0.1,0,0.1c0,0.1-0.1,0.2-0.1,0.3l-3.2,4.6c-0.1,0.2-0.1,0.4-0.1,0.6l1.4,5.7c0.1,0.5-0.3,1-0.7,0.8
	l-4.7-2.1c-0.2-0.1-0.4,0-0.5,0.1l-4.2,3.4C991.5,291.8,991,291.4,991,290.9z"/>
<linearGradient id="SVGID_58_" gradientUnits="userSpaceOnUse" x1="2433.9905" y1="686.94" x2="2491.6807" y2="2041.78" gradientTransform="matrix(-1 0 0 -1 3646.49 1723.4099)">
	<stop  offset="0" style="stop-color:#F6AC07"/>
	<stop  offset="0.19" style="stop-color:#F8AF09;stop-opacity:0.79"/>
	<stop  offset="0.59" style="stop-color:#FCB50D;stop-opacity:0.37"/>
	<stop  offset="0.87" style="stop-color:#FEB90F;stop-opacity:0.1"/>
	<stop  offset="1" style="stop-color:#FFBA10;stop-opacity:0"/>
</linearGradient>
<path class="st58" d="M1189.2,303.8l-5.1-0.1c-0.2,0-0.4,0.1-0.5,0.3l-2.9,4.8c-0.1,0.2-0.3,0.4-0.6,0.3c-0.1,0-0.1,0-0.1-0.1
	c-0.2-0.1-0.3-0.2-0.3-0.4l-1.5-5.7c0-0.2-0.2-0.4-0.4-0.4l-4.8-1.8c-0.3-0.2-0.5-0.6-0.3-0.9c0-0.1,0.1-0.2,0.2-0.2l4.1-3.4
	c0.2-0.1,0.2-0.3,0.2-0.5v-5.9c0-0.3,0.2-0.6,0.5-0.6c0.1,0,0.3,0,0.4,0.1l4,3.6c0.1,0.1,0.3,0.2,0.5,0.1l4.8-1.9
	c0.4-0.2,0.8,0.3,0.7,0.8l-1.6,5.6c-0.1,0.2,0,0.4,0.1,0.6l3,4.8c0.2,0.3,0.1,0.7-0.1,0.9C1189.5,303.7,1189.4,303.7,1189.2,303.8
	C1189.3,303.8,1189.2,303.8,1189.2,303.8z"/>
<linearGradient id="SVGID_59_" gradientUnits="userSpaceOnUse" x1="2500.5071" y1="665.8792" x2="2558.3171" y2="2023.2292" gradientTransform="matrix(-1 0 0 -1 3646.49 1723.4099)">
	<stop  offset="0" style="stop-color:#F6AC07"/>
	<stop  offset="0.19" style="stop-color:#F8AF09;stop-opacity:0.79"/>
	<stop  offset="0.59" style="stop-color:#FCB50D;stop-opacity:0.37"/>
	<stop  offset="0.87" style="stop-color:#FEB90F;stop-opacity:0.1"/>
	<stop  offset="1" style="stop-color:#FFBA10;stop-opacity:0"/>
</linearGradient>
<path class="st59" d="M1093.9,32.4l3-4.8c0.1-0.2,0.1-0.4,0.1-0.6l-1.6-5.6c-0.1-0.5,0.3-1,0.7-0.8l4.8,1.9c0.2,0.1,0.4,0,0.5-0.1
	l4.1-3.5c0.2-0.2,0.6-0.1,0.8,0.1c0.1,0.1,0.1,0.3,0.1,0.4l-0.1,5.9c0,0.2,0.1,0.4,0.2,0.5l4.1,3.4c0.3,0.3,0.3,0.7,0.1,1l-0.2,0.2
	l-4.8,1.8c-0.2,0.1-0.3,0.2-0.4,0.4l-1.5,5.7c0,0.3-0.3,0.5-0.6,0.5c-0.2,0-0.3-0.1-0.4-0.3l-2.9-4.9c-0.1-0.2-0.3-0.3-0.5-0.3
	l-5.1,0.1c-0.3-0.1-0.6-0.4-0.5-0.7c0,0,0-0.1,0-0.1C1093.8,32.5,1093.9,32.5,1093.9,32.4z"/>
<linearGradient id="SVGID_60_" gradientUnits="userSpaceOnUse" x1="2929.5286" y1="1187.3643" x2="2987.3386" y2="2544.7144" gradientTransform="matrix(-0.82 0.58 -0.58 -0.82 3737.02 99.84)">
	<stop  offset="0" style="stop-color:#F6AC07"/>
	<stop  offset="0.19" style="stop-color:#F8AF09;stop-opacity:0.79"/>
	<stop  offset="0.59" style="stop-color:#FCB50D;stop-opacity:0.37"/>
	<stop  offset="0.87" style="stop-color:#FEB90F;stop-opacity:0.1"/>
	<stop  offset="1" style="stop-color:#FFBA10;stop-opacity:0"/>
</linearGradient>
<path class="st60" d="M11.3,18.2L11,12.5c0-0.2-0.1-0.4-0.3-0.5L6.2,8.3c-0.4-0.4-0.3-1,0.1-1.1l5-1.2c0.2,0,0.3-0.2,0.4-0.4L13,0.4
	c0.1-0.3,0.4-0.5,0.7-0.4c0.1,0,0.3,0.1,0.3,0.3l3.3,4.9c0.1,0.2,0.3,0.3,0.5,0.3l5.3,0.4c0.4,0.1,0.6,0.4,0.7,0.8V7l-2.9,4.2
	c-0.1,0.2-0.1,0.4-0.1,0.6l2.1,5.5c0.2,0.2,0,0.6-0.2,0.8c-0.2,0.1-0.3,0.1-0.5,0l-5.3-2.4c-0.2-0.1-0.4-0.1-0.6,0l-4.1,3
	c-0.4,0.1-0.8,0-0.9-0.4C11.3,18.4,11.4,18.3,11.3,18.2z"/>
<linearGradient id="SVGID_61_" gradientUnits="userSpaceOnUse" x1="1895.1788" y1="455.751" x2="1952.9888" y2="1813.1011" gradientTransform="matrix(-0.82 0.58 -0.58 -0.82 3737.02 99.84)">
	<stop  offset="0" style="stop-color:#F6AC07"/>
	<stop  offset="0.19" style="stop-color:#F8AF09;stop-opacity:0.79"/>
	<stop  offset="0.59" style="stop-color:#FCB50D;stop-opacity:0.37"/>
	<stop  offset="0.87" style="stop-color:#FEB90F;stop-opacity:0.1"/>
	<stop  offset="1" style="stop-color:#FFBA10;stop-opacity:0"/>
</linearGradient>
<path class="st61" d="M1283.8,18.2l-0.3-5.7c0-0.2-0.1-0.4-0.3-0.5l-4.5-3.7c-0.4-0.4-0.3-1,0.1-1.1l5-1.2c0.2,0,0.3-0.2,0.4-0.4
	l1.3-5.2c0.1-0.3,0.4-0.5,0.7-0.4c0.1,0,0.3,0.1,0.3,0.3l3.3,4.9c0.1,0.2,0.3,0.3,0.5,0.3l5.3,0.4c0.4,0.1,0.6,0.4,0.7,0.8V7
	l-2.9,4.2c-0.1,0.2-0.1,0.4-0.1,0.6l2.1,5.5c0.2,0.2,0,0.6-0.2,0.8c-0.2,0.1-0.3,0.1-0.5,0l-5.3-2.4c-0.2-0.1-0.4-0.1-0.6,0l-4.1,3
	c-0.4,0.1-0.8,0-0.9-0.4C1283.8,18.4,1283.9,18.3,1283.8,18.2z"/>
<linearGradient id="SVGID_62_" gradientUnits="userSpaceOnUse" x1="2486.9402" y1="-109.8986" x2="2544.7502" y2="1247.4515" gradientTransform="matrix(0.2 -0.98 0.98 0.2 -615.6801 2305.72)">
	<stop  offset="0" style="stop-color:#F6AC07"/>
	<stop  offset="0.19" style="stop-color:#F8AF09;stop-opacity:0.79"/>
	<stop  offset="0.59" style="stop-color:#FCB50D;stop-opacity:0.37"/>
	<stop  offset="0.87" style="stop-color:#FEB90F;stop-opacity:0.1"/>
	<stop  offset="1" style="stop-color:#FFBA10;stop-opacity:0"/>
</linearGradient>
<path class="st62" d="M789.1,0.5l4.1,4c0.1,0.2,0.4,0.2,0.6,0.2l5.8-0.4c0.6,0,0.9,0.5,0.7,0.9l-2.8,4.3c-0.2,0.1-0.1,0.4,0,0.6
	l2.6,4.6c0.2,0.5-0.2,0.9-0.7,0.8l-5.8-1.3c-0.2-0.1-0.4,0-0.6,0.1l-4.1,3.3c-0.3,0.2-0.8,0.1-1-0.1l-0.2-0.2l-0.8-5.1
	c-0.1-0.2-0.2-0.4-0.3-0.5l-5.3-2.6c-0.3,0-0.4-0.4-0.4-0.7c0-0.2,0.2-0.3,0.4-0.3l5.5-1.9c0.2-0.1,0.4-0.2,0.4-0.4l0.9-5
	C788.4,0.4,788.8,0.2,789.1,0.5C789,0.3,789,0.5,789.1,0.5z"/>
<g class="st0">
	
		<linearGradient id="SVGID_63_" gradientUnits="userSpaceOnUse" x1="2599.7822" y1="249.3699" x2="2657.7822" y2="1611.4301" gradientTransform="matrix(-1 0 0 -1 3646.49 1723.4099)">
		<stop  offset="0" style="stop-color:#F6AC07"/>
		<stop  offset="0.19" style="stop-color:#F8AF09;stop-opacity:0.79"/>
		<stop  offset="0.59" style="stop-color:#FCB50D;stop-opacity:0.37"/>
		<stop  offset="0.87" style="stop-color:#FEB90F;stop-opacity:0.1"/>
		<stop  offset="1" style="stop-color:#FFBA10;stop-opacity:0"/>
	</linearGradient>
	<path class="st63" d="M1014.9,845.4l0.3-5.9c0-0.2-0.1-0.4-0.2-0.5l-4-3.6c-0.3-0.2-0.3-0.7-0.1-0.9c0,0,0,0,0.1-0.1l0.2-0.2
		l4.9-1.5c0.2-0.1,0.3-0.2,0.4-0.4l1.7-5.6c0-0.3,0.3-0.5,0.6-0.5c0.2,0,0.4,0.1,0.4,0.3l2.8,5c0.1,0.2,0.2,0.3,0.4,0.3l5.1,0.2
		c0.3,0.1,0.6,0.4,0.5,0.7c0,0,0,0.1,0,0.1c0,0.1,0,0.1-0.1,0.2l-3.2,4.6c-0.1,0.2-0.2,0.4-0.1,0.6l1.4,5.7c0.1,0.5-0.3,1-0.7,0.8
		l-4.7-2.1c-0.2-0.1-0.4-0.1-0.5,0.1l-4.2,3.4c-0.3,0.2-0.7,0.1-0.9-0.3C1014.9,845.7,1014.9,845.5,1014.9,845.4z"/>
	
		<linearGradient id="SVGID_64_" gradientUnits="userSpaceOnUse" x1="2807.1189" y1="418.0096" x2="2848.489" y2="1389.3396" gradientTransform="matrix(-1 0 0 -1 3646.49 1723.4099)">
		<stop  offset="0" style="stop-color:#F6AC07"/>
		<stop  offset="0.19" style="stop-color:#F8AF09;stop-opacity:0.79"/>
		<stop  offset="0.59" style="stop-color:#FCB50D;stop-opacity:0.37"/>
		<stop  offset="0.87" style="stop-color:#FEB90F;stop-opacity:0.1"/>
		<stop  offset="1" style="stop-color:#FFBA10;stop-opacity:0"/>
	</linearGradient>
	<path class="st64" d="M823.1,880.5l-3.6-3.6c-0.1-0.1-0.3-0.2-0.5-0.1l-4.6,1.4c-0.3,0.1-0.6-0.1-0.6-0.4c0-0.1,0-0.3,0.1-0.4
		l1.8-5.1c0.1-0.2,0.1-0.4-0.1-0.6l-2.6-4.7c-0.2-0.3-0.1-0.7,0.3-0.9c0.1,0,0.2-0.1,0.2-0.1l4.7,0.4c0.2,0,0.3-0.1,0.4-0.2l3-4.3
		c0.1-0.2,0.4-0.3,0.7-0.1c0.1,0.1,0.2,0.2,0.2,0.4l1.1,5.3c0,0.2,0.1,0.4,0.3,0.4l4.4,2c0.3,0.2,0.4,0.5,0.2,0.8c0,0,0,0,0,0
		c-0.1,0.1-0.1,0.1-0.1,0.2l-4,2.9c-0.1,0.1-0.2,0.3-0.2,0.5l-0.3,5.5C823.9,880.6,823.4,880.9,823.1,880.5z"/>
	
		<linearGradient id="SVGID_65_" gradientUnits="userSpaceOnUse" x1="3440.4866" y1="418.0106" x2="3481.8567" y2="1389.3406" gradientTransform="matrix(-1 0 0 -1 3646.49 1723.4099)">
		<stop  offset="0" style="stop-color:#F6AC07"/>
		<stop  offset="0.19" style="stop-color:#F8AF09;stop-opacity:0.79"/>
		<stop  offset="0.59" style="stop-color:#FCB50D;stop-opacity:0.37"/>
		<stop  offset="0.87" style="stop-color:#FEB90F;stop-opacity:0.1"/>
		<stop  offset="1" style="stop-color:#FFBA10;stop-opacity:0"/>
	</linearGradient>
	<path class="st65" d="M189.7,880.5l-3.6-3.6c-0.1-0.1-0.3-0.2-0.5-0.1l-4.6,1.4c-0.4,0.1-0.8-0.4-0.6-0.8l1.8-5.1
		c0.1-0.2,0.1-0.4-0.1-0.6l-2.6-4.7c-0.2-0.3-0.1-0.7,0.3-0.9c0.1,0,0.2-0.1,0.2-0.1l4.7,0.4c0.2,0,0.3-0.1,0.4-0.2l3-4.3
		c0.1-0.2,0.4-0.3,0.6-0.1c0.1,0.1,0.2,0.2,0.2,0.4l1.1,5.3c0,0.2,0.1,0.4,0.3,0.4l4.4,2c0.3,0.2,0.4,0.5,0.2,0.8c0,0,0,0,0,0.1
		c-0.1,0.1-0.1,0.1-0.1,0.2l-4,2.9c-0.1,0.1-0.2,0.3-0.2,0.5l-0.3,5.5C190.5,880.6,190,880.9,189.7,880.5z"/>
	
		<linearGradient id="SVGID_66_" gradientUnits="userSpaceOnUse" x1="2864.5215" y1="236.0699" x2="2922.5215" y2="1598.14" gradientTransform="matrix(-1 0 0 -1 3646.49 1723.4099)">
		<stop  offset="0" style="stop-color:#F6AC07"/>
		<stop  offset="0.19" style="stop-color:#F8AF09;stop-opacity:0.79"/>
		<stop  offset="0.59" style="stop-color:#FCB50D;stop-opacity:0.37"/>
		<stop  offset="0.87" style="stop-color:#FEB90F;stop-opacity:0.1"/>
		<stop  offset="1" style="stop-color:#FFBA10;stop-opacity:0"/>
	</linearGradient>
	<path class="st66" d="M748.1,810.3l0.3-5.9c0-0.2-0.1-0.4-0.2-0.5l-4-3.6c-0.3-0.2-0.3-0.7-0.1-0.9c0,0,0,0,0.1-0.1l0.2-0.2
		l4.9-1.5c0.2-0.1,0.3-0.2,0.4-0.4l1.7-5.6c0-0.3,0.3-0.5,0.6-0.5c0.2,0,0.4,0.1,0.4,0.3l2.8,5c0.1,0.2,0.2,0.3,0.4,0.3l5.1,0.2
		c0.3,0.1,0.6,0.4,0.5,0.7c0,0,0,0.1,0,0.1c0,0.1-0.1,0.2-0.1,0.3l-3.2,4.6c-0.1,0.2-0.2,0.4-0.1,0.6l1.4,5.7c0.1,0.5-0.3,1-0.7,0.8
		l-4.7-2.1c-0.2-0.1-0.4-0.1-0.5,0.1l-4.2,3.4c-0.4,0.1-0.9-0.1-1-0.6C748.1,810.4,748.1,810.4,748.1,810.3z"/>
	
		<linearGradient id="SVGID_67_" gradientUnits="userSpaceOnUse" x1="2323.8215" y1="236.0699" x2="2381.8215" y2="1598.14" gradientTransform="matrix(-1 0 0 -1 3646.49 1723.4099)">
		<stop  offset="0" style="stop-color:#F6AC07"/>
		<stop  offset="0.19" style="stop-color:#F8AF09;stop-opacity:0.79"/>
		<stop  offset="0.59" style="stop-color:#FCB50D;stop-opacity:0.37"/>
		<stop  offset="0.87" style="stop-color:#FEB90F;stop-opacity:0.1"/>
		<stop  offset="1" style="stop-color:#FFBA10;stop-opacity:0"/>
	</linearGradient>
	<path class="st67" d="M1288.8,810.3l0.3-5.9c0-0.2-0.1-0.4-0.2-0.5l-4-3.6c-0.3-0.2-0.3-0.7-0.1-0.9c0,0,0,0,0.1-0.1l0.2-0.2
		l4.9-1.5c0.2-0.1,0.3-0.2,0.4-0.4l1.7-5.6c0-0.3,0.3-0.5,0.6-0.5c0.2,0,0.4,0.1,0.4,0.3l2.8,5c0.1,0.2,0.2,0.3,0.4,0.3l5.1,0.2
		c0.3,0.1,0.6,0.4,0.5,0.7c0,0,0,0.1,0,0.1c0,0.1-0.1,0.2-0.1,0.3l-3.2,4.6c-0.1,0.2-0.2,0.4-0.1,0.6l1.4,5.7c0.1,0.5-0.3,1-0.7,0.8
		l-4.7-2.1c-0.2-0.1-0.4-0.1-0.5,0.1l-4.2,3.4c-0.4,0.1-0.9-0.1-1-0.6C1288.8,810.4,1288.8,810.4,1288.8,810.3z"/>
	
		<linearGradient id="SVGID_68_" gradientUnits="userSpaceOnUse" x1="2793.2522" y1="497.9199" x2="2851.2522" y2="1859.9799" gradientTransform="matrix(-1 0 0 -1 3646.49 1723.4099)">
		<stop  offset="0" style="stop-color:#F6AC07"/>
		<stop  offset="0.19" style="stop-color:#F8AF09;stop-opacity:0.79"/>
		<stop  offset="0.59" style="stop-color:#FCB50D;stop-opacity:0.37"/>
		<stop  offset="0.87" style="stop-color:#FEB90F;stop-opacity:0.1"/>
		<stop  offset="1" style="stop-color:#FFBA10;stop-opacity:0"/>
	</linearGradient>
	<path class="st68" d="M819.4,548.5l0.3-5.9c0-0.2-0.1-0.4-0.2-0.5l-4-3.6c-0.3-0.2-0.3-0.7-0.1-0.9c0,0,0,0,0.1-0.1l0.2-0.2
		l4.9-1.5c0.2-0.1,0.3-0.2,0.4-0.4l1.7-5.6c0-0.3,0.3-0.5,0.6-0.5c0.2,0,0.4,0.1,0.4,0.3l2.8,5c0.1,0.2,0.2,0.3,0.4,0.3l5.1,0.2
		c0.3,0.1,0.6,0.4,0.5,0.7c0,0,0,0.1,0,0.1c0,0.1-0.1,0.2-0.1,0.3l-3.2,4.6c-0.1,0.2-0.2,0.4-0.1,0.6l1.4,5.7c0.1,0.5-0.3,1-0.7,0.8
		l-4.7-2.1c-0.2-0.1-0.4-0.1-0.5,0.1l-4.2,3.4c-0.4,0.1-0.9-0.1-1-0.6C819.4,548.6,819.4,548.5,819.4,548.5z"/>
	
		<linearGradient id="SVGID_69_" gradientUnits="userSpaceOnUse" x1="2496.8074" y1="255.8401" x2="2554.6973" y2="1615.0701" gradientTransform="matrix(-1 0 0 -1 3646.49 1723.4099)">
		<stop  offset="0" style="stop-color:#F6AC07"/>
		<stop  offset="0.19" style="stop-color:#F8AF09;stop-opacity:0.79"/>
		<stop  offset="0.59" style="stop-color:#FCB50D;stop-opacity:0.37"/>
		<stop  offset="0.87" style="stop-color:#FEB90F;stop-opacity:0.1"/>
		<stop  offset="1" style="stop-color:#FFBA10;stop-opacity:0"/>
	</linearGradient>
	<path class="st69" d="M1130.6,835.2l-5.1-0.1c-0.2,0-0.4,0.1-0.5,0.3l-2.9,4.9c-0.1,0.3-0.4,0.4-0.7,0.3c0,0,0,0,0,0
		c-0.2-0.1-0.3-0.3-0.3-0.5l-1.5-5.7c0-0.2-0.2-0.3-0.4-0.4l-4.8-1.8c-0.3-0.2-0.5-0.6-0.3-0.9c0-0.1,0.1-0.2,0.2-0.2l4.2-3.4
		c0.2-0.1,0.2-0.3,0.2-0.5v-6c0-0.5,0.5-0.9,0.9-0.5l4,3.6c0.1,0.1,0.3,0.2,0.5,0.1l4.8-1.9c0.4-0.2,0.8,0.3,0.7,0.8l-1.6,5.6
		c-0.1,0.2,0,0.4,0.1,0.6l3,4.8c0.2,0.3,0.1,0.7-0.1,0.9L1130.6,835.2z"/>
	
		<linearGradient id="SVGID_70_" gradientUnits="userSpaceOnUse" x1="2412.0256" y1="259.0798" x2="2470.0056" y2="1620.5997" gradientTransform="matrix(-1 0 0 -1 3646.49 1723.4099)">
		<stop  offset="0" style="stop-color:#F6AC07"/>
		<stop  offset="0.19" style="stop-color:#F8AF09;stop-opacity:0.79"/>
		<stop  offset="0.59" style="stop-color:#FCB50D;stop-opacity:0.37"/>
		<stop  offset="0.87" style="stop-color:#FEB90F;stop-opacity:0.1"/>
		<stop  offset="1" style="stop-color:#FFBA10;stop-opacity:0"/>
	</linearGradient>
	<path class="st70" d="M1209.9,875.7l-4.4-6.8c-0.1-0.2-0.4-0.4-0.7-0.4l-7.3,0.3c-0.5,0-0.8-0.5-0.8-1c0,0,0,0,0,0
		c0-0.2,0.1-0.3,0.2-0.4l4.2-7c0.1-0.3,0.2-0.6,0.1-0.9l-2.5-8c-0.2-0.7,0.3-1.4,1-1.2l6.9,2.5c0.3,0.1,0.5,0,0.7-0.2l5.7-5.3
		c0.5-0.5,1.3-0.1,1.3,0.7l0.1,8.5c0,0.3,0.1,0.6,0.4,0.8l6,4.7c0.4,0.4,0.5,1,0.1,1.4c-0.1,0.1-0.2,0.2-0.3,0.2l-6.9,2.7
		c-0.3,0.1-0.4,0.3-0.5,0.6l-2,8.2c0,0.4-0.4,0.7-0.8,0.7C1210.2,876,1210,875.9,1209.9,875.7z"/>
	
		<linearGradient id="SVGID_71_" gradientUnits="userSpaceOnUse" x1="2698.376" y1="244.5697" x2="2756.356" y2="1606.3197" gradientTransform="matrix(-1 0 0 -1 3646.49 1723.4099)">
		<stop  offset="0" style="stop-color:#F6AC07"/>
		<stop  offset="0.19" style="stop-color:#F8AF09;stop-opacity:0.79"/>
		<stop  offset="0.59" style="stop-color:#FCB50D;stop-opacity:0.37"/>
		<stop  offset="0.87" style="stop-color:#FEB90F;stop-opacity:0.1"/>
		<stop  offset="1" style="stop-color:#FFBA10;stop-opacity:0"/>
	</linearGradient>
	<path class="st71" d="M910.6,797.2l3-4.8c0.1-0.2,0.1-0.4,0.1-0.6l-1.6-5.6c-0.2-0.5,0.3-1,0.7-0.8l4.8,1.9c0.2,0.1,0.4,0,0.5-0.1
		l4.1-3.6c0.2-0.2,0.6-0.1,0.8,0.1c0.1,0.1,0.1,0.3,0.1,0.4L923,790c0,0.2,0.1,0.4,0.2,0.5l4.2,3.4c0.3,0.2,0.3,0.7,0.1,0.9
		c0,0,0,0-0.1,0.1l-0.2,0.2l-4.9,1.8c-0.2,0.1-0.3,0.2-0.4,0.4l-1.5,5.7c0,0.3-0.2,0.5-0.5,0.5c-0.2,0-0.4-0.1-0.5-0.3l-2.9-4.9
		c-0.1-0.2-0.3-0.3-0.5-0.3l-5.1,0.1c-0.3-0.1-0.6-0.4-0.5-0.7c0,0,0-0.1,0-0.1C910.5,797.4,910.5,797.3,910.6,797.2z"/>
</g>
<g class="st0">
	
		<linearGradient id="SVGID_72_" gradientUnits="userSpaceOnUse" x1="3370.7773" y1="260.0897" x2="3428.7673" y2="1622.1597" gradientTransform="matrix(-1 0 0 -1 3646.49 1723.4099)">
		<stop  offset="0" style="stop-color:#F6AC07"/>
		<stop  offset="0.19" style="stop-color:#F8AF09;stop-opacity:0.79"/>
		<stop  offset="0.59" style="stop-color:#FCB50D;stop-opacity:0.37"/>
		<stop  offset="0.87" style="stop-color:#FEB90F;stop-opacity:0.1"/>
		<stop  offset="1" style="stop-color:#FFBA10;stop-opacity:0"/>
	</linearGradient>
	<path class="st72" d="M241,766.9l0.3-5.9c0-0.2-0.1-0.4-0.2-0.6l-4-3.6c-0.3-0.2-0.3-0.7-0.1-0.9c0,0,0,0,0.1-0.1l0.2-0.2l4.9-1.5
		c0.2-0.1,0.3-0.2,0.4-0.4l1.7-5.6c0-0.3,0.3-0.5,0.6-0.5c0.2,0,0.4,0.1,0.4,0.3l2.8,5c0.1,0.2,0.3,0.3,0.5,0.3l5.1,0.2
		c0.3,0.1,0.6,0.4,0.5,0.7c0,0,0,0.1,0,0.1c0,0.1,0,0.1-0.1,0.2l-3.2,4.6c-0.1,0.2-0.1,0.4-0.1,0.6l1.4,5.7c0.1,0.5-0.3,1-0.7,0.8
		l-4.7-2.1c-0.2-0.1-0.4,0-0.5,0.1l-4.2,3.4C241.5,767.8,241,767.5,241,766.9z"/>
	
		<linearGradient id="SVGID_73_" gradientUnits="userSpaceOnUse" x1="3574.9421" y1="206.6899" x2="3632.9421" y2="1568.76" gradientTransform="matrix(-1 0 0 -1 3646.49 1723.4099)">
		<stop  offset="0" style="stop-color:#F6AC07"/>
		<stop  offset="0.19" style="stop-color:#F8AF09;stop-opacity:0.79"/>
		<stop  offset="0.59" style="stop-color:#FCB50D;stop-opacity:0.37"/>
		<stop  offset="0.87" style="stop-color:#FEB90F;stop-opacity:0.1"/>
		<stop  offset="1" style="stop-color:#FFBA10;stop-opacity:0"/>
	</linearGradient>
	<path class="st73" d="M36.8,820.3l0.3-5.9c0-0.2-0.1-0.4-0.2-0.6l-4-3.6c-0.3-0.2-0.3-0.7-0.1-0.9c0,0,0,0,0.1-0.1l0.2-0.2l4.9-1.5
		c0.2-0.1,0.3-0.2,0.4-0.4l1.7-5.6c0-0.3,0.3-0.5,0.6-0.5c0.2,0,0.4,0.1,0.4,0.3l2.8,5c0.1,0.2,0.3,0.3,0.5,0.3l5.1,0.2
		c0.3,0.1,0.6,0.4,0.5,0.7c0,0,0,0.1,0,0.1c0,0.1,0,0.1-0.1,0.2l-3.2,4.6c-0.1,0.2-0.1,0.4-0.1,0.6l1.4,5.7c0.1,0.5-0.3,1-0.7,0.8
		l-4.7-2.1c-0.2-0.1-0.4,0-0.5,0.1l-4.2,3.4C37.3,821.2,36.8,820.9,36.8,820.3z"/>
	
		<linearGradient id="SVGID_74_" gradientUnits="userSpaceOnUse" x1="3483.6418" y1="458.5816" x2="3541.6418" y2="1820.6417" gradientTransform="matrix(-1 0 0 -1 3646.49 1723.4099)">
		<stop  offset="0" style="stop-color:#F6AC07"/>
		<stop  offset="0.19" style="stop-color:#F8AF09;stop-opacity:0.79"/>
		<stop  offset="0.59" style="stop-color:#FCB50D;stop-opacity:0.37"/>
		<stop  offset="0.87" style="stop-color:#FEB90F;stop-opacity:0.1"/>
		<stop  offset="1" style="stop-color:#FFBA10;stop-opacity:0"/>
	</linearGradient>
	<path class="st74" d="M128.1,568.4l0.3-5.9c0-0.2-0.1-0.4-0.2-0.6l-4-3.6c-0.3-0.2-0.3-0.7-0.1-0.9c0,0,0,0,0.1-0.1l0.2-0.2
		l4.9-1.5c0.2-0.1,0.3-0.2,0.4-0.4l1.7-5.6c0-0.3,0.3-0.5,0.6-0.5c0.2,0,0.4,0.1,0.4,0.3l2.8,5c0.1,0.2,0.3,0.3,0.5,0.3l5.1,0.2
		c0.3,0.1,0.6,0.4,0.5,0.7c0,0,0,0.1,0,0.1c0,0.1,0,0.1-0.1,0.2l-3.2,4.6c-0.1,0.2-0.1,0.4-0.1,0.6l1.4,5.7c0.1,0.5-0.3,1-0.7,0.8
		l-4.7-2.1c-0.2-0.1-0.4,0-0.5,0.1l-4.2,3.4C128.6,569.3,128.1,569,128.1,568.4z"/>
	
		<linearGradient id="SVGID_75_" gradientUnits="userSpaceOnUse" x1="3097.1191" y1="225.8801" x2="3155.009" y2="1585.11" gradientTransform="matrix(-1 0 0 -1 3646.49 1723.4099)">
		<stop  offset="0" style="stop-color:#F6AC07"/>
		<stop  offset="0.19" style="stop-color:#F8AF09;stop-opacity:0.79"/>
		<stop  offset="0.59" style="stop-color:#FCB50D;stop-opacity:0.37"/>
		<stop  offset="0.87" style="stop-color:#FEB90F;stop-opacity:0.1"/>
		<stop  offset="1" style="stop-color:#FFBA10;stop-opacity:0"/>
	</linearGradient>
	<path class="st75" d="M528.6,824.3l-5.1-0.1c-0.2,0-0.4,0.1-0.5,0.3l-2.9,4.9c-0.1,0.3-0.4,0.4-0.7,0.3c0,0,0,0,0,0
		c-0.2-0.1-0.3-0.3-0.3-0.5l-1.5-5.7c0-0.2-0.2-0.4-0.4-0.4l-4.8-1.8c-0.3-0.2-0.5-0.6-0.3-0.9c0-0.1,0.1-0.2,0.2-0.2l4.2-3.4
		c0.2-0.1,0.2-0.3,0.2-0.5l-0.1-6c0-0.3,0.2-0.6,0.5-0.6c0.1,0,0.3,0,0.4,0.1l4.1,3.6c0.1,0.1,0.3,0.2,0.5,0.1l4.8-1.9
		c0.4-0.2,0.8,0.3,0.7,0.8l-1.7,5.6c-0.1,0.2,0,0.4,0.1,0.6l3,4.8c0.2,0.3,0.1,0.7-0.2,0.9c0,0,0,0,0,0
		C528.8,824.2,528.7,824.2,528.6,824.3z"/>
	
		<linearGradient id="SVGID_76_" gradientUnits="userSpaceOnUse" x1="2992.8938" y1="229.9698" x2="3050.8738" y2="1591.4698" gradientTransform="matrix(-1 0 0 -1 3646.49 1723.4099)">
		<stop  offset="0" style="stop-color:#F6AC07"/>
		<stop  offset="0.19" style="stop-color:#F8AF09;stop-opacity:0.79"/>
		<stop  offset="0.59" style="stop-color:#FCB50D;stop-opacity:0.37"/>
		<stop  offset="0.87" style="stop-color:#FEB90F;stop-opacity:0.1"/>
		<stop  offset="1" style="stop-color:#FFBA10;stop-opacity:0"/>
	</linearGradient>
	<path class="st76" d="M624.9,807.8l-4.4-6.8c-0.1-0.2-0.4-0.4-0.7-0.4l-7.3,0.3c-0.5,0-0.8-0.5-0.8-1c0,0,0,0,0,0
		c0-0.2,0.1-0.3,0.2-0.4l4.2-7c0.2-0.3,0.2-0.6,0.1-0.9l-2.5-8c-0.2-0.7,0.3-1.4,1-1.2l6.9,2.5c0.3,0.1,0.5,0,0.7-0.2l5.7-5.3
		c0.5-0.5,1.3-0.1,1.3,0.7l0.1,8.5c0,0.3,0.1,0.6,0.4,0.8l6,4.7c0.4,0.4,0.5,1,0.1,1.4c-0.1,0.1-0.2,0.2-0.3,0.2l-6.9,2.8
		c-0.3,0.1-0.4,0.3-0.5,0.6l-2,8.2c0,0.4-0.4,0.7-0.8,0.7C625.3,808.1,625,808,624.9,807.8C624.9,807.8,624.9,807.8,624.9,807.8z"/>
	
		<linearGradient id="SVGID_77_" gradientUnits="userSpaceOnUse" x1="3283.2322" y1="311.6999" x2="3341.2124" y2="1673.46" gradientTransform="matrix(-1 0 0 -1 3646.49 1723.4099)">
		<stop  offset="0" style="stop-color:#F6AC07"/>
		<stop  offset="0.19" style="stop-color:#F8AF09;stop-opacity:0.79"/>
		<stop  offset="0.59" style="stop-color:#FCB50D;stop-opacity:0.37"/>
		<stop  offset="0.87" style="stop-color:#FEB90F;stop-opacity:0.1"/>
		<stop  offset="1" style="stop-color:#FFBA10;stop-opacity:0"/>
	</linearGradient>
	<path class="st77" d="M325.4,717.8l3-4.8c0.1-0.2,0.1-0.4,0.1-0.6l-1.6-5.6c-0.2-0.5,0.3-1,0.7-0.8l4.8,1.9c0.2,0.1,0.4,0,0.5-0.1
		l4.1-3.6c0.2-0.2,0.6-0.1,0.8,0.1c0.1,0.1,0.1,0.3,0.1,0.4l-0.1,6c0,0.2,0.1,0.4,0.2,0.5l4.1,3.5c0.3,0.2,0.3,0.7,0.1,0.9
		c0,0,0,0-0.1,0.1l-0.2,0.2l-4.9,1.8c-0.2,0.1-0.3,0.2-0.4,0.4l-1.5,5.7c0,0.3-0.2,0.5-0.5,0.5c-0.2,0-0.4-0.1-0.5-0.3l-2.9-4.9
		c-0.1-0.2-0.3-0.3-0.5-0.3l-5.1,0.1c-0.3-0.1-0.6-0.4-0.5-0.7c0,0,0-0.1,0-0.1C325.3,718,325.4,717.9,325.4,717.8z"/>
</g>
<linearGradient id="SVGID_78_" gradientUnits="userSpaceOnUse" x1="3016.7339" y1="136.1298" x2="3074.374" y2="1489.7897" gradientTransform="matrix(-1 0 0 -1 3646.49 1723.4099)">
	<stop  offset="0" style="stop-color:#F6AC07"/>
	<stop  offset="0.19" style="stop-color:#F8AF09;stop-opacity:0.79"/>
	<stop  offset="0.59" style="stop-color:#FCB50D;stop-opacity:0.37"/>
	<stop  offset="0.87" style="stop-color:#FEB90F;stop-opacity:0.1"/>
	<stop  offset="1" style="stop-color:#FFBA10;stop-opacity:0"/>
</linearGradient>
<path class="st78" d="M595.6,640.5l-0.9,5.8c0,0.2,0,0.4,0.1,0.6l3.6,4.2c0.2,0.3,0.2,0.7-0.1,0.9c0,0,0,0,0,0
	c-0.1,0.1-0.2,0.1-0.3,0.1l-5,0.8c-0.2,0-0.3,0.2-0.4,0.3l-2.3,5.3c-0.1,0.3-0.3,0.5-0.6,0.4c-0.2,0-0.4-0.2-0.4-0.4l-2.2-5.4
	c-0.1-0.2-0.2-0.3-0.4-0.4l-5-1c-0.4-0.1-0.6-0.5-0.5-0.9c0,0,0,0,0,0c0-0.1,0.1-0.2,0.2-0.3l3.7-4c0.1-0.2,0.2-0.4,0.2-0.6
	l-0.8-5.9c-0.1-0.3,0.1-0.6,0.4-0.7c0.1,0,0.2,0,0.4,0l4.4,2.8c0.2,0.1,0.3,0.1,0.5,0l4.5-2.7C595.2,639.5,595.7,640,595.6,640.5z"
	/>
<linearGradient id="SVGID_79_" gradientUnits="userSpaceOnUse" x1="2508.5684" y1="306.6096" x2="2566.3083" y2="1662.4597" gradientTransform="matrix(-1 0 0 -1 3646.49 1723.4099)">
	<stop  offset="0" style="stop-color:#F6AC07"/>
	<stop  offset="0.19" style="stop-color:#F8AF09;stop-opacity:0.79"/>
	<stop  offset="0.59" style="stop-color:#FCB50D;stop-opacity:0.37"/>
	<stop  offset="0.87" style="stop-color:#FEB90F;stop-opacity:0.1"/>
	<stop  offset="1" style="stop-color:#FFBA10;stop-opacity:0"/>
</linearGradient>
<path class="st79" d="M1100.4,568.9l3.6,4.2c0.1,0.1,0.3,0.2,0.5,0.2l5-1.2c0.4-0.1,0.8,0.4,0.6,0.9l-2.2,5.3
	c-0.1,0.2-0.1,0.4,0,0.6l2.5,5.2c0.2,0.3,0,0.8-0.3,0.9c-0.1,0-0.1,0.1-0.2,0.1l-5-0.9c-0.2,0-0.4,0.1-0.5,0.2l-3.4,4.4
	c-0.2,0.2-0.5,0.3-0.7,0.1c0,0,0,0,0,0c-0.1-0.1-0.2-0.2-0.2-0.4l-0.9-5.8c0-0.2-0.1-0.4-0.3-0.5l-4.6-2.5c-0.3-0.2-0.4-0.7-0.2-1
	l0.2-0.2l4.5-2.8c0.2-0.1,0.3-0.3,0.3-0.5l0.6-5.9c0-0.3,0.2-0.5,0.5-0.6C1100.2,568.8,1100.3,568.8,1100.4,568.9z"/>
<linearGradient id="SVGID_80_" gradientUnits="userSpaceOnUse" x1="2906.2932" y1="217.4599" x2="2964.0332" y2="1573.3699" gradientTransform="matrix(-1 0 0 -1 3646.49 1723.4099)">
	<stop  offset="0" style="stop-color:#F6AC07"/>
	<stop  offset="0.19" style="stop-color:#F8AF09;stop-opacity:0.79"/>
	<stop  offset="0.59" style="stop-color:#FCB50D;stop-opacity:0.37"/>
	<stop  offset="0.87" style="stop-color:#FEB90F;stop-opacity:0.1"/>
	<stop  offset="1" style="stop-color:#FFBA10;stop-opacity:0"/>
</linearGradient>
<path class="st80" d="M697.7,680.9l5,0.9c0.2,0,0.4,0,0.5-0.2l3.5-4.3c0.2-0.2,0.5-0.3,0.7-0.1c0,0,0,0,0,0c0.1,0.1,0.2,0.2,0.2,0.4
	l0.8,5.9c0,0.2,0.1,0.4,0.3,0.5l4.6,2.5c0.3,0.2,0.4,0.7,0.2,1l-0.2,0.2l-4.5,2.7c-0.2,0.1-0.3,0.3-0.3,0.5l-0.6,5.9
	c0,0.3-0.2,0.5-0.5,0.6c-0.2,0-0.3-0.1-0.4-0.2l-3.6-4.2c-0.1-0.1-0.3-0.2-0.5-0.2l-5,1.1c-0.5,0.1-0.8-0.4-0.6-0.9l2.3-5.3
	c0.1-0.2,0.1-0.4,0-0.6l-2.4-5.2C696.9,681.4,697.2,680.8,697.7,680.9z"/>
<linearGradient id="SVGID_81_" gradientUnits="userSpaceOnUse" x1="2761.355" y1="268.4002" x2="2818.9851" y2="1621.7402" gradientTransform="matrix(-1 0 0 -1 3646.49 1723.4099)">
	<stop  offset="0" style="stop-color:#F6AC07"/>
	<stop  offset="0.19" style="stop-color:#F8AF09;stop-opacity:0.79"/>
	<stop  offset="0.59" style="stop-color:#FCB50D;stop-opacity:0.37"/>
	<stop  offset="0.87" style="stop-color:#FEB90F;stop-opacity:0.1"/>
	<stop  offset="1" style="stop-color:#FFBA10;stop-opacity:0"/>
</linearGradient>
<path class="st81" d="M859,647.3l-3.6,4.2c-0.1,0.2-0.2,0.4-0.1,0.6l1,5.8c0.1,0.3-0.1,0.6-0.4,0.7c-0.1,0-0.2,0-0.4,0l-4.5-2.7
	c-0.2-0.1-0.3-0.1-0.5,0l-4.4,2.9c-0.4,0.3-0.9-0.1-0.8-0.7l0.8-5.9c0-0.2,0-0.4-0.2-0.6l-3.7-4.1c-0.3-0.3-0.2-0.7,0.1-1
	c0,0,0,0,0,0c0.1-0.1,0.1-0.1,0.2-0.1l5-1c0.2,0,0.3-0.2,0.4-0.4l2.2-5.4c0.1-0.2,0.3-0.4,0.6-0.4c0.2,0,0.3,0.2,0.4,0.4l2.3,5.3
	c0.1,0.2,0.2,0.3,0.4,0.3l5,0.7c0.3,0.1,0.6,0.4,0.5,0.7c0,0,0,0.1,0,0.1C859.1,647.1,859.1,647.2,859,647.3z"/>
<linearGradient id="SVGID_82_" gradientUnits="userSpaceOnUse" x1="3153.5264" y1="223.3597" x2="3211.3665" y2="1581.5597" gradientTransform="matrix(-1 0 0 -1 3646.49 1723.4099)">
	<stop  offset="0" style="stop-color:#F6AC07"/>
	<stop  offset="0.19" style="stop-color:#F8AF09;stop-opacity:0.79"/>
	<stop  offset="0.59" style="stop-color:#FCB50D;stop-opacity:0.37"/>
	<stop  offset="0.87" style="stop-color:#FEB90F;stop-opacity:0.1"/>
	<stop  offset="1" style="stop-color:#FFBA10;stop-opacity:0"/>
</linearGradient>
<path class="st82" d="M459.3,699.8l2.5,5.2c0.1,0.2,0.2,0.3,0.4,0.3l5,0.5c0.4,0.1,0.6,0.4,0.5,0.8c0,0,0,0,0,0
	c0,0.1-0.1,0.2-0.1,0.3l-3.4,4.4c-0.1,0.2-0.2,0.4-0.1,0.6l1.1,5.8c0.1,0.5-0.3,1-0.8,0.7l-4.6-2.5c-0.2-0.1-0.3-0.1-0.5,0l-4.3,3
	c-0.2,0.2-0.6,0.1-0.7-0.1c-0.1-0.1-0.1-0.3-0.1-0.5l0.6-5.9c0-0.2,0-0.4-0.2-0.6l-3.8-3.9c-0.3-0.2-0.3-0.7-0.1-0.9
	c0,0,0,0,0.1-0.1c0.1-0.1,0.1-0.1,0.2-0.1l5-1.2c0.2-0.1,0.3-0.2,0.4-0.4l2-5.5c0.1-0.2,0.3-0.4,0.5-0.3c0.1,0,0.1,0,0.2,0.1
	C459.2,699.6,459.3,699.7,459.3,699.8z"/>
<linearGradient id="SVGID_83_" gradientUnits="userSpaceOnUse" x1="3216.9832" y1="-110.2901" x2="3274.8232" y2="1247.8999" gradientTransform="matrix(-1 0 0 -1 3646.49 1723.4099)">
	<stop  offset="0" style="stop-color:#F6AC07"/>
	<stop  offset="0.19" style="stop-color:#F8AF09;stop-opacity:0.79"/>
	<stop  offset="0.59" style="stop-color:#FCB50D;stop-opacity:0.37"/>
	<stop  offset="0.87" style="stop-color:#FEB90F;stop-opacity:0.1"/>
	<stop  offset="1" style="stop-color:#FFBA10;stop-opacity:0"/>
</linearGradient>
<path class="st83" d="M386.3,808.5l2.5,5.2c0.1,0.2,0.2,0.3,0.4,0.3l5,0.5c0.3,0.1,0.6,0.4,0.5,0.7c0,0,0,0.1,0,0.1
	c0,0.1-0.1,0.2-0.1,0.3l-3.4,4.4c-0.1,0.2-0.2,0.4-0.1,0.6l1.1,5.8c0.1,0.5-0.3,1-0.8,0.7l-4.6-2.5c-0.2-0.1-0.3-0.1-0.5,0l-4.3,3
	c-0.2,0.2-0.6,0.1-0.7-0.1c-0.1-0.1-0.1-0.3-0.1-0.5l0.6-5.9c0-0.2,0-0.4-0.2-0.6l-3.8-3.9c-0.3-0.2-0.3-0.7-0.1-0.9
	c0,0,0,0,0.1-0.1c0.1-0.1,0.1-0.1,0.2-0.1l5-1.2c0.2-0.1,0.3-0.2,0.4-0.4l2-5.5c0.1-0.3,0.3-0.5,0.6-0.4
	C386.2,808.2,386.3,808.4,386.3,808.5z"/>
<linearGradient id="SVGID_84_" gradientUnits="userSpaceOnUse" x1="3509.4414" y1="218.9899" x2="3567.1614" y2="1574.3401" gradientTransform="matrix(-1 0 0 -1 3646.49 1723.4099)">
	<stop  offset="0" style="stop-color:#F6AC07"/>
	<stop  offset="0.19" style="stop-color:#F8AF09;stop-opacity:0.79"/>
	<stop  offset="0.59" style="stop-color:#FCB50D;stop-opacity:0.37"/>
	<stop  offset="0.87" style="stop-color:#FEB90F;stop-opacity:0.1"/>
	<stop  offset="1" style="stop-color:#FFBA10;stop-opacity:0"/>
</linearGradient>
<path class="st84" d="M95.3,714.2l4.3-3.1c0.2-0.1,0.3-0.3,0.3-0.5l0.3-5.9c0-0.5,0.6-0.8,0.9-0.5l3.8,3.9c0.1,0.1,0.3,0.2,0.5,0.1
	l4.9-1.5c0.4-0.1,0.8,0.4,0.7,0.9l-2,5.5c-0.1,0.2-0.1,0.4,0,0.6l2.8,5c0.2,0.3,0.1,0.7-0.2,0.9c0,0,0,0,0,0
	c-0.1,0.1-0.2,0.1-0.3,0.1l-5-0.5c-0.2,0-0.4,0.1-0.5,0.2l-3.2,4.6c-0.1,0.2-0.3,0.4-0.6,0.3c-0.1,0-0.1,0-0.1-0.1
	c-0.2-0.1-0.3-0.3-0.3-0.5l-1.2-5.8c0-0.2-0.1-0.4-0.3-0.5l-4.7-2.1c-0.3-0.2-0.5-0.6-0.3-0.9C95.2,714.4,95.2,714.3,95.3,714.2z"/>
<linearGradient id="SVGID_85_" gradientUnits="userSpaceOnUse" x1="3602.1824" y1="229.1199" x2="3659.9023" y2="1584.4698" gradientTransform="matrix(-1 0 0 -1 3646.49 1723.4099)">
	<stop  offset="0" style="stop-color:#F6AC07"/>
	<stop  offset="0.19" style="stop-color:#F8AF09;stop-opacity:0.79"/>
	<stop  offset="0.59" style="stop-color:#FCB50D;stop-opacity:0.37"/>
	<stop  offset="0.87" style="stop-color:#FEB90F;stop-opacity:0.1"/>
	<stop  offset="1" style="stop-color:#FFBA10;stop-opacity:0"/>
</linearGradient>
<path class="st85" d="M2.6,704.1l4.3-3.1c0.2-0.1,0.3-0.3,0.3-0.5l0.3-5.9c0-0.5,0.6-0.8,0.9-0.5l3.8,3.9c0.1,0.1,0.3,0.2,0.5,0.1
	l4.9-1.5c0.4-0.1,0.8,0.4,0.7,0.9l-2,5.5c-0.1,0.2-0.1,0.4,0,0.6l2.8,5c0.2,0.3,0.1,0.7-0.2,0.9c0,0,0,0,0,0
	c-0.1,0.1-0.2,0.1-0.3,0.1l-5-0.5c-0.2,0-0.4,0.1-0.5,0.2l-3.2,4.6c-0.1,0.2-0.3,0.4-0.6,0.3c-0.1,0-0.1,0-0.1-0.1
	c-0.2-0.1-0.3-0.3-0.3-0.5l-1.2-5.8c0-0.2-0.1-0.4-0.3-0.5l-4.7-2.1c-0.3-0.2-0.5-0.6-0.3-0.9C2.5,704.3,2.5,704.2,2.6,704.1z"/>
<linearGradient id="SVGID_86_" gradientUnits="userSpaceOnUse" x1="3099.9482" y1="226.0797" x2="3157.7681" y2="1583.9696" gradientTransform="matrix(-1 0 0 -1 3646.49 1723.4099)">
	<stop  offset="0" style="stop-color:#F6AC07"/>
	<stop  offset="0.19" style="stop-color:#F8AF09;stop-opacity:0.79"/>
	<stop  offset="0.59" style="stop-color:#FCB50D;stop-opacity:0.37"/>
	<stop  offset="0.87" style="stop-color:#FEB90F;stop-opacity:0.1"/>
	<stop  offset="1" style="stop-color:#FFBA10;stop-opacity:0"/>
</linearGradient>
<path class="st86" d="M513,589.8l-0.4,5.9c0,0.2,0.1,0.4,0.2,0.5l3.9,3.7c0.3,0.2,0.3,0.7,0.1,0.9c0,0,0,0-0.1,0.1l-0.2,0.2
	l-4.9,1.4c-0.2,0.1-0.3,0.2-0.4,0.4l-1.8,5.5c0,0.2-0.2,0.4-0.4,0.4c-0.1,0-0.1,0-0.2,0c-0.2,0-0.3-0.2-0.4-0.3l-2.6-5.1
	c-0.1-0.2-0.2-0.3-0.4-0.3l-5.1-0.3c-0.3-0.1-0.6-0.4-0.5-0.7c0,0,0-0.1,0-0.1c0-0.1,0.1-0.2,0.1-0.3l3.3-4.5
	c0.1-0.2,0.2-0.4,0.1-0.6l-1.3-5.7c-0.1-0.5,0.3-1,0.7-0.8l4.7,2.3c0.2,0.1,0.3,0.1,0.5,0l4.2-3.3c0.3-0.2,0.7-0.1,0.8,0.2
	C513.1,589.5,513.1,589.6,513,589.8z"/>
<linearGradient id="SVGID_87_" gradientUnits="userSpaceOnUse" x1="3371.3457" y1="184.5198" x2="3429.1655" y2="1542.4097" gradientTransform="matrix(-1 0 0 -1 3646.49 1723.4099)">
	<stop  offset="0" style="stop-color:#F6AC07"/>
	<stop  offset="0.19" style="stop-color:#F8AF09;stop-opacity:0.79"/>
	<stop  offset="0.59" style="stop-color:#FCB50D;stop-opacity:0.37"/>
	<stop  offset="0.87" style="stop-color:#FEB90F;stop-opacity:0.1"/>
	<stop  offset="1" style="stop-color:#FFBA10;stop-opacity:0"/>
</linearGradient>
<path class="st87" d="M241.6,631.3l-0.4,5.9c0,0.2,0.1,0.4,0.2,0.5l3.9,3.7c0.3,0.2,0.3,0.7,0.1,0.9c0,0,0,0-0.1,0.1l-0.2,0.2
	l-4.9,1.4c-0.2,0.1-0.3,0.2-0.4,0.4l-1.8,5.5c0,0.2-0.2,0.4-0.4,0.4c-0.1,0-0.1,0-0.2,0c-0.2,0-0.3-0.2-0.4-0.3l-2.6-5.1
	c-0.1-0.2-0.2-0.3-0.4-0.3l-5.1-0.3c-0.3-0.1-0.6-0.4-0.5-0.7c0,0,0-0.1,0-0.1c0-0.1,0.1-0.2,0.1-0.3l3.3-4.5
	c0.1-0.2,0.2-0.4,0.1-0.6l-1.3-5.7c-0.1-0.5,0.3-1,0.7-0.8l4.7,2.3c0.2,0.1,0.3,0.1,0.5,0l4.2-3.3
	C241.1,630.4,241.6,630.8,241.6,631.3z"/>
<linearGradient id="SVGID_88_" gradientUnits="userSpaceOnUse" x1="2488.4146" y1="233.5798" x2="2546.2246" y2="1591.2397" gradientTransform="matrix(-1 0 0 -1 3646.49 1723.4099)">
	<stop  offset="0" style="stop-color:#F6AC07"/>
	<stop  offset="0.19" style="stop-color:#F8AF09;stop-opacity:0.79"/>
	<stop  offset="0.59" style="stop-color:#FCB50D;stop-opacity:0.37"/>
	<stop  offset="0.87" style="stop-color:#FEB90F;stop-opacity:0.1"/>
	<stop  offset="1" style="stop-color:#FFBA10;stop-opacity:0"/>
</linearGradient>
<path class="st88" d="M1118.2,669.6l0.3-5.9c0-0.2-0.1-0.4-0.2-0.5l-4-3.6c-0.3-0.2-0.3-0.7-0.1-0.9c0,0,0,0,0.1-0.1l0.2-0.2
	l4.8-1.6c0.2-0.1,0.3-0.2,0.4-0.4l1.7-5.6c0-0.3,0.3-0.5,0.6-0.5c0.2,0,0.4,0.1,0.4,0.3l2.8,5c0.1,0.2,0.2,0.3,0.4,0.3l5.1,0.2
	c0.3,0.1,0.6,0.4,0.5,0.7c0,0,0,0.1,0,0.1c0,0.1-0.1,0.2-0.1,0.3l-3.2,4.6c-0.1,0.2-0.2,0.4-0.1,0.6l1.4,5.7c0.1,0.5-0.3,1-0.7,0.8
	l-4.7-2.1c-0.2-0.1-0.4,0-0.5,0.1l-4.2,3.4c-0.3,0.2-0.7,0-0.9-0.3C1118.2,669.9,1118.2,669.8,1118.2,669.6z"/>
<linearGradient id="SVGID_89_" gradientUnits="userSpaceOnUse" x1="2618.293" y1="250.4499" x2="2676.103" y2="1608.1097" gradientTransform="matrix(-1 0 0 -1 3646.49 1723.4099)">
	<stop  offset="0" style="stop-color:#F6AC07"/>
	<stop  offset="0.19" style="stop-color:#F8AF09;stop-opacity:0.79"/>
	<stop  offset="0.59" style="stop-color:#FCB50D;stop-opacity:0.37"/>
	<stop  offset="0.87" style="stop-color:#FEB90F;stop-opacity:0.1"/>
	<stop  offset="1" style="stop-color:#FFBA10;stop-opacity:0"/>
</linearGradient>
<path class="st89" d="M991,716.6l0.3-5.9c0-0.2-0.1-0.4-0.2-0.5l-4-3.6c-0.3-0.2-0.3-0.7-0.1-0.9c0,0,0,0,0.1-0.1l0.2-0.2l4.9-1.5
	c0.2-0.1,0.3-0.2,0.4-0.4l1.7-5.6c0-0.3,0.3-0.5,0.6-0.5c0.2,0,0.4,0.1,0.4,0.3l2.8,5c0.1,0.2,0.2,0.3,0.4,0.3l5,0.1
	c0.3,0.1,0.6,0.4,0.5,0.7c0,0,0,0.1,0,0.1c0,0.1-0.1,0.2-0.1,0.3l-3.2,4.6c-0.1,0.2-0.1,0.4-0.1,0.6l1.4,5.7c0.1,0.5-0.3,1-0.7,0.8
	l-4.7-2.1c-0.2-0.1-0.4,0-0.5,0.1l-4.2,3.4C991.5,717.5,991,717.1,991,716.6z"/>
<linearGradient id="SVGID_90_" gradientUnits="userSpaceOnUse" x1="2433.9905" y1="261.24" x2="2491.6807" y2="1616.0801" gradientTransform="matrix(-1 0 0 -1 3646.49 1723.4099)">
	<stop  offset="0" style="stop-color:#F6AC07"/>
	<stop  offset="0.19" style="stop-color:#F8AF09;stop-opacity:0.79"/>
	<stop  offset="0.59" style="stop-color:#FCB50D;stop-opacity:0.37"/>
	<stop  offset="0.87" style="stop-color:#FEB90F;stop-opacity:0.1"/>
	<stop  offset="1" style="stop-color:#FFBA10;stop-opacity:0"/>
</linearGradient>
<path class="st90" d="M1189.2,729.5l-5.1-0.1c-0.2,0-0.4,0.1-0.5,0.3l-2.9,4.8c-0.1,0.2-0.3,0.4-0.6,0.3c-0.1,0-0.1,0-0.1-0.1
	c-0.2-0.1-0.3-0.2-0.3-0.4l-1.5-5.7c0-0.2-0.2-0.4-0.4-0.4l-4.8-1.8c-0.3-0.2-0.5-0.6-0.3-0.9c0-0.1,0.1-0.2,0.2-0.2l4.1-3.4
	c0.2-0.1,0.2-0.3,0.2-0.5v-5.9c0-0.3,0.2-0.6,0.5-0.6c0.1,0,0.3,0,0.4,0.1l4,3.6c0.1,0.1,0.3,0.2,0.5,0.1l4.8-1.9
	c0.4-0.2,0.8,0.3,0.7,0.8l-1.6,5.6c-0.1,0.2,0,0.4,0.1,0.6l3,4.8c0.2,0.3,0.1,0.7-0.1,0.9C1189.5,729.4,1189.4,729.4,1189.2,729.5
	C1189.3,729.5,1189.2,729.5,1189.2,729.5z"/>
</svg>
