<?xml version="1.0" encoding="utf-8"?>
<!-- Generator: Adobe Illustrator 22.1.0, SVG Export Plug-In . SVG Version: 6.00 Build 0)  -->
<svg version="1.1" id="Layer_1" xmlns="http://www.w3.org/2000/svg" xmlns:xlink="http://www.w3.org/1999/xlink" x="0px" y="0px"
	 viewBox="0 0 1353 1080" style="enable-background:new 0 0 1353 1080;" xml:space="preserve">
<style type="text/css">
	.st0{opacity:0.25;}
	.st1{fill:url(#SVGID_1_);}
	.st2{fill:url(#SVGID_2_);}
	.st3{fill:url(#SVGID_3_);}
	.st4{fill:url(#SVGID_4_);}
	.st5{fill:url(#SVGID_5_);}
	.st6{fill:url(#SVGID_6_);}
	.st7{fill:url(#SVGID_7_);}
	.st8{fill:url(#SVGID_8_);}
	.st9{fill:url(#SVGID_9_);}
	.st10{fill:url(#SVGID_10_);}
	.st11{fill:url(#SVGID_11_);}
	.st12{fill:url(#SVGID_12_);}
	.st13{fill:url(#SVGID_13_);}
	.st14{fill:url(#SVGID_14_);}
	.st15{fill:url(#SVGID_15_);}
	.st16{fill:url(#SVGID_16_);}
	.st17{fill:url(#SVGID_17_);}
	.st18{fill:url(#SVGID_18_);}
	.st19{fill:url(#SVGID_19_);}
	.st20{fill:url(#SVGID_20_);}
	.st21{fill:url(#SVGID_21_);}
	.st22{fill:url(#SVGID_22_);}
	.st23{fill:url(#SVGID_23_);}
	.st24{fill:url(#SVGID_24_);}
	.st25{fill:url(#SVGID_25_);}
	.st26{fill:url(#SVGID_26_);}
	.st27{fill:url(#SVGID_27_);}
	.st28{fill:url(#SVGID_28_);}
	.st29{fill:url(#SVGID_29_);}
	.st30{fill:url(#SVGID_30_);}
	.st31{fill:url(#SVGID_31_);}
	.st32{fill:url(#SVGID_32_);}
	.st33{fill:url(#SVGID_33_);}
	.st34{fill:url(#SVGID_34_);}
	.st35{opacity:0.25;fill:url(#SVGID_35_);enable-background:new    ;}
	.st36{opacity:0.25;fill:url(#SVGID_36_);enable-background:new    ;}
	.st37{opacity:0.25;fill:url(#SVGID_37_);enable-background:new    ;}
	.st38{opacity:0.25;fill:url(#SVGID_38_);enable-background:new    ;}
	.st39{opacity:0.25;fill:url(#SVGID_39_);enable-background:new    ;}
	.st40{opacity:0.25;fill:url(#SVGID_40_);enable-background:new    ;}
	.st41{opacity:0.25;fill:url(#SVGID_41_);enable-background:new    ;}
	.st42{opacity:0.25;fill:url(#SVGID_42_);enable-background:new    ;}
	.st43{opacity:0.25;fill:url(#SVGID_43_);enable-background:new    ;}
	.st44{opacity:0.25;fill:url(#SVGID_44_);enable-background:new    ;}
	.st45{opacity:0.25;fill:url(#SVGID_45_);enable-background:new    ;}
	.st46{opacity:0.25;fill:url(#SVGID_46_);enable-background:new    ;}
	.st47{opacity:0.25;fill:url(#SVGID_47_);enable-background:new    ;}
	.st48{opacity:0.25;fill:url(#SVGID_48_);enable-background:new    ;}
	.st49{opacity:0.25;fill:url(#SVGID_49_);enable-background:new    ;}
	.st50{opacity:0.25;fill:url(#SVGID_50_);enable-background:new    ;}
	.st51{opacity:0.25;fill:url(#SVGID_51_);enable-background:new    ;}
	.st52{opacity:0.25;fill:url(#SVGID_52_);enable-background:new    ;}
	.st53{fill:url(#SVGID_53_);}
	.st54{fill:url(#SVGID_54_);}
	.st55{fill:url(#SVGID_55_);}
	.st56{fill:url(#SVGID_56_);}
	.st57{fill:url(#SVGID_57_);}
	.st58{fill:url(#SVGID_58_);}
	.st59{fill:url(#SVGID_59_);}
	.st60{fill:url(#SVGID_60_);}
	.st61{fill:url(#SVGID_61_);}
	.st62{fill:url(#SVGID_62_);}
	.st63{fill:url(#SVGID_63_);}
	.st64{fill:url(#SVGID_64_);}
	.st65{fill:url(#SVGID_65_);}
	.st66{fill:url(#SVGID_66_);}
	.st67{fill:url(#SVGID_67_);}
	.st68{opacity:0.25;fill:url(#SVGID_68_);enable-background:new    ;}
	.st69{opacity:0.25;fill:url(#SVGID_69_);enable-background:new    ;}
	.st70{opacity:0.25;fill:url(#SVGID_70_);enable-background:new    ;}
	.st71{opacity:0.25;fill:url(#SVGID_71_);enable-background:new    ;}
	.st72{opacity:0.25;fill:url(#SVGID_72_);enable-background:new    ;}
	.st73{opacity:0.25;fill:url(#SVGID_73_);enable-background:new    ;}
	.st74{opacity:0.25;fill:url(#SVGID_74_);enable-background:new    ;}
	.st75{opacity:0.25;fill:url(#SVGID_75_);enable-background:new    ;}
	.st76{opacity:0.25;fill:url(#SVGID_76_);enable-background:new    ;}
	.st77{opacity:0.25;fill:url(#SVGID_77_);enable-background:new    ;}
	.st78{opacity:0.25;fill:url(#SVGID_78_);enable-background:new    ;}
	.st79{opacity:0.25;fill:url(#SVGID_79_);enable-background:new    ;}
	.st80{opacity:0.25;fill:url(#SVGID_80_);enable-background:new    ;}
</style>
<title>starbg</title>
<g class="st0">
	
		<linearGradient id="SVGID_1_" gradientUnits="userSpaceOnUse" x1="1329.4301" y1="73.0775" x2="1371.3979" y2="-912.5309" gradientTransform="matrix(0.7867 0.6173 0.4865 -0.62 302.5906 -417.939)">
		<stop  offset="0" style="stop-color:#F6AC07"/>
		<stop  offset="0.19" style="stop-color:#F8AF09;stop-opacity:0.79"/>
		<stop  offset="0.59" style="stop-color:#FCB50D;stop-opacity:0.37"/>
		<stop  offset="0.87" style="stop-color:#FEB90F;stop-opacity:0.1"/>
		<stop  offset="1" style="stop-color:#FFBA10;stop-opacity:0"/>
	</linearGradient>
	<path class="st1" d="M1236.6,581.1l-4.8,5.5c-0.1,0.2-0.3,0.4-0.1,0.8l2.2,7.3c0.1,0.5-0.2,0.9-0.7,1c-0.1,0-0.3,0-0.4-0.1
		l-7.1-3.2c-0.3-0.1-0.6-0.1-0.8,0l-6.3,3.7c-0.3,0.2-0.8,0.1-1.1-0.2c-0.1-0.2-0.2-0.4-0.2-0.6l0.4-7.4c0-0.3-0.1-0.5-0.4-0.7
		l-6.1-5c-0.4-0.4-0.4-1-0.1-1.3c0.1-0.1,0.2-0.1,0.4-0.1l7.4-1.4c0.3-0.1,0.5-0.2,0.6-0.5l2.6-6.9c0.2-0.6,1.1-0.7,1.5,0l4.2,6.6
		c0.2,0.3,0.4,0.4,0.7,0.4l7.7,0.8C1236.7,579.9,1237.1,580.7,1236.6,581.1z"/>
	
		<linearGradient id="SVGID_2_" gradientUnits="userSpaceOnUse" x1="1552.8264" y1="141.2609" x2="1597.4011" y2="-905.3395" gradientTransform="matrix(-1 0 0 1 2565.3462 849.7179)">
		<stop  offset="0" style="stop-color:#F6AC07"/>
		<stop  offset="0.19" style="stop-color:#F8AF09;stop-opacity:0.79"/>
		<stop  offset="0.59" style="stop-color:#FCB50D;stop-opacity:0.37"/>
		<stop  offset="0.87" style="stop-color:#FEB90F;stop-opacity:0.1"/>
		<stop  offset="1" style="stop-color:#FFBA10;stop-opacity:0"/>
	</linearGradient>
	<path class="st2" d="M985,599.1l7.5,1.4c0.3,0.1,0.5-0.1,0.7-0.3l5.2-6.5c0.2-0.4,0.7-0.5,1.1-0.2c0.2,0.2,0.4,0.5,0.3,0.7l1.2,8.8
		c0,0.3,0.2,0.5,0.5,0.7l6.8,3.8c0.5,0.3,0.6,1,0.3,1.5c-0.1,0.1-0.2,0.2-0.3,0.3l-6.8,4.1c-0.2,0.2-0.4,0.5-0.5,0.8l-1,8.8
		c-0.1,0.8-0.9,1.2-1.4,0.5l-5.4-6.3c-0.2-0.2-0.5-0.3-0.7-0.2l-7.5,1.6c-0.7,0.2-1.2-0.7-0.9-1.4l3.5-7.9c0.2-0.3,0.2-0.6,0-0.9
		l-3.6-7.8C983.7,599.8,984.2,598.9,985,599.1z"/>
	
		<linearGradient id="SVGID_3_" gradientUnits="userSpaceOnUse" x1="1597.355" y1="209.5956" x2="1655.3525" y2="-1152.4688" gradientTransform="matrix(-1 0 0 1 2565.3462 849.7179)">
		<stop  offset="0" style="stop-color:#F6AC07"/>
		<stop  offset="0.19" style="stop-color:#F8AF09;stop-opacity:0.79"/>
		<stop  offset="0.59" style="stop-color:#FCB50D;stop-opacity:0.37"/>
		<stop  offset="0.87" style="stop-color:#FEB90F;stop-opacity:0.1"/>
		<stop  offset="1" style="stop-color:#FFBA10;stop-opacity:0"/>
	</linearGradient>
	<path class="st3" d="M936.9,520.7l0.5-10c0-0.3-0.1-0.7-0.4-0.9l-6.8-6.1c-0.5-0.4-0.5-1.2,0-1.6c0.1-0.1,0.2-0.2,0.4-0.3l8.2-2.6
		c0.3-0.1,0.5-0.4,0.6-0.7l2.8-9.4c0.1-0.5,0.5-0.8,1-0.7c0.3,0.1,0.5,0.2,0.6,0.5l4.6,8.4c0.1,0.3,0.4,0.5,0.8,0.5l8.5,0.3
		c0.6,0.1,1,0.7,0.9,1.3c0,0.2-0.1,0.3-0.2,0.5l-5.4,7.8c-0.2,0.3-0.3,0.7-0.2,1l2.4,9.6c0.2,0.9-0.5,1.6-1.2,1.3l-7.9-3.6
		c-0.3-0.1-0.6-0.1-0.9,0.1l-7,5.6C937.7,522.2,936.9,521.6,936.9,520.7z"/>
	
		<linearGradient id="SVGID_4_" gradientUnits="userSpaceOnUse" x1="1376.4507" y1="196.9464" x2="1434.2977" y2="-1161.2855" gradientTransform="matrix(-1 0 0 1 2565.3462 849.7179)">
		<stop  offset="0" style="stop-color:#F6AC07"/>
		<stop  offset="0.19" style="stop-color:#F8AF09;stop-opacity:0.79"/>
		<stop  offset="0.59" style="stop-color:#FCB50D;stop-opacity:0.37"/>
		<stop  offset="0.87" style="stop-color:#FEB90F;stop-opacity:0.1"/>
		<stop  offset="1" style="stop-color:#FFBA10;stop-opacity:0"/>
	</linearGradient>
	<path class="st4" d="M1179.9,496.5l-6.4,6.8c-0.2,0.3-0.4,0.6-0.3,1l1.1,10c0.1,0.9-0.7,1.5-1.4,1.1l-7.5-5c-0.3-0.2-0.6-0.2-0.9,0
		l-7.8,4.4c-0.7,0.4-1.5-0.3-1.3-1.2l1.8-9.9c0.1-0.4,0-0.7-0.2-1l-5.9-7.4c-0.4-0.5-0.3-1.2,0.1-1.6c0.1-0.1,0.3-0.2,0.4-0.2l8.6-1
		c0.3-0.1,0.6-0.3,0.7-0.6l4.1-8.9c0.2-0.5,0.7-0.7,1.1-0.5c0.3,0.1,0.5,0.3,0.5,0.6l3.5,9.2c0.1,0.3,0.4,0.5,0.7,0.6l8.5,1.9
		c0.6,0.3,0.8,1,0.6,1.5C1180,496.3,1180,496.4,1179.9,496.5z"/>
	
		<linearGradient id="SVGID_5_" gradientUnits="userSpaceOnUse" x1="1501.7814" y1="204.9314" x2="1559.7789" y2="-1157.1328" gradientTransform="matrix(-1 0 0 1 2565.3462 849.7179)">
		<stop  offset="0" style="stop-color:#F6AC07"/>
		<stop  offset="0.19" style="stop-color:#F8AF09;stop-opacity:0.79"/>
		<stop  offset="0.59" style="stop-color:#FCB50D;stop-opacity:0.37"/>
		<stop  offset="0.87" style="stop-color:#FEB90F;stop-opacity:0.1"/>
		<stop  offset="1" style="stop-color:#FFBA10;stop-opacity:0"/>
	</linearGradient>
	<path class="st5" d="M1031.8,426l0.3-5.9c0-0.2-0.1-0.4-0.2-0.5l-4-3.6c-0.3-0.3-0.3-0.7,0-1c0.1-0.1,0.1-0.1,0.2-0.2l4.9-1.5
		c0.2-0.1,0.3-0.2,0.4-0.4l1.7-5.6c0-0.3,0.3-0.5,0.6-0.5c0.2,0,0.4,0.1,0.4,0.3l2.8,5c0.1,0.2,0.3,0.3,0.4,0.3l5.1,0.2
		c0.4,0.1,0.6,0.4,0.5,0.8c0,0.1,0,0.1-0.1,0.2l-3.2,4.6c-0.1,0.2-0.2,0.4-0.1,0.6l1.4,5.7c0.1,0.5-0.3,1-0.7,0.8l-4.7-2.1
		c-0.2-0.1-0.4-0.1-0.5,0.1l-4.2,3.4C1032.3,426.9,1031.7,426.6,1031.8,426z"/>
	
		<linearGradient id="SVGID_6_" gradientUnits="userSpaceOnUse" x1="1698.5416" y1="213.6483" x2="1756.449" y2="-1146.1086" gradientTransform="matrix(-1 0 0 1 2565.3462 849.7179)">
		<stop  offset="0" style="stop-color:#F6AC07"/>
		<stop  offset="0.19" style="stop-color:#F8AF09;stop-opacity:0.79"/>
		<stop  offset="0.59" style="stop-color:#FCB50D;stop-opacity:0.37"/>
		<stop  offset="0.87" style="stop-color:#FEB90F;stop-opacity:0.1"/>
		<stop  offset="1" style="stop-color:#FFBA10;stop-opacity:0"/>
	</linearGradient>
	<path class="st6" d="M844,468.6l-5-5c-0.2-0.2-0.4-0.2-0.7-0.2l-6.4,2c-0.6,0.2-1.1-0.5-0.8-1.1l2.5-7.2c0.1-0.3,0.1-0.5-0.1-0.8
		l-3.6-6.5c-0.3-0.6,0.1-1.3,0.7-1.3l6.6,0.6c0.2,0,0.5-0.1,0.6-0.3l4.2-6c0.2-0.3,0.6-0.4,0.9-0.2c0.2,0.1,0.3,0.3,0.3,0.5l1.5,7.5
		c0,0.3,0.2,0.5,0.4,0.6l6.2,2.8c0.4,0.2,0.6,0.8,0.3,1.2c-0.1,0.1-0.1,0.2-0.2,0.3l-5.6,4c-0.2,0.2-0.3,0.4-0.3,0.7l-0.4,7.7
		C845.1,468.7,844.4,469.1,844,468.6z"/>
	
		<linearGradient id="SVGID_7_" gradientUnits="userSpaceOnUse" x1="1796.1648" y1="305.0232" x2="1854.1121" y2="-1055.5865" gradientTransform="matrix(-1 0 0 1 2565.3462 849.7179)">
		<stop  offset="0" style="stop-color:#F6AC07"/>
		<stop  offset="0.19" style="stop-color:#F8AF09;stop-opacity:0.79"/>
		<stop  offset="0.59" style="stop-color:#FCB50D;stop-opacity:0.37"/>
		<stop  offset="0.87" style="stop-color:#FEB90F;stop-opacity:0.1"/>
		<stop  offset="1" style="stop-color:#FFBA10;stop-opacity:0"/>
	</linearGradient>
	<path class="st7" d="M741.9,607.8l-0.8-7.7c0-0.3-0.2-0.5-0.4-0.6l-5.9-3.6c-0.4-0.3-0.5-0.9-0.2-1.3c0.1-0.1,0.1-0.2,0.2-0.2
		l6-3.3c0.2-0.1,0.4-0.4,0.4-0.6l1.1-7.7c0-0.4,0.3-0.7,0.7-0.7c0.2,0,0.4,0.1,0.5,0.3l4.5,5.6c0.1,0.2,0.4,0.3,0.6,0.3l6.5-1.2
		c0.6-0.1,1,0.6,0.7,1.2l-3.2,6.8c-0.1,0.3-0.1,0.5,0,0.8l3,6.9c0.3,0.6-0.2,1.3-0.8,1.2l-6.5-1.4c-0.2-0.1-0.5,0-0.6,0.2l-4.5,5.5
		C742.7,608.8,741.9,608.5,741.9,607.8z"/>
	
		<linearGradient id="SVGID_8_" gradientUnits="userSpaceOnUse" x1="1472.1006" y1="203.4415" x2="1530.1183" y2="-1159.0642" gradientTransform="matrix(-1 0 0 1 2565.3462 849.7179)">
		<stop  offset="0" style="stop-color:#F6AC07"/>
		<stop  offset="0.19" style="stop-color:#F8AF09;stop-opacity:0.79"/>
		<stop  offset="0.59" style="stop-color:#FCB50D;stop-opacity:0.37"/>
		<stop  offset="0.87" style="stop-color:#FEB90F;stop-opacity:0.1"/>
		<stop  offset="1" style="stop-color:#FFBA10;stop-opacity:0"/>
	</linearGradient>
	<path class="st8" d="M1070.2,524.4l-3.3-6.7c-0.1-0.2-0.3-0.4-0.6-0.4l-6.6-0.6c-0.5-0.1-0.8-0.6-0.6-1.1c0-0.1,0.1-0.2,0.2-0.3
		l4.4-5.8c0.2-0.2,0.2-0.5,0.2-0.8l-1.5-7.5c-0.1-0.7,0.4-1.2,1-1l6,3.2c0.2,0.1,0.5,0.1,0.7-0.1l5.6-4c0.5-0.4,1.1,0.1,1.1,0.8
		l-0.7,7.7c0,0.3,0.1,0.5,0.3,0.7l5,5c0.3,0.4,0.3,0.9,0,1.3c-0.1,0.1-0.2,0.1-0.3,0.2l-6.5,1.6c-0.2,0.1-0.4,0.3-0.5,0.5l-2.5,7.2
		c-0.1,0.4-0.4,0.6-0.8,0.5C1070.5,524.8,1070.3,524.6,1070.2,524.4z"/>
	
		<linearGradient id="SVGID_9_" gradientUnits="userSpaceOnUse" x1="1766.5157" y1="218.226" x2="1824.5233" y2="-1143.838" gradientTransform="matrix(-1 0 0 1 2565.3462 849.7179)">
		<stop  offset="0" style="stop-color:#F6AC07"/>
		<stop  offset="0.19" style="stop-color:#F8AF09;stop-opacity:0.79"/>
		<stop  offset="0.59" style="stop-color:#FCB50D;stop-opacity:0.37"/>
		<stop  offset="0.87" style="stop-color:#FEB90F;stop-opacity:0.1"/>
		<stop  offset="1" style="stop-color:#FFBA10;stop-opacity:0"/>
	</linearGradient>
	<path class="st9" d="M765,390.9l0.3-5.9c0-0.2-0.1-0.4-0.2-0.5l-4-3.6c-0.3-0.3-0.3-0.7,0-1c0.1-0.1,0.1-0.1,0.2-0.2l4.9-1.5
		c0.2-0.1,0.3-0.2,0.4-0.4l1.7-5.6c0-0.3,0.3-0.5,0.6-0.5c0.2,0,0.4,0.1,0.4,0.3l2.8,5c0.1,0.2,0.3,0.3,0.4,0.3l5.1,0.2
		c0.4,0.1,0.6,0.4,0.5,0.8c0,0.1-0.1,0.2-0.1,0.3l-3.2,4.6c-0.1,0.2-0.2,0.4-0.1,0.6l1.4,5.7c0.1,0.5-0.3,1-0.7,0.8l-4.7-2.1
		c-0.2-0.1-0.4-0.1-0.5,0.1l-4.2,3.4C765.5,391.8,765,391.5,765,390.9z"/>
	
		<linearGradient id="SVGID_10_" gradientUnits="userSpaceOnUse" x1="1225.8158" y1="218.2268" x2="1283.8232" y2="-1143.8373" gradientTransform="matrix(-1 0 0 1 2565.3462 849.7179)">
		<stop  offset="0" style="stop-color:#F6AC07"/>
		<stop  offset="0.19" style="stop-color:#F8AF09;stop-opacity:0.79"/>
		<stop  offset="0.59" style="stop-color:#FCB50D;stop-opacity:0.37"/>
		<stop  offset="0.87" style="stop-color:#FEB90F;stop-opacity:0.1"/>
		<stop  offset="1" style="stop-color:#FFBA10;stop-opacity:0"/>
	</linearGradient>
	<path class="st10" d="M1305.7,390.9l0.3-5.9c0-0.2-0.1-0.4-0.2-0.5l-4-3.6c-0.3-0.3-0.3-0.7,0-1c0.1-0.1,0.1-0.1,0.2-0.2l4.9-1.5
		c0.2-0.1,0.3-0.2,0.4-0.4l1.7-5.6c0-0.3,0.3-0.5,0.6-0.5c0.2,0,0.4,0.1,0.4,0.3l2.8,5c0.1,0.2,0.3,0.3,0.4,0.3l5.1,0.2
		c0.4,0.1,0.6,0.4,0.5,0.8c0,0.1-0.1,0.2-0.1,0.3l-3.2,4.6c-0.1,0.2-0.2,0.4-0.1,0.6l1.4,5.7c0.1,0.5-0.3,1-0.7,0.8l-4.7-2.1
		c-0.2-0.1-0.4-0.1-0.5,0.1l-4.2,3.4C1306.2,391.8,1305.7,391.5,1305.7,390.9z"/>
	
		<linearGradient id="SVGID_11_" gradientUnits="userSpaceOnUse" x1="1813.7162" y1="-80.3848" x2="1871.7239" y2="-1442.4489" gradientTransform="matrix(-1 0 0 1 2565.3462 849.7179)">
		<stop  offset="0" style="stop-color:#F6AC07"/>
		<stop  offset="0.19" style="stop-color:#F8AF09;stop-opacity:0.79"/>
		<stop  offset="0.59" style="stop-color:#FCB50D;stop-opacity:0.37"/>
		<stop  offset="0.87" style="stop-color:#FEB90F;stop-opacity:0.1"/>
		<stop  offset="1" style="stop-color:#FFBA10;stop-opacity:0"/>
	</linearGradient>
	<path class="st11" d="M717.8,92.3l0.3-5.9c0-0.2-0.1-0.4-0.2-0.5l-4-3.6c-0.3-0.3-0.3-0.7,0-1c0.1-0.1,0.1-0.1,0.2-0.2l4.9-1.5
		c0.2-0.1,0.3-0.2,0.4-0.4l1.7-5.6c0-0.3,0.3-0.5,0.6-0.5c0.2,0,0.4,0.1,0.4,0.3l2.8,5c0.1,0.2,0.3,0.3,0.4,0.3l5.1,0.2
		c0.4,0.1,0.6,0.4,0.5,0.8c0,0.1-0.1,0.2-0.1,0.3l-3.2,4.6c-0.1,0.2-0.2,0.4-0.1,0.6l1.4,5.7c0.1,0.5-0.3,1-0.7,0.8l-4.7-2.1
		c-0.2-0.1-0.4-0.1-0.5,0.1l-4.2,3.4C718.3,93.2,717.8,92.9,717.8,92.3z"/>
	
		<linearGradient id="SVGID_12_" gradientUnits="userSpaceOnUse" x1="1398.8115" y1="198.4561" x2="1456.6987" y2="-1160.7688" gradientTransform="matrix(-1 0 0 1 2565.3462 849.7179)">
		<stop  offset="0" style="stop-color:#F6AC07"/>
		<stop  offset="0.19" style="stop-color:#F8AF09;stop-opacity:0.79"/>
		<stop  offset="0.59" style="stop-color:#FCB50D;stop-opacity:0.37"/>
		<stop  offset="0.87" style="stop-color:#FEB90F;stop-opacity:0.1"/>
		<stop  offset="1" style="stop-color:#FFBA10;stop-opacity:0"/>
	</linearGradient>
	<path class="st12" d="M1147.5,415.8l-5.1-0.1c-0.2,0-0.4,0.1-0.5,0.3l-2.9,4.9c-0.1,0.3-0.4,0.4-0.7,0.3c-0.2-0.1-0.3-0.3-0.3-0.5
		l-1.5-5.7c0-0.2-0.2-0.3-0.4-0.4l-4.8-1.8c-0.3-0.2-0.5-0.6-0.3-0.9c0-0.1,0.1-0.2,0.2-0.2l4.2-3.4c0.2-0.1,0.2-0.3,0.2-0.5v-6
		c0-0.5,0.5-0.9,0.9-0.5l4,3.6c0.1,0.1,0.3,0.2,0.5,0.1l4.8-1.9c0.4-0.2,0.8,0.3,0.7,0.8l-1.6,5.6c-0.1,0.2,0,0.4,0.1,0.6l3,4.8
		c0.2,0.3,0.1,0.7-0.1,0.9C1147.7,415.8,1147.6,415.8,1147.5,415.8z"/>
	
		<linearGradient id="SVGID_13_" gradientUnits="userSpaceOnUse" x1="1817.4349" y1="220.362" x2="1875.4125" y2="-1141.1405" gradientTransform="matrix(-1 0 0 1 2565.3462 849.7179)">
		<stop  offset="0" style="stop-color:#F6AC07"/>
		<stop  offset="0.19" style="stop-color:#F8AF09;stop-opacity:0.79"/>
		<stop  offset="0.59" style="stop-color:#FCB50D;stop-opacity:0.37"/>
		<stop  offset="0.87" style="stop-color:#FEB90F;stop-opacity:0.1"/>
		<stop  offset="1" style="stop-color:#FFBA10;stop-opacity:0"/>
	</linearGradient>
	<path class="st13" d="M723.3,478.3l-4.4-6.8c-0.1-0.2-0.4-0.4-0.7-0.4l-7.3,0.3c-0.7,0-1-0.8-0.7-1.5l4.2-7
		c0.2-0.3,0.2-0.6,0.1-0.8l-2.5-8c-0.2-0.7,0.4-1.4,1-1.2l6.9,2.5c0.2,0.1,0.5,0,0.7-0.2l5.7-5.3c0.5-0.5,1.3,0,1.3,0.7l0.1,8.5
		c0,0.3,0.1,0.6,0.4,0.8l6,4.7c0.4,0.4,0.5,1,0.1,1.4c-0.1,0.1-0.2,0.2-0.3,0.2L727,469c-0.3,0.1-0.4,0.3-0.5,0.6l-2,8.2
		c-0.1,0.4-0.5,0.7-0.9,0.6C723.6,478.5,723.4,478.4,723.3,478.3z"/>
	
		<linearGradient id="SVGID_14_" gradientUnits="userSpaceOnUse" x1="1314.0208" y1="195.2166" x2="1371.9983" y2="-1166.296" gradientTransform="matrix(-1 0 0 1 2565.3462 849.7179)">
		<stop  offset="0" style="stop-color:#F6AC07"/>
		<stop  offset="0.19" style="stop-color:#F8AF09;stop-opacity:0.79"/>
		<stop  offset="0.59" style="stop-color:#FCB50D;stop-opacity:0.37"/>
		<stop  offset="0.87" style="stop-color:#FEB90F;stop-opacity:0.1"/>
		<stop  offset="1" style="stop-color:#FFBA10;stop-opacity:0"/>
	</linearGradient>
	<path class="st14" d="M1226.8,456.3l-4.4-6.8c-0.1-0.2-0.4-0.4-0.7-0.4l-7.3,0.3c-0.5-0.1-0.9-0.5-0.8-1c0-0.2,0.1-0.3,0.2-0.4
		l4.2-7c0.1-0.3,0.2-0.6,0.1-0.9l-2.5-8c-0.2-0.7,0.3-1.4,1-1.2l6.9,2.5c0.3,0.1,0.5,0,0.7-0.2l5.7-5.3c0.5-0.5,1.3-0.1,1.3,0.7
		l0.1,8.5c0,0.3,0.1,0.6,0.4,0.8l6,4.7c0.4,0.4,0.5,1,0.1,1.4c-0.1,0.1-0.2,0.2-0.3,0.2l-6.9,2.7c-0.3,0.1-0.4,0.3-0.5,0.6l-2,8.2
		c0,0.4-0.4,0.7-0.8,0.7C1227.1,456.6,1226.9,456.5,1226.8,456.3z"/>
	
		<linearGradient id="SVGID_15_" gradientUnits="userSpaceOnUse" x1="1233.2498" y1="408.4726" x2="1291.2273" y2="-953.04" gradientTransform="matrix(-1 0 0 1 2565.3462 849.7179)">
		<stop  offset="0" style="stop-color:#F6AC07"/>
		<stop  offset="0.19" style="stop-color:#F8AF09;stop-opacity:0.79"/>
		<stop  offset="0.59" style="stop-color:#FCB50D;stop-opacity:0.37"/>
		<stop  offset="0.87" style="stop-color:#FEB90F;stop-opacity:0.1"/>
		<stop  offset="1" style="stop-color:#FFBA10;stop-opacity:0"/>
	</linearGradient>
	<path class="st15" d="M1307.6,669.6l-4.4-6.8c-0.1-0.2-0.4-0.4-0.7-0.4l-7.3,0.3c-0.5-0.1-0.9-0.5-0.8-1c0-0.2,0.1-0.3,0.2-0.4
		l4.2-7c0.1-0.3,0.2-0.6,0.1-0.9l-2.5-8c-0.2-0.7,0.3-1.4,1-1.2l6.9,2.5c0.3,0.1,0.5,0,0.7-0.2l5.7-5.3c0.5-0.5,1.3-0.1,1.3,0.7
		l0.1,8.5c0,0.3,0.1,0.6,0.4,0.8l6,4.7c0.4,0.4,0.5,1,0.1,1.4c-0.1,0.1-0.2,0.2-0.3,0.2l-6.9,2.7c-0.3,0.1-0.4,0.3-0.5,0.6l-2,8.2
		c0,0.4-0.4,0.7-0.8,0.7C1307.9,669.9,1307.7,669.8,1307.6,669.6z"/>
	
		<linearGradient id="SVGID_16_" gradientUnits="userSpaceOnUse" x1="1600.3663" y1="209.7327" x2="1658.3539" y2="-1152.0206" gradientTransform="matrix(-1 0 0 1 2565.3462 849.7179)">
		<stop  offset="0" style="stop-color:#F6AC07"/>
		<stop  offset="0.19" style="stop-color:#F8AF09;stop-opacity:0.79"/>
		<stop  offset="0.59" style="stop-color:#FCB50D;stop-opacity:0.37"/>
		<stop  offset="0.87" style="stop-color:#FEB90F;stop-opacity:0.1"/>
		<stop  offset="1" style="stop-color:#FFBA10;stop-opacity:0"/>
	</linearGradient>
	<path class="st16" d="M927.5,377.8l3-4.8c0.1-0.2,0.1-0.4,0.1-0.6l-1.6-5.6c-0.2-0.5,0.3-1,0.7-0.8l4.8,1.9c0.2,0.1,0.4,0,0.5-0.1
		l4.1-3.6c0.4-0.3,0.9,0,0.9,0.5l-0.1,5.9c0,0.2,0.1,0.4,0.2,0.5l4.2,3.4c0.3,0.3,0.3,0.7,0,1c-0.1,0.1-0.1,0.1-0.2,0.2l-4.9,1.8
		c-0.2,0.1-0.3,0.2-0.4,0.4l-1.5,5.7c0,0.3-0.3,0.5-0.5,0.5s-0.4-0.1-0.5-0.3l-2.9-4.9c-0.1-0.2-0.3-0.3-0.5-0.3l-5.1,0.1
		c-0.4-0.1-0.6-0.4-0.5-0.8C927.4,378,927.4,377.9,927.5,377.8z"/>
</g>
<g class="st0">
	
		<linearGradient id="SVGID_17_" gradientUnits="userSpaceOnUse" x1="2167.8862" y1="110.23" x2="2207.5649" y2="-821.4144" gradientTransform="matrix(-1 0 0 1 2565.3462 849.7179)">
		<stop  offset="0" style="stop-color:#F6AC07"/>
		<stop  offset="0.19" style="stop-color:#F8AF09;stop-opacity:0.79"/>
		<stop  offset="0.59" style="stop-color:#FCB50D;stop-opacity:0.37"/>
		<stop  offset="0.87" style="stop-color:#FEB90F;stop-opacity:0.1"/>
		<stop  offset="1" style="stop-color:#FFBA10;stop-opacity:0"/>
	</linearGradient>
	<path class="st17" d="M371.7,583l6.6,1.2c0.3,0.1,0.5-0.1,0.6-0.3l4.7-5.8c0.2-0.3,0.6-0.4,1-0.2c0.2,0.1,0.3,0.4,0.3,0.6l1.1,7.8
		c0,0.3,0.2,0.5,0.4,0.6l6.1,3.4c0.4,0.3,0.5,0.9,0.3,1.3c-0.1,0.1-0.1,0.2-0.3,0.3l-6,3.6c-0.2,0.1-0.4,0.4-0.4,0.7l-0.9,7.9
		c-0.1,0.7-0.8,1-1.2,0.5l-4.8-5.6c-0.1-0.2-0.4-0.3-0.6-0.2l-6.6,1.4c-0.6,0.1-1-0.6-0.8-1.2l3.1-7.1c0.1-0.3,0.1-0.5,0-0.8l-3.2-7
		C370.6,583.6,371.1,582.9,371.7,583z"/>
	
		<linearGradient id="SVGID_18_" gradientUnits="userSpaceOnUse" x1="2105.4832" y1="-196.6039" x2="2163.4207" y2="-1556.9529" gradientTransform="matrix(-0.7452 0.6669 0.5174 0.5781 2000.9723 -388.9193)">
		<stop  offset="0" style="stop-color:#F6AC07"/>
		<stop  offset="0.19" style="stop-color:#F8AF09;stop-opacity:0.79"/>
		<stop  offset="0.59" style="stop-color:#FCB50D;stop-opacity:0.37"/>
		<stop  offset="0.87" style="stop-color:#FEB90F;stop-opacity:0.1"/>
		<stop  offset="1" style="stop-color:#FFBA10;stop-opacity:0"/>
	</linearGradient>
	<path class="st18" d="M17.4,608.5l8.2-5.4c0.3-0.2,0.5-0.5,0.5-0.8l0.7-9.4c0-0.5,0.4-0.9,0.9-1.1c0.3-0.1,0.7,0,0.8,0.3l7.1,5.5
		c0.2,0.2,0.6,0.2,0.9,0.1l9.2-3c0.7-0.2,1.3,0.2,1.3,0.8c0,0.1,0,0.3-0.1,0.5l-3.8,8.9c-0.1,0.3-0.1,0.7,0.1,1l5,7.5
		c0.4,0.6-0.1,1.7-1,1.6l-9.5-0.1c-0.3,0-0.7,0.2-0.8,0.4l-6.1,7.7c-0.6,0.7-1.6,0.5-1.8-0.3l-2-9c-0.1-0.4-0.3-0.6-0.6-0.7
		l-8.8-2.8C16.7,610.1,16.6,609,17.4,608.5z"/>
	
		<linearGradient id="SVGID_19_" gradientUnits="userSpaceOnUse" x1="2197.7085" y1="239.6454" x2="2255.7158" y2="-1122.4188" gradientTransform="matrix(-1 0 0 1 2565.3462 849.7179)">
		<stop  offset="0" style="stop-color:#F6AC07"/>
		<stop  offset="0.19" style="stop-color:#F8AF09;stop-opacity:0.79"/>
		<stop  offset="0.59" style="stop-color:#FCB50D;stop-opacity:0.37"/>
		<stop  offset="0.87" style="stop-color:#FEB90F;stop-opacity:0.1"/>
		<stop  offset="1" style="stop-color:#FFBA10;stop-opacity:0"/>
	</linearGradient>
	<path class="st19" d="M334.9,509.7l0.4-10c0-0.3-0.1-0.7-0.4-0.9l-6.7-6.1c-0.5-0.4-0.5-1.2-0.1-1.6c0.1-0.1,0.2-0.2,0.4-0.3
		l8.2-2.6c0.3-0.1,0.5-0.4,0.6-0.7l2.8-9.4c0.1-0.5,0.5-0.8,1-0.7c0.3,0,0.5,0.2,0.6,0.5l4.6,8.4c0.1,0.3,0.4,0.5,0.7,0.5l8.5,0.3
		c0.6,0.1,1,0.7,0.9,1.3c0,0.2-0.1,0.3-0.2,0.5l-5.4,7.8c-0.2,0.3-0.3,0.7-0.2,1l2.4,9.6c0.2,0.9-0.5,1.6-1.2,1.3l-7.9-3.6
		c-0.3-0.1-0.6-0.1-0.9,0.1l-7,5.6C335.7,511.2,334.8,510.6,334.9,509.7z"/>
	
		<linearGradient id="SVGID_20_" gradientUnits="userSpaceOnUse" x1="1976.682" y1="226.8802" x2="2034.5293" y2="-1131.3621" gradientTransform="matrix(-1 0 0 1 2565.3462 849.7179)">
		<stop  offset="0" style="stop-color:#F6AC07"/>
		<stop  offset="0.19" style="stop-color:#F8AF09;stop-opacity:0.79"/>
		<stop  offset="0.59" style="stop-color:#FCB50D;stop-opacity:0.37"/>
		<stop  offset="0.87" style="stop-color:#FEB90F;stop-opacity:0.1"/>
		<stop  offset="1" style="stop-color:#FFBA10;stop-opacity:0"/>
	</linearGradient>
	<path class="st20" d="M577.9,485.5l-6.4,6.8c-0.2,0.3-0.4,0.6-0.3,1l1.1,10c0.1,0.9-0.7,1.5-1.4,1.1l-7.5-5c-0.3-0.2-0.6-0.2-0.9,0
		l-7.8,4.4c-0.7,0.4-1.5-0.3-1.3-1.2l1.8-9.9c0.1-0.4,0-0.7-0.2-1l-5.9-7.4c-0.4-0.5-0.3-1.2,0.1-1.6c0.1-0.1,0.3-0.2,0.4-0.2
		l8.6-1.1c0.3,0,0.6-0.3,0.7-0.6l4.1-8.9c0.2-0.5,0.7-0.7,1.1-0.5c0.3,0.1,0.5,0.3,0.5,0.6l3.5,9.2c0.1,0.3,0.4,0.5,0.7,0.6l8.5,1.9
		c0.6,0.2,0.9,0.9,0.6,1.5C578,485.3,577.9,485.4,577.9,485.5z"/>
	
		<linearGradient id="SVGID_21_" gradientUnits="userSpaceOnUse" x1="2103.6936" y1="235.0089" x2="2161.7012" y2="-1127.0554" gradientTransform="matrix(-1 0 0 1 2565.3462 849.7179)">
		<stop  offset="0" style="stop-color:#F6AC07"/>
		<stop  offset="0.19" style="stop-color:#F8AF09;stop-opacity:0.79"/>
		<stop  offset="0.59" style="stop-color:#FCB50D;stop-opacity:0.37"/>
		<stop  offset="0.87" style="stop-color:#FEB90F;stop-opacity:0.1"/>
		<stop  offset="1" style="stop-color:#FFBA10;stop-opacity:0"/>
	</linearGradient>
	<path class="st21" d="M429.7,453l0.3-6c0-0.2-0.1-0.4-0.2-0.5l-4-3.6c-0.3-0.3-0.3-0.7,0-1c0.1-0.1,0.1-0.1,0.2-0.2l4.9-1.5
		c0.2-0.1,0.3-0.2,0.4-0.4l1.7-5.6c0-0.3,0.2-0.5,0.5-0.5c0.2,0,0.4,0.2,0.5,0.4l2.8,5c0.1,0.2,0.3,0.3,0.5,0.3l5.1,0.2
		c0.4,0.1,0.6,0.4,0.5,0.8c0,0.1-0.1,0.2-0.1,0.2l-3.2,4.6c-0.1,0.2-0.1,0.4-0.1,0.6l1.4,5.7c0.1,0.5-0.3,1-0.7,0.8l-4.7-2.1
		c-0.2-0.1-0.4-0.1-0.5,0.1l-4.2,3.4C430.2,453.9,429.7,453.5,429.7,453z"/>
	
		<linearGradient id="SVGID_22_" gradientUnits="userSpaceOnUse" x1="2298.8318" y1="243.6247" x2="2356.739" y2="-1116.1321" gradientTransform="matrix(-1 0 0 1 2565.3462 849.7179)">
		<stop  offset="0" style="stop-color:#F6AC07"/>
		<stop  offset="0.19" style="stop-color:#F8AF09;stop-opacity:0.79"/>
		<stop  offset="0.59" style="stop-color:#FCB50D;stop-opacity:0.37"/>
		<stop  offset="0.87" style="stop-color:#FEB90F;stop-opacity:0.1"/>
		<stop  offset="1" style="stop-color:#FFBA10;stop-opacity:0"/>
	</linearGradient>
	<path class="st22" d="M241.9,457.6l-5-5c-0.2-0.2-0.4-0.2-0.6-0.2l-6.4,2c-0.6,0.2-1.1-0.5-0.8-1.1l2.5-7.2
		c0.1-0.3,0.1-0.5-0.1-0.8l-3.6-6.5c-0.3-0.4-0.2-0.9,0.2-1.2c0.1-0.1,0.3-0.1,0.4-0.1l6.6,0.6c0.2,0,0.5-0.1,0.6-0.3l4.2-6
		c0.2-0.3,0.7-0.4,1-0.2c0.2,0.1,0.3,0.3,0.3,0.5l1.5,7.5c0,0.3,0.2,0.5,0.4,0.6l6.2,2.8c0.4,0.3,0.6,0.8,0.3,1.2
		c-0.1,0.1-0.1,0.2-0.2,0.3l-5.6,4c-0.2,0.2-0.3,0.4-0.4,0.7l-0.4,7.7C243.1,457.8,242.4,458.1,241.9,457.6z"/>
	
		<linearGradient id="SVGID_23_" gradientUnits="userSpaceOnUse" x1="2329.7498" y1="275.5532" x2="2387.687" y2="-1085.0465" gradientTransform="matrix(-1 0 0 1 2565.3462 849.7179)">
		<stop  offset="0" style="stop-color:#F6AC07"/>
		<stop  offset="0.19" style="stop-color:#F8AF09;stop-opacity:0.79"/>
		<stop  offset="0.59" style="stop-color:#FCB50D;stop-opacity:0.37"/>
		<stop  offset="0.87" style="stop-color:#FEB90F;stop-opacity:0.1"/>
		<stop  offset="1" style="stop-color:#FFBA10;stop-opacity:0"/>
	</linearGradient>
	<path class="st23" d="M206.6,537.3l-0.8-7.7c0-0.3-0.2-0.5-0.4-0.6l-5.9-3.6c-0.4-0.3-0.5-0.9-0.2-1.3c0.1-0.1,0.1-0.2,0.2-0.2
		l6-3.3c0.2-0.1,0.4-0.4,0.4-0.6l1.1-7.7c0-0.4,0.3-0.7,0.7-0.7c0.2,0,0.4,0.1,0.5,0.2l4.5,5.6c0.1,0.2,0.4,0.3,0.6,0.3l6.5-1.2
		c0.6-0.1,1,0.6,0.7,1.2l-3.2,6.8c-0.1,0.3-0.1,0.5,0,0.8l3,6.9c0.3,0.6-0.2,1.3-0.8,1.2L213,532c-0.2-0.1-0.5,0-0.6,0.2l-4.7,5.5
		C207.4,538.3,206.7,538,206.6,537.3z"/>
	
		<linearGradient id="SVGID_24_" gradientUnits="userSpaceOnUse" x1="2072.3523" y1="233.4966" x2="2130.3699" y2="-1128.9993" gradientTransform="matrix(-1 0 0 1 2565.3462 849.7179)">
		<stop  offset="0" style="stop-color:#F6AC07"/>
		<stop  offset="0.19" style="stop-color:#F8AF09;stop-opacity:0.79"/>
		<stop  offset="0.59" style="stop-color:#FCB50D;stop-opacity:0.37"/>
		<stop  offset="0.87" style="stop-color:#FEB90F;stop-opacity:0.1"/>
		<stop  offset="1" style="stop-color:#FFBA10;stop-opacity:0"/>
	</linearGradient>
	<path class="st24" d="M468.2,513.4l-3.3-6.7c-0.1-0.2-0.3-0.4-0.6-0.4l-6.6-0.6c-0.5-0.1-0.8-0.6-0.6-1.1c0-0.1,0.1-0.2,0.2-0.3
		l4.4-5.8c0.2-0.2,0.2-0.5,0.2-0.8l-1.5-7.5c-0.1-0.7,0.4-1.2,1-1l6,3.1c0.2,0.1,0.5,0.1,0.7,0l5.6-4c0.5-0.4,1.2,0.1,1.1,0.8
		l-0.7,7.7c0,0.3,0.1,0.5,0.3,0.7l5,5c0.3,0.4,0.3,0.9,0,1.3c-0.1,0.1-0.2,0.1-0.3,0.2l-6.5,1.6c-0.2,0.1-0.4,0.3-0.5,0.5l-2.5,7.2
		c-0.1,0.4-0.5,0.6-0.8,0.5C468.4,513.8,468.2,513.6,468.2,513.4z"/>
	
		<linearGradient id="SVGID_25_" gradientUnits="userSpaceOnUse" x1="2354.0413" y1="247.6079" x2="2412.0388" y2="-1114.4565" gradientTransform="matrix(-1 0 0 1 2565.3462 849.7179)">
		<stop  offset="0" style="stop-color:#F6AC07"/>
		<stop  offset="0.19" style="stop-color:#F8AF09;stop-opacity:0.79"/>
		<stop  offset="0.59" style="stop-color:#FCB50D;stop-opacity:0.37"/>
		<stop  offset="0.87" style="stop-color:#FEB90F;stop-opacity:0.1"/>
		<stop  offset="1" style="stop-color:#FFBA10;stop-opacity:0"/>
	</linearGradient>
	<path class="st25" d="M176.6,400.9l0.3-5.9c0-0.2-0.1-0.4-0.2-0.6l-4-3.6c-0.3-0.3-0.3-0.7,0-1c0.1-0.1,0.1-0.1,0.2-0.2l4.9-1.5
		c0.2-0.1,0.3-0.2,0.4-0.4l1.7-5.6c0-0.3,0.3-0.5,0.6-0.5c0.2,0,0.4,0.1,0.4,0.3l2.8,5c0.1,0.2,0.3,0.3,0.5,0.3l5.1,0.2
		c0.4,0.1,0.6,0.4,0.5,0.8c0,0.1,0,0.1-0.1,0.2l-3.2,4.6c-0.1,0.2-0.1,0.4-0.1,0.6l1.4,5.7c0.1,0.5-0.3,1-0.7,0.8l-4.7-2.1
		c-0.2-0.1-0.4,0-0.5,0.1l-4.2,3.4C177.1,401.8,176.6,401.5,176.6,400.9z"/>
	
		<linearGradient id="SVGID_26_" gradientUnits="userSpaceOnUse" x1="2476.9412" y1="247.6092" x2="2534.9387" y2="-1114.4552" gradientTransform="matrix(-1 0 0 1 2565.3462 849.7179)">
		<stop  offset="0" style="stop-color:#F6AC07"/>
		<stop  offset="0.19" style="stop-color:#F8AF09;stop-opacity:0.79"/>
		<stop  offset="0.59" style="stop-color:#FCB50D;stop-opacity:0.37"/>
		<stop  offset="0.87" style="stop-color:#FEB90F;stop-opacity:0.1"/>
		<stop  offset="1" style="stop-color:#FFBA10;stop-opacity:0"/>
	</linearGradient>
	<path class="st26" d="M53.7,400.9L54,395c0-0.2-0.1-0.4-0.2-0.6l-4-3.6c-0.3-0.3-0.3-0.7,0-1c0.1-0.1,0.1-0.1,0.2-0.2l4.9-1.5
		c0.2-0.1,0.3-0.2,0.4-0.4l1.7-5.6c0-0.3,0.3-0.5,0.6-0.5c0.2,0,0.4,0.1,0.4,0.3l2.8,5c0.1,0.2,0.3,0.3,0.5,0.3l5.1,0.2
		c0.4,0.1,0.6,0.4,0.5,0.8c0,0.1,0,0.1-0.1,0.2l-3.2,4.6c-0.1,0.2-0.1,0.4-0.1,0.6l1.4,5.7c0.1,0.5-0.3,1-0.7,0.8l-4.7-2.1
		c-0.2-0.1-0.4,0-0.5,0.1l-4.2,3.4C54.2,401.8,53.7,401.5,53.7,400.9z"/>
	
		<linearGradient id="SVGID_27_" gradientUnits="userSpaceOnUse" x1="2354.0408" y1="-44.382" x2="2412.0383" y2="-1406.4465" gradientTransform="matrix(-1 0 0 1 2565.3462 849.7179)">
		<stop  offset="0" style="stop-color:#F6AC07"/>
		<stop  offset="0.19" style="stop-color:#F8AF09;stop-opacity:0.79"/>
		<stop  offset="0.59" style="stop-color:#FCB50D;stop-opacity:0.37"/>
		<stop  offset="0.87" style="stop-color:#FEB90F;stop-opacity:0.1"/>
		<stop  offset="1" style="stop-color:#FFBA10;stop-opacity:0"/>
	</linearGradient>
	<path class="st27" d="M176.6,108.9l0.3-5.9c0-0.2-0.1-0.4-0.2-0.6l-4-3.6c-0.3-0.3-0.3-0.7,0-1c0.1-0.1,0.1-0.1,0.2-0.2l4.9-1.5
		c0.2-0.1,0.3-0.2,0.4-0.4l1.7-5.6c0-0.3,0.3-0.5,0.6-0.5c0.2,0,0.4,0.1,0.4,0.3l2.8,5c0.1,0.2,0.3,0.3,0.5,0.3l5.1,0.2
		c0.4,0.1,0.6,0.4,0.5,0.8c0,0.1,0,0.1-0.1,0.2l-3.2,4.6c-0.1,0.2-0.1,0.4-0.1,0.6l1.4,5.7c0.1,0.5-0.3,1-0.7,0.8l-4.7-2.1
		c-0.2-0.1-0.4,0-0.5,0.1l-4.2,3.4C177.1,109.8,176.6,109.5,176.6,108.9z"/>
	
		<linearGradient id="SVGID_28_" gradientUnits="userSpaceOnUse" x1="1999.1229" y1="228.4234" x2="2057.0103" y2="-1130.8116" gradientTransform="matrix(-1 0 0 1 2565.3462 849.7179)">
		<stop  offset="0" style="stop-color:#F6AC07"/>
		<stop  offset="0.19" style="stop-color:#F8AF09;stop-opacity:0.79"/>
		<stop  offset="0.59" style="stop-color:#FCB50D;stop-opacity:0.37"/>
		<stop  offset="0.87" style="stop-color:#FEB90F;stop-opacity:0.1"/>
		<stop  offset="1" style="stop-color:#FFBA10;stop-opacity:0"/>
	</linearGradient>
	<path class="st28" d="M545.5,404.9l-5.1-0.1c-0.2,0-0.4,0.1-0.5,0.3L537,410c-0.1,0.3-0.4,0.4-0.7,0.3c-0.2-0.1-0.3-0.3-0.3-0.5
		l-1.5-5.7c0-0.2-0.2-0.4-0.4-0.4l-4.8-1.8c-0.3-0.2-0.5-0.6-0.3-0.9c0-0.1,0.1-0.2,0.2-0.2l4.2-3.4c0.2-0.1,0.2-0.3,0.2-0.5l-0.1-6
		c0-0.5,0.5-0.8,0.9-0.5l4.1,3.6c0.1,0.1,0.3,0.2,0.5,0.1l4.8-1.9c0.4-0.2,0.8,0.3,0.7,0.8l-1.7,5.6c-0.1,0.2,0,0.4,0.1,0.6l3,4.8
		c0.2,0.3,0.1,0.7-0.2,0.9C545.7,404.8,545.6,404.8,545.5,404.9z"/>
	
		<linearGradient id="SVGID_29_" gradientUnits="userSpaceOnUse" x1="2417.7417" y1="250.3893" x2="2475.7192" y2="-1111.1133" gradientTransform="matrix(-1 0 0 1 2565.3462 849.7179)">
		<stop  offset="0" style="stop-color:#F6AC07"/>
		<stop  offset="0.19" style="stop-color:#F8AF09;stop-opacity:0.79"/>
		<stop  offset="0.59" style="stop-color:#FCB50D;stop-opacity:0.37"/>
		<stop  offset="0.87" style="stop-color:#FEB90F;stop-opacity:0.1"/>
		<stop  offset="1" style="stop-color:#FFBA10;stop-opacity:0"/>
	</linearGradient>
	<path class="st29" d="M121.3,467.3l-4.4-6.8c-0.1-0.2-0.4-0.4-0.7-0.4l-7.3,0.4c-0.5-0.1-0.9-0.6-0.8-1.1c0-0.1,0.1-0.3,0.1-0.4
		l4.2-7c0.2-0.3,0.2-0.6,0.1-0.9l-2.5-8c-0.2-0.7,0.4-1.4,1-1.2l6.9,2.5c0.3,0.1,0.5,0,0.7-0.2l5.6-5.2c0.5-0.5,1.3-0.1,1.3,0.7
		l0.1,8.5c0,0.3,0.1,0.6,0.4,0.8l6,4.7c0.4,0.4,0.5,1,0.1,1.4c-0.1,0.1-0.2,0.2-0.3,0.2l-6.9,2.7c-0.3,0.1-0.5,0.4-0.5,0.6l-2,8.2
		c-0.1,0.4-0.5,0.6-0.9,0.5C121.5,467.5,121.4,467.4,121.3,467.3z"/>
	
		<linearGradient id="SVGID_30_" gradientUnits="userSpaceOnUse" x1="1936.3538" y1="119.3303" x2="1994.3312" y2="-1242.1724" gradientTransform="matrix(-0.8247 1.1189 0.9822 0.7239 2184.3406 -1314.1003)">
		<stop  offset="0" style="stop-color:#F6AC07"/>
		<stop  offset="0.19" style="stop-color:#F8AF09;stop-opacity:0.79"/>
		<stop  offset="0.59" style="stop-color:#FCB50D;stop-opacity:0.37"/>
		<stop  offset="0.87" style="stop-color:#FEB90F;stop-opacity:0.1"/>
		<stop  offset="1" style="stop-color:#FFBA10;stop-opacity:0"/>
	</linearGradient>
	<path class="st30" d="M61.4,510.2H51.1c-0.3,0-0.7,0.2-1,0.5l-5.6,8.5c-0.5,0.5-1.3,0.6-1.7,0.1c-0.1-0.1-0.2-0.3-0.3-0.4l-3.4-9.8
		c-0.1-0.4-0.4-0.7-0.8-0.8l-9.9-3c-0.9-0.3-1-1.5-0.4-2l8.1-5.9c0.3-0.3,0.4-0.6,0.4-0.9l-0.5-10c-0.1-0.9,1-1.5,1.8-0.9l8.4,6
		c0.3,0.2,0.7,0.3,1.1,0.1l9.6-3.3c0.7-0.2,1.4,0.2,1.5,0.9c0,0.2,0,0.4-0.1,0.5l-3,9.7c-0.1,0.4,0,0.8,0.2,1l6.4,8.2
		c0.3,0.4,0.2,1-0.3,1.4C61.8,510.1,61.6,510.1,61.4,510.2z"/>
	
		<linearGradient id="SVGID_31_" gradientUnits="userSpaceOnUse" x1="1395.1309" y1="955.8748" x2="1453.1083" y2="-405.6276" gradientTransform="matrix(-0.8247 1.1189 0.9822 0.7239 2184.3406 -1314.1003)">
		<stop  offset="0" style="stop-color:#F6AC07"/>
		<stop  offset="0.19" style="stop-color:#F8AF09;stop-opacity:0.79"/>
		<stop  offset="0.59" style="stop-color:#FCB50D;stop-opacity:0.37"/>
		<stop  offset="0.87" style="stop-color:#FEB90F;stop-opacity:0.1"/>
		<stop  offset="1" style="stop-color:#FFBA10;stop-opacity:0"/>
	</linearGradient>
	<path class="st31" d="M1329.4,510.2h-10.3c-0.3,0-0.7,0.2-1,0.5l-5.6,8.5c-0.5,0.5-1.3,0.6-1.7,0.1c-0.1-0.1-0.2-0.3-0.3-0.4
		l-3.4-9.8c-0.1-0.4-0.4-0.7-0.8-0.8l-9.9-3c-0.9-0.3-1-1.5-0.4-2l8.1-5.9c0.3-0.3,0.4-0.6,0.4-0.9l-0.5-10c-0.1-0.9,1-1.5,1.8-0.9
		l8.4,6c0.3,0.2,0.7,0.3,1.1,0.1l9.6-3.3c0.7-0.2,1.4,0.2,1.5,0.9c0,0.2,0,0.4-0.1,0.5l-3,9.7c-0.1,0.4,0,0.8,0.2,1l6.4,8.2
		c0.3,0.4,0.2,1-0.3,1.4C1329.8,510.1,1329.6,510.1,1329.4,510.2z"/>
	
		<linearGradient id="SVGID_32_" gradientUnits="userSpaceOnUse" x1="1894.8893" y1="224.3304" x2="1952.8669" y2="-1137.1722" gradientTransform="matrix(-1 0 0 1 2565.3462 849.7179)">
		<stop  offset="0" style="stop-color:#F6AC07"/>
		<stop  offset="0.19" style="stop-color:#F8AF09;stop-opacity:0.79"/>
		<stop  offset="0.59" style="stop-color:#FCB50D;stop-opacity:0.37"/>
		<stop  offset="0.87" style="stop-color:#FEB90F;stop-opacity:0.1"/>
		<stop  offset="1" style="stop-color:#FFBA10;stop-opacity:0"/>
	</linearGradient>
	<path class="st32" d="M641.8,388.4l-4.4-6.8c-0.1-0.2-0.4-0.4-0.7-0.4l-7.3,0.3c-0.5-0.1-0.9-0.5-0.8-1c0-0.2,0.1-0.3,0.2-0.4
		l4.2-7c0.2-0.3,0.2-0.6,0.1-0.9l-2.5-8c-0.2-0.7,0.3-1.4,1-1.2l6.9,2.5c0.3,0.1,0.5,0,0.7-0.2l5.7-5.3c0.5-0.5,1.3-0.1,1.3,0.7
		l0.1,8.5c0,0.3,0.1,0.6,0.4,0.8l6,4.7c0.4,0.4,0.5,1,0.1,1.4c-0.1,0.1-0.2,0.2-0.3,0.2l-6.9,2.8c-0.3,0.1-0.4,0.3-0.5,0.6l-2,8.2
		c0,0.4-0.4,0.7-0.8,0.7C642.1,388.7,641.9,388.6,641.8,388.4z"/>
	
		<linearGradient id="SVGID_33_" gradientUnits="userSpaceOnUse" x1="2193.8525" y1="239.3949" x2="2251.8403" y2="-1122.3583" gradientTransform="matrix(-1 0 0 1 2565.3462 849.7179)">
		<stop  offset="0" style="stop-color:#F6AC07"/>
		<stop  offset="0.19" style="stop-color:#F8AF09;stop-opacity:0.79"/>
		<stop  offset="0.59" style="stop-color:#FCB50D;stop-opacity:0.37"/>
		<stop  offset="0.87" style="stop-color:#FEB90F;stop-opacity:0.1"/>
		<stop  offset="1" style="stop-color:#FFBA10;stop-opacity:0"/>
	</linearGradient>
	<path class="st33" d="M333.6,395.2l3-4.8c0.1-0.2,0.1-0.4,0.1-0.6l-1.6-5.6c-0.2-0.5,0.3-1,0.7-0.8l4.8,1.9c0.2,0.1,0.4,0,0.5-0.1
		l4.1-3.6c0.4-0.3,0.9,0,0.9,0.5l-0.1,6c0,0.2,0.1,0.4,0.2,0.5l4.1,3.5c0.3,0.3,0.3,0.7,0,1c-0.1,0.1-0.1,0.1-0.2,0.2l-4.9,1.8
		c-0.2,0.1-0.3,0.2-0.4,0.4l-1.5,5.7c0,0.3-0.3,0.5-0.5,0.5s-0.4-0.1-0.5-0.3l-2.9-4.9c-0.1-0.2-0.3-0.3-0.5-0.3l-5.1,0.1
		c-0.4-0.1-0.6-0.4-0.5-0.8C333.5,395.4,333.6,395.3,333.6,395.2z"/>
	
		<linearGradient id="SVGID_34_" gradientUnits="userSpaceOnUse" x1="1892.7308" y1="150.6971" x2="1940.6539" y2="-974.6803" gradientTransform="matrix(-1 0 0 1 2565.3462 849.7179)">
		<stop  offset="0" style="stop-color:#F6AC07"/>
		<stop  offset="0.19" style="stop-color:#F8AF09;stop-opacity:0.79"/>
		<stop  offset="0.59" style="stop-color:#FCB50D;stop-opacity:0.37"/>
		<stop  offset="0.87" style="stop-color:#FEB90F;stop-opacity:0.1"/>
		<stop  offset="1" style="stop-color:#FFBA10;stop-opacity:0"/>
	</linearGradient>
	<path class="st34" d="M645.9,562.2l0.1-10.6c0-0.3-0.2-0.7-0.4-0.9l-7.4-6.1c-0.5-0.4-0.6-1.2-0.1-1.7c0.1-0.2,0.2-0.2,0.4-0.3
		l8.6-3.1c0.3-0.2,0.6-0.4,0.7-0.7l2.6-10.1c0.1-0.5,0.5-0.8,1-0.8c0.3,0,0.6,0.2,0.7,0.5l5.2,8.6c0.2,0.3,0.5,0.5,0.8,0.5l9-0.2
		c0.7,0.1,1.1,0.7,1.1,1.3c0,0.2-0.1,0.4-0.2,0.6l-5.4,8.5c-0.2,0.3-0.2,0.7-0.2,1.1l2.9,10c0.2,0.9-0.5,1.7-1.2,1.5l-8.5-3.4
		c-0.3-0.2-0.7-0.1-0.9,0.2l-7.2,6.4C646.9,563.7,645.9,563.2,645.9,562.2z"/>
</g>
<linearGradient id="SVGID_35_" gradientUnits="userSpaceOnUse" x1="1550.2313" y1="171.6056" x2="1607.8713" y2="-1182.0542" gradientTransform="matrix(-1 0 0 1 2565.3462 849.7179)">
	<stop  offset="0" style="stop-color:#F6AC07"/>
	<stop  offset="0.19" style="stop-color:#F8AF09;stop-opacity:0.79"/>
	<stop  offset="0.59" style="stop-color:#FCB50D;stop-opacity:0.37"/>
	<stop  offset="0.87" style="stop-color:#FEB90F;stop-opacity:0.1"/>
	<stop  offset="1" style="stop-color:#FFBA10;stop-opacity:0"/>
</linearGradient>
<path class="st35" d="M981,74.5l-0.9,5.8c0,0.2,0,0.4,0.1,0.6l3.6,4.2c0.2,0.3,0.2,0.7-0.1,0.9c-0.1,0.1-0.2,0.1-0.3,0.1l-5,0.8
	c-0.2,0-0.3,0.2-0.4,0.3l-2.3,5.3c-0.1,0.3-0.3,0.5-0.6,0.4c-0.2,0-0.4-0.2-0.4-0.4l-2.2-5.4c-0.1-0.2-0.2-0.3-0.4-0.4l-5-1
	c-0.4-0.1-0.6-0.5-0.5-0.9c0-0.1,0.1-0.2,0.2-0.3l3.7-4c0.1-0.2,0.2-0.4,0.2-0.6l-0.8-5.9c-0.1-0.5,0.4-0.9,0.8-0.7l4.4,2.8
	c0.2,0.1,0.4,0.1,0.5,0l4.5-2.7C980.6,73.6,981.1,74,981,74.5z"/>
<linearGradient id="SVGID_36_" gradientUnits="userSpaceOnUse" x1="1410.5615" y1="147.6927" x2="1468.3015" y2="-1208.1573" gradientTransform="matrix(-1 0 0 1 2565.3462 849.7179)">
	<stop  offset="0" style="stop-color:#F6AC07"/>
	<stop  offset="0.19" style="stop-color:#F8AF09;stop-opacity:0.79"/>
	<stop  offset="0.59" style="stop-color:#FCB50D;stop-opacity:0.37"/>
	<stop  offset="0.87" style="stop-color:#FEB90F;stop-opacity:0.1"/>
	<stop  offset="1" style="stop-color:#FFBA10;stop-opacity:0"/>
</linearGradient>
<path class="st36" d="M1117.3,149.5l3.6,4.2c0.1,0.1,0.3,0.2,0.5,0.2l5-1.2c0.4-0.1,0.8,0.4,0.6,0.9l-2.2,5.3
	c-0.1,0.2-0.1,0.4,0,0.6l2.5,5.2c0.2,0.5-0.1,1-0.5,1l-5-0.9c-0.2,0-0.4,0.1-0.5,0.2l-3.4,4.4c-0.2,0.2-0.5,0.3-0.7,0.1
	c-0.1-0.1-0.2-0.2-0.2-0.4l-0.9-5.8c0-0.2-0.1-0.4-0.3-0.5l-4.6-2.5c-0.3-0.2-0.4-0.6-0.2-1c0.1-0.1,0.1-0.1,0.2-0.2l4.5-2.8
	c0.2-0.1,0.3-0.3,0.3-0.5l0.6-5.9c0-0.3,0.2-0.5,0.5-0.6C1117.1,149.4,1117.2,149.4,1117.3,149.5z"/>
<linearGradient id="SVGID_37_" gradientUnits="userSpaceOnUse" x1="1237.6637" y1="93.1464" x2="1295.4037" y2="-1262.7037" gradientTransform="matrix(-1 0 0 1 2565.3462 849.7179)">
	<stop  offset="0" style="stop-color:#F6AC07"/>
	<stop  offset="0.19" style="stop-color:#F8AF09;stop-opacity:0.79"/>
	<stop  offset="0.59" style="stop-color:#FCB50D;stop-opacity:0.37"/>
	<stop  offset="0.87" style="stop-color:#FEB90F;stop-opacity:0.1"/>
	<stop  offset="1" style="stop-color:#FFBA10;stop-opacity:0"/>
</linearGradient>
<path class="st37" d="M1290.2,95l3.6,4.2c0.1,0.1,0.3,0.2,0.5,0.2l5-1.2c0.4-0.1,0.8,0.4,0.6,0.9l-2.2,5.3c-0.1,0.2-0.1,0.4,0,0.6
	l2.5,5.2c0.2,0.5-0.1,1-0.5,1l-5-0.9c-0.2,0-0.4,0.1-0.5,0.2l-3.4,4.4c-0.2,0.2-0.5,0.3-0.7,0.1c-0.1-0.1-0.2-0.2-0.2-0.4l-0.9-5.8
	c0-0.2-0.1-0.4-0.3-0.5l-4.6-2.5c-0.3-0.2-0.4-0.6-0.2-1c0.1-0.1,0.1-0.1,0.2-0.2l4.5-2.8c0.2-0.1,0.3-0.3,0.3-0.5l0.6-5.9
	c0-0.3,0.2-0.5,0.5-0.6C1290,94.9,1290.1,94.9,1290.2,95z"/>
<linearGradient id="SVGID_38_" gradientUnits="userSpaceOnUse" x1="1808.2881" y1="236.8399" x2="1866.0281" y2="-1119.0703" gradientTransform="matrix(-1 0 0 1 2565.3462 849.7179)">
	<stop  offset="0" style="stop-color:#F6AC07"/>
	<stop  offset="0.19" style="stop-color:#F8AF09;stop-opacity:0.79"/>
	<stop  offset="0.59" style="stop-color:#FCB50D;stop-opacity:0.37"/>
	<stop  offset="0.87" style="stop-color:#FEB90F;stop-opacity:0.1"/>
	<stop  offset="1" style="stop-color:#FFBA10;stop-opacity:0"/>
</linearGradient>
<path class="st38" d="M714.6,261.5l5,0.9c0.2,0,0.4,0,0.5-0.2l3.5-4.3c0.2-0.2,0.5-0.3,0.7-0.1c0.1,0.1,0.2,0.3,0.2,0.4l0.8,5.9
	c0,0.2,0.1,0.4,0.3,0.5l4.6,2.5c0.3,0.2,0.4,0.7,0.2,1c-0.1,0.1-0.1,0.1-0.2,0.2l-4.5,2.7c-0.2,0.1-0.3,0.3-0.3,0.5l-0.6,5.9
	c0,0.3-0.2,0.5-0.5,0.6c-0.2,0-0.3-0.1-0.4-0.2l-3.6-4.2c-0.1-0.1-0.3-0.2-0.5-0.2l-5,1.1c-0.5,0.1-0.8-0.4-0.6-0.9l2.3-5.3
	c0.1-0.2,0.1-0.4,0-0.6l-2.4-5.2C713.8,262,714.1,261.4,714.6,261.5z"/>
<linearGradient id="SVGID_39_" gradientUnits="userSpaceOnUse" x1="1663.3567" y1="157.6492" x2="1720.9868" y2="-1195.6909" gradientTransform="matrix(-1 0 0 1 2565.3462 849.7179)">
	<stop  offset="0" style="stop-color:#F6AC07"/>
	<stop  offset="0.19" style="stop-color:#F8AF09;stop-opacity:0.79"/>
	<stop  offset="0.59" style="stop-color:#FCB50D;stop-opacity:0.37"/>
	<stop  offset="0.87" style="stop-color:#FEB90F;stop-opacity:0.1"/>
	<stop  offset="1" style="stop-color:#FFBA10;stop-opacity:0"/>
</linearGradient>
<path class="st39" d="M875.9,199.6l-3.6,4.2c-0.1,0.2-0.2,0.4-0.1,0.6l1,5.8c0.1,0.5-0.4,0.9-0.8,0.7l-4.5-2.7
	c-0.2-0.1-0.4-0.1-0.5,0l-4.4,2.9c-0.4,0.3-0.9-0.1-0.8-0.7l0.8-5.9c0-0.2,0-0.4-0.2-0.6l-3.7-4.1c-0.3-0.3-0.2-0.7,0.1-1
	c0.1-0.1,0.1-0.1,0.2-0.1l5-1c0.2,0,0.3-0.2,0.4-0.4l2.2-5.4c0.1-0.3,0.4-0.4,0.6-0.4c0.2,0,0.3,0.2,0.4,0.4l2.3,5.3
	c0.1,0.2,0.2,0.3,0.4,0.3l5,0.7c0.4,0.1,0.6,0.4,0.5,0.8C876,199.4,876,199.5,875.9,199.6z"/>
<linearGradient id="SVGID_40_" gradientUnits="userSpaceOnUse" x1="2055.5193" y1="230.9404" x2="2113.3594" y2="-1127.2598" gradientTransform="matrix(-1 0 0 1 2565.3462 849.7179)">
	<stop  offset="0" style="stop-color:#F6AC07"/>
	<stop  offset="0.19" style="stop-color:#F8AF09;stop-opacity:0.79"/>
	<stop  offset="0.59" style="stop-color:#FCB50D;stop-opacity:0.37"/>
	<stop  offset="0.87" style="stop-color:#FEB90F;stop-opacity:0.1"/>
	<stop  offset="1" style="stop-color:#FFBA10;stop-opacity:0"/>
</linearGradient>
<path class="st40" d="M476.2,280.4l2.5,5.2c0.1,0.2,0.2,0.3,0.4,0.3l5,0.5c0.4,0.1,0.6,0.5,0.5,0.8c0,0.1-0.1,0.2-0.1,0.3l-3.4,4.4
	c-0.1,0.2-0.2,0.4-0.1,0.6l1.1,5.8c0.1,0.5-0.3,1-0.8,0.7l-4.6-2.5c-0.2-0.1-0.4-0.1-0.5,0l-4.3,3c-0.4,0.3-0.9-0.1-0.8-0.6l0.6-5.9
	c0-0.2,0-0.4-0.2-0.6l-3.8-3.9c-0.3-0.3-0.3-0.7,0-1c0.1-0.1,0.1-0.1,0.2-0.1l5-1.2c0.2-0.1,0.3-0.2,0.4-0.4l2-5.5
	c0.1-0.3,0.4-0.4,0.7-0.2C476.1,280.2,476.2,280.3,476.2,280.4z"/>
<linearGradient id="SVGID_41_" gradientUnits="userSpaceOnUse" x1="2084.9417" y1="212.6287" x2="2142.7813" y2="-1145.5638" gradientTransform="matrix(-1 0 0 1 2565.3462 849.7179)">
	<stop  offset="0" style="stop-color:#F6AC07"/>
	<stop  offset="0.19" style="stop-color:#F8AF09;stop-opacity:0.79"/>
	<stop  offset="0.59" style="stop-color:#FCB50D;stop-opacity:0.37"/>
	<stop  offset="0.87" style="stop-color:#FEB90F;stop-opacity:0.1"/>
	<stop  offset="1" style="stop-color:#FFBA10;stop-opacity:0"/>
</linearGradient>
<path class="st41" d="M437.2,37.2l2.5,5.2c0.1,0.2,0.2,0.3,0.4,0.3l5,0.5c0.4,0.1,0.6,0.4,0.5,0.8c0,0.1-0.1,0.2-0.1,0.3l-3.4,4.4
	c-0.1,0.2-0.2,0.4-0.1,0.6l1.1,5.8c0.1,0.5-0.3,1-0.8,0.7l-4.6-2.5c-0.2-0.1-0.4-0.1-0.5,0l-4.3,3c-0.4,0.3-0.9-0.1-0.8-0.6l0.6-5.9
	c0-0.2,0-0.4-0.2-0.6l-3.8-3.9c-0.3-0.3-0.3-0.7,0-1c0.1-0.1,0.1-0.1,0.2-0.1l5-1.2c0.2-0.1,0.3-0.2,0.4-0.4l2-5.5
	c0.1-0.3,0.3-0.5,0.6-0.4C437,36.8,437.2,37,437.2,37.2z"/>
<linearGradient id="SVGID_42_" gradientUnits="userSpaceOnUse" x1="2411.4441" y1="235.3113" x2="2469.1641" y2="-1120.0388" gradientTransform="matrix(-1 0 0 1 2565.3462 849.7179)">
	<stop  offset="0" style="stop-color:#F6AC07"/>
	<stop  offset="0.19" style="stop-color:#F8AF09;stop-opacity:0.79"/>
	<stop  offset="0.59" style="stop-color:#FCB50D;stop-opacity:0.37"/>
	<stop  offset="0.87" style="stop-color:#FEB90F;stop-opacity:0.1"/>
	<stop  offset="1" style="stop-color:#FFBA10;stop-opacity:0"/>
</linearGradient>
<path class="st42" d="M112.2,294.8l4.3-3.1c0.2-0.1,0.3-0.3,0.3-0.5l0.3-5.9c0-0.5,0.6-0.8,0.9-0.5l3.8,3.9c0.1,0.1,0.3,0.2,0.5,0.1
	l4.9-1.5c0.4-0.1,0.8,0.4,0.7,0.9l-2,5.5c-0.1,0.2-0.1,0.4,0,0.6l2.8,5c0.2,0.3,0.1,0.7-0.2,0.9c-0.1,0.1-0.2,0.1-0.3,0.1l-5-0.5
	c-0.2,0-0.4,0.1-0.5,0.2l-3.2,4.6c-0.1,0.3-0.5,0.4-0.7,0.2c-0.2-0.1-0.3-0.3-0.3-0.5l-1.2-5.8c0-0.2-0.2-0.4-0.3-0.5l-4.7-2.1
	c-0.3-0.2-0.5-0.6-0.3-0.9C112.1,295,112.1,294.9,112.2,294.8z"/>
<linearGradient id="SVGID_43_" gradientUnits="userSpaceOnUse" x1="2489.0449" y1="157.6891" x2="2546.7649" y2="-1197.661" gradientTransform="matrix(-1 0 0 1 2565.3462 849.7179)">
	<stop  offset="0" style="stop-color:#F6AC07"/>
	<stop  offset="0.19" style="stop-color:#F8AF09;stop-opacity:0.79"/>
	<stop  offset="0.59" style="stop-color:#FCB50D;stop-opacity:0.37"/>
	<stop  offset="0.87" style="stop-color:#FEB90F;stop-opacity:0.1"/>
	<stop  offset="1" style="stop-color:#FFBA10;stop-opacity:0"/>
</linearGradient>
<path class="st43" d="M34.6,217.2l4.3-3.1c0.2-0.1,0.3-0.3,0.3-0.5l0.3-5.9c0-0.5,0.6-0.8,0.9-0.5l3.8,3.9c0.1,0.1,0.3,0.2,0.5,0.1
	l4.9-1.5c0.4-0.1,0.8,0.4,0.7,0.9l-2,5.5c-0.1,0.2-0.1,0.4,0,0.6l2.8,5c0.2,0.3,0.1,0.7-0.2,0.9c-0.1,0.1-0.2,0.1-0.3,0.1l-5-0.5
	c-0.2,0-0.4,0.1-0.5,0.2l-3.2,4.6c-0.1,0.3-0.5,0.4-0.7,0.2c-0.2-0.1-0.3-0.3-0.3-0.5l-1.2-5.8c0-0.2-0.2-0.4-0.3-0.5l-4.7-2.1
	c-0.3-0.2-0.5-0.6-0.3-0.9C34.5,217.4,34.5,217.3,34.6,217.2z"/>
<linearGradient id="SVGID_44_" gradientUnits="userSpaceOnUse" x1="2124.1841" y1="228.2214" x2="2182.0039" y2="-1129.6688" gradientTransform="matrix(-1 0 0 1 2565.3462 849.7179)">
	<stop  offset="0" style="stop-color:#F6AC07"/>
	<stop  offset="0.19" style="stop-color:#F8AF09;stop-opacity:0.79"/>
	<stop  offset="0.59" style="stop-color:#FCB50D;stop-opacity:0.37"/>
	<stop  offset="0.87" style="stop-color:#FEB90F;stop-opacity:0.1"/>
	<stop  offset="1" style="stop-color:#FFBA10;stop-opacity:0"/>
</linearGradient>
<path class="st44" d="M407.7,170.4l-0.4,5.9c0,0.2,0.1,0.4,0.2,0.5l3.9,3.7c0.3,0.3,0.3,0.7,0,1c-0.1,0.1-0.1,0.1-0.2,0.2l-4.9,1.4
	c-0.2,0.1-0.3,0.2-0.4,0.4l-1.8,5.5c0,0.3-0.3,0.5-0.6,0.4c-0.2,0-0.3-0.2-0.4-0.3l-2.6-5.1c-0.1-0.2-0.3-0.3-0.4-0.3l-5.1-0.3
	c-0.4-0.1-0.6-0.4-0.5-0.8c0-0.1,0.1-0.2,0.1-0.3l3.3-4.5c0.1-0.2,0.2-0.4,0.1-0.6l-1.3-5.7c-0.1-0.5,0.3-1,0.7-0.8l4.7,2.3
	c0.2,0.1,0.4,0.1,0.5,0l4.2-3.3C407.3,169.5,407.8,169.8,407.7,170.4z"/>
<linearGradient id="SVGID_45_" gradientUnits="userSpaceOnUse" x1="2273.3398" y1="269.7784" x2="2331.1599" y2="-1088.1116" gradientTransform="matrix(-1 0 0 1 2565.3462 849.7179)">
	<stop  offset="0" style="stop-color:#F6AC07"/>
	<stop  offset="0.19" style="stop-color:#F8AF09;stop-opacity:0.79"/>
	<stop  offset="0.59" style="stop-color:#FCB50D;stop-opacity:0.37"/>
	<stop  offset="0.87" style="stop-color:#FEB90F;stop-opacity:0.1"/>
	<stop  offset="1" style="stop-color:#FFBA10;stop-opacity:0"/>
</linearGradient>
<path class="st45" d="M258.5,211.9l-0.4,5.9c0,0.2,0.1,0.4,0.2,0.5l3.9,3.7c0.3,0.3,0.3,0.7,0,1c-0.1,0.1-0.1,0.1-0.2,0.2l-4.9,1.4
	c-0.2,0.1-0.3,0.2-0.4,0.4l-1.8,5.5c0,0.3-0.3,0.5-0.6,0.4c-0.2,0-0.3-0.2-0.4-0.3l-2.6-5.1c-0.1-0.2-0.3-0.3-0.4-0.3l-5.1-0.3
	c-0.4-0.1-0.6-0.4-0.5-0.8c0-0.1,0.1-0.2,0.1-0.3l3.3-4.5c0.1-0.2,0.2-0.4,0.1-0.6l-1.3-5.7c-0.1-0.5,0.3-1,0.7-0.8l4.7,2.3
	c0.2,0.1,0.4,0.1,0.5,0l4.2-3.3C258,211,258.5,211.4,258.5,211.9z"/>
<linearGradient id="SVGID_46_" gradientUnits="userSpaceOnUse" x1="1949.172" y1="208.1962" x2="2006.9919" y2="-1149.6938" gradientTransform="matrix(-1 0 0 1 2565.3462 849.7179)">
	<stop  offset="0" style="stop-color:#F6AC07"/>
	<stop  offset="0.19" style="stop-color:#F8AF09;stop-opacity:0.79"/>
	<stop  offset="0.59" style="stop-color:#FCB50D;stop-opacity:0.37"/>
	<stop  offset="0.87" style="stop-color:#FEB90F;stop-opacity:0.1"/>
	<stop  offset="1" style="stop-color:#FFBA10;stop-opacity:0"/>
</linearGradient>
<path class="st46" d="M582.7,150.3l-0.4,5.9c0,0.2,0.1,0.4,0.2,0.5l3.9,3.7c0.3,0.3,0.3,0.7,0,1c-0.1,0.1-0.1,0.1-0.2,0.2l-4.9,1.4
	c-0.2,0.1-0.3,0.2-0.4,0.4l-1.8,5.5c0,0.3-0.3,0.5-0.6,0.4c-0.2,0-0.3-0.2-0.4-0.3l-2.6-5.1c-0.1-0.2-0.3-0.3-0.4-0.3l-5.1-0.3
	c-0.4-0.1-0.6-0.4-0.5-0.8c0-0.1,0.1-0.2,0.1-0.3l3.3-4.5c0.1-0.2,0.2-0.4,0.1-0.6l-1.3-5.7c-0.1-0.5,0.3-1,0.7-0.8l4.7,2.3
	c0.2,0.1,0.4,0.1,0.5,0l4.2-3.3C582.2,149.4,582.7,149.8,582.7,150.3z"/>
<linearGradient id="SVGID_47_" gradientUnits="userSpaceOnUse" x1="1265.1724" y1="191.1959" x2="1322.9823" y2="-1166.464" gradientTransform="matrix(-1 0 0 1 2565.3462 849.7179)">
	<stop  offset="0" style="stop-color:#F6AC07"/>
	<stop  offset="0.19" style="stop-color:#F8AF09;stop-opacity:0.79"/>
	<stop  offset="0.59" style="stop-color:#FCB50D;stop-opacity:0.37"/>
	<stop  offset="0.87" style="stop-color:#FEB90F;stop-opacity:0.1"/>
	<stop  offset="1" style="stop-color:#FFBA10;stop-opacity:0"/>
</linearGradient>
<path class="st47" d="M1260.3,220.7l0.3-5.9c0-0.2-0.1-0.4-0.2-0.5l-4-3.6c-0.3-0.3-0.3-0.7,0-1c0.1-0.1,0.1-0.1,0.2-0.2l4.8-1.6
	c0.2-0.1,0.3-0.2,0.4-0.4l1.7-5.6c0-0.3,0.3-0.5,0.6-0.5c0.2,0,0.4,0.1,0.4,0.3l2.8,5c0.1,0.2,0.3,0.3,0.4,0.3l5.1,0.2
	c0.4,0.1,0.6,0.4,0.5,0.8c0,0.1-0.1,0.2-0.1,0.3l-3.2,4.6c-0.1,0.2-0.2,0.4-0.1,0.6l1.4,5.7c0.1,0.5-0.3,1-0.7,0.8l-4.7-2.1
	c-0.2-0.1-0.4,0-0.5,0.1l-4.2,3.4C1260.7,221.6,1260.2,221.2,1260.3,220.7z"/>
<linearGradient id="SVGID_48_" gradientUnits="userSpaceOnUse" x1="1520.291" y1="203.8492" x2="1578.1011" y2="-1153.8108" gradientTransform="matrix(-1 0 0 1 2565.3462 849.7179)">
	<stop  offset="0" style="stop-color:#F6AC07"/>
	<stop  offset="0.19" style="stop-color:#F8AF09;stop-opacity:0.79"/>
	<stop  offset="0.59" style="stop-color:#FCB50D;stop-opacity:0.37"/>
	<stop  offset="0.87" style="stop-color:#FEB90F;stop-opacity:0.1"/>
	<stop  offset="1" style="stop-color:#FFBA10;stop-opacity:0"/>
</linearGradient>
<path class="st48" d="M1007.9,297.2l0.3-5.9c0-0.2-0.1-0.4-0.2-0.5l-4-3.6c-0.3-0.3-0.3-0.7,0-1c0.1-0.1,0.1-0.1,0.2-0.2l4.9-1.5
	c0.2-0.1,0.3-0.2,0.4-0.4l1.7-5.6c0-0.3,0.3-0.5,0.6-0.5c0.2,0,0.4,0.1,0.4,0.3l2.8,5c0.1,0.2,0.3,0.3,0.4,0.3l5,0.1
	c0.4,0.1,0.6,0.4,0.5,0.8c0,0.1-0.1,0.2-0.1,0.3l-3.2,4.6c-0.1,0.2-0.1,0.4-0.1,0.6l1.4,5.7c0.1,0.5-0.3,1-0.7,0.8l-4.7-2.1
	c-0.2-0.1-0.4,0-0.5,0.1l-4.2,3.4C1008.4,298.1,1007.9,297.7,1007.9,297.2z"/>
<linearGradient id="SVGID_49_" gradientUnits="userSpaceOnUse" x1="1335.9932" y1="193.0627" x2="1393.6831" y2="-1161.7773" gradientTransform="matrix(-1 0 0 1 2565.3462 849.7179)">
	<stop  offset="0" style="stop-color:#F6AC07"/>
	<stop  offset="0.19" style="stop-color:#F8AF09;stop-opacity:0.79"/>
	<stop  offset="0.59" style="stop-color:#FCB50D;stop-opacity:0.37"/>
	<stop  offset="0.87" style="stop-color:#FEB90F;stop-opacity:0.1"/>
	<stop  offset="1" style="stop-color:#FFBA10;stop-opacity:0"/>
</linearGradient>
<path class="st49" d="M1206.1,310.1l-5.1-0.1c-0.2,0-0.4,0.1-0.5,0.3l-2.9,4.8c-0.1,0.3-0.5,0.4-0.7,0.2c-0.2-0.1-0.3-0.2-0.3-0.4
	l-1.5-5.7c0-0.2-0.2-0.4-0.4-0.4l-4.8-1.8c-0.3-0.2-0.5-0.6-0.3-0.9c0-0.1,0.1-0.2,0.2-0.2l4.1-3.4c0.2-0.1,0.2-0.3,0.2-0.5v-5.9
	c0-0.5,0.5-0.8,0.9-0.5l4,3.6c0.1,0.1,0.3,0.2,0.5,0.1l4.8-1.9c0.4-0.2,0.8,0.3,0.7,0.8l-1.6,5.6c-0.1,0.2,0,0.4,0.1,0.6l3,4.8
	c0.2,0.3,0.1,0.7-0.1,0.9C1206.3,310,1206.2,310,1206.1,310.1z"/>
<linearGradient id="SVGID_50_" gradientUnits="userSpaceOnUse" x1="1355.2302" y1="195.7205" x2="1413.0403" y2="-1161.6295" gradientTransform="matrix(-1 0 0 1 2565.3462 849.7179)">
	<stop  offset="0" style="stop-color:#F6AC07"/>
	<stop  offset="0.19" style="stop-color:#F8AF09;stop-opacity:0.79"/>
	<stop  offset="0.59" style="stop-color:#FCB50D;stop-opacity:0.37"/>
	<stop  offset="0.87" style="stop-color:#FEB90F;stop-opacity:0.1"/>
	<stop  offset="1" style="stop-color:#FFBA10;stop-opacity:0"/>
</linearGradient>
<path class="st50" d="M1158,20.3l3-4.8c0.1-0.2,0.1-0.4,0.1-0.6l-1.6-5.6c-0.1-0.5,0.3-1,0.7-0.8l4.8,1.9c0.2,0.1,0.4,0,0.5-0.1
	l4.1-3.5c0.4-0.3,0.9,0,0.9,0.5l-0.1,5.9c0,0.2,0.1,0.4,0.2,0.5l4.1,3.4c0.3,0.3,0.3,0.7,0.1,1c-0.1,0.1-0.1,0.1-0.2,0.2l-4.8,1.8
	c-0.2,0.1-0.3,0.2-0.4,0.4l-1.5,5.7c0,0.3-0.3,0.5-0.6,0.5c-0.2,0-0.3-0.1-0.4-0.3l-2.9-4.9c-0.1-0.2-0.3-0.3-0.5-0.3l-5.1,0.1
	c-0.4-0.1-0.6-0.4-0.5-0.8C1157.9,20.5,1158,20.4,1158,20.3z"/>
<linearGradient id="SVGID_51_" gradientUnits="userSpaceOnUse" x1="2134.9441" y1="-53.438" x2="2192.7542" y2="-1410.7881" gradientTransform="matrix(-0.8167 0.5771 0.5771 0.8167 2436.8569 -356.7868)">
	<stop  offset="0" style="stop-color:#F6AC07"/>
	<stop  offset="0.19" style="stop-color:#F8AF09;stop-opacity:0.79"/>
	<stop  offset="0.59" style="stop-color:#FCB50D;stop-opacity:0.37"/>
	<stop  offset="0.87" style="stop-color:#FEB90F;stop-opacity:0.1"/>
	<stop  offset="1" style="stop-color:#FFBA10;stop-opacity:0"/>
</linearGradient>
<path class="st51" d="M28.2,24.5l-0.3-5.7c0-0.2-0.1-0.4-0.3-0.5l-4.5-3.7c-0.4-0.4-0.3-1,0.1-1.1l5-1.2c0.2,0,0.3-0.2,0.4-0.4
	l1.3-5.2c0.2-0.5,0.7-0.5,1-0.1l3.3,4.9c0.1,0.2,0.3,0.3,0.5,0.3l5.3,0.4c0.4,0.1,0.6,0.4,0.7,0.8c0,0.1,0,0.1,0,0.3l-2.9,4.2
	c-0.1,0.2-0.1,0.3-0.1,0.6l2.1,5.5c0.2,0.2,0,0.6-0.2,0.8c-0.2,0.1-0.3,0.1-0.5,0L33.8,22c-0.2-0.1-0.4-0.1-0.6,0l-4.1,3
	c-0.4,0.1-0.7,0-0.9-0.4C28.2,24.7,28.3,24.6,28.2,24.5z"/>
<linearGradient id="SVGID_52_" gradientUnits="userSpaceOnUse" x1="1722.9323" y1="53.7374" x2="1780.7423" y2="-1303.6127" gradientTransform="matrix(0.2001 -0.9798 -0.9798 -0.2001 -500.9751 1551.6112)">
	<stop  offset="0" style="stop-color:#F6AC07"/>
	<stop  offset="0.19" style="stop-color:#F8AF09;stop-opacity:0.79"/>
	<stop  offset="0.59" style="stop-color:#FCB50D;stop-opacity:0.37"/>
	<stop  offset="0.87" style="stop-color:#FEB90F;stop-opacity:0.1"/>
	<stop  offset="1" style="stop-color:#FFBA10;stop-opacity:0"/>
</linearGradient>
<path class="st52" d="M806,6.8l4.1,3.9c0.1,0.1,0.3,0.2,0.6,0.2l5.8-0.4c0.6,0,0.9,0.5,0.7,0.9l-2.8,4.3c-0.1,0.1-0.1,0.4,0,0.6
	l2.6,4.7c0.2,0.5-0.2,0.8-0.7,0.8l-5.8-1.3c-0.2-0.1-0.4,0-0.6,0.1l-4.1,3.3c-0.4,0.2-0.7,0.1-1.1-0.1c-0.1-0.1-0.1-0.1-0.2-0.2
	l-0.8-5c-0.1-0.2-0.1-0.3-0.3-0.5l-5.3-2.6c-0.3,0-0.4-0.4-0.4-0.7c0.1-0.2,0.2-0.3,0.4-0.3l5.5-1.9c0.2-0.1,0.4-0.2,0.4-0.4l0.9-5
	C805.3,6.7,805.6,6.6,806,6.8C805.9,6.6,805.9,6.8,806,6.8z"/>
<g class="st0">
	
		<linearGradient id="SVGID_53_" gradientUnits="userSpaceOnUse" x1="1501.7814" y1="630.6307" x2="1559.7789" y2="-731.4336" gradientTransform="matrix(-1 0 0 1 2565.3462 849.7179)">
		<stop  offset="0" style="stop-color:#F6AC07"/>
		<stop  offset="0.19" style="stop-color:#F8AF09;stop-opacity:0.79"/>
		<stop  offset="0.59" style="stop-color:#FCB50D;stop-opacity:0.37"/>
		<stop  offset="0.87" style="stop-color:#FEB90F;stop-opacity:0.1"/>
		<stop  offset="1" style="stop-color:#FFBA10;stop-opacity:0"/>
	</linearGradient>
	<path class="st53" d="M1031.8,851.7l0.3-5.9c0-0.2-0.1-0.4-0.2-0.5l-4-3.6c-0.3-0.3-0.3-0.7,0-1c0.1-0.1,0.1-0.1,0.2-0.2l4.9-1.5
		c0.2-0.1,0.3-0.2,0.4-0.4l1.7-5.6c0-0.3,0.3-0.5,0.6-0.5c0.2,0,0.4,0.1,0.4,0.3l2.8,5c0.1,0.2,0.3,0.3,0.4,0.3l5.1,0.2
		c0.4,0.1,0.6,0.4,0.5,0.8c0,0.1,0,0.1-0.1,0.2l-3.2,4.6c-0.1,0.2-0.2,0.4-0.1,0.6l1.4,5.7c0.1,0.5-0.3,1-0.7,0.8l-4.7-2.1
		c-0.2-0.1-0.4-0.1-0.5,0.1l-4.2,3.4C1032.3,852.6,1031.7,852.3,1031.8,851.7z"/>
	
		<linearGradient id="SVGID_54_" gradientUnits="userSpaceOnUse" x1="1709.1128" y1="461.9919" x2="1750.4785" y2="-509.3416" gradientTransform="matrix(-1 0 0 1 2565.3462 849.7179)">
		<stop  offset="0" style="stop-color:#F6AC07"/>
		<stop  offset="0.19" style="stop-color:#F8AF09;stop-opacity:0.79"/>
		<stop  offset="0.59" style="stop-color:#FCB50D;stop-opacity:0.37"/>
		<stop  offset="0.87" style="stop-color:#FEB90F;stop-opacity:0.1"/>
		<stop  offset="1" style="stop-color:#FFBA10;stop-opacity:0"/>
	</linearGradient>
	<path class="st54" d="M839.9,886.8l-3.6-3.6c-0.1-0.1-0.3-0.1-0.5-0.1l-4.6,1.4c-0.4,0.1-0.8-0.4-0.6-0.8l1.8-5.1
		c0.1-0.2,0.1-0.4-0.1-0.6l-2.6-4.6c-0.2-0.4,0.1-0.9,0.5-0.9l4.7,0.4c0.1,0,0.4-0.1,0.4-0.2l3-4.3c0.1-0.2,0.4-0.3,0.6-0.1
		c0.1,0.1,0.2,0.2,0.2,0.4l1.1,5.4c0,0.2,0.1,0.4,0.3,0.4l4.4,2c0.3,0.1,0.4,0.6,0.2,0.9c-0.1,0.1-0.1,0.1-0.1,0.2l-4,2.9
		c-0.1,0.1-0.2,0.3-0.2,0.5l-0.3,5.5C840.7,886.9,840.2,887.2,839.9,886.8z"/>
	
		<linearGradient id="SVGID_55_" gradientUnits="userSpaceOnUse" x1="2342.5012" y1="461.9919" x2="2383.8667" y2="-509.3416" gradientTransform="matrix(-1 0 0 1 2565.3462 849.7179)">
		<stop  offset="0" style="stop-color:#F6AC07"/>
		<stop  offset="0.19" style="stop-color:#F8AF09;stop-opacity:0.79"/>
		<stop  offset="0.59" style="stop-color:#FCB50D;stop-opacity:0.37"/>
		<stop  offset="0.87" style="stop-color:#FEB90F;stop-opacity:0.1"/>
		<stop  offset="1" style="stop-color:#FFBA10;stop-opacity:0"/>
	</linearGradient>
	<path class="st55" d="M206.6,886.8l-3.6-3.6c-0.1-0.1-0.3-0.1-0.5-0.1l-4.6,1.4c-0.4,0.1-0.8-0.4-0.6-0.8l1.8-5.1
		c0.1-0.2,0.1-0.4-0.1-0.6l-2.6-4.6c-0.2-0.4,0.1-0.9,0.5-0.9l4.7,0.4c0.1,0,0.4-0.1,0.4-0.2l3-4.3c0.1-0.2,0.4-0.3,0.6-0.1
		c0.1,0.1,0.2,0.2,0.2,0.4l1.1,5.4c0,0.2,0.1,0.4,0.3,0.4l4.4,2c0.3,0.1,0.4,0.6,0.2,0.9c-0.1,0.1-0.1,0.1-0.1,0.2l-4,2.9
		c-0.1,0.1-0.2,0.3-0.2,0.5l-0.3,5.5C207.3,886.9,206.8,887.2,206.6,886.8z"/>
	
		<linearGradient id="SVGID_56_" gradientUnits="userSpaceOnUse" x1="1766.5157" y1="643.9252" x2="1824.5233" y2="-718.1388" gradientTransform="matrix(-1 0 0 1 2565.3462 849.7179)">
		<stop  offset="0" style="stop-color:#F6AC07"/>
		<stop  offset="0.19" style="stop-color:#F8AF09;stop-opacity:0.79"/>
		<stop  offset="0.59" style="stop-color:#FCB50D;stop-opacity:0.37"/>
		<stop  offset="0.87" style="stop-color:#FEB90F;stop-opacity:0.1"/>
		<stop  offset="1" style="stop-color:#FFBA10;stop-opacity:0"/>
	</linearGradient>
	<path class="st56" d="M765,816.6l0.3-5.9c0-0.2-0.1-0.4-0.2-0.5l-4-3.6c-0.3-0.3-0.3-0.7,0-1c0.1-0.1,0.1-0.1,0.2-0.2l4.9-1.5
		c0.2-0.1,0.3-0.2,0.4-0.4l1.7-5.6c0-0.3,0.3-0.5,0.6-0.5c0.2,0,0.4,0.1,0.4,0.3l2.8,5c0.1,0.2,0.3,0.3,0.4,0.3l5.1,0.2
		c0.4,0.1,0.6,0.4,0.5,0.8c0,0.1-0.1,0.2-0.1,0.3l-3.2,4.6c-0.1,0.2-0.2,0.4-0.1,0.6l1.4,5.7c0.1,0.5-0.3,1-0.7,0.8l-4.7-2.1
		c-0.2-0.1-0.4-0.1-0.5,0.1l-4.2,3.4C765.5,817.5,765,817.2,765,816.6z"/>
	
		<linearGradient id="SVGID_57_" gradientUnits="userSpaceOnUse" x1="1225.8158" y1="643.9261" x2="1283.8232" y2="-718.138" gradientTransform="matrix(-1 0 0 1 2565.3462 849.7179)">
		<stop  offset="0" style="stop-color:#F6AC07"/>
		<stop  offset="0.19" style="stop-color:#F8AF09;stop-opacity:0.79"/>
		<stop  offset="0.59" style="stop-color:#FCB50D;stop-opacity:0.37"/>
		<stop  offset="0.87" style="stop-color:#FEB90F;stop-opacity:0.1"/>
		<stop  offset="1" style="stop-color:#FFBA10;stop-opacity:0"/>
	</linearGradient>
	<path class="st57" d="M1305.7,816.6l0.3-5.9c0-0.2-0.1-0.4-0.2-0.5l-4-3.6c-0.3-0.3-0.3-0.7,0-1c0.1-0.1,0.1-0.1,0.2-0.2l4.9-1.5
		c0.2-0.1,0.3-0.2,0.4-0.4l1.7-5.6c0-0.3,0.3-0.5,0.6-0.5c0.2,0,0.4,0.1,0.4,0.3l2.8,5c0.1,0.2,0.3,0.3,0.4,0.3l5.1,0.2
		c0.4,0.1,0.6,0.4,0.5,0.8c0,0.1-0.1,0.2-0.1,0.3l-3.2,4.6c-0.1,0.2-0.2,0.4-0.1,0.6l1.4,5.7c0.1,0.5-0.3,1-0.7,0.8l-4.7-2.1
		c-0.2-0.1-0.4-0.1-0.5,0.1l-4.2,3.4C1306.2,817.5,1305.7,817.2,1305.7,816.6z"/>
	
		<linearGradient id="SVGID_58_" gradientUnits="userSpaceOnUse" x1="1695.2451" y1="382.0825" x2="1753.2529" y2="-979.9816" gradientTransform="matrix(-1 0 0 1 2565.3462 849.7179)">
		<stop  offset="0" style="stop-color:#F6AC07"/>
		<stop  offset="0.19" style="stop-color:#F8AF09;stop-opacity:0.79"/>
		<stop  offset="0.59" style="stop-color:#FCB50D;stop-opacity:0.37"/>
		<stop  offset="0.87" style="stop-color:#FEB90F;stop-opacity:0.1"/>
		<stop  offset="1" style="stop-color:#FFBA10;stop-opacity:0"/>
	</linearGradient>
	<path class="st58" d="M836.3,554.8l0.3-5.9c0-0.2-0.1-0.4-0.2-0.5l-4-3.6c-0.3-0.3-0.3-0.7,0-1c0.1-0.1,0.1-0.1,0.2-0.2l4.9-1.5
		c0.2-0.1,0.3-0.2,0.4-0.4l1.7-5.6c0-0.3,0.3-0.5,0.6-0.5c0.2,0,0.4,0.1,0.4,0.3l2.8,5c0.1,0.2,0.3,0.3,0.4,0.3l5.1,0.2
		c0.4,0.1,0.6,0.4,0.5,0.8c0,0.1-0.1,0.2-0.1,0.3l-3.2,4.6c-0.1,0.2-0.2,0.4-0.1,0.6l1.4,5.7c0.1,0.5-0.3,1-0.7,0.8l-4.7-2.1
		c-0.2-0.1-0.4-0.1-0.5,0.1l-4.2,3.4C836.8,555.7,836.3,555.4,836.3,554.8z"/>
	
		<linearGradient id="SVGID_59_" gradientUnits="userSpaceOnUse" x1="1398.8115" y1="624.1553" x2="1456.6987" y2="-735.0696" gradientTransform="matrix(-1 0 0 1 2565.3462 849.7179)">
		<stop  offset="0" style="stop-color:#F6AC07"/>
		<stop  offset="0.19" style="stop-color:#F8AF09;stop-opacity:0.79"/>
		<stop  offset="0.59" style="stop-color:#FCB50D;stop-opacity:0.37"/>
		<stop  offset="0.87" style="stop-color:#FEB90F;stop-opacity:0.1"/>
		<stop  offset="1" style="stop-color:#FFBA10;stop-opacity:0"/>
	</linearGradient>
	<path class="st59" d="M1147.5,841.5l-5.1-0.1c-0.2,0-0.4,0.1-0.5,0.3l-2.9,4.9c-0.1,0.3-0.4,0.4-0.7,0.3c-0.2-0.1-0.3-0.3-0.3-0.5
		l-1.5-5.7c0-0.2-0.2-0.3-0.4-0.4l-4.8-1.8c-0.3-0.2-0.5-0.6-0.3-0.9c0-0.1,0.1-0.2,0.2-0.2l4.2-3.4c0.2-0.1,0.2-0.3,0.2-0.5v-6
		c0-0.5,0.5-0.9,0.9-0.5l4,3.6c0.1,0.1,0.3,0.2,0.5,0.1l4.8-1.9c0.4-0.2,0.8,0.3,0.7,0.8l-1.6,5.6c-0.1,0.2,0,0.4,0.1,0.6l3,4.8
		c0.2,0.3,0.1,0.7-0.1,0.9C1147.7,841.5,1147.6,841.5,1147.5,841.5z"/>
	
		<linearGradient id="SVGID_60_" gradientUnits="userSpaceOnUse" x1="1314.0208" y1="620.9158" x2="1371.9983" y2="-740.5967" gradientTransform="matrix(-1 0 0 1 2565.3462 849.7179)">
		<stop  offset="0" style="stop-color:#F6AC07"/>
		<stop  offset="0.19" style="stop-color:#F8AF09;stop-opacity:0.79"/>
		<stop  offset="0.59" style="stop-color:#FCB50D;stop-opacity:0.37"/>
		<stop  offset="0.87" style="stop-color:#FEB90F;stop-opacity:0.1"/>
		<stop  offset="1" style="stop-color:#FFBA10;stop-opacity:0"/>
	</linearGradient>
	<path class="st60" d="M1226.8,882l-4.4-6.8c-0.1-0.2-0.4-0.4-0.7-0.4l-7.3,0.3c-0.5-0.1-0.9-0.5-0.8-1c0-0.2,0.1-0.3,0.2-0.4l4.2-7
		c0.1-0.3,0.2-0.6,0.1-0.9l-2.5-8c-0.2-0.7,0.3-1.4,1-1.2l6.9,2.5c0.3,0.1,0.5,0,0.7-0.2l5.7-5.3c0.5-0.5,1.3-0.1,1.3,0.7l0.1,8.5
		c0,0.3,0.1,0.6,0.4,0.8l6,4.7c0.4,0.4,0.5,1,0.1,1.4c-0.1,0.1-0.2,0.2-0.3,0.2l-6.9,2.7c-0.3,0.1-0.4,0.3-0.5,0.6l-2,8.2
		c0,0.4-0.4,0.7-0.8,0.7C1227.1,882.3,1226.9,882.2,1226.8,882z"/>
	
		<linearGradient id="SVGID_61_" gradientUnits="userSpaceOnUse" x1="1600.3663" y1="635.4319" x2="1658.3539" y2="-726.3214" gradientTransform="matrix(-1 0 0 1 2565.3462 849.7179)">
		<stop  offset="0" style="stop-color:#F6AC07"/>
		<stop  offset="0.19" style="stop-color:#F8AF09;stop-opacity:0.79"/>
		<stop  offset="0.59" style="stop-color:#FCB50D;stop-opacity:0.37"/>
		<stop  offset="0.87" style="stop-color:#FEB90F;stop-opacity:0.1"/>
		<stop  offset="1" style="stop-color:#FFBA10;stop-opacity:0"/>
	</linearGradient>
	<path class="st61" d="M927.5,803.5l3-4.8c0.1-0.2,0.1-0.4,0.1-0.6l-1.6-5.6c-0.2-0.5,0.3-1,0.7-0.8l4.8,1.9c0.2,0.1,0.4,0,0.5-0.1
		l4.1-3.6c0.4-0.3,0.9,0,0.9,0.5l-0.1,5.9c0,0.2,0.1,0.4,0.2,0.5l4.2,3.4c0.3,0.3,0.3,0.7,0,1c-0.1,0.1-0.1,0.1-0.2,0.2l-4.9,1.8
		c-0.2,0.1-0.3,0.2-0.4,0.4l-1.5,5.7c0,0.3-0.3,0.5-0.5,0.5s-0.4-0.1-0.5-0.3l-2.9-4.9c-0.1-0.2-0.3-0.3-0.5-0.3l-5.1,0.1
		c-0.4-0.1-0.6-0.4-0.5-0.8C927.4,803.7,927.4,803.6,927.5,803.5z"/>
</g>
<g class="st0">
	
		<linearGradient id="SVGID_62_" gradientUnits="userSpaceOnUse" x1="2272.7666" y1="619.9079" x2="2330.7642" y2="-742.1566" gradientTransform="matrix(-1 0 0 1 2565.3462 849.7179)">
		<stop  offset="0" style="stop-color:#F6AC07"/>
		<stop  offset="0.19" style="stop-color:#F8AF09;stop-opacity:0.79"/>
		<stop  offset="0.59" style="stop-color:#FCB50D;stop-opacity:0.37"/>
		<stop  offset="0.87" style="stop-color:#FEB90F;stop-opacity:0.1"/>
		<stop  offset="1" style="stop-color:#FFBA10;stop-opacity:0"/>
	</linearGradient>
	<path class="st62" d="M257.9,773.2l0.3-5.9c0-0.2-0.1-0.4-0.2-0.6l-4-3.6c-0.3-0.3-0.3-0.7,0-1c0.1-0.1,0.1-0.1,0.2-0.2l4.9-1.5
		c0.2-0.1,0.3-0.2,0.4-0.4l1.7-5.6c0-0.3,0.3-0.5,0.6-0.5c0.2,0,0.4,0.1,0.4,0.3l2.8,5c0.1,0.2,0.3,0.3,0.5,0.3l5.1,0.2
		c0.4,0.1,0.6,0.4,0.5,0.8c0,0.1,0,0.1-0.1,0.2l-3.2,4.6c-0.1,0.2-0.1,0.4-0.1,0.6l1.4,5.7c0.1,0.5-0.3,1-0.7,0.8l-4.7-2.1
		c-0.2-0.1-0.4,0-0.5,0.1l-4.2,3.4C258.4,774.1,257.9,773.8,257.9,773.2z"/>
	
		<linearGradient id="SVGID_63_" gradientUnits="userSpaceOnUse" x1="2476.9412" y1="673.3085" x2="2534.9387" y2="-688.756" gradientTransform="matrix(-1 0 0 1 2565.3462 849.7179)">
		<stop  offset="0" style="stop-color:#F6AC07"/>
		<stop  offset="0.19" style="stop-color:#F8AF09;stop-opacity:0.79"/>
		<stop  offset="0.59" style="stop-color:#FCB50D;stop-opacity:0.37"/>
		<stop  offset="0.87" style="stop-color:#FEB90F;stop-opacity:0.1"/>
		<stop  offset="1" style="stop-color:#FFBA10;stop-opacity:0"/>
	</linearGradient>
	<path class="st63" d="M53.7,826.6l0.3-5.9c0-0.2-0.1-0.4-0.2-0.6l-4-3.6c-0.3-0.3-0.3-0.7,0-1c0.1-0.1,0.1-0.1,0.2-0.2l4.9-1.5
		c0.2-0.1,0.3-0.2,0.4-0.4l1.7-5.6c0-0.3,0.3-0.5,0.6-0.5c0.2,0,0.4,0.1,0.4,0.3l2.8,5c0.1,0.2,0.3,0.3,0.5,0.3l5.1,0.2
		c0.4,0.1,0.6,0.4,0.5,0.8c0,0.1,0,0.1-0.1,0.2l-3.2,4.6c-0.1,0.2-0.1,0.4-0.1,0.6l1.4,5.7c0.1,0.5-0.3,1-0.7,0.8l-4.7-2.1
		c-0.2-0.1-0.4,0-0.5,0.1l-4.2,3.4C54.2,827.5,53.7,827.2,53.7,826.6z"/>
	
		<linearGradient id="SVGID_64_" gradientUnits="userSpaceOnUse" x1="2385.6777" y1="421.4231" x2="2443.6753" y2="-940.6415" gradientTransform="matrix(-1 0 0 1 2565.3462 849.7179)">
		<stop  offset="0" style="stop-color:#F6AC07"/>
		<stop  offset="0.19" style="stop-color:#F8AF09;stop-opacity:0.79"/>
		<stop  offset="0.59" style="stop-color:#FCB50D;stop-opacity:0.37"/>
		<stop  offset="0.87" style="stop-color:#FEB90F;stop-opacity:0.1"/>
		<stop  offset="1" style="stop-color:#FFBA10;stop-opacity:0"/>
	</linearGradient>
	<path class="st64" d="M145,574.7l0.3-5.9c0-0.2-0.1-0.4-0.2-0.6l-4-3.6c-0.3-0.3-0.3-0.7,0-1c0.1-0.1,0.1-0.1,0.2-0.2l4.9-1.5
		c0.2-0.1,0.3-0.2,0.4-0.4l1.7-5.6c0-0.3,0.3-0.5,0.6-0.5c0.2,0,0.4,0.1,0.4,0.3l2.8,5c0.1,0.2,0.3,0.3,0.5,0.3l5.1,0.2
		c0.4,0.1,0.6,0.4,0.5,0.8c0,0.1,0,0.1-0.1,0.2l-3.2,4.6c-0.1,0.2-0.1,0.4-0.1,0.6l1.4,5.7c0.1,0.5-0.3,1-0.7,0.8l-4.7-2.1
		c-0.2-0.1-0.4,0-0.5,0.1l-4.2,3.4C145.5,575.6,145,575.3,145,574.7z"/>
	
		<linearGradient id="SVGID_65_" gradientUnits="userSpaceOnUse" x1="1999.1229" y1="654.1227" x2="2057.0103" y2="-705.1124" gradientTransform="matrix(-1 0 0 1 2565.3462 849.7179)">
		<stop  offset="0" style="stop-color:#F6AC07"/>
		<stop  offset="0.19" style="stop-color:#F8AF09;stop-opacity:0.79"/>
		<stop  offset="0.59" style="stop-color:#FCB50D;stop-opacity:0.37"/>
		<stop  offset="0.87" style="stop-color:#FEB90F;stop-opacity:0.1"/>
		<stop  offset="1" style="stop-color:#FFBA10;stop-opacity:0"/>
	</linearGradient>
	<path class="st65" d="M545.5,830.6l-5.1-0.1c-0.2,0-0.4,0.1-0.5,0.3l-2.9,4.9c-0.1,0.3-0.4,0.4-0.7,0.3c-0.2-0.1-0.3-0.3-0.3-0.5
		l-1.5-5.7c0-0.2-0.2-0.4-0.4-0.4l-4.8-1.8c-0.3-0.2-0.5-0.6-0.3-0.9c0-0.1,0.1-0.2,0.2-0.2l4.2-3.4c0.2-0.1,0.2-0.3,0.2-0.5l-0.1-6
		c0-0.5,0.5-0.8,0.9-0.5l4.1,3.6c0.1,0.1,0.3,0.2,0.5,0.1l4.8-1.9c0.4-0.2,0.8,0.3,0.7,0.8l-1.7,5.6c-0.1,0.2,0,0.4,0.1,0.6l3,4.8
		c0.2,0.3,0.1,0.7-0.2,0.9C545.7,830.5,545.6,830.5,545.5,830.6z"/>
	
		<linearGradient id="SVGID_66_" gradientUnits="userSpaceOnUse" x1="1894.8893" y1="650.0297" x2="1952.8669" y2="-711.473" gradientTransform="matrix(-1 0 0 1 2565.3462 849.7179)">
		<stop  offset="0" style="stop-color:#F6AC07"/>
		<stop  offset="0.19" style="stop-color:#F8AF09;stop-opacity:0.79"/>
		<stop  offset="0.59" style="stop-color:#FCB50D;stop-opacity:0.37"/>
		<stop  offset="0.87" style="stop-color:#FEB90F;stop-opacity:0.1"/>
		<stop  offset="1" style="stop-color:#FFBA10;stop-opacity:0"/>
	</linearGradient>
	<path class="st66" d="M641.8,814.1l-4.4-6.8c-0.1-0.2-0.4-0.4-0.7-0.4l-7.3,0.3c-0.5-0.1-0.9-0.5-0.8-1c0-0.2,0.1-0.3,0.2-0.4
		l4.2-7c0.2-0.3,0.2-0.6,0.1-0.9l-2.5-8c-0.2-0.7,0.3-1.4,1-1.2l6.9,2.5c0.3,0.1,0.5,0,0.7-0.2l5.7-5.3c0.5-0.5,1.3-0.1,1.3,0.7
		l0.1,8.5c0,0.3,0.1,0.6,0.4,0.8l6,4.7c0.4,0.4,0.5,1,0.1,1.4c-0.1,0.1-0.2,0.2-0.3,0.2l-6.9,2.8c-0.3,0.1-0.4,0.3-0.5,0.6l-2,8.2
		c0,0.4-0.4,0.7-0.8,0.7C642.1,814.4,641.9,814.3,641.8,814.1z"/>
	
		<linearGradient id="SVGID_67_" gradientUnits="userSpaceOnUse" x1="2185.2273" y1="568.2961" x2="2243.2151" y2="-793.457" gradientTransform="matrix(-1 0 0 1 2565.3462 849.7179)">
		<stop  offset="0" style="stop-color:#F6AC07"/>
		<stop  offset="0.19" style="stop-color:#F8AF09;stop-opacity:0.79"/>
		<stop  offset="0.59" style="stop-color:#FCB50D;stop-opacity:0.37"/>
		<stop  offset="0.87" style="stop-color:#FEB90F;stop-opacity:0.1"/>
		<stop  offset="1" style="stop-color:#FFBA10;stop-opacity:0"/>
	</linearGradient>
	<path class="st67" d="M342.2,724.1l3-4.8c0.1-0.2,0.1-0.4,0.1-0.6l-1.6-5.6c-0.2-0.5,0.3-1,0.7-0.8l4.8,1.9c0.2,0.1,0.4,0,0.5-0.1
		l4.1-3.6c0.4-0.3,0.9,0,0.9,0.5l-0.1,6c0,0.2,0.1,0.4,0.2,0.5l4.1,3.5c0.3,0.3,0.3,0.7,0,1c-0.1,0.1-0.1,0.1-0.2,0.2l-4.9,1.8
		c-0.2,0.1-0.3,0.2-0.4,0.4l-1.5,5.7c0,0.3-0.3,0.5-0.5,0.5s-0.4-0.1-0.5-0.3l-2.9-4.9c-0.1-0.2-0.3-0.3-0.5-0.3l-5.1,0.1
		c-0.4-0.1-0.6-0.4-0.5-0.8C342.1,724.3,342.2,724.2,342.2,724.1z"/>
</g>
<linearGradient id="SVGID_68_" gradientUnits="userSpaceOnUse" x1="1918.7312" y1="743.8692" x2="1976.3713" y2="-609.7906" gradientTransform="matrix(-1 0 0 1 2565.3462 849.7179)">
	<stop  offset="0" style="stop-color:#F6AC07"/>
	<stop  offset="0.19" style="stop-color:#F8AF09;stop-opacity:0.79"/>
	<stop  offset="0.59" style="stop-color:#FCB50D;stop-opacity:0.37"/>
	<stop  offset="0.87" style="stop-color:#FEB90F;stop-opacity:0.1"/>
	<stop  offset="1" style="stop-color:#FFBA10;stop-opacity:0"/>
</linearGradient>
<path class="st68" d="M612.5,646.8l-0.9,5.8c0,0.2,0,0.4,0.1,0.6l3.6,4.2c0.2,0.3,0.2,0.7-0.1,0.9c-0.1,0.1-0.2,0.1-0.3,0.1l-5,0.8
	c-0.2,0-0.3,0.2-0.4,0.3l-2.3,5.3c-0.1,0.3-0.3,0.5-0.6,0.4c-0.2,0-0.4-0.2-0.4-0.4l-2.2-5.4c-0.1-0.2-0.2-0.3-0.4-0.4l-5-1
	c-0.4-0.1-0.6-0.5-0.5-0.9c0-0.1,0.1-0.2,0.2-0.3l3.7-4c0.1-0.2,0.2-0.4,0.2-0.6l-0.8-5.9c-0.1-0.5,0.4-0.9,0.8-0.7l4.4,2.8
	c0.2,0.1,0.4,0.1,0.5,0l4.5-2.7C612.1,645.9,612.6,646.3,612.5,646.8z"/>
<linearGradient id="SVGID_69_" gradientUnits="userSpaceOnUse" x1="1410.5615" y1="573.392" x2="1468.3015" y2="-782.4581" gradientTransform="matrix(-1 0 0 1 2565.3462 849.7179)">
	<stop  offset="0" style="stop-color:#F6AC07"/>
	<stop  offset="0.19" style="stop-color:#F8AF09;stop-opacity:0.79"/>
	<stop  offset="0.59" style="stop-color:#FCB50D;stop-opacity:0.37"/>
	<stop  offset="0.87" style="stop-color:#FEB90F;stop-opacity:0.1"/>
	<stop  offset="1" style="stop-color:#FFBA10;stop-opacity:0"/>
</linearGradient>
<path class="st69" d="M1117.3,575.2l3.6,4.2c0.1,0.1,0.3,0.2,0.5,0.2l5-1.2c0.4-0.1,0.8,0.4,0.6,0.9l-2.2,5.3
	c-0.1,0.2-0.1,0.4,0,0.6l2.5,5.2c0.2,0.5-0.1,1-0.5,1l-5-0.9c-0.2,0-0.4,0.1-0.5,0.2l-3.4,4.4c-0.2,0.2-0.5,0.3-0.7,0.1
	c-0.1-0.1-0.2-0.2-0.2-0.4l-0.9-5.8c0-0.2-0.1-0.4-0.3-0.5l-4.6-2.5c-0.3-0.2-0.4-0.6-0.2-1c0.1-0.1,0.1-0.1,0.2-0.2l4.5-2.8
	c0.2-0.1,0.3-0.3,0.3-0.5l0.6-5.9c0-0.3,0.2-0.5,0.5-0.6C1117.1,575.1,1117.2,575.1,1117.3,575.2z"/>
<linearGradient id="SVGID_70_" gradientUnits="userSpaceOnUse" x1="1808.2881" y1="662.5391" x2="1866.0281" y2="-693.3711" gradientTransform="matrix(-1 0 0 1 2565.3462 849.7179)">
	<stop  offset="0" style="stop-color:#F6AC07"/>
	<stop  offset="0.19" style="stop-color:#F8AF09;stop-opacity:0.79"/>
	<stop  offset="0.59" style="stop-color:#FCB50D;stop-opacity:0.37"/>
	<stop  offset="0.87" style="stop-color:#FEB90F;stop-opacity:0.1"/>
	<stop  offset="1" style="stop-color:#FFBA10;stop-opacity:0"/>
</linearGradient>
<path class="st70" d="M714.6,687.2l5,0.9c0.2,0,0.4,0,0.5-0.2l3.5-4.3c0.2-0.2,0.5-0.3,0.7-0.1c0.1,0.1,0.2,0.3,0.2,0.4l0.8,5.9
	c0,0.2,0.1,0.4,0.3,0.5l4.6,2.5c0.3,0.2,0.4,0.7,0.2,1c-0.1,0.1-0.1,0.1-0.2,0.2l-4.5,2.7c-0.2,0.1-0.3,0.3-0.3,0.5l-0.6,5.9
	c0,0.3-0.2,0.5-0.5,0.6c-0.2,0-0.3-0.1-0.4-0.2l-3.6-4.2c-0.1-0.1-0.3-0.2-0.5-0.2l-5,1.1c-0.5,0.1-0.8-0.4-0.6-0.9l2.3-5.3
	c0.1-0.2,0.1-0.4,0-0.6l-2.4-5.2C713.8,687.7,714.1,687.1,714.6,687.2z"/>
<linearGradient id="SVGID_71_" gradientUnits="userSpaceOnUse" x1="1663.3567" y1="611.5994" x2="1720.9868" y2="-741.7406" gradientTransform="matrix(-1 0 0 1 2565.3462 849.7179)">
	<stop  offset="0" style="stop-color:#F6AC07"/>
	<stop  offset="0.19" style="stop-color:#F8AF09;stop-opacity:0.79"/>
	<stop  offset="0.59" style="stop-color:#FCB50D;stop-opacity:0.37"/>
	<stop  offset="0.87" style="stop-color:#FEB90F;stop-opacity:0.1"/>
	<stop  offset="1" style="stop-color:#FFBA10;stop-opacity:0"/>
</linearGradient>
<path class="st71" d="M875.9,653.6l-3.6,4.2c-0.1,0.2-0.2,0.4-0.1,0.6l1,5.8c0.1,0.5-0.4,0.9-0.8,0.7l-4.5-2.7
	c-0.2-0.1-0.4-0.1-0.5,0l-4.4,2.9c-0.4,0.3-0.9-0.1-0.8-0.7l0.8-5.9c0-0.2,0-0.4-0.2-0.6l-3.7-4.1c-0.3-0.3-0.2-0.7,0.1-1
	c0.1-0.1,0.1-0.1,0.2-0.1l5-1c0.2,0,0.3-0.2,0.4-0.4l2.2-5.4c0.1-0.3,0.4-0.4,0.6-0.4c0.2,0,0.3,0.2,0.4,0.4l2.3,5.3
	c0.1,0.2,0.2,0.3,0.4,0.3l5,0.7c0.4,0.1,0.6,0.4,0.5,0.8C876,653.4,876,653.5,875.9,653.6z"/>
<linearGradient id="SVGID_72_" gradientUnits="userSpaceOnUse" x1="2055.5193" y1="656.6396" x2="2113.3594" y2="-701.5605" gradientTransform="matrix(-1 0 0 1 2565.3462 849.7179)">
	<stop  offset="0" style="stop-color:#F6AC07"/>
	<stop  offset="0.19" style="stop-color:#F8AF09;stop-opacity:0.79"/>
	<stop  offset="0.59" style="stop-color:#FCB50D;stop-opacity:0.37"/>
	<stop  offset="0.87" style="stop-color:#FEB90F;stop-opacity:0.1"/>
	<stop  offset="1" style="stop-color:#FFBA10;stop-opacity:0"/>
</linearGradient>
<path class="st72" d="M476.2,706.1l2.5,5.2c0.1,0.2,0.2,0.3,0.4,0.3l5,0.5c0.4,0.1,0.6,0.5,0.5,0.8c0,0.1-0.1,0.2-0.1,0.3l-3.4,4.4
	c-0.1,0.2-0.2,0.4-0.1,0.6l1.1,5.8c0.1,0.5-0.3,1-0.8,0.7l-4.6-2.5c-0.2-0.1-0.4-0.1-0.5,0l-4.3,3c-0.4,0.3-0.9-0.1-0.8-0.6l0.6-5.9
	c0-0.2,0-0.4-0.2-0.6l-3.8-3.9c-0.3-0.3-0.3-0.7,0-1c0.1-0.1,0.1-0.1,0.2-0.1l5-1.2c0.2-0.1,0.3-0.2,0.4-0.4l2-5.5
	c0.1-0.3,0.4-0.4,0.7-0.2C476.1,705.9,476.2,706,476.2,706.1z"/>
<linearGradient id="SVGID_73_" gradientUnits="userSpaceOnUse" x1="2118.9839" y1="990.2938" x2="2176.8232" y2="-367.8988" gradientTransform="matrix(-1 0 0 1 2565.3462 849.7179)">
	<stop  offset="0" style="stop-color:#F6AC07"/>
	<stop  offset="0.19" style="stop-color:#F8AF09;stop-opacity:0.79"/>
	<stop  offset="0.59" style="stop-color:#FCB50D;stop-opacity:0.37"/>
	<stop  offset="0.87" style="stop-color:#FEB90F;stop-opacity:0.1"/>
	<stop  offset="1" style="stop-color:#FFBA10;stop-opacity:0"/>
</linearGradient>
<path class="st73" d="M403.2,814.9l2.5,5.2c0.1,0.2,0.2,0.3,0.4,0.3l5,0.5c0.4,0.1,0.6,0.4,0.5,0.8c0,0.1-0.1,0.2-0.1,0.3l-3.4,4.4
	c-0.1,0.2-0.2,0.4-0.1,0.6l1.1,5.8c0.1,0.5-0.3,1-0.8,0.7l-4.6-2.5c-0.2-0.1-0.4-0.1-0.5,0l-4.3,3c-0.4,0.3-0.9-0.1-0.8-0.6l0.6-5.9
	c0-0.2,0-0.4-0.2-0.6l-3.8-3.9c-0.3-0.3-0.3-0.7,0-1c0.1-0.1,0.1-0.1,0.2-0.1l5-1.2c0.2-0.1,0.3-0.2,0.4-0.4l2-5.5
	c0.1-0.3,0.3-0.5,0.6-0.4C403,814.5,403.2,814.7,403.2,814.9z"/>
<linearGradient id="SVGID_74_" gradientUnits="userSpaceOnUse" x1="2411.4441" y1="661.0106" x2="2469.1641" y2="-694.3395" gradientTransform="matrix(-1 0 0 1 2565.3462 849.7179)">
	<stop  offset="0" style="stop-color:#F6AC07"/>
	<stop  offset="0.19" style="stop-color:#F8AF09;stop-opacity:0.79"/>
	<stop  offset="0.59" style="stop-color:#FCB50D;stop-opacity:0.37"/>
	<stop  offset="0.87" style="stop-color:#FEB90F;stop-opacity:0.1"/>
	<stop  offset="1" style="stop-color:#FFBA10;stop-opacity:0"/>
</linearGradient>
<path class="st74" d="M112.2,720.5l4.3-3.1c0.2-0.1,0.3-0.3,0.3-0.5l0.3-5.9c0-0.5,0.6-0.8,0.9-0.5l3.8,3.9c0.1,0.1,0.3,0.2,0.5,0.1
	l4.9-1.5c0.4-0.1,0.8,0.4,0.7,0.9l-2,5.5c-0.1,0.2-0.1,0.4,0,0.6l2.8,5c0.2,0.3,0.1,0.7-0.2,0.9c-0.1,0.1-0.2,0.1-0.3,0.1l-5-0.5
	c-0.2,0-0.4,0.1-0.5,0.2l-3.2,4.6c-0.1,0.3-0.5,0.4-0.7,0.2c-0.2-0.1-0.3-0.3-0.3-0.5l-1.2-5.8c0-0.2-0.2-0.4-0.3-0.5l-4.7-2.1
	c-0.3-0.2-0.5-0.6-0.3-0.9C112.1,720.7,112.1,720.6,112.2,720.5z"/>
<linearGradient id="SVGID_75_" gradientUnits="userSpaceOnUse" x1="2504.1851" y1="650.8785" x2="2561.905" y2="-704.4716" gradientTransform="matrix(-1 0 0 1 2565.3462 849.7179)">
	<stop  offset="0" style="stop-color:#F6AC07"/>
	<stop  offset="0.19" style="stop-color:#F8AF09;stop-opacity:0.79"/>
	<stop  offset="0.59" style="stop-color:#FCB50D;stop-opacity:0.37"/>
	<stop  offset="0.87" style="stop-color:#FEB90F;stop-opacity:0.1"/>
	<stop  offset="1" style="stop-color:#FFBA10;stop-opacity:0"/>
</linearGradient>
<path class="st75" d="M19.5,710.4l4.3-3.1c0.2-0.1,0.3-0.3,0.3-0.5l0.3-5.9c0-0.5,0.6-0.8,0.9-0.5l3.8,3.9c0.1,0.1,0.3,0.2,0.5,0.1
	l4.9-1.5c0.4-0.1,0.8,0.4,0.7,0.9l-2,5.5c-0.1,0.2-0.1,0.4,0,0.6l2.8,5c0.2,0.3,0.1,0.7-0.2,0.9c-0.1,0.1-0.2,0.1-0.3,0.1l-5-0.5
	c-0.2,0-0.4,0.1-0.5,0.2l-3.2,4.6c-0.1,0.3-0.5,0.4-0.7,0.2c-0.2-0.1-0.3-0.3-0.3-0.5l-1.2-5.8c0-0.2-0.2-0.4-0.3-0.5l-4.7-2.1
	c-0.3-0.2-0.5-0.6-0.3-0.9C19.4,710.6,19.4,710.5,19.5,710.4z"/>
<linearGradient id="SVGID_76_" gradientUnits="userSpaceOnUse" x1="2001.9424" y1="653.9207" x2="2059.7622" y2="-703.9696" gradientTransform="matrix(-1 0 0 1 2565.3462 849.7179)">
	<stop  offset="0" style="stop-color:#F6AC07"/>
	<stop  offset="0.19" style="stop-color:#F8AF09;stop-opacity:0.79"/>
	<stop  offset="0.59" style="stop-color:#FCB50D;stop-opacity:0.37"/>
	<stop  offset="0.87" style="stop-color:#FEB90F;stop-opacity:0.1"/>
	<stop  offset="1" style="stop-color:#FFBA10;stop-opacity:0"/>
</linearGradient>
<path class="st76" d="M529.9,596.1l-0.4,5.9c0,0.2,0.1,0.4,0.2,0.5l3.9,3.7c0.3,0.3,0.3,0.7,0,1c-0.1,0.1-0.1,0.1-0.2,0.2l-4.9,1.4
	c-0.2,0.1-0.3,0.2-0.4,0.4l-1.8,5.5c0,0.3-0.3,0.5-0.6,0.4c-0.2,0-0.3-0.2-0.4-0.3l-2.6-5.1c-0.1-0.2-0.3-0.3-0.4-0.3l-5.1-0.3
	c-0.4-0.1-0.6-0.4-0.5-0.8c0-0.1,0.1-0.2,0.1-0.3l3.3-4.5c0.1-0.2,0.2-0.4,0.1-0.6l-1.3-5.7c-0.1-0.5,0.3-1,0.7-0.8l4.7,2.3
	c0.2,0.1,0.4,0.1,0.5,0l4.2-3.3C529.5,595.2,530,595.5,529.9,596.1z"/>
<linearGradient id="SVGID_77_" gradientUnits="userSpaceOnUse" x1="2273.3398" y1="695.4777" x2="2331.1599" y2="-662.4124" gradientTransform="matrix(-1 0 0 1 2565.3462 849.7179)">
	<stop  offset="0" style="stop-color:#F6AC07"/>
	<stop  offset="0.19" style="stop-color:#F8AF09;stop-opacity:0.79"/>
	<stop  offset="0.59" style="stop-color:#FCB50D;stop-opacity:0.37"/>
	<stop  offset="0.87" style="stop-color:#FEB90F;stop-opacity:0.1"/>
	<stop  offset="1" style="stop-color:#FFBA10;stop-opacity:0"/>
</linearGradient>
<path class="st77" d="M258.5,637.6l-0.4,5.9c0,0.2,0.1,0.4,0.2,0.5l3.9,3.7c0.3,0.3,0.3,0.7,0,1c-0.1,0.1-0.1,0.1-0.2,0.2l-4.9,1.4
	c-0.2,0.1-0.3,0.2-0.4,0.4l-1.8,5.5c0,0.3-0.3,0.5-0.6,0.4c-0.2,0-0.3-0.2-0.4-0.3l-2.6-5.1c-0.1-0.2-0.3-0.3-0.4-0.3l-5.1-0.3
	c-0.4-0.1-0.6-0.4-0.5-0.8c0-0.1,0.1-0.2,0.1-0.3l3.3-4.5c0.1-0.2,0.2-0.4,0.1-0.6l-1.3-5.7c-0.1-0.5,0.3-1,0.7-0.8l4.7,2.3
	c0.2,0.1,0.4,0.1,0.5,0l4.2-3.3C258,636.7,258.5,637.1,258.5,637.6z"/>
<linearGradient id="SVGID_78_" gradientUnits="userSpaceOnUse" x1="1390.4086" y1="646.4211" x2="1448.2186" y2="-711.2388" gradientTransform="matrix(-1 0 0 1 2565.3462 849.7179)">
	<stop  offset="0" style="stop-color:#F6AC07"/>
	<stop  offset="0.19" style="stop-color:#F8AF09;stop-opacity:0.79"/>
	<stop  offset="0.59" style="stop-color:#FCB50D;stop-opacity:0.37"/>
	<stop  offset="0.87" style="stop-color:#FEB90F;stop-opacity:0.1"/>
	<stop  offset="1" style="stop-color:#FFBA10;stop-opacity:0"/>
</linearGradient>
<path class="st78" d="M1135.1,675.9l0.3-5.9c0-0.2-0.1-0.4-0.2-0.5l-4-3.6c-0.3-0.3-0.3-0.7,0-1c0.1-0.1,0.1-0.1,0.2-0.2l4.8-1.6
	c0.2-0.1,0.3-0.2,0.4-0.4l1.7-5.6c0-0.3,0.3-0.5,0.6-0.5c0.2,0,0.4,0.1,0.4,0.3l2.8,5c0.1,0.2,0.3,0.3,0.4,0.3l5.1,0.2
	c0.4,0.1,0.6,0.4,0.5,0.8c0,0.1-0.1,0.2-0.1,0.3l-3.2,4.6c-0.1,0.2-0.2,0.4-0.1,0.6l1.4,5.7c0.1,0.5-0.3,1-0.7,0.8l-4.7-2.1
	c-0.2-0.1-0.4,0-0.5,0.1l-4.2,3.4C1135.5,676.8,1135,676.4,1135.1,675.9z"/>
<linearGradient id="SVGID_79_" gradientUnits="userSpaceOnUse" x1="1520.291" y1="629.5485" x2="1578.1011" y2="-728.1116" gradientTransform="matrix(-1 0 0 1 2565.3462 849.7179)">
	<stop  offset="0" style="stop-color:#F6AC07"/>
	<stop  offset="0.19" style="stop-color:#F8AF09;stop-opacity:0.79"/>
	<stop  offset="0.59" style="stop-color:#FCB50D;stop-opacity:0.37"/>
	<stop  offset="0.87" style="stop-color:#FEB90F;stop-opacity:0.1"/>
	<stop  offset="1" style="stop-color:#FFBA10;stop-opacity:0"/>
</linearGradient>
<path class="st79" d="M1007.9,722.9l0.3-5.9c0-0.2-0.1-0.4-0.2-0.5l-4-3.6c-0.3-0.3-0.3-0.7,0-1c0.1-0.1,0.1-0.1,0.2-0.2l4.9-1.5
	c0.2-0.1,0.3-0.2,0.4-0.4l1.7-5.6c0-0.3,0.3-0.5,0.6-0.5c0.2,0,0.4,0.1,0.4,0.3l2.8,5c0.1,0.2,0.3,0.3,0.4,0.3l5,0.1
	c0.4,0.1,0.6,0.4,0.5,0.8c0,0.1-0.1,0.2-0.1,0.3l-3.2,4.6c-0.1,0.2-0.1,0.4-0.1,0.6l1.4,5.7c0.1,0.5-0.3,1-0.7,0.8l-4.7-2.1
	c-0.2-0.1-0.4,0-0.5,0.1l-4.2,3.4C1008.4,723.8,1007.9,723.4,1007.9,722.9z"/>
<linearGradient id="SVGID_80_" gradientUnits="userSpaceOnUse" x1="1335.9932" y1="618.762" x2="1393.6831" y2="-736.0781" gradientTransform="matrix(-1 0 0 1 2565.3462 849.7179)">
	<stop  offset="0" style="stop-color:#F6AC07"/>
	<stop  offset="0.19" style="stop-color:#F8AF09;stop-opacity:0.79"/>
	<stop  offset="0.59" style="stop-color:#FCB50D;stop-opacity:0.37"/>
	<stop  offset="0.87" style="stop-color:#FEB90F;stop-opacity:0.1"/>
	<stop  offset="1" style="stop-color:#FFBA10;stop-opacity:0"/>
</linearGradient>
<path class="st80" d="M1206.1,735.8l-5.1-0.1c-0.2,0-0.4,0.1-0.5,0.3l-2.9,4.8c-0.1,0.3-0.5,0.4-0.7,0.2c-0.2-0.1-0.3-0.2-0.3-0.4
	l-1.5-5.7c0-0.2-0.2-0.4-0.4-0.4l-4.8-1.8c-0.3-0.2-0.5-0.6-0.3-0.9c0-0.1,0.1-0.2,0.2-0.2l4.1-3.4c0.2-0.1,0.2-0.3,0.2-0.5v-5.9
	c0-0.5,0.5-0.8,0.9-0.5l4,3.6c0.1,0.1,0.3,0.2,0.5,0.1l4.8-1.9c0.4-0.2,0.8,0.3,0.7,0.8l-1.6,5.6c-0.1,0.2,0,0.4,0.1,0.6l3,4.8
	c0.2,0.3,0.1,0.7-0.1,0.9C1206.3,735.7,1206.2,735.7,1206.1,735.8z"/>
</svg>
