<?xml version="1.0" encoding="utf-8"?>
<!-- Generator: Adobe Illustrator 22.1.0, SVG Export Plug-In . SVG Version: 6.00 Build 0)  -->
<svg version="1.1" id="Layer_1" xmlns="http://www.w3.org/2000/svg" xmlns:xlink="http://www.w3.org/1999/xlink" x="0px" y="0px"
	 viewBox="0 0 1353 1080" style="enable-background:new 0 0 1353 1080;" xml:space="preserve">
<style type="text/css">
	.st0{opacity:0.4;}
	.st1{fill:url(#SVGID_1_);}
	.st2{fill:url(#SVGID_2_);}
	.st3{fill:url(#SVGID_3_);}
	.st4{fill:url(#SVGID_4_);}
	.st5{fill:url(#SVGID_5_);}
	.st6{fill:url(#SVGID_6_);}
	.st7{fill:url(#SVGID_7_);}
	.st8{fill:url(#SVGID_8_);}
	.st9{fill:url(#SVGID_9_);}
	.st10{fill:url(#SVGID_10_);}
	.st11{fill:url(#SVGID_11_);}
	.st12{fill:url(#SVGID_12_);}
	.st13{fill:url(#SVGID_13_);}
	.st14{fill:url(#SVGID_14_);}
	.st15{fill:url(#SVGID_15_);}
	.st16{fill:url(#SVGID_16_);}
	.st17{fill:url(#SVGID_17_);}
	.st18{fill:url(#SVGID_18_);}
	.st19{fill:url(#SVGID_19_);}
	.st20{fill:url(#SVGID_20_);}
	.st21{fill:url(#SVGID_21_);}
	.st22{fill:url(#SVGID_22_);}
	.st23{fill:url(#SVGID_23_);}
	.st24{fill:url(#SVGID_24_);}
	.st25{fill:url(#SVGID_25_);}
	.st26{fill:url(#SVGID_26_);}
	.st27{fill:url(#SVGID_27_);}
	.st28{fill:url(#SVGID_28_);}
	.st29{fill:url(#SVGID_29_);}
	.st30{fill:url(#SVGID_30_);}
	.st31{fill:url(#SVGID_31_);}
	.st32{fill:url(#SVGID_32_);}
	.st33{fill:url(#SVGID_33_);}
	.st34{fill:url(#SVGID_34_);}
	.st35{fill:url(#SVGID_35_);}
	.st36{fill:url(#SVGID_36_);}
	.st37{fill:url(#SVGID_37_);}
	.st38{fill:url(#SVGID_38_);}
	.st39{fill:url(#SVGID_39_);}
	.st40{fill:url(#SVGID_40_);}
	.st41{fill:url(#SVGID_41_);}
	.st42{fill:url(#SVGID_42_);}
	.st43{fill:url(#SVGID_43_);}
	.st44{fill:url(#SVGID_44_);}
	.st45{fill:url(#SVGID_45_);}
	.st46{fill:url(#SVGID_46_);}
	.st47{fill:url(#SVGID_47_);}
	.st48{fill:url(#SVGID_48_);}
	.st49{fill:url(#SVGID_49_);}
	.st50{fill:url(#SVGID_50_);}
	.st51{fill:url(#SVGID_51_);}
	.st52{fill:url(#SVGID_52_);}
	.st53{fill:url(#SVGID_53_);}
	.st54{fill:url(#SVGID_54_);}
	.st55{fill:url(#SVGID_55_);}
	.st56{fill:url(#SVGID_56_);}
	.st57{fill:url(#SVGID_57_);}
	.st58{fill:url(#SVGID_58_);}
	.st59{fill:url(#SVGID_59_);}
	.st60{fill:url(#SVGID_60_);}
	.st61{fill:url(#SVGID_61_);}
	.st62{fill:url(#SVGID_62_);}
	.st63{fill:url(#SVGID_63_);}
	.st64{fill:url(#SVGID_64_);}
	.st65{fill:url(#SVGID_65_);}
	.st66{fill:url(#SVGID_66_);}
	.st67{fill:url(#SVGID_67_);}
	.st68{fill:url(#SVGID_68_);}
	.st69{fill:url(#SVGID_69_);}
	.st70{fill:url(#SVGID_70_);}
	.st71{fill:url(#SVGID_71_);}
	.st72{fill:url(#SVGID_72_);}
	.st73{fill:url(#SVGID_73_);}
	.st74{fill:url(#SVGID_74_);}
	.st75{fill:url(#SVGID_75_);}
	.st76{fill:url(#SVGID_76_);}
	.st77{fill:url(#SVGID_77_);}
	.st78{fill:url(#SVGID_78_);}
	.st79{fill:url(#SVGID_79_);}
	.st80{opacity:0.4;fill:url(#SVGID_80_);enable-background:new    ;}
	.st81{opacity:0.4;fill:url(#SVGID_81_);enable-background:new    ;}
	.st82{opacity:0.4;fill:url(#SVGID_82_);enable-background:new    ;}
	.st83{opacity:0.4;fill:url(#SVGID_83_);enable-background:new    ;}
	.st84{opacity:0.4;fill:url(#SVGID_84_);enable-background:new    ;}
	.st85{opacity:0.4;fill:url(#SVGID_85_);enable-background:new    ;}
	.st86{opacity:0.4;fill:url(#SVGID_86_);enable-background:new    ;}
	.st87{opacity:0.4;fill:url(#SVGID_87_);enable-background:new    ;}
	.st88{opacity:0.4;fill:url(#SVGID_88_);enable-background:new    ;}
	.st89{opacity:0.4;fill:url(#SVGID_89_);enable-background:new    ;}
	.st90{opacity:0.4;fill:url(#SVGID_90_);enable-background:new    ;}
	.st91{opacity:0.4;fill:url(#SVGID_91_);enable-background:new    ;}
	.st92{opacity:0.4;fill:url(#SVGID_92_);enable-background:new    ;}
	.st93{opacity:0.4;fill:url(#SVGID_93_);enable-background:new    ;}
	.st94{opacity:0.4;fill:url(#SVGID_94_);enable-background:new    ;}
	.st95{opacity:0.4;fill:url(#SVGID_95_);enable-background:new    ;}
</style>
<title>starbg</title>
<g class="st0">
	
		<linearGradient id="SVGID_1_" gradientUnits="userSpaceOnUse" x1="284.5023" y1="15.7639" x2="342.4697" y2="1377.0057" gradientTransform="matrix(-1 0 0 -1 1427.3461 1065.7179)">
		<stop  offset="0" style="stop-color:#F6AC07"/>
		<stop  offset="0.19" style="stop-color:#F8AF09;stop-opacity:0.79"/>
		<stop  offset="0.59" style="stop-color:#FCB50D;stop-opacity:0.37"/>
		<stop  offset="0.87" style="stop-color:#FEB90F;stop-opacity:0.1"/>
		<stop  offset="1" style="stop-color:#FFBA10;stop-opacity:0"/>
	</linearGradient>
	<path class="st1" d="M1132.5,762.9l-11.7-17.2c-0.4-0.6-1-0.9-1.7-0.9l-18.7,1.6c-1.7,0.1-2.8-2-1.8-3.7l10.3-18.4
		c0.4-0.7,0.4-1.5,0.2-2.2l-7-20.4c-0.6-1.8,0.8-3.7,2.4-3.2l18.1,5.8c0.7,0.2,1.4,0,1.8-0.5l14.3-14.2c1.3-1.3,3.3-0.3,3.3,1.7
		l0.9,22c0,0.8,0.4,1.5,1,1.9l15.9,11.6c1.1,0.9,1.3,2.5,0.4,3.6c-0.2,0.3-0.5,0.5-0.7,0.6l-17.5,7.8c-0.7,0.3-1.1,0.9-1.3,1.7
		L1136,762C1135.6,763.9,1133.5,764.4,1132.5,762.9z"/>
	
		<linearGradient id="SVGID_2_" gradientUnits="userSpaceOnUse" x1="431.2761" y1="8.2231" x2="489.2637" y2="1369.8965" gradientTransform="matrix(-1 0 0 -1 1427.3461 1065.7179)">
		<stop  offset="0" style="stop-color:#F6AC07"/>
		<stop  offset="0.19" style="stop-color:#F8AF09;stop-opacity:0.79"/>
		<stop  offset="0.59" style="stop-color:#FCB50D;stop-opacity:0.37"/>
		<stop  offset="0.87" style="stop-color:#FEB90F;stop-opacity:0.1"/>
		<stop  offset="1" style="stop-color:#FFBA10;stop-opacity:0"/>
	</linearGradient>
	<path class="st2" d="M967.8,779.8l0.1-22.1c0-0.8-0.3-1.5-0.9-2l-15.4-12.6c-1.1-0.9-1.2-2.6-0.2-3.6c0.2-0.3,0.5-0.5,0.8-0.6
		l17.9-6.7c0.7-0.3,1.2-0.9,1.3-1.6l5.4-21.1c0.5-1.9,2.6-2.3,3.6-0.7l11,17.9c0.4,0.6,1,1,1.7,1l18.8-0.5c1.7,0,2.7,2.2,1.7,3.8
		l-11.1,17.8c-0.4,0.7-0.5,1.4-0.3,2.2l6.2,20.9c0.6,1.9-1,3.7-2.6,3.1l-17.8-7c-0.6-0.2-1.4-0.1-1.9,0.4l-15,13.3
		C969.8,782.9,967.8,781.8,967.8,779.8z"/>
	
		<linearGradient id="SVGID_3_" gradientUnits="userSpaceOnUse" x1="364.0157" y1="11.4717" x2="422.0033" y2="1373.2251" gradientTransform="matrix(-1 0 0 -1 1427.3461 1065.7179)">
		<stop  offset="0" style="stop-color:#F6AC07"/>
		<stop  offset="0.19" style="stop-color:#F8AF09;stop-opacity:0.79"/>
		<stop  offset="0.59" style="stop-color:#FCB50D;stop-opacity:0.37"/>
		<stop  offset="0.87" style="stop-color:#FEB90F;stop-opacity:0.1"/>
		<stop  offset="1" style="stop-color:#FFBA10;stop-opacity:0"/>
	</linearGradient>
	<path class="st3" d="M1034.3,683.8l0.2-17.4c0-0.6-0.2-1.2-0.7-1.6l-12-10c-0.8-0.7-0.9-2-0.2-2.8c0.2-0.2,0.4-0.4,0.7-0.5
		l14.2-5.1c0.5-0.2,0.9-0.7,1.1-1.2l4.4-16.6c0.1-0.8,0.9-1.4,1.7-1.3c0.5,0.1,0.9,0.4,1.1,0.8l8.5,14.2c0.3,0.5,0.8,0.8,1.3,0.8
		l14.8-0.2c1.3,0,2.1,1.8,1.3,3l-8.9,13.9c-0.3,0.5-0.4,1.1-0.2,1.7l4.7,16.5c0.4,1.5-0.8,2.9-2,2.4l-14-5.6
		c-0.5-0.2-1.1-0.1-1.5,0.3l-11.9,10.4C1035.9,686.2,1034.3,685.3,1034.3,683.8z"/>
	
		<linearGradient id="SVGID_4_" gradientUnits="userSpaceOnUse" x1="480.0354" y1="5.4367" x2="538.053" y2="1367.8322" gradientTransform="matrix(-1 0 0 -1 1427.3461 1065.7179)">
		<stop  offset="0" style="stop-color:#F6AC07"/>
		<stop  offset="0.19" style="stop-color:#F8AF09;stop-opacity:0.79"/>
		<stop  offset="0.59" style="stop-color:#FCB50D;stop-opacity:0.37"/>
		<stop  offset="0.87" style="stop-color:#FEB90F;stop-opacity:0.1"/>
		<stop  offset="1" style="stop-color:#FFBA10;stop-opacity:0"/>
	</linearGradient>
	<path class="st4" d="M945.1,663.2l-13.6-6.8c-0.5-0.3-1.1-0.2-1.5,0.1l-12.5,9.3c-1.1,0.8-2.6-0.2-2.5-1.8l1.3-17.3
		c0.1-0.6-0.1-1.2-0.6-1.6L904.4,634c-0.8-0.8-0.8-2.1,0-2.8c0.2-0.2,0.4-0.4,0.7-0.5l14.4-3.9c0.5-0.2,1-0.6,1.1-1.1l5.5-16.1
		c0.2-0.8,1-1.3,1.8-1.1c0.5,0.1,0.9,0.4,1.1,0.9l7.6,14.9c0.2,0.5,0.7,0.9,1.3,0.9l14.8,1.1c1.3,0.1,2,1.9,1.1,3.1l-9.8,13
		c-0.3,0.5-0.5,1.1-0.3,1.7l3.7,16.8C947.6,662.6,946.3,663.9,945.1,663.2z"/>
	
		<linearGradient id="SVGID_5_" gradientUnits="userSpaceOnUse" x1="554.1382" y1="2.5721" x2="612.0355" y2="1362.2589" gradientTransform="matrix(-1 0 0 -1 1427.3461 1065.7179)">
		<stop  offset="0" style="stop-color:#F6AC07"/>
		<stop  offset="0.19" style="stop-color:#F8AF09;stop-opacity:0.79"/>
		<stop  offset="0.59" style="stop-color:#FCB50D;stop-opacity:0.37"/>
		<stop  offset="0.87" style="stop-color:#FEB90F;stop-opacity:0.1"/>
		<stop  offset="1" style="stop-color:#FFBA10;stop-opacity:0"/>
	</linearGradient>
	<path class="st5" d="M853,740.4l-3.8-18c-0.1-0.6-0.5-1.1-1.1-1.4l-14.7-6.6c-1-0.6-1.4-1.9-0.8-2.9c0.1-0.2,0.3-0.5,0.5-0.6
		l13.4-9.7c0.5-0.4,0.8-1,0.8-1.6l0.8-18.5c0.1-1.7,1.7-2.5,2.8-1.4l12,11.9c0.4,0.4,1,0.6,1.5,0.4l15.2-4.9c1.4-0.4,2.6,1.2,2,2.7
		l-5.9,17.1c-0.2,0.6-0.2,1.3,0.2,1.9l8.6,15.5c0.8,1.4-0.2,3.2-1.6,3.1l-15.7-1.4c-0.6,0-1.1,0.3-1.5,0.8l-9.9,14.4
		C855.1,742.5,853.4,742,853,740.4z"/>
	
		<linearGradient id="SVGID_6_" gradientUnits="userSpaceOnUse" x1="712.6829" y1="-4.8987" x2="770.5098" y2="1353.0022" gradientTransform="matrix(-1 0 0 -1 1427.3461 1065.7179)">
		<stop  offset="0" style="stop-color:#F6AC07"/>
		<stop  offset="0.19" style="stop-color:#F8AF09;stop-opacity:0.79"/>
		<stop  offset="0.59" style="stop-color:#FCB50D;stop-opacity:0.37"/>
		<stop  offset="0.87" style="stop-color:#FEB90F;stop-opacity:0.1"/>
		<stop  offset="1" style="stop-color:#FFBA10;stop-opacity:0"/>
	</linearGradient>
	<path class="st6" d="M697.7,745.2l-8.8-21c-0.3-0.7-0.9-1.2-1.6-1.4l-19.8-3.4c-1.8-0.3-2.5-2.9-1.2-4.3l14.3-16.3
		c0.5-0.6,0.7-1.4,0.6-2.2l-3.4-23.1c-0.3-2.1,1.5-3.7,3.1-2.7l17.7,10.9c0.6,0.4,1.4,0.4,2,0l17.7-10.9c1.6-1,3.4,0.6,3.1,2.7
		l-3.4,23.1c-0.1,0.8,0.1,1.6,0.6,2.2l14.3,16.3c1.3,1.5,0.6,4-1.2,4.3l-19.8,3.4c-0.7,0.2-1.4,0.7-1.6,1.4l-8.8,21
		c-0.2,1.1-1.3,1.8-2.4,1.5C698.4,746.6,697.9,746,697.7,745.2z"/>
	
		<linearGradient id="SVGID_7_" gradientUnits="userSpaceOnUse" x1="618.4017" y1="-0.148" x2="676.2387" y2="1357.9635" gradientTransform="matrix(-1 0 0 -1 1427.3461 1065.7179)">
		<stop  offset="0" style="stop-color:#F6AC07"/>
		<stop  offset="0.19" style="stop-color:#F8AF09;stop-opacity:0.79"/>
		<stop  offset="0.59" style="stop-color:#FCB50D;stop-opacity:0.37"/>
		<stop  offset="0.87" style="stop-color:#FEB90F;stop-opacity:0.1"/>
		<stop  offset="1" style="stop-color:#FFBA10;stop-opacity:0"/>
	</linearGradient>
	<path class="st7" d="M789.5,677.6l-6.2-15.8c-0.2-0.5-0.6-0.9-1.2-1.1l-14.6-2.9c-1-0.4-1.6-1.5-1.2-2.6c0.1-0.3,0.2-0.5,0.4-0.7
		l10.9-11.8c0.4-0.5,0.6-1.1,0.5-1.7l-2.1-17.2c-0.2-1.5,1.2-2.7,2.4-1.9l13,8.5c0.4,0.3,1,0.3,1.5,0.1l13.3-7.7
		c1.2-0.7,2.5,0.5,2.3,2.1l-2.9,17.1c-0.1,0.6,0.1,1.2,0.4,1.7l10.4,12.4c0.7,0.9,0.6,2.1-0.3,2.8c-0.2,0.2-0.4,0.3-0.7,0.4
		l-14.7,2.1c-0.6,0.1-1,0.5-1.2,1l-6.9,15.4c-0.3,0.8-1.2,1.1-2,0.8C790,678.3,789.7,678,789.5,677.6z"/>
	
		<linearGradient id="SVGID_8_" gradientUnits="userSpaceOnUse" x1="204.3336" y1="20.6869" x2="262.1607" y2="1378.5476" gradientTransform="matrix(-1 0 0 -1 1427.3461 1065.7179)">
		<stop  offset="0" style="stop-color:#F6AC07"/>
		<stop  offset="0.19" style="stop-color:#F8AF09;stop-opacity:0.79"/>
		<stop  offset="0.59" style="stop-color:#FCB50D;stop-opacity:0.37"/>
		<stop  offset="0.87" style="stop-color:#FEB90F;stop-opacity:0.1"/>
		<stop  offset="1" style="stop-color:#FFBA10;stop-opacity:0"/>
	</linearGradient>
	<path class="st8" d="M1219.8,677.4l-13.1-8c-0.5-0.3-1-0.3-1.5,0l-13,8.2c-1.2,0.7-2.6-0.4-2.3-2l2.4-17.1c0.1-0.6-0.1-1.2-0.5-1.7
		l-10.7-12c-0.7-0.8-0.6-2.1,0.2-2.8c0.2-0.2,0.4-0.3,0.7-0.4l14.7-2.6c0.5-0.1,1-0.5,1.2-1l6.5-15.6c0.3-0.8,1.1-1.2,1.9-1
		c0.5,0.2,0.8,0.5,1,1l6.6,15.6c0.2,0.5,0.7,0.9,1.2,1l14.7,2.4c1.1,0.3,1.6,1.5,1.3,2.5c-0.1,0.2-0.2,0.5-0.4,0.7l-10.6,12.2
		c-0.4,0.5-0.6,1.1-0.5,1.7l2.6,17.1C1222.4,676.9,1221,678.1,1219.8,677.4z"/>
	
		<linearGradient id="SVGID_9_" gradientUnits="userSpaceOnUse" x1="274.0069" y1="15.7513" x2="332.0044" y2="1377.8158" gradientTransform="matrix(-1 0 0 -1 1427.3461 1065.7179)">
		<stop  offset="0" style="stop-color:#F6AC07"/>
		<stop  offset="0.19" style="stop-color:#F8AF09;stop-opacity:0.79"/>
		<stop  offset="0.59" style="stop-color:#FCB50D;stop-opacity:0.37"/>
		<stop  offset="0.87" style="stop-color:#FEB90F;stop-opacity:0.1"/>
		<stop  offset="1" style="stop-color:#FFBA10;stop-opacity:0"/>
	</linearGradient>
	<path class="st9" d="M1122.8,581.7l0.6-12.8c0-0.4-0.1-0.9-0.5-1.2l-8.6-7.8c-0.6-0.6-0.6-1.5-0.1-2.1c0.1-0.1,0.3-0.3,0.5-0.3
		l10.5-3.3c0.4-0.1,0.7-0.5,0.8-0.9l3.7-12c0.1-0.6,0.7-1,1.3-0.9c0.3,0.1,0.6,0.3,0.8,0.6l5.9,10.7c0.2,0.4,0.6,0.6,1,0.6l10.9,0.3
		c0.8,0.1,1.3,0.9,1.2,1.7c0,0.2-0.1,0.4-0.3,0.6l-6.9,9.9c-0.2,0.4-0.3,0.8-0.2,1.3l3.1,12.3c0.3,1.1-0.6,2.1-1.6,1.7l-10.2-4.6
		c-0.4-0.2-0.8-0.1-1.1,0.2l-9,7.2C1123.8,583.5,1122.7,582.8,1122.8,581.7z"/>
	
		<linearGradient id="SVGID_10_" gradientUnits="userSpaceOnUse" x1="404.1178" y1="9.1281" x2="462.1455" y2="1371.7642" gradientTransform="matrix(-1 0 0 -1 1427.3461 1065.7179)">
		<stop  offset="0" style="stop-color:#F6AC07"/>
		<stop  offset="0.19" style="stop-color:#F8AF09;stop-opacity:0.79"/>
		<stop  offset="0.59" style="stop-color:#FCB50D;stop-opacity:0.37"/>
		<stop  offset="0.87" style="stop-color:#FEB90F;stop-opacity:0.1"/>
		<stop  offset="1" style="stop-color:#FFBA10;stop-opacity:0"/>
	</linearGradient>
	<path class="st10" d="M982.4,572.3l8.3-10.5c0.3-0.4,0.4-0.9,0.3-1.4l-2.7-13.9c-0.2-1.3,0.8-2.3,1.8-1.7l11,6
		c0.4,0.2,0.9,0.2,1.2-0.1l10.5-7.3c0.9-0.7,2.1,0.2,2,1.5l-1.4,14.2c-0.1,0.5,0.1,1,0.4,1.4l9.1,9.4c0.6,0.7,0.6,1.7-0.1,2.3
		c-0.2,0.2-0.4,0.3-0.6,0.3l-11.9,2.8c-0.5,0.1-0.8,0.5-1,0.9l-4.8,13.1c-0.2,0.7-0.8,1.1-1.5,0.9c-0.4-0.1-0.7-0.4-0.9-0.8
		l-5.9-12.5c-0.2-0.4-0.6-0.7-1-0.8l-12.1-1.3c-0.9-0.2-1.4-1.1-1.2-2C982.2,572.8,982.3,572.5,982.4,572.3z"/>
	
		<linearGradient id="SVGID_11_" gradientUnits="userSpaceOnUse" x1="93.8959" y1="-61.437" x2="151.9236" y2="1301.1991" gradientTransform="matrix(-1 0 0 -1 1427.3461 1065.7179)">
		<stop  offset="0" style="stop-color:#F6AC07"/>
		<stop  offset="0.19" style="stop-color:#F8AF09;stop-opacity:0.79"/>
		<stop  offset="0.59" style="stop-color:#FCB50D;stop-opacity:0.37"/>
		<stop  offset="0.87" style="stop-color:#FEB90F;stop-opacity:0.1"/>
		<stop  offset="1" style="stop-color:#FFBA10;stop-opacity:0"/>
	</linearGradient>
	<path class="st11" d="M1292.6,642.9l8.3-10.5c0.3-0.4,0.4-0.9,0.3-1.4l-2.7-13.9c-0.2-1.3,0.8-2.3,1.8-1.7l11,6
		c0.4,0.2,0.9,0.2,1.2-0.1l10.5-7.3c0.9-0.7,2.1,0.2,2,1.5l-1.4,14.2c-0.1,0.5,0.1,1,0.4,1.4l9.1,9.4c0.6,0.7,0.6,1.7-0.1,2.3
		c-0.2,0.2-0.4,0.3-0.6,0.3l-11.9,2.8c-0.5,0.1-0.8,0.5-1,0.9l-4.8,13.1c-0.2,0.7-0.8,1.1-1.5,0.9c-0.4-0.1-0.7-0.4-0.9-0.8
		l-5.9-12.5c-0.2-0.4-0.6-0.7-1-0.8l-12.1-1.3c-0.9-0.2-1.4-1.1-1.2-2C1292.4,643.4,1292.5,643.1,1292.6,642.9z"/>
	
		<linearGradient id="SVGID_12_" gradientUnits="userSpaceOnUse" x1="538.7231" y1="3.2083" x2="596.6605" y2="1363.5573" gradientTransform="matrix(-1 0 0 -1 1427.3461 1065.7179)">
		<stop  offset="0" style="stop-color:#F6AC07"/>
		<stop  offset="0.19" style="stop-color:#F8AF09;stop-opacity:0.79"/>
		<stop  offset="0.59" style="stop-color:#FCB50D;stop-opacity:0.37"/>
		<stop  offset="0.87" style="stop-color:#FEB90F;stop-opacity:0.1"/>
		<stop  offset="1" style="stop-color:#FFBA10;stop-opacity:0"/>
	</linearGradient>
	<path class="st12" d="M852.8,553.1l9.7,1.8c0.4,0.1,0.7-0.1,0.9-0.4l6.8-8.4c0.3-0.5,0.9-0.6,1.4-0.3c0.3,0.2,0.5,0.6,0.4,0.9
		l1.6,11.4c0,0.4,0.3,0.7,0.6,0.9l8.9,5c0.6,0.4,0.8,1.3,0.4,1.9c-0.1,0.1-0.2,0.3-0.4,0.4l-8.8,5.3c-0.3,0.2-0.5,0.6-0.6,1
		l-1.3,11.5c-0.1,1-1.2,1.5-1.8,0.7l-7-8.2c-0.2-0.3-0.6-0.4-0.9-0.3l-9.7,2.1c-0.9,0.2-1.6-0.9-1.2-1.8l4.5-10.3
		c0.2-0.4,0.2-0.8,0-1.2l-4.7-10.2C851.2,554,851.8,552.9,852.8,553.1z"/>
	
		<linearGradient id="SVGID_13_" gradientUnits="userSpaceOnUse" x1="699.9179" y1="-5.5878" x2="757.9255" y2="1356.6371" gradientTransform="matrix(-1 0 0 -1 1427.3461 1065.7179)">
		<stop  offset="0" style="stop-color:#F6AC07"/>
		<stop  offset="0.19" style="stop-color:#F8AF09;stop-opacity:0.79"/>
		<stop  offset="0.59" style="stop-color:#FCB50D;stop-opacity:0.37"/>
		<stop  offset="0.87" style="stop-color:#FEB90F;stop-opacity:0.1"/>
		<stop  offset="1" style="stop-color:#FFBA10;stop-opacity:0"/>
	</linearGradient>
	<path class="st13" d="M706.1,560l6.5,12.3c0.2,0.4,0.6,0.7,1.1,0.7l12.3,0.7c0.9,0.2,1.5,1,1.3,1.9c0,0.3-0.1,0.5-0.3,0.7l-7.9,11
		c-0.3,0.4-0.4,0.9-0.3,1.4l3.3,13.9c0.3,1.2-0.8,2.3-1.8,1.9l-11.4-5.4c-0.4-0.2-0.9-0.1-1.2,0.2l-10.4,8c-0.9,0.7-2.1-0.1-2.1-1.4
		l0.9-14.4c0-0.5-0.1-1-0.5-1.3l-9.6-9c-0.7-0.6-0.7-1.7,0-2.4c0.2-0.2,0.3-0.3,0.6-0.4l11.9-3.5c0.5-0.2,0.8-0.5,0.9-1l4.3-13.5
		c0.1-0.7,0.8-1.1,1.5-1C705.5,559.3,705.9,559.6,706.1,560z"/>
	
		<linearGradient id="SVGID_14_" gradientUnits="userSpaceOnUse" x1="457.3732" y1="15.4554" x2="499.631" y2="1007.9274" gradientTransform="matrix(-1 0 0 -1 1427.3461 1065.7179)">
		<stop  offset="0" style="stop-color:#F6AC07"/>
		<stop  offset="0.19" style="stop-color:#F8AF09;stop-opacity:0.79"/>
		<stop  offset="0.59" style="stop-color:#FCB50D;stop-opacity:0.37"/>
		<stop  offset="0.87" style="stop-color:#FEB90F;stop-opacity:0.1"/>
		<stop  offset="1" style="stop-color:#FFBA10;stop-opacity:0"/>
	</linearGradient>
	<path class="st14" d="M979.5,1019.4l-16.2-13.7c-0.5-0.5-1.3-0.6-2-0.4l-18.8,7.9c-1.7,0.7-3.4-1.2-2.8-3.1l6.1-22.3
		c0.2-0.8,0.1-1.6-0.4-2.3l-12.2-18.5c-1.1-1.7-0.1-4.1,1.7-4.1l20-0.1c0.7,0,1.5-0.4,1.8-1.1l11.2-19.4c1-1.8,3.3-1.4,3.9,0.7
		l6.2,22.3c0.2,0.7,0.7,1.4,1.5,1.6l19.2,6.6c1.8,0.6,2.1,3.3,0.7,4.5l-16.1,13.8c-0.6,0.5-0.9,1.3-0.9,2.1l0.6,23.4
		C983,1019.4,981,1020.7,979.5,1019.4z"/>
	
		<linearGradient id="SVGID_15_" gradientUnits="userSpaceOnUse" x1="264.545" y1="-18.685" x2="310.3958" y2="1057.9865" gradientTransform="matrix(-1 0 0 -1 1427.3461 1065.7179)">
		<stop  offset="0" style="stop-color:#F6AC07"/>
		<stop  offset="0.19" style="stop-color:#F8AF09;stop-opacity:0.79"/>
		<stop  offset="0.59" style="stop-color:#FCB50D;stop-opacity:0.37"/>
		<stop  offset="0.87" style="stop-color:#FEB90F;stop-opacity:0.1"/>
		<stop  offset="1" style="stop-color:#FFBA10;stop-opacity:0"/>
	</linearGradient>
	<path class="st15" d="M1124.6,1037.6l13.3-20c0.5-0.7,0.6-1.7,0.4-2.5l-6.6-24.2c-0.6-2.1,1.2-4.2,3-3.4l20.3,8.6
		c0.7,0.3,1.6,0.2,2.1-0.3l17.6-14.8c1.6-1.3,3.8,0.1,3.7,2.3l-0.7,25.4c-0.1,0.9,0.3,1.7,0.9,2.3l17.4,15c1.6,1.3,1.1,4.2-0.7,4.8
		l-20.8,7c-0.8,0.3-1.3,0.9-1.6,1.7l-6.9,24.1c-0.6,2.1-3.1,2.5-4.2,0.7l-12.1-20.9c-0.4-0.7-1.1-1.2-1.9-1.2l-21.7-0.2
		C1124.6,1042.1,1123.5,1039.5,1124.6,1037.6z"/>
	
		<linearGradient id="SVGID_16_" gradientUnits="userSpaceOnUse" x1="123.881" y1="3.3093" x2="165.802" y2="987.7122" gradientTransform="matrix(-1 0 0 -1 1427.3461 1065.7179)">
		<stop  offset="0" style="stop-color:#F6AC07"/>
		<stop  offset="0.19" style="stop-color:#F8AF09;stop-opacity:0.79"/>
		<stop  offset="0.59" style="stop-color:#FCB50D;stop-opacity:0.37"/>
		<stop  offset="0.87" style="stop-color:#FEB90F;stop-opacity:0.1"/>
		<stop  offset="1" style="stop-color:#FFBA10;stop-opacity:0"/>
	</linearGradient>
	<path class="st16" d="M1286.5,1017.5l-1-23.2c0-0.8-0.4-1.5-1-2l-16.9-12.1c-1.5-1.1-1.3-3.8,0.4-4.5l18.5-8.3
		c0.7-0.4,1.2-1,1.3-1.7l4.6-22.6c0.4-2,2.7-2.6,3.8-1l12.4,18.1c0.4,0.7,1.1,0.9,1.8,0.9l19.7-1.8c1.7-0.1,2.9,2.1,2,3.9
		l-10.8,19.5c-0.4,0.7-0.4,1.6-0.2,2.3l7.5,21.5c0.7,2-0.8,3.9-2.5,3.4l-19.1-6c-0.7-0.2-1.4,0-2,0.5l-15,15
		C1288.7,1020.6,1286.6,1019.6,1286.5,1017.5z"/>
	
		<linearGradient id="SVGID_17_" gradientUnits="userSpaceOnUse" x1="601.6821" y1="-19.4274" x2="641.8314" y2="923.3522" gradientTransform="matrix(-1 0 0 -1 1427.3461 1065.7179)">
		<stop  offset="0" style="stop-color:#F6AC07"/>
		<stop  offset="0.19" style="stop-color:#F8AF09;stop-opacity:0.79"/>
		<stop  offset="0.59" style="stop-color:#FCB50D;stop-opacity:0.37"/>
		<stop  offset="0.87" style="stop-color:#FEB90F;stop-opacity:0.1"/>
		<stop  offset="1" style="stop-color:#FFBA10;stop-opacity:0"/>
	</linearGradient>
	<path class="st17" d="M852.5,1005.1l-17.3,9.2c-0.6,0.3-1.1,1-1.2,1.8l-3.3,21.9c-0.3,1.9-2.4,2.7-3.5,1.2l-12.8-16.4
		c-0.4-0.6-1.1-0.9-1.8-0.8l-18.8,3c-1.7,0.3-2.9-1.9-2.1-3.6l9.4-19.3c0.3-0.7,0.3-1.5,0.1-2.2l-8.3-20c-0.8-1.8,0.6-3.8,2.3-3.4
		l18.6,4.4c0.7,0.1,1.4-0.1,1.8-0.6l13.6-15.5c1.2-1.4,3.3-0.5,3.5,1.5l2.1,22.1c0.1,0.8,0.4,1.5,1,1.9l16.7,10.5
		c1.2,0.8,1.5,2.5,0.6,3.7C853,1004.7,852.8,1004.9,852.5,1005.1z"/>
	
		<linearGradient id="SVGID_18_" gradientUnits="userSpaceOnUse" x1="540.2805" y1="-446.734" x2="578.1869" y2="443.2934" gradientTransform="matrix(-0.9254 -0.379 0.379 -0.9254 1254.7987 795.072)">
		<stop  offset="0" style="stop-color:#F6AC07"/>
		<stop  offset="0.19" style="stop-color:#F8AF09;stop-opacity:0.79"/>
		<stop  offset="0.59" style="stop-color:#FCB50D;stop-opacity:0.37"/>
		<stop  offset="0.87" style="stop-color:#FEB90F;stop-opacity:0.1"/>
		<stop  offset="1" style="stop-color:#FFBA10;stop-opacity:0"/>
	</linearGradient>
	<path class="st18" d="M606.1,896.2l8.3-19.2c0.3-0.7,0.3-1.5,0-2.2l-8.7-19c-0.8-1.7,0.4-3.7,2.1-3.4l18.2,3.4
		c0.7,0.1,1.3-0.1,1.7-0.7l12.7-15.7c1.1-1.4,3.2-0.7,3.4,1.3l2.9,21.3c0.1,0.7,0.5,1.3,1.1,1.7l16.6,9.3c1.1,0.8,1.5,2.4,0.7,3.5
		c-0.2,0.3-0.4,0.5-0.7,0.7l-16.4,9.8c-0.6,0.4-1,1.1-1.1,1.7l-2.4,21.4c-0.2,2-2.2,2.7-3.4,1.3l-13-15.3c-0.4-0.5-1.1-0.8-1.7-0.7
		l-18.1,3.9C606.7,899.9,605.4,897.9,606.1,896.2z"/>
	
		<linearGradient id="SVGID_19_" gradientUnits="userSpaceOnUse" x1="459.355" y1="6.4044" x2="517.3525" y2="1368.4688" gradientTransform="matrix(-1 0 0 -1 1427.3461 1065.7179)">
		<stop  offset="0" style="stop-color:#F6AC07"/>
		<stop  offset="0.19" style="stop-color:#F8AF09;stop-opacity:0.79"/>
		<stop  offset="0.59" style="stop-color:#FCB50D;stop-opacity:0.37"/>
		<stop  offset="0.87" style="stop-color:#FEB90F;stop-opacity:0.1"/>
		<stop  offset="1" style="stop-color:#FFBA10;stop-opacity:0"/>
	</linearGradient>
	<path class="st19" d="M936.9,520.7l0.5-10c0-0.3-0.1-0.7-0.4-0.9l-6.8-6.1c-0.5-0.4-0.5-1.2,0-1.6c0.1-0.1,0.2-0.2,0.4-0.3l8.2-2.6
		c0.3-0.1,0.5-0.4,0.6-0.7l2.8-9.4c0.1-0.5,0.5-0.8,1-0.7c0.3,0.1,0.5,0.2,0.6,0.5l4.6,8.4c0.1,0.3,0.4,0.5,0.8,0.5l8.5,0.3
		c0.6,0.1,1,0.7,0.9,1.3c0,0.2-0.1,0.3-0.2,0.5l-5.4,7.8c-0.2,0.3-0.3,0.7-0.2,1l2.4,9.6c0.2,0.9-0.5,1.6-1.2,1.3l-7.9-3.6
		c-0.3-0.1-0.6-0.1-0.9,0.1l-7,5.6C937.7,522.2,936.9,521.6,936.9,520.7z"/>
	
		<linearGradient id="SVGID_20_" gradientUnits="userSpaceOnUse" x1="238.4507" y1="19.0536" x2="296.2978" y2="1377.2855" gradientTransform="matrix(-1 0 0 -1 1427.3461 1065.7179)">
		<stop  offset="0" style="stop-color:#F6AC07"/>
		<stop  offset="0.19" style="stop-color:#F8AF09;stop-opacity:0.79"/>
		<stop  offset="0.59" style="stop-color:#FCB50D;stop-opacity:0.37"/>
		<stop  offset="0.87" style="stop-color:#FEB90F;stop-opacity:0.1"/>
		<stop  offset="1" style="stop-color:#FFBA10;stop-opacity:0"/>
	</linearGradient>
	<path class="st20" d="M1179.9,496.5l-6.4,6.8c-0.2,0.3-0.4,0.6-0.3,1l1.1,10c0.1,0.9-0.7,1.5-1.4,1.1l-7.5-5
		c-0.3-0.2-0.6-0.2-0.9,0l-7.8,4.4c-0.7,0.4-1.5-0.3-1.3-1.2l1.8-9.9c0.1-0.4,0-0.7-0.2-1l-5.9-7.4c-0.4-0.5-0.3-1.2,0.1-1.6
		c0.1-0.1,0.3-0.2,0.4-0.2l8.6-1c0.3-0.1,0.6-0.3,0.7-0.6l4.1-8.9c0.2-0.5,0.7-0.7,1.1-0.5c0.3,0.1,0.5,0.3,0.5,0.6l3.5,9.2
		c0.1,0.3,0.4,0.5,0.7,0.6l8.5,1.9c0.6,0.3,0.8,1,0.6,1.5C1180,496.3,1180,496.4,1179.9,496.5z"/>
	
		<linearGradient id="SVGID_21_" gradientUnits="userSpaceOnUse" x1="363.7814" y1="11.0686" x2="421.7789" y2="1373.1328" gradientTransform="matrix(-1 0 0 -1 1427.3461 1065.7179)">
		<stop  offset="0" style="stop-color:#F6AC07"/>
		<stop  offset="0.19" style="stop-color:#F8AF09;stop-opacity:0.79"/>
		<stop  offset="0.59" style="stop-color:#FCB50D;stop-opacity:0.37"/>
		<stop  offset="0.87" style="stop-color:#FEB90F;stop-opacity:0.1"/>
		<stop  offset="1" style="stop-color:#FFBA10;stop-opacity:0"/>
	</linearGradient>
	<path class="st21" d="M1031.8,426l0.3-5.9c0-0.2-0.1-0.4-0.2-0.5l-4-3.6c-0.3-0.3-0.3-0.7,0-1c0.1-0.1,0.1-0.1,0.2-0.2l4.9-1.5
		c0.2-0.1,0.3-0.2,0.4-0.4l1.7-5.6c0-0.3,0.3-0.5,0.6-0.5c0.2,0,0.4,0.1,0.4,0.3l2.8,5c0.1,0.2,0.3,0.3,0.4,0.3l5.1,0.2
		c0.4,0.1,0.6,0.4,0.5,0.8c0,0.1,0,0.1-0.1,0.2l-3.2,4.6c-0.1,0.2-0.2,0.4-0.1,0.6l1.4,5.7c0.1,0.5-0.3,1-0.7,0.8l-4.7-2.1
		c-0.2-0.1-0.4-0.1-0.5,0.1l-4.2,3.4C1032.3,426.9,1031.7,426.6,1031.8,426z"/>
	
		<linearGradient id="SVGID_22_" gradientUnits="userSpaceOnUse" x1="560.5417" y1="2.3517" x2="618.449" y2="1362.1086" gradientTransform="matrix(-1 0 0 -1 1427.3461 1065.7179)">
		<stop  offset="0" style="stop-color:#F6AC07"/>
		<stop  offset="0.19" style="stop-color:#F8AF09;stop-opacity:0.79"/>
		<stop  offset="0.59" style="stop-color:#FCB50D;stop-opacity:0.37"/>
		<stop  offset="0.87" style="stop-color:#FEB90F;stop-opacity:0.1"/>
		<stop  offset="1" style="stop-color:#FFBA10;stop-opacity:0"/>
	</linearGradient>
	<path class="st22" d="M844,468.6l-5-5c-0.2-0.2-0.4-0.2-0.7-0.2l-6.4,2c-0.6,0.2-1.1-0.5-0.8-1.1l2.5-7.2c0.1-0.3,0.1-0.5-0.1-0.8
		l-3.6-6.5c-0.3-0.6,0.1-1.3,0.7-1.3l6.6,0.6c0.2,0,0.5-0.1,0.6-0.3l4.2-6c0.2-0.3,0.6-0.4,0.9-0.2c0.2,0.1,0.3,0.3,0.3,0.5l1.5,7.5
		c0,0.3,0.2,0.5,0.4,0.6l6.2,2.8c0.4,0.2,0.6,0.8,0.3,1.2c-0.1,0.1-0.1,0.2-0.2,0.3l-5.6,4c-0.2,0.2-0.3,0.4-0.3,0.7l-0.4,7.7
		C845.1,468.7,844.4,469.1,844,468.6z"/>
	
		<linearGradient id="SVGID_23_" gradientUnits="userSpaceOnUse" x1="634.3939" y1="-1.7391" x2="692.3412" y2="1358.8706" gradientTransform="matrix(-1 0 0 -1 1427.3461 1065.7179)">
		<stop  offset="0" style="stop-color:#F6AC07"/>
		<stop  offset="0.19" style="stop-color:#F8AF09;stop-opacity:0.79"/>
		<stop  offset="0.59" style="stop-color:#FCB50D;stop-opacity:0.37"/>
		<stop  offset="0.87" style="stop-color:#FEB90F;stop-opacity:0.1"/>
		<stop  offset="1" style="stop-color:#FFBA10;stop-opacity:0"/>
	</linearGradient>
	<path class="st23" d="M765.7,520.5l-0.8-7.7c0-0.3-0.2-0.5-0.4-0.6l-5.9-3.6c-0.4-0.3-0.5-0.9-0.2-1.3c0.1-0.1,0.1-0.2,0.2-0.2
		l6-3.3c0.2-0.1,0.4-0.4,0.4-0.6l1.1-7.7c0-0.4,0.3-0.7,0.7-0.7c0.2,0,0.4,0.1,0.5,0.3l4.5,5.6c0.1,0.2,0.4,0.3,0.6,0.3l6.5-1.2
		c0.6-0.1,1,0.6,0.7,1.2l-3.2,6.8c-0.1,0.3-0.1,0.5,0,0.8l3,6.9c0.3,0.6-0.2,1.3-0.8,1.2l-6.5-1.4c-0.2-0.1-0.5,0-0.6,0.2L767,521
		C766.5,521.5,765.7,521.2,765.7,520.5z"/>
	
		<linearGradient id="SVGID_24_" gradientUnits="userSpaceOnUse" x1="334.1006" y1="12.5585" x2="392.1182" y2="1375.0642" gradientTransform="matrix(-1 0 0 -1 1427.3461 1065.7179)">
		<stop  offset="0" style="stop-color:#F6AC07"/>
		<stop  offset="0.19" style="stop-color:#F8AF09;stop-opacity:0.79"/>
		<stop  offset="0.59" style="stop-color:#FCB50D;stop-opacity:0.37"/>
		<stop  offset="0.87" style="stop-color:#FEB90F;stop-opacity:0.1"/>
		<stop  offset="1" style="stop-color:#FFBA10;stop-opacity:0"/>
	</linearGradient>
	<path class="st24" d="M1070.2,524.4l-3.3-6.7c-0.1-0.2-0.3-0.4-0.6-0.4l-6.6-0.6c-0.5-0.1-0.8-0.6-0.6-1.1c0-0.1,0.1-0.2,0.2-0.3
		l4.4-5.8c0.2-0.2,0.2-0.5,0.2-0.8l-1.5-7.5c-0.1-0.7,0.4-1.2,1-1l6,3.2c0.2,0.1,0.5,0.1,0.7-0.1l5.6-4c0.5-0.4,1.1,0.1,1.1,0.8
		l-0.7,7.7c0,0.3,0.1,0.5,0.3,0.7l5,5c0.3,0.4,0.3,0.9,0,1.3c-0.1,0.1-0.2,0.1-0.3,0.2l-6.5,1.6c-0.2,0.1-0.4,0.3-0.5,0.5l-2.5,7.2
		c-0.1,0.4-0.4,0.6-0.8,0.5C1070.5,524.8,1070.3,524.6,1070.2,524.4z"/>
	
		<linearGradient id="SVGID_25_" gradientUnits="userSpaceOnUse" x1="628.5158" y1="-2.226" x2="686.5233" y2="1359.8381" gradientTransform="matrix(-1 0 0 -1 1427.3461 1065.7179)">
		<stop  offset="0" style="stop-color:#F6AC07"/>
		<stop  offset="0.19" style="stop-color:#F8AF09;stop-opacity:0.79"/>
		<stop  offset="0.59" style="stop-color:#FCB50D;stop-opacity:0.37"/>
		<stop  offset="0.87" style="stop-color:#FEB90F;stop-opacity:0.1"/>
		<stop  offset="1" style="stop-color:#FFBA10;stop-opacity:0"/>
	</linearGradient>
	<path class="st25" d="M765,390.9l0.3-5.9c0-0.2-0.1-0.4-0.2-0.5l-4-3.6c-0.3-0.3-0.3-0.7,0-1c0.1-0.1,0.1-0.1,0.2-0.2l4.9-1.5
		c0.2-0.1,0.3-0.2,0.4-0.4l1.7-5.6c0-0.3,0.3-0.5,0.6-0.5c0.2,0,0.4,0.1,0.4,0.3l2.8,5c0.1,0.2,0.3,0.3,0.4,0.3l5.1,0.2
		c0.4,0.1,0.6,0.4,0.5,0.8c0,0.1-0.1,0.2-0.1,0.3l-3.2,4.6c-0.1,0.2-0.2,0.4-0.1,0.6l1.4,5.7c0.1,0.5-0.3,1-0.7,0.8l-4.7-2.1
		c-0.2-0.1-0.4-0.1-0.5,0.1l-4.2,3.4C765.5,391.8,765,391.5,765,390.9z"/>
	
		<linearGradient id="SVGID_26_" gradientUnits="userSpaceOnUse" x1="87.7967" y1="-2.226" x2="145.8043" y2="1359.8381" gradientTransform="matrix(-1 0 0 -1 1427.3461 1065.7179)">
		<stop  offset="0" style="stop-color:#F6AC07"/>
		<stop  offset="0.19" style="stop-color:#F8AF09;stop-opacity:0.79"/>
		<stop  offset="0.59" style="stop-color:#FCB50D;stop-opacity:0.37"/>
		<stop  offset="0.87" style="stop-color:#FEB90F;stop-opacity:0.1"/>
		<stop  offset="1" style="stop-color:#FFBA10;stop-opacity:0"/>
	</linearGradient>
	<path class="st26" d="M1305.7,390.9l0.3-5.9c0-0.2-0.1-0.4-0.2-0.5l-4-3.6c-0.3-0.3-0.3-0.7,0-1c0.1-0.1,0.1-0.1,0.2-0.2l4.9-1.5
		c0.2-0.1,0.3-0.2,0.4-0.4l1.7-5.6c0-0.3,0.3-0.5,0.6-0.5c0.2,0,0.4,0.1,0.4,0.3l2.8,5c0.1,0.2,0.3,0.3,0.4,0.3l5.1,0.2
		c0.4,0.1,0.6,0.4,0.5,0.8c0,0.1-0.1,0.2-0.1,0.3l-3.2,4.6c-0.1,0.2-0.2,0.4-0.1,0.6l1.4,5.7c0.1,0.5-0.3,1-0.7,0.8l-4.7-2.1
		c-0.2-0.1-0.4-0.1-0.5,0.1l-4.2,3.4C1306.2,391.8,1305.7,391.5,1305.7,390.9z"/>
	
		<linearGradient id="SVGID_27_" gradientUnits="userSpaceOnUse" x1="675.7466" y1="296.3835" x2="733.7542" y2="1658.4476" gradientTransform="matrix(-1 0 0 -1 1427.3461 1065.7179)">
		<stop  offset="0" style="stop-color:#F6AC07"/>
		<stop  offset="0.19" style="stop-color:#F8AF09;stop-opacity:0.79"/>
		<stop  offset="0.59" style="stop-color:#FCB50D;stop-opacity:0.37"/>
		<stop  offset="0.87" style="stop-color:#FEB90F;stop-opacity:0.1"/>
		<stop  offset="1" style="stop-color:#FFBA10;stop-opacity:0"/>
	</linearGradient>
	<path class="st27" d="M717.8,92.3l0.3-5.9c0-0.2-0.1-0.4-0.2-0.5l-4-3.6c-0.3-0.3-0.3-0.7,0-1c0.1-0.1,0.1-0.1,0.2-0.2l4.9-1.5
		c0.2-0.1,0.3-0.2,0.4-0.4l1.7-5.6c0-0.3,0.3-0.5,0.6-0.5c0.2,0,0.4,0.1,0.4,0.3l2.8,5c0.1,0.2,0.3,0.3,0.4,0.3l5.1,0.2
		c0.4,0.1,0.6,0.4,0.5,0.8c0,0.1-0.1,0.2-0.1,0.3l-3.2,4.6c-0.1,0.2-0.2,0.4-0.1,0.6l1.4,5.7c0.1,0.5-0.3,1-0.7,0.8l-4.7-2.1
		c-0.2-0.1-0.4-0.1-0.5,0.1l-4.2,3.4C718.3,93.2,717.8,92.9,717.8,92.3z"/>
	
		<linearGradient id="SVGID_28_" gradientUnits="userSpaceOnUse" x1="260.8115" y1="17.5439" x2="318.6987" y2="1376.7689" gradientTransform="matrix(-1 0 0 -1 1427.3461 1065.7179)">
		<stop  offset="0" style="stop-color:#F6AC07"/>
		<stop  offset="0.19" style="stop-color:#F8AF09;stop-opacity:0.79"/>
		<stop  offset="0.59" style="stop-color:#FCB50D;stop-opacity:0.37"/>
		<stop  offset="0.87" style="stop-color:#FEB90F;stop-opacity:0.1"/>
		<stop  offset="1" style="stop-color:#FFBA10;stop-opacity:0"/>
	</linearGradient>
	<path class="st28" d="M1147.5,415.8l-5.1-0.1c-0.2,0-0.4,0.1-0.5,0.3l-2.9,4.9c-0.1,0.3-0.4,0.4-0.7,0.3c-0.2-0.1-0.3-0.3-0.3-0.5
		l-1.5-5.7c0-0.2-0.2-0.3-0.4-0.4l-4.8-1.8c-0.3-0.2-0.5-0.6-0.3-0.9c0-0.1,0.1-0.2,0.2-0.2l4.2-3.4c0.2-0.1,0.2-0.3,0.2-0.5v-6
		c0-0.5,0.5-0.9,0.9-0.5l4,3.6c0.1,0.1,0.3,0.2,0.5,0.1l4.8-1.9c0.4-0.2,0.8,0.3,0.7,0.8l-1.6,5.6c-0.1,0.2,0,0.4,0.1,0.6l3,4.8
		c0.2,0.3,0.1,0.7-0.1,0.9C1147.7,415.8,1147.6,415.8,1147.5,415.8z"/>
	
		<linearGradient id="SVGID_29_" gradientUnits="userSpaceOnUse" x1="679.4349" y1="-4.362" x2="737.4124" y2="1357.1405" gradientTransform="matrix(-1 0 0 -1 1427.3461 1065.7179)">
		<stop  offset="0" style="stop-color:#F6AC07"/>
		<stop  offset="0.19" style="stop-color:#F8AF09;stop-opacity:0.79"/>
		<stop  offset="0.59" style="stop-color:#FCB50D;stop-opacity:0.37"/>
		<stop  offset="0.87" style="stop-color:#FEB90F;stop-opacity:0.1"/>
		<stop  offset="1" style="stop-color:#FFBA10;stop-opacity:0"/>
	</linearGradient>
	<path class="st29" d="M723.3,478.3l-4.4-6.8c-0.1-0.2-0.4-0.4-0.7-0.4l-7.3,0.3c-0.7,0-1-0.8-0.7-1.5l4.2-7
		c0.2-0.3,0.2-0.6,0.1-0.8l-2.5-8c-0.2-0.7,0.4-1.4,1-1.2l6.9,2.5c0.2,0.1,0.5,0,0.7-0.2l5.7-5.3c0.5-0.5,1.3,0,1.3,0.7l0.1,8.5
		c0,0.3,0.1,0.6,0.4,0.8l6,4.7c0.4,0.4,0.5,1,0.1,1.4c-0.1,0.1-0.2,0.2-0.3,0.2L727,469c-0.3,0.1-0.4,0.3-0.5,0.6l-2,8.2
		c-0.1,0.4-0.5,0.7-0.9,0.6C723.6,478.5,723.4,478.4,723.3,478.3z"/>
	
		<linearGradient id="SVGID_30_" gradientUnits="userSpaceOnUse" x1="176.0208" y1="20.7834" x2="233.9983" y2="1382.296" gradientTransform="matrix(-1 0 0 -1 1427.3461 1065.7179)">
		<stop  offset="0" style="stop-color:#F6AC07"/>
		<stop  offset="0.19" style="stop-color:#F8AF09;stop-opacity:0.79"/>
		<stop  offset="0.59" style="stop-color:#FCB50D;stop-opacity:0.37"/>
		<stop  offset="0.87" style="stop-color:#FEB90F;stop-opacity:0.1"/>
		<stop  offset="1" style="stop-color:#FFBA10;stop-opacity:0"/>
	</linearGradient>
	<path class="st30" d="M1226.8,456.3l-4.4-6.8c-0.1-0.2-0.4-0.4-0.7-0.4l-7.3,0.3c-0.5-0.1-0.9-0.5-0.8-1c0-0.2,0.1-0.3,0.2-0.4
		l4.2-7c0.1-0.3,0.2-0.6,0.1-0.9l-2.5-8c-0.2-0.7,0.3-1.4,1-1.2l6.9,2.5c0.3,0.1,0.5,0,0.7-0.2l5.7-5.3c0.5-0.5,1.3-0.1,1.3,0.7
		l0.1,8.5c0,0.3,0.1,0.6,0.4,0.8l6,4.7c0.4,0.4,0.5,1,0.1,1.4c-0.1,0.1-0.2,0.2-0.3,0.2l-6.9,2.7c-0.3,0.1-0.4,0.3-0.5,0.6l-2,8.2
		c0,0.4-0.4,0.7-0.8,0.7C1227.1,456.6,1226.9,456.5,1226.8,456.3z"/>
	
		<linearGradient id="SVGID_31_" gradientUnits="userSpaceOnUse" x1="462.3663" y1="6.2673" x2="520.3539" y2="1368.0208" gradientTransform="matrix(-1 0 0 -1 1427.3461 1065.7179)">
		<stop  offset="0" style="stop-color:#F6AC07"/>
		<stop  offset="0.19" style="stop-color:#F8AF09;stop-opacity:0.79"/>
		<stop  offset="0.59" style="stop-color:#FCB50D;stop-opacity:0.37"/>
		<stop  offset="0.87" style="stop-color:#FEB90F;stop-opacity:0.1"/>
		<stop  offset="1" style="stop-color:#FFBA10;stop-opacity:0"/>
	</linearGradient>
	<path class="st31" d="M927.5,377.8l3-4.8c0.1-0.2,0.1-0.4,0.1-0.6l-1.6-5.6c-0.2-0.5,0.3-1,0.7-0.8l4.8,1.9c0.2,0.1,0.4,0,0.5-0.1
		l4.1-3.6c0.4-0.3,0.9,0,0.9,0.5l-0.1,5.9c0,0.2,0.1,0.4,0.2,0.5l4.2,3.4c0.3,0.3,0.3,0.7,0,1c-0.1,0.1-0.1,0.1-0.2,0.2l-4.9,1.8
		c-0.2,0.1-0.3,0.2-0.4,0.4l-1.5,5.7c0,0.3-0.3,0.5-0.5,0.5s-0.4-0.1-0.5-0.3l-2.9-4.9c-0.1-0.2-0.3-0.3-0.5-0.3l-5.1,0.1
		c-0.4-0.1-0.6-0.4-0.5-0.8C927.4,378,927.4,377.9,927.5,377.8z"/>
	
		<linearGradient id="SVGID_32_" gradientUnits="userSpaceOnUse" x1="645.8904" y1="-47.5275" x2="703.8778" y2="1314.1456" gradientTransform="matrix(-1 0 0 -1 1427.3461 1065.7179)">
		<stop  offset="0" style="stop-color:#F6AC07"/>
		<stop  offset="0.19" style="stop-color:#F8AF09;stop-opacity:0.79"/>
		<stop  offset="0.59" style="stop-color:#FCB50D;stop-opacity:0.37"/>
		<stop  offset="0.87" style="stop-color:#FEB90F;stop-opacity:0.1"/>
		<stop  offset="1" style="stop-color:#FFBA10;stop-opacity:0"/>
	</linearGradient>
	<path class="st32" d="M753,882.9l0.1-25.1c0-0.9-0.3-1.7-1-2.3l-17.6-14.2c-1.6-1.3-1.2-4.1,0.6-4.8l20.4-7.6
		c0.8-0.3,1.3-1,1.5-1.8l6.2-24.1c0.6-2.2,3-2.6,4.1-0.8l12.5,20.4c0.4,0.7,1.1,1.1,1.9,1.1l21.4-0.5c1.9-0.1,3.1,2.5,1.9,4.3
		l-12.7,20.2c-0.5,0.7-0.6,1.7-0.3,2.5l7,23.7c0.6,2.1-1.1,4.2-2.9,3.5l-20.3-7.9c-0.7-0.3-1.6-0.1-2.1,0.4l-17.1,15.2
		C755.2,886.5,753,885.2,753,882.9z"/>
	
		<linearGradient id="SVGID_33_" gradientUnits="userSpaceOnUse" x1="210.3337" y1="53.7694" x2="251.7959" y2="1027.4318" gradientTransform="matrix(-1 0 0 -1 1427.3461 1065.7179)">
		<stop  offset="0" style="stop-color:#F6AC07"/>
		<stop  offset="0.19" style="stop-color:#F8AF09;stop-opacity:0.79"/>
		<stop  offset="0.59" style="stop-color:#FCB50D;stop-opacity:0.37"/>
		<stop  offset="0.87" style="stop-color:#FEB90F;stop-opacity:0.1"/>
		<stop  offset="1" style="stop-color:#FFBA10;stop-opacity:0"/>
	</linearGradient>
	<path class="st33" d="M1215.5,886.9l-12.5-15.4c-0.4-0.6-1.1-0.8-1.7-0.7l-18,3.4c-1.6,0.3-2.8-1.7-2.1-3.4l8.6-18.7
		c0.3-0.7,0.3-1.5,0-2.1l-8.3-19c-0.7-1.7,0.5-3.6,2.1-3.3l17.9,3.8c0.6,0.1,1.4-0.1,1.7-0.6l12.8-15.1c1.1-1.4,3.1-0.6,3.4,1.3
		l2.4,21.1c0.1,0.7,0.5,1.4,1.1,1.8l16.2,9.7c1.1,0.8,1.4,2.4,0.6,3.5c-0.1,0.3-0.4,0.5-0.6,0.6l-16.4,9.2c-0.6,0.4-1,1-1.1,1.7
		l-2.8,21C1218.7,887.5,1216.7,888.3,1215.5,886.9z"/>
	
		<linearGradient id="SVGID_34_" gradientUnits="userSpaceOnUse" x1="118.4702" y1="77.7861" x2="151.9244" y2="863.395" gradientTransform="matrix(-0.881 0.4731 -0.3646 -0.6788 1495.4269 948.3901)">
		<stop  offset="0" style="stop-color:#F6AC07"/>
		<stop  offset="0.19" style="stop-color:#F8AF09;stop-opacity:0.79"/>
		<stop  offset="0.59" style="stop-color:#FCB50D;stop-opacity:0.37"/>
		<stop  offset="0.87" style="stop-color:#FEB90F;stop-opacity:0.1"/>
		<stop  offset="1" style="stop-color:#FFBA10;stop-opacity:0"/>
	</linearGradient>
	<path class="st34" d="M1324.9,883.7l-13.4-3.6c-0.5-0.1-1,0-1.4,0.3l-11.8,8.7c-1,0.8-2.5,0.1-2.5-1l0.6-13.5
		c0-0.5-0.2-0.9-0.6-1.2l-11.5-7.2c-1-0.7-0.7-2.2,0.5-2.6l13.8-4.8c0.5-0.2,0.9-0.6,1-1l4.7-13.2c0.4-1.2,2.1-1.5,2.8-0.6l7.9,10.6
		c0.3,0.4,0.8,0.6,1.3,0.6l14.3-0.9c1,0,1.7,0.7,1.5,1.7c0,0.2-0.2,0.4-0.3,0.6l-8.9,11.3c-0.4,0.4-0.4,0.9-0.3,1.4l4.2,12.6
		C1327.3,882.8,1326.1,884,1324.9,883.7z"/>
	
		<linearGradient id="SVGID_35_" gradientUnits="userSpaceOnUse" x1="-249.2358" y1="-805.1945" x2="-197.5888" y2="407.4669" gradientTransform="matrix(-0.7849 -0.6196 0.6196 -0.7849 1270.0354 231.909)">
		<stop  offset="0" style="stop-color:#F6AC07"/>
		<stop  offset="0.19" style="stop-color:#F8AF09;stop-opacity:0.79"/>
		<stop  offset="0.59" style="stop-color:#FCB50D;stop-opacity:0.37"/>
		<stop  offset="0.87" style="stop-color:#FEB90F;stop-opacity:0.1"/>
		<stop  offset="1" style="stop-color:#FFBA10;stop-opacity:0"/>
	</linearGradient>
	<path class="st35" d="M1032.2,878.5l18.5-17c0.7-0.7,1.1-1.6,1-2.5l-1.4-27.5c-0.1-2.5,2.2-4,4-2.7l19.5,15.4
		c0.7,0.5,1.6,0.7,2.3,0.3l21.9-10.1c2-0.9,4,1.2,3.4,3.6l-6.5,26.5c-0.2,0.9-0.1,1.9,0.5,2.7l14.9,21.2c1.3,1.9,0.2,4.8-1.9,4.9
		l-23.5,1c-0.9,0.1-1.7,0.6-2.1,1.4l-12.6,23.2c-1.1,2.1-3.8,1.7-4.5-0.6l-8-25.9c-0.2-0.9-0.9-1.6-1.8-1.9l-22.7-6.9
		C1031.1,883.1,1030.5,880,1032.2,878.5z"/>
	
		<linearGradient id="SVGID_36_" gradientUnits="userSpaceOnUse" x1="517.0698" y1="31.2384" x2="559.9726" y2="1038.78" gradientTransform="matrix(-1 0 0 -1 1427.3461 1065.7179)">
		<stop  offset="0" style="stop-color:#F6AC07"/>
		<stop  offset="0.19" style="stop-color:#F8AF09;stop-opacity:0.79"/>
		<stop  offset="0.59" style="stop-color:#FCB50D;stop-opacity:0.37"/>
		<stop  offset="0.87" style="stop-color:#FEB90F;stop-opacity:0.1"/>
		<stop  offset="1" style="stop-color:#FFBA10;stop-opacity:0"/>
	</linearGradient>
	<path class="st36" d="M934.1,884.3l-18.6,3.4c-0.7,0.1-1.3,0.7-1.5,1.3l-8.1,19.9c-0.3,1-1.4,1.6-2.4,1.3c-0.6-0.1-1-0.7-1.3-1.2
		l-8.5-19.6c-0.2-0.7-0.8-1.2-1.6-1.3l-18.7-2.9c-1.7-0.3-2.4-2.7-1.2-4.1l13.3-15.7c0.5-0.6,0.7-1.3,0.6-2.2l-3.4-21.7
		c-0.3-1.9,1.4-3.5,3-2.6l16.8,10.1c0.6,0.4,1.3,0.4,1.9,0l16.5-10.5c1.5-1,3.3,0.5,3,2.4l-3,21.8c-0.1,0.7,0.1,1.6,0.6,2.1
		l13.7,15.2C936.5,881.6,935.8,884,934.1,884.3z"/>
	
		<linearGradient id="SVGID_37_" gradientUnits="userSpaceOnUse" x1="125.606" y1="23.6531" x2="183.5634" y2="1384.6841" gradientTransform="matrix(-1 0 0 -1 1427.3461 1065.7179)">
		<stop  offset="0" style="stop-color:#F6AC07"/>
		<stop  offset="0.19" style="stop-color:#F8AF09;stop-opacity:0.79"/>
		<stop  offset="0.59" style="stop-color:#FCB50D;stop-opacity:0.37"/>
		<stop  offset="0.87" style="stop-color:#FEB90F;stop-opacity:0.1"/>
		<stop  offset="1" style="stop-color:#FFBA10;stop-opacity:0"/>
	</linearGradient>
	<path class="st37" d="M1277,775.9l-1.4-21.9c0-0.7-0.4-1.4-1-1.9l-16.2-11.2c-1.1-0.9-1.3-2.5-0.5-3.6c0.2-0.3,0.4-0.5,0.7-0.6
		l17.4-8.3c0.7-0.3,1.1-1,1.2-1.7l4-21.5c0.4-1.9,2.4-2.5,3.5-1l12.1,16.8c0.4,0.6,1.1,0.9,1.8,0.8l18.7-2.2c1.7-0.2,2.8,2,1.9,3.6
		l-9.9,18.7c-0.4,0.7-0.4,1.5-0.1,2.2l7.5,20.2c0.7,1.8-0.7,3.7-2.3,3.3l-18.2-5.2c-0.7-0.2-1.4,0-1.8,0.5l-14,14.6
		C1279.1,778.8,1277.1,777.9,1277,775.9z"/>
	
		<linearGradient id="SVGID_38_" gradientUnits="userSpaceOnUse" x1="163.4505" y1="22.5316" x2="221.3075" y2="1381.0444" gradientTransform="matrix(-1 0 0 -1 1427.3461 1065.7179)">
		<stop  offset="0" style="stop-color:#F6AC07"/>
		<stop  offset="0.19" style="stop-color:#F8AF09;stop-opacity:0.79"/>
		<stop  offset="0.59" style="stop-color:#FCB50D;stop-opacity:0.37"/>
		<stop  offset="0.87" style="stop-color:#FEB90F;stop-opacity:0.1"/>
		<stop  offset="1" style="stop-color:#FFBA10;stop-opacity:0"/>
	</linearGradient>
	<path class="st38" d="M1226,575.4l8.3-8.3c0.3-0.3,0.5-0.8,0.4-1.2l-1.1-12.7c-0.1-1.2,1-1.9,1.8-1.3l9.3,6.8
		c0.3,0.2,0.7,0.3,1.1,0.1l10-5.1c0.9-0.5,1.9,0.5,1.6,1.6l-2.6,12.4c-0.1,0.4,0,0.9,0.3,1.3l7.2,9.5c0.5,0.6,0.4,1.5-0.2,2
		c-0.2,0.1-0.4,0.2-0.6,0.3l-10.9,0.9c-0.4,0-0.8,0.3-0.9,0.7l-5.5,11c-0.2,0.6-0.9,0.8-1.5,0.6c-0.3-0.1-0.6-0.4-0.7-0.8l-4.1-11.9
		c-0.1-0.4-0.4-0.7-0.8-0.8l-10.7-2.7c-0.7-0.3-1.1-1.2-0.7-2C1225.8,575.7,1225.9,575.5,1226,575.4z"/>
</g>
<g class="st0">
	
		<linearGradient id="SVGID_39_" gradientUnits="userSpaceOnUse" x1="854.9257" y1="-12.735" x2="912.8931" y2="1348.5068" gradientTransform="matrix(-1 0 0 -1 1427.3461 1065.7179)">
		<stop  offset="0" style="stop-color:#F6AC07"/>
		<stop  offset="0.19" style="stop-color:#F8AF09;stop-opacity:0.79"/>
		<stop  offset="0.59" style="stop-color:#FCB50D;stop-opacity:0.37"/>
		<stop  offset="0.87" style="stop-color:#FEB90F;stop-opacity:0.1"/>
		<stop  offset="1" style="stop-color:#FFBA10;stop-opacity:0"/>
	</linearGradient>
	<path class="st39" d="M561.9,784.9l-11.7-17.2c-0.4-0.6-1-0.9-1.7-0.9l-18.8,1.6c-1.7,0.1-2.8-2-1.8-3.7l10.3-18.4
		c0.4-0.7,0.4-1.5,0.2-2.2l-7-20.4c-0.6-1.8,0.8-3.7,2.4-3.2l18.1,5.8c0.7,0.2,1.4,0,1.8-0.5l14.3-14.2c1.3-1.3,3.3-0.3,3.3,1.7
		l0.9,22c0,0.8,0.4,1.5,1,1.9l15.9,11.6c1.1,0.9,1.3,2.5,0.4,3.6c-0.2,0.3-0.5,0.5-0.8,0.6l-17.5,7.8c-0.7,0.3-1.1,0.9-1.3,1.7
		l-4.5,21.4C565.1,785.9,563,786.4,561.9,784.9z"/>
	
		<linearGradient id="SVGID_40_" gradientUnits="userSpaceOnUse" x1="1031.6088" y1="-21.8157" x2="1089.5963" y2="1339.8574" gradientTransform="matrix(-1 0 0 -1 1427.3461 1065.7179)">
		<stop  offset="0" style="stop-color:#F6AC07"/>
		<stop  offset="0.19" style="stop-color:#F8AF09;stop-opacity:0.79"/>
		<stop  offset="0.59" style="stop-color:#FCB50D;stop-opacity:0.37"/>
		<stop  offset="0.87" style="stop-color:#FEB90F;stop-opacity:0.1"/>
		<stop  offset="1" style="stop-color:#FFBA10;stop-opacity:0"/>
	</linearGradient>
	<path class="st40" d="M365.8,768.8l0.1-22.1c0-0.8-0.3-1.5-0.9-2l-15.5-12.6c-1.1-1-1.1-2.6-0.2-3.6c0.2-0.2,0.5-0.4,0.8-0.6
		l17.9-6.7c0.7-0.3,1.2-0.9,1.3-1.6l5.4-21.1c0.5-1.9,2.6-2.3,3.6-0.7l11,17.9c0.3,0.6,1,1,1.7,1l18.8-0.5c1.7,0,2.7,2.2,1.7,3.8
		l-11.1,17.8c-0.4,0.7-0.5,1.5-0.3,2.2l6.2,20.9c0.6,1.9-1,3.7-2.6,3.1l-18-7c-0.6-0.2-1.4-0.1-1.9,0.4l-15,13.3
		C367.7,771.9,365.8,770.8,365.8,768.8z"/>
	
		<linearGradient id="SVGID_41_" gradientUnits="userSpaceOnUse" x1="964.3107" y1="-18.5657" x2="1022.3083" y2="1343.1877" gradientTransform="matrix(-1 0 0 -1 1427.3461 1065.7179)">
		<stop  offset="0" style="stop-color:#F6AC07"/>
		<stop  offset="0.19" style="stop-color:#F8AF09;stop-opacity:0.79"/>
		<stop  offset="0.59" style="stop-color:#FCB50D;stop-opacity:0.37"/>
		<stop  offset="0.87" style="stop-color:#FEB90F;stop-opacity:0.1"/>
		<stop  offset="1" style="stop-color:#FFBA10;stop-opacity:0"/>
	</linearGradient>
	<path class="st41" d="M432.3,672.7l0.2-17.4c0-0.6-0.2-1.2-0.7-1.6l-12-10c-0.8-0.7-0.9-2-0.2-2.8c0.2-0.2,0.4-0.4,0.7-0.5
		l14.1-5.1c0.5-0.2,0.9-0.7,1.1-1.2l4.4-16.6c0.1-0.8,0.9-1.4,1.7-1.3c0.5,0.1,0.9,0.4,1.1,0.8l8.5,14.2c0.3,0.5,0.8,0.8,1.3,0.8
		l14.8-0.2c1.3,0,2.1,1.8,1.3,3l-8.9,13.9c-0.3,0.5-0.4,1.2-0.2,1.7l4.7,16.5c0.4,1.5-0.8,2.9-2,2.4l-14-5.6
		c-0.5-0.2-1.1-0.1-1.5,0.3l-11.9,10.4C433.8,675.3,432.3,674.3,432.3,672.7z"/>
	
		<linearGradient id="SVGID_42_" gradientUnits="userSpaceOnUse" x1="1080.2849" y1="-24.6187" x2="1138.3025" y2="1337.7766" gradientTransform="matrix(-1 0 0 -1 1427.3461 1065.7179)">
		<stop  offset="0" style="stop-color:#F6AC07"/>
		<stop  offset="0.19" style="stop-color:#F8AF09;stop-opacity:0.79"/>
		<stop  offset="0.59" style="stop-color:#FCB50D;stop-opacity:0.37"/>
		<stop  offset="0.87" style="stop-color:#FEB90F;stop-opacity:0.1"/>
		<stop  offset="1" style="stop-color:#FFBA10;stop-opacity:0"/>
	</linearGradient>
	<path class="st42" d="M343.1,652.3l-13.6-6.9c-0.5-0.2-1.1-0.2-1.5,0.1l-12.5,9.3c-1.1,0.8-2.6-0.2-2.5-1.8l1.3-17.3
		c0.1-0.6-0.2-1.2-0.6-1.6L302.4,623c-0.8-0.8-0.8-2.1,0-2.8c0.2-0.2,0.4-0.4,0.7-0.5l14.5-3.9c0.5-0.2,1-0.6,1.1-1.1l5.4-16.1
		c0.2-0.8,1-1.3,1.8-1.2c0.5,0.1,0.9,0.4,1.1,0.9l7.6,14.9c0.2,0.5,0.7,0.9,1.3,0.9l14.8,1.1c1.3,0.1,2,1.9,1.1,3.1l-9.8,13
		c-0.4,0.5-0.5,1.1-0.4,1.7l3.7,16.8C345.6,651.6,344.3,652.9,343.1,652.3z"/>
	
		<linearGradient id="SVGID_43_" gradientUnits="userSpaceOnUse" x1="1154.2849" y1="-27.3983" x2="1212.1821" y2="1332.2887" gradientTransform="matrix(-1 0 0 -1 1427.3461 1065.7179)">
		<stop  offset="0" style="stop-color:#F6AC07"/>
		<stop  offset="0.19" style="stop-color:#F8AF09;stop-opacity:0.79"/>
		<stop  offset="0.59" style="stop-color:#FCB50D;stop-opacity:0.37"/>
		<stop  offset="0.87" style="stop-color:#FEB90F;stop-opacity:0.1"/>
		<stop  offset="1" style="stop-color:#FFBA10;stop-opacity:0"/>
	</linearGradient>
	<path class="st43" d="M251,729.4l-3.8-18c-0.1-0.6-0.5-1.1-1-1.4l-14.7-6.6c-1-0.6-1.4-1.9-0.8-3c0.1-0.2,0.3-0.4,0.5-0.6l13.4-9.7
		c0.5-0.4,0.8-1,0.8-1.6l0.8-18.5c0.1-1.7,1.7-2.5,2.8-1.4l12,11.9c0.4,0.4,1,0.6,1.6,0.4l15.2-4.9c1.4-0.4,2.6,1.2,2,2.7l-6,17.1
		c-0.2,0.6-0.2,1.3,0.2,1.9l8.6,15.5c0.8,1.4-0.1,3.2-1.6,3.1l-15.7-1.4c-0.6,0-1.1,0.2-1.5,0.7l-9.9,14.4c-0.5,0.8-1.5,1-2.2,0.6
		C251.3,730.5,251,730,251,729.4z"/>
	
		<linearGradient id="SVGID_44_" gradientUnits="userSpaceOnUse" x1="1313.0382" y1="-34.8178" x2="1370.8651" y2="1323.0833" gradientTransform="matrix(-1 0 0 -1 1427.3461 1065.7179)">
		<stop  offset="0" style="stop-color:#F6AC07"/>
		<stop  offset="0.19" style="stop-color:#F8AF09;stop-opacity:0.79"/>
		<stop  offset="0.59" style="stop-color:#FCB50D;stop-opacity:0.37"/>
		<stop  offset="0.87" style="stop-color:#FEB90F;stop-opacity:0.1"/>
		<stop  offset="1" style="stop-color:#FFBA10;stop-opacity:0"/>
	</linearGradient>
	<path class="st44" d="M95.6,734.2l-8.8-21c-0.3-0.7-0.9-1.2-1.6-1.4l-19.8-3.4c-1.8-0.3-2.5-2.9-1.2-4.3l14.3-16.4
		c0.5-0.6,0.7-1.4,0.6-2.2l-3.4-23.1c-0.3-2.1,1.6-3.7,3.1-2.7l17.7,10.9c0.6,0.4,1.4,0.4,2,0l17.7-10.9c1.6-1,3.4,0.6,3.1,2.7
		l-3.4,23.1c-0.1,0.8,0.1,1.6,0.6,2.2l14.3,16.3c1.3,1.5,0.6,4-1.2,4.3l-19.8,3.4c-0.7,0.2-1.4,0.7-1.6,1.4l-8.8,21
		c-0.3,1.1-1.4,1.7-2.5,1.4C96.4,735.5,95.8,734.9,95.6,734.2z"/>
	
		<linearGradient id="SVGID_45_" gradientUnits="userSpaceOnUse" x1="1218.7046" y1="-30.0748" x2="1276.5415" y2="1328.0367" gradientTransform="matrix(-1 0 0 -1 1427.3461 1065.7179)">
		<stop  offset="0" style="stop-color:#F6AC07"/>
		<stop  offset="0.19" style="stop-color:#F8AF09;stop-opacity:0.79"/>
		<stop  offset="0.59" style="stop-color:#FCB50D;stop-opacity:0.37"/>
		<stop  offset="0.87" style="stop-color:#FEB90F;stop-opacity:0.1"/>
		<stop  offset="1" style="stop-color:#FFBA10;stop-opacity:0"/>
	</linearGradient>
	<path class="st45" d="M187.5,666.6l-6.2-15.8c-0.2-0.5-0.6-0.9-1.2-1.1l-14.6-2.9c-1-0.4-1.6-1.5-1.2-2.6c0.1-0.2,0.2-0.5,0.4-0.7
		l10.9-11.8c0.4-0.5,0.6-1.1,0.5-1.7l-2.1-17.2c-0.2-1.5,1.2-2.7,2.4-1.9l12.9,8.5c0.5,0.3,1,0.3,1.5,0l13.3-7.7
		c1.2-0.7,2.5,0.5,2.3,2l-2.9,17.1c-0.1,0.6,0.1,1.2,0.4,1.7l10.4,12.4c0.7,0.9,0.6,2.1-0.3,2.8c-0.2,0.2-0.4,0.3-0.7,0.4l-14.7,2.1
		c-0.6,0.1-1,0.5-1.2,1l-6.9,15.4c-0.3,0.8-1.2,1.2-2,0.9C187.9,667.3,187.6,667,187.5,666.6z"/>
	
		<linearGradient id="SVGID_46_" gradientUnits="userSpaceOnUse" x1="829.955" y1="-10.589" x2="887.792" y2="1347.5527" gradientTransform="matrix(-1 0 0 -1 1427.3461 1065.7179)">
		<stop  offset="0" style="stop-color:#F6AC07"/>
		<stop  offset="0.19" style="stop-color:#F8AF09;stop-opacity:0.79"/>
		<stop  offset="0.59" style="stop-color:#FCB50D;stop-opacity:0.37"/>
		<stop  offset="0.87" style="stop-color:#FEB90F;stop-opacity:0.1"/>
		<stop  offset="1" style="stop-color:#FFBA10;stop-opacity:0"/>
	</linearGradient>
	<path class="st46" d="M603.2,633.4l-10.9,11.8c-0.4,0.5-0.6,1.1-0.5,1.7l2.1,17.2c0.2,1.5-1.2,2.7-2.4,1.9l-12.9-8.5
		c-0.4-0.3-1-0.3-1.5-0.1l-13.3,7.6c-1.2,0.7-2.5-0.5-2.3-2.1l2.9-17.1c0.1-0.6-0.1-1.2-0.4-1.7l-10.3-12.5
		c-0.7-0.9-0.6-2.1,0.3-2.8c0.2-0.2,0.4-0.3,0.7-0.4l14.7-2c0.6-0.1,1-0.5,1.2-1l6.9-15.4c0.3-0.8,1.2-1.2,1.9-0.9
		c0.5,0.2,0.8,0.5,0.9,1l6.2,15.8c0.2,0.5,0.6,0.9,1.2,1.1l14.6,3c1,0.4,1.6,1.6,1.2,2.6C603.5,633,603.4,633.2,603.2,633.4z"/>
	
		<linearGradient id="SVGID_47_" gradientUnits="userSpaceOnUse" x1="874.4423" y1="-14.3015" x2="932.4398" y2="1347.7628" gradientTransform="matrix(-1 0 0 -1 1427.3461 1065.7179)">
		<stop  offset="0" style="stop-color:#F6AC07"/>
		<stop  offset="0.19" style="stop-color:#F8AF09;stop-opacity:0.79"/>
		<stop  offset="0.59" style="stop-color:#FCB50D;stop-opacity:0.37"/>
		<stop  offset="0.87" style="stop-color:#FEB90F;stop-opacity:0.1"/>
		<stop  offset="1" style="stop-color:#FFBA10;stop-opacity:0"/>
	</linearGradient>
	<path class="st47" d="M520.8,570.7l0.6-12.8c0-0.4-0.1-0.9-0.5-1.2l-8.7-7.8c-0.6-0.6-0.6-1.5-0.1-2.1c0.1-0.1,0.3-0.3,0.5-0.3
		l10.5-3.3c0.4-0.1,0.7-0.5,0.8-0.9l3.6-12c0.1-0.6,0.7-1,1.3-0.9c0.3,0.1,0.6,0.3,0.8,0.6l5.9,10.7c0.2,0.4,0.5,0.6,1,0.6l10.9,0.4
		c0.8,0.1,1.3,0.9,1.1,1.7c0,0.2-0.1,0.4-0.3,0.6l-6.9,9.9c-0.3,0.4-0.3,0.8-0.2,1.3l3.1,12.3c0.3,1.1-0.6,2.1-1.6,1.7l-10.2-4.6
		c-0.4-0.2-0.8-0.1-1.1,0.2l-9,7.2C521.8,572.5,520.7,571.8,520.8,570.7z"/>
	
		<linearGradient id="SVGID_48_" gradientUnits="userSpaceOnUse" x1="974.7264" y1="-499.6632" x2="1032.724" y2="862.4011" gradientTransform="matrix(-1 0 0 -1 1427.3461 1065.7179)">
		<stop  offset="0" style="stop-color:#F6AC07"/>
		<stop  offset="0.19" style="stop-color:#F8AF09;stop-opacity:0.79"/>
		<stop  offset="0.59" style="stop-color:#FCB50D;stop-opacity:0.37"/>
		<stop  offset="0.87" style="stop-color:#FEB90F;stop-opacity:0.1"/>
		<stop  offset="1" style="stop-color:#FFBA10;stop-opacity:0"/>
	</linearGradient>
	<path class="st48" d="M420.5,1056.1l0.6-12.8c0-0.4-0.1-0.9-0.5-1.2l-8.7-7.8c-0.6-0.6-0.6-1.5-0.1-2.1c0.1-0.1,0.3-0.3,0.5-0.3
		l10.5-3.3c0.4-0.1,0.7-0.5,0.8-0.9l3.6-12c0.1-0.6,0.7-1,1.3-0.9c0.3,0.1,0.6,0.3,0.8,0.6l5.9,10.7c0.2,0.4,0.5,0.6,1,0.6l10.9,0.4
		c0.8,0.1,1.3,0.9,1.1,1.7c0,0.2-0.1,0.4-0.3,0.6l-6.9,9.9c-0.3,0.4-0.3,0.8-0.2,1.3l3.1,12.3c0.3,1.1-0.6,2.1-1.6,1.7l-10.2-4.6
		c-0.4-0.2-0.8-0.1-1.1,0.2l-9,7.2C421.5,1057.9,420.4,1057.2,420.5,1056.1z"/>
	
		<linearGradient id="SVGID_49_" gradientUnits="userSpaceOnUse" x1="342.6891" y1="-499.6632" x2="400.6867" y2="862.4011" gradientTransform="matrix(-0.8955 -0.4451 0.4451 -0.8955 1375.9751 1225.3013)">
		<stop  offset="0" style="stop-color:#F6AC07"/>
		<stop  offset="0.19" style="stop-color:#F8AF09;stop-opacity:0.79"/>
		<stop  offset="0.59" style="stop-color:#FCB50D;stop-opacity:0.37"/>
		<stop  offset="0.87" style="stop-color:#FEB90F;stop-opacity:0.1"/>
		<stop  offset="1" style="stop-color:#FFBA10;stop-opacity:0"/>
	</linearGradient>
	<path class="st49" d="M1044.7,1049.8l6.2-11.2c0.2-0.4,0.3-0.9,0.1-1.3l-4.3-10.9c-0.3-0.8,0.1-1.6,0.8-1.9c0.1,0,0.4-0.1,0.6,0
		l10.9,1.7c0.4,0.1,0.8-0.1,1.1-0.4l8.6-9.1c0.4-0.5,1.1-0.6,1.6-0.2c0.2,0.2,0.4,0.5,0.4,0.9l0.5,12.2c0,0.4,0.2,0.8,0.6,1l9.6,5.2
		c0.7,0.4,0.8,1.4,0.2,2c-0.1,0.2-0.3,0.3-0.5,0.4l-10.6,5.8c-0.4,0.2-0.6,0.6-0.8,1.1l-2.7,12.4c-0.2,1.1-1.5,1.6-2.2,0.8l-7.1-8.7
		c-0.3-0.4-0.7-0.4-1.1-0.3l-11.3,2.4C1044.8,1051.9,1044.1,1050.8,1044.7,1049.8z"/>
	
		<linearGradient id="SVGID_50_" gradientUnits="userSpaceOnUse" x1="1004.3389" y1="-20.9262" x2="1062.3665" y2="1341.7001" gradientTransform="matrix(-1 0 0 -1 1427.3461 1065.7179)">
		<stop  offset="0" style="stop-color:#F6AC07"/>
		<stop  offset="0.19" style="stop-color:#F8AF09;stop-opacity:0.79"/>
		<stop  offset="0.59" style="stop-color:#FCB50D;stop-opacity:0.37"/>
		<stop  offset="0.87" style="stop-color:#FEB90F;stop-opacity:0.1"/>
		<stop  offset="1" style="stop-color:#FFBA10;stop-opacity:0"/>
	</linearGradient>
	<path class="st50" d="M380.4,561.4l8.3-10.5c0.3-0.4,0.4-0.9,0.3-1.4l-2.7-13.9c-0.2-1.3,0.9-2.3,1.8-1.7l11,6
		c0.4,0.2,0.9,0.2,1.2-0.1l10.5-7.3c0.9-0.7,2.1,0.2,2,1.5l-1.4,14.2c-0.1,0.5,0.1,1,0.4,1.3l9.1,9.4c0.6,0.7,0.6,1.7,0,2.3
		c-0.2,0.2-0.4,0.3-0.6,0.4l-11.9,2.7c-0.5,0.1-0.8,0.4-1,0.9l-4.8,13.1c-0.2,0.7-0.8,1.1-1.5,0.9c-0.4-0.1-0.7-0.4-0.9-0.8
		l-5.9-12.5c-0.2-0.4-0.6-0.7-1-0.8l-12.2-1.3c-0.9-0.2-1.4-1.1-1.1-2C380.1,561.8,380.2,561.5,380.4,561.4z"/>
	
		<linearGradient id="SVGID_51_" gradientUnits="userSpaceOnUse" x1="1139.0338" y1="-26.7892" x2="1196.9712" y2="1333.5597" gradientTransform="matrix(-1 0 0 -1 1427.3461 1065.7179)">
		<stop  offset="0" style="stop-color:#F6AC07"/>
		<stop  offset="0.19" style="stop-color:#F8AF09;stop-opacity:0.79"/>
		<stop  offset="0.59" style="stop-color:#FCB50D;stop-opacity:0.37"/>
		<stop  offset="0.87" style="stop-color:#FEB90F;stop-opacity:0.1"/>
		<stop  offset="1" style="stop-color:#FFBA10;stop-opacity:0"/>
	</linearGradient>
	<path class="st51" d="M250.7,542.1l9.7,1.8c0.4,0.1,0.7-0.1,0.9-0.4l6.8-8.4c0.3-0.5,0.9-0.6,1.4-0.3c0.3,0.2,0.5,0.6,0.4,0.9
		l1.6,11.4c0,0.4,0.3,0.7,0.6,0.9l8.9,5c0.6,0.4,0.8,1.3,0.4,1.9c-0.1,0.1-0.2,0.3-0.4,0.4l-8.8,5.3c-0.3,0.2-0.6,0.6-0.6,1
		l-1.3,11.5c-0.1,1-1.2,1.5-1.8,0.7l-7-8.2c-0.2-0.3-0.6-0.4-0.9-0.3l-9.7,2.1c-0.9,0.2-1.5-0.9-1.1-1.8l4.5-10.3
		c0.2-0.4,0.2-0.8,0-1.2l-4.7-10.2C249.1,543,249.8,541.9,250.7,542.1z"/>
	
		<linearGradient id="SVGID_52_" gradientUnits="userSpaceOnUse" x1="1400.7307" y1="-59.4276" x2="1458.6682" y2="1300.9213" gradientTransform="matrix(-0.7452 0.6669 -0.5174 -0.5781 1343.2288 -66.8444)">
		<stop  offset="0" style="stop-color:#F6AC07"/>
		<stop  offset="0.19" style="stop-color:#F8AF09;stop-opacity:0.79"/>
		<stop  offset="0.59" style="stop-color:#FCB50D;stop-opacity:0.37"/>
		<stop  offset="0.87" style="stop-color:#FEB90F;stop-opacity:0.1"/>
		<stop  offset="1" style="stop-color:#FFBA10;stop-opacity:0"/>
	</linearGradient>
	<path class="st52" d="M17.4,608.5l8.2-5.4c0.3-0.2,0.5-0.5,0.5-0.8l0.7-9.4c0-0.5,0.4-0.9,0.9-1.1c0.3-0.1,0.7,0,0.8,0.3l7.1,5.5
		c0.2,0.2,0.6,0.2,0.9,0.1l9.2-3c0.7-0.2,1.3,0.2,1.3,0.8c0,0.1,0,0.3-0.1,0.5l-3.8,8.9c-0.1,0.3-0.1,0.7,0.1,1l5,7.5
		c0.4,0.6-0.1,1.7-1,1.6l-9.5-0.1c-0.3,0-0.7,0.2-0.8,0.4l-6.1,7.7c-0.6,0.7-1.6,0.5-1.8-0.3l-2-9c-0.1-0.4-0.3-0.6-0.6-0.7
		l-8.8-2.8C16.7,610.1,16.6,609,17.4,608.5z"/>
	
		<linearGradient id="SVGID_53_" gradientUnits="userSpaceOnUse" x1="1295.288" y1="-47.2295" x2="1353.2955" y2="1314.9952" gradientTransform="matrix(-1 0 0 -1 1427.3461 1065.7179)">
		<stop  offset="0" style="stop-color:#F6AC07"/>
		<stop  offset="0.19" style="stop-color:#F8AF09;stop-opacity:0.79"/>
		<stop  offset="0.59" style="stop-color:#FCB50D;stop-opacity:0.37"/>
		<stop  offset="0.87" style="stop-color:#FEB90F;stop-opacity:0.1"/>
		<stop  offset="1" style="stop-color:#FFBA10;stop-opacity:0"/>
	</linearGradient>
	<path class="st53" d="M107.7,532.4l6.5,12.3c0.2,0.4,0.6,0.7,1.1,0.7l12.3,0.7c0.9,0.1,1.5,1,1.3,1.8c0,0.3-0.2,0.5-0.3,0.7
		l-7.9,11c-0.3,0.4-0.4,0.9-0.3,1.4l3.3,13.9c0.3,1.3-0.8,2.4-1.8,1.9l-11.4-5.4c-0.4-0.2-0.9-0.1-1.2,0.2L99,579.5
		c-0.9,0.7-2.1-0.1-2.1-1.4l0.9-14.4c0-0.5-0.1-1-0.5-1.3l-9.6-9c-0.7-0.6-0.7-1.7,0-2.4c0.2-0.2,0.3-0.3,0.5-0.4l11.9-3.5
		c0.5-0.2,0.8-0.5,0.9-1l4.3-13.5c0.2-0.7,0.9-1.1,1.5-0.9C107.3,531.8,107.6,532.1,107.7,532.4z"/>
	
		<linearGradient id="SVGID_54_" gradientUnits="userSpaceOnUse" x1="1036.4001" y1="41.041" x2="1071.8319" y2="873.0495" gradientTransform="matrix(-1 0 0 -1 1427.3461 1065.7179)">
		<stop  offset="0" style="stop-color:#F6AC07"/>
		<stop  offset="0.19" style="stop-color:#F8AF09;stop-opacity:0.79"/>
		<stop  offset="0.59" style="stop-color:#FCB50D;stop-opacity:0.37"/>
		<stop  offset="0.87" style="stop-color:#FEB90F;stop-opacity:0.1"/>
		<stop  offset="1" style="stop-color:#FFBA10;stop-opacity:0"/>
	</linearGradient>
	<path class="st54" d="M397.9,973.7l-13.6-11.5c-0.4-0.4-1.1-0.5-1.7-0.3l-15.8,6.6c-1.4,0.6-2.8-1-2.3-2.6l5.1-18.7
		c0.2-0.7,0.1-1.3-0.3-2l-10.2-15.5c-0.9-1.4-0.1-3.4,1.4-3.4l16.8-0.1c0.6,0,1.2-0.4,1.5-0.9l9.4-16.2c0.9-1.5,2.8-1.2,3.2,0.6
		l5.2,18.7c0.2,0.6,0.6,1.2,1.2,1.4l16.1,5.5c1.5,0.5,1.8,2.7,0.6,3.7L401,950.5c-0.5,0.4-0.8,1.1-0.7,1.8l0.5,19.7
		C400.8,973.7,399.1,974.8,397.9,973.7z"/>
	
		<linearGradient id="SVGID_55_" gradientUnits="userSpaceOnUse" x1="748.3486" y1="-72.5926" x2="789.5075" y2="893.905" gradientTransform="matrix(-0.8253 0.8039 -0.6978 -0.7163 1330.1873 415.2196)">
		<stop  offset="0" style="stop-color:#F6AC07"/>
		<stop  offset="0.19" style="stop-color:#F8AF09;stop-opacity:0.79"/>
		<stop  offset="0.59" style="stop-color:#FCB50D;stop-opacity:0.37"/>
		<stop  offset="0.87" style="stop-color:#FEB90F;stop-opacity:0.1"/>
		<stop  offset="1" style="stop-color:#FFBA10;stop-opacity:0"/>
	</linearGradient>
	<path class="st55" d="M684.3,1046.5l-2.7-22.4c-0.1-0.8-0.6-1.5-1.3-1.9l-20-10.8c-1.7-1-1.7-3.6,0.1-4.4l20.5-9.2
		c0.7-0.3,1.3-1,1.4-1.7l3.8-22.2c0.3-2,2.9-2.7,4.2-1.2l15.4,16.9c0.5,0.6,1.3,0.9,2.1,0.8l22.3-2.8c2-0.3,3.4,1.9,2.5,3.6
		l-11,19.5c-0.4,0.8-0.4,1.6-0.1,2.3l10,20.4c0.9,1.8-0.7,3.9-2.7,3.5l-22.1-4.8c-0.7-0.2-1.6,0-2.1,0.6l-16.2,15.5
		C687,1049.4,684.6,1048.5,684.3,1046.5z"/>
	
		<linearGradient id="SVGID_56_" gradientUnits="userSpaceOnUse" x1="1016.2406" y1="224.7699" x2="1057.3995" y2="1191.2676" gradientTransform="matrix(-1.0873 0.3809 -0.3306 -0.9438 1483.8986 916.7098)">
		<stop  offset="0" style="stop-color:#F6AC07"/>
		<stop  offset="0.19" style="stop-color:#F8AF09;stop-opacity:0.79"/>
		<stop  offset="0.59" style="stop-color:#FCB50D;stop-opacity:0.37"/>
		<stop  offset="0.87" style="stop-color:#FEB90F;stop-opacity:0.1"/>
		<stop  offset="1" style="stop-color:#FFBA10;stop-opacity:0"/>
	</linearGradient>
	<path class="st56" d="M242.4,1038.1l7-21.5c0.3-0.8,0.1-1.6-0.4-2.3l-13.6-18.3c-1.2-1.6-0.1-4,1.9-3.9l22.5,0.3c0.8,0,1.6-0.4,2-1
		l12.8-18.6c1.1-1.7,3.7-1.2,4.3,0.7l6.9,21.8c0.3,0.7,0.8,1.4,1.6,1.6l21.5,6.8c1.9,0.6,2.3,3.2,0.7,4.3l-18.2,13.1
		c-0.7,0.5-1,1.3-1,2l0.5,22.7c0,2-2.3,3.2-3.9,2l-18-13.7c-0.6-0.5-1.4-0.6-2.2-0.4l-21.2,7.2
		C243.7,1041.9,241.8,1040.1,242.4,1038.1z"/>
	
		<linearGradient id="SVGID_57_" gradientUnits="userSpaceOnUse" x1="1249.0543" y1="12.5612" x2="1289.4207" y2="960.4432" gradientTransform="matrix(-1 0 0 -1 1427.3461 1065.7179)">
		<stop  offset="0" style="stop-color:#F6AC07"/>
		<stop  offset="0.19" style="stop-color:#F8AF09;stop-opacity:0.79"/>
		<stop  offset="0.59" style="stop-color:#FCB50D;stop-opacity:0.37"/>
		<stop  offset="0.87" style="stop-color:#FEB90F;stop-opacity:0.1"/>
		<stop  offset="1" style="stop-color:#FFBA10;stop-opacity:0"/>
	</linearGradient>
	<path class="st57" d="M204.1,944.1l-17.3,9.3c-0.6,0.3-1.1,1-1.2,1.8l-3.3,22c-0.3,2-2.4,2.7-3.6,1.2l-12.9-16.5
		c-0.4-0.6-1.1-0.8-1.8-0.8l-18.9,3.1c-1.7,0.3-2.9-1.8-2.1-3.6l9.4-19.4c0.3-0.7,0.3-1.5,0.1-2.2l-8.4-20.1
		c-0.8-1.8,0.6-3.8,2.3-3.4l18.7,4.5c0.7,0.1,1.4-0.1,1.8-0.6l13.7-15.5c1.3-1.4,3.3-0.6,3.5,1.5l2.2,22.2c0.1,0.8,0.4,1.5,1,1.9
		l16.8,10.5c1.2,0.8,1.5,2.5,0.6,3.6C204.6,943.8,204.4,944,204.1,944.1z"/>
	
		<linearGradient id="SVGID_58_" gradientUnits="userSpaceOnUse" x1="1365.2031" y1="51.2991" x2="1402.7893" y2="933.869" gradientTransform="matrix(-1 0 0 -1 1427.3461 1065.7179)">
		<stop  offset="0" style="stop-color:#F6AC07"/>
		<stop  offset="0.19" style="stop-color:#F8AF09;stop-opacity:0.79"/>
		<stop  offset="0.59" style="stop-color:#FCB50D;stop-opacity:0.37"/>
		<stop  offset="0.87" style="stop-color:#FEB90F;stop-opacity:0.1"/>
		<stop  offset="1" style="stop-color:#FFBA10;stop-opacity:0"/>
	</linearGradient>
	<path class="st58" d="M38.3,881.7l1.5-20.7c0.1-0.7-0.2-1.4-0.7-1.9l-13.7-13.2c-1.2-1.2-0.8-3.5,0.8-4l17.2-4.8
		c0.6-0.2,1.2-0.7,1.4-1.4l6.4-19.4c0.6-1.7,2.6-1.9,3.4-0.4l9.2,17.8c0.3,0.6,0.8,1,1.6,1.1L83,836c1.6,0.1,2.4,2.3,1.4,3.7
		l-11.6,15.7c-0.4,0.6-0.6,1.4-0.4,2.1l4.5,20.1c0.4,1.8-1.2,3.4-2.6,2.7l-16.3-8c-0.6-0.3-1.3-0.2-1.7,0.2l-14.9,11.2
		C40,884.8,38.2,883.6,38.3,881.7z"/>
	
		<linearGradient id="SVGID_59_" gradientUnits="userSpaceOnUse" x1="1059.7085" y1="-23.6454" x2="1117.7159" y2="1338.4188" gradientTransform="matrix(-1 0 0 -1 1427.3461 1065.7179)">
		<stop  offset="0" style="stop-color:#F6AC07"/>
		<stop  offset="0.19" style="stop-color:#F8AF09;stop-opacity:0.79"/>
		<stop  offset="0.59" style="stop-color:#FCB50D;stop-opacity:0.37"/>
		<stop  offset="0.87" style="stop-color:#FEB90F;stop-opacity:0.1"/>
		<stop  offset="1" style="stop-color:#FFBA10;stop-opacity:0"/>
	</linearGradient>
	<path class="st59" d="M334.9,509.7l0.4-10c0-0.3-0.1-0.7-0.4-0.9l-6.7-6.1c-0.5-0.4-0.5-1.2-0.1-1.6c0.1-0.1,0.2-0.2,0.4-0.3
		l8.2-2.6c0.3-0.1,0.5-0.4,0.6-0.7l2.8-9.4c0.1-0.5,0.5-0.8,1-0.7c0.3,0,0.5,0.2,0.6,0.5l4.6,8.4c0.1,0.3,0.4,0.5,0.7,0.5l8.5,0.3
		c0.6,0.1,1,0.7,0.9,1.3c0,0.2-0.1,0.3-0.2,0.5l-5.4,7.8c-0.2,0.3-0.3,0.7-0.2,1l2.4,9.6c0.2,0.9-0.5,1.6-1.2,1.3l-7.9-3.6
		c-0.3-0.1-0.6-0.1-0.9,0.1l-7,5.6C335.7,511.2,334.8,510.6,334.9,509.7z"/>
	
		<linearGradient id="SVGID_60_" gradientUnits="userSpaceOnUse" x1="838.6819" y1="-10.8802" x2="896.5292" y2="1347.3619" gradientTransform="matrix(-1 0 0 -1 1427.3461 1065.7179)">
		<stop  offset="0" style="stop-color:#F6AC07"/>
		<stop  offset="0.19" style="stop-color:#F8AF09;stop-opacity:0.79"/>
		<stop  offset="0.59" style="stop-color:#FCB50D;stop-opacity:0.37"/>
		<stop  offset="0.87" style="stop-color:#FEB90F;stop-opacity:0.1"/>
		<stop  offset="1" style="stop-color:#FFBA10;stop-opacity:0"/>
	</linearGradient>
	<path class="st60" d="M577.9,485.5l-6.4,6.8c-0.2,0.3-0.4,0.6-0.3,1l1.1,10c0.1,0.9-0.7,1.5-1.4,1.1l-7.5-5c-0.3-0.2-0.6-0.2-0.9,0
		l-7.8,4.4c-0.7,0.4-1.5-0.3-1.3-1.2l1.8-9.9c0.1-0.4,0-0.7-0.2-1l-5.9-7.4c-0.4-0.5-0.3-1.2,0.1-1.6c0.1-0.1,0.3-0.2,0.4-0.2
		l8.6-1.1c0.3,0,0.6-0.3,0.7-0.6l4.1-8.9c0.2-0.5,0.7-0.7,1.1-0.5c0.3,0.1,0.5,0.3,0.5,0.6l3.5,9.2c0.1,0.3,0.4,0.5,0.7,0.6l8.5,1.9
		c0.6,0.2,0.9,0.9,0.6,1.5C578,485.3,577.9,485.4,577.9,485.5z"/>
	
		<linearGradient id="SVGID_61_" gradientUnits="userSpaceOnUse" x1="965.6937" y1="-19.0089" x2="1023.7012" y2="1343.0554" gradientTransform="matrix(-1 0 0 -1 1427.3461 1065.7179)">
		<stop  offset="0" style="stop-color:#F6AC07"/>
		<stop  offset="0.19" style="stop-color:#F8AF09;stop-opacity:0.79"/>
		<stop  offset="0.59" style="stop-color:#FCB50D;stop-opacity:0.37"/>
		<stop  offset="0.87" style="stop-color:#FEB90F;stop-opacity:0.1"/>
		<stop  offset="1" style="stop-color:#FFBA10;stop-opacity:0"/>
	</linearGradient>
	<path class="st61" d="M429.7,453l0.3-6c0-0.2-0.1-0.4-0.2-0.5l-4-3.6c-0.3-0.3-0.3-0.7,0-1c0.1-0.1,0.1-0.1,0.2-0.2l4.9-1.5
		c0.2-0.1,0.3-0.2,0.4-0.4l1.7-5.6c0-0.3,0.2-0.5,0.5-0.5c0.2,0,0.4,0.2,0.5,0.4l2.8,5c0.1,0.2,0.3,0.3,0.5,0.3l5.1,0.2
		c0.4,0.1,0.6,0.4,0.5,0.8c0,0.1-0.1,0.2-0.1,0.2l-3.2,4.6c-0.1,0.2-0.1,0.4-0.1,0.6l1.4,5.7c0.1,0.5-0.3,1-0.7,0.8l-4.7-2.1
		c-0.2-0.1-0.4-0.1-0.5,0.1l-4.2,3.4C430.2,453.9,429.7,453.5,429.7,453z"/>
	
		<linearGradient id="SVGID_62_" gradientUnits="userSpaceOnUse" x1="1160.8318" y1="-27.6247" x2="1218.739" y2="1332.1321" gradientTransform="matrix(-1 0 0 -1 1427.3461 1065.7179)">
		<stop  offset="0" style="stop-color:#F6AC07"/>
		<stop  offset="0.19" style="stop-color:#F8AF09;stop-opacity:0.79"/>
		<stop  offset="0.59" style="stop-color:#FCB50D;stop-opacity:0.37"/>
		<stop  offset="0.87" style="stop-color:#FEB90F;stop-opacity:0.1"/>
		<stop  offset="1" style="stop-color:#FFBA10;stop-opacity:0"/>
	</linearGradient>
	<path class="st62" d="M241.9,457.6l-5-5c-0.2-0.2-0.4-0.2-0.6-0.2l-6.4,2c-0.6,0.2-1.1-0.5-0.8-1.1l2.5-7.2
		c0.1-0.3,0.1-0.5-0.1-0.8l-3.6-6.5c-0.3-0.4-0.2-0.9,0.2-1.2c0.1-0.1,0.3-0.1,0.4-0.1l6.6,0.6c0.2,0,0.5-0.1,0.6-0.3l4.2-6
		c0.2-0.3,0.7-0.4,1-0.2c0.2,0.1,0.3,0.3,0.3,0.5l1.5,7.5c0,0.3,0.2,0.5,0.4,0.6l6.2,2.8c0.4,0.3,0.6,0.8,0.3,1.2
		c-0.1,0.1-0.1,0.2-0.2,0.3l-5.6,4c-0.2,0.2-0.3,0.4-0.4,0.7l-0.4,7.7C243.1,457.8,242.4,458.1,241.9,457.6z"/>
	
		<linearGradient id="SVGID_63_" gradientUnits="userSpaceOnUse" x1="1234.7499" y1="-31.7384" x2="1292.687" y2="1328.8612" gradientTransform="matrix(-1 0 0 -1 1427.3461 1065.7179)">
		<stop  offset="0" style="stop-color:#F6AC07"/>
		<stop  offset="0.19" style="stop-color:#F8AF09;stop-opacity:0.79"/>
		<stop  offset="0.59" style="stop-color:#FCB50D;stop-opacity:0.37"/>
		<stop  offset="0.87" style="stop-color:#FEB90F;stop-opacity:0.1"/>
		<stop  offset="1" style="stop-color:#FFBA10;stop-opacity:0"/>
	</linearGradient>
	<path class="st63" d="M163.6,509.5l-0.8-7.7c0-0.3-0.2-0.5-0.4-0.6l-5.9-3.6c-0.4-0.3-0.5-0.9-0.2-1.3c0.1-0.1,0.1-0.2,0.2-0.2
		l6-3.3c0.2-0.1,0.4-0.4,0.4-0.6l1.1-7.7c0-0.4,0.3-0.7,0.7-0.7c0.2,0,0.4,0.1,0.5,0.2l4.5,5.6c0.1,0.2,0.4,0.3,0.6,0.3l6.5-1.2
		c0.6-0.1,1,0.6,0.7,1.2l-3.2,6.8c-0.1,0.3-0.1,0.5,0,0.8l3,6.9c0.3,0.6-0.2,1.3-0.8,1.2l-6.5-1.4c-0.2-0.1-0.5,0-0.6,0.2l-4.7,5.5
		C164.4,510.5,163.7,510.2,163.6,509.5z"/>
	
		<linearGradient id="SVGID_64_" gradientUnits="userSpaceOnUse" x1="934.3522" y1="-17.4966" x2="992.3698" y2="1344.9993" gradientTransform="matrix(-1 0 0 -1 1427.3461 1065.7179)">
		<stop  offset="0" style="stop-color:#F6AC07"/>
		<stop  offset="0.19" style="stop-color:#F8AF09;stop-opacity:0.79"/>
		<stop  offset="0.59" style="stop-color:#FCB50D;stop-opacity:0.37"/>
		<stop  offset="0.87" style="stop-color:#FEB90F;stop-opacity:0.1"/>
		<stop  offset="1" style="stop-color:#FFBA10;stop-opacity:0"/>
	</linearGradient>
	<path class="st64" d="M468.2,513.4l-3.3-6.7c-0.1-0.2-0.3-0.4-0.6-0.4l-6.6-0.6c-0.5-0.1-0.8-0.6-0.6-1.1c0-0.1,0.1-0.2,0.2-0.3
		l4.4-5.8c0.2-0.2,0.2-0.5,0.2-0.8l-1.5-7.5c-0.1-0.7,0.4-1.2,1-1l6,3.1c0.2,0.1,0.5,0.1,0.7,0l5.6-4c0.5-0.4,1.2,0.1,1.1,0.8
		l-0.7,7.7c0,0.3,0.1,0.5,0.3,0.7l5,5c0.3,0.4,0.3,0.9,0,1.3c-0.1,0.1-0.2,0.1-0.3,0.2l-6.5,1.6c-0.2,0.1-0.4,0.3-0.5,0.5l-2.5,7.2
		c-0.1,0.4-0.5,0.6-0.8,0.5C468.4,513.8,468.2,513.6,468.2,513.4z"/>
	
		<linearGradient id="SVGID_65_" gradientUnits="userSpaceOnUse" x1="1216.0413" y1="-31.6079" x2="1274.0388" y2="1330.4565" gradientTransform="matrix(-1 0 0 -1 1427.3461 1065.7179)">
		<stop  offset="0" style="stop-color:#F6AC07"/>
		<stop  offset="0.19" style="stop-color:#F8AF09;stop-opacity:0.79"/>
		<stop  offset="0.59" style="stop-color:#FCB50D;stop-opacity:0.37"/>
		<stop  offset="0.87" style="stop-color:#FEB90F;stop-opacity:0.1"/>
		<stop  offset="1" style="stop-color:#FFBA10;stop-opacity:0"/>
	</linearGradient>
	<path class="st65" d="M176.6,400.9l0.3-5.9c0-0.2-0.1-0.4-0.2-0.6l-4-3.6c-0.3-0.3-0.3-0.7,0-1c0.1-0.1,0.1-0.1,0.2-0.2l4.9-1.5
		c0.2-0.1,0.3-0.2,0.4-0.4l1.7-5.6c0-0.3,0.3-0.5,0.6-0.5c0.2,0,0.4,0.1,0.4,0.3l2.8,5c0.1,0.2,0.3,0.3,0.5,0.3l5.1,0.2
		c0.4,0.1,0.6,0.4,0.5,0.8c0,0.1,0,0.1-0.1,0.2l-3.2,4.6c-0.1,0.2-0.1,0.4-0.1,0.6l1.4,5.7c0.1,0.5-0.3,1-0.7,0.8l-4.7-2.1
		c-0.2-0.1-0.4,0-0.5,0.1l-4.2,3.4C177.1,401.8,176.6,401.5,176.6,400.9z"/>
	
		<linearGradient id="SVGID_66_" gradientUnits="userSpaceOnUse" x1="1338.9099" y1="-31.6079" x2="1396.9075" y2="1330.4565" gradientTransform="matrix(-1 0 0 -1 1427.3461 1065.7179)">
		<stop  offset="0" style="stop-color:#F6AC07"/>
		<stop  offset="0.19" style="stop-color:#F8AF09;stop-opacity:0.79"/>
		<stop  offset="0.59" style="stop-color:#FCB50D;stop-opacity:0.37"/>
		<stop  offset="0.87" style="stop-color:#FEB90F;stop-opacity:0.1"/>
		<stop  offset="1" style="stop-color:#FFBA10;stop-opacity:0"/>
	</linearGradient>
	<path class="st66" d="M53.7,400.9L54,395c0-0.2-0.1-0.4-0.2-0.6l-4-3.6c-0.3-0.3-0.3-0.7,0-1c0.1-0.1,0.1-0.1,0.2-0.2l4.9-1.5
		c0.2-0.1,0.3-0.2,0.4-0.4l1.7-5.6c0-0.3,0.3-0.5,0.6-0.5c0.2,0,0.4,0.1,0.4,0.3l2.8,5c0.1,0.2,0.3,0.3,0.5,0.3l5.1,0.2
		c0.4,0.1,0.6,0.4,0.5,0.8c0,0.1,0,0.1-0.1,0.2l-3.2,4.6c-0.1,0.2-0.1,0.4-0.1,0.6l1.4,5.7c0.1,0.5-0.3,1-0.7,0.8l-4.7-2.1
		c-0.2-0.1-0.4,0-0.5,0.1l-4.2,3.4C54.2,401.8,53.7,401.5,53.7,400.9z"/>
	
		<linearGradient id="SVGID_67_" gradientUnits="userSpaceOnUse" x1="1216.0409" y1="260.382" x2="1274.0385" y2="1622.4465" gradientTransform="matrix(-1 0 0 -1 1427.3461 1065.7179)">
		<stop  offset="0" style="stop-color:#F6AC07"/>
		<stop  offset="0.19" style="stop-color:#F8AF09;stop-opacity:0.79"/>
		<stop  offset="0.59" style="stop-color:#FCB50D;stop-opacity:0.37"/>
		<stop  offset="0.87" style="stop-color:#FEB90F;stop-opacity:0.1"/>
		<stop  offset="1" style="stop-color:#FFBA10;stop-opacity:0"/>
	</linearGradient>
	<path class="st67" d="M176.6,108.9l0.3-5.9c0-0.2-0.1-0.4-0.2-0.6l-4-3.6c-0.3-0.3-0.3-0.7,0-1c0.1-0.1,0.1-0.1,0.2-0.2l4.9-1.5
		c0.2-0.1,0.3-0.2,0.4-0.4l1.7-5.6c0-0.3,0.3-0.5,0.6-0.5c0.2,0,0.4,0.1,0.4,0.3l2.8,5c0.1,0.2,0.3,0.3,0.5,0.3l5.1,0.2
		c0.4,0.1,0.6,0.4,0.5,0.8c0,0.1,0,0.1-0.1,0.2l-3.2,4.6c-0.1,0.2-0.1,0.4-0.1,0.6l1.4,5.7c0.1,0.5-0.3,1-0.7,0.8l-4.7-2.1
		c-0.2-0.1-0.4,0-0.5,0.1l-4.2,3.4C177.1,109.8,176.6,109.5,176.6,108.9z"/>
	
		<linearGradient id="SVGID_68_" gradientUnits="userSpaceOnUse" x1="861.123" y1="-12.4234" x2="919.0102" y2="1346.8118" gradientTransform="matrix(-1 0 0 -1 1427.3461 1065.7179)">
		<stop  offset="0" style="stop-color:#F6AC07"/>
		<stop  offset="0.19" style="stop-color:#F8AF09;stop-opacity:0.79"/>
		<stop  offset="0.59" style="stop-color:#FCB50D;stop-opacity:0.37"/>
		<stop  offset="0.87" style="stop-color:#FEB90F;stop-opacity:0.1"/>
		<stop  offset="1" style="stop-color:#FFBA10;stop-opacity:0"/>
	</linearGradient>
	<path class="st68" d="M545.5,404.9l-5.1-0.1c-0.2,0-0.4,0.1-0.5,0.3L537,410c-0.1,0.3-0.4,0.4-0.7,0.3c-0.2-0.1-0.3-0.3-0.3-0.5
		l-1.5-5.7c0-0.2-0.2-0.4-0.4-0.4l-4.8-1.8c-0.3-0.2-0.5-0.6-0.3-0.9c0-0.1,0.1-0.2,0.2-0.2l4.2-3.4c0.2-0.1,0.2-0.3,0.2-0.5l-0.1-6
		c0-0.5,0.5-0.8,0.9-0.5l4.1,3.6c0.1,0.1,0.3,0.2,0.5,0.1l4.8-1.9c0.4-0.2,0.8,0.3,0.7,0.8l-1.7,5.6c-0.1,0.2,0,0.4,0.1,0.6l3,4.8
		c0.2,0.3,0.1,0.7-0.2,0.9C545.7,404.8,545.6,404.8,545.5,404.9z"/>
	
		<linearGradient id="SVGID_69_" gradientUnits="userSpaceOnUse" x1="1279.7417" y1="-34.3893" x2="1337.7192" y2="1327.1133" gradientTransform="matrix(-1 0 0 -1 1427.3461 1065.7179)">
		<stop  offset="0" style="stop-color:#F6AC07"/>
		<stop  offset="0.19" style="stop-color:#F8AF09;stop-opacity:0.79"/>
		<stop  offset="0.59" style="stop-color:#FCB50D;stop-opacity:0.37"/>
		<stop  offset="0.87" style="stop-color:#FEB90F;stop-opacity:0.1"/>
		<stop  offset="1" style="stop-color:#FFBA10;stop-opacity:0"/>
	</linearGradient>
	<path class="st69" d="M121.3,467.3l-4.4-6.8c-0.1-0.2-0.4-0.4-0.7-0.4l-7.3,0.4c-0.5-0.1-0.9-0.6-0.8-1.1c0-0.1,0.1-0.3,0.1-0.4
		l4.2-7c0.2-0.3,0.2-0.6,0.1-0.9l-2.5-8c-0.2-0.7,0.4-1.4,1-1.2l6.9,2.5c0.3,0.1,0.5,0,0.7-0.2l5.6-5.2c0.5-0.5,1.3-0.1,1.3,0.7
		l0.1,8.5c0,0.3,0.1,0.6,0.4,0.8l6,4.7c0.4,0.4,0.5,1,0.1,1.4c-0.1,0.1-0.2,0.2-0.3,0.2l-6.9,2.7c-0.3,0.1-0.5,0.4-0.5,0.6l-2,8.2
		c-0.1,0.4-0.5,0.6-0.9,0.5C121.5,467.5,121.4,467.4,121.3,467.3z"/>
	
		<linearGradient id="SVGID_70_" gradientUnits="userSpaceOnUse" x1="1374.687" y1="-56.7873" x2="1432.6644" y2="1304.7153" gradientTransform="matrix(-0.8247 1.1189 -0.9822 -0.7239 1782.5519 -640.3591)">
		<stop  offset="0" style="stop-color:#F6AC07"/>
		<stop  offset="0.19" style="stop-color:#F8AF09;stop-opacity:0.79"/>
		<stop  offset="0.59" style="stop-color:#FCB50D;stop-opacity:0.37"/>
		<stop  offset="0.87" style="stop-color:#FEB90F;stop-opacity:0.1"/>
		<stop  offset="1" style="stop-color:#FFBA10;stop-opacity:0"/>
	</linearGradient>
	<path class="st70" d="M61.4,510.2l-10.3,0c-0.3,0-0.7,0.2-1,0.5l-5.6,8.5c-0.5,0.5-1.3,0.6-1.7,0.1c-0.1-0.1-0.2-0.3-0.3-0.4
		l-3.4-9.8c-0.1-0.4-0.4-0.7-0.8-0.8l-9.9-3c-0.9-0.3-1-1.5-0.4-2l8.1-5.9c0.3-0.3,0.4-0.6,0.4-0.9l-0.5-10c-0.1-0.9,1-1.5,1.8-0.9
		l8.4,6c0.3,0.2,0.7,0.3,1.1,0.1l9.6-3.3c0.7-0.2,1.4,0.2,1.5,0.9c0,0.2,0,0.4-0.1,0.5l-3,9.7c-0.1,0.4,0,0.8,0.2,1l6.4,8.2
		c0.3,0.4,0.2,1-0.3,1.4C61.8,510.1,61.6,510.1,61.4,510.2z"/>
	
		<linearGradient id="SVGID_71_" gradientUnits="userSpaceOnUse" x1="833.4312" y1="-893.3304" x2="891.4086" y2="468.1721" gradientTransform="matrix(-0.8247 1.1189 -0.9822 -0.7239 1782.5519 -640.3591)">
		<stop  offset="0" style="stop-color:#F6AC07"/>
		<stop  offset="0.19" style="stop-color:#F8AF09;stop-opacity:0.79"/>
		<stop  offset="0.59" style="stop-color:#FCB50D;stop-opacity:0.37"/>
		<stop  offset="0.87" style="stop-color:#FEB90F;stop-opacity:0.1"/>
		<stop  offset="1" style="stop-color:#FFBA10;stop-opacity:0"/>
	</linearGradient>
	<path class="st71" d="M1329.4,510.2l-10.3,0c-0.3,0-0.7,0.2-1,0.5l-5.6,8.5c-0.5,0.5-1.3,0.6-1.7,0.1c-0.1-0.1-0.2-0.3-0.3-0.4
		l-3.4-9.8c-0.1-0.4-0.4-0.7-0.8-0.8l-9.9-3c-0.9-0.3-1-1.5-0.4-2l8.1-5.9c0.3-0.3,0.4-0.6,0.4-0.9l-0.5-10c-0.1-0.9,1-1.5,1.8-0.9
		l8.4,6c0.3,0.2,0.7,0.3,1.1,0.1l9.6-3.3c0.7-0.2,1.4,0.2,1.5,0.9c0,0.2,0,0.4-0.1,0.5l-3,9.7c-0.1,0.4,0,0.8,0.2,1l6.4,8.2
		c0.3,0.4,0.2,1-0.3,1.4C1329.8,510.1,1329.6,510.1,1329.4,510.2z"/>
	
		<linearGradient id="SVGID_72_" gradientUnits="userSpaceOnUse" x1="756.8893" y1="-8.3304" x2="814.8669" y2="1353.1722" gradientTransform="matrix(-1 0 0 -1 1427.3461 1065.7179)">
		<stop  offset="0" style="stop-color:#F6AC07"/>
		<stop  offset="0.19" style="stop-color:#F8AF09;stop-opacity:0.79"/>
		<stop  offset="0.59" style="stop-color:#FCB50D;stop-opacity:0.37"/>
		<stop  offset="0.87" style="stop-color:#FEB90F;stop-opacity:0.1"/>
		<stop  offset="1" style="stop-color:#FFBA10;stop-opacity:0"/>
	</linearGradient>
	<path class="st72" d="M641.8,388.4l-4.4-6.8c-0.1-0.2-0.4-0.4-0.7-0.4l-7.3,0.3c-0.5-0.1-0.9-0.5-0.8-1c0-0.2,0.1-0.3,0.2-0.4
		l4.2-7c0.2-0.3,0.2-0.6,0.1-0.9l-2.5-8c-0.2-0.7,0.3-1.4,1-1.2l6.9,2.5c0.3,0.1,0.5,0,0.7-0.2l5.7-5.3c0.5-0.5,1.3-0.1,1.3,0.7
		l0.1,8.5c0,0.3,0.1,0.6,0.4,0.8l6,4.7c0.4,0.4,0.5,1,0.1,1.4c-0.1,0.1-0.2,0.2-0.3,0.2l-6.9,2.8c-0.3,0.1-0.4,0.3-0.5,0.6l-2,8.2
		c0,0.4-0.4,0.7-0.8,0.7C642.1,388.7,641.9,388.6,641.8,388.4z"/>
	
		<linearGradient id="SVGID_73_" gradientUnits="userSpaceOnUse" x1="1055.8527" y1="-23.3949" x2="1113.8402" y2="1338.3584" gradientTransform="matrix(-1 0 0 -1 1427.3461 1065.7179)">
		<stop  offset="0" style="stop-color:#F6AC07"/>
		<stop  offset="0.19" style="stop-color:#F8AF09;stop-opacity:0.79"/>
		<stop  offset="0.59" style="stop-color:#FCB50D;stop-opacity:0.37"/>
		<stop  offset="0.87" style="stop-color:#FEB90F;stop-opacity:0.1"/>
		<stop  offset="1" style="stop-color:#FFBA10;stop-opacity:0"/>
	</linearGradient>
	<path class="st73" d="M333.6,395.2l3-4.8c0.1-0.2,0.1-0.4,0.1-0.6l-1.6-5.6c-0.2-0.5,0.3-1,0.7-0.8l4.8,1.9c0.2,0.1,0.4,0,0.5-0.1
		l4.1-3.6c0.4-0.3,0.9,0,0.9,0.5l-0.1,6c0,0.2,0.1,0.4,0.2,0.5l4.1,3.5c0.3,0.3,0.3,0.7,0,1c-0.1,0.1-0.1,0.1-0.2,0.2l-4.9,1.8
		c-0.2,0.1-0.3,0.2-0.4,0.4l-1.5,5.7c0,0.3-0.3,0.5-0.5,0.5s-0.4-0.1-0.5-0.3l-2.9-4.9c-0.1-0.2-0.3-0.3-0.5-0.3l-5.1,0.1
		c-0.4-0.1-0.6-0.4-0.5-0.8C333.5,395.4,333.6,395.3,333.6,395.2z"/>
	
		<linearGradient id="SVGID_74_" gradientUnits="userSpaceOnUse" x1="1239.6652" y1="-32.1668" x2="1297.6526" y2="1329.5063" gradientTransform="matrix(-1 0 0 -1 1427.3461 1065.7179)">
		<stop  offset="0" style="stop-color:#F6AC07"/>
		<stop  offset="0.19" style="stop-color:#F8AF09;stop-opacity:0.79"/>
		<stop  offset="0.59" style="stop-color:#FCB50D;stop-opacity:0.37"/>
		<stop  offset="0.87" style="stop-color:#FEB90F;stop-opacity:0.1"/>
		<stop  offset="1" style="stop-color:#FFBA10;stop-opacity:0"/>
	</linearGradient>
	<path class="st74" d="M157.4,826.6l0.1-25.1c0-0.9-0.4-1.7-1-2.2L139,784.9c-1.2-1.1-1.3-2.9-0.3-4.1c0.3-0.3,0.6-0.5,0.9-0.7
		l20.4-7.6c0.8-0.3,1.3-1,1.5-1.8l6.2-24.1c0.6-2.2,3-2.6,4.1-0.8l12.5,20.4c0.4,0.7,1.1,1.1,1.9,1.1l21.4-0.5c1.9,0,3,2.5,1.9,4.3
		l-12.7,20.2c-0.5,0.7-0.6,1.7-0.3,2.5l7,23.7c0.6,2.1-1.1,4.2-2.9,3.5l-20.3-7.9c-0.7-0.3-1.6-0.1-2.1,0.4l-17.1,15.2
		C159.6,830.1,157.4,828.8,157.4,826.6z"/>
	
		<linearGradient id="SVGID_75_" gradientUnits="userSpaceOnUse" x1="1355.3594" y1="-255.4256" x2="1413.3469" y2="1106.2476" gradientTransform="matrix(-0.9761 0.2173 -0.2173 -0.9761 1406.6896 766.8779)">
		<stop  offset="0" style="stop-color:#F6AC07"/>
		<stop  offset="0.19" style="stop-color:#F8AF09;stop-opacity:0.79"/>
		<stop  offset="0.59" style="stop-color:#FCB50D;stop-opacity:0.37"/>
		<stop  offset="0.87" style="stop-color:#FEB90F;stop-opacity:0.1"/>
		<stop  offset="1" style="stop-color:#FFBA10;stop-opacity:0"/>
	</linearGradient>
	<path class="st75" d="M50.7,1052.5l-5.4-24.5c-0.2-0.9-0.7-1.6-1.5-1.9l-20.2-10.3c-1.4-0.8-1.9-2.5-1.2-3.9
		c0.2-0.4,0.5-0.6,0.7-0.9l18.3-11.9c0.7-0.5,1.1-1.3,1.1-2.1l0.8-24.9c0.1-2.3,2.4-3.2,3.8-1.7l16.6,17.2c0.5,0.6,1.3,0.8,2.1,0.7
		l20.8-5.1c1.9-0.4,3.5,1.8,2.8,3.8l-8,22.5c-0.3,0.8-0.2,1.8,0.3,2.5l12,21.6c1,1.9-0.2,4.3-2.1,4l-21.5-3.3
		c-0.7-0.1-1.6,0.3-2,0.8l-13.4,18.6C53.6,1055.5,51.2,1054.7,50.7,1052.5z"/>
	
		<linearGradient id="SVGID_76_" gradientUnits="userSpaceOnUse" x1="945.502" y1="28.2537" x2="992.8091" y2="1139.0243" gradientTransform="matrix(-1 0 0 -1 1427.3461 1065.7179)">
		<stop  offset="0" style="stop-color:#F6AC07"/>
		<stop  offset="0.19" style="stop-color:#F8AF09;stop-opacity:0.79"/>
		<stop  offset="0.59" style="stop-color:#FCB50D;stop-opacity:0.37"/>
		<stop  offset="0.87" style="stop-color:#FEB90F;stop-opacity:0.1"/>
		<stop  offset="1" style="stop-color:#FFBA10;stop-opacity:0"/>
	</linearGradient>
	<path class="st76" d="M447.6,870.2l4.9-23.6c0.2-0.8,0-1.7-0.5-2.4L438.2,826c-1.2-1.6-0.3-4.3,1.5-4.4l20.7-1.8
		c0.8-0.1,1.5-0.6,1.8-1.3l10.4-21c0.4-1.1,1.7-1.6,2.8-1.1c0.7,0.2,1.1,0.8,1.2,1.5l7.8,22.5c0.2,0.7,0.9,1.4,1.6,1.6l20.3,5.2
		c1.8,0.5,2.4,3.2,1,4.6l-15.8,15.8c-0.6,0.6-0.9,1.5-0.8,2.3l2.1,24.2c0.2,2.2-1.8,3.7-3.4,2.5l-17.7-12.8
		c-0.6-0.5-1.4-0.5-2.1-0.2l-19,9.8C449,874,447.1,872.2,447.6,870.2z"/>
	
		<linearGradient id="SVGID_77_" gradientUnits="userSpaceOnUse" x1="899.9323" y1="-105.0153" x2="947.2393" y2="1005.7553" gradientTransform="matrix(0.3013 -0.9535 0.8081 0.2553 179.0597 1843.0758)">
		<stop  offset="0" style="stop-color:#F6AC07"/>
		<stop  offset="0.19" style="stop-color:#F8AF09;stop-opacity:0.79"/>
		<stop  offset="0.59" style="stop-color:#FCB50D;stop-opacity:0.37"/>
		<stop  offset="0.87" style="stop-color:#FEB90F;stop-opacity:0.1"/>
		<stop  offset="1" style="stop-color:#FFBA10;stop-opacity:0"/>
	</linearGradient>
	<path class="st77" d="M510.8,968.2l17.6,10.7c0.6,0.4,1.4,0.4,2.1,0.1l18.8-8.5c1.7-0.8,3.5,0.8,3.1,2.5l-4.8,20.2
		c-0.2,0.8,0,1.5,0.5,2l13.9,15.3c0.7,0.7,0.8,2.1,0.1,2.9c-0.4,0.6-1,0.8-1.6,0.8L540,1016c-0.7,0-1.4,0.5-1.7,1.2l-10.3,18
		c-0.9,1.6-3.3,1.4-4-0.2l-8-19.1c-0.3-0.7-0.9-1.2-1.6-1.4l-20.2-4.2c-1.8-0.4-2.4-2.7-1-3.9l15.6-13.6c0.6-0.4,0.8-1.2,0.8-2
		l-2.2-20.6C507.3,968.6,509.3,967.2,510.8,968.2z"/>
	
		<linearGradient id="SVGID_78_" gradientUnits="userSpaceOnUse" x1="1122.0652" y1="29.9695" x2="1167.4165" y2="1095.024" gradientTransform="matrix(-1 0 0 -1 1427.3461 1065.7179)">
		<stop  offset="0" style="stop-color:#F6AC07"/>
		<stop  offset="0.19" style="stop-color:#F8AF09;stop-opacity:0.79"/>
		<stop  offset="0.59" style="stop-color:#FCB50D;stop-opacity:0.37"/>
		<stop  offset="0.87" style="stop-color:#FEB90F;stop-opacity:0.1"/>
		<stop  offset="1" style="stop-color:#FFBA10;stop-opacity:0"/>
	</linearGradient>
	<path class="st78" d="M329.1,845l-19.7,3.6c-0.7,0.2-1.3,0.7-1.6,1.4l-8.5,21c-0.3,1.1-1.5,1.6-2.5,1.3c-0.6-0.2-1.1-0.7-1.3-1.3
		l-9-20.8c-0.3-0.7-0.9-1.3-1.6-1.3l-19.7-3.1c-1.8-0.3-2.5-2.8-1.3-4.3l14-16.6c0.5-0.6,0.7-1.4,0.6-2.3l-3.6-23
		c-0.3-2,1.5-3.7,3.1-2.7l17.7,10.6c0.6,0.4,1.4,0.4,2,0l17.5-11.1c1.6-1,3.5,0.5,3.1,2.6l-3.1,23.1c-0.2,0.8,0.1,1.6,0.6,2.2
		l14.4,16.1C331.5,842.1,330.8,844.7,329.1,845z"/>
	
		<linearGradient id="SVGID_79_" gradientUnits="userSpaceOnUse" x1="763.0791" y1="-8.6314" x2="821.0667" y2="1353.0918" gradientTransform="matrix(-1 0 0 -1 1427.3461 1065.7179)">
		<stop  offset="0" style="stop-color:#F6AC07"/>
		<stop  offset="0.19" style="stop-color:#F8AF09;stop-opacity:0.79"/>
		<stop  offset="0.59" style="stop-color:#FCB50D;stop-opacity:0.37"/>
		<stop  offset="0.87" style="stop-color:#FEB90F;stop-opacity:0.1"/>
		<stop  offset="1" style="stop-color:#FFBA10;stop-opacity:0"/>
	</linearGradient>
	<path class="st79" d="M632,544.1l0.1-12.8c0-0.4-0.2-0.9-0.5-1.1l-8.9-7.4c-0.6-0.5-0.7-1.5-0.1-2.1c0.1-0.2,0.3-0.3,0.5-0.4
		l10.4-3.8c0.4-0.2,0.7-0.5,0.8-0.9l3.2-12.2c0.1-0.6,0.6-1,1.2-1c0.4,0,0.7,0.3,0.8,0.6l6.3,10.4c0.2,0.4,0.6,0.6,1,0.6l10.9-0.2
		c0.8,0.1,1.3,0.8,1.3,1.6c0,0.2-0.1,0.5-0.2,0.7l-6.5,10.3c-0.2,0.4-0.3,0.8-0.2,1.3l3.5,12.1c0.3,1.1-0.6,2.1-1.5,1.8l-10.3-4.1
		c-0.4-0.2-0.8-0.1-1.1,0.2l-8.7,7.7C633.2,545.9,632,545.3,632,544.1z"/>
</g>
<linearGradient id="SVGID_80_" gradientUnits="userSpaceOnUse" x1="412.2279" y1="44.3945" x2="469.868" y2="1398.0543" gradientTransform="matrix(-1 0 0 -1 1427.3461 1065.7179)">
	<stop  offset="0" style="stop-color:#F6AC07"/>
	<stop  offset="0.19" style="stop-color:#F8AF09;stop-opacity:0.79"/>
	<stop  offset="0.59" style="stop-color:#FCB50D;stop-opacity:0.37"/>
	<stop  offset="0.87" style="stop-color:#FEB90F;stop-opacity:0.1"/>
	<stop  offset="1" style="stop-color:#FFBA10;stop-opacity:0"/>
</linearGradient>
<path class="st80" d="M981,74.5l-0.9,5.8c0,0.2,0,0.4,0.1,0.6l3.6,4.2c0.2,0.3,0.2,0.7-0.1,0.9c-0.1,0.1-0.2,0.1-0.3,0.1l-5,0.8
	c-0.2,0-0.3,0.2-0.4,0.3l-2.3,5.3c-0.1,0.3-0.3,0.5-0.6,0.4c-0.2,0-0.4-0.2-0.4-0.4l-2.2-5.4c-0.1-0.2-0.2-0.3-0.4-0.4l-5-1
	c-0.4-0.1-0.6-0.5-0.5-0.9c0-0.1,0.1-0.2,0.2-0.3l3.7-4c0.1-0.2,0.2-0.4,0.2-0.6l-0.8-5.9c-0.1-0.5,0.4-0.9,0.8-0.7l4.4,2.8
	c0.2,0.1,0.4,0.1,0.5,0l4.5-2.7C980.6,73.6,981.1,74,981,74.5z"/>
<linearGradient id="SVGID_81_" gradientUnits="userSpaceOnUse" x1="272.5988" y1="68.3057" x2="330.3388" y2="1424.1558" gradientTransform="matrix(-1 0 0 -1 1427.3461 1065.7179)">
	<stop  offset="0" style="stop-color:#F6AC07"/>
	<stop  offset="0.19" style="stop-color:#F8AF09;stop-opacity:0.79"/>
	<stop  offset="0.59" style="stop-color:#FCB50D;stop-opacity:0.37"/>
	<stop  offset="0.87" style="stop-color:#FEB90F;stop-opacity:0.1"/>
	<stop  offset="1" style="stop-color:#FFBA10;stop-opacity:0"/>
</linearGradient>
<path class="st81" d="M1117.3,149.5l3.6,4.2c0.1,0.1,0.3,0.2,0.5,0.2l5-1.2c0.4-0.1,0.8,0.4,0.6,0.9l-2.2,5.3
	c-0.1,0.2-0.1,0.4,0,0.6l2.5,5.2c0.2,0.5-0.1,1-0.5,1l-5-0.9c-0.2,0-0.4,0.1-0.5,0.2l-3.4,4.4c-0.2,0.2-0.5,0.3-0.7,0.1
	c-0.1-0.1-0.2-0.2-0.2-0.4l-0.9-5.8c0-0.2-0.1-0.4-0.3-0.5l-4.6-2.5c-0.3-0.2-0.4-0.6-0.2-1c0.1-0.1,0.1-0.1,0.2-0.2l4.5-2.8
	c0.2-0.1,0.3-0.3,0.3-0.5l0.6-5.9c0-0.3,0.2-0.5,0.5-0.6C1117.1,149.4,1117.2,149.4,1117.3,149.5z"/>
<linearGradient id="SVGID_82_" gradientUnits="userSpaceOnUse" x1="99.6145" y1="122.8557" x2="157.3545" y2="1478.7058" gradientTransform="matrix(-1 0 0 -1 1427.3461 1065.7179)">
	<stop  offset="0" style="stop-color:#F6AC07"/>
	<stop  offset="0.19" style="stop-color:#F8AF09;stop-opacity:0.79"/>
	<stop  offset="0.59" style="stop-color:#FCB50D;stop-opacity:0.37"/>
	<stop  offset="0.87" style="stop-color:#FEB90F;stop-opacity:0.1"/>
	<stop  offset="1" style="stop-color:#FFBA10;stop-opacity:0"/>
</linearGradient>
<path class="st82" d="M1290.2,95l3.6,4.2c0.1,0.1,0.3,0.2,0.5,0.2l5-1.2c0.4-0.1,0.8,0.4,0.6,0.9l-2.2,5.3c-0.1,0.2-0.1,0.4,0,0.6
	l2.5,5.2c0.2,0.5-0.1,1-0.5,1l-5-0.9c-0.2,0-0.4,0.1-0.5,0.2l-3.4,4.4c-0.2,0.2-0.5,0.3-0.7,0.1c-0.1-0.1-0.2-0.2-0.2-0.4l-0.9-5.8
	c0-0.2-0.1-0.4-0.3-0.5l-4.6-2.5c-0.3-0.2-0.4-0.6-0.2-1c0.1-0.1,0.1-0.1,0.2-0.2l4.5-2.8c0.2-0.1,0.3-0.3,0.3-0.5l0.6-5.9
	c0-0.3,0.2-0.5,0.5-0.6C1290,94.9,1290.1,94.9,1290.2,95z"/>
<linearGradient id="SVGID_83_" gradientUnits="userSpaceOnUse" x1="670.2609" y1="-20.8387" x2="728.0009" y2="1335.0715" gradientTransform="matrix(-1 0 0 -1 1427.3461 1065.7179)">
	<stop  offset="0" style="stop-color:#F6AC07"/>
	<stop  offset="0.19" style="stop-color:#F8AF09;stop-opacity:0.79"/>
	<stop  offset="0.59" style="stop-color:#FCB50D;stop-opacity:0.37"/>
	<stop  offset="0.87" style="stop-color:#FEB90F;stop-opacity:0.1"/>
	<stop  offset="1" style="stop-color:#FFBA10;stop-opacity:0"/>
</linearGradient>
<path class="st83" d="M714.6,261.5l5,0.9c0.2,0,0.4,0,0.5-0.2l3.5-4.3c0.2-0.2,0.5-0.3,0.7-0.1c0.1,0.1,0.2,0.3,0.2,0.4l0.8,5.9
	c0,0.2,0.1,0.4,0.3,0.5l4.6,2.5c0.3,0.2,0.4,0.7,0.2,1c-0.1,0.1-0.1,0.1-0.2,0.2l-4.5,2.7c-0.2,0.1-0.3,0.3-0.3,0.5l-0.6,5.9
	c0,0.3-0.2,0.5-0.5,0.6c-0.2,0-0.3-0.1-0.4-0.2l-3.6-4.2c-0.1-0.1-0.3-0.2-0.5-0.2l-5,1.1c-0.5,0.1-0.8-0.4-0.6-0.9l2.3-5.3
	c0.1-0.2,0.1-0.4,0-0.6l-2.4-5.2C713.8,262,714.1,261.4,714.6,261.5z"/>
<linearGradient id="SVGID_84_" gradientUnits="userSpaceOnUse" x1="525.3785" y1="30.0989" x2="583.0085" y2="1383.439" gradientTransform="matrix(-1 0 0 -1 1427.3461 1065.7179)">
	<stop  offset="0" style="stop-color:#F6AC07"/>
	<stop  offset="0.19" style="stop-color:#F8AF09;stop-opacity:0.79"/>
	<stop  offset="0.59" style="stop-color:#FCB50D;stop-opacity:0.37"/>
	<stop  offset="0.87" style="stop-color:#FEB90F;stop-opacity:0.1"/>
	<stop  offset="1" style="stop-color:#FFBA10;stop-opacity:0"/>
</linearGradient>
<path class="st84" d="M875.9,227.9l-3.6,4.2c-0.1,0.2-0.2,0.4-0.1,0.6l1,5.8c0.1,0.5-0.4,0.9-0.8,0.7l-4.5-2.7
	c-0.2-0.1-0.4-0.1-0.5,0l-4.4,2.9c-0.4,0.3-0.9-0.1-0.8-0.7l0.8-5.9c0-0.2,0-0.4-0.2-0.6l-3.7-4.1c-0.3-0.3-0.2-0.7,0.1-1
	c0.1-0.1,0.1-0.1,0.2-0.1l5-1c0.2,0,0.3-0.2,0.4-0.4l2.2-5.4c0.1-0.3,0.4-0.4,0.6-0.4c0.2,0,0.3,0.2,0.4,0.4l2.3,5.3
	c0.1,0.2,0.2,0.3,0.4,0.3l5,0.7c0.4,0.1,0.6,0.4,0.5,0.8C876,227.7,876,227.8,875.9,227.9z"/>
<linearGradient id="SVGID_85_" gradientUnits="userSpaceOnUse" x1="917.5193" y1="-14.9404" x2="975.3594" y2="1343.2596" gradientTransform="matrix(-1 0 0 -1 1427.3461 1065.7179)">
	<stop  offset="0" style="stop-color:#F6AC07"/>
	<stop  offset="0.19" style="stop-color:#F8AF09;stop-opacity:0.79"/>
	<stop  offset="0.59" style="stop-color:#FCB50D;stop-opacity:0.37"/>
	<stop  offset="0.87" style="stop-color:#FEB90F;stop-opacity:0.1"/>
	<stop  offset="1" style="stop-color:#FFBA10;stop-opacity:0"/>
</linearGradient>
<path class="st85" d="M476.2,280.4l2.5,5.2c0.1,0.2,0.2,0.3,0.4,0.3l5,0.5c0.4,0.1,0.6,0.5,0.5,0.8c0,0.1-0.1,0.2-0.1,0.3l-3.4,4.4
	c-0.1,0.2-0.2,0.4-0.1,0.6l1.1,5.8c0.1,0.5-0.3,1-0.8,0.7l-4.6-2.5c-0.2-0.1-0.4-0.1-0.5,0l-4.3,3c-0.4,0.3-0.9-0.1-0.8-0.6l0.6-5.9
	c0-0.2,0-0.4-0.2-0.6l-3.8-3.9c-0.3-0.3-0.3-0.7,0-1c0.1-0.1,0.1-0.1,0.2-0.1l5-1.2c0.2-0.1,0.3-0.2,0.4-0.4l2-5.5
	c0.1-0.3,0.4-0.4,0.7-0.2C476.1,280.2,476.2,280.3,476.2,280.4z"/>
<linearGradient id="SVGID_86_" gradientUnits="userSpaceOnUse" x1="946.9416" y1="-16.8293" x2="1004.7812" y2="1341.3633" gradientTransform="matrix(-1 0 0 -1 1427.3461 1065.7179)">
	<stop  offset="0" style="stop-color:#F6AC07"/>
	<stop  offset="0.19" style="stop-color:#F8AF09;stop-opacity:0.79"/>
	<stop  offset="0.59" style="stop-color:#FCB50D;stop-opacity:0.37"/>
	<stop  offset="0.87" style="stop-color:#FEB90F;stop-opacity:0.1"/>
	<stop  offset="1" style="stop-color:#FFBA10;stop-opacity:0"/>
</linearGradient>
<path class="st86" d="M437.2,57.4l2.5,5.2c0.1,0.2,0.2,0.3,0.4,0.3l5,0.5c0.4,0.1,0.6,0.4,0.5,0.8c0,0.1-0.1,0.2-0.1,0.3l-3.4,4.4
	c-0.1,0.2-0.2,0.4-0.1,0.6l1.1,5.8c0.1,0.5-0.3,1-0.8,0.7l-4.6-2.5c-0.2-0.1-0.4-0.1-0.5,0l-4.3,3c-0.4,0.3-0.9-0.1-0.8-0.6l0.6-5.9
	c0-0.2,0-0.4-0.2-0.6l-3.8-3.9c-0.3-0.3-0.3-0.7,0-1c0.1-0.1,0.1-0.1,0.2-0.1l5-1.2c0.2-0.1,0.3-0.2,0.4-0.4l2-5.5
	c0.1-0.3,0.3-0.5,0.6-0.4C437,57,437.2,57.2,437.2,57.4z"/>
<linearGradient id="SVGID_87_" gradientUnits="userSpaceOnUse" x1="1273.4441" y1="-19.3113" x2="1331.1641" y2="1336.0388" gradientTransform="matrix(-1 0 0 -1 1427.3461 1065.7179)">
	<stop  offset="0" style="stop-color:#F6AC07"/>
	<stop  offset="0.19" style="stop-color:#F8AF09;stop-opacity:0.79"/>
	<stop  offset="0.59" style="stop-color:#FCB50D;stop-opacity:0.37"/>
	<stop  offset="0.87" style="stop-color:#FEB90F;stop-opacity:0.1"/>
	<stop  offset="1" style="stop-color:#FFBA10;stop-opacity:0"/>
</linearGradient>
<path class="st87" d="M112.2,294.8l4.3-3.1c0.2-0.1,0.3-0.3,0.3-0.5l0.3-5.9c0-0.5,0.6-0.8,0.9-0.5l3.8,3.9c0.1,0.1,0.3,0.2,0.5,0.1
	l4.9-1.5c0.4-0.1,0.8,0.4,0.7,0.9l-2,5.5c-0.1,0.2-0.1,0.4,0,0.6l2.8,5c0.2,0.3,0.1,0.7-0.2,0.9c-0.1,0.1-0.2,0.1-0.3,0.1l-5-0.5
	c-0.2,0-0.4,0.1-0.5,0.2l-3.2,4.6c-0.1,0.3-0.5,0.4-0.7,0.2c-0.2-0.1-0.3-0.3-0.3-0.5l-1.2-5.8c0-0.2-0.2-0.4-0.3-0.5l-4.7-2.1
	c-0.3-0.2-0.5-0.6-0.3-0.9C112.1,295,112.1,294.9,112.2,294.8z"/>
<linearGradient id="SVGID_88_" gradientUnits="userSpaceOnUse" x1="1351.0653" y1="58.31" x2="1408.7853" y2="1413.6602" gradientTransform="matrix(-1 0 0 -1 1427.3461 1065.7179)">
	<stop  offset="0" style="stop-color:#F6AC07"/>
	<stop  offset="0.19" style="stop-color:#F8AF09;stop-opacity:0.79"/>
	<stop  offset="0.59" style="stop-color:#FCB50D;stop-opacity:0.37"/>
	<stop  offset="0.87" style="stop-color:#FEB90F;stop-opacity:0.1"/>
	<stop  offset="1" style="stop-color:#FFBA10;stop-opacity:0"/>
</linearGradient>
<path class="st88" d="M34.6,217.2l4.3-3.1c0.2-0.1,0.3-0.3,0.3-0.5l0.3-5.9c0-0.5,0.6-0.8,0.9-0.5l3.8,3.9c0.1,0.1,0.3,0.2,0.5,0.1
	l4.9-1.5c0.4-0.1,0.8,0.4,0.7,0.9l-2,5.5c-0.1,0.2-0.1,0.4,0,0.6l2.8,5c0.2,0.3,0.1,0.7-0.2,0.9c-0.1,0.1-0.2,0.1-0.3,0.1l-5-0.5
	c-0.2,0-0.4,0.1-0.5,0.2l-3.2,4.6c-0.1,0.3-0.5,0.4-0.7,0.2c-0.2-0.1-0.3-0.3-0.3-0.5l-1.2-5.8c0-0.2-0.2-0.4-0.3-0.5l-4.7-2.1
	c-0.3-0.2-0.5-0.6-0.3-0.9C34.5,217.4,34.5,217.3,34.6,217.2z"/>
<linearGradient id="SVGID_89_" gradientUnits="userSpaceOnUse" x1="863.9423" y1="-12.2214" x2="921.7621" y2="1345.6688" gradientTransform="matrix(-1 0 0 -1 1427.3461 1065.7179)">
	<stop  offset="0" style="stop-color:#F6AC07"/>
	<stop  offset="0.19" style="stop-color:#F8AF09;stop-opacity:0.79"/>
	<stop  offset="0.59" style="stop-color:#FCB50D;stop-opacity:0.37"/>
	<stop  offset="0.87" style="stop-color:#FEB90F;stop-opacity:0.1"/>
	<stop  offset="1" style="stop-color:#FFBA10;stop-opacity:0"/>
</linearGradient>
<path class="st89" d="M529.9,170.4l-0.4,5.9c0,0.2,0.1,0.4,0.2,0.5l3.9,3.7c0.3,0.3,0.3,0.7,0,1c-0.1,0.1-0.1,0.1-0.2,0.2l-4.9,1.4
	c-0.2,0.1-0.3,0.2-0.4,0.4l-1.8,5.5c0,0.3-0.3,0.5-0.6,0.4c-0.2,0-0.3-0.2-0.4-0.3l-2.6-5.1c-0.1-0.2-0.3-0.3-0.4-0.3l-5.1-0.3
	c-0.4-0.1-0.6-0.4-0.5-0.8c0-0.1,0.1-0.2,0.1-0.3l3.3-4.5c0.1-0.2,0.2-0.4,0.1-0.6l-1.3-5.7c-0.1-0.5,0.3-1,0.7-0.8l4.7,2.3
	c0.2,0.1,0.4,0.1,0.5,0l4.2-3.3C529.5,169.5,530,169.8,529.9,170.4z"/>
<linearGradient id="SVGID_90_" gradientUnits="userSpaceOnUse" x1="1135.3398" y1="-53.7784" x2="1193.1598" y2="1304.1116" gradientTransform="matrix(-1 0 0 -1 1427.3461 1065.7179)">
	<stop  offset="0" style="stop-color:#F6AC07"/>
	<stop  offset="0.19" style="stop-color:#F8AF09;stop-opacity:0.79"/>
	<stop  offset="0.59" style="stop-color:#FCB50D;stop-opacity:0.37"/>
	<stop  offset="0.87" style="stop-color:#FEB90F;stop-opacity:0.1"/>
	<stop  offset="1" style="stop-color:#FFBA10;stop-opacity:0"/>
</linearGradient>
<path class="st90" d="M258.5,211.9l-0.4,5.9c0,0.2,0.1,0.4,0.2,0.5l3.9,3.7c0.3,0.3,0.3,0.7,0,1c-0.1,0.1-0.1,0.1-0.2,0.2l-4.9,1.4
	c-0.2,0.1-0.3,0.2-0.4,0.4l-1.8,5.5c0,0.3-0.3,0.5-0.6,0.4c-0.2,0-0.3-0.2-0.4-0.3l-2.6-5.1c-0.1-0.2-0.3-0.3-0.4-0.3l-5.1-0.3
	c-0.4-0.1-0.6-0.4-0.5-0.8c0-0.1,0.1-0.2,0.1-0.3l3.3-4.5c0.1-0.2,0.2-0.4,0.1-0.6l-1.3-5.7c-0.1-0.5,0.3-1,0.7-0.8l4.7,2.3
	c0.2,0.1,0.4,0.1,0.5,0l4.2-3.3C258,211,258.5,211.4,258.5,211.9z"/>
<linearGradient id="SVGID_91_" gradientUnits="userSpaceOnUse" x1="127.1723" y1="24.8041" x2="184.9823" y2="1382.464" gradientTransform="matrix(-1 0 0 -1 1427.3461 1065.7179)">
	<stop  offset="0" style="stop-color:#F6AC07"/>
	<stop  offset="0.19" style="stop-color:#F8AF09;stop-opacity:0.79"/>
	<stop  offset="0.59" style="stop-color:#FCB50D;stop-opacity:0.37"/>
	<stop  offset="0.87" style="stop-color:#FEB90F;stop-opacity:0.1"/>
	<stop  offset="1" style="stop-color:#FFBA10;stop-opacity:0"/>
</linearGradient>
<path class="st91" d="M1260.3,220.7l0.3-5.9c0-0.2-0.1-0.4-0.2-0.5l-4-3.6c-0.3-0.3-0.3-0.7,0-1c0.1-0.1,0.1-0.1,0.2-0.2l4.8-1.6
	c0.2-0.1,0.3-0.2,0.4-0.4l1.7-5.6c0-0.3,0.3-0.5,0.6-0.5c0.2,0,0.4,0.1,0.4,0.3l2.8,5c0.1,0.2,0.3,0.3,0.4,0.3l5.1,0.2
	c0.4,0.1,0.6,0.4,0.5,0.8c0,0.1-0.1,0.2-0.1,0.3l-3.2,4.6c-0.1,0.2-0.2,0.4-0.1,0.6l1.4,5.7c0.1,0.5-0.3,1-0.7,0.8l-4.7-2.1
	c-0.2-0.1-0.4,0-0.5,0.1l-4.2,3.4C1260.7,221.6,1260.2,221.2,1260.3,220.7z"/>
<linearGradient id="SVGID_92_" gradientUnits="userSpaceOnUse" x1="382.291" y1="12.1508" x2="440.101" y2="1369.8108" gradientTransform="matrix(-1 0 0 -1 1427.3461 1065.7179)">
	<stop  offset="0" style="stop-color:#F6AC07"/>
	<stop  offset="0.19" style="stop-color:#F8AF09;stop-opacity:0.79"/>
	<stop  offset="0.59" style="stop-color:#FCB50D;stop-opacity:0.37"/>
	<stop  offset="0.87" style="stop-color:#FEB90F;stop-opacity:0.1"/>
	<stop  offset="1" style="stop-color:#FFBA10;stop-opacity:0"/>
</linearGradient>
<path class="st92" d="M1007.9,297.2l0.3-5.9c0-0.2-0.1-0.4-0.2-0.5l-4-3.6c-0.3-0.3-0.3-0.7,0-1c0.1-0.1,0.1-0.1,0.2-0.2l4.9-1.5
	c0.2-0.1,0.3-0.2,0.4-0.4l1.7-5.6c0-0.3,0.3-0.5,0.6-0.5c0.2,0,0.4,0.1,0.4,0.3l2.8,5c0.1,0.2,0.3,0.3,0.4,0.3l5,0.1
	c0.4,0.1,0.6,0.4,0.5,0.8c0,0.1-0.1,0.2-0.1,0.3l-3.2,4.6c-0.1,0.2-0.1,0.4-0.1,0.6l1.4,5.7c0.1,0.5-0.3,1-0.7,0.8l-4.7-2.1
	c-0.2-0.1-0.4,0-0.5,0.1l-4.2,3.4C1008.4,298.1,1007.9,297.7,1007.9,297.2z"/>
<linearGradient id="SVGID_93_" gradientUnits="userSpaceOnUse" x1="197.9932" y1="22.9373" x2="255.6831" y2="1377.7773" gradientTransform="matrix(-1 0 0 -1 1427.3461 1065.7179)">
	<stop  offset="0" style="stop-color:#F6AC07"/>
	<stop  offset="0.19" style="stop-color:#F8AF09;stop-opacity:0.79"/>
	<stop  offset="0.59" style="stop-color:#FCB50D;stop-opacity:0.37"/>
	<stop  offset="0.87" style="stop-color:#FEB90F;stop-opacity:0.1"/>
	<stop  offset="1" style="stop-color:#FFBA10;stop-opacity:0"/>
</linearGradient>
<path class="st93" d="M1206.1,310.1l-5.1-0.1c-0.2,0-0.4,0.1-0.5,0.3l-2.9,4.8c-0.1,0.3-0.5,0.4-0.7,0.2c-0.2-0.1-0.3-0.2-0.3-0.4
	l-1.5-5.7c0-0.2-0.2-0.4-0.4-0.4l-4.8-1.8c-0.3-0.2-0.5-0.6-0.3-0.9c0-0.1,0.1-0.2,0.2-0.2l4.1-3.4c0.2-0.1,0.2-0.3,0.2-0.5v-5.9
	c0-0.5,0.5-0.8,0.9-0.5l4,3.6c0.1,0.1,0.3,0.2,0.5,0.1l4.8-1.9c0.4-0.2,0.8,0.3,0.7,0.8l-1.6,5.6c-0.1,0.2,0,0.4,0.1,0.6l3,4.8
	c0.2,0.3,0.1,0.7-0.1,0.9C1206.3,310,1206.2,310,1206.1,310.1z"/>
<linearGradient id="SVGID_94_" gradientUnits="userSpaceOnUse" x1="217.2302" y1="20.2795" x2="275.0402" y2="1377.6296" gradientTransform="matrix(-1 0 0 -1 1427.3461 1065.7179)">
	<stop  offset="0" style="stop-color:#F6AC07"/>
	<stop  offset="0.19" style="stop-color:#F8AF09;stop-opacity:0.79"/>
	<stop  offset="0.59" style="stop-color:#FCB50D;stop-opacity:0.37"/>
	<stop  offset="0.87" style="stop-color:#FEB90F;stop-opacity:0.1"/>
	<stop  offset="1" style="stop-color:#FFBA10;stop-opacity:0"/>
</linearGradient>
<path class="st94" d="M1158,20.3l3-4.8c0.1-0.2,0.1-0.4,0.1-0.6l-1.6-5.6c-0.1-0.5,0.3-1,0.7-0.8l4.8,1.9c0.2,0.1,0.4,0,0.5-0.1
	l4.1-3.5c0.4-0.3,0.9,0,0.9,0.5l-0.1,5.9c0,0.2,0.1,0.4,0.2,0.5l4.1,3.4c0.3,0.3,0.3,0.7,0.1,1c-0.1,0.1-0.1,0.1-0.2,0.2l-4.8,1.8
	c-0.2,0.1-0.3,0.2-0.4,0.4l-1.5,5.7c0,0.3-0.3,0.5-0.6,0.5c-0.2,0-0.3-0.1-0.4-0.3l-2.9-4.9c-0.1-0.2-0.3-0.3-0.5-0.3l-5.1,0.1
	c-0.4-0.1-0.6-0.4-0.5-0.8C1157.9,20.5,1158,20.4,1158,20.3z"/>
<linearGradient id="SVGID_95_" gradientUnits="userSpaceOnUse" x1="1350.6451" y1="20.2795" x2="1408.4552" y2="1377.6296" gradientTransform="matrix(-0.8167 0.5771 -0.5771 -0.8167 1777.1155 68.8047)">
	<stop  offset="0" style="stop-color:#F6AC07"/>
	<stop  offset="0.19" style="stop-color:#F8AF09;stop-opacity:0.79"/>
	<stop  offset="0.59" style="stop-color:#FCB50D;stop-opacity:0.37"/>
	<stop  offset="0.87" style="stop-color:#FEB90F;stop-opacity:0.1"/>
	<stop  offset="1" style="stop-color:#FFBA10;stop-opacity:0"/>
</linearGradient>
<path class="st95" d="M28.2,24.5l-0.3-5.7c0-0.2-0.1-0.4-0.3-0.5l-4.5-3.7c-0.4-0.4-0.3-1,0.1-1.1l5-1.2c0.2,0,0.3-0.2,0.4-0.4
	l1.3-5.2c0.2-0.5,0.7-0.5,1-0.1l3.3,4.9c0.1,0.2,0.3,0.3,0.5,0.3l5.3,0.4c0.4,0.1,0.6,0.4,0.7,0.8c0,0.1,0,0.1,0,0.3l-2.9,4.2
	c-0.1,0.2-0.1,0.3-0.1,0.6l2.1,5.5c0.2,0.2,0,0.6-0.2,0.8c-0.2,0.1-0.3,0.1-0.5,0L33.8,22c-0.2-0.1-0.4-0.1-0.6,0l-4.1,3
	c-0.4,0.1-0.7,0-0.9-0.4C28.2,24.7,28.3,24.6,28.2,24.5z"/>
</svg>
