<?xml version="1.0" encoding="utf-8"?>
<!-- Generator: Adobe Illustrator 22.1.0, SVG Export Plug-In . SVG Version: 6.00 Build 0)  -->
<svg version="1.1" id="Layer_1" xmlns="http://www.w3.org/2000/svg" xmlns:xlink="http://www.w3.org/1999/xlink" x="0px" y="0px"
	 viewBox="0 0 1353 1080" style="enable-background:new 0 0 1353 1080;" xml:space="preserve">
<style type="text/css">
	.st0{opacity:0.4;}
	.st1{fill:url(#SVGID_1_);}
	.st2{fill:url(#SVGID_2_);}
	.st3{fill:url(#SVGID_3_);}
	.st4{fill:url(#SVGID_4_);}
	.st5{fill:url(#SVGID_5_);}
	.st6{fill:url(#SVGID_6_);}
	.st7{fill:url(#SVGID_7_);}
	.st8{fill:url(#SVGID_8_);}
	.st9{fill:url(#SVGID_9_);}
	.st10{fill:url(#SVGID_10_);}
	.st11{fill:url(#SVGID_11_);}
	.st12{fill:url(#SVGID_12_);}
	.st13{fill:url(#SVGID_13_);}
	.st14{fill:url(#SVGID_14_);}
	.st15{fill:url(#SVGID_15_);}
	.st16{fill:url(#SVGID_16_);}
	.st17{fill:url(#SVGID_17_);}
	.st18{fill:url(#SVGID_18_);}
	.st19{fill:url(#SVGID_19_);}
	.st20{fill:url(#SVGID_20_);}
	.st21{fill:url(#SVGID_21_);}
	.st22{fill:url(#SVGID_22_);}
	.st23{fill:url(#SVGID_23_);}
	.st24{fill:url(#SVGID_24_);}
	.st25{fill:url(#SVGID_25_);}
	.st26{fill:url(#SVGID_26_);}
	.st27{fill:url(#SVGID_27_);}
	.st28{fill:url(#SVGID_28_);}
	.st29{fill:url(#SVGID_29_);}
	.st30{fill:url(#SVGID_30_);}
	.st31{fill:url(#SVGID_31_);}
	.st32{fill:url(#SVGID_32_);}
	.st33{fill:url(#SVGID_33_);}
	.st34{fill:url(#SVGID_34_);}
	.st35{fill:url(#SVGID_35_);}
	.st36{fill:url(#SVGID_36_);}
	.st37{fill:url(#SVGID_37_);}
	.st38{fill:url(#SVGID_38_);}
	.st39{fill:url(#SVGID_39_);}
	.st40{fill:url(#SVGID_40_);}
	.st41{fill:url(#SVGID_41_);}
	.st42{fill:url(#SVGID_42_);}
	.st43{fill:url(#SVGID_43_);}
	.st44{fill:url(#SVGID_44_);}
	.st45{fill:url(#SVGID_45_);}
	.st46{fill:url(#SVGID_46_);}
	.st47{fill:url(#SVGID_47_);}
	.st48{fill:url(#SVGID_48_);}
	.st49{fill:url(#SVGID_49_);}
	.st50{fill:url(#SVGID_50_);}
	.st51{fill:url(#SVGID_51_);}
	.st52{fill:url(#SVGID_52_);}
	.st53{fill:url(#SVGID_53_);}
	.st54{fill:url(#SVGID_54_);}
	.st55{fill:url(#SVGID_55_);}
	.st56{fill:url(#SVGID_56_);}
	.st57{fill:url(#SVGID_57_);}
	.st58{fill:url(#SVGID_58_);}
	.st59{fill:url(#SVGID_59_);}
	.st60{fill:url(#SVGID_60_);}
	.st61{fill:url(#SVGID_61_);}
	.st62{fill:url(#SVGID_62_);}
	.st63{fill:url(#SVGID_63_);}
	.st64{fill:url(#SVGID_64_);}
	.st65{fill:url(#SVGID_65_);}
	.st66{fill:url(#SVGID_66_);}
	.st67{fill:url(#SVGID_67_);}
	.st68{fill:url(#SVGID_68_);}
	.st69{fill:url(#SVGID_69_);}
	.st70{fill:url(#SVGID_70_);}
	.st71{fill:url(#SVGID_71_);}
	.st72{fill:url(#SVGID_72_);}
	.st73{opacity:0.4;fill:url(#SVGID_73_);enable-background:new    ;}
	.st74{opacity:0.4;fill:url(#SVGID_74_);enable-background:new    ;}
	.st75{opacity:0.4;fill:url(#SVGID_75_);enable-background:new    ;}
	.st76{opacity:0.4;fill:url(#SVGID_76_);enable-background:new    ;}
	.st77{opacity:0.4;fill:url(#SVGID_77_);enable-background:new    ;}
	.st78{opacity:0.4;fill:url(#SVGID_78_);enable-background:new    ;}
	.st79{opacity:0.4;fill:url(#SVGID_79_);enable-background:new    ;}
	.st80{opacity:0.4;fill:url(#SVGID_80_);enable-background:new    ;}
	.st81{opacity:0.4;fill:url(#SVGID_81_);enable-background:new    ;}
	.st82{opacity:0.4;fill:url(#SVGID_82_);enable-background:new    ;}
	.st83{opacity:0.4;fill:url(#SVGID_83_);enable-background:new    ;}
	.st84{opacity:0.4;fill:url(#SVGID_84_);enable-background:new    ;}
</style>
<title>starbg</title>
<g class="st0">
	
		<linearGradient id="SVGID_1_" gradientUnits="userSpaceOnUse" x1="1780.4401" y1="55.5056" x2="638.22" y2="55.5056" gradientTransform="matrix(-1 0 0 -1 2635.0239 770.8264)">
		<stop  offset="0" style="stop-color:#FFCF01;stop-opacity:0.6"/>
		<stop  offset="1" style="stop-color:#FFFD00;stop-opacity:0.2"/>
	</linearGradient>
	<path class="st1" d="M1128.8,751.6l-11.7-17.1c-0.4-0.6-1-0.9-1.7-0.9l-18.7,1.6c-1.7,0.1-2.8-2-1.8-3.7l10.3-18.3
		c0.4-0.7,0.4-1.5,0.2-2.2l-7-20.3c-0.6-1.8,0.8-3.7,2.4-3.2l18,5.8c0.7,0.2,1.4,0,1.8-0.5l14.3-14.1c1.3-1.3,3.3-0.3,3.3,1.7
		l0.9,21.9c0,0.8,0.4,1.5,1,1.9l15.8,11.6c1.1,0.9,1.3,2.5,0.4,3.6c-0.2,0.3-0.5,0.5-0.7,0.6l-17.5,7.8c-0.7,0.3-1.1,0.9-1.3,1.7
		l-4.5,21.3C1132,752.6,1129.9,753.1,1128.8,751.6z"/>
	
		<linearGradient id="SVGID_2_" gradientUnits="userSpaceOnUse" x1="1922.87" y1="37.154" x2="760.5" y2="37.154" gradientTransform="matrix(-1 0 0 -1 2635.0239 770.8264)">
		<stop  offset="0" style="stop-color:#FFCF01;stop-opacity:0.6"/>
		<stop  offset="1" style="stop-color:#FFFD00;stop-opacity:0.2"/>
	</linearGradient>
	<path class="st2" d="M964.7,768.4l0.1-22c0-0.8-0.3-1.5-0.9-2l-15.4-12.6c-1.1-0.9-1.2-2.6-0.2-3.6c0.2-0.2,0.5-0.5,0.8-0.6
		l17.9-6.7c0.7-0.3,1.2-0.9,1.3-1.6l5.4-21.1c0.5-1.9,2.6-2.3,3.6-0.7l11,17.9c0.4,0.6,1,1,1.7,1l18.8-0.5c1.7,0,2.7,2.2,1.7,3.8
		l-11.1,17.7c-0.4,0.7-0.5,1.4-0.3,2.2l6.2,20.8c0.6,1.9-1,3.7-2.5,3l-17.8-6.8c-0.6-0.2-1.4-0.1-1.9,0.4L968,770.3
		C966.6,771.5,964.7,770.4,964.7,768.4z"/>
	
		<linearGradient id="SVGID_3_" gradientUnits="userSpaceOnUse" x1="1933.2" y1="125.2826" x2="766.9" y2="125.2826" gradientTransform="matrix(-1 0 0 -1 2635.0239 770.8264)">
		<stop  offset="0" style="stop-color:#FFCF01;stop-opacity:0.6"/>
		<stop  offset="1" style="stop-color:#FFFD00;stop-opacity:0.2"/>
	</linearGradient>
	<path class="st3" d="M1031,672.7l0.2-17.3c0-0.6-0.2-1.2-0.7-1.6l-12-10c-0.8-0.7-0.9-2-0.2-2.8c0.2-0.2,0.4-0.4,0.7-0.5l14.1-5.1
		c0.5-0.2,0.9-0.7,1.1-1.2l4.4-16.5c0.1-0.8,0.9-1.4,1.7-1.3c0.5,0.1,0.9,0.4,1.1,0.8l8.5,14.2c0.3,0.5,0.8,0.8,1.3,0.8l14.8-0.2
		c1.3,0,2.1,1.8,1.3,3l-8.8,13.8c-0.3,0.5-0.4,1.1-0.2,1.7l4.7,16.4c0.4,1.5-0.8,2.9-2,2.4l-14-5.6c-0.5-0.2-1.1-0.1-1.5,0.3
		l-11.9,10.3C1032.6,675.2,1031,674.3,1031,672.7z"/>
	
		<linearGradient id="SVGID_4_" gradientUnits="userSpaceOnUse" x1="2080.8201" y1="144.4869" x2="884.29" y2="144.4869" gradientTransform="matrix(-1 0 0 -1 2635.0239 770.8264)">
		<stop  offset="0" style="stop-color:#FFCF01;stop-opacity:0.6"/>
		<stop  offset="1" style="stop-color:#FFFD00;stop-opacity:0.2"/>
	</linearGradient>
	<path class="st4" d="M942.1,652.2l-13.6-6.8c-0.5-0.3-1.1-0.2-1.5,0.1l-12.5,9.3c-1.1,0.8-2.6-0.2-2.5-1.8l1.3-17.3
		c0.1-0.6-0.1-1.2-0.6-1.6L901.3,623c-0.8-0.8-0.8-2,0-2.8c0.2-0.2,0.4-0.3,0.7-0.5l14.4-3.8c0.5-0.2,1-0.6,1.1-1.1l5.5-16.1
		c0.2-0.8,1-1.3,1.8-1.1c0.5,0.1,0.9,0.4,1.1,0.9l7.6,14.9c0.2,0.5,0.7,0.9,1.3,0.9l14.7,1.1c1.3,0.1,2,1.9,1.1,3.1l-9.7,13
		c-0.3,0.5-0.5,1.1-0.3,1.7l3.6,16.8C944.6,651.6,943.3,652.9,942.1,652.2z"/>
	
		<linearGradient id="SVGID_5_" gradientUnits="userSpaceOnUse" x1="2073.1101" y1="71.2504" x2="940.12" y2="71.2504" gradientTransform="matrix(-1 0 0 -1 2635.0239 770.8264)">
		<stop  offset="0" style="stop-color:#FFCF01;stop-opacity:0.6"/>
		<stop  offset="1" style="stop-color:#FFFD00;stop-opacity:0.2"/>
	</linearGradient>
	<path class="st5" d="M850.3,729.2l-3.7-17.9c-0.1-0.6-0.5-1.1-1-1.4l-14.7-6.5c-1-0.6-1.4-1.9-0.8-2.9c0.1-0.2,0.3-0.5,0.5-0.6
		l13.3-9.7c0.5-0.4,0.8-1,0.8-1.6l0.8-18.4c0.1-1.7,1.7-2.5,2.8-1.4l12,11.9c0.4,0.4,1,0.6,1.5,0.4l15.2-4.8c1.4-0.4,2.6,1.1,2,2.7
		l-5.9,17.1c-0.2,0.6-0.2,1.3,0.2,1.9l8.6,15.4c0.8,1.4-0.1,3.2-1.5,3.1l-15.7-1.4c-0.6,0-1.1,0.3-1.5,0.8l-9.8,14.4
		C852.4,731.3,850.6,730.8,850.3,729.2z"/>
	
		<linearGradient id="SVGID_6_" gradientUnits="userSpaceOnUse" x1="2257.49" y1="73.2736" x2="1059.2" y2="73.2736" gradientTransform="matrix(-1 0 0 -1 2635.0239 770.8264)">
		<stop  offset="0" style="stop-color:#FFCF01;stop-opacity:0.6"/>
		<stop  offset="1" style="stop-color:#FFFD00;stop-opacity:0.2"/>
	</linearGradient>
	<path class="st6" d="M695.5,734l-8.8-20.9c-0.3-0.7-0.9-1.2-1.6-1.4l-19.7-3.4c-1.8-0.3-2.5-2.8-1.2-4.3l14.2-16.3
		c0.5-0.6,0.7-1.4,0.6-2.2l-3.4-23c-0.3-2.1,1.5-3.6,3.1-2.7l17.6,10.9c0.6,0.4,1.4,0.4,2,0l17.7-10.9c1.6-1,3.4,0.6,3.1,2.7
		l-3.4,23c-0.1,0.8,0.1,1.6,0.6,2.2l14.3,16.3c1.3,1.5,0.6,4-1.2,4.3l-19.7,3.4c-0.7,0.2-1.4,0.7-1.6,1.4l-8.8,20.9
		c-0.2,1.1-1.3,1.8-2.4,1.5C696.2,735.3,695.6,734.7,695.5,734z"/>
	
		<linearGradient id="SVGID_7_" gradientUnits="userSpaceOnUse" x1="2210.8" y1="131.4765" x2="1020.1401" y2="131.4765" gradientTransform="matrix(-1 0 0 -1 2635.0239 770.8264)">
		<stop  offset="0" style="stop-color:#FFCF01;stop-opacity:0.6"/>
		<stop  offset="1" style="stop-color:#FFFD00;stop-opacity:0.2"/>
	</linearGradient>
	<path class="st7" d="M787,666.6l-6.2-15.7c-0.2-0.5-0.6-0.9-1.2-1.1l-14.6-2.9c-1-0.4-1.6-1.5-1.2-2.5c0.1-0.3,0.2-0.5,0.4-0.7
		l10.8-11.8c0.4-0.5,0.6-1.1,0.5-1.6l-2.1-17.1c-0.2-1.5,1.2-2.7,2.4-1.9l12.9,8.4c0.4,0.3,1,0.3,1.5,0l13.2-7.7
		c1.2-0.7,2.5,0.5,2.3,2l-2.8,17c-0.1,0.6,0.1,1.2,0.4,1.7l10.3,12.4c0.7,0.9,0.6,2.1-0.3,2.8c-0.2,0.2-0.4,0.3-0.7,0.4l-14.7,2.1
		c-0.6,0.1-1,0.5-1.2,1l-6.9,15.3c-0.3,0.8-1.2,1.1-2,0.8C787.5,667.3,787.2,667,787,666.6z"/>
	
		<linearGradient id="SVGID_8_" gradientUnits="userSpaceOnUse" x1="1782.3401" y1="132.4237" x2="582.7" y2="132.4237" gradientTransform="matrix(-1 0 0 -1 2635.0239 770.8264)">
		<stop  offset="0" style="stop-color:#FFCF01;stop-opacity:0.6"/>
		<stop  offset="1" style="stop-color:#FFFD00;stop-opacity:0.2"/>
	</linearGradient>
	<path class="st8" d="M1215.9,666.3l-13.1-8c-0.5-0.3-1-0.3-1.5,0l-13,8.1c-1.2,0.7-2.6-0.4-2.3-2l2.4-17.1c0.1-0.6-0.1-1.2-0.5-1.7
		l-10.6-12c-0.7-0.8-0.6-2.1,0.2-2.8c0.2-0.2,0.4-0.3,0.7-0.4l14.6-2.6c0.5-0.1,1-0.5,1.2-1l6.5-15.6c0.3-0.8,1.1-1.2,1.9-1
		c0.5,0.1,0.8,0.5,1,1l6.6,15.5c0.2,0.5,0.7,0.9,1.2,1l14.6,2.4c1,0.3,1.6,1.5,1.3,2.5c-0.1,0.2-0.2,0.5-0.4,0.7l-10.5,12.2
		c-0.4,0.5-0.6,1.1-0.5,1.7l2.6,17.1C1218.5,665.9,1217.1,667.1,1215.9,666.3z"/>
	
		<linearGradient id="SVGID_9_" gradientUnits="userSpaceOnUse" x1="1930" y1="219.7923" x2="748.85" y2="219.7923" gradientTransform="matrix(-1 0 0 -1 2635.0239 770.8264)">
		<stop  offset="0" style="stop-color:#FFCF01;stop-opacity:0.6"/>
		<stop  offset="1" style="stop-color:#FFFD00;stop-opacity:0.2"/>
	</linearGradient>
	<path class="st9" d="M1119.2,570.9l0.6-12.7c0-0.4-0.1-0.9-0.5-1.2l-8.6-7.8c-0.6-0.6-0.6-1.5-0.1-2.1c0.1-0.1,0.3-0.3,0.5-0.3
		l10.5-3.3c0.4-0.1,0.7-0.5,0.8-0.9l3.6-12c0.1-0.6,0.7-1,1.3-0.9c0.3,0.1,0.6,0.3,0.8,0.6l5.9,10.7c0.2,0.4,0.6,0.6,1,0.6l10.9,0.3
		c0.8,0.1,1.3,0.9,1.2,1.6c0,0.2-0.1,0.4-0.3,0.6l-6.8,9.9c-0.2,0.4-0.3,0.8-0.2,1.3l3.1,12.2c0.3,1.1-0.6,2.1-1.6,1.7l-10.2-4.6
		c-0.4-0.2-0.8-0.1-1.1,0.2l-9,7.2C1120.2,572.8,1119.1,572.1,1119.2,570.9z"/>
	
		<linearGradient id="SVGID_10_" gradientUnits="userSpaceOnUse" x1="2069.46" y1="214.9021" x2="861.35" y2="214.9021" gradientTransform="matrix(-1 0 0 -1 2635.0239 770.8264)">
		<stop  offset="0" style="stop-color:#FFCF01;stop-opacity:0.6"/>
		<stop  offset="1" style="stop-color:#FFFD00;stop-opacity:0.2"/>
	</linearGradient>
	<path class="st10" d="M979.3,561.6l8.3-10.5c0.3-0.4,0.4-0.9,0.3-1.4l-2.7-13.9c-0.2-1.3,0.8-2.3,1.8-1.7l11,6
		c0.4,0.2,0.9,0.2,1.2-0.1l10.5-7.3c0.9-0.7,2.1,0.2,2,1.5l-1.4,14.1c-0.1,0.5,0.1,1,0.4,1.3l9.1,9.4c0.6,0.7,0.6,1.7-0.1,2.3
		c-0.2,0.2-0.3,0.3-0.6,0.3l-11.9,2.8c-0.4,0.1-0.8,0.5-1,0.9l-4.8,13.1c-0.2,0.7-0.8,1.1-1.5,0.9c-0.4-0.1-0.7-0.4-0.9-0.8
		l-5.9-12.4c-0.2-0.4-0.6-0.7-1-0.8L980,564c-0.9-0.2-1.4-1.1-1.2-2C979,562.1,979.1,561.8,979.3,561.6z"/>
	
		<linearGradient id="SVGID_11_" gradientUnits="userSpaceOnUse" x1="2175.3599" y1="216.1917" x2="1066.4" y2="216.1917" gradientTransform="matrix(-1 0 0 -1 2635.0239 770.8264)">
		<stop  offset="0" style="stop-color:#FFCF01;stop-opacity:0.6"/>
		<stop  offset="1" style="stop-color:#FFFD00;stop-opacity:0.2"/>
	</linearGradient>
	<path class="st11" d="M850,542.4l9.7,1.8c0.4,0.1,0.7-0.1,0.9-0.4l6.8-8.4c0.3-0.5,0.9-0.6,1.4-0.3c0.3,0.2,0.5,0.6,0.4,0.9
		l1.5,11.4c0,0.4,0.3,0.7,0.6,0.9l8.9,5c0.6,0.4,0.8,1.3,0.4,1.9c-0.1,0.1-0.2,0.3-0.4,0.4l-8.8,5.2c-0.3,0.2-0.5,0.6-0.6,1
		l-1.3,11.4c-0.1,1-1.2,1.5-1.8,0.7l-7-8.2c-0.2-0.3-0.6-0.4-0.9-0.3l-9.7,2.1c-0.9,0.2-1.5-0.9-1.1-1.8l4.5-10.3
		c0.2-0.4,0.2-0.8,0-1.2l-4.7-10.1C848.5,543.3,849.1,542.3,850,542.4z"/>
	
		<linearGradient id="SVGID_12_" gradientUnits="userSpaceOnUse" x1="1724.8032" y1="159.7917" x2="615.8433" y2="159.7917" gradientTransform="matrix(-1 0 0 -1 2635.0239 770.8264)">
		<stop  offset="0" style="stop-color:#FFCF01;stop-opacity:0.6"/>
		<stop  offset="1" style="stop-color:#FFFD00;stop-opacity:0.2"/>
	</linearGradient>
	<path class="st12" d="M1300.6,598.8l9.7,1.8c0.4,0.1,0.7-0.1,0.9-0.4l6.8-8.4c0.3-0.5,0.9-0.6,1.4-0.3c0.3,0.2,0.5,0.6,0.4,0.9
		l1.5,11.4c0,0.4,0.3,0.7,0.6,0.9l8.9,5c0.6,0.4,0.8,1.3,0.4,1.9c-0.1,0.1-0.2,0.3-0.4,0.4l-8.8,5.2c-0.3,0.2-0.5,0.6-0.6,1
		l-1.3,11.4c-0.1,1-1.2,1.5-1.8,0.7l-7-8.2c-0.2-0.3-0.6-0.4-0.9-0.3l-9.7,2.1c-0.9,0.2-1.5-0.9-1.1-1.8l4.5-10.3
		c0.2-0.4,0.2-0.8,0-1.2l-4.7-10.1C1299.1,599.7,1299.7,598.7,1300.6,598.8z"/>
	
		<linearGradient id="SVGID_13_" gradientUnits="userSpaceOnUse" x1="2356.8401" y1="198.1335" x2="1168.4" y2="198.1335" gradientTransform="matrix(-1 0 0 -1 2635.0239 770.8264)">
		<stop  offset="0" style="stop-color:#FFCF01;stop-opacity:0.6"/>
		<stop  offset="1" style="stop-color:#FFFD00;stop-opacity:0.2"/>
	</linearGradient>
	<path class="st13" d="M703.8,549.4l6.5,12.2c0.2,0.4,0.6,0.7,1.1,0.7l12.3,0.6c0.9,0.2,1.5,1,1.3,1.9c0,0.3-0.1,0.5-0.3,0.7
		l-7.9,11c-0.3,0.4-0.4,0.9-0.3,1.4l3.3,13.9c0.3,1.2-0.8,2.3-1.8,1.9l-11.4-5.4c-0.4-0.2-0.9-0.1-1.2,0.2l-10.3,8
		c-0.9,0.7-2.1-0.1-2.1-1.4l0.9-14.4c0-0.5-0.1-1-0.5-1.3l-9.6-9c-0.7-0.6-0.7-1.7,0-2.4c0.2-0.2,0.3-0.3,0.6-0.4l11.9-3.5
		c0.5-0.2,0.8-0.5,0.9-1l4.3-13.5c0.1-0.7,0.8-1.1,1.5-1C703.3,548.7,703.6,549,703.8,549.4z"/>
	
		<linearGradient id="SVGID_14_" gradientUnits="userSpaceOnUse" x1="1757.2493" y1="-206.619" x2="601.8292" y2="-206.619" gradientTransform="matrix(-1 0 0 -1 2635.0239 770.8264)">
		<stop  offset="0" style="stop-color:#FFCF01;stop-opacity:0.6"/>
		<stop  offset="1" style="stop-color:#FFFD00;stop-opacity:0.2"/>
	</linearGradient>
	<path class="st14" d="M976.3,1030.5l-22.1-18.7c-0.7-0.7-1.8-0.8-2.7-0.5l-25.7,10.8c-2.3,1-4.5-1.6-3.8-4.3l8.4-30.5
		c0.3-1.1,0.1-2.2-0.5-3.2l-16.6-25.3c-1.5-2.3-0.1-5.6,2.3-5.6l27.3-0.1c1,0,1.9-0.6,2.4-1.5l15.4-26.4c1.4-2.4,4.5-1.9,5.3,0.9
		l8.5,30.4c0.3,1,1,1.9,2,2.2l26.2,9c2.3,0.8,2.9,4.4,0.9,6.1l-22,18.9c-0.8,0.7-1.3,1.8-1.2,2.9l0.8,32
		C981,1030.5,978.3,1032.2,976.3,1030.5z"/>
	
		<linearGradient id="SVGID_15_" gradientUnits="userSpaceOnUse" x1="1557.9592" y1="-260.0895" x2="384.4492" y2="-260.0895" gradientTransform="matrix(-1 0 0 -1 2635.0239 770.8264)">
		<stop  offset="0" style="stop-color:#FFCF01;stop-opacity:0.6"/>
		<stop  offset="1" style="stop-color:#FFFD00;stop-opacity:0.2"/>
	</linearGradient>
	<path class="st15" d="M1098,1049.2l16.8-25.3c0.6-0.9,0.8-2.1,0.5-3.2l-8.2-30.5c-0.7-2.7,1.5-5.3,3.8-4.3l25.5,11
		c0.9,0.4,2,0.2,2.7-0.4l22.2-18.6c2-1.7,4.8,0.1,4.7,2.9l-0.9,32c-0.1,1.1,0.4,2.2,1.2,2.9l22,18.9c2,1.7,1.4,5.3-0.9,6.1
		l-26.2,8.9c-1,0.4-1.7,1.2-2,2.2l-8.6,30.4c-0.8,2.7-3.9,3.2-5.3,0.8l-15.3-26.4c-0.5-0.9-1.4-1.5-2.4-1.5l-27.3-0.2
		C1097.8,1054.8,1096.4,1051.5,1098,1049.2z"/>
	
		<linearGradient id="SVGID_16_" gradientUnits="userSpaceOnUse" x1="1448.6393" y1="-217.5671" x2="308.2894" y2="-217.5671" gradientTransform="matrix(-1 0 0 -1 2635.0239 770.8264)">
		<stop  offset="0" style="stop-color:#FFCF01;stop-opacity:0.6"/>
		<stop  offset="1" style="stop-color:#FFFD00;stop-opacity:0.2"/>
	</linearGradient>
	<path class="st16" d="M1263.7,1039.4l-1.4-32c0-1.1-0.5-2.1-1.4-2.8l-23.2-16.7c-2.1-1.5-1.8-5.2,0.5-6.2l25.5-11.5
		c0.9-0.5,1.6-1.4,1.8-2.4l6.4-31.1c0.6-2.8,3.6-3.6,5.2-1.4l17.2,24.9c0.6,0.9,1.5,1.3,2.5,1.3l27.2-2.5c2.4-0.2,4,2.9,2.7,5.4
		l-14.9,26.8c-0.5,1-0.6,2.2-0.3,3.2l10.4,29.6c0.9,2.7-1.1,5.4-3.5,4.7l-26.3-8.3c-1-0.3-2,0-2.7,0.7l-20.8,20.8
		C1266.7,1043.7,1263.9,1042.3,1263.7,1039.4z"/>
	
		<linearGradient id="SVGID_17_" gradientUnits="userSpaceOnUse" x1="2001.7292" y1="-232.1488" x2="884.6493" y2="-232.1488" gradientTransform="matrix(-1 0 0 -1 2635.0239 770.8264)">
		<stop  offset="0" style="stop-color:#FFCF01;stop-opacity:0.6"/>
		<stop  offset="1" style="stop-color:#FFFD00;stop-opacity:0.2"/>
	</linearGradient>
	<path class="st17" d="M774.3,1007.3l-24.8,13.2c-0.9,0.5-1.6,1.5-1.7,2.6l-4.8,31.5c-0.4,2.8-3.4,3.9-5.1,1.7l-18.4-23.6
		c-0.6-0.8-1.6-1.3-2.6-1.1l-27,4.4c-2.4,0.4-4.2-2.7-3-5.2l13.5-27.8c0.5-1,0.5-2.2,0.1-3.2L688.6,971c-1.1-2.6,0.8-5.5,3.3-4.9
		l26.7,6.4c1,0.2,2-0.1,2.6-0.9l19.7-22.2c1.8-2,4.7-0.7,5,2.1l3.1,31.8c0.1,1.1,0.6,2.1,1.5,2.7l24.1,15.1c1.7,1.2,2.1,3.6,0.9,5.2
		C775.1,1006.7,774.7,1007.1,774.3,1007.3z"/>
	
		<linearGradient id="SVGID_18_" gradientUnits="userSpaceOnUse" x1="1919.9058" y1="-898.4017" x2="858.4258" y2="-463.7517" gradientTransform="matrix(-0.9254 -0.379 0.379 -0.9254 2570.385 759.9929)">
		<stop  offset="0" style="stop-color:#FFCF01;stop-opacity:0.6"/>
		<stop  offset="1" style="stop-color:#FFFD00;stop-opacity:0.2"/>
	</linearGradient>
	<path class="st18" d="M589.9,894.5l12.4-28.5c0.5-1,0.5-2.2,0-3.2l-13-28.1c-1.2-2.5,0.6-5.5,3.1-5.1l26.9,5c1,0.2,2-0.2,2.6-1
		l18.8-23.2c1.7-2.1,4.7-1,5.1,1.9l4.3,31.6c0.1,1.1,0.7,2,1.7,2.6l24.6,13.8c1.7,1.1,2.2,3.5,1.1,5.2c-0.3,0.4-0.6,0.7-1,1
		L652,880.9c-0.9,0.6-1.5,1.6-1.6,2.6l-3.6,31.7c-0.3,2.8-3.3,4-5,2l-19.3-22.6c-0.6-0.8-1.6-1.2-2.6-1l-26.8,5.8
		C590.7,900,588.8,897,589.9,894.5z"/>
	
		<linearGradient id="SVGID_19_" gradientUnits="userSpaceOnUse" x1="2174.4299" y1="276.1662" x2="993.28" y2="276.1662" gradientTransform="matrix(-1 0 0 -1 2635.0239 770.8264)">
		<stop  offset="0" style="stop-color:#FFCF01;stop-opacity:0.6"/>
		<stop  offset="1" style="stop-color:#FFFD00;stop-opacity:0.2"/>
	</linearGradient>
	<path class="st19" d="M933.9,510.2l0.5-9.9c0-0.3-0.1-0.7-0.4-0.9l-6.7-6.1c-0.5-0.4-0.5-1.2,0-1.6c0.1-0.1,0.2-0.2,0.4-0.3
		l8.2-2.6c0.3-0.1,0.5-0.4,0.6-0.7l2.8-9.4c0.1-0.5,0.5-0.8,1-0.7c0.3,0.1,0.5,0.2,0.6,0.5l4.6,8.3c0.1,0.3,0.4,0.5,0.8,0.5l8.5,0.3
		c0.6,0.1,1,0.7,0.9,1.3c0,0.2-0.1,0.3-0.2,0.5l-5.3,7.7c-0.2,0.3-0.3,0.7-0.2,1l2.4,9.6c0.2,0.9-0.5,1.6-1.2,1.3l-7.9-3.6
		c-0.3-0.1-0.6-0.1-0.9,0.1l-7,5.6C934.7,511.6,933.9,511.1,933.9,510.2z"/>
	
		<linearGradient id="SVGID_20_" gradientUnits="userSpaceOnUse" x1="1951.4199" y1="282.3309" x2="765.43" y2="282.3309" gradientTransform="matrix(-1 0 0 -1 2635.0239 770.8264)">
		<stop  offset="0" style="stop-color:#FFCF01;stop-opacity:0.6"/>
		<stop  offset="1" style="stop-color:#FFFD00;stop-opacity:0.2"/>
	</linearGradient>
	<path class="st20" d="M1176.1,486l-6.4,6.8c-0.2,0.3-0.4,0.6-0.3,1l1.1,10c0.1,0.9-0.7,1.5-1.4,1.1l-7.4-5c-0.3-0.2-0.6-0.2-0.9,0
		l-7.8,4.3c-0.7,0.4-1.5-0.3-1.3-1.2l1.8-9.9c0.1-0.4,0-0.7-0.2-1l-5.9-7.3c-0.4-0.5-0.3-1.2,0.1-1.6c0.1-0.1,0.3-0.2,0.4-0.2l8.6-1
		c0.3-0.1,0.6-0.3,0.7-0.6l4.1-8.9c0.2-0.5,0.7-0.7,1.1-0.5c0.3,0.1,0.5,0.3,0.5,0.6l3.5,9.2c0.1,0.3,0.4,0.5,0.7,0.6l8.5,1.8
		c0.6,0.3,0.8,1,0.6,1.5C1176.2,485.9,1176.2,486,1176.1,486z"/>
	
		<linearGradient id="SVGID_21_" gradientUnits="userSpaceOnUse" x1="1828.2424" y1="-504.9094" x2="642.2524" y2="-504.9094" gradientTransform="matrix(-0.5279 -1.0006 0.8845 -0.4666 2455.4238 1602.1866)">
		<stop  offset="0" style="stop-color:#FFCF01;stop-opacity:0.6"/>
		<stop  offset="1" style="stop-color:#FFFD00;stop-opacity:0.2"/>
	</linearGradient>
	<path class="st21" d="M1305.9,500l-9.4-3.2c-0.4-0.1-0.7-0.1-1,0.2l-8.3,5.8c-0.7,0.5-1.7,0-1.7-0.9l0.5-9.7c0-0.4-0.1-0.7-0.5-0.9
		l-7.9-5.8c-0.7-0.5-0.5-1.6,0.4-1.9l9.7-2.8c0.4-0.1,0.6-0.3,0.8-0.7l3.3-9.3c0.2-0.6,0.9-0.9,1.5-0.6c0.1,0.1,0.3,0.2,0.4,0.3
		l5.4,8.1c0.2,0.3,0.6,0.5,0.9,0.4l10-0.1c0.5,0,1,0.4,1,0.9c0.1,0.3,0,0.6-0.3,0.8l-6.3,7.8c-0.2,0.2-0.2,0.6-0.2,1l2.9,9.3
		c0.1,0.7-0.5,1.3-1,1.3C1306.1,500.1,1306,500.1,1305.9,500z"/>
	
		<linearGradient id="SVGID_22_" gradientUnits="userSpaceOnUse" x1="2155.45" y1="364.2294" x2="974.3" y2="364.2294" gradientTransform="matrix(-1 0 0 -1 2635.0239 770.8264)">
		<stop  offset="0" style="stop-color:#FFCF01;stop-opacity:0.6"/>
		<stop  offset="1" style="stop-color:#FFFD00;stop-opacity:0.2"/>
	</linearGradient>
	<path class="st22" d="M1028.5,415.8l0.3-5.9c0-0.2-0.1-0.4-0.2-0.5l-4-3.6c-0.3-0.3-0.3-0.7,0-1c0.1-0.1,0.1-0.1,0.2-0.2l4.9-1.5
		c0.2-0.1,0.3-0.2,0.4-0.4l1.7-5.6c0-0.3,0.3-0.5,0.6-0.5c0.2,0,0.4,0.1,0.4,0.3l2.8,5c0.1,0.2,0.3,0.3,0.4,0.3l5.1,0.2
		c0.4,0.1,0.6,0.4,0.5,0.8c0,0.1,0,0.1-0.1,0.2l-3.2,4.6c-0.1,0.2-0.2,0.4-0.1,0.6l1.4,5.7c0.1,0.5-0.3,1-0.7,0.8l-4.7-2.1
		c-0.2-0.1-0.4-0.1-0.5,0.1l-4.2,3.4C1028.9,416.7,1028.4,416.3,1028.5,415.8z"/>
	
		<linearGradient id="SVGID_23_" gradientUnits="userSpaceOnUse" x1="654.637" y1="365.7621" x2="-526.5129" y2="365.7621" gradientTransform="matrix(0.2356 0.9719 -0.9719 0.2356 1636.6638 199.0659)">
		<stop  offset="0" style="stop-color:#FFCF01;stop-opacity:0.6"/>
		<stop  offset="1" style="stop-color:#FFFD00;stop-opacity:0.2"/>
	</linearGradient>
	<path class="st23" d="M1315,385.8l-5.8,1.1c-0.2,0-0.4,0.2-0.4,0.3l-2.6,4.7c-0.2,0.4-0.6,0.5-1,0.2c-0.1-0.1-0.1-0.1-0.2-0.1
		l-2.6-4.4c-0.1-0.2-0.3-0.2-0.5-0.3l-5.8-0.3c-0.3,0.1-0.6-0.2-0.6-0.5c0-0.2,0-0.4,0.2-0.5l4.2-3.9c0.2-0.1,0.2-0.4,0.2-0.5l-1-5
		c0-0.4,0.2-0.7,0.7-0.7c0.1,0,0.1,0,0.2,0.1l5.2,2c0.2,0.1,0.4,0.1,0.6,0l5.2-2.7c0.5-0.2,1,0.1,0.9,0.5l-0.9,5.1
		c-0.1,0.2,0,0.4,0.2,0.5l4.3,3.3C1315.8,385.2,1315.5,385.8,1315,385.8z"/>
	
		<linearGradient id="SVGID_24_" gradientUnits="userSpaceOnUse" x1="2302.1499" y1="325.4181" x2="1171.3" y2="325.4181" gradientTransform="matrix(-1 0 0 -1 2635.0239 770.8264)">
		<stop  offset="0" style="stop-color:#FFCF01;stop-opacity:0.6"/>
		<stop  offset="1" style="stop-color:#FFFD00;stop-opacity:0.2"/>
	</linearGradient>
	<path class="st24" d="M841.3,458.3l-5-5c-0.2-0.2-0.4-0.2-0.7-0.2l-6.4,2c-0.6,0.2-1.1-0.5-0.8-1.1l2.5-7.1
		c0.1-0.3,0.1-0.5-0.1-0.8l-3.6-6.5c-0.3-0.6,0.1-1.3,0.7-1.3l6.6,0.6c0.2,0,0.5-0.1,0.6-0.3l4.2-6c0.2-0.3,0.6-0.4,0.9-0.2
		c0.2,0.1,0.3,0.3,0.3,0.5l1.5,7.5c0,0.3,0.2,0.5,0.4,0.6l6.1,2.8c0.4,0.2,0.6,0.8,0.3,1.2c-0.1,0.1-0.1,0.2-0.2,0.3l-5.6,4
		c-0.2,0.2-0.3,0.4-0.3,0.7l-0.4,7.7C842.4,458.4,841.7,458.7,841.3,458.3z"/>
	
		<linearGradient id="SVGID_25_" gradientUnits="userSpaceOnUse" x1="2325.71" y1="273.2661" x2="1213.9399" y2="273.2661" gradientTransform="matrix(-1 0 0 -1 2635.0239 770.8264)">
		<stop  offset="0" style="stop-color:#FFCF01;stop-opacity:0.6"/>
		<stop  offset="1" style="stop-color:#FFFD00;stop-opacity:0.2"/>
	</linearGradient>
	<path class="st25" d="M763.2,509.9l-0.8-7.7c0-0.3-0.2-0.5-0.4-0.6l-5.9-3.5c-0.4-0.3-0.5-0.9-0.2-1.3c0.1-0.1,0.1-0.2,0.2-0.2
		l6-3.3c0.2-0.1,0.4-0.4,0.4-0.6l1.1-7.6c0-0.4,0.3-0.7,0.7-0.7c0.2,0,0.4,0.1,0.5,0.3l4.5,5.6c0.1,0.2,0.4,0.3,0.6,0.3l6.5-1.2
		c0.6-0.1,1,0.6,0.7,1.2l-3.2,6.8c-0.1,0.2-0.1,0.5,0,0.8l3,6.9c0.3,0.6-0.2,1.3-0.8,1.2l-6.5-1.4c-0.2-0.1-0.5,0-0.6,0.2l-4.7,5.4
		C764,510.9,763.3,510.6,763.2,509.9z"/>
	
		<linearGradient id="SVGID_26_" gradientUnits="userSpaceOnUse" x1="2045.39" y1="269.364" x2="843.46" y2="269.364" gradientTransform="matrix(-1 0 0 -1 2635.0239 770.8264)">
		<stop  offset="0" style="stop-color:#FFCF01;stop-opacity:0.6"/>
		<stop  offset="1" style="stop-color:#FFFD00;stop-opacity:0.2"/>
	</linearGradient>
	<path class="st26" d="M1066.8,513.9l-3.3-6.7c-0.1-0.2-0.3-0.4-0.6-0.4l-6.6-0.6c-0.5-0.1-0.8-0.6-0.6-1.1c0-0.1,0.1-0.2,0.2-0.3
		l4.4-5.7c0.2-0.2,0.2-0.5,0.2-0.8l-1.5-7.5c-0.1-0.7,0.4-1.2,1-1l6,3.1c0.2,0.1,0.5,0.1,0.7-0.1l5.6-4c0.5-0.4,1.1,0.1,1.1,0.8
		l-0.7,7.7c0,0.3,0.1,0.5,0.3,0.7l5,5c0.3,0.4,0.3,0.9,0,1.3c-0.1,0.1-0.2,0.1-0.3,0.2l-6.4,1.6c-0.2,0.1-0.4,0.3-0.5,0.5l-2.5,7.1
		c-0.1,0.4-0.4,0.6-0.8,0.5C1067,514.2,1066.9,514.1,1066.8,513.9z"/>
	
		<linearGradient id="SVGID_27_" gradientUnits="userSpaceOnUse" x1="2463.3101" y1="399.1962" x2="1282.16" y2="399.1962" gradientTransform="matrix(-1 0 0 -1 2635.0239 770.8264)">
		<stop  offset="0" style="stop-color:#FFCF01;stop-opacity:0.6"/>
		<stop  offset="1" style="stop-color:#FFFD00;stop-opacity:0.2"/>
	</linearGradient>
	<path class="st27" d="M762.6,380.8l0.3-5.9c0-0.2-0.1-0.4-0.2-0.5l-4-3.6c-0.3-0.3-0.3-0.7,0-1c0.1-0.1,0.1-0.1,0.2-0.2l4.9-1.5
		c0.2-0.1,0.3-0.2,0.4-0.4l1.7-5.6c0-0.3,0.3-0.5,0.6-0.5c0.2,0,0.4,0.1,0.4,0.3l2.8,5c0.1,0.2,0.3,0.3,0.4,0.3l5.1,0.2
		c0.4,0.1,0.6,0.4,0.5,0.8c0,0.1-0.1,0.2-0.1,0.3l-3.2,4.6c-0.1,0.2-0.1,0.4-0.1,0.6l1.4,5.7c0.1,0.5-0.3,1-0.7,0.8l-4.7-2.1
		c-0.2-0.1-0.4-0.1-0.5,0.1l-4.2,3.4C763,381.7,762.5,381.4,762.6,380.8z"/>
	
		<linearGradient id="SVGID_28_" gradientUnits="userSpaceOnUse" x1="2038.14" y1="369.8468" x2="888.34" y2="369.8468" gradientTransform="matrix(-1 0 0 -1 2635.0239 770.8264)">
		<stop  offset="0" style="stop-color:#FFCF01;stop-opacity:0.6"/>
		<stop  offset="1" style="stop-color:#FFFD00;stop-opacity:0.2"/>
	</linearGradient>
	<path class="st28" d="M1143.8,405.6l-5.1-0.1c-0.2,0-0.4,0.1-0.5,0.3l-2.9,4.8c-0.1,0.3-0.4,0.4-0.7,0.3c-0.2-0.1-0.3-0.3-0.3-0.5
		l-1.5-5.7c0-0.2-0.2-0.3-0.4-0.4l-4.8-1.8c-0.3-0.2-0.5-0.6-0.3-0.9c0-0.1,0.1-0.2,0.2-0.2l4.1-3.4c0.2-0.1,0.2-0.3,0.2-0.5v-5.9
		c0-0.5,0.5-0.8,0.9-0.5l4,3.6c0.1,0.1,0.3,0.2,0.5,0.1l4.8-1.9c0.4-0.2,0.8,0.3,0.7,0.8l-1.6,5.6c-0.1,0.2,0,0.4,0.1,0.6l3,4.8
		c0.2,0.3,0.1,0.7-0.1,0.9C1144,405.6,1143.9,405.6,1143.8,405.6z"/>
	
		<linearGradient id="SVGID_29_" gradientUnits="userSpaceOnUse" x1="2428.5698" y1="317.0471" x2="1273.9399" y2="317.0471" gradientTransform="matrix(-1 0 0 -1 2635.0239 770.8264)">
		<stop  offset="0" style="stop-color:#FFCF01;stop-opacity:0.6"/>
		<stop  offset="1" style="stop-color:#FFFD00;stop-opacity:0.2"/>
	</linearGradient>
	<path class="st29" d="M721,467.9l-4.3-6.8c-0.1-0.2-0.4-0.4-0.7-0.4l-7.2,0.3c-0.7,0-1-0.8-0.7-1.5l4.2-6.9
		c0.2-0.3,0.2-0.6,0.1-0.8l-2.5-8c-0.2-0.7,0.3-1.4,1-1.2l6.9,2.5c0.2,0.1,0.5,0,0.7-0.2l5.6-5.3c0.5-0.5,1.3,0,1.3,0.7l0.1,8.5
		c0,0.3,0.1,0.6,0.3,0.8l6,4.7c0.4,0.4,0.5,1,0.1,1.4c-0.1,0.1-0.2,0.2-0.3,0.2l-6.8,2.8c-0.3,0.1-0.4,0.3-0.5,0.6l-2,8.2
		c-0.1,0.4-0.4,0.7-0.9,0.6C721.3,468.1,721.1,468,721,467.9z"/>
	
		<linearGradient id="SVGID_30_" gradientUnits="userSpaceOnUse" x1="1924.05" y1="338.8659" x2="769.42" y2="338.8659" gradientTransform="matrix(-1 0 0 -1 2635.0239 770.8264)">
		<stop  offset="0" style="stop-color:#FFCF01;stop-opacity:0.6"/>
		<stop  offset="1" style="stop-color:#FFFD00;stop-opacity:0.2"/>
	</linearGradient>
	<path class="st30" d="M1222.8,446l-4.3-6.8c-0.1-0.2-0.4-0.4-0.7-0.4l-7.2,0.3c-0.5-0.1-0.9-0.5-0.8-1c0-0.2,0.1-0.3,0.2-0.4
		l4.2-6.9c0.1-0.3,0.2-0.6,0.1-0.8l-2.5-8c-0.2-0.7,0.3-1.4,1-1.2l6.9,2.5c0.3,0.1,0.5,0,0.7-0.2l5.7-5.3c0.5-0.5,1.3-0.1,1.3,0.7
		l0.1,8.5c0,0.3,0.1,0.6,0.4,0.8l6,4.7c0.4,0.4,0.5,1,0.1,1.4c-0.1,0.1-0.2,0.2-0.3,0.2l-6.8,2.7c-0.3,0.1-0.4,0.3-0.5,0.6l-2,8.2
		c0,0.4-0.4,0.7-0.8,0.7C1223.2,446.3,1223,446.2,1222.8,446z"/>
	
		<linearGradient id="SVGID_31_" gradientUnits="userSpaceOnUse" x1="2288.98" y1="406.6155" x2="1122.54" y2="406.6155" gradientTransform="matrix(-1 0 0 -1 2635.0239 770.8264)">
		<stop  offset="0" style="stop-color:#FFCF01;stop-opacity:0.6"/>
		<stop  offset="1" style="stop-color:#FFFD00;stop-opacity:0.2"/>
	</linearGradient>
	<path class="st31" d="M924.5,367.8l3-4.8c0.1-0.2,0.1-0.4,0.1-0.6l-1.6-5.6c-0.2-0.5,0.3-1,0.7-0.8l4.8,1.9c0.2,0.1,0.4,0,0.5-0.1
		l4.1-3.5c0.4-0.3,0.9,0,0.9,0.5l-0.1,5.9c0,0.2,0.1,0.4,0.2,0.5l4.2,3.4c0.3,0.3,0.3,0.7,0,1c-0.1,0.1-0.1,0.1-0.2,0.2l-4.8,1.8
		c-0.2,0.1-0.3,0.2-0.4,0.4l-1.5,5.7c0,0.3-0.3,0.5-0.5,0.5s-0.4-0.1-0.5-0.3l-2.9-4.9c-0.1-0.2-0.3-0.3-0.5-0.3l-5.1,0.1
		c-0.4-0.1-0.6-0.4-0.5-0.8C924.4,367.9,924.5,367.8,924.5,367.8z"/>
	
		<linearGradient id="SVGID_32_" gradientUnits="userSpaceOnUse" x1="2098.5774" y1="-23.9173" x2="936.2173" y2="-23.9173" gradientTransform="matrix(-1 0 0 -1 2635.0239 770.8264)">
		<stop  offset="0" style="stop-color:#FFCF01;stop-opacity:0.6"/>
		<stop  offset="1" style="stop-color:#FFFD00;stop-opacity:0.2"/>
	</linearGradient>
	<path class="st32" d="M750.6,834.2l0.1-25c0-0.9-0.3-1.7-1-2.3l-17.5-14.3c-1.6-1.3-1.2-4.1,0.6-4.8l20.3-7.6
		c0.8-0.3,1.3-1,1.5-1.8l6.2-24c0.6-2.2,3-2.6,4.1-0.8l12.5,20.3c0.4,0.7,1.1,1.1,1.9,1.1l21.3-0.5c1.9,0,3,2.5,1.9,4.3L789.9,799
		c-0.5,0.7-0.6,1.7-0.3,2.5l7,23.7c0.6,2.1-1.1,4.2-2.9,3.5l-20.2-7.9c-0.7-0.3-1.6-0.1-2.1,0.4l-17,15.1
		C752.8,837.8,750.6,836.5,750.6,834.2z"/>
	
		<linearGradient id="SVGID_33_" gradientUnits="userSpaceOnUse" x1="1590.4609" y1="-78.6984" x2="481.3908" y2="-78.6984" gradientTransform="matrix(-1 0 0 -1 2635.0239 770.8264)">
		<stop  offset="0" style="stop-color:#FFCF01;stop-opacity:0.6"/>
		<stop  offset="1" style="stop-color:#FFFD00;stop-opacity:0.2"/>
	</linearGradient>
	<path class="st33" d="M1233.9,899.1l-17.5-21.5c-0.6-0.8-1.5-1.1-2.4-1l-25,4.7c-2.2,0.4-3.9-2.4-2.8-4.7l12-26.1c0.4-1,0.4-2,0-3
		l-11.5-26.4c-1-2.4,0.7-5.1,2.9-4.6l24.9,5.3c0.9,0.2,1.9-0.2,2.4-0.9l17.8-21c1.6-1.9,4.4-0.8,4.7,1.8l3.4,29.4
		c0.1,1,0.7,1.9,1.5,2.5l22.6,13.4c1.6,1.1,2,3.3,0.9,4.8c-0.2,0.4-0.6,0.7-0.9,0.9l-22.8,12.8c-0.9,0.5-1.4,1.4-1.5,2.4l-3.9,29.3
		C1238.3,900,1235.5,901,1233.9,899.1z"/>
	
		<linearGradient id="SVGID_34_" gradientUnits="userSpaceOnUse" x1="1042.1801" y1="-1412.9874" x2="189.8701" y2="-740.1974" gradientTransform="matrix(-0.7849 -0.6196 0.6196 -0.7849 2597.6812 399.3955)">
		<stop  offset="0" style="stop-color:#FFCF01;stop-opacity:0.6"/>
		<stop  offset="1" style="stop-color:#FFFD00;stop-opacity:0.2"/>
	</linearGradient>
	<path class="st34" d="M1028.9,866.8l18.4-16.9c0.7-0.6,1.1-1.6,1-2.5l-1.4-27.4c-0.1-2.5,2.2-4,4-2.7l19.4,15.3
		c0.7,0.5,1.6,0.7,2.3,0.3l21.8-10.1c2-0.9,4,1.2,3.4,3.6l-6.4,26.4c-0.2,0.9-0.1,1.9,0.5,2.7l14.9,21.2c1.3,1.9,0.2,4.8-1.9,4.9
		l-23.4,1c-0.9,0.1-1.7,0.6-2,1.4l-12.6,23.2c-1.1,2.1-3.8,1.7-4.5-0.6l-8-25.8c-0.2-0.9-0.9-1.6-1.8-1.9l-22.7-6.9
		C1027.8,871.4,1027.2,868.3,1028.9,866.8z"/>
	
		<linearGradient id="SVGID_35_" gradientUnits="userSpaceOnUse" x1="1952.8916" y1="-103.468" x2="750.8115" y2="-103.468" gradientTransform="matrix(-1 0 0 -1 2635.0239 770.8264)">
		<stop  offset="0" style="stop-color:#FFCF01;stop-opacity:0.6"/>
		<stop  offset="1" style="stop-color:#FFFD00;stop-opacity:0.2"/>
	</linearGradient>
	<path class="st35" d="M914,887.7l-25,4.6c-0.9,0.2-1.7,0.9-2,1.8l-10.9,26.8c-0.4,1.4-1.9,2.1-3.2,1.7c-0.8-0.2-1.4-0.9-1.7-1.6
		l-11.5-26.4c-0.3-0.9-1.1-1.6-2.1-1.7l-25.1-3.9c-2.3-0.3-3.2-3.6-1.6-5.5l17.9-21c0.7-0.8,0.9-1.8,0.8-2.9l-4.6-29.2
		c-0.4-2.6,1.9-4.7,3.9-3.5l22.6,13.5c0.8,0.5,1.8,0.5,2.5,0l22.2-14.2c2-1.3,4.4,0.7,4,3.3l-4,29.3c-0.1,1,0.1,2.1,0.8,2.8
		l18.4,20.5C917.1,884.1,916.3,887.3,914,887.7z"/>
	
		<linearGradient id="SVGID_36_" gradientUnits="userSpaceOnUse" x1="1601.59" y1="41.3015" x2="469.5301" y2="41.3015" gradientTransform="matrix(-1 0 0 -1 2635.0239 770.8264)">
		<stop  offset="0" style="stop-color:#FFCF01;stop-opacity:0.6"/>
		<stop  offset="1" style="stop-color:#FFFD00;stop-opacity:0.2"/>
	</linearGradient>
	<path class="st36" d="M1272.9,764.5l-1.4-21.8c0-0.7-0.4-1.4-1-1.9l-16.1-11.1c-1.1-0.9-1.3-2.5-0.5-3.6c0.2-0.3,0.4-0.5,0.7-0.6
		l17.3-8.3c0.6-0.3,1.1-1,1.2-1.7l4-21.4c0.4-1.9,2.4-2.5,3.5-1l12.1,16.7c0.4,0.6,1.1,0.9,1.8,0.8l18.6-2.2c1.7-0.2,2.8,2,1.9,3.6
		l-9.8,18.6c-0.4,0.7-0.4,1.5-0.1,2.2l7.5,20.1c0.7,1.8-0.7,3.7-2.3,3.3L1292,751c-0.7-0.2-1.4,0-1.8,0.5l-14,14.6
		C1275,767.5,1273,766.5,1272.9,764.5z"/>
	
		<linearGradient id="SVGID_37_" gradientUnits="userSpaceOnUse" x1="1802.3201" y1="208.5776" x2="626.17" y2="208.5776" gradientTransform="matrix(-1 0 0 -1 2635.0239 770.8264)">
		<stop  offset="0" style="stop-color:#FFCF01;stop-opacity:0.6"/>
		<stop  offset="1" style="stop-color:#FFFD00;stop-opacity:0.2"/>
	</linearGradient>
	<path class="st37" d="M1222,564.7l8.3-8.2c0.3-0.3,0.5-0.8,0.4-1.2l-1.1-12.7c-0.1-1.2,1-1.9,1.8-1.3l9.2,6.7
		c0.3,0.2,0.7,0.3,1.1,0.1l10-5.1c0.9-0.5,1.8,0.5,1.6,1.6l-2.6,12.4c-0.1,0.4,0,0.9,0.3,1.3l7.2,9.5c0.5,0.6,0.4,1.5-0.2,2
		c-0.2,0.1-0.4,0.2-0.6,0.3l-10.8,0.9c-0.4,0-0.8,0.3-0.9,0.7l-5.5,11c-0.2,0.6-0.9,0.8-1.4,0.6c-0.3-0.1-0.6-0.4-0.7-0.8l-4.1-11.8
		c-0.1-0.4-0.4-0.7-0.8-0.8l-10.6-2.7c-0.7-0.3-1.1-1.2-0.7-1.9C1221.8,564.9,1221.9,564.8,1222,564.7z"/>
</g>
<g class="st0">
	
		<linearGradient id="SVGID_38_" gradientUnits="userSpaceOnUse" x1="2354.6001" y1="33.6088" x2="1212.38" y2="33.6088" gradientTransform="matrix(-1 0 0 -1 2635.0239 770.8264)">
		<stop  offset="0" style="stop-color:#FFCF01;stop-opacity:0.6"/>
		<stop  offset="1" style="stop-color:#FFFD00;stop-opacity:0.2"/>
	</linearGradient>
	<path class="st38" d="M560.1,773.5l-11.7-17.1c-0.4-0.6-1-0.9-1.7-0.9l-18.7,1.6c-1.7,0.1-2.8-2-1.8-3.7l10.3-18.3
		c0.4-0.7,0.4-1.5,0.2-2.2l-7-20.3c-0.6-1.8,0.8-3.7,2.4-3.2l18,5.8c0.7,0.2,1.4,0,1.8-0.5l14.3-14.1c1.3-1.3,3.3-0.3,3.3,1.7
		l0.9,21.9c0,0.8,0.4,1.5,1,1.9l15.9,11.6c1.1,0.9,1.3,2.5,0.4,3.6c-0.2,0.3-0.5,0.5-0.8,0.6l-17.5,7.8c-0.7,0.3-1.1,0.9-1.3,1.6
		l-4.5,21.3C563.3,774.5,561.2,775,560.1,773.5z"/>
	
		<linearGradient id="SVGID_39_" gradientUnits="userSpaceOnUse" x1="2557.98" y1="48.054" x2="1395.62" y2="48.054" gradientTransform="matrix(-1 0 0 -1 2635.0239 770.8264)">
		<stop  offset="0" style="stop-color:#FFCF01;stop-opacity:0.6"/>
		<stop  offset="1" style="stop-color:#FFFD00;stop-opacity:0.2"/>
	</linearGradient>
	<path class="st39" d="M364.6,757.5l0.1-22c0-0.8-0.3-1.5-0.9-2l-15.4-12.6c-1.1-1-1.1-2.6-0.2-3.6c0.2-0.2,0.5-0.4,0.8-0.6
		l17.9-6.7c0.7-0.3,1.2-0.9,1.3-1.6l5.4-21.1c0.5-1.9,2.6-2.3,3.6-0.7l11,17.9c0.3,0.6,1,1,1.7,1l18.8-0.5c1.7,0,2.7,2.2,1.7,3.8
		l-11.1,17.8c-0.4,0.7-0.5,1.5-0.3,2.2l6.2,20.8c0.5,1.9-1,3.7-2.6,3l-17.9-6.9c-0.6-0.2-1.4-0.1-1.9,0.4l-15,13.3
		C366.5,760.6,364.6,759.5,364.6,757.5z"/>
	
		<linearGradient id="SVGID_40_" gradientUnits="userSpaceOnUse" x1="2568.4399" y1="136.2626" x2="1402.14" y2="136.2626" gradientTransform="matrix(-1 0 0 -1 2635.0239 770.8264)">
		<stop  offset="0" style="stop-color:#FFCF01;stop-opacity:0.6"/>
		<stop  offset="1" style="stop-color:#FFFD00;stop-opacity:0.2"/>
	</linearGradient>
	<path class="st40" d="M431,661.7l0.2-17.3c0-0.6-0.2-1.2-0.7-1.6l-12-10c-0.8-0.7-0.9-2-0.2-2.8c0.2-0.2,0.4-0.4,0.7-0.5l14-5.1
		c0.5-0.2,0.9-0.7,1.1-1.2l4.4-16.5c0.1-0.8,0.9-1.4,1.7-1.3c0.5,0.1,0.9,0.4,1.1,0.8l8.5,14.2c0.3,0.5,0.8,0.8,1.3,0.8l14.8-0.2
		c1.3,0,2.1,1.8,1.3,3l-8.9,13.9c-0.3,0.5-0.4,1.1-0.2,1.7l4.7,16.4c0.4,1.5-0.8,2.9-2,2.4l-14-5.6c-0.5-0.2-1.1-0.1-1.5,0.3
		l-11.8,10.3C432.5,664.2,431,663.3,431,661.7z"/>
	
		<linearGradient id="SVGID_41_" gradientUnits="userSpaceOnUse" x1="2716.96" y1="155.4212" x2="1520.4399" y2="155.4212" gradientTransform="matrix(-1 0 0 -1 2635.0239 770.8264)">
		<stop  offset="0" style="stop-color:#FFCF01;stop-opacity:0.6"/>
		<stop  offset="1" style="stop-color:#FFFD00;stop-opacity:0.2"/>
	</linearGradient>
	<path class="st41" d="M342,641.3l-13.6-6.8c-0.5-0.2-1.1-0.2-1.5,0.1l-12.5,9.3c-1.1,0.8-2.6-0.2-2.4-1.8l1.3-17.3
		c0.1-0.6-0.2-1.2-0.6-1.6l-11.4-11.1c-0.8-0.8-0.8-2,0-2.8c0.2-0.2,0.4-0.3,0.7-0.5l14.4-3.8c0.5-0.2,1-0.6,1.1-1.1l5.4-16.1
		c0.2-0.8,1-1.3,1.8-1.2c0.5,0.1,0.9,0.4,1.1,0.9l7.6,14.9c0.2,0.5,0.7,0.8,1.3,0.9l14.7,1.1c1.3,0.1,2,1.9,1.1,3.1l-9.7,13
		c-0.4,0.5-0.5,1.1-0.3,1.7l3.6,16.8C344.5,640.6,343.2,641.9,342,641.3z"/>
	
		<linearGradient id="SVGID_42_" gradientUnits="userSpaceOnUse" x1="2707.3401" y1="82.2983" x2="1574.35" y2="82.2983" gradientTransform="matrix(-1 0 0 -1 2635.0239 770.8264)">
		<stop  offset="0" style="stop-color:#FFCF01;stop-opacity:0.6"/>
		<stop  offset="1" style="stop-color:#FFFD00;stop-opacity:0.2"/>
	</linearGradient>
	<path class="st42" d="M250.2,718.2l-3.8-17.9c-0.1-0.6-0.5-1.1-1-1.4l-14.7-6.5c-1-0.6-1.4-1.9-0.8-3c0.1-0.2,0.3-0.4,0.5-0.6
		l13.4-9.7c0.5-0.4,0.8-1,0.8-1.6l0.8-18.4c0.1-1.6,1.7-2.5,2.8-1.4l12,11.9c0.4,0.4,1,0.6,1.6,0.4l15.2-4.8c1.4-0.4,2.6,1.1,2,2.7
		l-5.9,17.1c-0.2,0.6-0.2,1.3,0.2,1.8l8.6,15.4c0.8,1.4-0.1,3.2-1.6,3.1l-15.7-1.4c-0.6,0-1.1,0.2-1.4,0.7l-9.8,14.4
		c-0.5,0.8-1.5,1-2.2,0.6C250.5,719.3,250.2,718.8,250.2,718.2z"/>
	
		<linearGradient id="SVGID_43_" gradientUnits="userSpaceOnUse" x1="2893.6899" y1="84.32" x2="1695.4" y2="84.32" gradientTransform="matrix(-1 0 0 -1 2635.0239 770.8264)">
		<stop  offset="0" style="stop-color:#FFCF01;stop-opacity:0.6"/>
		<stop  offset="1" style="stop-color:#FFFD00;stop-opacity:0.2"/>
	</linearGradient>
	<path class="st43" d="M95.4,723l-8.8-20.9c-0.3-0.7-0.9-1.2-1.6-1.4l-19.7-3.4c-1.8-0.3-2.5-2.8-1.2-4.3l14.3-16.3
		c0.5-0.6,0.7-1.4,0.6-2.2l-3.4-23c-0.3-2.1,1.6-3.6,3.1-2.7l17.6,10.9c0.6,0.4,1.4,0.4,2,0l17.6-10.9c1.6-1,3.4,0.6,3.1,2.7
		l-3.4,23c-0.1,0.8,0.1,1.6,0.6,2.2l14.3,16.3c1.3,1.5,0.6,4-1.2,4.3l-19.7,3.4c-0.7,0.2-1.4,0.7-1.6,1.4L99.2,723
		c-0.3,1.1-1.4,1.7-2.5,1.4C96.1,724.2,95.5,723.7,95.4,723z"/>
	
		<linearGradient id="SVGID_44_" gradientUnits="userSpaceOnUse" x1="2846.77" y1="142.4837" x2="1656.1" y2="142.4837" gradientTransform="matrix(-1 0 0 -1 2635.0239 770.8264)">
		<stop  offset="0" style="stop-color:#FFCF01;stop-opacity:0.6"/>
		<stop  offset="1" style="stop-color:#FFFD00;stop-opacity:0.2"/>
	</linearGradient>
	<path class="st44" d="M186.9,655.6l-6.2-15.7c-0.2-0.5-0.6-0.9-1.2-1.1l-14.6-2.9c-1-0.4-1.6-1.5-1.2-2.6c0.1-0.2,0.2-0.5,0.4-0.7
		l10.8-11.8c0.4-0.5,0.6-1.1,0.5-1.6l-2.1-17.1c-0.2-1.5,1.2-2.7,2.4-1.9l12.9,8.4c0.5,0.3,1,0.3,1.5,0l13.2-7.7
		c1.2-0.7,2.5,0.5,2.3,2l-2.9,17c-0.1,0.6,0.1,1.2,0.4,1.7l10.3,12.4c0.7,0.9,0.6,2.1-0.3,2.8c-0.2,0.2-0.4,0.3-0.7,0.4l-14.7,2.1
		c-0.6,0.1-1,0.5-1.2,1l-6.9,15.4c-0.3,0.8-1.2,1.2-2,0.9C187.4,656.3,187.1,656,186.9,655.6z"/>
	
		<linearGradient id="SVGID_45_" gradientUnits="userSpaceOnUse" x1="2442.21" y1="144.0776" x2="1252.87" y2="144.0776" gradientTransform="matrix(-1 0 0 -1 2635.0239 770.8264)">
		<stop  offset="0" style="stop-color:#FFCF01;stop-opacity:0.6"/>
		<stop  offset="1" style="stop-color:#FFFD00;stop-opacity:0.2"/>
	</linearGradient>
	<path class="st45" d="M601.3,622.5l-10.9,11.7c-0.4,0.5-0.6,1.1-0.5,1.7L592,653c0.2,1.5-1.2,2.7-2.4,1.9l-12.9-8.5
		c-0.4-0.3-1-0.3-1.5,0L562,654c-1.2,0.7-2.5-0.5-2.3-2l2.9-17c0.1-0.6-0.1-1.2-0.4-1.7L552,620.8c-0.7-0.9-0.6-2.1,0.3-2.8
		c0.2-0.2,0.4-0.3,0.7-0.4l14.7-2c0.6-0.1,1-0.5,1.2-1l6.9-15.3c0.3-0.8,1.2-1.2,1.9-0.9c0.5,0.2,0.8,0.5,0.9,1l6.2,15.8
		c0.2,0.5,0.6,0.9,1.2,1.1l14.5,3c1,0.4,1.5,1.6,1.2,2.6C601.6,622.1,601.5,622.3,601.3,622.5z"/>
	
		<linearGradient id="SVGID_46_" gradientUnits="userSpaceOnUse" x1="2565.6802" y1="230.723" x2="1384.53" y2="230.723" gradientTransform="matrix(-1 0 0 -1 2635.0239 770.8264)">
		<stop  offset="0" style="stop-color:#FFCF01;stop-opacity:0.6"/>
		<stop  offset="1" style="stop-color:#FFFD00;stop-opacity:0.2"/>
	</linearGradient>
	<path class="st46" d="M519.1,560l0.6-12.7c0-0.4-0.1-0.9-0.5-1.2l-8.6-7.8c-0.6-0.6-0.6-1.5-0.1-2.1c0.1-0.1,0.3-0.3,0.5-0.3
		l10.5-3.3c0.4-0.1,0.7-0.5,0.8-0.9l3.6-12c0.1-0.6,0.7-1,1.3-0.9c0.3,0.1,0.6,0.3,0.8,0.6l5.9,10.7c0.2,0.4,0.5,0.6,1,0.6l10.9,0.3
		c0.8,0.1,1.3,0.9,1.1,1.7c0,0.2-0.1,0.4-0.3,0.6l-6.8,9.9c-0.3,0.4-0.3,0.8-0.2,1.3l3.1,12.2c0.3,1.1-0.6,2.1-1.5,1.7l-10.1-4.6
		c-0.4-0.2-0.8-0.1-1.1,0.1l-9,7.2C520.1,561.8,519,561.1,519.1,560z"/>
	
		<linearGradient id="SVGID_47_" gradientUnits="userSpaceOnUse" x1="2705.96" y1="225.802" x2="1497.84" y2="225.802" gradientTransform="matrix(-1 0 0 -1 2635.0239 770.8264)">
		<stop  offset="0" style="stop-color:#FFCF01;stop-opacity:0.6"/>
		<stop  offset="1" style="stop-color:#FFFD00;stop-opacity:0.2"/>
	</linearGradient>
	<path class="st47" d="M379.2,550.7l8.3-10.5c0.3-0.4,0.4-0.9,0.3-1.4l-2.7-13.9c-0.2-1.3,0.8-2.3,1.8-1.7l11,6
		c0.4,0.2,0.9,0.2,1.2-0.1l10.5-7.3c0.9-0.7,2.1,0.2,2,1.5l-1.4,14.1c-0.1,0.5,0.1,1,0.4,1.3l9.1,9.4c0.6,0.7,0.6,1.7,0,2.3
		c-0.2,0.2-0.4,0.3-0.6,0.4l-11.9,2.7c-0.5,0.1-0.8,0.4-1,0.9l-4.8,13.1c-0.2,0.7-0.8,1.1-1.5,0.9c-0.4-0.1-0.7-0.4-0.9-0.8
		l-5.9-12.4c-0.2-0.4-0.6-0.7-1-0.8l-12.1-1.3c-0.9-0.2-1.4-1.1-1.1-2C378.9,551.1,379,550.9,379.2,550.7z"/>
	
		<linearGradient id="SVGID_48_" gradientUnits="userSpaceOnUse" x1="2808.8599" y1="227.0917" x2="1699.9" y2="227.0917" gradientTransform="matrix(-1 0 0 -1 2635.0239 770.8264)">
		<stop  offset="0" style="stop-color:#FFCF01;stop-opacity:0.6"/>
		<stop  offset="1" style="stop-color:#FFFD00;stop-opacity:0.2"/>
	</linearGradient>
	<path class="st48" d="M249.9,531.5l9.7,1.8c0.4,0.1,0.7-0.1,0.9-0.4l6.8-8.4c0.3-0.5,0.9-0.6,1.4-0.3c0.3,0.2,0.5,0.6,0.4,0.9
		l1.6,11.4c0,0.4,0.3,0.7,0.6,0.9l8.9,5c0.6,0.4,0.8,1.3,0.4,1.9c-0.1,0.1-0.2,0.3-0.4,0.4l-8.8,5.2c-0.3,0.2-0.5,0.6-0.6,1
		l-1.3,11.4c-0.1,1-1.2,1.5-1.8,0.7l-7-8.1c-0.2-0.3-0.6-0.4-0.9-0.3l-9.7,2.1c-0.9,0.2-1.5-0.9-1.1-1.8l4.4-10.3
		c0.2-0.4,0.2-0.8,0-1.2l-4.7-10.1C248.4,532.4,249,531.3,249.9,531.5z"/>
	
		<linearGradient id="SVGID_49_" gradientUnits="userSpaceOnUse" x1="3001.4873" y1="239.0016" x2="1813.0472" y2="239.0016" gradientTransform="matrix(-1 0 0 -1 2635.0239 770.8264)">
		<stop  offset="0" style="stop-color:#FFCF01;stop-opacity:0.6"/>
		<stop  offset="1" style="stop-color:#FFFD00;stop-opacity:0.2"/>
	</linearGradient>
	<path class="st49" d="M119.6,508.6l6.5,12.2c0.2,0.4,0.6,0.7,1.1,0.7l12.3,0.7c0.9,0.1,1.5,1,1.3,1.8c0,0.3-0.2,0.5-0.3,0.7
		l-7.9,11c-0.3,0.4-0.4,0.9-0.3,1.4l3.3,13.9c0.3,1.3-0.8,2.3-1.8,1.9l-11.4-5.4c-0.4-0.2-0.9-0.1-1.2,0.2l-10.2,7.9
		c-0.9,0.7-2.1-0.1-2.1-1.4l0.9-14.4c0-0.5-0.1-1-0.5-1.3l-9.6-9c-0.7-0.6-0.7-1.7,0-2.4c0.2-0.2,0.3-0.3,0.5-0.4l11.9-3.5
		c0.5-0.2,0.8-0.5,0.9-1l4.3-13.5c0.2-0.7,0.9-1.1,1.5-0.9C119.2,508,119.4,508.2,119.6,508.6z"/>
	
		<linearGradient id="SVGID_50_" gradientUnits="userSpaceOnUse" x1="2389.97" y1="-233.3023" x2="1234.5601" y2="-233.3023" gradientTransform="matrix(-1 0 0 -1 2635.0239 770.8264)">
		<stop  offset="0" style="stop-color:#FFCF01;stop-opacity:0.6"/>
		<stop  offset="1" style="stop-color:#FFFD00;stop-opacity:0.2"/>
	</linearGradient>
	<path class="st50" d="M378.3,1057.2l-22.1-18.7c-0.7-0.7-1.8-0.8-2.7-0.4l-25.7,10.7c-2.3,1-4.6-1.6-3.8-4.3l8.4-30.5
		c0.3-1.1,0.1-2.2-0.5-3.2l-16.7-25.3c-1.5-2.3-0.1-5.6,2.3-5.6l27.3-0.1c1,0,2-0.6,2.4-1.5l15.4-26.4c1.4-2.4,4.5-1.8,5.3,0.9
		l8.5,30.4c0.3,1,1,1.9,2,2.3l26.2,9c2.3,0.8,2.9,4.4,0.9,6.1l-22,18.9c-0.8,0.7-1.3,1.8-1.2,2.9l0.8,32
		C383.1,1057.1,380.3,1058.8,378.3,1057.2z"/>
	
		<linearGradient id="SVGID_51_" gradientUnits="userSpaceOnUse" x1="2191.24" y1="-242.2947" x2="1017.72" y2="-242.2947" gradientTransform="matrix(-1 0 0 -1 2635.0239 770.8264)">
		<stop  offset="0" style="stop-color:#FFCF01;stop-opacity:0.6"/>
		<stop  offset="1" style="stop-color:#FFFD00;stop-opacity:0.2"/>
	</linearGradient>
	<path class="st51" d="M500,1031.4l16.8-25.2c0.6-0.9,0.8-2.1,0.5-3.2l-8.3-30.5c-0.7-2.7,1.5-5.3,3.8-4.3l25.7,10.9
		c0.9,0.4,2,0.2,2.7-0.4l22.2-18.6c2-1.7,4.8,0.1,4.7,2.9l-0.9,32c0,1.1,0.4,2.2,1.2,2.9l21.9,19c2,1.7,1.4,5.3-0.9,6.1l-26.2,8.9
		c-1,0.4-1.7,1.2-2,2.2l-8.6,30.3c-0.8,2.7-3.9,3.2-5.3,0.9l-15.3-26.5c-0.5-0.9-1.4-1.5-2.4-1.5l-27.3-0.3
		C499.9,1036.9,498.5,1033.6,500,1031.4z"/>
	
		<linearGradient id="SVGID_52_" gradientUnits="userSpaceOnUse" x1="2575.1602" y1="-200.3116" x2="1458.09" y2="-200.3116" gradientTransform="matrix(-1 0 0 -1 2635.0239 770.8264)">
		<stop  offset="0" style="stop-color:#FFCF01;stop-opacity:0.6"/>
		<stop  offset="1" style="stop-color:#FFFD00;stop-opacity:0.2"/>
	</linearGradient>
	<path class="st52" d="M234.5,975.4l-24.8,13.3c-0.9,0.5-1.6,1.5-1.7,2.5l-4.8,31.5c-0.4,2.8-3.4,3.8-5.1,1.7l-18.4-23.6
		c-0.6-0.8-1.6-1.2-2.6-1.1l-27,4.4c-2.4,0.4-4.2-2.6-3-5.1l13.4-27.8c0.5-1,0.5-2.2,0.1-3.2l-11.9-28.8c-1.1-2.6,0.8-5.5,3.3-4.9
		l26.7,6.5c1,0.2,2-0.1,2.6-0.9l19.6-22.2c1.8-2,4.7-0.8,5,2.1l3.1,31.8c0.1,1.1,0.6,2.1,1.5,2.7l24.1,15.1c1.7,1.2,2.1,3.5,0.9,5.2
		C235.3,974.9,234.9,975.2,234.5,975.4z"/>
	
		<linearGradient id="SVGID_53_" gradientUnits="userSpaceOnUse" x1="2803.74" y1="-67.2237" x2="1610.39" y2="-67.2237" gradientTransform="matrix(-1 0 0 -1 2635.0239 770.8264)">
		<stop  offset="0" style="stop-color:#FFCF01;stop-opacity:0.6"/>
		<stop  offset="1" style="stop-color:#FFFD00;stop-opacity:0.2"/>
	</linearGradient>
	<path class="st53" d="M29.4,887.4l2.3-31.9c0.1-1.1-0.3-2.2-1.1-3L9.4,832.3c-1.9-1.8-1.2-5.4,1.2-6.1l26.6-7.3
		c1-0.3,1.8-1.1,2.1-2.1l9.9-29.8c0.9-2.7,4-3,5.3-0.5l14.2,27.4c0.5,0.9,1.3,1.5,2.4,1.7l27.2,1.8c2.4,0.2,3.7,3.5,2.1,5.7
		l-17.8,24.3c-0.6,0.9-0.9,2.1-0.6,3.1l6.9,31c0.6,2.8-1.8,5.2-4,4.1l-25.2-12.4c-0.9-0.4-2-0.3-2.7,0.3l-22.9,17.3
		C31.9,892.2,29.2,890.3,29.4,887.4z"/>
	
		<linearGradient id="SVGID_54_" gradientUnits="userSpaceOnUse" x1="2810.1099" y1="287.1622" x2="1628.97" y2="287.1622" gradientTransform="matrix(-1 0 0 -1 2635.0239 770.8264)">
		<stop  offset="0" style="stop-color:#FFCF01;stop-opacity:0.6"/>
		<stop  offset="1" style="stop-color:#FFFD00;stop-opacity:0.2"/>
	</linearGradient>
	<path class="st54" d="M333.8,499.2l0.4-9.9c0-0.3-0.1-0.7-0.4-0.9l-6.7-6.1c-0.5-0.4-0.5-1.2-0.1-1.6c0.1-0.1,0.2-0.2,0.4-0.3
		l8.2-2.6c0.3-0.1,0.5-0.4,0.6-0.7l2.8-9.4c0.1-0.5,0.5-0.8,1-0.7c0.3,0,0.5,0.2,0.6,0.5l4.6,8.3c0.1,0.3,0.4,0.5,0.7,0.5l8.5,0.3
		c0.6,0.1,1,0.7,0.9,1.3c0,0.2-0.1,0.3-0.2,0.5l-5.3,7.7c-0.2,0.3-0.3,0.7-0.2,1l2.4,9.5c0.2,0.8-0.5,1.6-1.2,1.3l-7.9-3.6
		c-0.3-0.1-0.6-0.1-0.8,0.1l-7,5.6C334.6,500.7,333.8,500.1,333.8,499.2z"/>
	
		<linearGradient id="SVGID_55_" gradientUnits="userSpaceOnUse" x1="2587.25" y1="293.2809" x2="1401.26" y2="293.2809" gradientTransform="matrix(-1 0 0 -1 2635.0239 770.8264)">
		<stop  offset="0" style="stop-color:#FFCF01;stop-opacity:0.6"/>
		<stop  offset="1" style="stop-color:#FFFD00;stop-opacity:0.2"/>
	</linearGradient>
	<path class="st55" d="M576,475.1l-6.4,6.8c-0.2,0.3-0.4,0.6-0.3,1l1.1,10c0.1,0.9-0.7,1.5-1.4,1.1l-7.5-5c-0.3-0.2-0.6-0.2-0.9,0
		l-7.8,4.3c-0.7,0.4-1.5-0.3-1.3-1.2l1.8-9.9c0.1-0.4,0-0.7-0.2-1l-5.9-7.3c-0.4-0.5-0.3-1.2,0.1-1.6c0.1-0.1,0.3-0.2,0.4-0.2
		l8.6-1.1c0.3,0,0.6-0.3,0.7-0.6l4.1-8.9c0.2-0.5,0.7-0.7,1.1-0.5c0.3,0.1,0.5,0.3,0.5,0.6l3.5,9.2c0.1,0.3,0.4,0.5,0.7,0.6l8.5,1.8
		c0.6,0.2,0.9,0.9,0.6,1.5C576.1,474.9,576.1,475,576,475.1z"/>
	
		<linearGradient id="SVGID_56_" gradientUnits="userSpaceOnUse" x1="2758.24" y1="337.3961" x2="1577.09" y2="337.3961" gradientTransform="matrix(-1 0 0 -1 2635.0239 770.8264)">
		<stop  offset="0" style="stop-color:#FFCF01;stop-opacity:0.6"/>
		<stop  offset="1" style="stop-color:#FFFD00;stop-opacity:0.2"/>
	</linearGradient>
	<path class="st56" d="M428.4,442.7l0.3-6c0-0.2-0.1-0.4-0.2-0.5l-4-3.6c-0.3-0.3-0.3-0.7,0-1c0.1-0.1,0.1-0.1,0.2-0.2l4.9-1.5
		c0.2-0.1,0.3-0.2,0.4-0.4l1.7-5.6c0-0.3,0.2-0.5,0.5-0.5c0.2,0,0.4,0.2,0.5,0.4l2.8,5c0.1,0.2,0.3,0.3,0.5,0.3l5.1,0.2
		c0.4,0.1,0.6,0.4,0.5,0.8c0,0.1-0.1,0.2-0.1,0.2l-3.2,4.6c-0.1,0.2-0.1,0.4-0.1,0.6l1.4,5.7c0.1,0.5-0.3,1-0.7,0.8l-4.7-2.1
		c-0.2-0.1-0.4-0.1-0.5,0.1l-4.2,3.4C428.8,443.5,428.3,443.2,428.4,442.7z"/>
	
		<linearGradient id="SVGID_57_" gradientUnits="userSpaceOnUse" x1="2936.3198" y1="336.396" x2="1805.47" y2="336.396" gradientTransform="matrix(-1 0 0 -1 2635.0239 770.8264)">
		<stop  offset="0" style="stop-color:#FFCF01;stop-opacity:0.6"/>
		<stop  offset="1" style="stop-color:#FFFD00;stop-opacity:0.2"/>
	</linearGradient>
	<path class="st57" d="M241.2,447.3l-5-5c-0.2-0.2-0.4-0.2-0.6-0.2l-6.4,2c-0.6,0.2-1.1-0.5-0.8-1.1l2.5-7.1
		c0.1-0.3,0.1-0.5-0.1-0.8l-3.6-6.5c-0.3-0.4-0.2-0.9,0.2-1.2c0.1-0.1,0.3-0.1,0.4-0.1l6.6,0.6c0.2,0,0.5-0.1,0.6-0.3l4.2-6
		c0.2-0.3,0.7-0.4,1-0.2c0.2,0.1,0.3,0.3,0.3,0.5l1.5,7.5c0,0.3,0.2,0.5,0.4,0.6l6.1,2.8c0.4,0.3,0.6,0.8,0.3,1.2
		c-0.1,0.1-0.1,0.2-0.2,0.3l-5.6,4c-0.2,0.2-0.3,0.4-0.3,0.7l-0.4,7.7C242.3,447.4,241.6,447.8,241.2,447.3z"/>
	
		<linearGradient id="SVGID_58_" gradientUnits="userSpaceOnUse" x1="2755.8215" y1="435.0848" x2="1624.9714" y2="435.0848" gradientTransform="matrix(-0.8372 0.547 -0.547 -0.8372 2146.9778 -253.3724)">
		<stop  offset="0" style="stop-color:#FFCF01;stop-opacity:0.6"/>
		<stop  offset="1" style="stop-color:#FFFD00;stop-opacity:0.2"/>
	</linearGradient>
	<path class="st58" d="M63.1,603.8l-6.9-1.5c-0.3-0.1-0.4,0.1-0.6,0.2l-4.3,5.2c-0.4,0.5-1.2,0.2-1.3-0.5l-1.8-7.3
		c-0.1-0.3-0.2-0.5-0.5-0.6l-6.6-3.5c-0.5-0.2-0.7-0.6-0.5-1.1c0-0.1,0.2-0.2,0.3-0.3l5.9-3.1c0.2-0.1,0.4-0.4,0.3-0.6l0.2-7.3
		c0-0.4,0.4-0.7,0.7-0.7c0.2,0,0.4,0.1,0.5,0.3l5.4,5.5c0.2,0.3,0.4,0.3,0.7,0.3l6.6-1c0.5,0,0.9,0.3,0.9,0.8c0,0.1,0,0.2,0,0.4
		l-2.5,6.4c-0.1,0.3,0,0.5,0.1,0.8l3.9,6.7C64.1,603.3,63.7,604,63.1,603.8z"/>
	
		<linearGradient id="SVGID_59_" gradientUnits="userSpaceOnUse" x1="2959.3" y1="284.1815" x2="1847.53" y2="284.1815" gradientTransform="matrix(-1 0 0 -1 2635.0239 770.8264)">
		<stop  offset="0" style="stop-color:#FFCF01;stop-opacity:0.6"/>
		<stop  offset="1" style="stop-color:#FFFD00;stop-opacity:0.2"/>
	</linearGradient>
	<path class="st59" d="M163.1,499l-0.8-7.7c0-0.3-0.2-0.5-0.4-0.6l-5.9-3.5c-0.4-0.3-0.5-0.9-0.2-1.3c0.1-0.1,0.1-0.2,0.2-0.2l6-3.3
		c0.2-0.1,0.4-0.4,0.4-0.6l1.1-7.6c0-0.4,0.3-0.7,0.7-0.7c0.2,0,0.4,0.1,0.5,0.2l4.5,5.6c0.1,0.2,0.4,0.3,0.6,0.3l6.5-1.2
		c0.6-0.1,1,0.6,0.7,1.2l-3.2,6.8c-0.1,0.2-0.1,0.5,0,0.8l3,6.9c0.3,0.6-0.2,1.3-0.8,1.2l-6.5-1.4c-0.2-0.1-0.5,0-0.6,0.2l-4.7,5.4
		C163.9,500,163.2,499.7,163.1,499z"/>
	
		<linearGradient id="SVGID_60_" gradientUnits="userSpaceOnUse" x1="2610.0347" y1="-1330.0063" x2="1498.2646" y2="-1330.0063" gradientTransform="matrix(0.4647 -0.8855 0.5852 0.3071 -165.4465 2769.6987)">
		<stop  offset="0" style="stop-color:#FFCF01;stop-opacity:0.6"/>
		<stop  offset="1" style="stop-color:#FFFD00;stop-opacity:0.2"/>
	</linearGradient>
	<path class="st60" d="M35.4,477.9l4.9,1.7c0.2,0.1,0.4,0,0.5-0.2l4.8-4.1c0.4-0.3,0.8-0.2,0.9,0.2c0,0.1,0.1,0.1,0,0.2l-0.9,6.3
		c0,0.2,0,0.5,0.2,0.5l3.9,3.3c0.2,0.1,0.3,0.5,0.1,0.8c-0.1,0.2-0.2,0.3-0.3,0.4l-5.4,2.3c-0.2,0-0.4,0.3-0.5,0.4l-2.3,6.1
		c-0.2,0.6-0.8,0.7-1,0.3l-2.5-4.9c-0.1-0.1-0.2-0.2-0.5-0.2l-5.4,0.5c-0.5,0.1-0.7-0.6-0.3-1.1l3.8-5.3c0.2-0.1,0.2-0.4,0.2-0.6
		l-1-5.8C34.4,478.3,34.9,477.7,35.4,477.9z"/>
	
		<linearGradient id="SVGID_61_" gradientUnits="userSpaceOnUse" x1="2681.7" y1="280.264" x2="1479.77" y2="280.264" gradientTransform="matrix(-1 0 0 -1 2635.0239 770.8264)">
		<stop  offset="0" style="stop-color:#FFCF01;stop-opacity:0.6"/>
		<stop  offset="1" style="stop-color:#FFFD00;stop-opacity:0.2"/>
	</linearGradient>
	<path class="st61" d="M466.7,502.9l-3.3-6.7c-0.1-0.2-0.3-0.4-0.6-0.4l-6.6-0.6c-0.5-0.1-0.8-0.6-0.6-1.1c0-0.1,0.1-0.2,0.2-0.3
		l4.4-5.7c0.2-0.2,0.2-0.5,0.2-0.8l-1.5-7.5c-0.1-0.7,0.4-1.2,1-1l6,3.1c0.2,0.1,0.5,0.1,0.7,0l5.6-4c0.5-0.4,1.2,0.1,1.1,0.8
		l-0.7,7.7c0,0.3,0.1,0.5,0.3,0.7l5,5c0.3,0.4,0.3,0.9,0,1.3c-0.1,0.1-0.2,0.1-0.3,0.2l-6.4,1.6c-0.2,0.1-0.4,0.3-0.5,0.5l-2.5,7.1
		c-0.1,0.4-0.5,0.6-0.8,0.5C466.9,503.2,466.8,503.1,466.7,502.9z"/>
	
		<linearGradient id="SVGID_62_" gradientUnits="userSpaceOnUse" x1="3066.6401" y1="389.2461" x2="1885.49" y2="389.2461" gradientTransform="matrix(-1 0 0 -1 2635.0239 770.8264)">
		<stop  offset="0" style="stop-color:#FFCF01;stop-opacity:0.6"/>
		<stop  offset="1" style="stop-color:#FFFD00;stop-opacity:0.2"/>
	</linearGradient>
	<path class="st62" d="M176,390.8l0.3-5.9c0-0.2-0.1-0.4-0.2-0.5l-4-3.6c-0.3-0.3-0.3-0.7,0-1c0.1-0.1,0.1-0.1,0.2-0.2l4.9-1.5
		c0.2-0.1,0.3-0.2,0.4-0.4l1.7-5.6c0-0.3,0.3-0.5,0.6-0.5c0.2,0,0.4,0.1,0.4,0.3l2.8,5c0.1,0.2,0.3,0.3,0.4,0.3l5.1,0.2
		c0.4,0.1,0.6,0.4,0.5,0.8c0,0.1,0,0.1-0.1,0.2l-3.2,4.6c-0.1,0.2-0.1,0.4-0.1,0.6l1.4,5.7c0.1,0.5-0.3,1-0.7,0.8l-4.7-2.1
		c-0.2-0.1-0.4,0-0.5,0.1l-4.2,3.4C176.5,391.6,176,391.3,176,390.8z"/>
	
		<linearGradient id="SVGID_63_" gradientUnits="userSpaceOnUse" x1="2083.8669" y1="487.7448" x2="902.7169" y2="487.7448" gradientTransform="matrix(7.393245e-02 0.9973 -0.9973 7.393245e-02 420.4296 -1122.2078)">
		<stop  offset="0" style="stop-color:#FFCF01;stop-opacity:0.6"/>
		<stop  offset="1" style="stop-color:#FFFD00;stop-opacity:0.2"/>
	</linearGradient>
	<path class="st63" d="M52.3,385.4l-5.9,0.1c-0.2,0-0.4,0.1-0.5,0.2l-3.3,4.3c-0.3,0.3-0.7,0.4-1,0.1c-0.1-0.1-0.1-0.1-0.2-0.2
		l-1.9-4.8c-0.1-0.2-0.2-0.3-0.4-0.4l-5.7-1.3c-0.3,0-0.5-0.3-0.5-0.6c0-0.2,0.1-0.4,0.3-0.4l4.8-3.2c0.2-0.1,0.3-0.3,0.3-0.4
		l-0.2-5.1c0.1-0.4,0.4-0.6,0.8-0.6c0.1,0,0.1,0,0.2,0.1l4.8,2.9c0.2,0.1,0.4,0.1,0.6,0.1l5.6-1.8c0.5-0.1,1,0.2,0.8,0.6l-1.7,4.8
		c-0.1,0.2,0,0.4,0.1,0.5l3.7,3.9C53.1,384.8,52.8,385.3,52.3,385.4z"/>
	
		<linearGradient id="SVGID_64_" gradientUnits="userSpaceOnUse" x1="2672.8801" y1="380.7468" x2="1523.08" y2="380.7468" gradientTransform="matrix(-1 0 0 -1 2635.0239 770.8264)">
		<stop  offset="0" style="stop-color:#FFCF01;stop-opacity:0.6"/>
		<stop  offset="1" style="stop-color:#FFFD00;stop-opacity:0.2"/>
	</linearGradient>
	<path class="st64" d="M543.7,394.7l-5.1-0.1c-0.2,0-0.4,0.1-0.5,0.3l-2.9,4.8c-0.1,0.3-0.4,0.4-0.7,0.3c-0.2-0.1-0.3-0.3-0.3-0.5
		l-1.5-5.7c0-0.2-0.2-0.4-0.4-0.4l-4.8-1.8c-0.3-0.2-0.5-0.6-0.3-0.9c0-0.1,0.1-0.2,0.2-0.2l4.1-3.4c0.2-0.1,0.2-0.3,0.2-0.5v-5.9
		c0-0.5,0.5-0.8,0.9-0.5l4,3.6c0.1,0.1,0.3,0.2,0.5,0.1l4.8-1.9c0.4-0.2,0.8,0.3,0.7,0.8l-1.7,5.6c-0.1,0.2,0,0.4,0.1,0.6l3,4.8
		C544.2,394.1,544.1,394.5,543.7,394.7C543.9,394.6,543.8,394.7,543.7,394.7z"/>
	
		<linearGradient id="SVGID_65_" gradientUnits="userSpaceOnUse" x1="3063.45" y1="328.0194" x2="1908.8201" y2="328.0194" gradientTransform="matrix(-1 0 0 -1 2635.0239 770.8264)">
		<stop  offset="0" style="stop-color:#FFCF01;stop-opacity:0.6"/>
		<stop  offset="1" style="stop-color:#FFFD00;stop-opacity:0.2"/>
	</linearGradient>
	<path class="st65" d="M120.9,457l-4.3-6.8c-0.1-0.2-0.4-0.4-0.7-0.4l-7.2,0.3c-0.5-0.1-0.9-0.6-0.8-1.1c0-0.1,0.1-0.3,0.1-0.4
		l4.2-7c0.2-0.3,0.2-0.6,0.1-0.8l-2.5-8c-0.2-0.7,0.3-1.4,1-1.2l6.9,2.5c0.2,0.1,0.5,0,0.7-0.2l5.6-5.2c0.5-0.5,1.3,0,1.3,0.7
		l0.1,8.5c0,0.3,0.1,0.6,0.3,0.8l6,4.7c0.4,0.4,0.5,1,0.1,1.4c-0.1,0.1-0.2,0.2-0.3,0.2l-6.8,2.7c-0.3,0.1-0.5,0.4-0.5,0.6l-2,8.2
		c-0.1,0.4-0.5,0.6-0.9,0.5C121.1,457.1,121,457.1,120.9,457z"/>
	
		<linearGradient id="SVGID_66_" gradientUnits="userSpaceOnUse" x1="2589.47" y1="406.5068" x2="1434.84" y2="406.5068" gradientTransform="matrix(-1 0 0 -1 2635.0239 770.8264)">
		<stop  offset="0" style="stop-color:#FFCF01;stop-opacity:0.6"/>
		<stop  offset="1" style="stop-color:#FFFD00;stop-opacity:0.2"/>
	</linearGradient>
	<path class="st66" d="M639.7,378.3l-4.3-6.8c-0.1-0.2-0.4-0.4-0.7-0.4l-7.2,0.3c-0.5-0.1-0.9-0.5-0.8-1c0-0.2,0.1-0.3,0.2-0.4
		l4.2-6.9c0.2-0.3,0.2-0.6,0.1-0.8l-2.5-8c-0.2-0.7,0.3-1.4,1-1.2l6.9,2.5c0.3,0.1,0.5,0,0.7-0.2l5.7-5.3c0.5-0.5,1.3,0,1.3,0.7
		l0.1,8.5c0,0.3,0.1,0.6,0.3,0.8l6,4.7c0.4,0.4,0.5,1,0.1,1.4c-0.1,0.1-0.2,0.2-0.3,0.2l-6.8,2.8c-0.3,0.1-0.4,0.3-0.5,0.6l-2,8.2
		c0,0.4-0.4,0.7-0.8,0.7C640.1,378.6,639.8,378.5,639.7,378.3z"/>
	
		<linearGradient id="SVGID_67_" gradientUnits="userSpaceOnUse" x1="2891.4199" y1="389.3155" x2="1724.98" y2="389.3155" gradientTransform="matrix(-1 0 0 -1 2635.0239 770.8264)">
		<stop  offset="0" style="stop-color:#FFCF01;stop-opacity:0.6"/>
		<stop  offset="1" style="stop-color:#FFFD00;stop-opacity:0.2"/>
	</linearGradient>
	<path class="st67" d="M332.6,385.1l3-4.8c0.1-0.2,0.1-0.4,0.1-0.6l-1.6-5.6c-0.2-0.5,0.3-1,0.7-0.8l4.8,1.9c0.2,0.1,0.4,0,0.5-0.1
		l4.1-3.5c0.4-0.3,0.9,0,0.9,0.5L345,378c0,0.2,0.1,0.4,0.2,0.5l4.1,3.4c0.3,0.3,0.3,0.7,0,1c-0.1,0.1-0.1,0.1-0.2,0.2l-4.8,1.8
		c-0.2,0.1-0.3,0.2-0.4,0.4l-1.5,5.7c0,0.3-0.3,0.5-0.5,0.5s-0.4-0.1-0.5-0.3l-2.9-4.9c-0.1-0.2-0.3-0.3-0.5-0.3l-5.1,0.1
		c-0.4-0.1-0.6-0.4-0.5-0.8C332.5,385.3,332.5,385.2,332.6,385.1z"/>
	
		<linearGradient id="SVGID_68_" gradientUnits="userSpaceOnUse" x1="2720.2976" y1="-13.3943" x2="1557.9277" y2="-13.3943" gradientTransform="matrix(-1 0 0 -1 2635.0239 770.8264)">
		<stop  offset="0" style="stop-color:#FFCF01;stop-opacity:0.6"/>
		<stop  offset="1" style="stop-color:#FFFD00;stop-opacity:0.2"/>
	</linearGradient>
	<path class="st68" d="M164,823.7l0.1-25c0-0.9-0.4-1.7-1-2.2l-17.5-14.3c-1.2-1.1-1.3-2.9-0.3-4.1c0.2-0.3,0.6-0.5,0.9-0.7
		l20.3-7.6c0.8-0.3,1.3-1,1.5-1.8l6.2-24c0.6-2.2,3-2.6,4.1-0.8l12.5,20.3c0.4,0.7,1.1,1.1,1.9,1.1l21.3-0.5c1.9,0,3,2.5,1.9,4.3
		l-12.6,20.2c-0.5,0.7-0.6,1.7-0.3,2.5l7,23.6c0.6,2.1-1.1,4.2-2.9,3.5l-20.3-7.8c-0.7-0.3-1.6-0.1-2.1,0.4l-17,15.1
		C166.1,827.2,163.9,825.9,164,823.7z"/>
	
		<linearGradient id="SVGID_69_" gradientUnits="userSpaceOnUse" x1="2607.4644" y1="-84.2702" x2="1445.1044" y2="-84.2702" gradientTransform="matrix(-1.1127 0.3761 -0.3202 -0.9473 2651.4197 51.15)">
		<stop  offset="0" style="stop-color:#FFCF01;stop-opacity:0.6"/>
		<stop  offset="1" style="stop-color:#FFFD00;stop-opacity:0.2"/>
	</linearGradient>
	<path class="st69" d="M67.1,1055.3l-7.9-23.7c-0.3-0.9-0.9-1.5-1.8-1.7l-24.1-7.1c-1.7-0.6-2.4-2.3-1.6-3.8c0.2-0.4,0.5-0.7,0.8-1
		l20.2-14.8c0.8-0.6,1.1-1.4,1.1-2.3L53,975.8c0-2.2,2.5-3.6,4.3-2.3L77.7,988c0.7,0.5,1.6,0.6,2.5,0.3l23.5-8.5
		c2.1-0.7,4.1,1.2,3.5,3.4l-7.6,23.9c-0.3,0.9-0.1,1.8,0.5,2.5l15.4,19.8c1.3,1.8,0.1,4.4-2.1,4.4l-25.1,0.2c-0.9,0-1.8,0.5-2.2,1.2
		L71.9,1056C70.6,1057.8,67.8,1057.4,67.1,1055.3z"/>
	
		<linearGradient id="SVGID_70_" gradientUnits="userSpaceOnUse" x1="2371.8293" y1="-66.1554" x2="1194.7294" y2="-66.1554" gradientTransform="matrix(-1 0 0 -1 2635.0239 770.8264)">
		<stop  offset="0" style="stop-color:#FFCF01;stop-opacity:0.6"/>
		<stop  offset="1" style="stop-color:#FFFD00;stop-opacity:0.2"/>
	</linearGradient>
	<path class="st70" d="M445,877.9l6-28.8c0.2-1,0-2.1-0.6-2.9l-16.8-22.1c-1.5-2-0.4-5.1,1.8-5.3l25.2-2.2c0.9-0.1,1.8-0.7,2.2-1.6
		l12.7-25.6c0.5-1.3,2-2,3.4-1.4c0.8,0.3,1.3,1,1.5,1.8l9.6,27.5c0.3,0.9,1.1,1.7,2,1.9l24.7,6.3c2.2,0.6,2.9,3.9,1.2,5.6
		l-19.3,19.2c-0.7,0.7-1.1,1.8-1,2.8l2.5,29.5c0.2,2.6-2.2,4.5-4.2,3.1l-21.5-15.9c-0.7-0.6-1.7-0.6-2.5-0.2l-23.1,12
		C446.7,882.6,444.4,880.4,445,877.9z"/>
	
		<linearGradient id="SVGID_71_" gradientUnits="userSpaceOnUse" x1="2570.6194" y1="-78.9682" x2="1368.5295" y2="-78.9682" gradientTransform="matrix(-1 0 0 -1 2635.0239 770.8264)">
		<stop  offset="0" style="stop-color:#FFCF01;stop-opacity:0.6"/>
		<stop  offset="1" style="stop-color:#FFFD00;stop-opacity:0.2"/>
	</linearGradient>
	<path class="st71" d="M332.5,863.2l-25,4.6c-0.9,0.2-1.7,0.9-2,1.8l-10.9,26.8c-0.4,1.4-1.9,2.1-3.2,1.7c-0.8-0.2-1.4-0.9-1.7-1.6
		l-11.5-26.4c-0.4-0.9-1.1-1.6-2.1-1.7l-25.1-3.9c-2.3-0.3-3.2-3.6-1.6-5.5l17.9-21c0.7-0.8,0.9-1.8,0.8-2.9l-4.6-29.2
		c-0.4-2.6,1.9-4.7,3.9-3.5l22.5,13.5c0.8,0.5,1.8,0.5,2.6,0l22.2-14.1c2-1.3,4.4,0.7,4,3.3l-4,29.3c-0.2,1,0.1,2,0.8,2.8l18.3,20.4
		C335.6,859.5,334.7,862.8,332.5,863.2z"/>
	
		<linearGradient id="SVGID_72_" gradientUnits="userSpaceOnUse" x1="2467.3499" y1="257.3672" x2="1302.7" y2="257.3672" gradientTransform="matrix(-1 0 0 -1 2635.0239 770.8264)">
		<stop  offset="0" style="stop-color:#FFCF01;stop-opacity:0.6"/>
		<stop  offset="1" style="stop-color:#FFFD00;stop-opacity:0.2"/>
	</linearGradient>
	<path class="st72" d="M630,533.5l0.1-12.8c0-0.4-0.2-0.9-0.5-1.1l-8.9-7.3c-0.6-0.5-0.7-1.5-0.1-2.1c0.1-0.2,0.3-0.3,0.5-0.4
		l10.4-3.8c0.4-0.2,0.7-0.5,0.8-0.9l3.2-12.2c0.1-0.6,0.6-1,1.2-1c0.4,0,0.7,0.3,0.8,0.6l6.3,10.4c0.2,0.4,0.6,0.6,1,0.6l10.9-0.2
		c0.8,0.1,1.3,0.8,1.2,1.6c0,0.2-0.1,0.5-0.2,0.7l-6.5,10.2c-0.2,0.4-0.3,0.8-0.2,1.3l3.5,12.1c0.3,1.1-0.6,2.1-1.5,1.8l-10.3-4.1
		c-0.4-0.2-0.8-0.1-1.1,0.2l-8.7,7.7C631.1,535.3,630,534.7,630,533.5z"/>
</g>
<linearGradient id="SVGID_73_" gradientUnits="userSpaceOnUse" x1="934.4515" y1="117.6339" x2="-258.1884" y2="117.6339" gradientTransform="matrix(1 0 0 1 0 920)">
	<stop  offset="0" style="stop-color:#FFCF01;stop-opacity:0.6"/>
	<stop  offset="1" style="stop-color:#FFFD00;stop-opacity:0.2"/>
</linearGradient>
<path class="st73" d="M102.1,1046.2l0.9-5.8c0-0.2,0-0.4-0.1-0.6l-3.6-4.2c-0.2-0.3-0.2-0.7,0.1-0.9c0.1-0.1,0.2-0.1,0.3-0.1l5-0.8
	c0.2,0,0.3-0.2,0.4-0.3l2.3-5.3c0.1-0.3,0.3-0.5,0.6-0.4c0.2,0,0.4,0.2,0.4,0.4l2.2,5.4c0.1,0.2,0.2,0.3,0.4,0.4l5,1
	c0.4,0.1,0.6,0.5,0.5,0.9c0,0.1-0.1,0.2-0.2,0.3l-3.7,4c-0.1,0.2-0.2,0.4-0.2,0.6l0.8,5.9c0.1,0.5-0.4,0.9-0.8,0.7l-4.4-2.8
	c-0.2-0.1-0.4-0.1-0.5,0l-4.5,2.7C102.5,1047.2,102,1046.7,102.1,1046.2z"/>
<linearGradient id="SVGID_74_" gradientUnits="userSpaceOnUse" x1="936.3018" y1="102.8664" x2="-176.1782" y2="102.8664" gradientTransform="matrix(1 0 0 1 0 920)">
	<stop  offset="0" style="stop-color:#FFCF01;stop-opacity:0.6"/>
	<stop  offset="1" style="stop-color:#FFFD00;stop-opacity:0.2"/>
</linearGradient>
<path class="st74" d="M250.5,1032.8l-3.6-4.2c-0.1-0.1-0.3-0.2-0.5-0.2l-5,1.2c-0.5,0.1-0.8-0.4-0.6-0.9l2.2-5.3
	c0.1-0.2,0.1-0.4,0-0.6l-2.5-5.2c-0.2-0.5,0.1-1,0.5-1l5,0.9c0.2,0,0.4-0.1,0.5-0.2l3.4-4.4c0.2-0.2,0.5-0.3,0.7-0.1
	c0.1,0.1,0.2,0.2,0.2,0.4l0.9,5.8c0,0.2,0.1,0.4,0.3,0.5l4.6,2.5c0.3,0.2,0.4,0.6,0.2,1c-0.1,0.1-0.1,0.1-0.2,0.2l-4.5,2.8
	c-0.2,0.1-0.3,0.3-0.3,0.5l-0.6,5.9c0,0.3-0.2,0.5-0.5,0.6C250.7,1032.9,250.6,1032.9,250.5,1032.8z"/>
<linearGradient id="SVGID_75_" gradientUnits="userSpaceOnUse" x1="1317.4838" y1="55.1751" x2="207.1937" y2="55.1751" gradientTransform="matrix(1 0 0 1 0 920)">
	<stop  offset="0" style="stop-color:#FFCF01;stop-opacity:0.6"/>
	<stop  offset="1" style="stop-color:#FFFD00;stop-opacity:0.2"/>
</linearGradient>
<path class="st75" d="M654.8,981.5l-5-0.9c-0.2,0-0.4,0-0.5,0.2l-3.5,4.3c-0.2,0.2-0.5,0.3-0.7,0.1c-0.1-0.1-0.2-0.3-0.2-0.4
	l-0.8-5.9c0-0.2-0.1-0.4-0.3-0.5l-4.6-2.5c-0.3-0.2-0.4-0.7-0.2-1c0.1-0.1,0.1-0.1,0.2-0.2l4.5-2.7c0.2-0.1,0.3-0.3,0.3-0.5l0.6-5.9
	c0-0.3,0.2-0.5,0.5-0.6c0.2,0,0.3,0.1,0.4,0.2l3.6,4.2c0.1,0.1,0.3,0.2,0.5,0.2l5-1.1c0.5-0.1,0.8,0.4,0.6,0.9l-2.3,5.3
	c-0.1,0.2-0.1,0.4,0,0.6l2.4,5.2C655.6,981,655.2,981.6,654.8,981.5z"/>
<linearGradient id="SVGID_76_" gradientUnits="userSpaceOnUse" x1="1355.9418" y1="-145.6303" x2="151.7418" y2="-145.6303" gradientTransform="matrix(1 0 0 1 0 920)">
	<stop  offset="0" style="stop-color:#FFCF01;stop-opacity:0.6"/>
	<stop  offset="1" style="stop-color:#FFFD00;stop-opacity:0.2"/>
</linearGradient>
<path class="st76" d="M630.5,776.1l3.6-4.2c0.1-0.2,0.2-0.4,0.1-0.6l-1-5.8c-0.1-0.5,0.4-0.9,0.8-0.7l4.5,2.7c0.2,0.1,0.4,0.1,0.5,0
	l4.4-2.9c0.4-0.3,0.9,0.1,0.8,0.7l-0.8,5.9c0,0.2,0,0.4,0.2,0.6l3.7,4.1c0.3,0.3,0.2,0.7-0.1,1c-0.1,0.1-0.1,0.1-0.2,0.1l-5,1
	c-0.2,0-0.3,0.2-0.4,0.4l-2.1,5.4c-0.1,0.3-0.4,0.4-0.6,0.4s-0.3-0.2-0.4-0.4l-2.3-5.3c-0.1-0.2-0.2-0.3-0.4-0.3l-5-0.7
	c-0.4-0.1-0.6-0.4-0.5-0.8C630.3,776.3,630.4,776.2,630.5,776.1z"/>
<linearGradient id="SVGID_77_" gradientUnits="userSpaceOnUse" x1="1933.7891" y1="-86.3796" x2="274.402" y2="-86.3796" gradientTransform="matrix(1 0 0 1 0 920)">
	<stop  offset="0" style="stop-color:#FFCF01;stop-opacity:0.6"/>
	<stop  offset="1" style="stop-color:#FFFD00;stop-opacity:0.2"/>
</linearGradient>
<path class="st77" d="M967.3,842.5l-3.4-4.9c-0.1-0.2-0.3-0.3-0.5-0.3l-6.9-0.5c-0.5-0.1-0.8-0.5-0.7-0.8c0-0.1,0.1-0.2,0.1-0.3
	l4.7-4.1c0.1-0.2,0.3-0.4,0.1-0.6l-1.5-5.5c-0.1-0.5,0.4-0.9,1.1-0.7l6.3,2.3c0.3,0.1,0.5,0.1,0.7,0l5.9-2.8
	c0.5-0.3,1.2,0.1,1.1,0.6l-0.8,5.5c0,0.2,0,0.4,0.3,0.6l5.2,3.7c0.4,0.3,0.4,0.7,0,0.9c-0.1,0.1-0.1,0.1-0.3,0.1l-6.9,1.1
	c-0.3,0.1-0.4,0.2-0.5,0.4l-2.7,5.2c-0.1,0.3-0.5,0.4-1,0.2C967.5,842.6,967.4,842.5,967.3,842.5z"/>
<linearGradient id="SVGID_78_" gradientUnits="userSpaceOnUse" x1="2214.813" y1="80.1786" x2="398.0161" y2="80.1786" gradientTransform="matrix(1 0 0 1 0 920)">
	<stop  offset="0" style="stop-color:#FFCF01;stop-opacity:0.6"/>
	<stop  offset="1" style="stop-color:#FFFD00;stop-opacity:0.2"/>
</linearGradient>
<path class="st78" d="M855.8,1014.2l-3.8-7.8c-0.2-0.3-0.3-0.5-0.6-0.5l-7.5-0.8c-0.6-0.2-0.9-0.6-0.8-1.2c0-0.2,0.2-0.3,0.2-0.5
	l5.1-6.6c0.2-0.3,0.3-0.6,0.2-0.9l-1.7-8.7c-0.2-0.8,0.5-1.5,1.2-1.1l6.9,3.8c0.3,0.2,0.6,0.2,0.8,0l6.5-4.5
	c0.6-0.5,1.4,0.2,1.2,0.9l-0.9,8.9c0,0.3,0,0.6,0.3,0.9l5.7,5.9c0.5,0.5,0.5,1.1,0,1.5c-0.2,0.2-0.2,0.2-0.3,0.2l-7.5,1.8
	c-0.3,0.2-0.5,0.3-0.6,0.6l-3,8.3c-0.2,0.5-0.5,0.8-0.9,0.6C855.9,1014.7,855.8,1014.5,855.8,1014.2z"/>
<linearGradient id="SVGID_79_" gradientUnits="userSpaceOnUse" x1="1737.8268" y1="-144.0715" x2="606.6268" y2="-144.0715" gradientTransform="matrix(1 0 0 1 0 920)">
	<stop  offset="0" style="stop-color:#FFCF01;stop-opacity:0.6"/>
	<stop  offset="1" style="stop-color:#FFFD00;stop-opacity:0.2"/>
</linearGradient>
<path class="st79" d="M1086.4,775.9l-4.3,3.1c-0.2,0.1-0.3,0.3-0.3,0.5l-0.3,5.9c0,0.5-0.6,0.8-0.9,0.5l-3.8-3.9
	c-0.1-0.1-0.3-0.2-0.5-0.1l-4.9,1.5c-0.4,0.1-0.8-0.4-0.7-0.9l2-5.5c0.1-0.2,0.1-0.4,0-0.6l-2.8-5c-0.2-0.3-0.1-0.7,0.2-0.9
	c0.1-0.1,0.2-0.1,0.3-0.1l5,0.5c0.2,0,0.4-0.1,0.5-0.2l3.2-4.6c0.1-0.3,0.5-0.4,0.7-0.2c0.2,0.1,0.3,0.3,0.3,0.5l1.2,5.8
	c0,0.2,0.2,0.4,0.3,0.5l4.7,2.1c0.3,0.2,0.5,0.6,0.3,0.9C1086.5,775.7,1086.5,775.8,1086.4,775.9z"/>
<linearGradient id="SVGID_80_" gradientUnits="userSpaceOnUse" x1="2381.7007" y1="-50.4603" x2="769.7556" y2="-50.4603" gradientTransform="matrix(1 0 0 1 0 920)">
	<stop  offset="0" style="stop-color:#FFCF01;stop-opacity:0.6"/>
	<stop  offset="1" style="stop-color:#FFFD00;stop-opacity:0.2"/>
</linearGradient>
<path class="st80" d="M1309,881.9l0.5-8c0-0.3-0.1-0.5-0.3-0.7l-5.3-5c-0.4-0.4-0.4-0.9,0-1.4c0.1-0.1,0.1-0.1,0.3-0.3l6.6-1.9
	c0.3-0.1,0.4-0.3,0.5-0.5l2.4-7.4c0-0.4,0.4-0.7,0.8-0.5c0.3,0,0.4,0.3,0.5,0.4l3.5,6.9c0.1,0.3,0.4,0.4,0.5,0.4l6.9,0.4
	c0.5,0.1,0.8,0.5,0.7,1.1c0,0.1-0.1,0.3-0.1,0.4l-4.5,6.1c-0.1,0.3-0.3,0.5-0.1,0.8l1.8,7.7c0.1,0.7-0.4,1.4-0.9,1.1l-6.4-3.1
	c-0.3-0.1-0.5-0.1-0.7,0l-5.7,4.5C1309.7,883,1309,882.6,1309,881.9z"/>
<linearGradient id="SVGID_81_" gradientUnits="userSpaceOnUse" x1="1252.8192" y1="-38.9865" x2="-533.1509" y2="-38.9865" gradientTransform="matrix(1 0 0 1 0 920)">
	<stop  offset="0" style="stop-color:#FFCF01;stop-opacity:0.6"/>
	<stop  offset="1" style="stop-color:#FFFD00;stop-opacity:0.2"/>
</linearGradient>
<path class="st81" d="M168.2,867l-0.5,8.9c0,0.3,0.2,0.6,0.3,0.8l6,5.4c0.5,0.5,0.5,1.1,0,1.5c-0.2,0.2-0.2,0.2-0.3,0.3l-7.3,2.4
	c-0.3,0.2-0.5,0.3-0.6,0.6l-2.6,8.5c0,0.5-0.5,0.8-0.9,0.8c-0.3,0-0.6-0.2-0.6-0.5l-4.2-7.6c-0.2-0.3-0.5-0.5-0.6-0.5l-7.7-0.3
	c-0.6-0.2-0.9-0.6-0.8-1.2c0-0.2,0.2-0.3,0.2-0.5l4.8-7c0.2-0.3,0.3-0.6,0.2-0.9l-2.1-8.6c-0.2-0.8,0.5-1.5,1.1-1.2l7.1,3.2
	c0.3,0.2,0.6,0,0.8-0.2l6.4-5.1C167.4,865.6,168.2,866.2,168.2,867z"/>
<linearGradient id="SVGID_82_" gradientUnits="userSpaceOnUse" x1="1423.5073" y1="-8.5591" x2="-384.0257" y2="-8.5591" gradientTransform="matrix(1 0 0 1 0 920)">
	<stop  offset="0" style="stop-color:#FFCF01;stop-opacity:0.6"/>
	<stop  offset="1" style="stop-color:#FFFD00;stop-opacity:0.2"/>
</linearGradient>
<path class="st82" d="M410.8,897.3l-0.5,9c0,0.3,0.2,0.6,0.3,0.8l6.1,5.5c0.5,0.5,0.5,1.1,0,1.5c-0.2,0.2-0.2,0.2-0.3,0.3l-7.5,2.3
	c-0.3,0.2-0.5,0.3-0.6,0.6l-2.6,8.6c0,0.5-0.5,0.8-0.9,0.8c-0.3,0-0.6-0.2-0.6-0.5l-4.3-7.7c-0.2-0.3-0.5-0.5-0.6-0.5l-7.7-0.2
	c-0.6-0.2-0.9-0.6-0.8-1.2c0-0.2,0.2-0.3,0.2-0.5l4.9-7c0.2-0.3,0.2-0.6,0.2-0.9l-2.1-8.7c-0.2-0.8,0.5-1.5,1.1-1.2l7.2,3.2
	c0.3,0.2,0.6,0,0.8-0.2l6.4-5.2C410.1,895.9,410.8,896.6,410.8,897.3z"/>
<linearGradient id="SVGID_83_" gradientUnits="userSpaceOnUse" x1="658.6542" y1="-184.4214" x2="-491.1459" y2="-184.4214" gradientTransform="matrix(1 0 0 1 0 920)">
	<stop  offset="0" style="stop-color:#FFCF01;stop-opacity:0.6"/>
	<stop  offset="1" style="stop-color:#FFFD00;stop-opacity:0.2"/>
</linearGradient>
<path class="st83" d="M24.8,730.9l5.1,0.1c0.2,0,0.4-0.1,0.5-0.3l2.9-4.8c0.1-0.3,0.5-0.4,0.7-0.2c0.2,0.1,0.3,0.2,0.3,0.4l1.5,5.7
	c0,0.2,0.2,0.4,0.4,0.4L41,734c0.3,0.2,0.5,0.6,0.3,0.9c0,0.1-0.1,0.2-0.2,0.2l-4.1,3.4c-0.2,0.1-0.2,0.3-0.2,0.5l0.1,5.9
	c0,0.5-0.5,0.8-0.9,0.5l-4-3.6c-0.1-0.1-0.3-0.2-0.5-0.1l-4.8,1.9c-0.4,0.2-0.8-0.3-0.7-0.8l1.6-5.6c0.1-0.2,0-0.4-0.1-0.6l-3-4.8
	c-0.2-0.3-0.1-0.7,0.1-0.9C24.6,730.9,24.7,730.9,24.8,730.9z"/>
<linearGradient id="SVGID_84_" gradientUnits="userSpaceOnUse" x1="1926.7029" y1="117.6305" x2="760.2629" y2="117.6305" gradientTransform="matrix(1 0 0 1 0 920)">
	<stop  offset="0" style="stop-color:#FFCF01;stop-opacity:0.6"/>
	<stop  offset="1" style="stop-color:#FFFD00;stop-opacity:0.2"/>
</linearGradient>
<path class="st84" d="M1051.1,1034l-3,4.8c-0.1,0.2-0.1,0.4-0.1,0.6l1.6,5.6c0.1,0.5-0.3,1-0.7,0.8l-4.8-1.9c-0.2-0.1-0.4,0-0.5,0.1
	l-4.1,3.5c-0.4,0.3-0.9,0-0.9-0.5l0.1-5.9c0-0.2-0.1-0.4-0.2-0.5l-4.1-3.4c-0.3-0.3-0.3-0.7-0.1-1c0.1-0.1,0.1-0.1,0.2-0.2l4.8-1.8
	c0.2-0.1,0.3-0.2,0.4-0.4l1.5-5.7c0-0.3,0.3-0.5,0.6-0.5c0.2,0,0.3,0.1,0.4,0.3l2.9,4.9c0.1,0.2,0.3,0.3,0.5,0.3l5.1-0.1
	c0.4,0.1,0.6,0.4,0.5,0.8C1051.2,1033.8,1051.2,1033.9,1051.1,1034z"/>
</svg>
