<?xml version="1.0" encoding="utf-8"?>
<!-- Generator: Adobe Illustrator 22.1.0, SVG Export Plug-In . SVG Version: 6.00 Build 0)  -->
<svg version="1.1" id="Layer_1" xmlns="http://www.w3.org/2000/svg" xmlns:xlink="http://www.w3.org/1999/xlink" x="0px" y="0px"
	 viewBox="0 0 1353 1080" style="enable-background:new 0 0 1353 1080;" xml:space="preserve">
<style type="text/css">
	.st0{opacity:0.4;}
	.st1{fill:url(#SVGID_1_);}
	.st2{fill:url(#SVGID_2_);}
	.st3{fill:url(#SVGID_3_);}
	.st4{fill:url(#SVGID_4_);}
	.st5{fill:url(#SVGID_5_);}
	.st6{fill:url(#SVGID_6_);}
	.st7{fill:url(#SVGID_7_);}
	.st8{fill:url(#SVGID_8_);}
	.st9{fill:url(#SVGID_9_);}
	.st10{fill:url(#SVGID_10_);}
	.st11{fill:url(#SVGID_11_);}
	.st12{fill:url(#SVGID_12_);}
	.st13{fill:url(#SVGID_13_);}
	.st14{fill:url(#SVGID_14_);}
	.st15{fill:url(#SVGID_15_);}
	.st16{fill:url(#SVGID_16_);}
	.st17{fill:url(#SVGID_17_);}
	.st18{fill:url(#SVGID_18_);}
	.st19{fill:url(#SVGID_19_);}
	.st20{fill:url(#SVGID_20_);}
	.st21{fill:url(#SVGID_21_);}
	.st22{fill:url(#SVGID_22_);}
	.st23{fill:url(#SVGID_23_);}
	.st24{fill:url(#SVGID_24_);}
	.st25{fill:url(#SVGID_25_);}
	.st26{fill:url(#SVGID_26_);}
	.st27{fill:url(#SVGID_27_);}
	.st28{fill:url(#SVGID_28_);}
	.st29{fill:url(#SVGID_29_);}
	.st30{fill:url(#SVGID_30_);}
	.st31{fill:url(#SVGID_31_);}
	.st32{fill:url(#SVGID_32_);}
	.st33{fill:url(#SVGID_33_);}
	.st34{fill:url(#SVGID_34_);}
	.st35{fill:url(#SVGID_35_);}
	.st36{fill:url(#SVGID_36_);}
	.st37{fill:url(#SVGID_37_);}
	.st38{fill:url(#SVGID_38_);}
	.st39{fill:url(#SVGID_39_);}
	.st40{fill:url(#SVGID_40_);}
	.st41{fill:url(#SVGID_41_);}
	.st42{fill:url(#SVGID_42_);}
	.st43{fill:url(#SVGID_43_);}
	.st44{fill:url(#SVGID_44_);}
	.st45{fill:url(#SVGID_45_);}
	.st46{fill:url(#SVGID_46_);}
	.st47{fill:url(#SVGID_47_);}
	.st48{fill:url(#SVGID_48_);}
	.st49{fill:url(#SVGID_49_);}
	.st50{fill:url(#SVGID_50_);}
	.st51{fill:url(#SVGID_51_);}
	.st52{fill:url(#SVGID_52_);}
	.st53{fill:url(#SVGID_53_);}
	.st54{fill:url(#SVGID_54_);}
	.st55{fill:url(#SVGID_55_);}
	.st56{fill:url(#SVGID_56_);}
	.st57{fill:url(#SVGID_57_);}
	.st58{fill:url(#SVGID_58_);}
	.st59{fill:url(#SVGID_59_);}
	.st60{fill:url(#SVGID_60_);}
	.st61{fill:url(#SVGID_61_);}
	.st62{fill:url(#SVGID_62_);}
	.st63{fill:url(#SVGID_63_);}
	.st64{fill:url(#SVGID_64_);}
	.st65{fill:url(#SVGID_65_);}
	.st66{fill:url(#SVGID_66_);}
	.st67{fill:url(#SVGID_67_);}
	.st68{fill:url(#SVGID_68_);}
	.st69{fill:url(#SVGID_69_);}
	.st70{fill:url(#SVGID_70_);}
	.st71{fill:url(#SVGID_71_);}
	.st72{fill:url(#SVGID_72_);}
	.st73{opacity:0.4;fill:url(#SVGID_73_);enable-background:new    ;}
	.st74{opacity:0.4;fill:url(#SVGID_74_);enable-background:new    ;}
	.st75{opacity:0.4;fill:url(#SVGID_75_);enable-background:new    ;}
	.st76{opacity:0.4;fill:url(#SVGID_76_);enable-background:new    ;}
	.st77{opacity:0.4;fill:url(#SVGID_77_);enable-background:new    ;}
	.st78{opacity:0.4;fill:url(#SVGID_78_);enable-background:new    ;}
	.st79{opacity:0.4;fill:url(#SVGID_79_);enable-background:new    ;}
	.st80{opacity:0.4;fill:url(#SVGID_80_);enable-background:new    ;}
	.st81{opacity:0.4;fill:url(#SVGID_81_);enable-background:new    ;}
	.st82{opacity:0.4;fill:url(#SVGID_82_);enable-background:new    ;}
	.st83{opacity:0.4;fill:url(#SVGID_83_);enable-background:new    ;}
	.st84{opacity:0.4;fill:url(#SVGID_84_);enable-background:new    ;}
</style>
<title>starbg2</title>
<g class="st0">
	
		<linearGradient id="SVGID_1_" gradientUnits="userSpaceOnUse" x1="642.44" y1="1035.4736" x2="-499.78" y2="1035.4736" gradientTransform="matrix(-1 0 0 1 1497.0238 -309.1736)">
		<stop  offset="0" style="stop-color:#2AFFE4;stop-opacity:0.6"/>
		<stop  offset="1" style="stop-color:#94FDFF;stop-opacity:0.2"/>
	</linearGradient>
	<path class="st1" d="M1128.8,762.6l-11.7-17.1c-0.4-0.6-1-0.9-1.7-0.9l-18.7,1.6c-1.7,0.1-2.8-2-1.8-3.7l10.3-18.3
		c0.4-0.7,0.4-1.5,0.2-2.2l-7-20.3c-0.6-1.8,0.8-3.7,2.4-3.2l18,5.8c0.7,0.2,1.4,0,1.8-0.5l14.3-14.1c1.3-1.3,3.3-0.3,3.3,1.7
		l0.9,21.9c0,0.8,0.4,1.5,1,1.9l15.8,11.6c1.1,0.9,1.3,2.5,0.4,3.6c-0.2,0.3-0.5,0.5-0.7,0.6l-17.5,7.8c-0.7,0.3-1.1,0.9-1.3,1.7
		l-4.5,21.3C1132,763.6,1129.9,764.1,1128.8,762.6z"/>
	
		<linearGradient id="SVGID_2_" gradientUnits="userSpaceOnUse" x1="784.87" y1="1053.8253" x2="-377.5" y2="1053.8253" gradientTransform="matrix(-1 0 0 1 1497.0238 -309.1736)">
		<stop  offset="0" style="stop-color:#2AFFE4;stop-opacity:0.6"/>
		<stop  offset="1" style="stop-color:#94FDFF;stop-opacity:0.2"/>
	</linearGradient>
	<path class="st2" d="M964.7,779.4l0.1-22c0-0.8-0.3-1.5-0.9-2l-15.4-12.6c-1.1-0.9-1.2-2.6-0.2-3.6c0.2-0.2,0.5-0.5,0.8-0.6
		l17.9-6.7c0.7-0.3,1.2-0.9,1.3-1.6l5.4-21.1c0.5-1.9,2.6-2.3,3.6-0.7l11,17.9c0.4,0.6,1,1,1.7,1l18.8-0.5c1.7,0,2.7,2.2,1.7,3.8
		l-11.1,17.7c-0.4,0.7-0.5,1.4-0.3,2.2l6.2,20.8c0.6,1.9-1,3.7-2.5,3l-17.8-6.8c-0.6-0.2-1.4-0.1-1.9,0.4L968,781.3
		C966.6,782.5,964.7,781.4,964.7,779.4z"/>
	
		<linearGradient id="SVGID_3_" gradientUnits="userSpaceOnUse" x1="795.2" y1="965.6967" x2="-371.1" y2="965.6967" gradientTransform="matrix(-1 0 0 1 1497.0238 -309.1736)">
		<stop  offset="0" style="stop-color:#2AFFE4;stop-opacity:0.6"/>
		<stop  offset="1" style="stop-color:#94FDFF;stop-opacity:0.2"/>
	</linearGradient>
	<path class="st3" d="M1031,683.7l0.2-17.3c0-0.6-0.2-1.2-0.7-1.6l-12-10c-0.8-0.7-0.9-2-0.2-2.8c0.2-0.2,0.4-0.4,0.7-0.5l14.1-5.1
		c0.5-0.2,0.9-0.7,1.1-1.2l4.4-16.5c0.1-0.8,0.9-1.4,1.7-1.3c0.5,0.1,0.9,0.4,1.1,0.8l8.5,14.2c0.3,0.5,0.8,0.8,1.3,0.8l14.8-0.2
		c1.3,0,2.1,1.8,1.3,3l-8.8,13.8c-0.3,0.5-0.4,1.1-0.2,1.7l4.7,16.4c0.4,1.5-0.8,2.9-2,2.4l-14-5.6c-0.5-0.2-1.1-0.1-1.5,0.3
		l-11.9,10.3C1032.6,686.2,1031,685.3,1031,683.7z"/>
	
		<linearGradient id="SVGID_4_" gradientUnits="userSpaceOnUse" x1="942.82" y1="946.4924" x2="-253.71" y2="946.4924" gradientTransform="matrix(-1 0 0 1 1497.0238 -309.1736)">
		<stop  offset="0" style="stop-color:#2AFFE4;stop-opacity:0.6"/>
		<stop  offset="1" style="stop-color:#94FDFF;stop-opacity:0.2"/>
	</linearGradient>
	<path class="st4" d="M942.1,663.2l-13.6-6.8c-0.5-0.3-1.1-0.2-1.5,0.1l-12.5,9.3c-1.1,0.8-2.6-0.2-2.5-1.8l1.3-17.3
		c0.1-0.6-0.1-1.2-0.6-1.6L901.3,634c-0.8-0.8-0.8-2,0-2.8c0.2-0.2,0.4-0.3,0.7-0.5l14.4-3.8c0.5-0.2,1-0.6,1.1-1.1l5.5-16.1
		c0.2-0.8,1-1.3,1.8-1.1c0.5,0.1,0.9,0.4,1.1,0.9l7.6,14.9c0.2,0.5,0.7,0.9,1.3,0.9l14.7,1.1c1.3,0.1,2,1.9,1.1,3.1l-9.7,13
		c-0.3,0.5-0.5,1.1-0.3,1.7l3.6,16.8C944.6,662.6,943.3,663.9,942.1,663.2z"/>
	
		<linearGradient id="SVGID_5_" gradientUnits="userSpaceOnUse" x1="935.11" y1="1019.7289" x2="-197.88" y2="1019.7289" gradientTransform="matrix(-1 0 0 1 1497.0238 -309.1736)">
		<stop  offset="0" style="stop-color:#2AFFE4;stop-opacity:0.6"/>
		<stop  offset="1" style="stop-color:#94FDFF;stop-opacity:0.2"/>
	</linearGradient>
	<path class="st5" d="M850.3,740.2l-3.7-17.9c-0.1-0.6-0.5-1.1-1-1.4l-14.7-6.5c-1-0.6-1.4-1.9-0.8-2.9c0.1-0.2,0.3-0.5,0.5-0.6
		l13.3-9.7c0.5-0.4,0.8-1,0.8-1.6l0.8-18.4c0.1-1.7,1.7-2.5,2.8-1.4l12,11.9c0.4,0.4,1,0.6,1.5,0.4l15.2-4.8c1.4-0.4,2.6,1.1,2,2.7
		l-5.9,17.1c-0.2,0.6-0.2,1.3,0.2,1.9l8.6,15.4c0.8,1.4-0.1,3.2-1.5,3.1l-15.7-1.4c-0.6,0-1.1,0.3-1.5,0.8l-9.8,14.4
		C852.4,742.3,850.6,741.8,850.3,740.2z"/>
	
		<linearGradient id="SVGID_6_" gradientUnits="userSpaceOnUse" x1="1119.49" y1="1017.7056" x2="-78.8" y2="1017.7056" gradientTransform="matrix(-1 0 0 1 1497.0238 -309.1736)">
		<stop  offset="0" style="stop-color:#2AFFE4;stop-opacity:0.6"/>
		<stop  offset="1" style="stop-color:#94FDFF;stop-opacity:0.2"/>
	</linearGradient>
	<path class="st6" d="M695.5,745l-8.8-20.9c-0.3-0.7-0.9-1.2-1.6-1.4l-19.7-3.4c-1.8-0.3-2.5-2.8-1.2-4.3l14.2-16.3
		c0.5-0.6,0.7-1.4,0.6-2.2l-3.4-23c-0.3-2.1,1.5-3.6,3.1-2.7l17.6,10.9c0.6,0.4,1.4,0.4,2,0l17.7-10.9c1.6-1,3.4,0.6,3.1,2.7
		l-3.4,23c-0.1,0.8,0.1,1.6,0.6,2.2l14.3,16.3c1.3,1.5,0.6,4-1.2,4.3l-19.7,3.4c-0.7,0.2-1.4,0.7-1.6,1.4l-8.8,20.9
		c-0.2,1.1-1.3,1.8-2.4,1.5C696.2,746.3,695.6,745.7,695.5,745z"/>
	
		<linearGradient id="SVGID_7_" gradientUnits="userSpaceOnUse" x1="1072.8" y1="959.5028" x2="-117.8599" y2="959.5028" gradientTransform="matrix(-1 0 0 1 1497.0238 -309.1736)">
		<stop  offset="0" style="stop-color:#2AFFE4;stop-opacity:0.6"/>
		<stop  offset="1" style="stop-color:#94FDFF;stop-opacity:0.2"/>
	</linearGradient>
	<path class="st7" d="M787,677.6l-6.2-15.7c-0.2-0.5-0.6-0.9-1.2-1.1l-14.6-2.9c-1-0.4-1.6-1.5-1.2-2.5c0.1-0.3,0.2-0.5,0.4-0.7
		l10.8-11.8c0.4-0.5,0.6-1.1,0.5-1.6l-2.1-17.1c-0.2-1.5,1.2-2.7,2.4-1.9l12.9,8.4c0.4,0.3,1,0.3,1.5,0l13.2-7.7
		c1.2-0.7,2.5,0.5,2.3,2l-2.8,17c-0.1,0.6,0.1,1.2,0.4,1.7l10.3,12.4c0.7,0.9,0.6,2.1-0.3,2.8c-0.2,0.2-0.4,0.3-0.7,0.4l-14.7,2.1
		c-0.6,0.1-1,0.5-1.2,1l-6.9,15.3c-0.3,0.8-1.2,1.1-2,0.8C787.5,678.3,787.2,678,787,677.6z"/>
	
		<linearGradient id="SVGID_8_" gradientUnits="userSpaceOnUse" x1="644.34" y1="958.5555" x2="-555.3" y2="958.5555" gradientTransform="matrix(-1 0 0 1 1497.0238 -309.1736)">
		<stop  offset="0" style="stop-color:#2AFFE4;stop-opacity:0.6"/>
		<stop  offset="1" style="stop-color:#94FDFF;stop-opacity:0.2"/>
	</linearGradient>
	<path class="st8" d="M1215.9,677.3l-13.1-8c-0.5-0.3-1-0.3-1.5,0l-13,8.1c-1.2,0.7-2.6-0.4-2.3-2l2.4-17.1c0.1-0.6-0.1-1.2-0.5-1.7
		l-10.6-12c-0.7-0.8-0.6-2.1,0.2-2.8c0.2-0.2,0.4-0.3,0.7-0.4l14.6-2.6c0.5-0.1,1-0.5,1.2-1l6.5-15.6c0.3-0.8,1.1-1.2,1.9-1
		c0.5,0.1,0.8,0.5,1,1l6.6,15.5c0.2,0.5,0.7,0.9,1.2,1l14.6,2.4c1,0.3,1.6,1.5,1.3,2.5c-0.1,0.2-0.2,0.5-0.4,0.7l-10.5,12.2
		c-0.4,0.5-0.6,1.1-0.5,1.7l2.6,17.1C1218.5,676.9,1217.1,678.1,1215.9,677.3z"/>
	
		<linearGradient id="SVGID_9_" gradientUnits="userSpaceOnUse" x1="792" y1="871.187" x2="-389.15" y2="871.187" gradientTransform="matrix(-1 0 0 1 1497.0238 -309.1736)">
		<stop  offset="0" style="stop-color:#2AFFE4;stop-opacity:0.6"/>
		<stop  offset="1" style="stop-color:#94FDFF;stop-opacity:0.2"/>
	</linearGradient>
	<path class="st9" d="M1119.2,581.9l0.6-12.7c0-0.4-0.1-0.9-0.5-1.2l-8.6-7.8c-0.6-0.6-0.6-1.5-0.1-2.1c0.1-0.1,0.3-0.3,0.5-0.3
		l10.5-3.3c0.4-0.1,0.7-0.5,0.8-0.9l3.6-12c0.1-0.6,0.7-1,1.3-0.9c0.3,0.1,0.6,0.3,0.8,0.6l5.9,10.7c0.2,0.4,0.6,0.6,1,0.6l10.9,0.3
		c0.8,0.1,1.3,0.9,1.2,1.6c0,0.2-0.1,0.4-0.3,0.6l-6.8,9.9c-0.2,0.4-0.3,0.8-0.2,1.3l3.1,12.2c0.3,1.1-0.6,2.1-1.6,1.7l-10.2-4.6
		c-0.4-0.2-0.8-0.1-1.1,0.2l-9,7.2C1120.2,583.8,1119.1,583.1,1119.2,581.9z"/>
	
		<linearGradient id="SVGID_10_" gradientUnits="userSpaceOnUse" x1="931.46" y1="876.0772" x2="-276.65" y2="876.0772" gradientTransform="matrix(-1 0 0 1 1497.0238 -309.1736)">
		<stop  offset="0" style="stop-color:#2AFFE4;stop-opacity:0.6"/>
		<stop  offset="1" style="stop-color:#94FDFF;stop-opacity:0.2"/>
	</linearGradient>
	<path class="st10" d="M979.3,572.6l8.3-10.5c0.3-0.4,0.4-0.9,0.3-1.4l-2.7-13.9c-0.2-1.3,0.8-2.3,1.8-1.7l11,6
		c0.4,0.2,0.9,0.2,1.2-0.1l10.5-7.3c0.9-0.7,2.1,0.2,2,1.5l-1.4,14.1c-0.1,0.5,0.1,1,0.4,1.3l9.1,9.4c0.6,0.7,0.6,1.7-0.1,2.3
		c-0.2,0.2-0.3,0.3-0.6,0.3l-11.9,2.8c-0.4,0.1-0.8,0.5-1,0.9l-4.8,13.1c-0.2,0.7-0.8,1.1-1.5,0.9c-0.4-0.1-0.7-0.4-0.9-0.8
		l-5.9-12.4c-0.2-0.4-0.6-0.7-1-0.8L980,575c-0.9-0.2-1.4-1.1-1.2-2C979,573.1,979.1,572.8,979.3,572.6z"/>
	
		<linearGradient id="SVGID_11_" gradientUnits="userSpaceOnUse" x1="1037.36" y1="874.7876" x2="-71.6" y2="874.7876" gradientTransform="matrix(-1 0 0 1 1497.0238 -309.1736)">
		<stop  offset="0" style="stop-color:#2AFFE4;stop-opacity:0.6"/>
		<stop  offset="1" style="stop-color:#94FDFF;stop-opacity:0.2"/>
	</linearGradient>
	<path class="st11" d="M850,553.4l9.7,1.8c0.4,0.1,0.7-0.1,0.9-0.4l6.8-8.4c0.3-0.5,0.9-0.6,1.4-0.3c0.3,0.2,0.5,0.6,0.4,0.9
		l1.5,11.4c0,0.4,0.3,0.7,0.6,0.9l8.9,5c0.6,0.4,0.8,1.3,0.4,1.9c-0.1,0.1-0.2,0.3-0.4,0.4l-8.8,5.2c-0.3,0.2-0.5,0.6-0.6,1
		l-1.3,11.4c-0.1,1-1.2,1.5-1.8,0.7l-7-8.2c-0.2-0.3-0.6-0.4-0.9-0.3l-9.7,2.1c-0.9,0.2-1.5-0.9-1.1-1.8l4.5-10.3
		c0.2-0.4,0.2-0.8,0-1.2l-4.7-10.1C848.5,554.3,849.1,553.3,850,553.4z"/>
	
		<linearGradient id="SVGID_12_" gradientUnits="userSpaceOnUse" x1="586.8032" y1="931.1876" x2="-522.1567" y2="931.1876" gradientTransform="matrix(-1 0 0 1 1497.0238 -309.1736)">
		<stop  offset="0" style="stop-color:#2AFFE4;stop-opacity:0.6"/>
		<stop  offset="1" style="stop-color:#94FDFF;stop-opacity:0.2"/>
	</linearGradient>
	<path class="st12" d="M1300.6,609.8l9.7,1.8c0.4,0.1,0.7-0.1,0.9-0.4l6.8-8.4c0.3-0.5,0.9-0.6,1.4-0.3c0.3,0.2,0.5,0.6,0.4,0.9
		l1.5,11.4c0,0.4,0.3,0.7,0.6,0.9l8.9,5c0.6,0.4,0.8,1.3,0.4,1.9c-0.1,0.1-0.2,0.3-0.4,0.4l-8.8,5.2c-0.3,0.2-0.5,0.6-0.6,1
		l-1.3,11.4c-0.1,1-1.2,1.5-1.8,0.7l-7-8.2c-0.2-0.3-0.6-0.4-0.9-0.3l-9.7,2.1c-0.9,0.2-1.5-0.9-1.1-1.8l4.5-10.3
		c0.2-0.4,0.2-0.8,0-1.2l-4.7-10.1C1299.1,610.7,1299.7,609.7,1300.6,609.8z"/>
	
		<linearGradient id="SVGID_13_" gradientUnits="userSpaceOnUse" x1="1218.84" y1="892.8458" x2="30.4" y2="892.8458" gradientTransform="matrix(-1 0 0 1 1497.0238 -309.1736)">
		<stop  offset="0" style="stop-color:#2AFFE4;stop-opacity:0.6"/>
		<stop  offset="1" style="stop-color:#94FDFF;stop-opacity:0.2"/>
	</linearGradient>
	<path class="st13" d="M703.8,560.4l6.5,12.2c0.2,0.4,0.6,0.7,1.1,0.7l12.3,0.6c0.9,0.2,1.5,1,1.3,1.9c0,0.3-0.1,0.5-0.3,0.7
		l-7.9,11c-0.3,0.4-0.4,0.9-0.3,1.4l3.3,13.9c0.3,1.2-0.8,2.3-1.8,1.9l-11.4-5.4c-0.4-0.2-0.9-0.1-1.2,0.2l-10.3,8
		c-0.9,0.7-2.1-0.1-2.1-1.4l0.9-14.4c0-0.5-0.1-1-0.5-1.3l-9.6-9c-0.7-0.6-0.7-1.7,0-2.4c0.2-0.2,0.3-0.3,0.6-0.4l11.9-3.5
		c0.5-0.2,0.8-0.5,0.9-1l4.3-13.5c0.1-0.7,0.8-1.1,1.5-1C703.3,559.7,703.6,560,703.8,560.4z"/>
	
		<linearGradient id="SVGID_14_" gradientUnits="userSpaceOnUse" x1="605.64" y1="1277.6945" x2="-549.78" y2="1277.6945" gradientTransform="matrix(-1 0 0 1 1497.0238 -309.1736)">
		<stop  offset="0" style="stop-color:#2AFFE4;stop-opacity:0.6"/>
		<stop  offset="1" style="stop-color:#94FDFF;stop-opacity:0.2"/>
	</linearGradient>
	<path class="st14" d="M989.9,1021.6l-22.1-18.7c-0.7-0.7-1.8-0.8-2.7-0.5l-25.7,10.8c-2.3,1-4.5-1.6-3.8-4.3l8.4-30.5
		c0.3-1.1,0.1-2.2-0.5-3.2l-16.6-25.3c-1.5-2.3-0.1-5.6,2.3-5.6l27.3-0.1c1,0,1.9-0.6,2.4-1.5l15.4-26.4c1.4-2.4,4.5-1.9,5.3,0.9
		l8.5,30.4c0.3,1,1,1.9,2,2.2l26.2,9c2.3,0.8,2.9,4.4,0.9,6.1l-22,18.9c-0.8,0.7-1.3,1.8-1.2,2.9l0.8,32
		C994.6,1021.6,991.9,1023.3,989.9,1021.6z"/>
	
		<linearGradient id="SVGID_15_" gradientUnits="userSpaceOnUse" x1="406.35" y1="1331.1649" x2="-767.16" y2="1331.1649" gradientTransform="matrix(-1 0 0 1 1497.0238 -309.1736)">
		<stop  offset="0" style="stop-color:#2AFFE4;stop-opacity:0.6"/>
		<stop  offset="1" style="stop-color:#94FDFF;stop-opacity:0.2"/>
	</linearGradient>
	<path class="st15" d="M1111.6,1040.3l16.8-25.3c0.6-0.9,0.8-2.1,0.5-3.2l-8.2-30.5c-0.7-2.7,1.5-5.3,3.8-4.3l25.5,11
		c0.9,0.4,2,0.2,2.7-0.4l22.2-18.6c2-1.7,4.8,0.1,4.7,2.9l-0.9,32c-0.1,1.1,0.4,2.2,1.2,2.9l22,18.9c2,1.7,1.4,5.3-0.9,6.1
		l-26.2,8.9c-1,0.4-1.7,1.2-2,2.2l-8.6,30.4c-0.8,2.7-3.9,3.2-5.3,0.8l-15.3-26.4c-0.5-0.9-1.4-1.5-2.4-1.5l-27.3-0.2
		C1111.4,1045.9,1110,1042.6,1111.6,1040.3z"/>
	
		<linearGradient id="SVGID_16_" gradientUnits="userSpaceOnUse" x1="297.03" y1="1288.6425" x2="-843.3199" y2="1288.6425" gradientTransform="matrix(-1 0 0 1 1497.0238 -309.1736)">
		<stop  offset="0" style="stop-color:#2AFFE4;stop-opacity:0.6"/>
		<stop  offset="1" style="stop-color:#94FDFF;stop-opacity:0.2"/>
	</linearGradient>
	<path class="st16" d="M1277.3,1030.5l-1.4-32c0-1.1-0.5-2.1-1.4-2.8l-23.2-16.7c-2.1-1.5-1.8-5.2,0.5-6.2l25.5-11.5
		c0.9-0.5,1.6-1.4,1.8-2.4l6.4-31.1c0.6-2.8,3.6-3.6,5.2-1.4l17.2,24.9c0.6,0.9,1.5,1.3,2.5,1.3l27.2-2.5c2.4-0.2,4,2.9,2.7,5.4
		l-14.9,26.8c-0.5,1-0.6,2.2-0.3,3.2l10.4,29.6c0.9,2.7-1.1,5.4-3.5,4.7l-26.3-8.3c-1-0.3-2,0-2.7,0.7l-20.8,20.8
		C1280.3,1034.8,1277.5,1033.4,1277.3,1030.5z"/>
	
		<linearGradient id="SVGID_17_" gradientUnits="userSpaceOnUse" x1="850.12" y1="1303.2241" x2="-266.96" y2="1303.2241" gradientTransform="matrix(-1 0 0 1 1497.0238 -309.1736)">
		<stop  offset="0" style="stop-color:#2AFFE4;stop-opacity:0.6"/>
		<stop  offset="1" style="stop-color:#94FDFF;stop-opacity:0.2"/>
	</linearGradient>
	<path class="st17" d="M787.9,998.4l-24.8,13.2c-0.9,0.5-1.6,1.5-1.7,2.6l-4.8,31.5c-0.4,2.8-3.4,3.9-5.1,1.7l-18.4-23.6
		c-0.6-0.8-1.6-1.3-2.6-1.1l-27,4.4c-2.4,0.4-4.2-2.7-3-5.2l13.5-27.8c0.5-1,0.5-2.2,0.1-3.2l-11.9-28.8c-1.1-2.6,0.8-5.5,3.3-4.9
		l26.7,6.4c1,0.2,2-0.1,2.6-0.9l19.7-22.2c1.8-2,4.7-0.7,5,2.1l3.1,31.8c0.1,1.1,0.6,2.1,1.5,2.7l24.1,15.1c1.7,1.2,2.1,3.6,0.9,5.2
		C788.7,997.8,788.3,998.2,787.9,998.4z"/>
	
		<linearGradient id="SVGID_18_" gradientUnits="userSpaceOnUse" x1="656.4485" y1="1740.7262" x2="-405.0314" y2="1306.0762" gradientTransform="matrix(-0.9254 -0.379 -0.379 0.9254 1720.4243 -487.3173)">
		<stop  offset="0" style="stop-color:#2AFFE4;stop-opacity:0.6"/>
		<stop  offset="1" style="stop-color:#94FDFF;stop-opacity:0.2"/>
	</linearGradient>
	<path class="st18" d="M589.9,905.5l12.4-28.5c0.5-1,0.5-2.2,0-3.2l-13-28.1c-1.2-2.5,0.6-5.5,3.1-5.1l26.9,5c1,0.2,2-0.2,2.6-1
		l18.8-23.2c1.7-2.1,4.7-1,5.1,1.9l4.3,31.6c0.1,1.1,0.7,2,1.7,2.6l24.6,13.8c1.7,1.1,2.2,3.5,1.1,5.2c-0.3,0.4-0.6,0.7-1,1
		L652,891.9c-0.9,0.6-1.5,1.6-1.6,2.6l-3.6,31.7c-0.3,2.8-3.3,4-5,2l-19.3-22.6c-0.6-0.8-1.6-1.2-2.6-1l-26.8,5.8
		C590.7,911,588.8,908,589.9,905.5z"/>
	
		<linearGradient id="SVGID_19_" gradientUnits="userSpaceOnUse" x1="1036.4299" y1="814.813" x2="-144.72" y2="814.813" gradientTransform="matrix(-1 0 0 1 1497.0238 -309.1736)">
		<stop  offset="0" style="stop-color:#2AFFE4;stop-opacity:0.6"/>
		<stop  offset="1" style="stop-color:#94FDFF;stop-opacity:0.2"/>
	</linearGradient>
	<path class="st19" d="M933.9,521.2l0.5-9.9c0-0.3-0.1-0.7-0.4-0.9l-6.7-6.1c-0.5-0.4-0.5-1.2,0-1.6c0.1-0.1,0.2-0.2,0.4-0.3
		l8.2-2.6c0.3-0.1,0.5-0.4,0.6-0.7l2.8-9.4c0.1-0.5,0.5-0.8,1-0.7c0.3,0.1,0.5,0.2,0.6,0.5l4.6,8.3c0.1,0.3,0.4,0.5,0.8,0.5l8.5,0.3
		c0.6,0.1,1,0.7,0.9,1.3c0,0.2-0.1,0.3-0.2,0.5l-5.3,7.7c-0.2,0.3-0.3,0.7-0.2,1l2.4,9.6c0.2,0.9-0.5,1.6-1.2,1.3l-7.9-3.6
		c-0.3-0.1-0.6-0.1-0.9,0.1l-7,5.6C934.7,522.6,933.9,522.1,933.9,521.2z"/>
	
		<linearGradient id="SVGID_20_" gradientUnits="userSpaceOnUse" x1="813.42" y1="808.6484" x2="-372.57" y2="808.6484" gradientTransform="matrix(-1 0 0 1 1497.0238 -309.1736)">
		<stop  offset="0" style="stop-color:#2AFFE4;stop-opacity:0.6"/>
		<stop  offset="1" style="stop-color:#94FDFF;stop-opacity:0.2"/>
	</linearGradient>
	<path class="st20" d="M1176.1,497l-6.4,6.8c-0.2,0.3-0.4,0.6-0.3,1l1.1,10c0.1,0.9-0.7,1.5-1.4,1.1l-7.4-5c-0.3-0.2-0.6-0.2-0.9,0
		l-7.8,4.3c-0.7,0.4-1.5-0.3-1.3-1.2l1.8-9.9c0.1-0.4,0-0.7-0.2-1l-5.9-7.3c-0.4-0.5-0.3-1.2,0.1-1.6c0.1-0.1,0.3-0.2,0.4-0.2l8.6-1
		c0.3-0.1,0.6-0.3,0.7-0.6l4.1-8.9c0.2-0.5,0.7-0.7,1.1-0.5c0.3,0.1,0.5,0.3,0.5,0.6l3.5,9.2c0.1,0.3,0.4,0.5,0.7,0.6l8.5,1.8
		c0.6,0.3,0.8,1,0.6,1.5C1176.2,496.9,1176.2,497,1176.1,497z"/>
	
		<linearGradient id="SVGID_21_" gradientUnits="userSpaceOnUse" x1="678.2452" y1="856.3672" x2="-507.7448" y2="856.3672" gradientTransform="matrix(-0.5279 -1.0006 -0.8845 0.4666 2159.2048 298.4885)">
		<stop  offset="0" style="stop-color:#2AFFE4;stop-opacity:0.6"/>
		<stop  offset="1" style="stop-color:#94FDFF;stop-opacity:0.2"/>
	</linearGradient>
	<path class="st21" d="M1305.9,511l-9.4-3.2c-0.4-0.1-0.7-0.1-1,0.2l-8.3,5.8c-0.7,0.5-1.7,0-1.7-0.9l0.5-9.7c0-0.4-0.1-0.7-0.5-0.9
		l-7.9-5.8c-0.7-0.5-0.5-1.6,0.4-1.9l9.7-2.8c0.4-0.1,0.6-0.3,0.8-0.7l3.3-9.3c0.2-0.6,0.9-0.9,1.5-0.6c0.1,0.1,0.3,0.2,0.4,0.3
		l5.4,8.1c0.2,0.3,0.6,0.5,0.9,0.4l10-0.1c0.5,0,1,0.4,1,0.9c0.1,0.3,0,0.6-0.3,0.8l-6.3,7.8c-0.2,0.2-0.2,0.6-0.2,1l2.9,9.3
		c0.1,0.7-0.5,1.3-1,1.3C1306.1,511.1,1306,511.1,1305.9,511z"/>
	
		<linearGradient id="SVGID_22_" gradientUnits="userSpaceOnUse" x1="1017.45" y1="726.7499" x2="-163.7" y2="726.7499" gradientTransform="matrix(-1 0 0 1 1497.0238 -309.1736)">
		<stop  offset="0" style="stop-color:#2AFFE4;stop-opacity:0.6"/>
		<stop  offset="1" style="stop-color:#94FDFF;stop-opacity:0.2"/>
	</linearGradient>
	<path class="st22" d="M1028.5,426.8l0.3-5.9c0-0.2-0.1-0.4-0.2-0.5l-4-3.6c-0.3-0.3-0.3-0.7,0-1c0.1-0.1,0.1-0.1,0.2-0.2l4.9-1.5
		c0.2-0.1,0.3-0.2,0.4-0.4l1.7-5.6c0-0.3,0.3-0.5,0.6-0.5c0.2,0,0.4,0.1,0.4,0.3l2.8,5c0.1,0.2,0.3,0.3,0.4,0.3l5.1,0.2
		c0.4,0.1,0.6,0.4,0.5,0.8c0,0.1,0,0.1-0.1,0.2l-3.2,4.6c-0.1,0.2-0.2,0.4-0.1,0.6l1.4,5.7c0.1,0.5-0.3,1-0.7,0.8l-4.7-2.1
		c-0.2-0.1-0.4-0.1-0.5,0.1l-4.2,3.4C1028.9,427.7,1028.4,427.3,1028.5,426.8z"/>
	
		<linearGradient id="SVGID_23_" gradientUnits="userSpaceOnUse" x1="650.1703" y1="730.8396" x2="-530.9797" y2="730.8396" gradientTransform="matrix(0.2356 0.9719 0.9719 -0.2356 571.929 472.7458)">
		<stop  offset="0" style="stop-color:#2AFFE4;stop-opacity:0.6"/>
		<stop  offset="1" style="stop-color:#94FDFF;stop-opacity:0.2"/>
	</linearGradient>
	<path class="st23" d="M1315,396.8l-5.8,1.1c-0.2,0-0.4,0.2-0.4,0.3l-2.6,4.7c-0.2,0.4-0.6,0.5-1,0.2c-0.1-0.1-0.1-0.1-0.2-0.1
		l-2.6-4.4c-0.1-0.2-0.3-0.2-0.5-0.3l-5.8-0.3c-0.3,0.1-0.6-0.2-0.6-0.5c0-0.2,0-0.4,0.2-0.5l4.2-3.9c0.2-0.1,0.2-0.4,0.2-0.5l-1-5
		c0-0.4,0.2-0.7,0.7-0.7c0.1,0,0.1,0,0.2,0.1l5.2,2c0.2,0.1,0.4,0.1,0.6,0l5.2-2.7c0.5-0.2,1,0.1,0.9,0.5l-0.9,5.1
		c-0.1,0.2,0,0.4,0.2,0.5l4.3,3.3C1315.8,396.2,1315.5,396.8,1315,396.8z"/>
	
		<linearGradient id="SVGID_24_" gradientUnits="userSpaceOnUse" x1="1164.15" y1="765.5612" x2="33.3" y2="765.5612" gradientTransform="matrix(-1 0 0 1 1497.0238 -309.1736)">
		<stop  offset="0" style="stop-color:#2AFFE4;stop-opacity:0.6"/>
		<stop  offset="1" style="stop-color:#94FDFF;stop-opacity:0.2"/>
	</linearGradient>
	<path class="st24" d="M841.3,469.3l-5-5c-0.2-0.2-0.4-0.2-0.7-0.2l-6.4,2c-0.6,0.2-1.1-0.5-0.8-1.1l2.5-7.1
		c0.1-0.3,0.1-0.5-0.1-0.8l-3.6-6.5c-0.3-0.6,0.1-1.3,0.7-1.3l6.6,0.6c0.2,0,0.5-0.1,0.6-0.3l4.2-6c0.2-0.3,0.6-0.4,0.9-0.2
		c0.2,0.1,0.3,0.3,0.3,0.5l1.5,7.5c0,0.3,0.2,0.5,0.4,0.6l6.1,2.8c0.4,0.2,0.6,0.8,0.3,1.2c-0.1,0.1-0.1,0.2-0.2,0.3l-5.6,4
		c-0.2,0.2-0.3,0.4-0.3,0.7l-0.4,7.7C842.4,469.4,841.7,469.7,841.3,469.3z"/>
	
		<linearGradient id="SVGID_25_" gradientUnits="userSpaceOnUse" x1="1187.71" y1="817.7132" x2="75.9399" y2="817.7132" gradientTransform="matrix(-1 0 0 1 1497.0238 -309.1736)">
		<stop  offset="0" style="stop-color:#2AFFE4;stop-opacity:0.6"/>
		<stop  offset="1" style="stop-color:#94FDFF;stop-opacity:0.2"/>
	</linearGradient>
	<path class="st25" d="M763.2,520.9l-0.8-7.7c0-0.3-0.2-0.5-0.4-0.6l-5.9-3.5c-0.4-0.3-0.5-0.9-0.2-1.3c0.1-0.1,0.1-0.2,0.2-0.2
		l6-3.3c0.2-0.1,0.4-0.4,0.4-0.6l1.1-7.6c0-0.4,0.3-0.7,0.7-0.7c0.2,0,0.4,0.1,0.5,0.3l4.5,5.6c0.1,0.2,0.4,0.3,0.6,0.3l6.5-1.2
		c0.6-0.1,1,0.6,0.7,1.2l-3.2,6.8c-0.1,0.2-0.1,0.5,0,0.8l3,6.9c0.3,0.6-0.2,1.3-0.8,1.2l-6.5-1.4c-0.2-0.1-0.5,0-0.6,0.2l-4.7,5.4
		C764,521.9,763.3,521.6,763.2,520.9z"/>
	
		<linearGradient id="SVGID_26_" gradientUnits="userSpaceOnUse" x1="907.39" y1="821.6152" x2="-294.54" y2="821.6152" gradientTransform="matrix(-1 0 0 1 1497.0238 -309.1736)">
		<stop  offset="0" style="stop-color:#2AFFE4;stop-opacity:0.6"/>
		<stop  offset="1" style="stop-color:#94FDFF;stop-opacity:0.2"/>
	</linearGradient>
	<path class="st26" d="M1066.8,524.9l-3.3-6.7c-0.1-0.2-0.3-0.4-0.6-0.4l-6.6-0.6c-0.5-0.1-0.8-0.6-0.6-1.1c0-0.1,0.1-0.2,0.2-0.3
		l4.4-5.7c0.2-0.2,0.2-0.5,0.2-0.8l-1.5-7.5c-0.1-0.7,0.4-1.2,1-1l6,3.1c0.2,0.1,0.5,0.1,0.7-0.1l5.6-4c0.5-0.4,1.1,0.1,1.1,0.8
		l-0.7,7.7c0,0.3,0.1,0.5,0.3,0.7l5,5c0.3,0.4,0.3,0.9,0,1.3c-0.1,0.1-0.2,0.1-0.3,0.2l-6.4,1.6c-0.2,0.1-0.4,0.3-0.5,0.5l-2.5,7.1
		c-0.1,0.4-0.4,0.6-0.8,0.5C1067,525.2,1066.9,525.1,1066.8,524.9z"/>
	
		<linearGradient id="SVGID_27_" gradientUnits="userSpaceOnUse" x1="1325.3101" y1="691.783" x2="144.16" y2="691.783" gradientTransform="matrix(-1 0 0 1 1497.0238 -309.1736)">
		<stop  offset="0" style="stop-color:#2AFFE4;stop-opacity:0.6"/>
		<stop  offset="1" style="stop-color:#94FDFF;stop-opacity:0.2"/>
	</linearGradient>
	<path class="st27" d="M762.6,391.8l0.3-5.9c0-0.2-0.1-0.4-0.2-0.5l-4-3.6c-0.3-0.3-0.3-0.7,0-1c0.1-0.1,0.1-0.1,0.2-0.2l4.9-1.5
		c0.2-0.1,0.3-0.2,0.4-0.4l1.7-5.6c0-0.3,0.3-0.5,0.6-0.5c0.2,0,0.4,0.1,0.4,0.3l2.8,5c0.1,0.2,0.3,0.3,0.4,0.3l5.1,0.2
		c0.4,0.1,0.6,0.4,0.5,0.8c0,0.1-0.1,0.2-0.1,0.3l-3.2,4.6c-0.1,0.2-0.1,0.4-0.1,0.6l1.4,5.7c0.1,0.5-0.3,1-0.7,0.8l-4.7-2.1
		c-0.2-0.1-0.4-0.1-0.5,0.1l-4.2,3.4C763,392.7,762.5,392.4,762.6,391.8z"/>
	
		<linearGradient id="SVGID_28_" gradientUnits="userSpaceOnUse" x1="900.14" y1="721.1324" x2="-249.66" y2="721.1324" gradientTransform="matrix(-1 0 0 1 1497.0238 -309.1736)">
		<stop  offset="0" style="stop-color:#2AFFE4;stop-opacity:0.6"/>
		<stop  offset="1" style="stop-color:#94FDFF;stop-opacity:0.2"/>
	</linearGradient>
	<path class="st28" d="M1143.8,416.6l-5.1-0.1c-0.2,0-0.4,0.1-0.5,0.3l-2.9,4.8c-0.1,0.3-0.4,0.4-0.7,0.3c-0.2-0.1-0.3-0.3-0.3-0.5
		l-1.5-5.7c0-0.2-0.2-0.3-0.4-0.4l-4.8-1.8c-0.3-0.2-0.5-0.6-0.3-0.9c0-0.1,0.1-0.2,0.2-0.2l4.1-3.4c0.2-0.1,0.2-0.3,0.2-0.5v-5.9
		c0-0.5,0.5-0.8,0.9-0.5l4,3.6c0.1,0.1,0.3,0.2,0.5,0.1l4.8-1.9c0.4-0.2,0.8,0.3,0.7,0.8l-1.6,5.6c-0.1,0.2,0,0.4,0.1,0.6l3,4.8
		c0.2,0.3,0.1,0.7-0.1,0.9C1144,416.6,1143.9,416.6,1143.8,416.6z"/>
	
		<linearGradient id="SVGID_29_" gradientUnits="userSpaceOnUse" x1="1290.5699" y1="773.9321" x2="135.9399" y2="773.9321" gradientTransform="matrix(-1 0 0 1 1497.0238 -309.1736)">
		<stop  offset="0" style="stop-color:#2AFFE4;stop-opacity:0.6"/>
		<stop  offset="1" style="stop-color:#94FDFF;stop-opacity:0.2"/>
	</linearGradient>
	<path class="st29" d="M721,478.9l-4.3-6.8c-0.1-0.2-0.4-0.4-0.7-0.4l-7.2,0.3c-0.7,0-1-0.8-0.7-1.5l4.2-6.9
		c0.2-0.3,0.2-0.6,0.1-0.8l-2.5-8c-0.2-0.7,0.3-1.4,1-1.2l6.9,2.5c0.2,0.1,0.5,0,0.7-0.2l5.6-5.3c0.5-0.5,1.3,0,1.3,0.7l0.1,8.5
		c0,0.3,0.1,0.6,0.3,0.8l6,4.7c0.4,0.4,0.5,1,0.1,1.4c-0.1,0.1-0.2,0.2-0.3,0.2l-6.8,2.8c-0.3,0.1-0.4,0.3-0.5,0.6l-2,8.2
		c-0.1,0.4-0.4,0.7-0.9,0.6C721.3,479.1,721.1,479,721,478.9z"/>
	
		<linearGradient id="SVGID_30_" gradientUnits="userSpaceOnUse" x1="786.05" y1="752.1133" x2="-368.58" y2="752.1133" gradientTransform="matrix(-1 0 0 1 1497.0238 -309.1736)">
		<stop  offset="0" style="stop-color:#2AFFE4;stop-opacity:0.6"/>
		<stop  offset="1" style="stop-color:#94FDFF;stop-opacity:0.2"/>
	</linearGradient>
	<path class="st30" d="M1222.8,457l-4.3-6.8c-0.1-0.2-0.4-0.4-0.7-0.4l-7.2,0.3c-0.5-0.1-0.9-0.5-0.8-1c0-0.2,0.1-0.3,0.2-0.4
		l4.2-6.9c0.1-0.3,0.2-0.6,0.1-0.8l-2.5-8c-0.2-0.7,0.3-1.4,1-1.2l6.9,2.5c0.3,0.1,0.5,0,0.7-0.2l5.7-5.3c0.5-0.5,1.3-0.1,1.3,0.7
		l0.1,8.5c0,0.3,0.1,0.6,0.4,0.8l6,4.7c0.4,0.4,0.5,1,0.1,1.4c-0.1,0.1-0.2,0.2-0.3,0.2l-6.8,2.7c-0.3,0.1-0.4,0.3-0.5,0.6l-2,8.2
		c0,0.4-0.4,0.7-0.8,0.7C1223.2,457.3,1223,457.2,1222.8,457z"/>
	
		<linearGradient id="SVGID_31_" gradientUnits="userSpaceOnUse" x1="1150.98" y1="684.3637" x2="-15.46" y2="684.3637" gradientTransform="matrix(-1 0 0 1 1497.0238 -309.1736)">
		<stop  offset="0" style="stop-color:#2AFFE4;stop-opacity:0.6"/>
		<stop  offset="1" style="stop-color:#94FDFF;stop-opacity:0.2"/>
	</linearGradient>
	<path class="st31" d="M924.5,378.8l3-4.8c0.1-0.2,0.1-0.4,0.1-0.6l-1.6-5.6c-0.2-0.5,0.3-1,0.7-0.8l4.8,1.9c0.2,0.1,0.4,0,0.5-0.1
		l4.1-3.5c0.4-0.3,0.9,0,0.9,0.5l-0.1,5.9c0,0.2,0.1,0.4,0.2,0.5l4.2,3.4c0.3,0.3,0.3,0.7,0,1c-0.1,0.1-0.1,0.1-0.2,0.2l-4.8,1.8
		c-0.2,0.1-0.3,0.2-0.4,0.4l-1.5,5.7c0,0.3-0.3,0.5-0.5,0.5s-0.4-0.1-0.5-0.3l-2.9-4.9c-0.1-0.2-0.3-0.3-0.5-0.3l-5.1,0.1
		c-0.4-0.1-0.6-0.4-0.5-0.8C924.4,378.9,924.5,378.8,924.5,378.8z"/>
	
		<linearGradient id="SVGID_32_" gradientUnits="userSpaceOnUse" x1="983.11" y1="1123.5782" x2="-179.25" y2="1123.5782" gradientTransform="matrix(-1 0 0 1 1497.0238 -309.1736)">
		<stop  offset="0" style="stop-color:#2AFFE4;stop-opacity:0.6"/>
		<stop  offset="1" style="stop-color:#94FDFF;stop-opacity:0.2"/>
	</linearGradient>
	<path class="st32" d="M728.1,853.9l0.1-25c0-0.9-0.3-1.7-1-2.3l-17.5-14.3c-1.6-1.3-1.2-4.1,0.6-4.8l20.3-7.6
		c0.8-0.3,1.3-1,1.5-1.8l6.2-24c0.6-2.2,3-2.6,4.1-0.8l12.5,20.3c0.4,0.7,1.1,1.1,1.9,1.1l21.3-0.5c1.9,0,3,2.5,1.9,4.3l-12.6,20.2
		c-0.5,0.7-0.6,1.7-0.3,2.5l7,23.7c0.6,2.1-1.1,4.2-2.9,3.5l-20.2-7.9c-0.7-0.3-1.6-0.1-2.1,0.4l-17,15.1
		C730.3,857.5,728.1,856.2,728.1,853.9z"/>
	
		<linearGradient id="SVGID_33_" gradientUnits="userSpaceOnUse" x1="472.8" y1="1159.8833" x2="-636.2701" y2="1159.8833" gradientTransform="matrix(-1 0 0 1 1497.0238 -309.1736)">
		<stop  offset="0" style="stop-color:#2AFFE4;stop-opacity:0.6"/>
		<stop  offset="1" style="stop-color:#94FDFF;stop-opacity:0.2"/>
	</linearGradient>
	<path class="st33" d="M1213.6,900.3l-17.5-21.5c-0.6-0.8-1.5-1.1-2.4-1l-25,4.7c-2.2,0.4-3.9-2.4-2.8-4.7l12-26.1c0.4-1,0.4-2,0-3
		l-11.5-26.4c-1-2.4,0.7-5.1,2.9-4.6l24.9,5.3c0.9,0.2,1.9-0.2,2.4-0.9l17.8-21c1.6-1.9,4.4-0.8,4.7,1.8l3.4,29.4
		c0.1,1,0.7,1.9,1.5,2.5l22.6,13.4c1.6,1.1,2,3.3,0.9,4.8c-0.2,0.4-0.6,0.7-0.9,0.9l-22.8,12.8c-0.9,0.5-1.4,1.4-1.5,2.4l-3.9,29.3
		C1218,901.2,1215.2,902.2,1213.6,900.3z"/>
	
		<linearGradient id="SVGID_34_" gradientUnits="userSpaceOnUse" x1="-247.9182" y1="2056.1294" x2="-1100.228" y2="1383.3394" gradientTransform="matrix(-0.7849 -0.6196 -0.6196 0.7849 1983.5737 -893.7721)">
		<stop  offset="0" style="stop-color:#2AFFE4;stop-opacity:0.6"/>
		<stop  offset="1" style="stop-color:#94FDFF;stop-opacity:0.2"/>
	</linearGradient>
	<path class="st34" d="M1028.9,877.8l18.4-16.9c0.7-0.6,1.1-1.6,1-2.5l-1.4-27.4c-0.1-2.5,2.2-4,4-2.7l19.4,15.3
		c0.7,0.5,1.6,0.7,2.3,0.3l21.8-10.1c2-0.9,4,1.2,3.4,3.6l-6.4,26.4c-0.2,0.9-0.1,1.9,0.5,2.7l14.9,21.2c1.3,1.9,0.2,4.8-1.9,4.9
		l-23.4,1c-0.9,0.1-1.7,0.6-2,1.4l-12.6,23.2c-1.1,2.1-3.8,1.7-4.5-0.6l-8-25.8c-0.2-0.9-0.9-1.6-1.8-1.9l-22.7-6.9
		C1027.8,882.4,1027.2,879.3,1028.9,877.8z"/>
	
		<linearGradient id="SVGID_35_" gradientUnits="userSpaceOnUse" x1="823.44" y1="1179.8254" x2="-378.6401" y2="1179.8254" gradientTransform="matrix(-1 0 0 1 1497.0238 -309.1736)">
		<stop  offset="0" style="stop-color:#2AFFE4;stop-opacity:0.6"/>
		<stop  offset="1" style="stop-color:#94FDFF;stop-opacity:0.2"/>
	</linearGradient>
	<path class="st35" d="M905.5,884.1l-25,4.6c-0.9,0.2-1.7,0.9-2,1.8l-10.9,26.8c-0.4,1.4-1.9,2.1-3.2,1.7c-0.8-0.2-1.4-0.9-1.7-1.6
		L851.2,891c-0.3-0.9-1.1-1.6-2.1-1.7l-25.1-3.9c-2.3-0.3-3.2-3.6-1.6-5.5l17.9-21c0.7-0.8,0.9-1.8,0.8-2.9l-4.6-29.2
		c-0.4-2.6,1.9-4.7,3.9-3.5l22.6,13.5c0.8,0.5,1.8,0.5,2.5,0l22.2-14.2c2-1.3,4.4,0.7,4,3.3l-4,29.3c-0.1,1,0.1,2.1,0.8,2.8
		l18.4,20.5C908.6,880.5,907.8,883.7,905.5,884.1z"/>
	
		<linearGradient id="SVGID_36_" gradientUnits="userSpaceOnUse" x1="463.59" y1="1049.6777" x2="-668.47" y2="1049.6777" gradientTransform="matrix(-1 0 0 1 1497.0238 -309.1736)">
		<stop  offset="0" style="stop-color:#2AFFE4;stop-opacity:0.6"/>
		<stop  offset="1" style="stop-color:#94FDFF;stop-opacity:0.2"/>
	</linearGradient>
	<path class="st36" d="M1272.9,775.5l-1.4-21.8c0-0.7-0.4-1.4-1-1.9l-16.1-11.1c-1.1-0.9-1.3-2.5-0.5-3.6c0.2-0.3,0.4-0.5,0.7-0.6
		l17.3-8.3c0.6-0.3,1.1-1,1.2-1.7l4-21.4c0.4-1.9,2.4-2.5,3.5-1l12.1,16.7c0.4,0.6,1.1,0.9,1.8,0.8l18.6-2.2c1.7-0.2,2.8,2,1.9,3.6
		l-9.8,18.6c-0.4,0.7-0.4,1.5-0.1,2.2l7.5,20.1c0.7,1.8-0.7,3.7-2.3,3.3L1292,762c-0.7-0.2-1.4,0-1.8,0.5l-14,14.6
		C1275,778.5,1273,777.5,1272.9,775.5z"/>
	
		<linearGradient id="SVGID_37_" gradientUnits="userSpaceOnUse" x1="664.32" y1="882.4017" x2="-511.83" y2="882.4017" gradientTransform="matrix(-1 0 0 1 1497.0238 -309.1736)">
		<stop  offset="0" style="stop-color:#2AFFE4;stop-opacity:0.6"/>
		<stop  offset="1" style="stop-color:#94FDFF;stop-opacity:0.2"/>
	</linearGradient>
	<path class="st37" d="M1222,575.7l8.3-8.2c0.3-0.3,0.5-0.8,0.4-1.2l-1.1-12.7c-0.1-1.2,1-1.9,1.8-1.3l9.2,6.7
		c0.3,0.2,0.7,0.3,1.1,0.1l10-5.1c0.9-0.5,1.8,0.5,1.6,1.6l-2.6,12.4c-0.1,0.4,0,0.9,0.3,1.3l7.2,9.5c0.5,0.6,0.4,1.5-0.2,2
		c-0.2,0.1-0.4,0.2-0.6,0.3l-10.8,0.9c-0.4,0-0.8,0.3-0.9,0.7l-5.5,11c-0.2,0.6-0.9,0.8-1.4,0.6c-0.3-0.1-0.6-0.4-0.7-0.8l-4.1-11.8
		c-0.1-0.4-0.4-0.7-0.8-0.8l-10.6-2.7c-0.7-0.3-1.1-1.2-0.7-1.9C1221.8,575.9,1221.9,575.8,1222,575.7z"/>
</g>
<g class="st0">
	
		<linearGradient id="SVGID_38_" gradientUnits="userSpaceOnUse" x1="1216.6" y1="1057.3705" x2="74.38" y2="1057.3705" gradientTransform="matrix(-1 0 0 1 1497.0238 -309.1736)">
		<stop  offset="0" style="stop-color:#2AFFE4;stop-opacity:0.6"/>
		<stop  offset="1" style="stop-color:#94FDFF;stop-opacity:0.2"/>
	</linearGradient>
	<path class="st38" d="M560.1,784.5l-11.7-17.1c-0.4-0.6-1-0.9-1.7-0.9l-18.7,1.6c-1.7,0.1-2.8-2-1.8-3.7l10.3-18.3
		c0.4-0.7,0.4-1.5,0.2-2.2l-7-20.3c-0.6-1.8,0.8-3.7,2.4-3.2l18,5.8c0.7,0.2,1.4,0,1.8-0.5l14.3-14.1c1.3-1.3,3.3-0.3,3.3,1.7
		l0.9,21.9c0,0.8,0.4,1.5,1,1.9l15.9,11.6c1.1,0.9,1.3,2.5,0.4,3.6c-0.2,0.3-0.5,0.5-0.8,0.6l-17.5,7.8c-0.7,0.3-1.1,0.9-1.3,1.6
		l-4.5,21.3C563.3,785.5,561.2,786,560.1,784.5z"/>
	
		<linearGradient id="SVGID_39_" gradientUnits="userSpaceOnUse" x1="1419.98" y1="1042.9253" x2="257.62" y2="1042.9253" gradientTransform="matrix(-1 0 0 1 1497.0238 -309.1736)">
		<stop  offset="0" style="stop-color:#2AFFE4;stop-opacity:0.6"/>
		<stop  offset="1" style="stop-color:#94FDFF;stop-opacity:0.2"/>
	</linearGradient>
	<path class="st39" d="M364.6,768.5l0.1-22c0-0.8-0.3-1.5-0.9-2l-15.4-12.6c-1.1-1-1.1-2.6-0.2-3.6c0.2-0.2,0.5-0.4,0.8-0.6
		l17.9-6.7c0.7-0.3,1.2-0.9,1.3-1.6l5.4-21.1c0.5-1.9,2.6-2.3,3.6-0.7l11,17.9c0.3,0.6,1,1,1.7,1l18.8-0.5c1.7,0,2.7,2.2,1.7,3.8
		l-11.1,17.8c-0.4,0.7-0.5,1.5-0.3,2.2l6.2,20.8c0.5,1.9-1,3.7-2.6,3l-17.9-6.9c-0.6-0.2-1.4-0.1-1.9,0.4l-15,13.3
		C366.5,771.6,364.6,770.5,364.6,768.5z"/>
	
		<linearGradient id="SVGID_40_" gradientUnits="userSpaceOnUse" x1="1430.4399" y1="954.7167" x2="264.14" y2="954.7167" gradientTransform="matrix(-1 0 0 1 1497.0238 -309.1736)">
		<stop  offset="0" style="stop-color:#2AFFE4;stop-opacity:0.6"/>
		<stop  offset="1" style="stop-color:#94FDFF;stop-opacity:0.2"/>
	</linearGradient>
	<path class="st40" d="M431,672.7l0.2-17.3c0-0.6-0.2-1.2-0.7-1.6l-12-10c-0.8-0.7-0.9-2-0.2-2.8c0.2-0.2,0.4-0.4,0.7-0.5l14-5.1
		c0.5-0.2,0.9-0.7,1.1-1.2l4.4-16.5c0.1-0.8,0.9-1.4,1.7-1.3c0.5,0.1,0.9,0.4,1.1,0.8l8.5,14.2c0.3,0.5,0.8,0.8,1.3,0.8l14.8-0.2
		c1.3,0,2.1,1.8,1.3,3l-8.9,13.9c-0.3,0.5-0.4,1.1-0.2,1.7l4.7,16.4c0.4,1.5-0.8,2.9-2,2.4l-14-5.6c-0.5-0.2-1.1-0.1-1.5,0.3
		l-11.8,10.3C432.5,675.2,431,674.3,431,672.7z"/>
	
		<linearGradient id="SVGID_41_" gradientUnits="userSpaceOnUse" x1="1578.96" y1="935.558" x2="382.4399" y2="935.558" gradientTransform="matrix(-1 0 0 1 1497.0238 -309.1736)">
		<stop  offset="0" style="stop-color:#2AFFE4;stop-opacity:0.6"/>
		<stop  offset="1" style="stop-color:#94FDFF;stop-opacity:0.2"/>
	</linearGradient>
	<path class="st41" d="M342,652.3l-13.6-6.8c-0.5-0.2-1.1-0.2-1.5,0.1l-12.5,9.3c-1.1,0.8-2.6-0.2-2.4-1.8l1.3-17.3
		c0.1-0.6-0.2-1.2-0.6-1.6l-11.4-11.1c-0.8-0.8-0.8-2,0-2.8c0.2-0.2,0.4-0.3,0.7-0.5l14.4-3.8c0.5-0.2,1-0.6,1.1-1.1l5.4-16.1
		c0.2-0.8,1-1.3,1.8-1.2c0.5,0.1,0.9,0.4,1.1,0.9l7.6,14.9c0.2,0.5,0.7,0.8,1.3,0.9l14.7,1.1c1.3,0.1,2,1.9,1.1,3.1l-9.7,13
		c-0.4,0.5-0.5,1.1-0.3,1.7l3.6,16.8C344.5,651.6,343.2,652.9,342,652.3z"/>
	
		<linearGradient id="SVGID_42_" gradientUnits="userSpaceOnUse" x1="1569.34" y1="1008.681" x2="436.35" y2="1008.681" gradientTransform="matrix(-1 0 0 1 1497.0238 -309.1736)">
		<stop  offset="0" style="stop-color:#2AFFE4;stop-opacity:0.6"/>
		<stop  offset="1" style="stop-color:#94FDFF;stop-opacity:0.2"/>
	</linearGradient>
	<path class="st42" d="M250.2,729.2l-3.8-17.9c-0.1-0.6-0.5-1.1-1-1.4l-14.7-6.5c-1-0.6-1.4-1.9-0.8-3c0.1-0.2,0.3-0.4,0.5-0.6
		l13.4-9.7c0.5-0.4,0.8-1,0.8-1.6l0.8-18.4c0.1-1.6,1.7-2.5,2.8-1.4l12,11.9c0.4,0.4,1,0.6,1.6,0.4l15.2-4.8c1.4-0.4,2.6,1.1,2,2.7
		l-5.9,17.1c-0.2,0.6-0.2,1.3,0.2,1.8l8.6,15.4c0.8,1.4-0.1,3.2-1.6,3.1l-15.7-1.4c-0.6,0-1.1,0.2-1.4,0.7l-9.8,14.4
		c-0.5,0.8-1.5,1-2.2,0.6C250.5,730.3,250.2,729.8,250.2,729.2z"/>
	
		<linearGradient id="SVGID_43_" gradientUnits="userSpaceOnUse" x1="1755.6899" y1="1006.6593" x2="557.4" y2="1006.6593" gradientTransform="matrix(-1 0 0 1 1497.0238 -309.1736)">
		<stop  offset="0" style="stop-color:#2AFFE4;stop-opacity:0.6"/>
		<stop  offset="1" style="stop-color:#94FDFF;stop-opacity:0.2"/>
	</linearGradient>
	<path class="st43" d="M95.4,734l-8.8-20.9c-0.3-0.7-0.9-1.2-1.6-1.4l-19.7-3.4c-1.8-0.3-2.5-2.8-1.2-4.3l14.3-16.3
		c0.5-0.6,0.7-1.4,0.6-2.2l-3.4-23c-0.3-2.1,1.6-3.6,3.1-2.7l17.6,10.9c0.6,0.4,1.4,0.4,2,0l17.6-10.9c1.6-1,3.4,0.6,3.1,2.7
		l-3.4,23c-0.1,0.8,0.1,1.6,0.6,2.2l14.3,16.3c1.3,1.5,0.6,4-1.2,4.3l-19.7,3.4c-0.7,0.2-1.4,0.7-1.6,1.4L99.2,734
		c-0.3,1.1-1.4,1.7-2.5,1.4C96.1,735.2,95.5,734.7,95.4,734z"/>
	
		<linearGradient id="SVGID_44_" gradientUnits="userSpaceOnUse" x1="1708.77" y1="948.4956" x2="518.1" y2="948.4956" gradientTransform="matrix(-1 0 0 1 1497.0238 -309.1736)">
		<stop  offset="0" style="stop-color:#2AFFE4;stop-opacity:0.6"/>
		<stop  offset="1" style="stop-color:#94FDFF;stop-opacity:0.2"/>
	</linearGradient>
	<path class="st44" d="M186.9,666.6l-6.2-15.7c-0.2-0.5-0.6-0.9-1.2-1.1l-14.6-2.9c-1-0.4-1.6-1.5-1.2-2.6c0.1-0.2,0.2-0.5,0.4-0.7
		l10.8-11.8c0.4-0.5,0.6-1.1,0.5-1.6l-2.1-17.1c-0.2-1.5,1.2-2.7,2.4-1.9l12.9,8.4c0.5,0.3,1,0.3,1.5,0l13.2-7.7
		c1.2-0.7,2.5,0.5,2.3,2l-2.9,17c-0.1,0.6,0.1,1.2,0.4,1.7l10.3,12.4c0.7,0.9,0.6,2.1-0.3,2.8c-0.2,0.2-0.4,0.3-0.7,0.4l-14.7,2.1
		c-0.6,0.1-1,0.5-1.2,1l-6.9,15.4c-0.3,0.8-1.2,1.2-2,0.9C187.4,667.3,187.1,667,186.9,666.6z"/>
	
		<linearGradient id="SVGID_45_" gradientUnits="userSpaceOnUse" x1="1304.21" y1="946.9016" x2="114.87" y2="946.9016" gradientTransform="matrix(-1 0 0 1 1497.0238 -309.1736)">
		<stop  offset="0" style="stop-color:#2AFFE4;stop-opacity:0.6"/>
		<stop  offset="1" style="stop-color:#94FDFF;stop-opacity:0.2"/>
	</linearGradient>
	<path class="st45" d="M601.3,633.5l-10.9,11.7c-0.4,0.5-0.6,1.1-0.5,1.7L592,664c0.2,1.5-1.2,2.7-2.4,1.9l-12.9-8.5
		c-0.4-0.3-1-0.3-1.5,0L562,665c-1.2,0.7-2.5-0.5-2.3-2l2.9-17c0.1-0.6-0.1-1.2-0.4-1.7L552,631.8c-0.7-0.9-0.6-2.1,0.3-2.8
		c0.2-0.2,0.4-0.3,0.7-0.4l14.7-2c0.6-0.1,1-0.5,1.2-1l6.9-15.3c0.3-0.8,1.2-1.2,1.9-0.9c0.5,0.2,0.8,0.5,0.9,1l6.2,15.8
		c0.2,0.5,0.6,0.9,1.2,1.1l14.5,3c1,0.4,1.5,1.6,1.2,2.6C601.6,633.1,601.5,633.3,601.3,633.5z"/>
	
		<linearGradient id="SVGID_46_" gradientUnits="userSpaceOnUse" x1="1427.6801" y1="860.2563" x2="246.53" y2="860.2563" gradientTransform="matrix(-1 0 0 1 1497.0238 -309.1736)">
		<stop  offset="0" style="stop-color:#2AFFE4;stop-opacity:0.6"/>
		<stop  offset="1" style="stop-color:#94FDFF;stop-opacity:0.2"/>
	</linearGradient>
	<path class="st46" d="M519.1,571l0.6-12.7c0-0.4-0.1-0.9-0.5-1.2l-8.6-7.8c-0.6-0.6-0.6-1.5-0.1-2.1c0.1-0.1,0.3-0.3,0.5-0.3
		l10.5-3.3c0.4-0.1,0.7-0.5,0.8-0.9l3.6-12c0.1-0.6,0.7-1,1.3-0.9c0.3,0.1,0.6,0.3,0.8,0.6l5.9,10.7c0.2,0.4,0.5,0.6,1,0.6l10.9,0.3
		c0.8,0.1,1.3,0.9,1.1,1.7c0,0.2-0.1,0.4-0.3,0.6l-6.8,9.9c-0.3,0.4-0.3,0.8-0.2,1.3l3.1,12.2c0.3,1.1-0.6,2.1-1.5,1.7l-10.1-4.6
		c-0.4-0.2-0.8-0.1-1.1,0.1l-9,7.2C520.1,572.8,519,572.1,519.1,571z"/>
	
		<linearGradient id="SVGID_47_" gradientUnits="userSpaceOnUse" x1="1567.96" y1="865.1772" x2="359.84" y2="865.1772" gradientTransform="matrix(-1 0 0 1 1497.0238 -309.1736)">
		<stop  offset="0" style="stop-color:#2AFFE4;stop-opacity:0.6"/>
		<stop  offset="1" style="stop-color:#94FDFF;stop-opacity:0.2"/>
	</linearGradient>
	<path class="st47" d="M379.2,561.7l8.3-10.5c0.3-0.4,0.4-0.9,0.3-1.4l-2.7-13.9c-0.2-1.3,0.8-2.3,1.8-1.7l11,6
		c0.4,0.2,0.9,0.2,1.2-0.1l10.5-7.3c0.9-0.7,2.1,0.2,2,1.5l-1.4,14.1c-0.1,0.5,0.1,1,0.4,1.3l9.1,9.4c0.6,0.7,0.6,1.7,0,2.3
		c-0.2,0.2-0.4,0.3-0.6,0.4l-11.9,2.7c-0.5,0.1-0.8,0.4-1,0.9l-4.8,13.1c-0.2,0.7-0.8,1.1-1.5,0.9c-0.4-0.1-0.7-0.4-0.9-0.8
		l-5.9-12.4c-0.2-0.4-0.6-0.7-1-0.8l-12.1-1.3c-0.9-0.2-1.4-1.1-1.1-2C378.9,562.1,379,561.9,379.2,561.7z"/>
	
		<linearGradient id="SVGID_48_" gradientUnits="userSpaceOnUse" x1="1670.86" y1="863.8876" x2="561.9" y2="863.8876" gradientTransform="matrix(-1 0 0 1 1497.0238 -309.1736)">
		<stop  offset="0" style="stop-color:#2AFFE4;stop-opacity:0.6"/>
		<stop  offset="1" style="stop-color:#94FDFF;stop-opacity:0.2"/>
	</linearGradient>
	<path class="st48" d="M249.9,542.5l9.7,1.8c0.4,0.1,0.7-0.1,0.9-0.4l6.8-8.4c0.3-0.5,0.9-0.6,1.4-0.3c0.3,0.2,0.5,0.6,0.4,0.9
		l1.6,11.4c0,0.4,0.3,0.7,0.6,0.9l8.9,5c0.6,0.4,0.8,1.3,0.4,1.9c-0.1,0.1-0.2,0.3-0.4,0.4l-8.8,5.2c-0.3,0.2-0.5,0.6-0.6,1
		l-1.3,11.4c-0.1,1-1.2,1.5-1.8,0.7l-7-8.1c-0.2-0.3-0.6-0.4-0.9-0.3l-9.7,2.1c-0.9,0.2-1.5-0.9-1.1-1.8l4.4-10.3
		c0.2-0.4,0.2-0.8,0-1.2l-4.7-10.1C248.4,543.4,249,542.3,249.9,542.5z"/>
	
		<linearGradient id="SVGID_49_" gradientUnits="userSpaceOnUse" x1="1863.4872" y1="851.9777" x2="675.0472" y2="851.9777" gradientTransform="matrix(-1 0 0 1 1497.0238 -309.1736)">
		<stop  offset="0" style="stop-color:#2AFFE4;stop-opacity:0.6"/>
		<stop  offset="1" style="stop-color:#94FDFF;stop-opacity:0.2"/>
	</linearGradient>
	<path class="st49" d="M119.6,519.6l6.5,12.2c0.2,0.4,0.6,0.7,1.1,0.7l12.3,0.7c0.9,0.1,1.5,1,1.3,1.8c0,0.3-0.2,0.5-0.3,0.7
		l-7.9,11c-0.3,0.4-0.4,0.9-0.3,1.4l3.3,13.9c0.3,1.3-0.8,2.3-1.8,1.9l-11.4-5.4c-0.4-0.2-0.9-0.1-1.2,0.2l-10.2,7.9
		c-0.9,0.7-2.1-0.1-2.1-1.4l0.9-14.4c0-0.5-0.1-1-0.5-1.3l-9.6-9c-0.7-0.6-0.7-1.7,0-2.4c0.2-0.2,0.3-0.3,0.5-0.4l11.9-3.5
		c0.5-0.2,0.8-0.5,0.9-1l4.3-13.5c0.2-0.7,0.9-1.1,1.5-0.9C119.2,519,119.4,519.2,119.6,519.6z"/>
	
		<linearGradient id="SVGID_50_" gradientUnits="userSpaceOnUse" x1="1254.97" y1="1310.2816" x2="99.5601" y2="1310.2816" gradientTransform="matrix(-1 0 0 1 1497.0238 -309.1736)">
		<stop  offset="0" style="stop-color:#2AFFE4;stop-opacity:0.6"/>
		<stop  offset="1" style="stop-color:#94FDFF;stop-opacity:0.2"/>
	</linearGradient>
	<path class="st50" d="M375.3,1054.2l-22.1-18.7c-0.7-0.7-1.8-0.8-2.7-0.4l-25.7,10.7c-2.3,1-4.6-1.6-3.8-4.3l8.4-30.5
		c0.3-1.1,0.1-2.2-0.5-3.2l-16.7-25.3c-1.5-2.3-0.1-5.6,2.3-5.6l27.3-0.1c1,0,2-0.6,2.4-1.5l15.4-26.4c1.4-2.4,4.5-1.8,5.3,0.9
		l8.5,30.4c0.3,1,1,1.9,2,2.3l26.2,9c2.3,0.8,2.9,4.4,0.9,6.1l-22,18.9c-0.8,0.7-1.3,1.8-1.2,2.9l0.8,32
		C380.1,1054.1,377.3,1055.8,375.3,1054.2z"/>
	
		<linearGradient id="SVGID_51_" gradientUnits="userSpaceOnUse" x1="1056.24" y1="1319.2739" x2="-117.28" y2="1319.2739" gradientTransform="matrix(-1 0 0 1 1497.0238 -309.1736)">
		<stop  offset="0" style="stop-color:#2AFFE4;stop-opacity:0.6"/>
		<stop  offset="1" style="stop-color:#94FDFF;stop-opacity:0.2"/>
	</linearGradient>
	<path class="st51" d="M497,1028.4l16.8-25.2c0.6-0.9,0.8-2.1,0.5-3.2l-8.3-30.5c-0.7-2.7,1.5-5.3,3.8-4.3l25.7,10.9
		c0.9,0.4,2,0.2,2.7-0.4l22.2-18.6c2-1.7,4.8,0.1,4.7,2.9l-0.9,32c0,1.1,0.4,2.2,1.2,2.9l21.9,19c2,1.7,1.4,5.3-0.9,6.1l-26.2,8.9
		c-1,0.4-1.7,1.2-2,2.2l-8.6,30.3c-0.8,2.7-3.9,3.2-5.3,0.9l-15.3-26.5c-0.5-0.9-1.4-1.5-2.4-1.5l-27.3-0.3
		C496.9,1033.9,495.5,1030.6,497,1028.4z"/>
	
		<linearGradient id="SVGID_52_" gradientUnits="userSpaceOnUse" x1="1440.16" y1="1277.2909" x2="323.09" y2="1277.2909" gradientTransform="matrix(-1 0 0 1 1497.0238 -309.1736)">
		<stop  offset="0" style="stop-color:#2AFFE4;stop-opacity:0.6"/>
		<stop  offset="1" style="stop-color:#94FDFF;stop-opacity:0.2"/>
	</linearGradient>
	<path class="st52" d="M231.5,972.4l-24.8,13.3c-0.9,0.5-1.6,1.5-1.7,2.5l-4.8,31.5c-0.4,2.8-3.4,3.8-5.1,1.7l-18.4-23.6
		c-0.6-0.8-1.6-1.2-2.6-1.1l-27,4.4c-2.4,0.4-4.2-2.6-3-5.1l13.4-27.8c0.5-1,0.5-2.2,0.1-3.2l-11.9-28.8c-1.1-2.6,0.8-5.5,3.3-4.9
		l26.7,6.5c1,0.2,2-0.1,2.6-0.9l19.6-22.2c1.8-2,4.7-0.8,5,2.1l3.1,31.8c0.1,1.1,0.6,2.1,1.5,2.7l24.1,15.1c1.7,1.2,2.1,3.5,0.9,5.2
		C232.3,971.9,231.9,972.2,231.5,972.4z"/>
	
		<linearGradient id="SVGID_53_" gradientUnits="userSpaceOnUse" x1="1665.74" y1="1158.203" x2="472.39" y2="1158.203" gradientTransform="matrix(-1 0 0 1 1497.0238 -309.1736)">
		<stop  offset="0" style="stop-color:#2AFFE4;stop-opacity:0.6"/>
		<stop  offset="1" style="stop-color:#94FDFF;stop-opacity:0.2"/>
	</linearGradient>
	<path class="st53" d="M29.4,898.4l2.3-31.9c0.1-1.1-0.3-2.2-1.1-3L9.4,843.3c-1.9-1.8-1.2-5.4,1.2-6.1l26.6-7.3
		c1-0.3,1.8-1.1,2.1-2.1l9.9-29.8c0.9-2.7,4-3,5.3-0.5l14.2,27.4c0.5,0.9,1.3,1.5,2.4,1.7l27.2,1.8c2.4,0.2,3.7,3.5,2.1,5.7
		l-17.8,24.3c-0.6,0.9-0.9,2.1-0.6,3.1l6.9,31c0.6,2.8-1.8,5.2-4,4.1l-25.2-12.4c-0.9-0.4-2-0.3-2.7,0.3l-22.9,17.3
		C31.9,903.2,29.2,901.3,29.4,898.4z"/>
	
		<linearGradient id="SVGID_54_" gradientUnits="userSpaceOnUse" x1="1672.11" y1="803.817" x2="490.97" y2="803.817" gradientTransform="matrix(-1 0 0 1 1497.0238 -309.1736)">
		<stop  offset="0" style="stop-color:#2AFFE4;stop-opacity:0.6"/>
		<stop  offset="1" style="stop-color:#94FDFF;stop-opacity:0.2"/>
	</linearGradient>
	<path class="st54" d="M333.8,510.2l0.4-9.9c0-0.3-0.1-0.7-0.4-0.9l-6.7-6.1c-0.5-0.4-0.5-1.2-0.1-1.6c0.1-0.1,0.2-0.2,0.4-0.3
		l8.2-2.6c0.3-0.1,0.5-0.4,0.6-0.7l2.8-9.4c0.1-0.5,0.5-0.8,1-0.7c0.3,0,0.5,0.2,0.6,0.5l4.6,8.3c0.1,0.3,0.4,0.5,0.7,0.5l8.5,0.3
		c0.6,0.1,1,0.7,0.9,1.3c0,0.2-0.1,0.3-0.2,0.5l-5.3,7.7c-0.2,0.3-0.3,0.7-0.2,1l2.4,9.5c0.2,0.8-0.5,1.6-1.2,1.3l-7.9-3.6
		c-0.3-0.1-0.6-0.1-0.8,0.1l-7,5.6C334.6,511.7,333.8,511.1,333.8,510.2z"/>
	
		<linearGradient id="SVGID_55_" gradientUnits="userSpaceOnUse" x1="1449.25" y1="797.6984" x2="263.26" y2="797.6984" gradientTransform="matrix(-1 0 0 1 1497.0238 -309.1736)">
		<stop  offset="0" style="stop-color:#2AFFE4;stop-opacity:0.6"/>
		<stop  offset="1" style="stop-color:#94FDFF;stop-opacity:0.2"/>
	</linearGradient>
	<path class="st55" d="M576,486.1l-6.4,6.8c-0.2,0.3-0.4,0.6-0.3,1l1.1,10c0.1,0.9-0.7,1.5-1.4,1.1l-7.5-5c-0.3-0.2-0.6-0.2-0.9,0
		l-7.8,4.3c-0.7,0.4-1.5-0.3-1.3-1.2l1.8-9.9c0.1-0.4,0-0.7-0.2-1l-5.9-7.3c-0.4-0.5-0.3-1.2,0.1-1.6c0.1-0.1,0.3-0.2,0.4-0.2
		l8.6-1.1c0.3,0,0.6-0.3,0.7-0.6l4.1-8.9c0.2-0.5,0.7-0.7,1.1-0.5c0.3,0.1,0.5,0.3,0.5,0.6l3.5,9.2c0.1,0.3,0.4,0.5,0.7,0.6l8.5,1.8
		c0.6,0.2,0.9,0.9,0.6,1.5C576.1,485.9,576.1,486,576,486.1z"/>
	
		<linearGradient id="SVGID_56_" gradientUnits="userSpaceOnUse" x1="1620.24" y1="753.5831" x2="439.09" y2="753.5831" gradientTransform="matrix(-1 0 0 1 1497.0238 -309.1736)">
		<stop  offset="0" style="stop-color:#2AFFE4;stop-opacity:0.6"/>
		<stop  offset="1" style="stop-color:#94FDFF;stop-opacity:0.2"/>
	</linearGradient>
	<path class="st56" d="M428.4,453.7l0.3-6c0-0.2-0.1-0.4-0.2-0.5l-4-3.6c-0.3-0.3-0.3-0.7,0-1c0.1-0.1,0.1-0.1,0.2-0.2l4.9-1.5
		c0.2-0.1,0.3-0.2,0.4-0.4l1.7-5.6c0-0.3,0.2-0.5,0.5-0.5c0.2,0,0.4,0.2,0.5,0.4l2.8,5c0.1,0.2,0.3,0.3,0.5,0.3l5.1,0.2
		c0.4,0.1,0.6,0.4,0.5,0.8c0,0.1-0.1,0.2-0.1,0.2l-3.2,4.6c-0.1,0.2-0.1,0.4-0.1,0.6l1.4,5.7c0.1,0.5-0.3,1-0.7,0.8l-4.7-2.1
		c-0.2-0.1-0.4-0.1-0.5,0.1l-4.2,3.4C428.8,454.5,428.3,454.2,428.4,453.7z"/>
	
		<linearGradient id="SVGID_57_" gradientUnits="userSpaceOnUse" x1="1798.3199" y1="754.5833" x2="667.47" y2="754.5833" gradientTransform="matrix(-1 0 0 1 1497.0238 -309.1736)">
		<stop  offset="0" style="stop-color:#2AFFE4;stop-opacity:0.6"/>
		<stop  offset="1" style="stop-color:#94FDFF;stop-opacity:0.2"/>
	</linearGradient>
	<path class="st57" d="M241.2,458.3l-5-5c-0.2-0.2-0.4-0.2-0.6-0.2l-6.4,2c-0.6,0.2-1.1-0.5-0.8-1.1l2.5-7.1
		c0.1-0.3,0.1-0.5-0.1-0.8l-3.6-6.5c-0.3-0.4-0.2-0.9,0.2-1.2c0.1-0.1,0.3-0.1,0.4-0.1l6.6,0.6c0.2,0,0.5-0.1,0.6-0.3l4.2-6
		c0.2-0.3,0.7-0.4,1-0.2c0.2,0.1,0.3,0.3,0.3,0.5l1.5,7.5c0,0.3,0.2,0.5,0.4,0.6l6.1,2.8c0.4,0.3,0.6,0.8,0.3,1.2
		c-0.1,0.1-0.1,0.2-0.2,0.3l-5.6,4c-0.2,0.2-0.3,0.4-0.3,0.7l-0.4,7.7C242.3,458.4,241.6,458.8,241.2,458.3z"/>
	
		<linearGradient id="SVGID_58_" gradientUnits="userSpaceOnUse" x1="1952.7908" y1="894.9435" x2="821.9407" y2="894.9435" gradientTransform="matrix(-0.8372 0.547 0.547 0.8372 747.1551 -916.635)">
		<stop  offset="0" style="stop-color:#2AFFE4;stop-opacity:0.6"/>
		<stop  offset="1" style="stop-color:#94FDFF;stop-opacity:0.2"/>
	</linearGradient>
	<path class="st58" d="M63.1,614.8l-6.9-1.5c-0.3-0.1-0.4,0.1-0.6,0.2l-4.3,5.2c-0.4,0.5-1.2,0.2-1.3-0.5l-1.8-7.3
		c-0.1-0.3-0.2-0.5-0.5-0.6l-6.6-3.5c-0.5-0.2-0.7-0.6-0.5-1.1c0-0.1,0.2-0.2,0.3-0.3l5.9-3.1c0.2-0.1,0.4-0.4,0.3-0.6l0.2-7.3
		c0-0.4,0.4-0.7,0.7-0.7c0.2,0,0.4,0.1,0.5,0.3l5.4,5.5c0.2,0.3,0.4,0.3,0.7,0.3l6.6-1c0.5,0,0.9,0.3,0.9,0.8c0,0.1,0,0.2,0,0.4
		l-2.5,6.4c-0.1,0.3,0,0.5,0.1,0.8l3.9,6.7C64.1,614.3,63.7,615,63.1,614.8z"/>
	
		<linearGradient id="SVGID_59_" gradientUnits="userSpaceOnUse" x1="1821.3" y1="806.7977" x2="709.53" y2="806.7977" gradientTransform="matrix(-1 0 0 1 1497.0238 -309.1736)">
		<stop  offset="0" style="stop-color:#2AFFE4;stop-opacity:0.6"/>
		<stop  offset="1" style="stop-color:#94FDFF;stop-opacity:0.2"/>
	</linearGradient>
	<path class="st59" d="M163.1,510l-0.8-7.7c0-0.3-0.2-0.5-0.4-0.6l-5.9-3.5c-0.4-0.3-0.5-0.9-0.2-1.3c0.1-0.1,0.1-0.2,0.2-0.2l6-3.3
		c0.2-0.1,0.4-0.4,0.4-0.6l1.1-7.6c0-0.4,0.3-0.7,0.7-0.7c0.2,0,0.4,0.1,0.5,0.2l4.5,5.6c0.1,0.2,0.4,0.3,0.6,0.3l6.5-1.2
		c0.6-0.1,1,0.6,0.7,1.2l-3.2,6.8c-0.1,0.2-0.1,0.5,0,0.8l3,6.9c0.3,0.6-0.2,1.3-0.8,1.2l-6.5-1.4c-0.2-0.1-0.5,0-0.6,0.2l-4.7,5.4
		C163.9,511,163.2,510.7,163.1,510z"/>
	
		<linearGradient id="SVGID_60_" gradientUnits="userSpaceOnUse" x1="1913.1923" y1="904.1711" x2="801.4222" y2="904.1711" gradientTransform="matrix(0.4647 -0.8855 -0.5852 -0.3071 -90.8226 2032.8501)">
		<stop  offset="0" style="stop-color:#2AFFE4;stop-opacity:0.6"/>
		<stop  offset="1" style="stop-color:#94FDFF;stop-opacity:0.2"/>
	</linearGradient>
	<path class="st60" d="M35.4,488.9l4.9,1.7c0.2,0.1,0.4,0,0.5-0.2l4.8-4.1c0.4-0.3,0.8-0.2,0.9,0.2c0,0.1,0.1,0.1,0,0.2l-0.9,6.3
		c0,0.2,0,0.5,0.2,0.5l3.9,3.3c0.2,0.1,0.3,0.5,0.1,0.8c-0.1,0.2-0.2,0.3-0.3,0.4l-5.4,2.3c-0.2,0-0.4,0.3-0.5,0.4l-2.3,6.1
		c-0.2,0.6-0.8,0.7-1,0.3l-2.5-4.9c-0.1-0.1-0.2-0.2-0.5-0.2l-5.4,0.5c-0.5,0.1-0.7-0.6-0.3-1.1l3.8-5.3c0.2-0.1,0.2-0.4,0.2-0.6
		l-1-5.8C34.4,489.3,34.9,488.7,35.4,488.9z"/>
	
		<linearGradient id="SVGID_61_" gradientUnits="userSpaceOnUse" x1="1543.7" y1="810.7153" x2="341.77" y2="810.7153" gradientTransform="matrix(-1 0 0 1 1497.0238 -309.1736)">
		<stop  offset="0" style="stop-color:#2AFFE4;stop-opacity:0.6"/>
		<stop  offset="1" style="stop-color:#94FDFF;stop-opacity:0.2"/>
	</linearGradient>
	<path class="st61" d="M466.7,513.9l-3.3-6.7c-0.1-0.2-0.3-0.4-0.6-0.4l-6.6-0.6c-0.5-0.1-0.8-0.6-0.6-1.1c0-0.1,0.1-0.2,0.2-0.3
		l4.4-5.7c0.2-0.2,0.2-0.5,0.2-0.8l-1.5-7.5c-0.1-0.7,0.4-1.2,1-1l6,3.1c0.2,0.1,0.5,0.1,0.7,0l5.6-4c0.5-0.4,1.2,0.1,1.1,0.8
		l-0.7,7.7c0,0.3,0.1,0.5,0.3,0.7l5,5c0.3,0.4,0.3,0.9,0,1.3c-0.1,0.1-0.2,0.1-0.3,0.2l-6.4,1.6c-0.2,0.1-0.4,0.3-0.5,0.5l-2.5,7.1
		c-0.1,0.4-0.5,0.6-0.8,0.5C466.9,514.2,466.8,514.1,466.7,513.9z"/>
	
		<linearGradient id="SVGID_62_" gradientUnits="userSpaceOnUse" x1="1928.64" y1="701.7332" x2="747.49" y2="701.7332" gradientTransform="matrix(-1 0 0 1 1497.0238 -309.1736)">
		<stop  offset="0" style="stop-color:#2AFFE4;stop-opacity:0.6"/>
		<stop  offset="1" style="stop-color:#94FDFF;stop-opacity:0.2"/>
	</linearGradient>
	<path class="st62" d="M176,401.8l0.3-5.9c0-0.2-0.1-0.4-0.2-0.5l-4-3.6c-0.3-0.3-0.3-0.7,0-1c0.1-0.1,0.1-0.1,0.2-0.2l4.9-1.5
		c0.2-0.1,0.3-0.2,0.4-0.4l1.7-5.6c0-0.3,0.3-0.5,0.6-0.5c0.2,0,0.4,0.1,0.4,0.3l2.8,5c0.1,0.2,0.3,0.3,0.4,0.3l5.1,0.2
		c0.4,0.1,0.6,0.4,0.5,0.8c0,0.1,0,0.1-0.1,0.2l-3.2,4.6c-0.1,0.2-0.1,0.4-0.1,0.6l1.4,5.7c0.1,0.5-0.3,1-0.7,0.8l-4.7-2.1
		c-0.2-0.1-0.4,0-0.5,0.1l-4.2,3.4C176.5,402.6,176,402.3,176,401.8z"/>
	
		<linearGradient id="SVGID_63_" gradientUnits="userSpaceOnUse" x1="1998.6824" y1="694.9292" x2="817.5322" y2="694.9292" gradientTransform="matrix(7.393245e-02 0.9973 0.9973 -7.393245e-02 -752.7533 -938.8358)">
		<stop  offset="0" style="stop-color:#2AFFE4;stop-opacity:0.6"/>
		<stop  offset="1" style="stop-color:#94FDFF;stop-opacity:0.2"/>
	</linearGradient>
	<path class="st63" d="M52.3,396.4l-5.9,0.1c-0.2,0-0.4,0.1-0.5,0.2l-3.3,4.3c-0.3,0.3-0.7,0.4-1,0.1c-0.1-0.1-0.1-0.1-0.2-0.2
		l-1.9-4.8c-0.1-0.2-0.2-0.3-0.4-0.4l-5.7-1.3c-0.3,0-0.5-0.3-0.5-0.6c0-0.2,0.1-0.4,0.3-0.4l4.8-3.2c0.2-0.1,0.3-0.3,0.3-0.4
		l-0.2-5.1c0.1-0.4,0.4-0.6,0.8-0.6c0.1,0,0.1,0,0.2,0.1l4.8,2.9c0.2,0.1,0.4,0.1,0.6,0.1l5.6-1.8c0.5-0.1,1,0.2,0.8,0.6l-1.7,4.8
		c-0.1,0.2,0,0.4,0.1,0.5l3.7,3.9C53.1,395.8,52.8,396.3,52.3,396.4z"/>
	
		<linearGradient id="SVGID_64_" gradientUnits="userSpaceOnUse" x1="1534.88" y1="710.2325" x2="385.08" y2="710.2325" gradientTransform="matrix(-1 0 0 1 1497.0238 -309.1736)">
		<stop  offset="0" style="stop-color:#2AFFE4;stop-opacity:0.6"/>
		<stop  offset="1" style="stop-color:#94FDFF;stop-opacity:0.2"/>
	</linearGradient>
	<path class="st64" d="M543.7,405.7l-5.1-0.1c-0.2,0-0.4,0.1-0.5,0.3l-2.9,4.8c-0.1,0.3-0.4,0.4-0.7,0.3c-0.2-0.1-0.3-0.3-0.3-0.5
		l-1.5-5.7c0-0.2-0.2-0.4-0.4-0.4l-4.8-1.8c-0.3-0.2-0.5-0.6-0.3-0.9c0-0.1,0.1-0.2,0.2-0.2l4.1-3.4c0.2-0.1,0.2-0.3,0.2-0.5v-5.9
		c0-0.5,0.5-0.8,0.9-0.5l4,3.6c0.1,0.1,0.3,0.2,0.5,0.1l4.8-1.9c0.4-0.2,0.8,0.3,0.7,0.8l-1.7,5.6c-0.1,0.2,0,0.4,0.1,0.6l3,4.8
		C544.2,405.1,544.1,405.5,543.7,405.7C543.9,405.6,543.8,405.7,543.7,405.7z"/>
	
		<linearGradient id="SVGID_65_" gradientUnits="userSpaceOnUse" x1="1925.45" y1="762.9599" x2="770.8201" y2="762.9599" gradientTransform="matrix(-1 0 0 1 1497.0238 -309.1736)">
		<stop  offset="0" style="stop-color:#2AFFE4;stop-opacity:0.6"/>
		<stop  offset="1" style="stop-color:#94FDFF;stop-opacity:0.2"/>
	</linearGradient>
	<path class="st65" d="M120.9,468l-4.3-6.8c-0.1-0.2-0.4-0.4-0.7-0.4l-7.2,0.3c-0.5-0.1-0.9-0.6-0.8-1.1c0-0.1,0.1-0.3,0.1-0.4
		l4.2-7c0.2-0.3,0.2-0.6,0.1-0.8l-2.5-8c-0.2-0.7,0.3-1.4,1-1.2l6.9,2.5c0.2,0.1,0.5,0,0.7-0.2l5.6-5.2c0.5-0.5,1.3,0,1.3,0.7
		l0.1,8.5c0,0.3,0.1,0.6,0.3,0.8l6,4.7c0.4,0.4,0.5,1,0.1,1.4c-0.1,0.1-0.2,0.2-0.3,0.2l-6.8,2.7c-0.3,0.1-0.5,0.4-0.5,0.6l-2,8.2
		c-0.1,0.4-0.5,0.6-0.9,0.5C121.1,468.1,121,468.1,120.9,468z"/>
	
		<linearGradient id="SVGID_66_" gradientUnits="userSpaceOnUse" x1="1451.47" y1="684.4724" x2="296.84" y2="684.4724" gradientTransform="matrix(-1 0 0 1 1497.0238 -309.1736)">
		<stop  offset="0" style="stop-color:#2AFFE4;stop-opacity:0.6"/>
		<stop  offset="1" style="stop-color:#94FDFF;stop-opacity:0.2"/>
	</linearGradient>
	<path class="st66" d="M639.7,389.3l-4.3-6.8c-0.1-0.2-0.4-0.4-0.7-0.4l-7.2,0.3c-0.5-0.1-0.9-0.5-0.8-1c0-0.2,0.1-0.3,0.2-0.4
		l4.2-6.9c0.2-0.3,0.2-0.6,0.1-0.8l-2.5-8c-0.2-0.7,0.3-1.4,1-1.2l6.9,2.5c0.3,0.1,0.5,0,0.7-0.2l5.7-5.3c0.5-0.5,1.3,0,1.3,0.7
		l0.1,8.5c0,0.3,0.1,0.6,0.3,0.8l6,4.7c0.4,0.4,0.5,1,0.1,1.4c-0.1,0.1-0.2,0.2-0.3,0.2l-6.8,2.8c-0.3,0.1-0.4,0.3-0.5,0.6l-2,8.2
		c0,0.4-0.4,0.7-0.8,0.7C640.1,389.6,639.8,389.5,639.7,389.3z"/>
	
		<linearGradient id="SVGID_67_" gradientUnits="userSpaceOnUse" x1="1753.42" y1="701.6638" x2="586.98" y2="701.6638" gradientTransform="matrix(-1 0 0 1 1497.0238 -309.1736)">
		<stop  offset="0" style="stop-color:#2AFFE4;stop-opacity:0.6"/>
		<stop  offset="1" style="stop-color:#94FDFF;stop-opacity:0.2"/>
	</linearGradient>
	<path class="st67" d="M332.6,396.1l3-4.8c0.1-0.2,0.1-0.4,0.1-0.6l-1.6-5.6c-0.2-0.5,0.3-1,0.7-0.8l4.8,1.9c0.2,0.1,0.4,0,0.5-0.1
		l4.1-3.5c0.4-0.3,0.9,0,0.9,0.5L345,389c0,0.2,0.1,0.4,0.2,0.5l4.1,3.4c0.3,0.3,0.3,0.7,0,1c-0.1,0.1-0.1,0.1-0.2,0.2l-4.8,1.8
		c-0.2,0.1-0.3,0.2-0.4,0.4l-1.5,5.7c0,0.3-0.3,0.5-0.5,0.5s-0.4-0.1-0.5-0.3l-2.9-4.9c-0.1-0.2-0.3-0.3-0.5-0.3l-5.1,0.1
		c-0.4-0.1-0.6-0.4-0.5-0.8C332.5,396.3,332.5,396.2,332.6,396.1z"/>
	
		<linearGradient id="SVGID_68_" gradientUnits="userSpaceOnUse" x1="1589.3199" y1="1095.8158" x2="426.9501" y2="1095.8158" gradientTransform="matrix(-1 0 0 1 1497.0238 -309.1736)">
		<stop  offset="0" style="stop-color:#2AFFE4;stop-opacity:0.6"/>
		<stop  offset="1" style="stop-color:#94FDFF;stop-opacity:0.2"/>
	</linearGradient>
	<path class="st68" d="M157,826.1l0.1-25c0-0.9-0.4-1.7-1-2.2l-17.5-14.3c-1.2-1.1-1.3-2.9-0.3-4.1c0.2-0.3,0.6-0.5,0.9-0.7
		l20.3-7.6c0.8-0.3,1.3-1,1.5-1.8l6.2-24c0.6-2.2,3-2.6,4.1-0.8l12.5,20.3c0.4,0.7,1.1,1.1,1.9,1.1l21.3-0.5c1.9,0,3,2.5,1.9,4.3
		L196.3,791c-0.5,0.7-0.6,1.7-0.3,2.5l7,23.6c0.6,2.1-1.1,4.2-2.9,3.5l-20.3-7.8c-0.7-0.3-1.6-0.1-2.1,0.4l-17,15.1
		C159.1,829.6,156.9,828.3,157,826.1z"/>
	
		<linearGradient id="SVGID_69_" gradientUnits="userSpaceOnUse" x1="1698.9014" y1="1319.9048" x2="536.5414" y2="1319.9048" gradientTransform="matrix(-1.1127 0.3761 0.3202 0.9473 1241.8038 -780.6995)">
		<stop  offset="0" style="stop-color:#2AFFE4;stop-opacity:0.6"/>
		<stop  offset="1" style="stop-color:#94FDFF;stop-opacity:0.2"/>
	</linearGradient>
	<path class="st69" d="M64.1,1052.3l-7.9-23.7c-0.3-0.9-0.9-1.5-1.8-1.7l-24.1-7.1c-1.7-0.6-2.4-2.3-1.6-3.8c0.2-0.4,0.5-0.7,0.8-1
		l20.2-14.8c0.8-0.6,1.1-1.4,1.1-2.3l-0.8-25.1c0-2.2,2.5-3.6,4.3-2.3l20.4,14.5c0.7,0.5,1.6,0.6,2.5,0.3l23.5-8.5
		c2.1-0.7,4.1,1.2,3.5,3.4l-7.6,23.9c-0.3,0.9-0.1,1.8,0.5,2.5l15.4,19.8c1.3,1.8,0.1,4.4-2.1,4.4l-25.1,0.2c-0.9,0-1.8,0.5-2.2,1.2
		L68.9,1053C67.6,1054.8,64.8,1054.4,64.1,1052.3z"/>
	
		<linearGradient id="SVGID_70_" gradientUnits="userSpaceOnUse" x1="1238.27" y1="1145.2521" x2="61.17" y2="1145.2521" gradientTransform="matrix(-1 0 0 1 1497.0238 -309.1736)">
		<stop  offset="0" style="stop-color:#2AFFE4;stop-opacity:0.6"/>
		<stop  offset="1" style="stop-color:#94FDFF;stop-opacity:0.2"/>
	</linearGradient>
	<path class="st70" d="M440.6,877l6-28.8c0.2-1,0-2.1-0.6-2.9l-16.8-22.1c-1.5-2-0.4-5.1,1.8-5.3l25.2-2.2c0.9-0.1,1.8-0.7,2.2-1.6
		l12.7-25.6c0.5-1.3,2-2,3.4-1.4c0.8,0.3,1.3,1,1.5,1.8l9.6,27.5c0.3,0.9,1.1,1.7,2,1.9l24.7,6.3c2.2,0.6,2.9,3.9,1.2,5.6
		l-19.3,19.2c-0.7,0.7-1.1,1.8-1,2.8l2.5,29.5c0.2,2.6-2.2,4.5-4.2,3.1L470,868.9c-0.7-0.6-1.7-0.6-2.5-0.2l-23.1,12
		C442.3,881.7,440,879.5,440.6,877z"/>
	
		<linearGradient id="SVGID_71_" gradientUnits="userSpaceOnUse" x1="1428.35" y1="1143.0754" x2="226.26" y2="1143.0754" gradientTransform="matrix(-1 0 0 1 1497.0238 -309.1736)">
		<stop  offset="0" style="stop-color:#2AFFE4;stop-opacity:0.6"/>
		<stop  offset="1" style="stop-color:#94FDFF;stop-opacity:0.2"/>
	</linearGradient>
	<path class="st71" d="M336.8,847.3l-25,4.6c-0.9,0.2-1.7,0.9-2,1.8l-10.9,26.8c-0.4,1.4-1.9,2.1-3.2,1.7c-0.8-0.2-1.4-0.9-1.7-1.6
		l-11.5-26.4c-0.4-0.9-1.1-1.6-2.1-1.7l-25.1-3.9c-2.3-0.3-3.2-3.6-1.6-5.5l17.9-21c0.7-0.8,0.9-1.8,0.8-2.9l-4.6-29.2
		c-0.4-2.6,1.9-4.7,3.9-3.5l22.5,13.5c0.8,0.5,1.8,0.5,2.6,0l22.2-14.1c2-1.3,4.4,0.7,4,3.3l-4,29.3c-0.2,1,0.1,2,0.8,2.8l18.3,20.4
		C339.9,843.6,339,846.9,336.8,847.3z"/>
	
		<linearGradient id="SVGID_72_" gradientUnits="userSpaceOnUse" x1="1329.35" y1="833.612" x2="164.7" y2="833.612" gradientTransform="matrix(-1 0 0 1 1497.0238 -309.1736)">
		<stop  offset="0" style="stop-color:#2AFFE4;stop-opacity:0.6"/>
		<stop  offset="1" style="stop-color:#94FDFF;stop-opacity:0.2"/>
	</linearGradient>
	<path class="st72" d="M630,544.5l0.1-12.8c0-0.4-0.2-0.9-0.5-1.1l-8.9-7.3c-0.6-0.5-0.7-1.5-0.1-2.1c0.1-0.2,0.3-0.3,0.5-0.4
		l10.4-3.8c0.4-0.2,0.7-0.5,0.8-0.9l3.2-12.2c0.1-0.6,0.6-1,1.2-1c0.4,0,0.7,0.3,0.8,0.6l6.3,10.4c0.2,0.4,0.6,0.6,1,0.6l10.9-0.2
		c0.8,0.1,1.3,0.8,1.2,1.6c0,0.2-0.1,0.5-0.2,0.7l-6.5,10.2c-0.2,0.4-0.3,0.8-0.2,1.3l3.5,12.1c0.3,1.1-0.6,2.1-1.5,1.8l-10.3-4.1
		c-0.4-0.2-0.8-0.1-1.1,0.2l-8.7,7.7C631.1,546.3,630,545.7,630,544.5z"/>
</g>
<linearGradient id="SVGID_73_" gradientUnits="userSpaceOnUse" x1="934.4515" y1="87.4322" x2="-258.1884" y2="87.4322" gradientTransform="matrix(1 0 0 -1 0 1136)">
	<stop  offset="0" style="stop-color:#2AFFE4;stop-opacity:0.6"/>
	<stop  offset="1" style="stop-color:#94FDFF;stop-opacity:0.2"/>
</linearGradient>
<path class="st73" d="M102.1,1057.2l0.9-5.8c0-0.2,0-0.4-0.1-0.6l-3.6-4.2c-0.2-0.3-0.2-0.7,0.1-0.9c0.1-0.1,0.2-0.1,0.3-0.1l5-0.8
	c0.2,0,0.3-0.2,0.4-0.3l2.3-5.3c0.1-0.3,0.3-0.5,0.6-0.4c0.2,0,0.4,0.2,0.4,0.4l2.2,5.4c0.1,0.2,0.2,0.3,0.4,0.4l5,1
	c0.4,0.1,0.6,0.5,0.5,0.9c0,0.1-0.1,0.2-0.2,0.3l-3.7,4c-0.1,0.2-0.2,0.4-0.2,0.6l0.8,5.9c0.1,0.5-0.4,0.9-0.8,0.7l-4.4-2.8
	c-0.2-0.1-0.4-0.1-0.5,0l-4.5,2.7C102.5,1058.2,102,1057.7,102.1,1057.2z"/>
<linearGradient id="SVGID_74_" gradientUnits="userSpaceOnUse" x1="936.3018" y1="102.1978" x2="-176.1782" y2="102.1978" gradientTransform="matrix(1 0 0 -1 0 1136)">
	<stop  offset="0" style="stop-color:#2AFFE4;stop-opacity:0.6"/>
	<stop  offset="1" style="stop-color:#94FDFF;stop-opacity:0.2"/>
</linearGradient>
<path class="st74" d="M250.5,1043.8l-3.6-4.2c-0.1-0.1-0.3-0.2-0.5-0.2l-5,1.2c-0.5,0.1-0.8-0.4-0.6-0.9l2.2-5.3
	c0.1-0.2,0.1-0.4,0-0.6l-2.5-5.2c-0.2-0.5,0.1-1,0.5-1l5,0.9c0.2,0,0.4-0.1,0.5-0.2l3.4-4.4c0.2-0.2,0.5-0.3,0.7-0.1
	c0.1,0.1,0.2,0.2,0.2,0.4l0.9,5.8c0,0.2,0.1,0.4,0.3,0.5l4.6,2.5c0.3,0.2,0.4,0.6,0.2,1c-0.1,0.1-0.1,0.1-0.2,0.2l-4.5,2.8
	c-0.2,0.1-0.3,0.3-0.3,0.5l-0.6,5.9c0,0.3-0.2,0.5-0.5,0.6C250.7,1043.9,250.6,1043.9,250.5,1043.8z"/>
<linearGradient id="SVGID_75_" gradientUnits="userSpaceOnUse" x1="1317.4838" y1="149.8923" x2="207.1937" y2="149.8923" gradientTransform="matrix(1 0 0 -1 0 1136)">
	<stop  offset="0" style="stop-color:#2AFFE4;stop-opacity:0.6"/>
	<stop  offset="1" style="stop-color:#94FDFF;stop-opacity:0.2"/>
</linearGradient>
<path class="st75" d="M654.8,992.5l-5-0.9c-0.2,0-0.4,0-0.5,0.2l-3.5,4.3c-0.2,0.2-0.5,0.3-0.7,0.1c-0.1-0.1-0.2-0.3-0.2-0.4
	l-0.8-5.9c0-0.2-0.1-0.4-0.3-0.5l-4.6-2.5c-0.3-0.2-0.4-0.7-0.2-1c0.1-0.1,0.1-0.1,0.2-0.2l4.5-2.7c0.2-0.1,0.3-0.3,0.3-0.5l0.6-5.9
	c0-0.3,0.2-0.5,0.5-0.6c0.2,0,0.3,0.1,0.4,0.2l3.6,4.2c0.1,0.1,0.3,0.2,0.5,0.2l5-1.1c0.5-0.1,0.8,0.4,0.6,0.9l-2.3,5.3
	c-0.1,0.2-0.1,0.4,0,0.6l2.4,5.2C655.6,992,655.2,992.6,654.8,992.5z"/>
<linearGradient id="SVGID_76_" gradientUnits="userSpaceOnUse" x1="1355.9418" y1="350.6216" x2="151.7418" y2="350.6216" gradientTransform="matrix(1 0 0 -1 0 1136)">
	<stop  offset="0" style="stop-color:#2AFFE4;stop-opacity:0.6"/>
	<stop  offset="1" style="stop-color:#94FDFF;stop-opacity:0.2"/>
</linearGradient>
<path class="st76" d="M630.5,787.1l3.6-4.2c0.1-0.2,0.2-0.4,0.1-0.6l-1-5.8c-0.1-0.5,0.4-0.9,0.8-0.7l4.5,2.7c0.2,0.1,0.4,0.1,0.5,0
	l4.4-2.9c0.4-0.3,0.9,0.1,0.8,0.7l-0.8,5.9c0,0.2,0,0.4,0.2,0.6l3.7,4.1c0.3,0.3,0.2,0.7-0.1,1c-0.1,0.1-0.1,0.1-0.2,0.1l-5,1
	c-0.2,0-0.3,0.2-0.4,0.4l-2.1,5.4c-0.1,0.3-0.4,0.4-0.6,0.4s-0.3-0.2-0.4-0.4l-2.3-5.3c-0.1-0.2-0.2-0.3-0.4-0.3l-5-0.7
	c-0.4-0.1-0.6-0.4-0.5-0.8C630.3,787.3,630.4,787.2,630.5,787.1z"/>
<linearGradient id="SVGID_77_" gradientUnits="userSpaceOnUse" x1="1667.1207" y1="285.2903" x2="460.1407" y2="285.2903" gradientTransform="matrix(1 0 0 -1 0 1136)">
	<stop  offset="0" style="stop-color:#2AFFE4;stop-opacity:0.6"/>
	<stop  offset="1" style="stop-color:#94FDFF;stop-opacity:0.2"/>
</linearGradient>
<path class="st77" d="M964.1,860.1l-2.5-5.2c-0.1-0.2-0.2-0.3-0.4-0.3l-5-0.5c-0.4-0.1-0.6-0.5-0.5-0.8c0-0.1,0.1-0.2,0.1-0.3
	l3.4-4.4c0.1-0.2,0.2-0.4,0.1-0.6l-1.1-5.8c-0.1-0.5,0.3-1,0.8-0.7l4.6,2.5c0.2,0.1,0.4,0.1,0.5,0l4.3-3c0.4-0.3,0.9,0.1,0.8,0.6
	l-0.6,5.9c0,0.2,0,0.4,0.2,0.6l3.8,3.9c0.3,0.3,0.3,0.7,0,1c-0.1,0.1-0.1,0.1-0.2,0.1l-5,1.2c-0.2,0.1-0.3,0.2-0.4,0.4l-2,5.5
	c-0.1,0.3-0.4,0.4-0.7,0.2C964.3,860.3,964.2,860.2,964.1,860.1z"/>
<linearGradient id="SVGID_78_" gradientUnits="userSpaceOnUse" x1="1775.9568" y1="125.8996" x2="568.9868" y2="125.8996" gradientTransform="matrix(1 0 0 -1 0 1136)">
	<stop  offset="0" style="stop-color:#2AFFE4;stop-opacity:0.6"/>
	<stop  offset="1" style="stop-color:#94FDFF;stop-opacity:0.2"/>
</linearGradient>
<path class="st78" d="M873.1,1019.4l-2.5-5.2c-0.1-0.2-0.2-0.3-0.4-0.3l-5-0.5c-0.4-0.1-0.6-0.4-0.5-0.8c0-0.1,0.1-0.2,0.1-0.3
	l3.4-4.4c0.1-0.2,0.2-0.4,0.1-0.6l-1.1-5.8c-0.1-0.5,0.3-1,0.8-0.7l4.6,2.5c0.2,0.1,0.4,0.1,0.5,0l4.3-3c0.4-0.3,0.9,0.1,0.8,0.6
	l-0.6,5.9c0,0.2,0,0.4,0.2,0.6l3.8,3.9c0.3,0.3,0.3,0.7,0,1c-0.1,0.1-0.1,0.1-0.2,0.1l-5,1.2c-0.2,0.1-0.3,0.2-0.4,0.4l-2,5.5
	c-0.1,0.3-0.3,0.5-0.6,0.4C873.2,1019.7,873.1,1019.6,873.1,1019.4z"/>
<linearGradient id="SVGID_79_" gradientUnits="userSpaceOnUse" x1="1737.8268" y1="349.1172" x2="606.6268" y2="349.1172" gradientTransform="matrix(1 0 0 -1 0 1136)">
	<stop  offset="0" style="stop-color:#2AFFE4;stop-opacity:0.6"/>
	<stop  offset="1" style="stop-color:#94FDFF;stop-opacity:0.2"/>
</linearGradient>
<path class="st79" d="M1086.4,786.9l-4.3,3.1c-0.2,0.1-0.3,0.3-0.3,0.5l-0.3,5.9c0,0.5-0.6,0.8-0.9,0.5l-3.8-3.9
	c-0.1-0.1-0.3-0.2-0.5-0.1l-4.9,1.5c-0.4,0.1-0.8-0.4-0.7-0.9l2-5.5c0.1-0.2,0.1-0.4,0-0.6l-2.8-5c-0.2-0.3-0.1-0.7,0.2-0.9
	c0.1-0.1,0.2-0.1,0.3-0.1l5,0.5c0.2,0,0.4-0.1,0.5-0.2l3.2-4.6c0.1-0.3,0.5-0.4,0.7-0.2c0.2,0.1,0.3,0.3,0.3,0.5l1.2,5.8
	c0,0.2,0.2,0.4,0.3,0.5l4.7,2.1c0.3,0.2,0.5,0.6,0.3,0.9C1086.5,786.7,1086.5,786.8,1086.4,786.9z"/>
<linearGradient id="SVGID_80_" gradientUnits="userSpaceOnUse" x1="2093.9895" y1="265.3481" x2="902.1796" y2="265.3481" gradientTransform="matrix(1 0 0 -1 0 1136)">
	<stop  offset="0" style="stop-color:#2AFFE4;stop-opacity:0.6"/>
	<stop  offset="1" style="stop-color:#94FDFF;stop-opacity:0.2"/>
</linearGradient>
<path class="st80" d="M1300.9,879.8l0.4-5.9c0-0.2-0.1-0.4-0.2-0.5l-3.9-3.7c-0.3-0.3-0.3-0.7,0-1c0.1-0.1,0.1-0.1,0.2-0.2l4.9-1.4
	c0.2-0.1,0.3-0.2,0.4-0.4l1.8-5.5c0-0.3,0.3-0.5,0.6-0.4c0.2,0,0.3,0.2,0.4,0.3l2.6,5.1c0.1,0.2,0.3,0.3,0.4,0.3l5.1,0.3
	c0.4,0.1,0.6,0.4,0.5,0.8c0,0.1-0.1,0.2-0.1,0.3l-3.3,4.5c-0.1,0.2-0.2,0.4-0.1,0.6l1.3,5.7c0.1,0.5-0.3,1-0.7,0.8l-4.7-2.3
	c-0.2-0.1-0.4-0.1-0.5,0l-4.2,3.3C1301.4,880.6,1300.9,880.3,1300.9,879.8z"/>
<linearGradient id="SVGID_81_" gradientUnits="userSpaceOnUse" x1="885.3449" y1="250.726" x2="-295.8051" y2="250.726" gradientTransform="matrix(1 0 0 -1 0 1136)">
	<stop  offset="0" style="stop-color:#2AFFE4;stop-opacity:0.6"/>
	<stop  offset="1" style="stop-color:#94FDFF;stop-opacity:0.2"/>
</linearGradient>
<path class="st81" d="M168,876l-0.3,5.9c0,0.2,0.1,0.4,0.2,0.5l4,3.6c0.3,0.3,0.3,0.7,0,1c-0.1,0.1-0.1,0.1-0.2,0.2l-4.8,1.6
	c-0.2,0.1-0.3,0.2-0.4,0.4l-1.7,5.6c0,0.3-0.3,0.5-0.6,0.5c-0.2,0-0.4-0.1-0.4-0.3l-2.8-5c-0.1-0.2-0.3-0.3-0.4-0.3l-5.1-0.2
	c-0.4-0.1-0.6-0.4-0.5-0.8c0-0.1,0.1-0.2,0.1-0.3l3.2-4.6c0.1-0.2,0.2-0.4,0.1-0.6l-1.4-5.7c-0.1-0.5,0.3-1,0.7-0.8l4.7,2.1
	c0.2,0.1,0.4,0,0.5-0.1l4.2-3.4C167.5,875.1,168,875.5,168,876z"/>
<linearGradient id="SVGID_82_" gradientUnits="userSpaceOnUse" x1="1084.0321" y1="206.8068" x2="-97.1079" y2="206.8068" gradientTransform="matrix(1 0 0 -1 0 1136)">
	<stop  offset="0" style="stop-color:#2AFFE4;stop-opacity:0.6"/>
	<stop  offset="1" style="stop-color:#94FDFF;stop-opacity:0.2"/>
</linearGradient>
<path class="st82" d="M422.3,920l-0.3,5.9c0,0.2,0.1,0.4,0.2,0.5l4,3.6c0.3,0.3,0.3,0.7,0,1c-0.1,0.1-0.1,0.1-0.2,0.2l-4.9,1.5
	c-0.2,0.1-0.3,0.2-0.4,0.4l-1.7,5.6c0,0.3-0.3,0.5-0.6,0.5c-0.2,0-0.4-0.1-0.4-0.3l-2.8-5c-0.1-0.2-0.3-0.3-0.4-0.3l-5-0.1
	c-0.4-0.1-0.6-0.4-0.5-0.8c0-0.1,0.1-0.2,0.1-0.3l3.2-4.6c0.1-0.2,0.1-0.4,0.1-0.6l-1.4-5.7c-0.1-0.5,0.3-1,0.7-0.8l4.7,2.1
	c0.2,0.1,0.4,0,0.5-0.1l4.2-3.4C421.8,919.1,422.3,919.5,422.3,920z"/>
<linearGradient id="SVGID_83_" gradientUnits="userSpaceOnUse" x1="658.6542" y1="389.4303" x2="-491.1458" y2="389.4303" gradientTransform="matrix(1 0 0 -1 0 1136)">
	<stop  offset="0" style="stop-color:#2AFFE4;stop-opacity:0.6"/>
	<stop  offset="1" style="stop-color:#94FDFF;stop-opacity:0.2"/>
</linearGradient>
<path class="st83" d="M24.8,741.9l5.1,0.1c0.2,0,0.4-0.1,0.5-0.3l2.9-4.8c0.1-0.3,0.5-0.4,0.7-0.2c0.2,0.1,0.3,0.2,0.3,0.4l1.5,5.7
	c0,0.2,0.2,0.4,0.4,0.4L41,745c0.3,0.2,0.5,0.6,0.3,0.9c0,0.1-0.1,0.2-0.2,0.2l-4.1,3.4c-0.2,0.1-0.2,0.3-0.2,0.5l0.1,5.9
	c0,0.5-0.5,0.8-0.9,0.5l-4-3.6c-0.1-0.1-0.3-0.2-0.5-0.1l-4.8,1.9c-0.4,0.2-0.8-0.3-0.7-0.8l1.6-5.6c0.1-0.2,0-0.4-0.1-0.6l-3-4.8
	c-0.2-0.3-0.1-0.7,0.1-0.9C24.6,741.9,24.7,741.9,24.8,741.9z"/>
<linearGradient id="SVGID_84_" gradientUnits="userSpaceOnUse" x1="1926.7029" y1="87.4322" x2="760.2629" y2="87.4322" gradientTransform="matrix(1 0 0 -1 0 1136)">
	<stop  offset="0" style="stop-color:#2AFFE4;stop-opacity:0.6"/>
	<stop  offset="1" style="stop-color:#94FDFF;stop-opacity:0.2"/>
</linearGradient>
<path class="st84" d="M1051.1,1045l-3,4.8c-0.1,0.2-0.1,0.4-0.1,0.6l1.6,5.6c0.1,0.5-0.3,1-0.7,0.8l-4.8-1.9c-0.2-0.1-0.4,0-0.5,0.1
	l-4.1,3.5c-0.4,0.3-0.9,0-0.9-0.5l0.1-5.9c0-0.2-0.1-0.4-0.2-0.5l-4.1-3.4c-0.3-0.3-0.3-0.7-0.1-1c0.1-0.1,0.1-0.1,0.2-0.2l4.8-1.8
	c0.2-0.1,0.3-0.2,0.4-0.4l1.5-5.7c0-0.3,0.3-0.5,0.6-0.5c0.2,0,0.3,0.1,0.4,0.3l2.9,4.9c0.1,0.2,0.3,0.3,0.5,0.3l5.1-0.1
	c0.4,0.1,0.6,0.4,0.5,0.8C1051.2,1044.8,1051.2,1044.9,1051.1,1045z"/>
</svg>
