<?xml version="1.0" encoding="utf-8"?>
<!-- Generator: Adobe Illustrator 22.1.0, SVG Export Plug-In . SVG Version: 6.00 Build 0)  -->
<svg version="1.1" id="Layer_1" xmlns="http://www.w3.org/2000/svg" xmlns:xlink="http://www.w3.org/1999/xlink" x="0px" y="0px"
	 viewBox="0 0 1353 1080" style="enable-background:new 0 0 1353 1080;" xml:space="preserve">
<style type="text/css">
	.st0{opacity:0.4;}
	.st1{fill:url(#SVGID_1_);}
	.st2{fill:url(#SVGID_2_);}
	.st3{fill:url(#SVGID_3_);}
	.st4{fill:url(#SVGID_4_);}
	.st5{fill:url(#SVGID_5_);}
	.st6{fill:url(#SVGID_6_);}
	.st7{fill:url(#SVGID_7_);}
	.st8{fill:url(#SVGID_8_);}
	.st9{fill:url(#SVGID_9_);}
	.st10{fill:url(#SVGID_10_);}
	.st11{fill:url(#SVGID_11_);}
	.st12{fill:url(#SVGID_12_);}
	.st13{fill:url(#SVGID_13_);}
	.st14{fill:url(#SVGID_14_);}
	.st15{fill:url(#SVGID_15_);}
	.st16{fill:url(#SVGID_16_);}
	.st17{fill:url(#SVGID_17_);}
	.st18{fill:url(#SVGID_18_);}
	.st19{fill:url(#SVGID_19_);}
	.st20{fill:url(#SVGID_20_);}
	.st21{fill:url(#SVGID_21_);}
	.st22{fill:url(#SVGID_22_);}
	.st23{fill:url(#SVGID_23_);}
	.st24{fill:url(#SVGID_24_);}
	.st25{fill:url(#SVGID_25_);}
	.st26{fill:url(#SVGID_26_);}
	.st27{fill:url(#SVGID_27_);}
	.st28{fill:url(#SVGID_28_);}
	.st29{fill:url(#SVGID_29_);}
	.st30{fill:url(#SVGID_30_);}
	.st31{fill:url(#SVGID_31_);}
	.st32{fill:url(#SVGID_32_);}
	.st33{fill:url(#SVGID_33_);}
	.st34{fill:url(#SVGID_34_);}
	.st35{fill:url(#SVGID_35_);}
	.st36{fill:url(#SVGID_36_);}
	.st37{fill:url(#SVGID_37_);}
	.st38{fill:url(#SVGID_38_);}
	.st39{fill:url(#SVGID_39_);}
	.st40{fill:url(#SVGID_40_);}
	.st41{fill:url(#SVGID_41_);}
	.st42{fill:url(#SVGID_42_);}
	.st43{fill:url(#SVGID_43_);}
	.st44{fill:url(#SVGID_44_);}
	.st45{fill:url(#SVGID_45_);}
	.st46{fill:url(#SVGID_46_);}
	.st47{fill:url(#SVGID_47_);}
	.st48{fill:url(#SVGID_48_);}
	.st49{fill:url(#SVGID_49_);}
	.st50{fill:url(#SVGID_50_);}
	.st51{fill:url(#SVGID_51_);}
	.st52{fill:url(#SVGID_52_);}
	.st53{fill:url(#SVGID_53_);}
	.st54{fill:url(#SVGID_54_);}
	.st55{fill:url(#SVGID_55_);}
	.st56{fill:url(#SVGID_56_);}
	.st57{fill:url(#SVGID_57_);}
	.st58{fill:url(#SVGID_58_);}
	.st59{fill:url(#SVGID_59_);}
	.st60{fill:url(#SVGID_60_);}
	.st61{fill:url(#SVGID_61_);}
	.st62{fill:url(#SVGID_62_);}
	.st63{fill:url(#SVGID_63_);}
	.st64{fill:url(#SVGID_64_);}
	.st65{fill:url(#SVGID_65_);}
	.st66{fill:url(#SVGID_66_);}
	.st67{fill:url(#SVGID_67_);}
	.st68{opacity:0.4;fill:url(#SVGID_68_);enable-background:new    ;}
	.st69{opacity:0.4;fill:url(#SVGID_69_);enable-background:new    ;}
	.st70{opacity:0.4;fill:url(#SVGID_70_);enable-background:new    ;}
	.st71{opacity:0.4;fill:url(#SVGID_71_);enable-background:new    ;}
	.st72{opacity:0.4;fill:url(#SVGID_72_);enable-background:new    ;}
	.st73{opacity:0.4;fill:url(#SVGID_73_);enable-background:new    ;}
	.st74{opacity:0.4;fill:url(#SVGID_74_);enable-background:new    ;}
	.st75{opacity:0.4;fill:url(#SVGID_75_);enable-background:new    ;}
	.st76{opacity:0.4;fill:url(#SVGID_76_);enable-background:new    ;}
	.st77{opacity:0.4;fill:url(#SVGID_77_);enable-background:new    ;}
	.st78{opacity:0.4;fill:url(#SVGID_78_);enable-background:new    ;}
	.st79{opacity:0.4;fill:url(#SVGID_79_);enable-background:new    ;}
	.st80{opacity:0.4;fill:url(#SVGID_80_);enable-background:new    ;}
</style>
<title>starbg</title>
<g class="st0">
	
		<linearGradient id="SVGID_1_" gradientUnits="userSpaceOnUse" x1="210.6288" y1="1064.2415" x2="268.5963" y2="-297.0002" gradientTransform="matrix(-1 0 0 1 1353.3461 -14.2821)">
		<stop  offset="0" style="stop-color:#F6AC07"/>
		<stop  offset="0.19" style="stop-color:#F8AF09;stop-opacity:0.79"/>
		<stop  offset="0.59" style="stop-color:#FCB50D;stop-opacity:0.37"/>
		<stop  offset="0.87" style="stop-color:#FEB90F;stop-opacity:0.1"/>
		<stop  offset="1" style="stop-color:#FFBA10;stop-opacity:0"/>
	</linearGradient>
	<path class="st1" d="M1132.5,762.9l-11.7-17.2c-0.4-0.6-1-0.9-1.7-0.9l-18.7,1.6c-1.7,0.1-2.8-2-1.8-3.7l10.3-18.4
		c0.4-0.7,0.4-1.5,0.2-2.2l-7-20.4c-0.6-1.8,0.8-3.7,2.4-3.2l18.1,5.8c0.7,0.2,1.4,0,1.8-0.5l14.3-14.2c1.3-1.3,3.3-0.3,3.3,1.7
		l0.9,22c0,0.8,0.4,1.5,1,1.9l15.9,11.6c1.1,0.9,1.3,2.5,0.4,3.6c-0.2,0.3-0.5,0.5-0.7,0.6l-17.5,7.8c-0.7,0.3-1.1,0.9-1.3,1.7
		L1136,762C1135.6,763.9,1133.5,764.4,1132.5,762.9z"/>
	
		<linearGradient id="SVGID_2_" gradientUnits="userSpaceOnUse" x1="357.2471" y1="1071.7756" x2="415.2347" y2="-289.8976" gradientTransform="matrix(-1 0 0 1 1353.3461 -14.2821)">
		<stop  offset="0" style="stop-color:#F6AC07"/>
		<stop  offset="0.19" style="stop-color:#F8AF09;stop-opacity:0.79"/>
		<stop  offset="0.59" style="stop-color:#FCB50D;stop-opacity:0.37"/>
		<stop  offset="0.87" style="stop-color:#FEB90F;stop-opacity:0.1"/>
		<stop  offset="1" style="stop-color:#FFBA10;stop-opacity:0"/>
	</linearGradient>
	<path class="st2" d="M967.8,779.8l0.1-22.1c0-0.8-0.3-1.5-0.9-2l-15.4-12.6c-1.1-0.9-1.2-2.6-0.2-3.6c0.2-0.3,0.5-0.5,0.8-0.6
		l17.9-6.7c0.7-0.3,1.2-0.9,1.3-1.6l5.4-21.1c0.5-1.9,2.6-2.3,3.6-0.7l11,17.9c0.4,0.6,1,1,1.7,1l18.8-0.5c1.7,0,2.7,2.2,1.7,3.8
		l-11.1,17.8c-0.4,0.7-0.5,1.4-0.3,2.2l6.2,20.9c0.6,1.9-1,3.7-2.6,3.1L988,768c-0.6-0.2-1.4-0.1-1.9,0.4l-15,13.3
		C969.8,782.9,967.8,781.8,967.8,779.8z"/>
	
		<linearGradient id="SVGID_3_" gradientUnits="userSpaceOnUse" x1="289.9617" y1="1068.526" x2="347.9493" y2="-293.2273" gradientTransform="matrix(-1 0 0 1 1353.3461 -14.2821)">
		<stop  offset="0" style="stop-color:#F6AC07"/>
		<stop  offset="0.19" style="stop-color:#F8AF09;stop-opacity:0.79"/>
		<stop  offset="0.59" style="stop-color:#FCB50D;stop-opacity:0.37"/>
		<stop  offset="0.87" style="stop-color:#FEB90F;stop-opacity:0.1"/>
		<stop  offset="1" style="stop-color:#FFBA10;stop-opacity:0"/>
	</linearGradient>
	<path class="st3" d="M1034.3,683.8l0.2-17.4c0-0.6-0.2-1.2-0.7-1.6l-12-10c-0.8-0.7-0.9-2-0.2-2.8c0.2-0.2,0.4-0.4,0.7-0.5
		l14.2-5.1c0.5-0.2,0.9-0.7,1.1-1.2l4.4-16.6c0.1-0.8,0.9-1.4,1.7-1.3c0.5,0.1,0.9,0.4,1.1,0.8l8.5,14.2c0.3,0.5,0.8,0.8,1.3,0.8
		l14.8-0.2c1.3,0,2.1,1.8,1.3,3l-8.9,13.9c-0.3,0.5-0.4,1.1-0.2,1.7l4.7,16.5c0.4,1.5-0.8,2.9-2,2.4l-14-5.6
		c-0.5-0.2-1.1-0.1-1.5,0.3l-11.9,10.4C1035.9,686.2,1034.3,685.3,1034.3,683.8z"/>
	
		<linearGradient id="SVGID_4_" gradientUnits="userSpaceOnUse" x1="406.0645" y1="1074.5646" x2="464.0821" y2="-287.8309" gradientTransform="matrix(-1 0 0 1 1353.3461 -14.2821)">
		<stop  offset="0" style="stop-color:#F6AC07"/>
		<stop  offset="0.19" style="stop-color:#F8AF09;stop-opacity:0.79"/>
		<stop  offset="0.59" style="stop-color:#FCB50D;stop-opacity:0.37"/>
		<stop  offset="0.87" style="stop-color:#FEB90F;stop-opacity:0.1"/>
		<stop  offset="1" style="stop-color:#FFBA10;stop-opacity:0"/>
	</linearGradient>
	<path class="st4" d="M945.1,663.2l-13.6-6.8c-0.5-0.3-1.1-0.2-1.5,0.1l-12.5,9.3c-1.1,0.8-2.6-0.2-2.5-1.8l1.3-17.3
		c0.1-0.6-0.1-1.2-0.6-1.6L904.4,634c-0.8-0.8-0.8-2.1,0-2.8c0.2-0.2,0.4-0.4,0.7-0.5l14.4-3.9c0.5-0.2,1-0.6,1.1-1.1l5.5-16.1
		c0.2-0.8,1-1.3,1.8-1.1c0.5,0.1,0.9,0.4,1.1,0.9l7.6,14.9c0.2,0.5,0.7,0.9,1.3,0.9l14.8,1.1c1.3,0.1,2,1.9,1.1,3.1l-9.8,13
		c-0.3,0.5-0.5,1.1-0.3,1.7l3.7,16.8C947.6,662.6,946.3,663.9,945.1,663.2z"/>
	
		<linearGradient id="SVGID_5_" gradientUnits="userSpaceOnUse" x1="480.0457" y1="1077.424" x2="537.9429" y2="-282.2628" gradientTransform="matrix(-1 0 0 1 1353.3461 -14.2821)">
		<stop  offset="0" style="stop-color:#F6AC07"/>
		<stop  offset="0.19" style="stop-color:#F8AF09;stop-opacity:0.79"/>
		<stop  offset="0.59" style="stop-color:#FCB50D;stop-opacity:0.37"/>
		<stop  offset="0.87" style="stop-color:#FEB90F;stop-opacity:0.1"/>
		<stop  offset="1" style="stop-color:#FFBA10;stop-opacity:0"/>
	</linearGradient>
	<path class="st5" d="M853,740.4l-3.8-18c-0.1-0.6-0.5-1.1-1.1-1.4l-14.7-6.6c-1-0.6-1.4-1.9-0.8-2.9c0.1-0.2,0.3-0.5,0.5-0.6
		l13.4-9.7c0.5-0.4,0.8-1,0.8-1.6l0.8-18.5c0.1-1.7,1.7-2.5,2.8-1.4l12,11.9c0.4,0.4,1,0.6,1.5,0.4l15.2-4.9c1.4-0.4,2.6,1.2,2,2.7
		l-5.9,17.1c-0.2,0.6-0.2,1.3,0.2,1.9l8.6,15.5c0.8,1.4-0.2,3.2-1.6,3.1l-15.7-1.4c-0.6,0-1.1,0.3-1.5,0.8l-9.9,14.4
		C855.1,742.5,853.4,742,853,740.4z"/>
	
		<linearGradient id="SVGID_6_" gradientUnits="userSpaceOnUse" x1="638.6512" y1="1084.8973" x2="696.4782" y2="-273.0036" gradientTransform="matrix(-1 0 0 1 1353.3461 -14.2821)">
		<stop  offset="0" style="stop-color:#F6AC07"/>
		<stop  offset="0.19" style="stop-color:#F8AF09;stop-opacity:0.79"/>
		<stop  offset="0.59" style="stop-color:#FCB50D;stop-opacity:0.37"/>
		<stop  offset="0.87" style="stop-color:#FEB90F;stop-opacity:0.1"/>
		<stop  offset="1" style="stop-color:#FFBA10;stop-opacity:0"/>
	</linearGradient>
	<path class="st6" d="M697.7,745.2l-8.8-21c-0.3-0.7-0.9-1.2-1.6-1.4l-19.8-3.4c-1.8-0.3-2.5-2.9-1.2-4.3l14.3-16.3
		c0.5-0.6,0.7-1.4,0.6-2.2l-3.4-23.1c-0.3-2.1,1.5-3.7,3.1-2.7l17.7,10.9c0.6,0.4,1.4,0.4,2,0l17.7-10.9c1.6-1,3.4,0.6,3.1,2.7
		l-3.4,23.1c-0.1,0.8,0.1,1.6,0.6,2.2l14.3,16.3c1.3,1.5,0.6,4-1.2,4.3l-19.8,3.4c-0.7,0.2-1.4,0.7-1.6,1.4l-8.8,21
		c-0.2,1.1-1.3,1.8-2.4,1.5C698.4,746.6,697.9,746,697.7,745.2z"/>
	
		<linearGradient id="SVGID_7_" gradientUnits="userSpaceOnUse" x1="544.5435" y1="1080.1541" x2="602.3806" y2="-277.9575" gradientTransform="matrix(-1 0 0 1 1353.3461 -14.2821)">
		<stop  offset="0" style="stop-color:#F6AC07"/>
		<stop  offset="0.19" style="stop-color:#F8AF09;stop-opacity:0.79"/>
		<stop  offset="0.59" style="stop-color:#FCB50D;stop-opacity:0.37"/>
		<stop  offset="0.87" style="stop-color:#FEB90F;stop-opacity:0.1"/>
		<stop  offset="1" style="stop-color:#FFBA10;stop-opacity:0"/>
	</linearGradient>
	<path class="st7" d="M789.5,677.6l-6.2-15.8c-0.2-0.5-0.6-0.9-1.2-1.1l-14.6-2.9c-1-0.4-1.6-1.5-1.2-2.6c0.1-0.3,0.2-0.5,0.4-0.7
		l10.9-11.8c0.4-0.5,0.6-1.1,0.5-1.7l-2.1-17.2c-0.2-1.5,1.2-2.7,2.4-1.9l13,8.5c0.4,0.3,1,0.3,1.5,0.1l13.3-7.7
		c1.2-0.7,2.5,0.5,2.3,2.1l-2.9,17.1c-0.1,0.6,0.1,1.2,0.4,1.7l10.4,12.4c0.7,0.9,0.6,2.1-0.3,2.8c-0.2,0.2-0.4,0.3-0.7,0.4
		l-14.7,2.1c-0.6,0.1-1,0.5-1.2,1l-6.9,15.4c-0.3,0.8-1.2,1.1-2,0.8C790,678.3,789.7,678,789.5,677.6z"/>
	
		<linearGradient id="SVGID_8_" gradientUnits="userSpaceOnUse" x1="130.3448" y1="1059.3136" x2="188.1719" y2="-298.5471" gradientTransform="matrix(-1 0 0 1 1353.3461 -14.2821)">
		<stop  offset="0" style="stop-color:#F6AC07"/>
		<stop  offset="0.19" style="stop-color:#F8AF09;stop-opacity:0.79"/>
		<stop  offset="0.59" style="stop-color:#FCB50D;stop-opacity:0.37"/>
		<stop  offset="0.87" style="stop-color:#FEB90F;stop-opacity:0.1"/>
		<stop  offset="1" style="stop-color:#FFBA10;stop-opacity:0"/>
	</linearGradient>
	<path class="st8" d="M1219.8,677.4l-13.1-8c-0.5-0.3-1-0.3-1.5,0l-13,8.2c-1.2,0.7-2.6-0.4-2.3-2l2.4-17.1c0.1-0.6-0.1-1.2-0.5-1.7
		l-10.7-12c-0.7-0.8-0.6-2.1,0.2-2.8c0.2-0.2,0.4-0.3,0.7-0.4l14.7-2.6c0.5-0.1,1-0.5,1.2-1l6.5-15.6c0.3-0.8,1.1-1.2,1.9-1
		c0.5,0.2,0.8,0.5,1,1l6.6,15.6c0.2,0.5,0.7,0.9,1.2,1l14.7,2.4c1.1,0.3,1.6,1.5,1.3,2.5c-0.1,0.2-0.2,0.5-0.4,0.7l-10.6,12.2
		c-0.4,0.5-0.6,1.1-0.5,1.7l2.6,17.1C1222.4,676.9,1221,678.1,1219.8,677.4z"/>
	
		<linearGradient id="SVGID_9_" gradientUnits="userSpaceOnUse" x1="200.0586" y1="1064.2509" x2="258.0562" y2="-297.8136" gradientTransform="matrix(-1 0 0 1 1353.3461 -14.2821)">
		<stop  offset="0" style="stop-color:#F6AC07"/>
		<stop  offset="0.19" style="stop-color:#F8AF09;stop-opacity:0.79"/>
		<stop  offset="0.59" style="stop-color:#FCB50D;stop-opacity:0.37"/>
		<stop  offset="0.87" style="stop-color:#FEB90F;stop-opacity:0.1"/>
		<stop  offset="1" style="stop-color:#FFBA10;stop-opacity:0"/>
	</linearGradient>
	<path class="st9" d="M1122.8,581.7l0.6-12.8c0-0.4-0.1-0.9-0.5-1.2l-8.6-7.8c-0.6-0.6-0.6-1.5-0.1-2.1c0.1-0.1,0.3-0.3,0.5-0.3
		l10.5-3.3c0.4-0.1,0.7-0.5,0.8-0.9l3.7-12c0.1-0.6,0.7-1,1.3-0.9c0.3,0.1,0.6,0.3,0.8,0.6l5.9,10.7c0.2,0.4,0.6,0.6,1,0.6l10.9,0.3
		c0.8,0.1,1.3,0.9,1.2,1.7c0,0.2-0.1,0.4-0.3,0.6l-6.9,9.9c-0.2,0.4-0.3,0.8-0.2,1.3l3.1,12.3c0.3,1.1-0.6,2.1-1.6,1.7l-10.2-4.6
		c-0.4-0.2-0.8-0.1-1.1,0.2l-9,7.2C1123.8,583.5,1122.7,582.8,1122.8,581.7z"/>
	
		<linearGradient id="SVGID_10_" gradientUnits="userSpaceOnUse" x1="329.906" y1="1070.8629" x2="387.9337" y2="-291.7732" gradientTransform="matrix(-1 0 0 1 1353.3461 -14.2821)">
		<stop  offset="0" style="stop-color:#F6AC07"/>
		<stop  offset="0.19" style="stop-color:#F8AF09;stop-opacity:0.79"/>
		<stop  offset="0.59" style="stop-color:#FCB50D;stop-opacity:0.37"/>
		<stop  offset="0.87" style="stop-color:#FEB90F;stop-opacity:0.1"/>
		<stop  offset="1" style="stop-color:#FFBA10;stop-opacity:0"/>
	</linearGradient>
	<path class="st10" d="M982.4,572.3l8.3-10.5c0.3-0.4,0.4-0.9,0.3-1.4l-2.7-13.9c-0.2-1.3,0.8-2.3,1.8-1.7l11,6
		c0.4,0.2,0.9,0.2,1.2-0.1l10.5-7.3c0.9-0.7,2.1,0.2,2,1.5l-1.4,14.2c-0.1,0.5,0.1,1,0.4,1.4l9.1,9.4c0.6,0.7,0.6,1.7-0.1,2.3
		c-0.2,0.2-0.4,0.3-0.6,0.3l-11.9,2.8c-0.5,0.1-0.8,0.5-1,0.9l-4.8,13.1c-0.2,0.7-0.8,1.1-1.5,0.9c-0.4-0.1-0.7-0.4-0.9-0.8
		l-5.9-12.5c-0.2-0.4-0.6-0.7-1-0.8l-12.1-1.3c-0.9-0.2-1.4-1.1-1.2-2C982.2,572.8,982.3,572.5,982.4,572.3z"/>
	
		<linearGradient id="SVGID_11_" gradientUnits="userSpaceOnUse" x1="464.7037" y1="1076.7909" x2="522.6411" y2="-283.558" gradientTransform="matrix(-1 0 0 1 1353.3461 -14.2821)">
		<stop  offset="0" style="stop-color:#F6AC07"/>
		<stop  offset="0.19" style="stop-color:#F8AF09;stop-opacity:0.79"/>
		<stop  offset="0.59" style="stop-color:#FCB50D;stop-opacity:0.37"/>
		<stop  offset="0.87" style="stop-color:#FEB90F;stop-opacity:0.1"/>
		<stop  offset="1" style="stop-color:#FFBA10;stop-opacity:0"/>
	</linearGradient>
	<path class="st11" d="M852.8,553.1l9.7,1.8c0.4,0.1,0.7-0.1,0.9-0.4l6.8-8.4c0.3-0.5,0.9-0.6,1.4-0.3c0.3,0.2,0.5,0.6,0.4,0.9
		l1.6,11.4c0,0.4,0.3,0.7,0.6,0.9l8.9,5c0.6,0.4,0.8,1.3,0.4,1.9c-0.1,0.1-0.2,0.3-0.4,0.4l-8.8,5.3c-0.3,0.2-0.5,0.6-0.6,1
		l-1.3,11.5c-0.1,1-1.2,1.5-1.8,0.7l-7-8.2c-0.2-0.3-0.6-0.4-0.9-0.3l-9.7,2.1c-0.9,0.2-1.6-0.9-1.2-1.8l4.5-10.3
		c0.2-0.4,0.2-0.8,0-1.2l-4.7-10.2C851.2,554,851.8,552.9,852.8,553.1z"/>
	
		<linearGradient id="SVGID_12_" gradientUnits="userSpaceOnUse" x1="625.9696" y1="1085.59" x2="683.9772" y2="-276.6349" gradientTransform="matrix(-1 0 0 1 1353.3461 -14.2821)">
		<stop  offset="0" style="stop-color:#F6AC07"/>
		<stop  offset="0.19" style="stop-color:#F8AF09;stop-opacity:0.79"/>
		<stop  offset="0.59" style="stop-color:#FCB50D;stop-opacity:0.37"/>
		<stop  offset="0.87" style="stop-color:#FEB90F;stop-opacity:0.1"/>
		<stop  offset="1" style="stop-color:#FFBA10;stop-opacity:0"/>
	</linearGradient>
	<path class="st12" d="M706.1,560l6.5,12.3c0.2,0.4,0.6,0.7,1.1,0.7l12.3,0.7c0.9,0.2,1.5,1,1.3,1.9c0,0.3-0.1,0.5-0.3,0.7l-7.9,11
		c-0.3,0.4-0.4,0.9-0.3,1.4l3.3,13.9c0.3,1.2-0.8,2.3-1.8,1.9l-11.4-5.4c-0.4-0.2-0.9-0.1-1.2,0.2l-10.4,8c-0.9,0.7-2.1-0.1-2.1-1.4
		l0.9-14.4c0-0.5-0.1-1-0.5-1.3l-9.6-9c-0.7-0.6-0.7-1.7,0-2.4c0.2-0.2,0.3-0.3,0.6-0.4l11.9-3.5c0.5-0.2,0.8-0.5,0.9-1l4.3-13.5
		c0.1-0.7,0.8-1.1,1.5-1C705.5,559.3,705.9,559.6,706.1,560z"/>
	
		<linearGradient id="SVGID_13_" gradientUnits="userSpaceOnUse" x1="373.3779" y1="1079.3094" x2="431.2451" y2="-279.7653" gradientTransform="matrix(-1 0 0 1 1353.3461 -14.2821)">
		<stop  offset="0" style="stop-color:#F6AC07"/>
		<stop  offset="0.19" style="stop-color:#F8AF09;stop-opacity:0.79"/>
		<stop  offset="0.59" style="stop-color:#FCB50D;stop-opacity:0.37"/>
		<stop  offset="0.87" style="stop-color:#FEB90F;stop-opacity:0.1"/>
		<stop  offset="1" style="stop-color:#FFBA10;stop-opacity:0"/>
	</linearGradient>
	<path class="st13" d="M993,1022.8l-22.2-18.8c-0.7-0.7-1.8-0.8-2.7-0.5l-25.8,10.8c-2.3,1-4.6-1.6-3.8-4.3l8.4-30.6
		c0.3-1.1,0.1-2.2-0.5-3.2l-16.7-25.4c-1.5-2.3-0.1-5.6,2.3-5.6l27.4-0.1c1,0,2-0.6,2.4-1.5l15.4-26.5c1.4-2.4,4.5-1.9,5.3,0.9
		l8.5,30.5c0.3,1,1,1.9,2,2.2l26.3,9c2.4,0.8,2.9,4.5,0.9,6.1l-22.1,18.9c-0.8,0.7-1.3,1.8-1.2,2.9l0.8,32.1
		C997.8,1022.7,995,1024.5,993,1022.8z"/>
	
		<linearGradient id="SVGID_14_" gradientUnits="userSpaceOnUse" x1="189.8983" y1="1114.9353" x2="247.8959" y2="-246.9686" gradientTransform="matrix(-1 0 0 1 1353.3461 -14.2821)">
		<stop  offset="0" style="stop-color:#F6AC07"/>
		<stop  offset="0.19" style="stop-color:#F8AF09;stop-opacity:0.79"/>
		<stop  offset="0.59" style="stop-color:#FCB50D;stop-opacity:0.37"/>
		<stop  offset="0.87" style="stop-color:#FEB90F;stop-opacity:0.1"/>
		<stop  offset="1" style="stop-color:#FFBA10;stop-opacity:0"/>
	</linearGradient>
	<path class="st14" d="M1115.1,1041.5l16.8-25.3c0.6-0.9,0.8-2.1,0.5-3.2l-8.3-30.6c-0.7-2.7,1.5-5.3,3.8-4.3l25.7,10.9
		c0.9,0.4,2,0.2,2.7-0.4l22.3-18.7c2-1.7,4.8,0.1,4.7,2.9l-0.9,32.1c-0.1,1.1,0.4,2.2,1.2,2.9l22,19c2,1.7,1.4,5.3-0.9,6.1
		l-26.3,8.9c-1,0.4-1.7,1.2-2,2.2l-8.7,30.5c-0.8,2.7-3.9,3.2-5.3,0.9l-15.3-26.5c-0.5-0.9-1.4-1.5-2.4-1.5l-27.4-0.2
		C1115,1047.1,1113.6,1043.8,1115.1,1041.5z"/>
	
		<linearGradient id="SVGID_15_" gradientUnits="userSpaceOnUse" x1="48.4474" y1="1108.0432" x2="106.4148" y2="-253.1684" gradientTransform="matrix(-1 0 0 1 1353.3461 -14.2821)">
		<stop  offset="0" style="stop-color:#F6AC07"/>
		<stop  offset="0.19" style="stop-color:#F8AF09;stop-opacity:0.79"/>
		<stop  offset="0.59" style="stop-color:#FCB50D;stop-opacity:0.37"/>
		<stop  offset="0.87" style="stop-color:#FEB90F;stop-opacity:0.1"/>
		<stop  offset="1" style="stop-color:#FFBA10;stop-opacity:0"/>
	</linearGradient>
	<path class="st15" d="M1281.5,1031.7l-1.4-32.1c0-1.1-0.5-2.1-1.4-2.8l-23.3-16.8c-2.1-1.5-1.8-5.2,0.5-6.2l25.6-11.5
		c0.9-0.5,1.6-1.4,1.8-2.4l6.4-31.2c0.6-2.8,3.7-3.6,5.2-1.4l17.2,25c0.6,0.9,1.5,1.3,2.5,1.3l27.3-2.5c2.4-0.2,4,2.9,2.7,5.4
		l-14.9,26.9c-0.5,1-0.6,2.2-0.3,3.2l10.4,29.7c0.9,2.7-1.1,5.4-3.5,4.7l-26.4-8.3c-1-0.3-2,0-2.7,0.7l-20.8,20.8
		C1284.5,1036,1281.6,1034.5,1281.5,1031.7z"/>
	
		<linearGradient id="SVGID_16_" gradientUnits="userSpaceOnUse" x1="601.5998" y1="1129.2611" x2="659.5471" y2="-231.4488" gradientTransform="matrix(-1 0 0 1 1353.3461 -14.2821)">
		<stop  offset="0" style="stop-color:#F6AC07"/>
		<stop  offset="0.19" style="stop-color:#F8AF09;stop-opacity:0.79"/>
		<stop  offset="0.59" style="stop-color:#FCB50D;stop-opacity:0.37"/>
		<stop  offset="0.87" style="stop-color:#FEB90F;stop-opacity:0.1"/>
		<stop  offset="1" style="stop-color:#FFBA10;stop-opacity:0"/>
	</linearGradient>
	<path class="st16" d="M790.5,999.5l-24.9,13.3c-0.9,0.5-1.6,1.5-1.7,2.6l-4.8,31.6c-0.4,2.8-3.5,3.9-5.1,1.7l-18.5-23.7
		c-0.6-0.8-1.6-1.3-2.6-1.1l-27.1,4.4c-2.4,0.4-4.2-2.7-3-5.2l13.5-27.9c0.5-1,0.5-2.2,0.1-3.2l-12-28.9c-1.1-2.6,0.9-5.5,3.3-4.9
		l26.8,6.4c1,0.2,2-0.1,2.6-0.9l19.7-22.3c1.8-2,4.7-0.7,5,2.1l3.1,31.9c0.1,1.1,0.6,2.1,1.5,2.7l24.1,15.1c1.7,1.2,2.1,3.6,0.9,5.3
		C791.2,998.9,790.9,999.2,790.5,999.5z"/>
	
		<linearGradient id="SVGID_17_" gradientUnits="userSpaceOnUse" x1="457.4598" y1="1577.6826" x2="513.8321" y2="254.0826" gradientTransform="matrix(-0.9254 -0.379 -0.379 0.9254 1582.267 -220.4718)">
		<stop  offset="0" style="stop-color:#F6AC07"/>
		<stop  offset="0.19" style="stop-color:#F8AF09;stop-opacity:0.79"/>
		<stop  offset="0.59" style="stop-color:#FCB50D;stop-opacity:0.37"/>
		<stop  offset="0.87" style="stop-color:#FEB90F;stop-opacity:0.1"/>
		<stop  offset="1" style="stop-color:#FFBA10;stop-opacity:0"/>
	</linearGradient>
	<path class="st17" d="M591.8,906.3l12.4-28.6c0.5-1,0.5-2.2,0-3.2l-13-28.2c-1.2-2.5,0.6-5.5,3.1-5.1l27,5c1,0.2,2-0.2,2.6-1
		l18.9-23.3c1.7-2.1,4.7-1,5.1,1.9l4.3,31.7c0.1,1.1,0.7,2,1.7,2.6l24.7,13.8c1.7,1.2,2.2,3.5,1.1,5.2c-0.3,0.4-0.6,0.7-1,1
		l-24.4,14.6c-0.9,0.6-1.5,1.6-1.6,2.6l-3.6,31.8c-0.3,2.9-3.3,4-5,2l-19.4-22.7c-0.6-0.8-1.6-1.2-2.6-1l-26.9,5.8
		C592.6,911.8,590.7,908.8,591.8,906.3z"/>
	
		<linearGradient id="SVGID_18_" gradientUnits="userSpaceOnUse" x1="385.2518" y1="1073.5912" x2="443.2494" y2="-288.4731" gradientTransform="matrix(-1 0 0 1 1353.3461 -14.2821)">
		<stop  offset="0" style="stop-color:#F6AC07"/>
		<stop  offset="0.19" style="stop-color:#F8AF09;stop-opacity:0.79"/>
		<stop  offset="0.59" style="stop-color:#FCB50D;stop-opacity:0.37"/>
		<stop  offset="0.87" style="stop-color:#FEB90F;stop-opacity:0.1"/>
		<stop  offset="1" style="stop-color:#FFBA10;stop-opacity:0"/>
	</linearGradient>
	<path class="st18" d="M936.9,520.7l0.5-10c0-0.3-0.1-0.7-0.4-0.9l-6.8-6.1c-0.5-0.4-0.5-1.2,0-1.6c0.1-0.1,0.2-0.2,0.4-0.3l8.2-2.6
		c0.3-0.1,0.5-0.4,0.6-0.7l2.8-9.4c0.1-0.5,0.5-0.8,1-0.7c0.3,0.1,0.5,0.2,0.6,0.5l4.6,8.4c0.1,0.3,0.4,0.5,0.8,0.5l8.5,0.3
		c0.6,0.1,1,0.7,0.9,1.3c0,0.2-0.1,0.3-0.2,0.5l-5.4,7.8c-0.2,0.3-0.3,0.7-0.2,1l2.4,9.6c0.2,0.9-0.5,1.6-1.2,1.3l-7.9-3.6
		c-0.3-0.1-0.6-0.1-0.9,0.1l-7,5.6C937.7,522.2,936.9,521.6,936.9,520.7z"/>
	
		<linearGradient id="SVGID_19_" gradientUnits="userSpaceOnUse" x1="164.3704" y1="1060.943" x2="222.2175" y2="-297.2889" gradientTransform="matrix(-1 0 0 1 1353.3461 -14.2821)">
		<stop  offset="0" style="stop-color:#F6AC07"/>
		<stop  offset="0.19" style="stop-color:#F8AF09;stop-opacity:0.79"/>
		<stop  offset="0.59" style="stop-color:#FCB50D;stop-opacity:0.37"/>
		<stop  offset="0.87" style="stop-color:#FEB90F;stop-opacity:0.1"/>
		<stop  offset="1" style="stop-color:#FFBA10;stop-opacity:0"/>
	</linearGradient>
	<path class="st19" d="M1179.9,496.5l-6.4,6.8c-0.2,0.3-0.4,0.6-0.3,1l1.1,10c0.1,0.9-0.7,1.5-1.4,1.1l-7.5-5
		c-0.3-0.2-0.6-0.2-0.9,0l-7.8,4.4c-0.7,0.4-1.5-0.3-1.3-1.2l1.8-9.9c0.1-0.4,0-0.7-0.2-1l-5.9-7.4c-0.4-0.5-0.3-1.2,0.1-1.6
		c0.1-0.1,0.3-0.2,0.4-0.2l8.6-1c0.3-0.1,0.6-0.3,0.7-0.6l4.1-8.9c0.2-0.5,0.7-0.7,1.1-0.5c0.3,0.1,0.5,0.3,0.5,0.6l3.5,9.2
		c0.1,0.3,0.4,0.5,0.7,0.6l8.5,1.9c0.6,0.3,0.8,1,0.6,1.5C1180,496.3,1180,496.4,1179.9,496.5z"/>
	
		<linearGradient id="SVGID_20_" gradientUnits="userSpaceOnUse" x1="289.8819" y1="1068.9357" x2="347.8794" y2="-293.1286" gradientTransform="matrix(-1 0 0 1 1353.3461 -14.2821)">
		<stop  offset="0" style="stop-color:#F6AC07"/>
		<stop  offset="0.19" style="stop-color:#F8AF09;stop-opacity:0.79"/>
		<stop  offset="0.59" style="stop-color:#FCB50D;stop-opacity:0.37"/>
		<stop  offset="0.87" style="stop-color:#FEB90F;stop-opacity:0.1"/>
		<stop  offset="1" style="stop-color:#FFBA10;stop-opacity:0"/>
	</linearGradient>
	<path class="st20" d="M1031.8,426l0.3-5.9c0-0.2-0.1-0.4-0.2-0.5l-4-3.6c-0.3-0.3-0.3-0.7,0-1c0.1-0.1,0.1-0.1,0.2-0.2l4.9-1.5
		c0.2-0.1,0.3-0.2,0.4-0.4l1.7-5.6c0-0.3,0.3-0.5,0.6-0.5c0.2,0,0.4,0.1,0.4,0.3l2.8,5c0.1,0.2,0.3,0.3,0.4,0.3l5.1,0.2
		c0.4,0.1,0.6,0.4,0.5,0.8c0,0.1,0,0.1-0.1,0.2l-3.2,4.6c-0.1,0.2-0.2,0.4-0.1,0.6l1.4,5.7c0.1,0.5-0.3,1-0.7,0.8l-4.7-2.1
		c-0.2-0.1-0.4-0.1-0.5,0.1l-4.2,3.4C1032.3,426.9,1031.7,426.6,1031.8,426z"/>
	
		<linearGradient id="SVGID_21_" gradientUnits="userSpaceOnUse" x1="486.4591" y1="1077.6448" x2="544.3664" y2="-282.1122" gradientTransform="matrix(-1 0 0 1 1353.3461 -14.2821)">
		<stop  offset="0" style="stop-color:#F6AC07"/>
		<stop  offset="0.19" style="stop-color:#F8AF09;stop-opacity:0.79"/>
		<stop  offset="0.59" style="stop-color:#FCB50D;stop-opacity:0.37"/>
		<stop  offset="0.87" style="stop-color:#FEB90F;stop-opacity:0.1"/>
		<stop  offset="1" style="stop-color:#FFBA10;stop-opacity:0"/>
	</linearGradient>
	<path class="st21" d="M844,468.6l-5-5c-0.2-0.2-0.4-0.2-0.7-0.2l-6.4,2c-0.6,0.2-1.1-0.5-0.8-1.1l2.5-7.2c0.1-0.3,0.1-0.5-0.1-0.8
		l-3.6-6.5c-0.3-0.6,0.1-1.3,0.7-1.3l6.6,0.6c0.2,0,0.5-0.1,0.6-0.3l4.2-6c0.2-0.3,0.6-0.4,0.9-0.2c0.2,0.1,0.3,0.3,0.3,0.5l1.5,7.5
		c0,0.3,0.2,0.5,0.4,0.6l6.2,2.8c0.4,0.2,0.6,0.8,0.3,1.2c-0.1,0.1-0.1,0.2-0.2,0.3l-5.6,4c-0.2,0.2-0.3,0.4-0.3,0.7l-0.4,7.7
		C845.1,468.7,844.4,469.1,844,468.6z"/>
	
		<linearGradient id="SVGID_22_" gradientUnits="userSpaceOnUse" x1="560.3661" y1="1081.7379" x2="618.3135" y2="-278.8718" gradientTransform="matrix(-1 0 0 1 1353.3461 -14.2821)">
		<stop  offset="0" style="stop-color:#F6AC07"/>
		<stop  offset="0.19" style="stop-color:#F8AF09;stop-opacity:0.79"/>
		<stop  offset="0.59" style="stop-color:#FCB50D;stop-opacity:0.37"/>
		<stop  offset="0.87" style="stop-color:#FEB90F;stop-opacity:0.1"/>
		<stop  offset="1" style="stop-color:#FFBA10;stop-opacity:0"/>
	</linearGradient>
	<path class="st22" d="M765.7,520.5l-0.8-7.7c0-0.3-0.2-0.5-0.4-0.6l-5.9-3.6c-0.4-0.3-0.5-0.9-0.2-1.3c0.1-0.1,0.1-0.2,0.2-0.2
		l6-3.3c0.2-0.1,0.4-0.4,0.4-0.6l1.1-7.7c0-0.4,0.3-0.7,0.7-0.7c0.2,0,0.4,0.1,0.5,0.3l4.5,5.6c0.1,0.2,0.4,0.3,0.6,0.3l6.5-1.2
		c0.6-0.1,1,0.6,0.7,1.2l-3.2,6.8c-0.1,0.3-0.1,0.5,0,0.8l3,6.9c0.3,0.6-0.2,1.3-0.8,1.2l-6.5-1.4c-0.2-0.1-0.5,0-0.6,0.2L767,521
		C766.5,521.5,765.7,521.2,765.7,520.5z"/>
	
		<linearGradient id="SVGID_23_" gradientUnits="userSpaceOnUse" x1="260.1121" y1="1067.442" x2="318.1297" y2="-295.0637" gradientTransform="matrix(-1 0 0 1 1353.3461 -14.2821)">
		<stop  offset="0" style="stop-color:#F6AC07"/>
		<stop  offset="0.19" style="stop-color:#F8AF09;stop-opacity:0.79"/>
		<stop  offset="0.59" style="stop-color:#FCB50D;stop-opacity:0.37"/>
		<stop  offset="0.87" style="stop-color:#FEB90F;stop-opacity:0.1"/>
		<stop  offset="1" style="stop-color:#FFBA10;stop-opacity:0"/>
	</linearGradient>
	<path class="st23" d="M1070.2,524.4l-3.3-6.7c-0.1-0.2-0.3-0.4-0.6-0.4l-6.6-0.6c-0.5-0.1-0.8-0.6-0.6-1.1c0-0.1,0.1-0.2,0.2-0.3
		l4.4-5.8c0.2-0.2,0.2-0.5,0.2-0.8l-1.5-7.5c-0.1-0.7,0.4-1.2,1-1l6,3.2c0.2,0.1,0.5,0.1,0.7-0.1l5.6-4c0.5-0.4,1.1,0.1,1.1,0.8
		l-0.7,7.7c0,0.3,0.1,0.5,0.3,0.7l5,5c0.3,0.4,0.3,0.9,0,1.3c-0.1,0.1-0.2,0.1-0.3,0.2l-6.5,1.6c-0.2,0.1-0.4,0.3-0.5,0.5l-2.5,7.2
		c-0.1,0.4-0.4,0.6-0.8,0.5C1070.5,524.8,1070.3,524.6,1070.2,524.4z"/>
	
		<linearGradient id="SVGID_24_" gradientUnits="userSpaceOnUse" x1="554.5635" y1="1082.228" x2="612.571" y2="-279.8362" gradientTransform="matrix(-1 0 0 1 1353.3461 -14.2821)">
		<stop  offset="0" style="stop-color:#F6AC07"/>
		<stop  offset="0.19" style="stop-color:#F8AF09;stop-opacity:0.79"/>
		<stop  offset="0.59" style="stop-color:#FCB50D;stop-opacity:0.37"/>
		<stop  offset="0.87" style="stop-color:#FEB90F;stop-opacity:0.1"/>
		<stop  offset="1" style="stop-color:#FFBA10;stop-opacity:0"/>
	</linearGradient>
	<path class="st24" d="M765,390.9l0.3-5.9c0-0.2-0.1-0.4-0.2-0.5l-4-3.6c-0.3-0.3-0.3-0.7,0-1c0.1-0.1,0.1-0.1,0.2-0.2l4.9-1.5
		c0.2-0.1,0.3-0.2,0.4-0.4l1.7-5.6c0-0.3,0.3-0.5,0.6-0.5c0.2,0,0.4,0.1,0.4,0.3l2.8,5c0.1,0.2,0.3,0.3,0.4,0.3l5.1,0.2
		c0.4,0.1,0.6,0.4,0.5,0.8c0,0.1-0.1,0.2-0.1,0.3l-3.2,4.6c-0.1,0.2-0.2,0.4-0.1,0.6l1.4,5.7c0.1,0.5-0.3,1-0.7,0.8l-4.7-2.1
		c-0.2-0.1-0.4-0.1-0.5,0.1l-4.2,3.4C765.5,391.8,765,391.5,765,390.9z"/>
	
		<linearGradient id="SVGID_25_" gradientUnits="userSpaceOnUse" x1="186.824" y1="1062.4567" x2="244.7112" y2="-296.7685" gradientTransform="matrix(-1 0 0 1 1353.3461 -14.2821)">
		<stop  offset="0" style="stop-color:#F6AC07"/>
		<stop  offset="0.19" style="stop-color:#F8AF09;stop-opacity:0.79"/>
		<stop  offset="0.59" style="stop-color:#FCB50D;stop-opacity:0.37"/>
		<stop  offset="0.87" style="stop-color:#FEB90F;stop-opacity:0.1"/>
		<stop  offset="1" style="stop-color:#FFBA10;stop-opacity:0"/>
	</linearGradient>
	<path class="st25" d="M1147.5,415.8l-5.1-0.1c-0.2,0-0.4,0.1-0.5,0.3l-2.9,4.9c-0.1,0.3-0.4,0.4-0.7,0.3c-0.2-0.1-0.3-0.3-0.3-0.5
		l-1.5-5.7c0-0.2-0.2-0.3-0.4-0.4l-4.8-1.8c-0.3-0.2-0.5-0.6-0.3-0.9c0-0.1,0.1-0.2,0.2-0.2l4.2-3.4c0.2-0.1,0.2-0.3,0.2-0.5v-6
		c0-0.5,0.5-0.9,0.9-0.5l4,3.6c0.1,0.1,0.3,0.2,0.5,0.1l4.8-1.9c0.4-0.2,0.8,0.3,0.7,0.8l-1.6,5.6c-0.1,0.2,0,0.4,0.1,0.6l3,4.8
		c0.2,0.3,0.1,0.7-0.1,0.9C1147.7,415.8,1147.6,415.8,1147.5,415.8z"/>
	
		<linearGradient id="SVGID_26_" gradientUnits="userSpaceOnUse" x1="605.3043" y1="1084.3564" x2="663.2817" y2="-277.1461" gradientTransform="matrix(-1 0 0 1 1353.3461 -14.2821)">
		<stop  offset="0" style="stop-color:#F6AC07"/>
		<stop  offset="0.19" style="stop-color:#F8AF09;stop-opacity:0.79"/>
		<stop  offset="0.59" style="stop-color:#FCB50D;stop-opacity:0.37"/>
		<stop  offset="0.87" style="stop-color:#FEB90F;stop-opacity:0.1"/>
		<stop  offset="1" style="stop-color:#FFBA10;stop-opacity:0"/>
	</linearGradient>
	<path class="st26" d="M723.3,478.3l-4.4-6.8c-0.1-0.2-0.4-0.4-0.7-0.4l-7.3,0.3c-0.7,0-1-0.8-0.7-1.5l4.2-7
		c0.2-0.3,0.2-0.6,0.1-0.8l-2.5-8c-0.2-0.7,0.4-1.4,1-1.2l6.9,2.5c0.2,0.1,0.5,0,0.7-0.2l5.7-5.3c0.5-0.5,1.3,0,1.3,0.7l0.1,8.5
		c0,0.3,0.1,0.6,0.4,0.8l6,4.7c0.4,0.4,0.5,1,0.1,1.4c-0.1,0.1-0.2,0.2-0.3,0.2l-6.9,2.8c-0.3,0.1-0.4,0.3-0.5,0.6l-2,8.2
		c-0.1,0.4-0.5,0.7-0.9,0.6C723.6,478.5,723.4,478.4,723.3,478.3z"/>
	
		<linearGradient id="SVGID_27_" gradientUnits="userSpaceOnUse" x1="101.9794" y1="1059.2148" x2="159.9569" y2="-302.2977" gradientTransform="matrix(-1 0 0 1 1353.3461 -14.2821)">
		<stop  offset="0" style="stop-color:#F6AC07"/>
		<stop  offset="0.19" style="stop-color:#F8AF09;stop-opacity:0.79"/>
		<stop  offset="0.59" style="stop-color:#FCB50D;stop-opacity:0.37"/>
		<stop  offset="0.87" style="stop-color:#FEB90F;stop-opacity:0.1"/>
		<stop  offset="1" style="stop-color:#FFBA10;stop-opacity:0"/>
	</linearGradient>
	<path class="st27" d="M1226.8,456.3l-4.4-6.8c-0.1-0.2-0.4-0.4-0.7-0.4l-7.3,0.3c-0.5-0.1-0.9-0.5-0.8-1c0-0.2,0.1-0.3,0.2-0.4
		l4.2-7c0.1-0.3,0.2-0.6,0.1-0.9l-2.5-8c-0.2-0.7,0.3-1.4,1-1.2l6.9,2.5c0.3,0.1,0.5,0,0.7-0.2l5.7-5.3c0.5-0.5,1.3-0.1,1.3,0.7
		l0.1,8.5c0,0.3,0.1,0.6,0.4,0.8l6,4.7c0.4,0.4,0.5,1,0.1,1.4c-0.1,0.1-0.2,0.2-0.3,0.2l-6.9,2.7c-0.3,0.1-0.4,0.3-0.5,0.6l-2,8.2
		c0,0.4-0.4,0.7-0.8,0.7C1227.1,456.6,1226.9,456.5,1226.8,456.3z"/>
	
		<linearGradient id="SVGID_28_" gradientUnits="userSpaceOnUse" x1="388.3511" y1="1073.7321" x2="446.3387" y2="-288.0213" gradientTransform="matrix(-1 0 0 1 1353.3461 -14.2821)">
		<stop  offset="0" style="stop-color:#F6AC07"/>
		<stop  offset="0.19" style="stop-color:#F8AF09;stop-opacity:0.79"/>
		<stop  offset="0.59" style="stop-color:#FCB50D;stop-opacity:0.37"/>
		<stop  offset="0.87" style="stop-color:#FEB90F;stop-opacity:0.1"/>
		<stop  offset="1" style="stop-color:#FFBA10;stop-opacity:0"/>
	</linearGradient>
	<path class="st28" d="M927.5,377.8l3-4.8c0.1-0.2,0.1-0.4,0.1-0.6l-1.6-5.6c-0.2-0.5,0.3-1,0.7-0.8l4.8,1.9c0.2,0.1,0.4,0,0.5-0.1
		l4.1-3.6c0.4-0.3,0.9,0,0.9,0.5l-0.1,5.9c0,0.2,0.1,0.4,0.2,0.5l4.2,3.4c0.3,0.3,0.3,0.7,0,1c-0.1,0.1-0.1,0.1-0.2,0.2l-4.9,1.8
		c-0.2,0.1-0.3,0.2-0.4,0.4l-1.5,5.7c0,0.3-0.3,0.5-0.5,0.5c-0.2,0-0.4-0.1-0.5-0.3l-2.9-4.9c-0.1-0.2-0.3-0.3-0.5-0.3l-5.1,0.1
		c-0.4-0.1-0.6-0.4-0.5-0.8C927.4,378,927.4,377.9,927.5,377.8z"/>
	
		<linearGradient id="SVGID_29_" gradientUnits="userSpaceOnUse" x1="594.355" y1="1099.114" x2="652.3424" y2="-262.5591" gradientTransform="matrix(-1 0 0 1 1353.3461 -14.2821)">
		<stop  offset="0" style="stop-color:#F6AC07"/>
		<stop  offset="0.19" style="stop-color:#F8AF09;stop-opacity:0.79"/>
		<stop  offset="0.59" style="stop-color:#FCB50D;stop-opacity:0.37"/>
		<stop  offset="0.87" style="stop-color:#FEB90F;stop-opacity:0.1"/>
		<stop  offset="1" style="stop-color:#FFBA10;stop-opacity:0"/>
	</linearGradient>
	<path class="st29" d="M730.5,854.5l0.1-25.1c0-0.9-0.3-1.7-1-2.3L712,812.9c-1.6-1.3-1.2-4.1,0.6-4.8l20.4-7.6
		c0.8-0.3,1.3-1,1.5-1.8l6.2-24.1c0.6-2.2,3-2.6,4.1-0.8l12.5,20.4c0.4,0.7,1.1,1.1,1.9,1.1l21.4-0.5c1.9-0.1,3.1,2.5,1.9,4.3
		l-12.7,20.2c-0.5,0.7-0.6,1.7-0.3,2.5l7,23.7c0.6,2.1-1.1,4.2-2.9,3.5l-20.3-7.9c-0.7-0.3-1.6-0.1-2.1,0.4l-17.1,15.2
		C732.7,858.1,730.5,856.8,730.5,854.5z"/>
	
		<linearGradient id="SVGID_30_" gradientUnits="userSpaceOnUse" x1="133.679" y1="1090.0653" x2="191.6164" y2="-270.4842" gradientTransform="matrix(-1 0 0 1 1353.3461 -14.2821)">
		<stop  offset="0" style="stop-color:#F6AC07"/>
		<stop  offset="0.19" style="stop-color:#F8AF09;stop-opacity:0.79"/>
		<stop  offset="0.59" style="stop-color:#FCB50D;stop-opacity:0.37"/>
		<stop  offset="0.87" style="stop-color:#FEB90F;stop-opacity:0.1"/>
		<stop  offset="1" style="stop-color:#FFBA10;stop-opacity:0"/>
	</linearGradient>
	<path class="st30" d="M1217.5,901l-17.5-21.5c-0.6-0.8-1.5-1.1-2.4-1l-25.1,4.7c-2.2,0.4-3.9-2.4-2.9-4.7l12-26.2
		c0.4-1,0.4-2.1,0-3l-11.6-26.5c-1-2.4,0.7-5.1,2.9-4.6l25,5.3c0.9,0.2,1.9-0.2,2.4-0.9l17.9-21.1c1.6-1.9,4.4-0.8,4.7,1.8l3.4,29.5
		c0.1,1,0.7,1.9,1.5,2.5l22.6,13.5c1.6,1.1,2,3.3,0.9,4.9c-0.2,0.4-0.6,0.7-0.9,0.9l-22.9,12.9c-0.9,0.5-1.4,1.4-1.5,2.4l-3.9,29.4
		C1221.9,901.9,1219.1,903,1217.5,901z"/>
	
		<linearGradient id="SVGID_31_" gradientUnits="userSpaceOnUse" x1="-332.7143" y1="1856.2428" x2="-281.0672" y2="643.5815" gradientTransform="matrix(-0.7849 -0.6196 -0.6196 0.7849 1855.8134 -644.731)">
		<stop  offset="0" style="stop-color:#F6AC07"/>
		<stop  offset="0.19" style="stop-color:#F8AF09;stop-opacity:0.79"/>
		<stop  offset="0.59" style="stop-color:#FCB50D;stop-opacity:0.37"/>
		<stop  offset="0.87" style="stop-color:#FEB90F;stop-opacity:0.1"/>
		<stop  offset="1" style="stop-color:#FFBA10;stop-opacity:0"/>
	</linearGradient>
	<path class="st31" d="M1032.2,878.5l18.5-17c0.7-0.7,1.1-1.6,1-2.5l-1.4-27.5c-0.1-2.5,2.2-4,4-2.7l19.5,15.4
		c0.7,0.5,1.6,0.7,2.3,0.3l21.9-10.1c2-0.9,4,1.2,3.4,3.6l-6.5,26.5c-0.2,0.9-0.1,1.9,0.5,2.7l14.9,21.2c1.3,1.9,0.2,4.8-1.9,4.9
		l-23.5,1c-0.9,0.1-1.7,0.6-2.1,1.4l-12.6,23.2c-1.1,2.1-3.8,1.7-4.5-0.6l-8-25.9c-0.2-0.9-0.9-1.6-1.8-1.9l-22.7-6.9
		C1031.1,883.1,1030.5,880,1032.2,878.5z"/>
	
		<linearGradient id="SVGID_32_" gradientUnits="userSpaceOnUse" x1="477.0963" y1="1101.452" x2="534.9133" y2="-256.3385" gradientTransform="matrix(-1 0 0 1 1353.3461 -14.2821)">
		<stop  offset="0" style="stop-color:#F6AC07"/>
		<stop  offset="0.19" style="stop-color:#F8AF09;stop-opacity:0.79"/>
		<stop  offset="0.59" style="stop-color:#FCB50D;stop-opacity:0.37"/>
		<stop  offset="0.87" style="stop-color:#FEB90F;stop-opacity:0.1"/>
		<stop  offset="1" style="stop-color:#FFBA10;stop-opacity:0"/>
	</linearGradient>
	<path class="st32" d="M908.4,884.8l-25.1,4.6c-0.9,0.2-1.7,0.9-2,1.8l-10.9,26.8c-0.4,1.4-1.9,2.1-3.2,1.7
		c-0.8-0.2-1.4-0.9-1.7-1.6L854,891.7c-0.3-0.9-1.1-1.6-2.1-1.7l-25.2-3.9c-2.3-0.4-3.2-3.6-1.6-5.5l17.9-21.1
		c0.7-0.8,0.9-1.8,0.8-2.9l-4.6-29.3c-0.4-2.6,1.9-4.7,4-3.5l22.6,13.6c0.8,0.5,1.8,0.5,2.6,0l22.3-14.2c2-1.3,4.4,0.7,4,3.3
		l-4,29.4c-0.2,1,0.1,2.1,0.8,2.8l18.5,20.5C911.6,881.2,910.7,884.4,908.4,884.8z"/>
	
		<linearGradient id="SVGID_33_" gradientUnits="userSpaceOnUse" x1="51.5746" y1="1056.3456" x2="109.532" y2="-304.6855" gradientTransform="matrix(-1 0 0 1 1353.3461 -14.2821)">
		<stop  offset="0" style="stop-color:#F6AC07"/>
		<stop  offset="0.19" style="stop-color:#F8AF09;stop-opacity:0.79"/>
		<stop  offset="0.59" style="stop-color:#FCB50D;stop-opacity:0.37"/>
		<stop  offset="0.87" style="stop-color:#FEB90F;stop-opacity:0.1"/>
		<stop  offset="1" style="stop-color:#FFBA10;stop-opacity:0"/>
	</linearGradient>
	<path class="st33" d="M1277,775.9l-1.4-21.9c0-0.7-0.4-1.4-1-1.9l-16.2-11.2c-1.1-0.9-1.3-2.5-0.5-3.6c0.2-0.3,0.4-0.5,0.7-0.6
		l17.4-8.3c0.7-0.3,1.1-1,1.2-1.7l4-21.5c0.4-1.9,2.4-2.5,3.5-1l12.1,16.8c0.4,0.6,1.1,0.9,1.8,0.8l18.7-2.2c1.7-0.2,2.8,2,1.9,3.6
		l-9.9,18.7c-0.4,0.7-0.4,1.5-0.1,2.2l7.5,20.2c0.7,1.8-0.7,3.7-2.3,3.3l-18.2-5.2c-0.7-0.2-1.4,0-1.8,0.5l-14,14.6
		C1279.1,778.8,1277.1,777.9,1277,775.9z"/>
	
		<linearGradient id="SVGID_34_" gradientUnits="userSpaceOnUse" x1="89.433" y1="1057.4677" x2="147.29" y2="-301.0452" gradientTransform="matrix(-1 0 0 1 1353.3461 -14.2821)">
		<stop  offset="0" style="stop-color:#F6AC07"/>
		<stop  offset="0.19" style="stop-color:#F8AF09;stop-opacity:0.79"/>
		<stop  offset="0.59" style="stop-color:#FCB50D;stop-opacity:0.37"/>
		<stop  offset="0.87" style="stop-color:#FEB90F;stop-opacity:0.1"/>
		<stop  offset="1" style="stop-color:#FFBA10;stop-opacity:0"/>
	</linearGradient>
	<path class="st34" d="M1226,575.4l8.3-8.3c0.3-0.3,0.5-0.8,0.4-1.2l-1.1-12.7c-0.1-1.2,1-1.9,1.8-1.3l9.3,6.8
		c0.3,0.2,0.7,0.3,1.1,0.1l10-5.1c0.9-0.5,1.9,0.5,1.6,1.6l-2.6,12.4c-0.1,0.4,0,0.9,0.3,1.3l7.2,9.5c0.5,0.6,0.4,1.5-0.2,2
		c-0.2,0.1-0.4,0.2-0.6,0.3l-10.9,0.9c-0.4,0-0.8,0.3-0.9,0.7l-5.5,11c-0.2,0.6-0.9,0.8-1.5,0.6c-0.3-0.1-0.6-0.4-0.7-0.8l-4.1-11.9
		c-0.1-0.4-0.4-0.7-0.8-0.8l-10.7-2.7c-0.7-0.3-1.1-1.2-0.7-2C1225.8,575.7,1225.9,575.5,1226,575.4z"/>
</g>
<g class="st0">
	
		<linearGradient id="SVGID_35_" gradientUnits="userSpaceOnUse" x1="780.9058" y1="1092.7341" x2="838.8732" y2="-268.5077" gradientTransform="matrix(-1 0 0 1 1353.3461 -14.2821)">
		<stop  offset="0" style="stop-color:#F6AC07"/>
		<stop  offset="0.19" style="stop-color:#F8AF09;stop-opacity:0.79"/>
		<stop  offset="0.59" style="stop-color:#FCB50D;stop-opacity:0.37"/>
		<stop  offset="0.87" style="stop-color:#FEB90F;stop-opacity:0.1"/>
		<stop  offset="1" style="stop-color:#FFBA10;stop-opacity:0"/>
	</linearGradient>
	<path class="st35" d="M561.9,784.9l-11.7-17.2c-0.4-0.6-1-0.9-1.7-0.9l-18.8,1.6c-1.7,0.1-2.8-2-1.8-3.7l10.3-18.4
		c0.4-0.7,0.4-1.5,0.2-2.2l-7-20.4c-0.6-1.8,0.8-3.7,2.4-3.2l18.1,5.8c0.7,0.2,1.4,0,1.8-0.5l14.3-14.2c1.3-1.3,3.3-0.3,3.3,1.7
		l0.9,22c0,0.8,0.4,1.5,1,1.9l15.9,11.6c1.1,0.9,1.3,2.5,0.4,3.6c-0.2,0.3-0.5,0.5-0.8,0.6l-17.5,7.8c-0.7,0.3-1.1,0.9-1.3,1.7
		l-4.5,21.4C565.1,785.9,563,786.4,561.9,784.9z"/>
	
		<linearGradient id="SVGID_36_" gradientUnits="userSpaceOnUse" x1="957.491" y1="1101.8107" x2="1015.4786" y2="-259.8625" gradientTransform="matrix(-1 0 0 1 1353.3461 -14.2821)">
		<stop  offset="0" style="stop-color:#F6AC07"/>
		<stop  offset="0.19" style="stop-color:#F8AF09;stop-opacity:0.79"/>
		<stop  offset="0.59" style="stop-color:#FCB50D;stop-opacity:0.37"/>
		<stop  offset="0.87" style="stop-color:#FEB90F;stop-opacity:0.1"/>
		<stop  offset="1" style="stop-color:#FFBA10;stop-opacity:0"/>
	</linearGradient>
	<path class="st36" d="M365.8,768.8l0.1-22.1c0-0.8-0.3-1.5-0.9-2l-15.5-12.6c-1.1-1-1.1-2.6-0.2-3.6c0.2-0.2,0.5-0.4,0.8-0.6
		l17.9-6.7c0.7-0.3,1.2-0.9,1.3-1.6l5.4-21.1c0.5-1.9,2.6-2.3,3.6-0.7l11,17.9c0.3,0.6,1,1,1.7,1l18.8-0.5c1.7,0,2.7,2.2,1.7,3.8
		l-11.1,17.8c-0.4,0.7-0.5,1.5-0.3,2.2l6.2,20.9c0.6,1.9-1,3.7-2.6,3.1l-18-7c-0.6-0.2-1.4-0.1-1.9,0.4l-15,13.3
		C367.7,771.9,365.8,770.8,365.8,768.8z"/>
	
		<linearGradient id="SVGID_37_" gradientUnits="userSpaceOnUse" x1="890.2363" y1="1098.5625" x2="948.2338" y2="-263.1909" gradientTransform="matrix(-1 0 0 1 1353.3461 -14.2821)">
		<stop  offset="0" style="stop-color:#F6AC07"/>
		<stop  offset="0.19" style="stop-color:#F8AF09;stop-opacity:0.79"/>
		<stop  offset="0.59" style="stop-color:#FCB50D;stop-opacity:0.37"/>
		<stop  offset="0.87" style="stop-color:#FEB90F;stop-opacity:0.1"/>
		<stop  offset="1" style="stop-color:#FFBA10;stop-opacity:0"/>
	</linearGradient>
	<path class="st37" d="M432.3,672.7l0.2-17.4c0-0.6-0.2-1.2-0.7-1.6l-12-10c-0.8-0.7-0.9-2-0.2-2.8c0.2-0.2,0.4-0.4,0.7-0.5
		l14.1-5.1c0.5-0.2,0.9-0.7,1.1-1.2l4.4-16.6c0.1-0.8,0.9-1.4,1.7-1.3c0.5,0.1,0.9,0.4,1.1,0.8l8.5,14.2c0.3,0.5,0.8,0.8,1.3,0.8
		l14.8-0.2c1.3,0,2.1,1.8,1.3,3l-8.9,13.9c-0.3,0.5-0.4,1.2-0.2,1.7l4.7,16.5c0.4,1.5-0.8,2.9-2,2.4l-14-5.6
		c-0.5-0.2-1.1-0.1-1.5,0.3l-11.9,10.4C433.8,675.3,432.3,674.3,432.3,672.7z"/>
	
		<linearGradient id="SVGID_38_" gradientUnits="userSpaceOnUse" x1="1006.3572" y1="1104.6218" x2="1064.3749" y2="-257.7736" gradientTransform="matrix(-1 0 0 1 1353.3461 -14.2821)">
		<stop  offset="0" style="stop-color:#F6AC07"/>
		<stop  offset="0.19" style="stop-color:#F8AF09;stop-opacity:0.79"/>
		<stop  offset="0.59" style="stop-color:#FCB50D;stop-opacity:0.37"/>
		<stop  offset="0.87" style="stop-color:#FEB90F;stop-opacity:0.1"/>
		<stop  offset="1" style="stop-color:#FFBA10;stop-opacity:0"/>
	</linearGradient>
	<path class="st38" d="M343.1,652.3l-13.6-6.9c-0.5-0.2-1.1-0.2-1.5,0.1l-12.5,9.3c-1.1,0.8-2.6-0.2-2.5-1.8l1.3-17.3
		c0.1-0.6-0.2-1.2-0.6-1.6L302.4,623c-0.8-0.8-0.8-2.1,0-2.8c0.2-0.2,0.4-0.4,0.7-0.5l14.5-3.9c0.5-0.2,1-0.6,1.1-1.1l5.4-16.1
		c0.2-0.8,1-1.3,1.8-1.2c0.5,0.1,0.9,0.4,1.1,0.9l7.6,14.9c0.2,0.5,0.7,0.9,1.3,0.9l14.8,1.1c1.3,0.1,2,1.9,1.1,3.1l-9.8,13
		c-0.4,0.5-0.5,1.1-0.4,1.7l3.7,16.8C345.6,651.6,344.3,652.9,343.1,652.3z"/>
	
		<linearGradient id="SVGID_39_" gradientUnits="userSpaceOnUse" x1="1080.3032" y1="1107.399" x2="1138.2004" y2="-252.2878" gradientTransform="matrix(-1 0 0 1 1353.3461 -14.2821)">
		<stop  offset="0" style="stop-color:#F6AC07"/>
		<stop  offset="0.19" style="stop-color:#F8AF09;stop-opacity:0.79"/>
		<stop  offset="0.59" style="stop-color:#FCB50D;stop-opacity:0.37"/>
		<stop  offset="0.87" style="stop-color:#FEB90F;stop-opacity:0.1"/>
		<stop  offset="1" style="stop-color:#FFBA10;stop-opacity:0"/>
	</linearGradient>
	<path class="st39" d="M251,729.4l-3.8-18c-0.1-0.6-0.5-1.1-1-1.4l-14.7-6.6c-1-0.6-1.4-1.9-0.8-3c0.1-0.2,0.3-0.4,0.5-0.6l13.4-9.7
		c0.5-0.4,0.8-1,0.8-1.6l0.8-18.5c0.1-1.7,1.7-2.5,2.8-1.4l12,11.9c0.4,0.4,1,0.6,1.6,0.4l15.2-4.9c1.4-0.4,2.6,1.2,2,2.7l-6,17.1
		c-0.2,0.6-0.2,1.3,0.2,1.9l8.6,15.5c0.8,1.4-0.1,3.2-1.6,3.1l-15.7-1.4c-0.6,0-1.1,0.2-1.5,0.7l-9.9,14.4c-0.5,0.8-1.5,1-2.2,0.6
		C251.3,730.5,251,730,251,729.4z"/>
	
		<linearGradient id="SVGID_40_" gradientUnits="userSpaceOnUse" x1="1238.9742" y1="1114.8151" x2="1296.8011" y2="-243.086" gradientTransform="matrix(-1 0 0 1 1353.3461 -14.2821)">
		<stop  offset="0" style="stop-color:#F6AC07"/>
		<stop  offset="0.19" style="stop-color:#F8AF09;stop-opacity:0.79"/>
		<stop  offset="0.59" style="stop-color:#FCB50D;stop-opacity:0.37"/>
		<stop  offset="0.87" style="stop-color:#FEB90F;stop-opacity:0.1"/>
		<stop  offset="1" style="stop-color:#FFBA10;stop-opacity:0"/>
	</linearGradient>
	<path class="st40" d="M95.6,734.2l-8.8-21c-0.3-0.7-0.9-1.2-1.6-1.4l-19.8-3.4c-1.8-0.3-2.5-2.9-1.2-4.3l14.3-16.4
		c0.5-0.6,0.7-1.4,0.6-2.2l-3.4-23.1c-0.3-2.1,1.6-3.7,3.1-2.7l17.7,10.9c0.6,0.4,1.4,0.4,2,0l17.7-10.9c1.6-1,3.4,0.6,3.1,2.7
		l-3.4,23.1c-0.1,0.8,0.1,1.6,0.6,2.2l14.3,16.3c1.3,1.5,0.6,4-1.2,4.3l-19.8,3.4c-0.7,0.2-1.4,0.7-1.6,1.4l-8.8,21
		c-0.3,1.1-1.4,1.7-2.5,1.4C96.4,735.5,95.8,734.9,95.6,734.2z"/>
	
		<linearGradient id="SVGID_41_" gradientUnits="userSpaceOnUse" x1="1144.8223" y1="1110.0798" x2="1202.6592" y2="-248.0317" gradientTransform="matrix(-1 0 0 1 1353.3461 -14.2821)">
		<stop  offset="0" style="stop-color:#F6AC07"/>
		<stop  offset="0.19" style="stop-color:#F8AF09;stop-opacity:0.79"/>
		<stop  offset="0.59" style="stop-color:#FCB50D;stop-opacity:0.37"/>
		<stop  offset="0.87" style="stop-color:#FEB90F;stop-opacity:0.1"/>
		<stop  offset="1" style="stop-color:#FFBA10;stop-opacity:0"/>
	</linearGradient>
	<path class="st41" d="M187.5,666.6l-6.2-15.8c-0.2-0.5-0.6-0.9-1.2-1.1l-14.6-2.9c-1-0.4-1.6-1.5-1.2-2.6c0.1-0.2,0.2-0.5,0.4-0.7
		l10.9-11.8c0.4-0.5,0.6-1.1,0.5-1.7l-2.1-17.2c-0.2-1.5,1.2-2.7,2.4-1.9l12.9,8.5c0.5,0.3,1,0.3,1.5,0l13.3-7.7
		c1.2-0.7,2.5,0.5,2.3,2l-2.9,17.1c-0.1,0.6,0.1,1.2,0.4,1.7l10.4,12.4c0.7,0.9,0.6,2.1-0.3,2.8c-0.2,0.2-0.4,0.3-0.7,0.4l-14.7,2.1
		c-0.6,0.1-1,0.5-1.2,1l-6.9,15.4c-0.3,0.8-1.2,1.2-2,0.9C187.9,667.3,187.6,667,187.5,666.6z"/>
	
		<linearGradient id="SVGID_42_" gradientUnits="userSpaceOnUse" x1="755.8779" y1="1090.5857" x2="813.715" y2="-267.556" gradientTransform="matrix(-1 0 0 1 1353.3461 -14.2821)">
		<stop  offset="0" style="stop-color:#F6AC07"/>
		<stop  offset="0.19" style="stop-color:#F8AF09;stop-opacity:0.79"/>
		<stop  offset="0.59" style="stop-color:#FCB50D;stop-opacity:0.37"/>
		<stop  offset="0.87" style="stop-color:#FEB90F;stop-opacity:0.1"/>
		<stop  offset="1" style="stop-color:#FFBA10;stop-opacity:0"/>
	</linearGradient>
	<path class="st42" d="M603.2,633.4l-10.9,11.8c-0.4,0.5-0.6,1.1-0.5,1.7l2.1,17.2c0.2,1.5-1.2,2.7-2.4,1.9l-12.9-8.5
		c-0.4-0.3-1-0.3-1.5-0.1l-13.3,7.6c-1.2,0.7-2.5-0.5-2.3-2.1l2.9-17.1c0.1-0.6-0.1-1.2-0.4-1.7l-10.3-12.5
		c-0.7-0.9-0.6-2.1,0.3-2.8c0.2-0.2,0.4-0.3,0.7-0.4l14.7-2c0.6-0.1,1-0.5,1.2-1l6.9-15.4c0.3-0.8,1.2-1.2,1.9-0.9
		c0.5,0.2,0.8,0.5,0.9,1l6.2,15.8c0.2,0.5,0.6,0.9,1.2,1.1l14.6,3c1,0.4,1.6,1.6,1.2,2.6C603.5,633,603.4,633.2,603.2,633.4z"/>
	
		<linearGradient id="SVGID_43_" gradientUnits="userSpaceOnUse" x1="800.3616" y1="1094.2981" x2="858.3592" y2="-267.7662" gradientTransform="matrix(-1 0 0 1 1353.3461 -14.2821)">
		<stop  offset="0" style="stop-color:#F6AC07"/>
		<stop  offset="0.19" style="stop-color:#F8AF09;stop-opacity:0.79"/>
		<stop  offset="0.59" style="stop-color:#FCB50D;stop-opacity:0.37"/>
		<stop  offset="0.87" style="stop-color:#FEB90F;stop-opacity:0.1"/>
		<stop  offset="1" style="stop-color:#FFBA10;stop-opacity:0"/>
	</linearGradient>
	<path class="st43" d="M520.8,570.7l0.6-12.8c0-0.4-0.1-0.9-0.5-1.2l-8.7-7.8c-0.6-0.6-0.6-1.5-0.1-2.1c0.1-0.1,0.3-0.3,0.5-0.3
		l10.5-3.3c0.4-0.1,0.7-0.5,0.8-0.9l3.6-12c0.1-0.6,0.7-1,1.3-0.9c0.3,0.1,0.6,0.3,0.8,0.6l5.9,10.7c0.2,0.4,0.5,0.6,1,0.6l10.9,0.4
		c0.8,0.1,1.3,0.9,1.1,1.7c0,0.2-0.1,0.4-0.3,0.6l-6.9,9.9c-0.3,0.4-0.3,0.8-0.2,1.3l3.1,12.3c0.3,1.1-0.6,2.1-1.6,1.7l-10.2-4.6
		c-0.4-0.2-0.8-0.1-1.1,0.2l-9,7.2C521.8,572.5,520.7,571.8,520.8,570.7z"/>
	
		<linearGradient id="SVGID_44_" gradientUnits="userSpaceOnUse" x1="930.1973" y1="1100.9202" x2="988.225" y2="-261.7061" gradientTransform="matrix(-1 0 0 1 1353.3461 -14.2821)">
		<stop  offset="0" style="stop-color:#F6AC07"/>
		<stop  offset="0.19" style="stop-color:#F8AF09;stop-opacity:0.79"/>
		<stop  offset="0.59" style="stop-color:#FCB50D;stop-opacity:0.37"/>
		<stop  offset="0.87" style="stop-color:#FEB90F;stop-opacity:0.1"/>
		<stop  offset="1" style="stop-color:#FFBA10;stop-opacity:0"/>
	</linearGradient>
	<path class="st44" d="M380.4,561.4l8.3-10.5c0.3-0.4,0.4-0.9,0.3-1.4l-2.7-13.9c-0.2-1.3,0.9-2.3,1.8-1.7l11,6
		c0.4,0.2,0.9,0.2,1.2-0.1l10.5-7.3c0.9-0.7,2.1,0.2,2,1.5l-1.4,14.2c-0.1,0.5,0.1,1,0.4,1.3l9.1,9.4c0.6,0.7,0.6,1.7,0,2.3
		c-0.2,0.2-0.4,0.3-0.6,0.4l-11.9,2.7c-0.5,0.1-0.8,0.4-1,0.9l-4.8,13.1c-0.2,0.7-0.8,1.1-1.5,0.9c-0.4-0.1-0.7-0.4-0.9-0.8
		l-5.9-12.5c-0.2-0.4-0.6-0.7-1-0.8l-12.2-1.3c-0.9-0.2-1.4-1.1-1.1-2C380.1,561.8,380.2,561.5,380.4,561.4z"/>
	
		<linearGradient id="SVGID_45_" gradientUnits="userSpaceOnUse" x1="1065.062" y1="1106.7904" x2="1122.9994" y2="-253.5585" gradientTransform="matrix(-1 0 0 1 1353.3461 -14.2821)">
		<stop  offset="0" style="stop-color:#F6AC07"/>
		<stop  offset="0.19" style="stop-color:#F8AF09;stop-opacity:0.79"/>
		<stop  offset="0.59" style="stop-color:#FCB50D;stop-opacity:0.37"/>
		<stop  offset="0.87" style="stop-color:#FEB90F;stop-opacity:0.1"/>
		<stop  offset="1" style="stop-color:#FFBA10;stop-opacity:0"/>
	</linearGradient>
	<path class="st45" d="M250.7,542.1l9.7,1.8c0.4,0.1,0.7-0.1,0.9-0.4l6.8-8.4c0.3-0.5,0.9-0.6,1.4-0.3c0.3,0.2,0.5,0.6,0.4,0.9
		l1.6,11.4c0,0.4,0.3,0.7,0.6,0.9l8.9,5c0.6,0.4,0.8,1.3,0.4,1.9c-0.1,0.1-0.2,0.3-0.4,0.4l-8.8,5.3c-0.3,0.2-0.6,0.6-0.6,1
		l-1.3,11.5c-0.1,1-1.2,1.5-1.8,0.7l-7-8.2c-0.2-0.3-0.6-0.4-0.9-0.3l-9.7,2.1c-0.9,0.2-1.5-0.9-1.1-1.8l4.5-10.3
		c0.2-0.4,0.2-0.8,0-1.2l-4.7-10.2C249.1,543,249.8,541.9,250.7,542.1z"/>
	
		<linearGradient id="SVGID_46_" gradientUnits="userSpaceOnUse" x1="1190.1116" y1="1113.8796" x2="1248.1193" y2="-248.3451" gradientTransform="matrix(-1 0 0 1 1353.3461 -14.2821)">
		<stop  offset="0" style="stop-color:#F6AC07"/>
		<stop  offset="0.19" style="stop-color:#F8AF09;stop-opacity:0.79"/>
		<stop  offset="0.59" style="stop-color:#FCB50D;stop-opacity:0.37"/>
		<stop  offset="0.87" style="stop-color:#FEB90F;stop-opacity:0.1"/>
		<stop  offset="1" style="stop-color:#FFBA10;stop-opacity:0"/>
	</linearGradient>
	<path class="st46" d="M138.9,519.1l6.5,12.3c0.2,0.4,0.6,0.7,1.1,0.7l12.3,0.7c0.9,0.1,1.5,1,1.3,1.8c0,0.3-0.2,0.5-0.3,0.7
		l-7.9,11c-0.3,0.4-0.4,0.9-0.3,1.4l3.3,13.9c0.3,1.3-0.8,2.4-1.8,1.9l-11.4-5.4c-0.4-0.2-0.9-0.1-1.2,0.2l-10.3,7.9
		c-0.9,0.7-2.1-0.1-2.1-1.4l0.9-14.4c0-0.5-0.1-1-0.5-1.3l-9.6-9c-0.7-0.6-0.7-1.7,0-2.4c0.2-0.2,0.3-0.3,0.5-0.4l11.9-3.5
		c0.5-0.2,0.8-0.5,0.9-1l4.3-13.5c0.2-0.7,0.9-1.1,1.5-0.9C138.5,518.5,138.8,518.8,138.9,519.1z"/>
	
		<linearGradient id="SVGID_47_" gradientUnits="userSpaceOnUse" x1="988.1489" y1="1152.8976" x2="1046.026" y2="-206.1772" gradientTransform="matrix(-1 0 0 1 1353.3461 -14.2821)">
		<stop  offset="0" style="stop-color:#F6AC07"/>
		<stop  offset="0.19" style="stop-color:#F8AF09;stop-opacity:0.79"/>
		<stop  offset="0.59" style="stop-color:#FCB50D;stop-opacity:0.37"/>
		<stop  offset="0.87" style="stop-color:#FEB90F;stop-opacity:0.1"/>
		<stop  offset="1" style="stop-color:#FFBA10;stop-opacity:0"/>
	</linearGradient>
	<path class="st47" d="M376.5,1055.4l-22.2-18.8c-0.7-0.7-1.8-0.8-2.7-0.5l-25.8,10.8c-2.3,1-4.6-1.6-3.8-4.3l8.4-30.6
		c0.3-1.1,0.1-2.2-0.5-3.2l-16.7-25.4c-1.5-2.3-0.1-5.6,2.3-5.6l27.4-0.1c1,0,2-0.6,2.4-1.5l15.4-26.5c1.4-2.4,4.5-1.9,5.3,0.9
		l8.5,30.5c0.3,1,1,1.9,2,2.3l26.3,9c2.4,0.8,2.9,4.4,0.9,6.1l-22.1,18.9c-0.8,0.7-1.3,1.8-1.2,2.9l0.8,32.1
		C381.3,1055.4,378.5,1057.1,376.5,1055.4z"/>
	
		<linearGradient id="SVGID_48_" gradientUnits="userSpaceOnUse" x1="804.6689" y1="1143.9789" x2="862.6665" y2="-217.925" gradientTransform="matrix(-1 0 0 1 1353.3461 -14.2821)">
		<stop  offset="0" style="stop-color:#F6AC07"/>
		<stop  offset="0.19" style="stop-color:#F8AF09;stop-opacity:0.79"/>
		<stop  offset="0.59" style="stop-color:#FCB50D;stop-opacity:0.37"/>
		<stop  offset="0.87" style="stop-color:#FEB90F;stop-opacity:0.1"/>
		<stop  offset="1" style="stop-color:#FFBA10;stop-opacity:0"/>
	</linearGradient>
	<path class="st48" d="M498.6,1029.5l16.8-25.3c0.6-0.9,0.8-2.1,0.5-3.2l-8.3-30.6c-0.7-2.7,1.5-5.3,3.8-4.3l25.8,10.9
		c0.9,0.4,2,0.2,2.7-0.4l22.3-18.7c2-1.7,4.8,0.1,4.7,2.9L566,993c0,1.1,0.4,2.2,1.2,2.9l22,19.1c2,1.7,1.4,5.3-0.9,6.1L562,1030
		c-1,0.4-1.7,1.2-2,2.2l-8.6,30.4c-0.8,2.7-3.9,3.2-5.3,0.9l-15.3-26.6c-0.5-0.9-1.4-1.5-2.4-1.5l-27.4-0.3
		C498.5,1035.1,497.1,1031.8,498.6,1029.5z"/>
	
		<linearGradient id="SVGID_49_" gradientUnits="userSpaceOnUse" x1="1158.0513" y1="1144.2096" x2="1215.9987" y2="-216.5104" gradientTransform="matrix(-1 0 0 1 1353.3461 -14.2821)">
		<stop  offset="0" style="stop-color:#F6AC07"/>
		<stop  offset="0.19" style="stop-color:#F8AF09;stop-opacity:0.79"/>
		<stop  offset="0.59" style="stop-color:#FCB50D;stop-opacity:0.37"/>
		<stop  offset="0.87" style="stop-color:#FEB90F;stop-opacity:0.1"/>
		<stop  offset="1" style="stop-color:#FFBA10;stop-opacity:0"/>
	</linearGradient>
	<path class="st49" d="M232.3,973.4l-24.9,13.3c-0.9,0.5-1.6,1.5-1.7,2.6l-4.8,31.6c-0.4,2.8-3.5,3.9-5.1,1.7l-18.5-23.7
		c-0.6-0.8-1.6-1.2-2.6-1.1l-27.1,4.4c-2.4,0.4-4.2-2.6-3-5.2l13.5-27.9c0.5-1,0.5-2.2,0.1-3.2l-12-28.9c-1.1-2.6,0.9-5.5,3.3-4.9
		l26.8,6.5c1,0.2,2-0.1,2.6-0.9l19.7-22.3c1.8-2,4.7-0.8,5,2.1l3.1,31.9c0.1,1.1,0.6,2.1,1.5,2.7l24.1,15.1c1.7,1.2,2.1,3.6,0.9,5.2
		C233,972.9,232.7,973.2,232.3,973.4z"/>
	
		<linearGradient id="SVGID_50_" gradientUnits="userSpaceOnUse" x1="1287.1548" y1="1118.3162" x2="1345.1724" y2="-244.0091" gradientTransform="matrix(-1 0 0 1 1353.3461 -14.2821)">
		<stop  offset="0" style="stop-color:#F6AC07"/>
		<stop  offset="0.19" style="stop-color:#F8AF09;stop-opacity:0.79"/>
		<stop  offset="0.59" style="stop-color:#FCB50D;stop-opacity:0.37"/>
		<stop  offset="0.87" style="stop-color:#FEB90F;stop-opacity:0.1"/>
		<stop  offset="1" style="stop-color:#FFBA10;stop-opacity:0"/>
	</linearGradient>
	<path class="st50" d="M29.4,899.2l2.3-32c0.1-1.1-0.3-2.2-1.1-3L9.4,843.9c-1.9-1.8-1.2-5.4,1.2-6.1l26.6-7.4
		c1-0.3,1.8-1.1,2.1-2.1l9.9-29.9c0.9-2.7,4-3,5.3-0.6l14.2,27.4c0.5,0.9,1.3,1.6,2.4,1.7l27.3,1.8c2.5,0.2,3.7,3.6,2.1,5.7
		l-17.9,24.3c-0.6,0.9-0.9,2.1-0.6,3.2l7,31.1c0.6,2.8-1.8,5.2-4,4.1l-25.2-12.4c-0.9-0.4-2-0.3-2.7,0.3l-23,17.3
		C31.9,904,29.2,902.1,29.4,899.2z"/>
	
		<linearGradient id="SVGID_51_" gradientUnits="userSpaceOnUse" x1="985.5469" y1="1103.6385" x2="1043.5544" y2="-258.4258" gradientTransform="matrix(-1 0 0 1 1353.3461 -14.2821)">
		<stop  offset="0" style="stop-color:#F6AC07"/>
		<stop  offset="0.19" style="stop-color:#F8AF09;stop-opacity:0.79"/>
		<stop  offset="0.59" style="stop-color:#FCB50D;stop-opacity:0.37"/>
		<stop  offset="0.87" style="stop-color:#FEB90F;stop-opacity:0.1"/>
		<stop  offset="1" style="stop-color:#FFBA10;stop-opacity:0"/>
	</linearGradient>
	<path class="st51" d="M334.9,509.7l0.4-10c0-0.3-0.1-0.7-0.4-0.9l-6.7-6.1c-0.5-0.4-0.5-1.2-0.1-1.6c0.1-0.1,0.2-0.2,0.4-0.3
		l8.2-2.6c0.3-0.1,0.5-0.4,0.6-0.7l2.8-9.4c0.1-0.5,0.5-0.8,1-0.7c0.3,0,0.5,0.2,0.6,0.5l4.6,8.4c0.1,0.3,0.4,0.5,0.7,0.5l8.5,0.3
		c0.6,0.1,1,0.7,0.9,1.3c0,0.2-0.1,0.3-0.2,0.5l-5.4,7.8c-0.2,0.3-0.3,0.7-0.2,1l2.4,9.6c0.2,0.9-0.5,1.6-1.2,1.3l-7.9-3.6
		c-0.3-0.1-0.6-0.1-0.9,0.1l-7,5.6C335.7,511.2,334.8,510.6,334.9,509.7z"/>
	
		<linearGradient id="SVGID_52_" gradientUnits="userSpaceOnUse" x1="764.6744" y1="1090.8799" x2="822.5216" y2="-267.3622" gradientTransform="matrix(-1 0 0 1 1353.3461 -14.2821)">
		<stop  offset="0" style="stop-color:#F6AC07"/>
		<stop  offset="0.19" style="stop-color:#F8AF09;stop-opacity:0.79"/>
		<stop  offset="0.59" style="stop-color:#FCB50D;stop-opacity:0.37"/>
		<stop  offset="0.87" style="stop-color:#FEB90F;stop-opacity:0.1"/>
		<stop  offset="1" style="stop-color:#FFBA10;stop-opacity:0"/>
	</linearGradient>
	<path class="st52" d="M577.9,485.5l-6.4,6.8c-0.2,0.3-0.4,0.6-0.3,1l1.1,10c0.1,0.9-0.7,1.5-1.4,1.1l-7.5-5c-0.3-0.2-0.6-0.2-0.9,0
		l-7.8,4.4c-0.7,0.4-1.5-0.3-1.3-1.2l1.8-9.9c0.1-0.4,0-0.7-0.2-1l-5.9-7.4c-0.4-0.5-0.3-1.2,0.1-1.6c0.1-0.1,0.3-0.2,0.4-0.2
		l8.6-1.1c0.3,0,0.6-0.3,0.7-0.6l4.1-8.9c0.2-0.5,0.7-0.7,1.1-0.5c0.3,0.1,0.5,0.3,0.5,0.6l3.5,9.2c0.1,0.3,0.4,0.5,0.7,0.6l8.5,1.9
		c0.6,0.2,0.9,0.9,0.6,1.5C578,485.3,577.9,485.4,577.9,485.5z"/>
	
		<linearGradient id="SVGID_53_" gradientUnits="userSpaceOnUse" x1="891.7802" y1="1099.0126" x2="949.7877" y2="-263.0518" gradientTransform="matrix(-1 0 0 1 1353.3461 -14.2821)">
		<stop  offset="0" style="stop-color:#F6AC07"/>
		<stop  offset="0.19" style="stop-color:#F8AF09;stop-opacity:0.79"/>
		<stop  offset="0.59" style="stop-color:#FCB50D;stop-opacity:0.37"/>
		<stop  offset="0.87" style="stop-color:#FEB90F;stop-opacity:0.1"/>
		<stop  offset="1" style="stop-color:#FFBA10;stop-opacity:0"/>
	</linearGradient>
	<path class="st53" d="M429.7,453l0.3-6c0-0.2-0.1-0.4-0.2-0.5l-4-3.6c-0.3-0.3-0.3-0.7,0-1c0.1-0.1,0.1-0.1,0.2-0.2l4.9-1.5
		c0.2-0.1,0.3-0.2,0.4-0.4l1.7-5.6c0-0.3,0.2-0.5,0.5-0.5c0.2,0,0.4,0.2,0.5,0.4l2.8,5c0.1,0.2,0.3,0.3,0.5,0.3l5.1,0.2
		c0.4,0.1,0.6,0.4,0.5,0.8c0,0.1-0.1,0.2-0.1,0.2l-3.2,4.6c-0.1,0.2-0.1,0.4-0.1,0.6l1.4,5.7c0.1,0.5-0.3,1-0.7,0.8l-4.7-2.1
		c-0.2-0.1-0.4-0.1-0.5,0.1l-4.2,3.4C430.2,453.9,429.7,453.5,429.7,453z"/>
	
		<linearGradient id="SVGID_54_" gradientUnits="userSpaceOnUse" x1="1086.7668" y1="1107.6219" x2="1144.6742" y2="-252.1349" gradientTransform="matrix(-1 0 0 1 1353.3461 -14.2821)">
		<stop  offset="0" style="stop-color:#F6AC07"/>
		<stop  offset="0.19" style="stop-color:#F8AF09;stop-opacity:0.79"/>
		<stop  offset="0.59" style="stop-color:#FCB50D;stop-opacity:0.37"/>
		<stop  offset="0.87" style="stop-color:#FEB90F;stop-opacity:0.1"/>
		<stop  offset="1" style="stop-color:#FFBA10;stop-opacity:0"/>
	</linearGradient>
	<path class="st54" d="M241.9,457.6l-5-5c-0.2-0.2-0.4-0.2-0.6-0.2l-6.4,2c-0.6,0.2-1.1-0.5-0.8-1.1l2.5-7.2
		c0.1-0.3,0.1-0.5-0.1-0.8l-3.6-6.5c-0.3-0.4-0.2-0.9,0.2-1.2c0.1-0.1,0.3-0.1,0.4-0.1l6.6,0.6c0.2,0,0.5-0.1,0.6-0.3l4.2-6
		c0.2-0.3,0.7-0.4,1-0.2c0.2,0.1,0.3,0.3,0.3,0.5l1.5,7.5c0,0.3,0.2,0.5,0.4,0.6l6.2,2.8c0.4,0.3,0.6,0.8,0.3,1.2
		c-0.1,0.1-0.1,0.2-0.2,0.3l-5.6,4c-0.2,0.2-0.3,0.4-0.4,0.7l-0.4,7.7C243.1,457.8,242.4,458.1,241.9,457.6z"/>
	
		<linearGradient id="SVGID_55_" gradientUnits="userSpaceOnUse" x1="1160.6686" y1="1111.735" x2="1218.6058" y2="-248.8646" gradientTransform="matrix(-1 0 0 1 1353.3461 -14.2821)">
		<stop  offset="0" style="stop-color:#F6AC07"/>
		<stop  offset="0.19" style="stop-color:#F8AF09;stop-opacity:0.79"/>
		<stop  offset="0.59" style="stop-color:#FCB50D;stop-opacity:0.37"/>
		<stop  offset="0.87" style="stop-color:#FEB90F;stop-opacity:0.1"/>
		<stop  offset="1" style="stop-color:#FFBA10;stop-opacity:0"/>
	</linearGradient>
	<path class="st55" d="M163.6,509.5l-0.8-7.7c0-0.3-0.2-0.5-0.4-0.6l-5.9-3.6c-0.4-0.3-0.5-0.9-0.2-1.3c0.1-0.1,0.1-0.2,0.2-0.2
		l6-3.3c0.2-0.1,0.4-0.4,0.4-0.6l1.1-7.7c0-0.4,0.3-0.7,0.7-0.7c0.2,0,0.4,0.1,0.5,0.2l4.5,5.6c0.1,0.2,0.4,0.3,0.6,0.3l6.5-1.2
		c0.6-0.1,1,0.6,0.7,1.2l-3.2,6.8c-0.1,0.3-0.1,0.5,0,0.8l3,6.9c0.3,0.6-0.2,1.3-0.8,1.2l-6.5-1.4c-0.2-0.1-0.5,0-0.6,0.2l-4.7,5.5
		C164.4,510.5,163.7,510.2,163.6,509.5z"/>
	
		<linearGradient id="SVGID_56_" gradientUnits="userSpaceOnUse" x1="860.4122" y1="1097.4991" x2="918.4297" y2="-264.9968" gradientTransform="matrix(-1 0 0 1 1353.3461 -14.2821)">
		<stop  offset="0" style="stop-color:#F6AC07"/>
		<stop  offset="0.19" style="stop-color:#F8AF09;stop-opacity:0.79"/>
		<stop  offset="0.59" style="stop-color:#FCB50D;stop-opacity:0.37"/>
		<stop  offset="0.87" style="stop-color:#FEB90F;stop-opacity:0.1"/>
		<stop  offset="1" style="stop-color:#FFBA10;stop-opacity:0"/>
	</linearGradient>
	<path class="st56" d="M468.2,513.4l-3.3-6.7c-0.1-0.2-0.3-0.4-0.6-0.4l-6.6-0.6c-0.5-0.1-0.8-0.6-0.6-1.1c0-0.1,0.1-0.2,0.2-0.3
		l4.4-5.8c0.2-0.2,0.2-0.5,0.2-0.8l-1.5-7.5c-0.1-0.7,0.4-1.2,1-1l6,3.1c0.2,0.1,0.5,0.1,0.7,0l5.6-4c0.5-0.4,1.2,0.1,1.1,0.8
		l-0.7,7.7c0,0.3,0.1,0.5,0.3,0.7l5,5c0.3,0.4,0.3,0.9,0,1.3c-0.1,0.1-0.2,0.1-0.3,0.2l-6.5,1.6c-0.2,0.1-0.4,0.3-0.5,0.5l-2.5,7.2
		c-0.1,0.4-0.5,0.6-0.8,0.5C468.4,513.8,468.2,513.6,468.2,513.4z"/>
	
		<linearGradient id="SVGID_57_" gradientUnits="userSpaceOnUse" x1="1142.1942" y1="1111.6144" x2="1200.1918" y2="-250.45" gradientTransform="matrix(-1 0 0 1 1353.3461 -14.2821)">
		<stop  offset="0" style="stop-color:#F6AC07"/>
		<stop  offset="0.19" style="stop-color:#F8AF09;stop-opacity:0.79"/>
		<stop  offset="0.59" style="stop-color:#FCB50D;stop-opacity:0.37"/>
		<stop  offset="0.87" style="stop-color:#FEB90F;stop-opacity:0.1"/>
		<stop  offset="1" style="stop-color:#FFBA10;stop-opacity:0"/>
	</linearGradient>
	<path class="st57" d="M176.6,400.9l0.3-5.9c0-0.2-0.1-0.4-0.2-0.6l-4-3.6c-0.3-0.3-0.3-0.7,0-1c0.1-0.1,0.1-0.1,0.2-0.2l4.9-1.5
		c0.2-0.1,0.3-0.2,0.4-0.4l1.7-5.6c0-0.3,0.3-0.5,0.6-0.5c0.2,0,0.4,0.1,0.4,0.3l2.8,5c0.1,0.2,0.3,0.3,0.5,0.3l5.1,0.2
		c0.4,0.1,0.6,0.4,0.5,0.8c0,0.1,0,0.1-0.1,0.2l-3.2,4.6c-0.1,0.2-0.1,0.4-0.1,0.6l1.4,5.7c0.1,0.5-0.3,1-0.7,0.8l-4.7-2.1
		c-0.2-0.1-0.4,0-0.5,0.1l-4.2,3.4C177.1,401.8,176.6,401.5,176.6,400.9z"/>
	
		<linearGradient id="SVGID_58_" gradientUnits="userSpaceOnUse" x1="1142.1942" y1="819.6245" x2="1200.1918" y2="-542.4399" gradientTransform="matrix(-1 0 0 1 1353.3461 -14.2821)">
		<stop  offset="0" style="stop-color:#F6AC07"/>
		<stop  offset="0.19" style="stop-color:#F8AF09;stop-opacity:0.79"/>
		<stop  offset="0.59" style="stop-color:#FCB50D;stop-opacity:0.37"/>
		<stop  offset="0.87" style="stop-color:#FEB90F;stop-opacity:0.1"/>
		<stop  offset="1" style="stop-color:#FFBA10;stop-opacity:0"/>
	</linearGradient>
	<path class="st58" d="M176.6,108.9l0.3-5.9c0-0.2-0.1-0.4-0.2-0.6l-4-3.6c-0.3-0.3-0.3-0.7,0-1c0.1-0.1,0.1-0.1,0.2-0.2l4.9-1.5
		c0.2-0.1,0.3-0.2,0.4-0.4l1.7-5.6c0-0.3,0.3-0.5,0.6-0.5c0.2,0,0.4,0.1,0.4,0.3l2.8,5c0.1,0.2,0.3,0.3,0.5,0.3l5.1,0.2
		c0.4,0.1,0.6,0.4,0.5,0.8c0,0.1,0,0.1-0.1,0.2l-3.2,4.6c-0.1,0.2-0.1,0.4-0.1,0.6l1.4,5.7c0.1,0.5-0.3,1-0.7,0.8l-4.7-2.1
		c-0.2-0.1-0.4,0-0.5,0.1l-4.2,3.4C177.1,109.8,176.6,109.5,176.6,108.9z"/>
	
		<linearGradient id="SVGID_59_" gradientUnits="userSpaceOnUse" x1="787.127" y1="1092.4236" x2="845.0142" y2="-266.8116" gradientTransform="matrix(-1 0 0 1 1353.3461 -14.2821)">
		<stop  offset="0" style="stop-color:#F6AC07"/>
		<stop  offset="0.19" style="stop-color:#F8AF09;stop-opacity:0.79"/>
		<stop  offset="0.59" style="stop-color:#FCB50D;stop-opacity:0.37"/>
		<stop  offset="0.87" style="stop-color:#FEB90F;stop-opacity:0.1"/>
		<stop  offset="1" style="stop-color:#FFBA10;stop-opacity:0"/>
	</linearGradient>
	<path class="st59" d="M545.5,404.9l-5.1-0.1c-0.2,0-0.4,0.1-0.5,0.3l-2.9,4.9c-0.1,0.3-0.4,0.4-0.7,0.3c-0.2-0.1-0.3-0.3-0.3-0.5
		l-1.5-5.7c0-0.2-0.2-0.4-0.4-0.4l-4.8-1.8c-0.3-0.2-0.5-0.6-0.3-0.9c0-0.1,0.1-0.2,0.2-0.2l4.2-3.4c0.2-0.1,0.2-0.3,0.2-0.5l-0.1-6
		c0-0.5,0.5-0.8,0.9-0.5l4.1,3.6c0.1,0.1,0.3,0.2,0.5,0.1l4.8-1.9c0.4-0.2,0.8,0.3,0.7,0.8l-1.7,5.6c-0.1,0.2,0,0.4,0.1,0.6l3,4.8
		c0.2,0.3,0.1,0.7-0.2,0.9C545.7,404.8,545.6,404.8,545.5,404.9z"/>
	
		<linearGradient id="SVGID_60_" gradientUnits="userSpaceOnUse" x1="1205.6143" y1="1114.3839" x2="1263.5917" y2="-247.1187" gradientTransform="matrix(-1 0 0 1 1353.3461 -14.2821)">
		<stop  offset="0" style="stop-color:#F6AC07"/>
		<stop  offset="0.19" style="stop-color:#F8AF09;stop-opacity:0.79"/>
		<stop  offset="0.59" style="stop-color:#FCB50D;stop-opacity:0.37"/>
		<stop  offset="0.87" style="stop-color:#FEB90F;stop-opacity:0.1"/>
		<stop  offset="1" style="stop-color:#FFBA10;stop-opacity:0"/>
	</linearGradient>
	<path class="st60" d="M121.3,467.3l-4.4-6.8c-0.1-0.2-0.4-0.4-0.7-0.4l-7.3,0.4c-0.5-0.1-0.9-0.6-0.8-1.1c0-0.1,0.1-0.3,0.1-0.4
		l4.2-7c0.2-0.3,0.2-0.6,0.1-0.9l-2.5-8c-0.2-0.7,0.4-1.4,1-1.2l6.9,2.5c0.3,0.1,0.5,0,0.7-0.2l5.6-5.2c0.5-0.5,1.3-0.1,1.3,0.7
		l0.1,8.5c0,0.3,0.1,0.6,0.4,0.8l6,4.7c0.4,0.4,0.5,1,0.1,1.4c-0.1,0.1-0.2,0.2-0.3,0.2l-6.9,2.7c-0.3,0.1-0.5,0.4-0.5,0.6l-2,8.2
		c-0.1,0.4-0.5,0.6-0.9,0.5C121.5,467.5,121.4,467.4,121.3,467.3z"/>
	
		<linearGradient id="SVGID_61_" gradientUnits="userSpaceOnUse" x1="682.8625" y1="1088.3292" x2="740.84" y2="-273.1733" gradientTransform="matrix(-1 0 0 1 1353.3461 -14.2821)">
		<stop  offset="0" style="stop-color:#F6AC07"/>
		<stop  offset="0.19" style="stop-color:#F8AF09;stop-opacity:0.79"/>
		<stop  offset="0.59" style="stop-color:#FCB50D;stop-opacity:0.37"/>
		<stop  offset="0.87" style="stop-color:#FEB90F;stop-opacity:0.1"/>
		<stop  offset="1" style="stop-color:#FFBA10;stop-opacity:0"/>
	</linearGradient>
	<path class="st61" d="M641.8,388.4l-4.4-6.8c-0.1-0.2-0.4-0.4-0.7-0.4l-7.3,0.3c-0.5-0.1-0.9-0.5-0.8-1c0-0.2,0.1-0.3,0.2-0.4
		l4.2-7c0.2-0.3,0.2-0.6,0.1-0.9l-2.5-8c-0.2-0.7,0.3-1.4,1-1.2l6.9,2.5c0.3,0.1,0.5,0,0.7-0.2l5.7-5.3c0.5-0.5,1.3-0.1,1.3,0.7
		l0.1,8.5c0,0.3,0.1,0.6,0.4,0.8l6,4.7c0.4,0.4,0.5,1,0.1,1.4c-0.1,0.1-0.2,0.2-0.3,0.2l-6.9,2.8c-0.3,0.1-0.4,0.3-0.5,0.6l-2,8.2
		c0,0.4-0.4,0.7-0.8,0.7C642.1,388.7,641.9,388.6,641.8,388.4z"/>
	
		<linearGradient id="SVGID_62_" gradientUnits="userSpaceOnUse" x1="981.7157" y1="1103.389" x2="1039.7032" y2="-258.3643" gradientTransform="matrix(-1 0 0 1 1353.3461 -14.2821)">
		<stop  offset="0" style="stop-color:#F6AC07"/>
		<stop  offset="0.19" style="stop-color:#F8AF09;stop-opacity:0.79"/>
		<stop  offset="0.59" style="stop-color:#FCB50D;stop-opacity:0.37"/>
		<stop  offset="0.87" style="stop-color:#FEB90F;stop-opacity:0.1"/>
		<stop  offset="1" style="stop-color:#FFBA10;stop-opacity:0"/>
	</linearGradient>
	<path class="st62" d="M333.6,395.2l3-4.8c0.1-0.2,0.1-0.4,0.1-0.6l-1.6-5.6c-0.2-0.5,0.3-1,0.7-0.8l4.8,1.9c0.2,0.1,0.4,0,0.5-0.1
		l4.1-3.6c0.4-0.3,0.9,0,0.9,0.5l-0.1,6c0,0.2,0.1,0.4,0.2,0.5l4.1,3.5c0.3,0.3,0.3,0.7,0,1c-0.1,0.1-0.1,0.1-0.2,0.2l-4.9,1.8
		c-0.2,0.1-0.3,0.2-0.4,0.4l-1.5,5.7c0,0.3-0.3,0.5-0.5,0.5c-0.2,0-0.4-0.1-0.5-0.3l-2.9-4.9c-0.1-0.2-0.3-0.3-0.5-0.3l-5.1,0.1
		c-0.4-0.1-0.6-0.4-0.5-0.8C333.5,395.4,333.6,395.3,333.6,395.2z"/>
	
		<linearGradient id="SVGID_63_" gradientUnits="userSpaceOnUse" x1="1165.6721" y1="1112.1671" x2="1223.6595" y2="-249.5061" gradientTransform="matrix(-1 0 0 1 1353.3461 -14.2821)">
		<stop  offset="0" style="stop-color:#F6AC07"/>
		<stop  offset="0.19" style="stop-color:#F8AF09;stop-opacity:0.79"/>
		<stop  offset="0.59" style="stop-color:#FCB50D;stop-opacity:0.37"/>
		<stop  offset="0.87" style="stop-color:#FEB90F;stop-opacity:0.1"/>
		<stop  offset="1" style="stop-color:#FFBA10;stop-opacity:0"/>
	</linearGradient>
	<path class="st63" d="M157.4,826.6l0.1-25.1c0-0.9-0.4-1.7-1-2.2L139,784.9c-1.2-1.1-1.3-2.9-0.3-4.1c0.3-0.3,0.6-0.5,0.9-0.7
		l20.4-7.6c0.8-0.3,1.3-1,1.5-1.8l6.2-24.1c0.6-2.2,3-2.6,4.1-0.8l12.5,20.4c0.4,0.7,1.1,1.1,1.9,1.1l21.4-0.5c1.9,0,3,2.5,1.9,4.3
		l-12.7,20.2c-0.5,0.7-0.6,1.7-0.3,2.5l7,23.7c0.6,2.1-1.1,4.2-2.9,3.5l-20.3-7.9c-0.7-0.3-1.6-0.1-2.1,0.4l-17.1,15.2
		C159.6,830.1,157.4,828.8,157.4,826.6z"/>
	
		<linearGradient id="SVGID_64_" gradientUnits="userSpaceOnUse" x1="1284.9852" y1="1312.3142" x2="1342.9728" y2="-49.359" gradientTransform="matrix(-1 0 0 1 1353.3461 -14.2821)">
		<stop  offset="0" style="stop-color:#F6AC07"/>
		<stop  offset="0.19" style="stop-color:#F8AF09;stop-opacity:0.79"/>
		<stop  offset="0.59" style="stop-color:#FCB50D;stop-opacity:0.37"/>
		<stop  offset="0.87" style="stop-color:#FEB90F;stop-opacity:0.1"/>
		<stop  offset="1" style="stop-color:#FFBA10;stop-opacity:0"/>
	</linearGradient>
	<path class="st64" d="M38.1,1026.7l0.1-25.1c0-0.9-0.3-1.7-1-2.2L19.7,985c-1.2-1.1-1.3-2.9-0.3-4.1c0.3-0.3,0.6-0.5,0.9-0.7
		l20.4-7.6c0.8-0.3,1.3-1,1.5-1.8l6.2-24.1c0.6-2.2,3-2.6,4.1-0.8L65,966.3c0.4,0.7,1.1,1.1,1.9,1.1l21.4-0.5c1.9,0,3,2.5,1.9,4.3
		l-12.7,20.2c-0.5,0.7-0.6,1.7-0.3,2.5l7,23.7c0.6,2.1-1.1,4.2-2.9,3.5l-20.3-7.9c-0.7-0.3-1.6-0.1-2.1,0.4l-17.1,15.2
		C40.3,1030.3,38.1,1029,38.1,1026.7z"/>
	
		<linearGradient id="SVGID_65_" gradientUnits="userSpaceOnUse" x1="869.4697" y1="1096.5652" x2="927.3267" y2="-261.9176" gradientTransform="matrix(-1 0 0 1 1353.3461 -14.2821)">
		<stop  offset="0" style="stop-color:#F6AC07"/>
		<stop  offset="0.19" style="stop-color:#F8AF09;stop-opacity:0.79"/>
		<stop  offset="0.59" style="stop-color:#FCB50D;stop-opacity:0.37"/>
		<stop  offset="0.87" style="stop-color:#FEB90F;stop-opacity:0.1"/>
		<stop  offset="1" style="stop-color:#FFBA10;stop-opacity:0"/>
	</linearGradient>
	<path class="st65" d="M442,877.7l6-28.9c0.2-1,0-2.1-0.6-2.9l-16.9-22.2c-1.5-2-0.4-5.2,1.8-5.4l25.3-2.2c1-0.1,1.8-0.7,2.2-1.6
		l12.7-25.7c0.5-1.3,2.1-2,3.4-1.4c0.8,0.3,1.3,1,1.5,1.8l9.6,27.5c0.3,0.9,1.1,1.7,2,1.9l24.8,6.3c2.2,0.6,2.9,3.9,1.2,5.6
		l-19.3,19.3c-0.7,0.7-1.1,1.8-1,2.8l2.6,29.6c0.2,2.7-2.2,4.5-4.2,3.1l-21.6-15.6c-0.7-0.6-1.7-0.6-2.6-0.2l-23.2,12
		C443.7,882.4,441.4,880.2,442,877.7z"/>
	
		<linearGradient id="SVGID_66_" gradientUnits="userSpaceOnUse" x1="1045.8771" y1="1105.4041" x2="1103.694" y2="-252.3966" gradientTransform="matrix(-1 0 0 1 1353.3461 -14.2821)">
		<stop  offset="0" style="stop-color:#F6AC07"/>
		<stop  offset="0.19" style="stop-color:#F8AF09;stop-opacity:0.79"/>
		<stop  offset="0.59" style="stop-color:#FCB50D;stop-opacity:0.37"/>
		<stop  offset="0.87" style="stop-color:#FEB90F;stop-opacity:0.1"/>
		<stop  offset="1" style="stop-color:#FFBA10;stop-opacity:0"/>
	</linearGradient>
	<path class="st66" d="M337.9,847.9l-25.1,4.6c-0.9,0.2-1.7,0.9-2,1.8l-10.9,26.8c-0.4,1.4-1.9,2.1-3.2,1.7
		c-0.8-0.2-1.4-0.9-1.7-1.6l-11.5-26.5c-0.4-0.9-1.1-1.6-2.1-1.7l-25.1-3.9c-2.3-0.4-3.2-3.6-1.6-5.5l17.9-21.1
		c0.7-0.8,0.9-1.8,0.8-2.9l-4.6-29.3c-0.4-2.6,1.9-4.7,4-3.5l22.6,13.5c0.8,0.5,1.8,0.5,2.6,0l22.3-14.2c2-1.3,4.4,0.7,4,3.3
		l-4,29.4c-0.2,1,0.1,2.1,0.8,2.8l18.4,20.5C341,844.2,340.1,847.5,337.9,847.9z"/>
	
		<linearGradient id="SVGID_67_" gradientUnits="userSpaceOnUse" x1="689.0325" y1="1088.6294" x2="747.0201" y2="-273.0938" gradientTransform="matrix(-1 0 0 1 1353.3461 -14.2821)">
		<stop  offset="0" style="stop-color:#F6AC07"/>
		<stop  offset="0.19" style="stop-color:#F8AF09;stop-opacity:0.79"/>
		<stop  offset="0.59" style="stop-color:#FCB50D;stop-opacity:0.37"/>
		<stop  offset="0.87" style="stop-color:#FEB90F;stop-opacity:0.1"/>
		<stop  offset="1" style="stop-color:#FFBA10;stop-opacity:0"/>
	</linearGradient>
	<path class="st67" d="M632,544.1l0.1-12.8c0-0.4-0.2-0.9-0.5-1.1l-8.9-7.4c-0.6-0.5-0.7-1.5-0.1-2.1c0.1-0.2,0.3-0.3,0.5-0.4
		l10.4-3.8c0.4-0.2,0.7-0.5,0.8-0.9l3.2-12.2c0.1-0.6,0.6-1,1.2-1c0.4,0,0.7,0.3,0.8,0.6l6.3,10.4c0.2,0.4,0.6,0.6,1,0.6l10.9-0.2
		c0.8,0.1,1.3,0.8,1.3,1.6c0,0.2-0.1,0.5-0.2,0.7l-6.5,10.3c-0.2,0.4-0.3,0.8-0.2,1.3l3.5,12.1c0.3,1.1-0.6,2.1-1.5,1.8l-10.3-4.1
		c-0.4-0.2-0.8-0.1-1.1,0.2l-8.7,7.7C633.2,545.9,632,545.3,632,544.1z"/>
</g>
<linearGradient id="SVGID_68_" gradientUnits="userSpaceOnUse" x1="453.6885" y1="1072.5903" x2="511.3286" y2="-281.0695" gradientTransform="matrix(-1 0 0 1 1353.3461 -14.2821)">
	<stop  offset="0" style="stop-color:#F6AC07"/>
	<stop  offset="0.19" style="stop-color:#F8AF09;stop-opacity:0.79"/>
	<stop  offset="0.59" style="stop-color:#FCB50D;stop-opacity:0.37"/>
	<stop  offset="0.87" style="stop-color:#FEB90F;stop-opacity:0.1"/>
	<stop  offset="1" style="stop-color:#FFBA10;stop-opacity:0"/>
</linearGradient>
<path class="st68" d="M865.5,111.5l-0.9,5.8c0,0.2,0,0.4,0.1,0.6l3.6,4.2c0.2,0.3,0.2,0.7-0.1,0.9c-0.1,0.1-0.2,0.1-0.3,0.1l-5,0.8
	c-0.2,0-0.3,0.2-0.4,0.3l-2.3,5.3c-0.1,0.3-0.3,0.5-0.6,0.4c-0.2,0-0.4-0.2-0.4-0.4l-2.2-5.4c-0.1-0.2-0.2-0.3-0.4-0.4l-5-1
	c-0.4-0.1-0.6-0.5-0.5-0.9c0-0.1,0.1-0.2,0.2-0.3l3.7-4c0.1-0.2,0.2-0.4,0.2-0.6l-0.8-5.9c-0.1-0.5,0.4-0.9,0.8-0.7l4.4,2.8
	c0.2,0.1,0.4,0.1,0.5,0l4.5-2.7C865.1,110.6,865.6,111,865.5,111.5z"/>
<linearGradient id="SVGID_69_" gradientUnits="userSpaceOnUse" x1="234.9408" y1="1063.1683" x2="292.6808" y2="-292.6818" gradientTransform="matrix(-1 0 0 1 1353.3461 -14.2821)">
	<stop  offset="0" style="stop-color:#F6AC07"/>
	<stop  offset="0.19" style="stop-color:#F8AF09;stop-opacity:0.79"/>
	<stop  offset="0.59" style="stop-color:#FCB50D;stop-opacity:0.37"/>
	<stop  offset="0.87" style="stop-color:#FEB90F;stop-opacity:0.1"/>
	<stop  offset="1" style="stop-color:#FFBA10;stop-opacity:0"/>
</linearGradient>
<path class="st69" d="M1081,201l3.6,4.2c0.1,0.1,0.3,0.2,0.5,0.2l5-1.2c0.4-0.1,0.8,0.4,0.6,0.9l-2.2,5.3c-0.1,0.2-0.1,0.4,0,0.6
	l2.5,5.2c0.2,0.5-0.1,1-0.5,1l-5-0.9c-0.2,0-0.4,0.1-0.5,0.2l-3.4,4.4c-0.2,0.2-0.5,0.3-0.7,0.1c-0.1-0.1-0.2-0.2-0.2-0.4l-0.9-5.8
	c0-0.2-0.1-0.4-0.3-0.5l-4.6-2.5c-0.3-0.2-0.4-0.6-0.2-1c0.1-0.1,0.1-0.1,0.2-0.2l4.5-2.8c0.2-0.1,0.3-0.3,0.3-0.5l0.6-5.9
	c0-0.3,0.2-0.5,0.5-0.6C1080.8,200.9,1080.9,200.9,1081,201z"/>
<linearGradient id="SVGID_70_" gradientUnits="userSpaceOnUse" x1="624.6342" y1="1082.6406" x2="682.3742" y2="-273.2695" gradientTransform="matrix(-1 0 0 1 1353.3461 -14.2821)">
	<stop  offset="0" style="stop-color:#F6AC07"/>
	<stop  offset="0.19" style="stop-color:#F8AF09;stop-opacity:0.79"/>
	<stop  offset="0.59" style="stop-color:#FCB50D;stop-opacity:0.37"/>
	<stop  offset="0.87" style="stop-color:#FEB90F;stop-opacity:0.1"/>
	<stop  offset="1" style="stop-color:#FFBA10;stop-opacity:0"/>
</linearGradient>
<path class="st70" d="M686.3,243.3l5,0.9c0.2,0,0.4,0,0.5-0.2l3.5-4.3c0.2-0.2,0.5-0.3,0.7-0.1c0.1,0.1,0.2,0.3,0.2,0.4l0.8,5.9
	c0,0.2,0.1,0.4,0.3,0.5l4.6,2.5c0.3,0.2,0.4,0.7,0.2,1c-0.1,0.1-0.1,0.1-0.2,0.2l-4.5,2.7c-0.2,0.1-0.3,0.3-0.3,0.5l-0.6,5.9
	c0,0.3-0.2,0.5-0.5,0.6c-0.2,0-0.3-0.1-0.4-0.2l-3.6-4.2c-0.1-0.1-0.3-0.2-0.5-0.2l-5,1.1c-0.5,0.1-0.8-0.4-0.6-0.9l2.3-5.3
	c0.1-0.2,0.1-0.4,0-0.6l-2.4-5.2C685.5,243.8,685.8,243.2,686.3,243.3z"/>
<linearGradient id="SVGID_71_" gradientUnits="userSpaceOnUse" x1="450.8272" y1="1072.4194" x2="508.4572" y2="-280.9206" gradientTransform="matrix(-1 0 0 1 1353.3461 -14.2821)">
	<stop  offset="0" style="stop-color:#F6AC07"/>
	<stop  offset="0.19" style="stop-color:#F8AF09;stop-opacity:0.79"/>
	<stop  offset="0.59" style="stop-color:#FCB50D;stop-opacity:0.37"/>
	<stop  offset="0.87" style="stop-color:#FEB90F;stop-opacity:0.1"/>
	<stop  offset="1" style="stop-color:#FFBA10;stop-opacity:0"/>
</linearGradient>
<path class="st71" d="M876.6,250.4l-3.6,4.2c-0.1,0.2-0.2,0.4-0.1,0.6l1,5.8c0.1,0.5-0.4,0.9-0.8,0.7l-4.5-2.7
	c-0.2-0.1-0.4-0.1-0.5,0l-4.4,2.9c-0.4,0.3-0.9-0.1-0.8-0.7l0.8-5.9c0-0.2,0-0.4-0.2-0.6l-3.7-4.1c-0.3-0.3-0.2-0.7,0.1-1
	c0.1-0.1,0.1-0.1,0.2-0.1l5-1c0.2,0,0.3-0.2,0.4-0.4l2.2-5.4c0.1-0.3,0.4-0.4,0.6-0.4c0.2,0,0.3,0.2,0.4,0.4l2.3,5.3
	c0.1,0.2,0.2,0.3,0.4,0.3l5,0.7c0.4,0.1,0.6,0.4,0.5,0.8C876.7,250.2,876.7,250.3,876.6,250.4z"/>
<linearGradient id="SVGID_72_" gradientUnits="userSpaceOnUse" x1="843.5038" y1="1094.9397" x2="901.3438" y2="-263.2603" gradientTransform="matrix(-1 0 0 1 1353.3461 -14.2821)">
	<stop  offset="0" style="stop-color:#F6AC07"/>
	<stop  offset="0.19" style="stop-color:#F8AF09;stop-opacity:0.79"/>
	<stop  offset="0.59" style="stop-color:#FCB50D;stop-opacity:0.37"/>
	<stop  offset="0.87" style="stop-color:#FEB90F;stop-opacity:0.1"/>
	<stop  offset="1" style="stop-color:#FFBA10;stop-opacity:0"/>
</linearGradient>
<path class="st72" d="M476.2,280.4l2.5,5.2c0.1,0.2,0.2,0.3,0.4,0.3l5,0.5c0.4,0.1,0.6,0.5,0.5,0.8c0,0.1-0.1,0.2-0.1,0.3l-3.4,4.4
	c-0.1,0.2-0.2,0.4-0.1,0.6l1.1,5.8c0.1,0.5-0.3,1-0.8,0.7l-4.6-2.5c-0.2-0.1-0.4-0.1-0.5,0l-4.3,3c-0.4,0.3-0.9-0.1-0.8-0.6l0.6-5.9
	c0-0.2,0-0.4-0.2-0.6l-3.8-3.9c-0.3-0.3-0.3-0.7,0-1c0.1-0.1,0.1-0.1,0.2-0.1l5-1.2c0.2-0.1,0.3-0.2,0.4-0.4l2-5.5
	c0.1-0.3,0.4-0.4,0.7-0.2C476.1,280.2,476.2,280.3,476.2,280.4z"/>
<linearGradient id="SVGID_73_" gradientUnits="userSpaceOnUse" x1="873.0034" y1="1096.8319" x2="930.843" y2="-261.3607" gradientTransform="matrix(-1 0 0 1 1353.3461 -14.2821)">
	<stop  offset="0" style="stop-color:#F6AC07"/>
	<stop  offset="0.19" style="stop-color:#F8AF09;stop-opacity:0.79"/>
	<stop  offset="0.59" style="stop-color:#FCB50D;stop-opacity:0.37"/>
	<stop  offset="0.87" style="stop-color:#FEB90F;stop-opacity:0.1"/>
	<stop  offset="1" style="stop-color:#FFBA10;stop-opacity:0"/>
</linearGradient>
<path class="st73" d="M437.2,57.4l2.5,5.2c0.1,0.2,0.2,0.3,0.4,0.3l5,0.5c0.4,0.1,0.6,0.4,0.5,0.8c0,0.1-0.1,0.2-0.1,0.3l-3.4,4.4
	c-0.1,0.2-0.2,0.4-0.1,0.6l1.1,5.8c0.1,0.5-0.3,1-0.8,0.7l-4.6-2.5c-0.2-0.1-0.4-0.1-0.5,0l-4.3,3c-0.4,0.3-0.9-0.1-0.8-0.6l0.6-5.9
	c0-0.2,0-0.4-0.2-0.6l-3.8-3.9c-0.3-0.3-0.3-0.7,0-1c0.1-0.1,0.1-0.1,0.2-0.1l5-1.2c0.2-0.1,0.3-0.2,0.4-0.4l2-5.5
	c0.1-0.3,0.3-0.5,0.6-0.4C437,57,437.2,57.2,437.2,57.4z"/>
<linearGradient id="SVGID_74_" gradientUnits="userSpaceOnUse" x1="1199.4606" y1="1099.312" x2="1257.1805" y2="-256.0381" gradientTransform="matrix(-1 0 0 1 1353.3461 -14.2821)">
	<stop  offset="0" style="stop-color:#F6AC07"/>
	<stop  offset="0.19" style="stop-color:#F8AF09;stop-opacity:0.79"/>
	<stop  offset="0.59" style="stop-color:#FCB50D;stop-opacity:0.37"/>
	<stop  offset="0.87" style="stop-color:#FEB90F;stop-opacity:0.1"/>
	<stop  offset="1" style="stop-color:#FFBA10;stop-opacity:0"/>
</linearGradient>
<path class="st74" d="M112.2,294.8l4.3-3.1c0.2-0.1,0.3-0.3,0.3-0.5l0.3-5.9c0-0.5,0.6-0.8,0.9-0.5l3.8,3.9c0.1,0.1,0.3,0.2,0.5,0.1
	l4.9-1.5c0.4-0.1,0.8,0.4,0.7,0.9l-2,5.5c-0.1,0.2-0.1,0.4,0,0.6l2.8,5c0.2,0.3,0.1,0.7-0.2,0.9c-0.1,0.1-0.2,0.1-0.3,0.1l-5-0.5
	c-0.2,0-0.4,0.1-0.5,0.2l-3.2,4.6c-0.1,0.3-0.5,0.4-0.7,0.2c-0.2-0.1-0.3-0.3-0.3-0.5l-1.2-5.8c0-0.2-0.2-0.4-0.3-0.5l-4.7-2.1
	c-0.3-0.2-0.5-0.6-0.3-0.9C112.1,295,112.1,294.9,112.2,294.8z"/>
<linearGradient id="SVGID_75_" gradientUnits="userSpaceOnUse" x1="789.9119" y1="1092.2201" x2="847.7318" y2="-265.67" gradientTransform="matrix(-1 0 0 1 1353.3461 -14.2821)">
	<stop  offset="0" style="stop-color:#F6AC07"/>
	<stop  offset="0.19" style="stop-color:#F8AF09;stop-opacity:0.79"/>
	<stop  offset="0.59" style="stop-color:#FCB50D;stop-opacity:0.37"/>
	<stop  offset="0.87" style="stop-color:#FEB90F;stop-opacity:0.1"/>
	<stop  offset="1" style="stop-color:#FFBA10;stop-opacity:0"/>
</linearGradient>
<path class="st75" d="M529.9,170.4l-0.4,5.9c0,0.2,0.1,0.4,0.2,0.5l3.9,3.7c0.3,0.3,0.3,0.7,0,1c-0.1,0.1-0.1,0.1-0.2,0.2l-4.9,1.4
	c-0.2,0.1-0.3,0.2-0.4,0.4l-1.8,5.5c0,0.3-0.3,0.5-0.6,0.4c-0.2,0-0.3-0.2-0.4-0.3l-2.6-5.1c-0.1-0.2-0.3-0.3-0.4-0.3l-5.1-0.3
	c-0.4-0.1-0.6-0.4-0.5-0.8c0-0.1,0.1-0.2,0.1-0.3l3.3-4.5c0.1-0.2,0.2-0.4,0.1-0.6l-1.3-5.7c-0.1-0.5,0.3-1,0.7-0.8l4.7,2.3
	c0.2,0.1,0.4,0.1,0.5,0l4.2-3.3C529.5,169.5,530,169.8,529.9,170.4z"/>
<linearGradient id="SVGID_76_" gradientUnits="userSpaceOnUse" x1="1061.3947" y1="1133.7808" x2="1119.2146" y2="-224.1093" gradientTransform="matrix(-1 0 0 1 1353.3461 -14.2821)">
	<stop  offset="0" style="stop-color:#F6AC07"/>
	<stop  offset="0.19" style="stop-color:#F8AF09;stop-opacity:0.79"/>
	<stop  offset="0.59" style="stop-color:#FCB50D;stop-opacity:0.37"/>
	<stop  offset="0.87" style="stop-color:#FEB90F;stop-opacity:0.1"/>
	<stop  offset="1" style="stop-color:#FFBA10;stop-opacity:0"/>
</linearGradient>
<path class="st76" d="M258.5,211.9l-0.4,5.9c0,0.2,0.1,0.4,0.2,0.5l3.9,3.7c0.3,0.3,0.3,0.7,0,1c-0.1,0.1-0.1,0.1-0.2,0.2l-4.9,1.4
	c-0.2,0.1-0.3,0.2-0.4,0.4l-1.8,5.5c0,0.3-0.3,0.5-0.6,0.4c-0.2,0-0.3-0.2-0.4-0.3l-2.6-5.1c-0.1-0.2-0.3-0.3-0.4-0.3l-5.1-0.3
	c-0.4-0.1-0.6-0.4-0.5-0.8c0-0.1,0.1-0.2,0.1-0.3l3.3-4.5c0.1-0.2,0.2-0.4,0.1-0.6l-1.3-5.7c-0.1-0.5,0.3-1,0.7-0.8l4.7,2.3
	c0.2,0.1,0.4,0.1,0.5,0l4.2-3.3C258,211,258.5,211.4,258.5,211.9z"/>
<linearGradient id="SVGID_77_" gradientUnits="userSpaceOnUse" x1="53.2627" y1="1055.1997" x2="111.0727" y2="-302.4602" gradientTransform="matrix(-1 0 0 1 1353.3461 -14.2821)">
	<stop  offset="0" style="stop-color:#F6AC07"/>
	<stop  offset="0.19" style="stop-color:#F8AF09;stop-opacity:0.79"/>
	<stop  offset="0.59" style="stop-color:#FCB50D;stop-opacity:0.37"/>
	<stop  offset="0.87" style="stop-color:#FEB90F;stop-opacity:0.1"/>
	<stop  offset="1" style="stop-color:#FFBA10;stop-opacity:0"/>
</linearGradient>
<path class="st77" d="M1260.3,220.7l0.3-5.9c0-0.2-0.1-0.4-0.2-0.5l-4-3.6c-0.3-0.3-0.3-0.7,0-1c0.1-0.1,0.1-0.1,0.2-0.2l4.8-1.6
	c0.2-0.1,0.3-0.2,0.4-0.4l1.7-5.6c0-0.3,0.3-0.5,0.6-0.5c0.2,0,0.4,0.1,0.4,0.3l2.8,5c0.1,0.2,0.3,0.3,0.4,0.3l5.1,0.2
	c0.4,0.1,0.6,0.4,0.5,0.8c0,0.1-0.1,0.2-0.1,0.3l-3.2,4.6c-0.1,0.2-0.2,0.4-0.1,0.6l1.4,5.7c0.1,0.5-0.3,1-0.7,0.8l-4.7-2.1
	c-0.2-0.1-0.4,0-0.5,0.1l-4.2,3.4C1260.7,221.6,1260.2,221.2,1260.3,220.7z"/>
<linearGradient id="SVGID_78_" gradientUnits="userSpaceOnUse" x1="308.3062" y1="1067.8499" x2="366.1162" y2="-289.8102" gradientTransform="matrix(-1 0 0 1 1353.3461 -14.2821)">
	<stop  offset="0" style="stop-color:#F6AC07"/>
	<stop  offset="0.19" style="stop-color:#F8AF09;stop-opacity:0.79"/>
	<stop  offset="0.59" style="stop-color:#FCB50D;stop-opacity:0.37"/>
	<stop  offset="0.87" style="stop-color:#FEB90F;stop-opacity:0.1"/>
	<stop  offset="1" style="stop-color:#FFBA10;stop-opacity:0"/>
</linearGradient>
<path class="st78" d="M1007.9,297.2l0.3-5.9c0-0.2-0.1-0.4-0.2-0.5l-4-3.6c-0.3-0.3-0.3-0.7,0-1c0.1-0.1,0.1-0.1,0.2-0.2l4.9-1.5
	c0.2-0.1,0.3-0.2,0.4-0.4l1.7-5.6c0-0.3,0.3-0.5,0.6-0.5c0.2,0,0.4,0.1,0.4,0.3l2.8,5c0.1,0.2,0.3,0.3,0.4,0.3l5,0.1
	c0.4,0.1,0.6,0.4,0.5,0.8c0,0.1-0.1,0.2-0.1,0.3l-3.2,4.6c-0.1,0.2-0.1,0.4-0.1,0.6l1.4,5.7c0.1,0.5-0.3,1-0.7,0.8l-4.7-2.1
	c-0.2-0.1-0.4,0-0.5,0.1l-4.2,3.4C1008.4,298.1,1007.9,297.7,1007.9,297.2z"/>
<linearGradient id="SVGID_79_" gradientUnits="userSpaceOnUse" x1="123.9685" y1="1057.0616" x2="181.6585" y2="-297.7784" gradientTransform="matrix(-1 0 0 1 1353.3461 -14.2821)">
	<stop  offset="0" style="stop-color:#F6AC07"/>
	<stop  offset="0.19" style="stop-color:#F8AF09;stop-opacity:0.79"/>
	<stop  offset="0.59" style="stop-color:#FCB50D;stop-opacity:0.37"/>
	<stop  offset="0.87" style="stop-color:#FEB90F;stop-opacity:0.1"/>
	<stop  offset="1" style="stop-color:#FFBA10;stop-opacity:0"/>
</linearGradient>
<path class="st79" d="M1206.1,310.1l-5.1-0.1c-0.2,0-0.4,0.1-0.5,0.3l-2.9,4.8c-0.1,0.3-0.5,0.4-0.7,0.2c-0.2-0.1-0.3-0.2-0.3-0.4
	l-1.5-5.7c0-0.2-0.2-0.4-0.4-0.4l-4.8-1.8c-0.3-0.2-0.5-0.6-0.3-0.9c0-0.1,0.1-0.2,0.2-0.2l4.1-3.4c0.2-0.1,0.2-0.3,0.2-0.5l0-5.9
	c0-0.5,0.5-0.8,0.9-0.5l4,3.6c0.1,0.1,0.3,0.2,0.5,0.1l4.8-1.9c0.4-0.2,0.8,0.3,0.7,0.8l-1.6,5.6c-0.1,0.2,0,0.4,0.1,0.6l3,4.8
	c0.2,0.3,0.1,0.7-0.1,0.9C1206.3,310,1206.2,310,1206.1,310.1z"/>
<linearGradient id="SVGID_80_" gradientUnits="userSpaceOnUse" x1="143.2418" y1="1059.7209" x2="201.0518" y2="-297.6291" gradientTransform="matrix(-1 0 0 1 1353.3461 -14.2821)">
	<stop  offset="0" style="stop-color:#F6AC07"/>
	<stop  offset="0.19" style="stop-color:#F8AF09;stop-opacity:0.79"/>
	<stop  offset="0.59" style="stop-color:#FCB50D;stop-opacity:0.37"/>
	<stop  offset="0.87" style="stop-color:#FEB90F;stop-opacity:0.1"/>
	<stop  offset="1" style="stop-color:#FFBA10;stop-opacity:0"/>
</linearGradient>
<path class="st80" d="M1158,20.3l3-4.8c0.1-0.2,0.1-0.4,0.1-0.6l-1.6-5.6c-0.1-0.5,0.3-1,0.7-0.8l4.8,1.9c0.2,0.1,0.4,0,0.5-0.1
	l4.1-3.5c0.4-0.3,0.9,0,0.9,0.5l-0.1,5.9c0,0.2,0.1,0.4,0.2,0.5l4.1,3.4c0.3,0.3,0.3,0.7,0.1,1c-0.1,0.1-0.1,0.1-0.2,0.2l-4.8,1.8
	c-0.2,0.1-0.3,0.2-0.4,0.4l-1.5,5.7c0,0.3-0.3,0.5-0.6,0.5c-0.2,0-0.3-0.1-0.4-0.3l-2.9-4.9c-0.1-0.2-0.3-0.3-0.5-0.3l-5.1,0.1
	c-0.4-0.1-0.6-0.4-0.5-0.8C1157.9,20.5,1158,20.4,1158,20.3z"/>
</svg>
