<svg id="Layer_1" data-name="Layer 1" xmlns="http://www.w3.org/2000/svg" xmlns:xlink="http://www.w3.org/1999/xlink" viewBox="0 0 1313.21 880.69"><defs><style>.cls-1,.cls-36,.cls-37,.cls-38,.cls-39,.cls-40,.cls-41,.cls-42,.cls-43,.cls-44,.cls-45,.cls-46,.cls-47,.cls-48,.cls-49,.cls-50,.cls-51,.cls-52,.cls-53,.cls-69,.cls-70,.cls-71,.cls-72,.cls-73,.cls-74,.cls-75,.cls-76,.cls-77,.cls-78,.cls-79,.cls-80,.cls-81{opacity:0.4;}.cls-2{fill:url(#linear-gradient);}.cls-3{fill:url(#linear-gradient-2);}.cls-4{fill:url(#linear-gradient-3);}.cls-5{fill:url(#linear-gradient-4);}.cls-6{fill:url(#linear-gradient-5);}.cls-7{fill:url(#linear-gradient-6);}.cls-8{fill:url(#linear-gradient-7);}.cls-9{fill:url(#linear-gradient-8);}.cls-10{fill:url(#linear-gradient-9);}.cls-11{fill:url(#linear-gradient-10);}.cls-12{fill:url(#linear-gradient-11);}.cls-13{fill:url(#linear-gradient-12);}.cls-14{fill:url(#linear-gradient-13);}.cls-15{fill:url(#linear-gradient-14);}.cls-16{fill:url(#linear-gradient-15);}.cls-17{fill:url(#linear-gradient-16);}.cls-18{fill:url(#linear-gradient-17);}.cls-19{fill:url(#linear-gradient-18);}.cls-20{fill:url(#linear-gradient-19);}.cls-21{fill:url(#linear-gradient-20);}.cls-22{fill:url(#linear-gradient-21);}.cls-23{fill:url(#linear-gradient-22);}.cls-24{fill:url(#linear-gradient-23);}.cls-25{fill:url(#linear-gradient-24);}.cls-26{fill:url(#linear-gradient-25);}.cls-27{fill:url(#linear-gradient-26);}.cls-28{fill:url(#linear-gradient-27);}.cls-29{fill:url(#linear-gradient-28);}.cls-30{fill:url(#linear-gradient-29);}.cls-31{fill:url(#linear-gradient-30);}.cls-32{fill:url(#linear-gradient-31);}.cls-33{fill:url(#linear-gradient-32);}.cls-34{fill:url(#linear-gradient-33);}.cls-35{fill:url(#linear-gradient-34);}.cls-36,.cls-37,.cls-38,.cls-39,.cls-40,.cls-41,.cls-42,.cls-43,.cls-44,.cls-45,.cls-46,.cls-47,.cls-48,.cls-49,.cls-50,.cls-51,.cls-52,.cls-53,.cls-69,.cls-70,.cls-71,.cls-72,.cls-73,.cls-74,.cls-75,.cls-76,.cls-77,.cls-78,.cls-79,.cls-80,.cls-81{isolation:isolate;}.cls-36{fill:url(#linear-gradient-35);}.cls-37{fill:url(#linear-gradient-36);}.cls-38{fill:url(#linear-gradient-37);}.cls-39{fill:url(#linear-gradient-38);}.cls-40{fill:url(#linear-gradient-39);}.cls-41{fill:url(#linear-gradient-40);}.cls-42{fill:url(#linear-gradient-41);}.cls-43{fill:url(#linear-gradient-42);}.cls-44{fill:url(#linear-gradient-43);}.cls-45{fill:url(#linear-gradient-44);}.cls-46{fill:url(#linear-gradient-45);}.cls-47{fill:url(#linear-gradient-46);}.cls-48{fill:url(#linear-gradient-47);}.cls-49{fill:url(#linear-gradient-48);}.cls-50{fill:url(#linear-gradient-49);}.cls-51{fill:url(#linear-gradient-50);}.cls-52{fill:url(#linear-gradient-51);}.cls-53{fill:url(#linear-gradient-52);}.cls-54{fill:url(#linear-gradient-53);}.cls-55{fill:url(#linear-gradient-54);}.cls-56{fill:url(#linear-gradient-55);}.cls-57{fill:url(#linear-gradient-56);}.cls-58{fill:url(#linear-gradient-57);}.cls-59{fill:url(#linear-gradient-58);}.cls-60{fill:url(#linear-gradient-59);}.cls-61{fill:url(#linear-gradient-60);}.cls-62{fill:url(#linear-gradient-61);}.cls-63{fill:url(#linear-gradient-62);}.cls-64{fill:url(#linear-gradient-63);}.cls-65{fill:url(#linear-gradient-64);}.cls-66{fill:url(#linear-gradient-65);}.cls-67{fill:url(#linear-gradient-66);}.cls-68{fill:url(#linear-gradient-67);}.cls-69{fill:url(#linear-gradient-68);}.cls-70{fill:url(#linear-gradient-69);}.cls-71{fill:url(#linear-gradient-70);}.cls-72{fill:url(#linear-gradient-71);}.cls-73{fill:url(#linear-gradient-72);}.cls-74{fill:url(#linear-gradient-73);}.cls-75{fill:url(#linear-gradient-74);}.cls-76{fill:url(#linear-gradient-75);}.cls-77{fill:url(#linear-gradient-76);}.cls-78{fill:url(#linear-gradient-77);}.cls-79{fill:url(#linear-gradient-78);}.cls-80{fill:url(#linear-gradient-79);}.cls-81{fill:url(#linear-gradient-80);}</style><linearGradient id="linear-gradient" x1="1329.43" y1="73.08" x2="1371.4" y2="-912.53" gradientTransform="matrix(0.79, 0.62, 0.49, -0.62, 302.59, -417.94)" gradientUnits="userSpaceOnUse"><stop offset="0" stop-color="#f6ac07"/><stop offset="0.19" stop-color="#f8af09" stop-opacity="0.79"/><stop offset="0.59" stop-color="#fcb50d" stop-opacity="0.37"/><stop offset="0.87" stop-color="#feb90f" stop-opacity="0.1"/><stop offset="1" stop-color="#ffba10" stop-opacity="0"/></linearGradient><linearGradient id="linear-gradient-2" x1="1552.83" y1="141.26" x2="1597.4" y2="-905.34" gradientTransform="matrix(-1, 0, 0, 1, 2565.35, 849.72)" xlink:href="#linear-gradient"/><linearGradient id="linear-gradient-3" x1="1597.36" y1="209.6" x2="1655.35" y2="-1152.47" gradientTransform="matrix(-1, 0, 0, 1, 2565.35, 849.72)" xlink:href="#linear-gradient"/><linearGradient id="linear-gradient-4" x1="1376.45" y1="196.95" x2="1434.3" y2="-1161.29" gradientTransform="matrix(-1, 0, 0, 1, 2565.35, 849.72)" xlink:href="#linear-gradient"/><linearGradient id="linear-gradient-5" x1="1501.78" y1="204.93" x2="1559.78" y2="-1157.13" gradientTransform="matrix(-1, 0, 0, 1, 2565.35, 849.72)" xlink:href="#linear-gradient"/><linearGradient id="linear-gradient-6" x1="1698.54" y1="213.65" x2="1756.45" y2="-1146.11" gradientTransform="matrix(-1, 0, 0, 1, 2565.35, 849.72)" xlink:href="#linear-gradient"/><linearGradient id="linear-gradient-7" x1="1796.16" y1="305.02" x2="1854.11" y2="-1055.59" gradientTransform="matrix(-1, 0, 0, 1, 2565.35, 849.72)" xlink:href="#linear-gradient"/><linearGradient id="linear-gradient-8" x1="1472.1" y1="203.44" x2="1530.12" y2="-1159.06" gradientTransform="matrix(-1, 0, 0, 1, 2565.35, 849.72)" xlink:href="#linear-gradient"/><linearGradient id="linear-gradient-9" x1="1766.52" y1="218.23" x2="1824.52" y2="-1143.84" gradientTransform="matrix(-1, 0, 0, 1, 2565.35, 849.72)" xlink:href="#linear-gradient"/><linearGradient id="linear-gradient-10" x1="1225.82" y1="218.23" x2="1283.82" y2="-1143.84" gradientTransform="matrix(-1, 0, 0, 1, 2565.35, 849.72)" xlink:href="#linear-gradient"/><linearGradient id="linear-gradient-11" x1="1813.72" y1="-80.38" x2="1871.72" y2="-1442.45" gradientTransform="matrix(-1, 0, 0, 1, 2565.35, 849.72)" xlink:href="#linear-gradient"/><linearGradient id="linear-gradient-12" x1="1398.81" y1="198.46" x2="1456.7" y2="-1160.77" gradientTransform="matrix(-1, 0, 0, 1, 2565.35, 849.72)" xlink:href="#linear-gradient"/><linearGradient id="linear-gradient-13" x1="1817.43" y1="220.36" x2="1875.41" y2="-1141.14" gradientTransform="matrix(-1, 0, 0, 1, 2565.35, 849.72)" xlink:href="#linear-gradient"/><linearGradient id="linear-gradient-14" x1="1314.02" y1="195.22" x2="1372" y2="-1166.3" gradientTransform="matrix(-1, 0, 0, 1, 2565.35, 849.72)" xlink:href="#linear-gradient"/><linearGradient id="linear-gradient-15" x1="1233.25" y1="408.47" x2="1291.23" y2="-953.04" gradientTransform="matrix(-1, 0, 0, 1, 2565.35, 849.72)" xlink:href="#linear-gradient"/><linearGradient id="linear-gradient-16" x1="1600.37" y1="209.73" x2="1658.35" y2="-1152.02" gradientTransform="matrix(-1, 0, 0, 1, 2565.35, 849.72)" xlink:href="#linear-gradient"/><linearGradient id="linear-gradient-17" x1="2167.89" y1="110.23" x2="2207.57" y2="-821.41" gradientTransform="matrix(-1, 0, 0, 1, 2565.35, 849.72)" xlink:href="#linear-gradient"/><linearGradient id="linear-gradient-18" x1="2105.48" y1="-196.6" x2="2163.42" y2="-1556.95" gradientTransform="matrix(-0.75, 0.67, 0.52, 0.58, 2000.97, -388.92)" xlink:href="#linear-gradient"/><linearGradient id="linear-gradient-19" x1="2197.71" y1="239.65" x2="2255.72" y2="-1122.42" gradientTransform="matrix(-1, 0, 0, 1, 2565.35, 849.72)" xlink:href="#linear-gradient"/><linearGradient id="linear-gradient-20" x1="1976.68" y1="226.88" x2="2034.53" y2="-1131.36" gradientTransform="matrix(-1, 0, 0, 1, 2565.35, 849.72)" xlink:href="#linear-gradient"/><linearGradient id="linear-gradient-21" x1="2103.69" y1="235.01" x2="2161.7" y2="-1127.06" gradientTransform="matrix(-1, 0, 0, 1, 2565.35, 849.72)" xlink:href="#linear-gradient"/><linearGradient id="linear-gradient-22" x1="2298.83" y1="243.62" x2="2356.74" y2="-1116.13" gradientTransform="matrix(-1, 0, 0, 1, 2565.35, 849.72)" xlink:href="#linear-gradient"/><linearGradient id="linear-gradient-23" x1="2329.75" y1="275.55" x2="2387.69" y2="-1085.05" gradientTransform="matrix(-1, 0, 0, 1, 2565.35, 849.72)" xlink:href="#linear-gradient"/><linearGradient id="linear-gradient-24" x1="2072.35" y1="233.5" x2="2130.37" y2="-1129" gradientTransform="matrix(-1, 0, 0, 1, 2565.35, 849.72)" xlink:href="#linear-gradient"/><linearGradient id="linear-gradient-25" x1="2354.04" y1="247.61" x2="2412.04" y2="-1114.46" gradientTransform="matrix(-1, 0, 0, 1, 2565.35, 849.72)" xlink:href="#linear-gradient"/><linearGradient id="linear-gradient-26" x1="2476.94" y1="247.61" x2="2534.94" y2="-1114.46" gradientTransform="matrix(-1, 0, 0, 1, 2565.35, 849.72)" xlink:href="#linear-gradient"/><linearGradient id="linear-gradient-27" x1="2354.04" y1="-44.38" x2="2412.04" y2="-1406.45" gradientTransform="matrix(-1, 0, 0, 1, 2565.35, 849.72)" xlink:href="#linear-gradient"/><linearGradient id="linear-gradient-28" x1="1999.12" y1="228.42" x2="2057.01" y2="-1130.81" gradientTransform="matrix(-1, 0, 0, 1, 2565.35, 849.72)" xlink:href="#linear-gradient"/><linearGradient id="linear-gradient-29" x1="2417.74" y1="250.39" x2="2475.72" y2="-1111.11" gradientTransform="matrix(-1, 0, 0, 1, 2565.35, 849.72)" xlink:href="#linear-gradient"/><linearGradient id="linear-gradient-30" x1="1936.35" y1="119.33" x2="1994.33" y2="-1242.17" gradientTransform="matrix(-0.82, 1.12, 0.98, 0.72, 2184.34, -1314.1)" xlink:href="#linear-gradient"/><linearGradient id="linear-gradient-31" x1="1395.13" y1="955.87" x2="1453.11" y2="-405.63" gradientTransform="matrix(-0.82, 1.12, 0.98, 0.72, 2184.34, -1314.1)" xlink:href="#linear-gradient"/><linearGradient id="linear-gradient-32" x1="1894.89" y1="224.33" x2="1952.87" y2="-1137.17" gradientTransform="matrix(-1, 0, 0, 1, 2565.35, 849.72)" xlink:href="#linear-gradient"/><linearGradient id="linear-gradient-33" x1="2193.85" y1="239.39" x2="2251.84" y2="-1122.36" gradientTransform="matrix(-1, 0, 0, 1, 2565.35, 849.72)" xlink:href="#linear-gradient"/><linearGradient id="linear-gradient-34" x1="1892.73" y1="150.7" x2="1940.65" y2="-974.68" gradientTransform="matrix(-1, 0, 0, 1, 2565.35, 849.72)" xlink:href="#linear-gradient"/><linearGradient id="linear-gradient-35" x1="1550.23" y1="171.61" x2="1607.87" y2="-1182.05" gradientTransform="matrix(-1, 0, 0, 1, 2565.35, 849.72)" xlink:href="#linear-gradient"/><linearGradient id="linear-gradient-36" x1="1410.56" y1="147.69" x2="1468.3" y2="-1208.16" gradientTransform="matrix(-1, 0, 0, 1, 2565.35, 849.72)" xlink:href="#linear-gradient"/><linearGradient id="linear-gradient-37" x1="1237.66" y1="93.15" x2="1295.4" y2="-1262.7" gradientTransform="matrix(-1, 0, 0, 1, 2565.35, 849.72)" xlink:href="#linear-gradient"/><linearGradient id="linear-gradient-38" x1="1808.29" y1="236.84" x2="1866.03" y2="-1119.07" gradientTransform="matrix(-1, 0, 0, 1, 2565.35, 849.72)" xlink:href="#linear-gradient"/><linearGradient id="linear-gradient-39" x1="1663.36" y1="157.65" x2="1720.99" y2="-1195.69" gradientTransform="matrix(-1, 0, 0, 1, 2565.35, 849.72)" xlink:href="#linear-gradient"/><linearGradient id="linear-gradient-40" x1="2055.52" y1="230.94" x2="2113.36" y2="-1127.26" gradientTransform="matrix(-1, 0, 0, 1, 2565.35, 849.72)" xlink:href="#linear-gradient"/><linearGradient id="linear-gradient-41" x1="2084.94" y1="212.63" x2="2142.78" y2="-1145.56" gradientTransform="matrix(-1, 0, 0, 1, 2565.35, 849.72)" xlink:href="#linear-gradient"/><linearGradient id="linear-gradient-42" x1="2411.44" y1="235.31" x2="2469.16" y2="-1120.04" gradientTransform="matrix(-1, 0, 0, 1, 2565.35, 849.72)" xlink:href="#linear-gradient"/><linearGradient id="linear-gradient-43" x1="2489.04" y1="157.69" x2="2546.76" y2="-1197.66" gradientTransform="matrix(-1, 0, 0, 1, 2565.35, 849.72)" xlink:href="#linear-gradient"/><linearGradient id="linear-gradient-44" x1="2124.18" y1="228.22" x2="2182" y2="-1129.67" gradientTransform="matrix(-1, 0, 0, 1, 2565.35, 849.72)" xlink:href="#linear-gradient"/><linearGradient id="linear-gradient-45" x1="2273.34" y1="269.78" x2="2331.16" y2="-1088.11" gradientTransform="matrix(-1, 0, 0, 1, 2565.35, 849.72)" xlink:href="#linear-gradient"/><linearGradient id="linear-gradient-46" x1="1949.17" y1="208.2" x2="2006.99" y2="-1149.69" gradientTransform="matrix(-1, 0, 0, 1, 2565.35, 849.72)" xlink:href="#linear-gradient"/><linearGradient id="linear-gradient-47" x1="1265.17" y1="191.2" x2="1322.98" y2="-1166.46" gradientTransform="matrix(-1, 0, 0, 1, 2565.35, 849.72)" xlink:href="#linear-gradient"/><linearGradient id="linear-gradient-48" x1="1520.29" y1="203.85" x2="1578.1" y2="-1153.81" gradientTransform="matrix(-1, 0, 0, 1, 2565.35, 849.72)" xlink:href="#linear-gradient"/><linearGradient id="linear-gradient-49" x1="1335.99" y1="193.06" x2="1393.68" y2="-1161.78" gradientTransform="matrix(-1, 0, 0, 1, 2565.35, 849.72)" xlink:href="#linear-gradient"/><linearGradient id="linear-gradient-50" x1="1355.23" y1="195.72" x2="1413.04" y2="-1161.63" gradientTransform="matrix(-1, 0, 0, 1, 2565.35, 849.72)" xlink:href="#linear-gradient"/><linearGradient id="linear-gradient-51" x1="2134.94" y1="-53.44" x2="2192.75" y2="-1410.79" gradientTransform="matrix(-0.82, 0.58, 0.58, 0.82, 2436.86, -356.79)" xlink:href="#linear-gradient"/><linearGradient id="linear-gradient-52" x1="1722.93" y1="53.74" x2="1780.74" y2="-1303.61" gradientTransform="matrix(0.2, -0.98, -0.98, -0.2, -500.98, 1551.61)" xlink:href="#linear-gradient"/><linearGradient id="linear-gradient-53" x1="1501.78" y1="630.63" x2="1559.78" y2="-731.43" gradientTransform="matrix(-1, 0, 0, 1, 2565.35, 849.72)" xlink:href="#linear-gradient"/><linearGradient id="linear-gradient-54" x1="1709.11" y1="461.99" x2="1750.48" y2="-509.34" gradientTransform="matrix(-1, 0, 0, 1, 2565.35, 849.72)" xlink:href="#linear-gradient"/><linearGradient id="linear-gradient-55" x1="2342.5" y1="461.99" x2="2383.87" y2="-509.34" gradientTransform="matrix(-1, 0, 0, 1, 2565.35, 849.72)" xlink:href="#linear-gradient"/><linearGradient id="linear-gradient-56" x1="1766.52" y1="643.93" x2="1824.52" y2="-718.14" gradientTransform="matrix(-1, 0, 0, 1, 2565.35, 849.72)" xlink:href="#linear-gradient"/><linearGradient id="linear-gradient-57" x1="1225.82" y1="643.93" x2="1283.82" y2="-718.14" gradientTransform="matrix(-1, 0, 0, 1, 2565.35, 849.72)" xlink:href="#linear-gradient"/><linearGradient id="linear-gradient-58" x1="1695.25" y1="382.08" x2="1753.25" y2="-979.98" gradientTransform="matrix(-1, 0, 0, 1, 2565.35, 849.72)" xlink:href="#linear-gradient"/><linearGradient id="linear-gradient-59" x1="1398.81" y1="624.16" x2="1456.7" y2="-735.07" gradientTransform="matrix(-1, 0, 0, 1, 2565.35, 849.72)" xlink:href="#linear-gradient"/><linearGradient id="linear-gradient-60" x1="1314.02" y1="620.92" x2="1372" y2="-740.6" gradientTransform="matrix(-1, 0, 0, 1, 2565.35, 849.72)" xlink:href="#linear-gradient"/><linearGradient id="linear-gradient-61" x1="1600.37" y1="635.43" x2="1658.35" y2="-726.32" gradientTransform="matrix(-1, 0, 0, 1, 2565.35, 849.72)" xlink:href="#linear-gradient"/><linearGradient id="linear-gradient-62" x1="2272.77" y1="619.91" x2="2330.76" y2="-742.16" gradientTransform="matrix(-1, 0, 0, 1, 2565.35, 849.72)" xlink:href="#linear-gradient"/><linearGradient id="linear-gradient-63" x1="2476.94" y1="673.31" x2="2534.94" y2="-688.76" gradientTransform="matrix(-1, 0, 0, 1, 2565.35, 849.72)" xlink:href="#linear-gradient"/><linearGradient id="linear-gradient-64" x1="2385.68" y1="421.42" x2="2443.68" y2="-940.64" gradientTransform="matrix(-1, 0, 0, 1, 2565.35, 849.72)" xlink:href="#linear-gradient"/><linearGradient id="linear-gradient-65" x1="1999.12" y1="654.12" x2="2057.01" y2="-705.11" gradientTransform="matrix(-1, 0, 0, 1, 2565.35, 849.72)" xlink:href="#linear-gradient"/><linearGradient id="linear-gradient-66" x1="1894.89" y1="650.03" x2="1952.87" y2="-711.47" gradientTransform="matrix(-1, 0, 0, 1, 2565.35, 849.72)" xlink:href="#linear-gradient"/><linearGradient id="linear-gradient-67" x1="2185.23" y1="568.3" x2="2243.21" y2="-793.46" gradientTransform="matrix(-1, 0, 0, 1, 2565.35, 849.72)" xlink:href="#linear-gradient"/><linearGradient id="linear-gradient-68" x1="1918.73" y1="743.87" x2="1976.37" y2="-609.79" gradientTransform="matrix(-1, 0, 0, 1, 2565.35, 849.72)" xlink:href="#linear-gradient"/><linearGradient id="linear-gradient-69" x1="1410.56" y1="573.39" x2="1468.3" y2="-782.46" gradientTransform="matrix(-1, 0, 0, 1, 2565.35, 849.72)" xlink:href="#linear-gradient"/><linearGradient id="linear-gradient-70" x1="1808.29" y1="662.54" x2="1866.03" y2="-693.37" gradientTransform="matrix(-1, 0, 0, 1, 2565.35, 849.72)" xlink:href="#linear-gradient"/><linearGradient id="linear-gradient-71" x1="1663.36" y1="611.6" x2="1720.99" y2="-741.74" gradientTransform="matrix(-1, 0, 0, 1, 2565.35, 849.72)" xlink:href="#linear-gradient"/><linearGradient id="linear-gradient-72" x1="2055.52" y1="656.64" x2="2113.36" y2="-701.56" gradientTransform="matrix(-1, 0, 0, 1, 2565.35, 849.72)" xlink:href="#linear-gradient"/><linearGradient id="linear-gradient-73" x1="2118.98" y1="990.29" x2="2176.82" y2="-367.9" gradientTransform="matrix(-1, 0, 0, 1, 2565.35, 849.72)" xlink:href="#linear-gradient"/><linearGradient id="linear-gradient-74" x1="2411.44" y1="661.01" x2="2469.16" y2="-694.34" gradientTransform="matrix(-1, 0, 0, 1, 2565.35, 849.72)" xlink:href="#linear-gradient"/><linearGradient id="linear-gradient-75" x1="2504.18" y1="650.88" x2="2561.9" y2="-704.47" gradientTransform="matrix(-1, 0, 0, 1, 2565.35, 849.72)" xlink:href="#linear-gradient"/><linearGradient id="linear-gradient-76" x1="2001.94" y1="653.92" x2="2059.76" y2="-703.97" gradientTransform="matrix(-1, 0, 0, 1, 2565.35, 849.72)" xlink:href="#linear-gradient"/><linearGradient id="linear-gradient-77" x1="2273.34" y1="695.48" x2="2331.16" y2="-662.41" gradientTransform="matrix(-1, 0, 0, 1, 2565.35, 849.72)" xlink:href="#linear-gradient"/><linearGradient id="linear-gradient-78" x1="1390.41" y1="646.42" x2="1448.22" y2="-711.24" gradientTransform="matrix(-1, 0, 0, 1, 2565.35, 849.72)" xlink:href="#linear-gradient"/><linearGradient id="linear-gradient-79" x1="1520.29" y1="629.55" x2="1578.1" y2="-728.11" gradientTransform="matrix(-1, 0, 0, 1, 2565.35, 849.72)" xlink:href="#linear-gradient"/><linearGradient id="linear-gradient-80" x1="1335.99" y1="618.76" x2="1393.68" y2="-736.08" gradientTransform="matrix(-1, 0, 0, 1, 2565.35, 849.72)" xlink:href="#linear-gradient"/></defs><title>starbg3</title><g class="cls-1"><path class="cls-2" d="M1236.62,581.11l-4.85,5.47a.76.76,0,0,0-.14.76l2.15,7.34a.76.76,0,0,1-.68,1,.65.65,0,0,1-.39-.09l-7.14-3.21a.77.77,0,0,0-.77,0l-6.33,3.73a.83.83,0,0,1-1.06-.18,1,1,0,0,1-.24-.62l.4-7.44a.84.84,0,0,0-.36-.72l-6.1-5a.89.89,0,0,1-.08-1.3.46.46,0,0,1,.38-.13l7.41-1.36a.9.9,0,0,0,.58-.5L1222,572a.84.84,0,0,1,1.51,0l4.19,6.62a.77.77,0,0,0,.69.4l7.66.79A.85.85,0,0,1,1236.62,581.11Z" transform="translate(-16.86 -6.31)"/><path class="cls-3" d="M985,599.06l7.46,1.38a.61.61,0,0,0,.69-.3l5.24-6.47a.75.75,0,0,1,1.07-.23.67.67,0,0,1,.31.69l1.23,8.78a.9.9,0,0,0,.46.69l6.85,3.84a1.1,1.1,0,0,1,.31,1.47c-.08.07-.16.23-.31.3l-6.77,4.08a1.34,1.34,0,0,0-.46.77l-1,8.85c-.08.77-.92,1.15-1.39.54l-5.38-6.31a.62.62,0,0,0-.69-.23l-7.47,1.61c-.69.16-1.23-.69-.92-1.38l3.46-7.93a.94.94,0,0,0,0-.92L984,600.44A.93.93,0,0,1,985,599.06Z" transform="translate(-16.86 -6.31)"/><path class="cls-4" d="M936.9,520.7l.5-10a1.09,1.09,0,0,0-.4-.9l-6.8-6.1a1,1,0,0,1,0-1.6,1.38,1.38,0,0,1,.4-.3l8.2-2.6a1.06,1.06,0,0,0,.6-.7l2.8-9.4a.82.82,0,0,1,1-.7c.3.1.5.2.6.5l4.6,8.4a.79.79,0,0,0,.8.5l8.5.3a1.13,1.13,0,0,1,.9,1.3c0,.2-.1.3-.2.5l-5.4,7.8a1.23,1.23,0,0,0-.2,1l2.4,9.6c.2.9-.5,1.6-1.2,1.3l-7.9-3.6a1,1,0,0,0-.9.1l-7,5.6C937.7,522.2,936.9,521.6,936.9,520.7Z" transform="translate(-16.86 -6.31)"/><path class="cls-5" d="M1179.9,496.5l-6.4,6.8a1.21,1.21,0,0,0-.3,1l1.1,10c.1.9-.7,1.5-1.4,1.1l-7.5-5a.75.75,0,0,0-.9,0l-7.8,4.4c-.7.4-1.5-.3-1.3-1.2l1.8-9.9a1.16,1.16,0,0,0-.2-1l-5.9-7.4a1.22,1.22,0,0,1,.1-1.6.76.76,0,0,1,.4-.2l8.6-1a1.06,1.06,0,0,0,.7-.6l4.1-8.9a.81.81,0,0,1,1.1-.5.63.63,0,0,1,.5.6l3.5,9.2a1.06,1.06,0,0,0,.7.6l8.5,1.9a1.22,1.22,0,0,1,.6,1.5C1180,496.3,1180,496.4,1179.9,496.5Z" transform="translate(-16.86 -6.31)"/><path class="cls-6" d="M1031.8,426l.3-5.9a.76.76,0,0,0-.2-.5l-4-3.6a.67.67,0,0,1,0-1l.2-.2,4.9-1.5a.78.78,0,0,0,.4-.4l1.7-5.6a.56.56,0,0,1,.6-.5c.2,0,.4.1.4.3l2.8,5a.54.54,0,0,0,.4.3l5.1.2a.62.62,0,0,1,.5.8c0,.1,0,.1-.1.2l-3.2,4.6a.66.66,0,0,0-.1.6l1.4,5.7c.1.5-.3,1-.7.8l-4.7-2.1c-.2-.1-.4-.1-.5.1l-4.2,3.4A.68.68,0,0,1,1031.8,426Z" transform="translate(-16.86 -6.31)"/><path class="cls-7" d="M844,468.6l-5-5a.84.84,0,0,0-.7-.2l-6.4,2a.74.74,0,0,1-.8-1.1l2.5-7.2a.78.78,0,0,0-.1-.8l-3.6-6.5a.88.88,0,0,1,.7-1.3l6.6.6a.71.71,0,0,0,.6-.3l4.2-6a.65.65,0,0,1,.9-.2.55.55,0,0,1,.3.5l1.5,7.5a.68.68,0,0,0,.4.6l6.2,2.8a.84.84,0,0,1,.3,1.2c-.1.1-.1.2-.2.3l-5.6,4a.91.91,0,0,0-.3.7l-.4,7.7C845.1,468.7,844.4,469.1,844,468.6Z" transform="translate(-16.86 -6.31)"/><path class="cls-8" d="M741.93,607.78l-.8-7.7a.68.68,0,0,0-.4-.6l-5.9-3.6a1,1,0,0,1-.2-1.3c.1-.1.1-.2.2-.2l6-3.3a.82.82,0,0,0,.4-.6l1.1-7.7a.68.68,0,0,1,.7-.7.55.55,0,0,1,.5.3L748,588a.71.71,0,0,0,.6.3l6.5-1.2a.78.78,0,0,1,.7,1.2l-3.2,6.8a1.1,1.1,0,0,0,0,.8l3,6.9a.82.82,0,0,1-.8,1.2l-6.5-1.4a.48.48,0,0,0-.6.2l-4.5,5.5A.74.74,0,0,1,741.93,607.78Z" transform="translate(-16.86 -6.31)"/><path class="cls-9" d="M1070.2,524.4l-3.3-6.7a.68.68,0,0,0-.6-.4l-6.6-.6a.8.8,0,0,1-.6-1.1c0-.1.1-.2.2-.3l4.4-5.8a1.08,1.08,0,0,0,.2-.8l-1.5-7.5c-.1-.7.4-1.2,1-1l6,3.2a.62.62,0,0,0,.7-.1l5.6-4c.5-.4,1.1.1,1.1.8l-.7,7.7a.91.91,0,0,0,.3.7l5,5a1.05,1.05,0,0,1,0,1.3c-.1.1-.2.1-.3.2l-6.5,1.6a1.21,1.21,0,0,0-.5.5l-2.5,7.2a.62.62,0,0,1-.8.5A.68.68,0,0,1,1070.2,524.4Z" transform="translate(-16.86 -6.31)"/><path class="cls-10" d="M765,390.9l.3-5.9a.76.76,0,0,0-.2-.5l-4-3.6a.67.67,0,0,1,0-1l.2-.2,4.9-1.5a.78.78,0,0,0,.4-.4l1.7-5.6a.56.56,0,0,1,.6-.5c.2,0,.4.1.4.3l2.8,5a.54.54,0,0,0,.4.3l5.1.2a.62.62,0,0,1,.5.8c0,.1-.1.2-.1.3l-3.2,4.6a.66.66,0,0,0-.1.6l1.4,5.7c.1.5-.3,1-.7.8l-4.7-2.1c-.2-.1-.4-.1-.5.1l-4.2,3.4A.8.8,0,0,1,765,390.9Z" transform="translate(-16.86 -6.31)"/><path class="cls-11" d="M1305.7,390.9l.3-5.9a.76.76,0,0,0-.2-.5l-4-3.6a.67.67,0,0,1,0-1l.2-.2,4.9-1.5a.78.78,0,0,0,.4-.4l1.7-5.6a.56.56,0,0,1,.6-.5c.2,0,.4.1.4.3l2.8,5a.54.54,0,0,0,.4.3l5.1.2a.62.62,0,0,1,.5.8c0,.1-.1.2-.1.3l-3.2,4.6a.66.66,0,0,0-.1.6l1.4,5.7c.1.5-.3,1-.7.8l-4.7-2.1c-.2-.1-.4-.1-.5.1l-4.2,3.4A.8.8,0,0,1,1305.7,390.9Z" transform="translate(-16.86 -6.31)"/><path class="cls-12" d="M717.8,92.3l.3-5.9a.76.76,0,0,0-.2-.5l-4-3.6a.67.67,0,0,1,0-1l.2-.2,4.9-1.5a.78.78,0,0,0,.4-.4l1.7-5.6a.56.56,0,0,1,.6-.5c.2,0,.4.1.4.3l2.8,5a.54.54,0,0,0,.4.3l5.1.2a.62.62,0,0,1,.5.8c0,.1-.1.2-.1.3l-3.2,4.6a.66.66,0,0,0-.1.6l1.4,5.7c.1.5-.3,1-.7.8l-4.7-2.1c-.2-.1-.4-.1-.5.1l-4.2,3.4A.8.8,0,0,1,717.8,92.3Z" transform="translate(-16.86 -6.31)"/><path class="cls-13" d="M1147.5,415.8l-5.1-.1a.55.55,0,0,0-.5.3l-2.9,4.9a.52.52,0,0,1-.7.3.55.55,0,0,1-.3-.5l-1.5-5.7c0-.2-.2-.3-.4-.4l-4.8-1.8a.69.69,0,0,1-.3-.9.22.22,0,0,1,.2-.2l4.2-3.4c.2-.1.2-.3.2-.5v-6c0-.5.5-.9.9-.5l4,3.6a.44.44,0,0,0,.5.1l4.8-1.9c.4-.2.8.3.7.8l-1.6,5.6a.66.66,0,0,0,.1.6l3,4.8a.74.74,0,0,1-.1.9Z" transform="translate(-16.86 -6.31)"/><path class="cls-14" d="M723.3,478.3l-4.4-6.8a.84.84,0,0,0-.7-.4l-7.3.3c-.7,0-1-.8-.7-1.5l4.2-7a.8.8,0,0,0,.1-.8l-2.5-8c-.2-.7.4-1.4,1-1.2l6.9,2.5a.66.66,0,0,0,.7-.2l5.7-5.3c.5-.5,1.3,0,1.3.7l.1,8.5a.91.91,0,0,0,.4.8l6,4.7a1,1,0,0,1,.1,1.4c-.1.1-.2.2-.3.2L727,469c-.3.1-.4.3-.5.6l-2,8.2a.78.78,0,0,1-.9.6C723.6,478.5,723.4,478.4,723.3,478.3Z" transform="translate(-16.86 -6.31)"/><path class="cls-15" d="M1226.8,456.3l-4.4-6.8a.84.84,0,0,0-.7-.4l-7.3.3a.89.89,0,0,1-.8-1,.52.52,0,0,1,.2-.4l4.2-7a1.41,1.41,0,0,0,.1-.9l-2.5-8c-.2-.7.3-1.4,1-1.2l6.9,2.5a.62.62,0,0,0,.7-.2l5.7-5.3c.5-.5,1.3-.1,1.3.7l.1,8.5a.91.91,0,0,0,.4.8l6,4.7a1,1,0,0,1,.1,1.4c-.1.1-.2.2-.3.2l-6.9,2.7c-.3.1-.4.3-.5.6l-2,8.2a.77.77,0,0,1-.8.7C1227.1,456.6,1226.9,456.5,1226.8,456.3Z" transform="translate(-16.86 -6.31)"/><path class="cls-16" d="M1307.57,669.56l-4.4-6.8a.84.84,0,0,0-.7-.4l-7.3.3a.89.89,0,0,1-.8-1,.52.52,0,0,1,.2-.4l4.2-7a1.41,1.41,0,0,0,.1-.9l-2.5-8c-.2-.7.3-1.4,1-1.2l6.9,2.5a.62.62,0,0,0,.7-.2l5.7-5.3c.5-.5,1.3-.1,1.3.7l.1,8.5a.91.91,0,0,0,.4.8l6,4.7a1,1,0,0,1,.1,1.4c-.1.1-.2.2-.3.2l-6.9,2.7c-.3.1-.4.3-.5.6l-2,8.2a.77.77,0,0,1-.8.7C1307.87,669.86,1307.67,669.76,1307.57,669.56Z" transform="translate(-16.86 -6.31)"/><path class="cls-17" d="M927.5,377.8l3-4.8a1.27,1.27,0,0,0,.1-.6l-1.6-5.6c-.2-.5.3-1,.7-.8l4.8,1.9a.44.44,0,0,0,.5-.1l4.1-3.6a.56.56,0,0,1,.9.5l-.1,5.9a.76.76,0,0,0,.2.5l4.2,3.4a.67.67,0,0,1,0,1l-.2.2-4.9,1.8a.78.78,0,0,0-.4.4l-1.5,5.7a.54.54,0,0,1-.5.5.55.55,0,0,1-.5-.3l-2.9-4.9a.55.55,0,0,0-.5-.3l-5.1.1a.62.62,0,0,1-.5-.8C927.4,378,927.4,377.9,927.5,377.8Z" transform="translate(-16.86 -6.31)"/></g><g class="cls-1"><path class="cls-18" d="M371.7,583l6.64,1.23A.56.56,0,0,0,379,584l4.66-5.76a.67.67,0,0,1,1-.2.6.6,0,0,1,.27.61l1.1,7.81a.78.78,0,0,0,.41.62l6.09,3.42a1,1,0,0,1,.28,1.3c-.07.07-.14.21-.28.28l-6,3.63a.89.89,0,0,0-.42.68l-.89,7.88c-.06.68-.82,1-1.23.48l-4.79-5.62a.56.56,0,0,0-.62-.2l-6.64,1.43c-.62.14-1-.61-.76-1.23l3.09-7.05a.91.91,0,0,0,0-.82l-3.22-7A.8.8,0,0,1,371.7,583Z" transform="translate(-16.86 -6.31)"/><path class="cls-19" d="M17.4,608.5l8.2-5.4a1,1,0,0,0,.5-.8l.7-9.4a1.27,1.27,0,0,1,.9-1.1.63.63,0,0,1,.8.3l7.1,5.5a.94.94,0,0,0,.9.1l9.2-3a.93.93,0,0,1,1.3.8,1.09,1.09,0,0,1-.1.5l-3.8,8.9a1.18,1.18,0,0,0,.1,1l5,7.5a1.08,1.08,0,0,1-1,1.6l-9.5-.1a1,1,0,0,0-.8.4L30.8,623a1,1,0,0,1-1.8-.3l-2-9a.88.88,0,0,0-.6-.7l-8.8-2.8C16.7,610.1,16.6,609,17.4,608.5Z" transform="translate(-16.86 -6.31)"/><path class="cls-20" d="M334.9,509.7l.4-10a1.09,1.09,0,0,0-.4-.9l-6.7-6.1a1.12,1.12,0,0,1-.1-1.6,1.38,1.38,0,0,1,.4-.3l8.2-2.6a1.06,1.06,0,0,0,.6-.7l2.8-9.4a.82.82,0,0,1,1-.7.63.63,0,0,1,.6.5l4.6,8.4a.75.75,0,0,0,.7.5l8.5.3a1.13,1.13,0,0,1,.9,1.3c0,.2-.1.3-.2.5l-5.4,7.8a1.23,1.23,0,0,0-.2,1l2.4,9.6c.2.9-.5,1.6-1.2,1.3l-7.9-3.6a1,1,0,0,0-.9.1l-7,5.6C335.7,511.2,334.8,510.6,334.9,509.7Z" transform="translate(-16.86 -6.31)"/><path class="cls-21" d="M577.9,485.5l-6.4,6.8a1.21,1.21,0,0,0-.3,1l1.1,10c.1.9-.7,1.5-1.4,1.1l-7.5-5a.75.75,0,0,0-.9,0l-7.8,4.4c-.7.4-1.5-.3-1.3-1.2l1.8-9.9a1.16,1.16,0,0,0-.2-1l-5.9-7.4a1.22,1.22,0,0,1,.1-1.6.76.76,0,0,1,.4-.2l8.6-1.1a.86.86,0,0,0,.7-.6l4.1-8.9a.81.81,0,0,1,1.1-.5.63.63,0,0,1,.5.6l3.5,9.2a1.06,1.06,0,0,0,.7.6l8.5,1.9a1.07,1.07,0,0,1,.6,1.5C578,485.3,577.9,485.4,577.9,485.5Z" transform="translate(-16.86 -6.31)"/><path class="cls-22" d="M429.7,453l.3-6a.76.76,0,0,0-.2-.5l-4-3.6a.67.67,0,0,1,0-1l.2-.2,4.9-1.5a.78.78,0,0,0,.4-.4l1.7-5.6a.47.47,0,0,1,.5-.5.66.66,0,0,1,.5.4l2.8,5a.55.55,0,0,0,.5.3l5.1.2a.62.62,0,0,1,.5.8.35.35,0,0,1-.1.2l-3.2,4.6a1.27,1.27,0,0,0-.1.6l1.4,5.7c.1.5-.3,1-.7.8l-4.7-2.1c-.2-.1-.4-.1-.5.1l-4.2,3.4A.79.79,0,0,1,429.7,453Z" transform="translate(-16.86 -6.31)"/><path class="cls-23" d="M241.9,457.6l-5-5a.73.73,0,0,0-.6-.2l-6.4,2a.74.74,0,0,1-.8-1.1l2.5-7.2a.78.78,0,0,0-.1-.8l-3.6-6.5a.83.83,0,0,1,.2-1.2.6.6,0,0,1,.4-.1l6.6.6a.71.71,0,0,0,.6-.3l4.2-6a.78.78,0,0,1,1-.2.55.55,0,0,1,.3.5l1.5,7.5a.68.68,0,0,0,.4.6l6.2,2.8a.86.86,0,0,1,.3,1.2c-.1.1-.1.2-.2.3l-5.6,4a1.61,1.61,0,0,0-.4.7l-.4,7.7C243.1,457.8,242.4,458.1,241.9,457.6Z" transform="translate(-16.86 -6.31)"/><path class="cls-24" d="M206.6,537.31l-.8-7.7a.68.68,0,0,0-.4-.6l-5.9-3.6a1,1,0,0,1-.2-1.3c.1-.1.1-.2.2-.2l6-3.3a.82.82,0,0,0,.4-.6l1.1-7.7a.68.68,0,0,1,.7-.7.76.76,0,0,1,.5.2l4.5,5.6a.71.71,0,0,0,.6.3l6.5-1.2a.78.78,0,0,1,.7,1.2l-3.2,6.8a1.1,1.1,0,0,0,0,.8l3,6.9a.82.82,0,0,1-.8,1.2L213,532a.48.48,0,0,0-.6.2l-4.7,5.5C207.4,538.31,206.7,538,206.6,537.31Z" transform="translate(-16.86 -6.31)"/><path class="cls-25" d="M468.2,513.4l-3.3-6.7a.68.68,0,0,0-.6-.4l-6.6-.6a.8.8,0,0,1-.6-1.1c0-.1.1-.2.2-.3l4.4-5.8a1.08,1.08,0,0,0,.2-.8l-1.5-7.5c-.1-.7.4-1.2,1-1l6,3.1a.85.85,0,0,0,.7,0l5.6-4c.5-.4,1.2.1,1.1.8l-.7,7.7a.91.91,0,0,0,.3.7l5,5a1.05,1.05,0,0,1,0,1.3c-.1.1-.2.1-.3.2l-6.5,1.6a1.21,1.21,0,0,0-.5.5l-2.5,7.2a.66.66,0,0,1-.8.5C468.4,513.8,468.2,513.6,468.2,513.4Z" transform="translate(-16.86 -6.31)"/><path class="cls-26" d="M176.6,400.9l.3-5.9a1.42,1.42,0,0,0-.2-.6l-4-3.6a.67.67,0,0,1,0-1l.2-.2,4.9-1.5a.78.78,0,0,0,.4-.4l1.7-5.6a.56.56,0,0,1,.6-.5c.2,0,.4.1.4.3l2.8,5a.55.55,0,0,0,.5.3l5.1.2a.62.62,0,0,1,.5.8c0,.1,0,.1-.1.2l-3.2,4.6a1.27,1.27,0,0,0-.1.6l1.4,5.7c.1.5-.3,1-.7.8l-4.7-2.1a.44.44,0,0,0-.5.1l-4.2,3.4C177.1,401.8,176.6,401.5,176.6,400.9Z" transform="translate(-16.86 -6.31)"/><path class="cls-27" d="M53.7,400.9,54,395a1.42,1.42,0,0,0-.2-.6l-4-3.6a.67.67,0,0,1,0-1l.2-.2,4.9-1.5a.78.78,0,0,0,.4-.4l1.7-5.6a.56.56,0,0,1,.6-.5c.2,0,.4.1.4.3l2.8,5a.55.55,0,0,0,.5.3l5.1.2a.62.62,0,0,1,.5.8c0,.1,0,.1-.1.2L63.6,393a1.27,1.27,0,0,0-.1.6l1.4,5.7c.1.5-.3,1-.7.8L59.5,398a.44.44,0,0,0-.5.1l-4.2,3.4C54.2,401.8,53.7,401.5,53.7,400.9Z" transform="translate(-16.86 -6.31)"/><path class="cls-28" d="M176.6,108.9l.3-5.9a1.42,1.42,0,0,0-.2-.6l-4-3.6a.67.67,0,0,1,0-1l.2-.2,4.9-1.5a.78.78,0,0,0,.4-.4l1.7-5.6a.56.56,0,0,1,.6-.5c.2,0,.4.1.4.3l2.8,5a.55.55,0,0,0,.5.3l5.1.2a.62.62,0,0,1,.5.8c0,.1,0,.1-.1.2l-3.2,4.6a1.27,1.27,0,0,0-.1.6l1.4,5.7c.1.5-.3,1-.7.8l-4.7-2.1a.44.44,0,0,0-.5.1l-4.2,3.4C177.1,109.8,176.6,109.5,176.6,108.9Z" transform="translate(-16.86 -6.31)"/><path class="cls-29" d="M545.5,404.9l-5.1-.1a.55.55,0,0,0-.5.3L537,410a.52.52,0,0,1-.7.3.55.55,0,0,1-.3-.5l-1.5-5.7a.43.43,0,0,0-.4-.4l-4.8-1.8a.69.69,0,0,1-.3-.9.22.22,0,0,1,.2-.2l4.2-3.4c.2-.1.2-.3.2-.5l-.1-6a.56.56,0,0,1,.9-.5l4.1,3.6a.44.44,0,0,0,.5.1l4.8-1.9c.4-.2.8.3.7.8l-1.7,5.6a.66.66,0,0,0,.1.6l3,4.8a.65.65,0,0,1-.2.9C545.7,404.8,545.6,404.8,545.5,404.9Z" transform="translate(-16.86 -6.31)"/><path class="cls-30" d="M121.3,467.3l-4.4-6.8a.84.84,0,0,0-.7-.4l-7.3.4a1,1,0,0,1-.8-1.1c0-.1.1-.3.1-.4l4.2-7a1,1,0,0,0,.1-.9l-2.5-8c-.2-.7.4-1.4,1-1.2l6.9,2.5a.62.62,0,0,0,.7-.2l5.6-5.2c.5-.5,1.3-.1,1.3.7l.1,8.5a.91.91,0,0,0,.4.8l6,4.7a1,1,0,0,1,.1,1.4c-.1.1-.2.2-.3.2l-6.9,2.7a.74.74,0,0,0-.5.6l-2,8.2a.72.72,0,0,1-.9.5C121.5,467.5,121.4,467.4,121.3,467.3Z" transform="translate(-16.86 -6.31)"/><path class="cls-31" d="M61.4,510.2H51.1a1.59,1.59,0,0,0-1,.5l-5.6,8.5a1.16,1.16,0,0,1-1.7.1c-.1-.1-.2-.3-.3-.4l-3.4-9.8a1.09,1.09,0,0,0-.8-.8l-9.9-3a1.2,1.2,0,0,1-.4-2l8.1-5.9a1.22,1.22,0,0,0,.4-.9l-.5-10a1.1,1.1,0,0,1,1.8-.9l8.4,6a1.07,1.07,0,0,0,1.1.1l9.6-3.3a1.15,1.15,0,0,1,1.5.9.75.75,0,0,1-.1.5l-3,9.7a1.09,1.09,0,0,0,.2,1l6.4,8.2a1,1,0,0,1-.3,1.4C61.8,510.1,61.6,510.1,61.4,510.2Z" transform="translate(-16.86 -6.31)"/><path class="cls-32" d="M1329.4,510.2h-10.3a1.59,1.59,0,0,0-1,.5l-5.6,8.5a1.16,1.16,0,0,1-1.7.1c-.1-.1-.2-.3-.3-.4l-3.4-9.8a1.09,1.09,0,0,0-.8-.8l-9.9-3a1.2,1.2,0,0,1-.4-2l8.1-5.9a1.22,1.22,0,0,0,.4-.9l-.5-10a1.1,1.1,0,0,1,1.8-.9l8.4,6a1.07,1.07,0,0,0,1.1.1l9.6-3.3a1.15,1.15,0,0,1,1.5.9.75.75,0,0,1-.1.5l-3,9.7a1.09,1.09,0,0,0,.2,1l6.4,8.2a1,1,0,0,1-.3,1.4C1329.8,510.1,1329.6,510.1,1329.4,510.2Z" transform="translate(-16.86 -6.31)"/><path class="cls-33" d="M641.8,388.4l-4.4-6.8a.84.84,0,0,0-.7-.4l-7.3.3a.89.89,0,0,1-.8-1,.52.52,0,0,1,.2-.4l4.2-7a1,1,0,0,0,.1-.9l-2.5-8c-.2-.7.3-1.4,1-1.2l6.9,2.5a.62.62,0,0,0,.7-.2l5.7-5.3c.5-.5,1.3-.1,1.3.7l.1,8.5a.91.91,0,0,0,.4.8l6,4.7a1,1,0,0,1,.1,1.4c-.1.1-.2.2-.3.2l-6.9,2.8c-.3.1-.4.3-.5.6l-2,8.2a.77.77,0,0,1-.8.7A.37.37,0,0,1,641.8,388.4Z" transform="translate(-16.86 -6.31)"/><path class="cls-34" d="M333.6,395.2l3-4.8a1.27,1.27,0,0,0,.1-.6l-1.6-5.6c-.2-.5.3-1,.7-.8l4.8,1.9a.44.44,0,0,0,.5-.1l4.1-3.6a.56.56,0,0,1,.9.5l-.1,6a.76.76,0,0,0,.2.5l4.1,3.5a.67.67,0,0,1,0,1l-.2.2-4.9,1.8a.78.78,0,0,0-.4.4l-1.5,5.7a.54.54,0,0,1-.5.5.55.55,0,0,1-.5-.3l-2.9-4.9a.55.55,0,0,0-.5-.3l-5.1.1a.62.62,0,0,1-.5-.8Q333.6,395.35,333.6,395.2Z" transform="translate(-16.86 -6.31)"/><path class="cls-35" d="M646,562.2l.08-10.58a1.18,1.18,0,0,0-.41-.91l-7.36-6.12a1.19,1.19,0,0,1-.08-1.73.79.79,0,0,1,.41-.33l8.6-3.14a1.19,1.19,0,0,0,.66-.75l2.64-10.08a1,1,0,0,1,1-.82.72.72,0,0,1,.66.49l5.2,8.6a.92.92,0,0,0,.83.49l9-.16a1.26,1.26,0,0,1,1.07,1.32,1.63,1.63,0,0,1-.16.58l-5.37,8.51a1.56,1.56,0,0,0-.17,1.07l2.89,10c.25.91-.49,1.74-1.24,1.49l-8.51-3.39a.76.76,0,0,0-.91.17l-7.19,6.36A1.12,1.12,0,0,1,646,562.2Z" transform="translate(-16.86 -6.31)"/></g><path class="cls-36" d="M981,74.5l-.9,5.8a1.27,1.27,0,0,0,.1.6l3.6,4.2a.63.63,0,0,1-.1.9.37.37,0,0,1-.3.1l-5,.8c-.2,0-.3.2-.4.3l-2.3,5.3c-.1.3-.3.5-.6.4a.43.43,0,0,1-.4-.4l-2.2-5.4a.78.78,0,0,0-.4-.4l-5-1a.72.72,0,0,1-.5-.9c0-.1.1-.2.2-.3l3.7-4a1.42,1.42,0,0,0,.2-.6l-.8-5.9a.6.6,0,0,1,.8-.7l4.4,2.8a.45.45,0,0,0,.5,0l4.5-2.7C980.6,73.6,981.1,74,981,74.5Z" transform="translate(-16.86 -6.31)"/><path class="cls-37" d="M1117.3,149.5l3.6,4.2a.76.76,0,0,0,.5.2l5-1.2c.4-.1.8.4.6.9l-2.2,5.3a.64.64,0,0,0,0,.6l2.5,5.2a.69.69,0,0,1-.5,1l-5-.9a.76.76,0,0,0-.5.2l-3.4,4.4a.49.49,0,0,1-.7.1.52.52,0,0,1-.2-.4l-.9-5.8a.55.55,0,0,0-.3-.5l-4.6-2.5a.75.75,0,0,1-.2-1l.2-.2,4.5-2.8a.55.55,0,0,0,.3-.5l.6-5.9a.63.63,0,0,1,.5-.6C1117.1,149.4,1117.2,149.4,1117.3,149.5Z" transform="translate(-16.86 -6.31)"/><path class="cls-38" d="M1290.2,95l3.6,4.2a.76.76,0,0,0,.5.2l5-1.2c.4-.1.8.4.6.9l-2.2,5.3a.64.64,0,0,0,0,.6l2.5,5.2a.69.69,0,0,1-.5,1l-5-.9a.76.76,0,0,0-.5.2l-3.4,4.4a.49.49,0,0,1-.7.1.52.52,0,0,1-.2-.4l-.9-5.8a.55.55,0,0,0-.3-.5l-4.6-2.5a.75.75,0,0,1-.2-1l.2-.2,4.5-2.8a.55.55,0,0,0,.3-.5l.6-5.9a.63.63,0,0,1,.5-.6C1290,94.9,1290.1,94.9,1290.2,95Z" transform="translate(-16.86 -6.31)"/><path class="cls-39" d="M714.6,261.5l5,.9c.2,0,.4,0,.5-.2l3.5-4.3a.49.49,0,0,1,.7-.1.76.76,0,0,1,.2.4l.8,5.9a.55.55,0,0,0,.3.5l4.6,2.5a.78.78,0,0,1,.2,1l-.2.2-4.5,2.7a.55.55,0,0,0-.3.5l-.6,5.9a.63.63,0,0,1-.5.6.52.52,0,0,1-.4-.2l-3.6-4.2a.76.76,0,0,0-.5-.2l-5,1.1c-.5.1-.8-.4-.6-.9l2.3-5.3a.64.64,0,0,0,0-.6l-2.4-5.2C713.8,262,714.1,261.4,714.6,261.5Z" transform="translate(-16.86 -6.31)"/><path class="cls-40" d="M875.9,199.65l-3.6,4.2a.66.66,0,0,0-.1.6l1,5.8a.6.6,0,0,1-.8.7l-4.5-2.7a.45.45,0,0,0-.5,0l-4.4,2.9c-.4.3-.9-.1-.8-.7l.8-5.9a.73.73,0,0,0-.2-.6l-3.7-4.1a.68.68,0,0,1,.1-1c.1-.1.1-.1.2-.1l5-1c.2,0,.3-.2.4-.4L867,192a.62.62,0,0,1,.6-.4c.2,0,.3.2.4.4l2.3,5.3c.1.2.2.3.4.3l5,.7a.62.62,0,0,1,.5.8C876,199.45,876,199.55,875.9,199.65Z" transform="translate(-16.86 -6.31)"/><path class="cls-41" d="M476.2,280.4l2.5,5.2c.1.2.2.3.4.3l5,.5a.66.66,0,0,1,.5.8c0,.1-.1.2-.1.3l-3.4,4.4a.66.66,0,0,0-.1.6l1.1,5.8c.1.5-.3,1-.8.7l-4.6-2.5a.45.45,0,0,0-.5,0l-4.3,3a.53.53,0,0,1-.8-.6l.6-5.9a.73.73,0,0,0-.2-.6l-3.8-3.9a.67.67,0,0,1,0-1c.1-.1.1-.1.2-.1l5-1.2a.78.78,0,0,0,.4-.4l2-5.5a.43.43,0,0,1,.7-.2C476.1,280.2,476.2,280.3,476.2,280.4Z" transform="translate(-16.86 -6.31)"/><path class="cls-42" d="M437.2,37.2l2.5,5.2c.1.2.2.3.4.3l5,.5a.62.62,0,0,1,.5.8c0,.1-.1.2-.1.3l-3.4,4.4a.66.66,0,0,0-.1.6l1.1,5.8c.1.5-.3,1-.8.7l-4.6-2.5a.45.45,0,0,0-.5,0l-4.3,3a.53.53,0,0,1-.8-.6l.6-5.9a.73.73,0,0,0-.2-.6l-3.8-3.9a.67.67,0,0,1,0-1c.1-.1.1-.1.2-.1l5-1.2a.78.78,0,0,0,.4-.4l2-5.5c.1-.3.3-.5.6-.4A.85.85,0,0,1,437.2,37.2Z" transform="translate(-16.86 -6.31)"/><path class="cls-43" d="M112.2,294.8l4.3-3.1a.55.55,0,0,0,.3-.5l.3-5.9c0-.5.6-.8.9-.5l3.8,3.9a.44.44,0,0,0,.5.1l4.9-1.5c.4-.1.8.4.7.9l-2,5.5a.64.64,0,0,0,0,.6l2.8,5a.65.65,0,0,1-.2.9.37.37,0,0,1-.3.1l-5-.5a.76.76,0,0,0-.5.2l-3.2,4.6a.44.44,0,0,1-.7.2.55.55,0,0,1-.3-.5l-1.2-5.8a.85.85,0,0,0-.3-.5l-4.7-2.1a.69.69,0,0,1-.3-.9C112.1,295,112.1,294.9,112.2,294.8Z" transform="translate(-16.86 -6.31)"/><path class="cls-44" d="M34.6,217.2l4.3-3.1a.55.55,0,0,0,.3-.5l.3-5.9c0-.5.6-.8.9-.5l3.8,3.9a.44.44,0,0,0,.5.1l4.9-1.5c.4-.1.8.4.7.9l-2,5.5a.64.64,0,0,0,0,.6l2.8,5a.65.65,0,0,1-.2.9.37.37,0,0,1-.3.1l-5-.5a.76.76,0,0,0-.5.2L41.9,227a.44.44,0,0,1-.7.2.55.55,0,0,1-.3-.5l-1.2-5.8a.85.85,0,0,0-.3-.5l-4.7-2.1a.69.69,0,0,1-.3-.9C34.5,217.4,34.5,217.3,34.6,217.2Z" transform="translate(-16.86 -6.31)"/><path class="cls-45" d="M407.66,170.4l-.4,5.9a.76.76,0,0,0,.2.5l3.9,3.7a.67.67,0,0,1,0,1l-.2.2-4.9,1.4a.78.78,0,0,0-.4.4l-1.8,5.5a.44.44,0,0,1-.6.4c-.2,0-.3-.2-.4-.3l-2.6-5.1a.54.54,0,0,0-.4-.3l-5.1-.3a.62.62,0,0,1-.5-.8c0-.1.1-.2.1-.3l3.3-4.5a.66.66,0,0,0,.1-.6l-1.3-5.7c-.1-.5.3-1,.7-.8l4.7,2.3a.45.45,0,0,0,.5,0l4.2-3.3A.62.62,0,0,1,407.66,170.4Z" transform="translate(-16.86 -6.31)"/><path class="cls-46" d="M258.5,211.9l-.4,5.9a.76.76,0,0,0,.2.5l3.9,3.7a.67.67,0,0,1,0,1l-.2.2-4.9,1.4a.78.78,0,0,0-.4.4l-1.8,5.5a.44.44,0,0,1-.6.4c-.2,0-.3-.2-.4-.3l-2.6-5.1a.54.54,0,0,0-.4-.3l-5.1-.3a.62.62,0,0,1-.5-.8c0-.1.1-.2.1-.3l3.3-4.5a.66.66,0,0,0,.1-.6l-1.3-5.7c-.1-.5.3-1,.7-.8l4.7,2.3a.45.45,0,0,0,.5,0l4.2-3.3C258,211,258.5,211.4,258.5,211.9Z" transform="translate(-16.86 -6.31)"/><path class="cls-47" d="M582.67,150.32l-.4,5.9a.76.76,0,0,0,.2.5l3.9,3.7a.67.67,0,0,1,0,1l-.2.2-4.9,1.4a.78.78,0,0,0-.4.4l-1.8,5.5a.44.44,0,0,1-.6.4c-.2,0-.3-.2-.4-.3l-2.6-5.1a.54.54,0,0,0-.4-.3l-5.1-.3a.62.62,0,0,1-.5-.8c0-.1.1-.2.1-.3l3.3-4.5a.66.66,0,0,0,.1-.6l-1.3-5.7c-.1-.5.3-1,.7-.8l4.7,2.3a.45.45,0,0,0,.5,0l4.2-3.3C582.17,149.42,582.67,149.82,582.67,150.32Z" transform="translate(-16.86 -6.31)"/><path class="cls-48" d="M1260.3,220.7l.3-5.9a.76.76,0,0,0-.2-.5l-4-3.6a.67.67,0,0,1,0-1l.2-.2,4.8-1.6a.78.78,0,0,0,.4-.4l1.7-5.6a.56.56,0,0,1,.6-.5c.2,0,.4.1.4.3l2.8,5a.54.54,0,0,0,.4.3l5.1.2a.62.62,0,0,1,.5.8c0,.1-.1.2-.1.3l-3.2,4.6a.66.66,0,0,0-.1.6l1.4,5.7c.1.5-.3,1-.7.8l-4.7-2.1a.44.44,0,0,0-.5.1l-4.2,3.4A.64.64,0,0,1,1260.3,220.7Z" transform="translate(-16.86 -6.31)"/><path class="cls-49" d="M1007.9,297.2l.3-5.9a.76.76,0,0,0-.2-.5l-4-3.6a.67.67,0,0,1,0-1l.2-.2,4.9-1.5a.78.78,0,0,0,.4-.4l1.7-5.6a.56.56,0,0,1,.6-.5c.2,0,.4.1.4.3l2.8,5a.54.54,0,0,0,.4.3l5,.1a.62.62,0,0,1,.5.8c0,.1-.1.2-.1.3l-3.2,4.6a1.27,1.27,0,0,0-.1.6l1.4,5.7c.1.5-.3,1-.7.8l-4.7-2.1a.44.44,0,0,0-.5.1l-4.2,3.4C1008.4,298.1,1007.9,297.7,1007.9,297.2Z" transform="translate(-16.86 -6.31)"/><path class="cls-50" d="M1206.1,310.1l-5.1-.1a.55.55,0,0,0-.5.3l-2.9,4.8a.44.44,0,0,1-.7.2c-.2-.1-.3-.2-.3-.4l-1.5-5.7a.43.43,0,0,0-.4-.4l-4.8-1.8a.69.69,0,0,1-.3-.9.22.22,0,0,1,.2-.2l4.1-3.4c.2-.1.2-.3.2-.5v-5.9a.56.56,0,0,1,.9-.5l4,3.6a.44.44,0,0,0,.5.1l4.8-1.9c.4-.2.8.3.7.8l-1.6,5.6a.66.66,0,0,0,.1.6l3,4.8a.74.74,0,0,1-.1.9A.19.19,0,0,0,1206.1,310.1Z" transform="translate(-16.86 -6.31)"/><path class="cls-51" d="M1158,20.3l3-4.8a1.27,1.27,0,0,0,.1-.6l-1.6-5.6c-.1-.5.3-1,.7-.8l4.8,1.9a.44.44,0,0,0,.5-.1l4.1-3.5a.56.56,0,0,1,.9.5l-.1,5.9a.76.76,0,0,0,.2.5l4.1,3.4a.77.77,0,0,1,.1,1l-.2.2-4.8,1.8a.78.78,0,0,0-.4.4l-1.5,5.7a.56.56,0,0,1-.6.5c-.2,0-.3-.1-.4-.3l-2.9-4.9a.55.55,0,0,0-.5-.3l-5.1.1a.62.62,0,0,1-.5-.8A.35.35,0,0,0,1158,20.3Z" transform="translate(-16.86 -6.31)"/><path class="cls-52" d="M28.2,24.5l-.3-5.7a.55.55,0,0,0-.3-.5l-4.5-3.7c-.4-.4-.3-1,.1-1.1l5-1.2c.2,0,.3-.2.4-.4l1.3-5.2a.54.54,0,0,1,1-.1l3.3,4.9a.55.55,0,0,0,.5.3l5.3.4a1,1,0,0,1,.7.8v.3l-2.9,4.2a1.08,1.08,0,0,0-.1.6l2.1,5.5c.2.2,0,.6-.2.8a.45.45,0,0,1-.5,0L33.8,22a.64.64,0,0,0-.6,0l-4.1,3a.7.7,0,0,1-.9-.4C28.2,24.7,28.3,24.6,28.2,24.5Z" transform="translate(-16.86 -6.31)"/><path class="cls-53" d="M806,6.79l4.12,4a.53.53,0,0,0,.56.16l5.82-.38c.56,0,.9.52.68.87l-2.82,4.3c-.15.13-.09.35,0,.56L817,20.93c.2.5-.17.85-.66.76l-5.76-1.31a.54.54,0,0,0-.57.12l-4.14,3.34a.94.94,0,0,1-1.05-.11l-.21-.21-.76-5.05a1.14,1.14,0,0,0-.34-.51l-5.3-2.57c-.28,0-.41-.43-.4-.72a.45.45,0,0,1,.37-.34l5.5-1.88a.63.63,0,0,0,.44-.41l.93-5a.71.71,0,0,1,.93-.33C805.91,6.65,805.9,6.79,806,6.79Z" transform="translate(-16.86 -6.31)"/><g class="cls-1"><path class="cls-54" d="M1031.8,851.7l.3-5.9a.76.76,0,0,0-.2-.5l-4-3.6a.67.67,0,0,1,0-1l.2-.2,4.9-1.5a.78.78,0,0,0,.4-.4l1.7-5.6a.56.56,0,0,1,.6-.5c.2,0,.4.1.4.3l2.8,5a.54.54,0,0,0,.4.3l5.1.2a.62.62,0,0,1,.5.8c0,.1,0,.1-.1.2l-3.2,4.6a.66.66,0,0,0-.1.6l1.4,5.7c.1.5-.3,1-.7.8l-4.7-2.1c-.2-.1-.4-.1-.5.1l-4.2,3.4A.68.68,0,0,1,1031.8,851.7Z" transform="translate(-16.86 -6.31)"/><path class="cls-55" d="M839.94,886.84l-3.57-3.57a.6.6,0,0,0-.5-.14l-4.57,1.43a.53.53,0,0,1-.57-.79l1.78-5.14a.52.52,0,0,0-.07-.57l-2.57-4.65a.63.63,0,0,1,.5-.93l4.72.43a.5.5,0,0,0,.42-.21l3-4.29a.48.48,0,0,1,.65-.14.39.39,0,0,1,.21.36l1.07,5.35a.48.48,0,0,0,.29.43l4.43,2a.6.6,0,0,1,.21.86c-.07.07-.07.14-.14.21l-4,2.86a.67.67,0,0,0-.22.5l-.28,5.5C840.73,886.91,840.23,887.2,839.94,886.84Z" transform="translate(-16.86 -6.31)"/><path class="cls-56" d="M206.55,886.84,203,883.27a.6.6,0,0,0-.5-.14l-4.57,1.43c-.43.14-.78-.36-.57-.79l1.79-5.14a.54.54,0,0,0-.08-.57l-2.57-4.65a.63.63,0,0,1,.5-.93l4.72.43a.53.53,0,0,0,.43-.21l3-4.29a.47.47,0,0,1,.64-.14.39.39,0,0,1,.21.36l1.07,5.35a.48.48,0,0,0,.29.43l4.43,2a.59.59,0,0,1,.21.86c-.07.07-.07.14-.14.21l-4,2.86a.66.66,0,0,0-.21.5l-.29,5.5C207.34,886.91,206.84,887.2,206.55,886.84Z" transform="translate(-16.86 -6.31)"/><path class="cls-57" d="M765,816.6l.3-5.9a.76.76,0,0,0-.2-.5l-4-3.6a.67.67,0,0,1,0-1l.2-.2,4.9-1.5a.78.78,0,0,0,.4-.4l1.7-5.6a.56.56,0,0,1,.6-.5c.2,0,.4.1.4.3l2.8,5a.54.54,0,0,0,.4.3l5.1.2a.62.62,0,0,1,.5.8c0,.1-.1.2-.1.3l-3.2,4.6a.66.66,0,0,0-.1.6l1.4,5.7c.1.5-.3,1-.7.8l-4.7-2.1c-.2-.1-.4-.1-.5.1l-4.2,3.4A.8.8,0,0,1,765,816.6Z" transform="translate(-16.86 -6.31)"/><path class="cls-58" d="M1305.7,816.6l.3-5.9a.76.76,0,0,0-.2-.5l-4-3.6a.67.67,0,0,1,0-1l.2-.2,4.9-1.5a.78.78,0,0,0,.4-.4l1.7-5.6a.56.56,0,0,1,.6-.5c.2,0,.4.1.4.3l2.8,5a.54.54,0,0,0,.4.3l5.1.2a.62.62,0,0,1,.5.8c0,.1-.1.2-.1.3l-3.2,4.6a.66.66,0,0,0-.1.6l1.4,5.7c.1.5-.3,1-.7.8l-4.7-2.1c-.2-.1-.4-.1-.5.1l-4.2,3.4A.8.8,0,0,1,1305.7,816.6Z" transform="translate(-16.86 -6.31)"/><path class="cls-59" d="M836.27,554.77l.3-5.9a.76.76,0,0,0-.2-.5l-4-3.6a.67.67,0,0,1,0-1l.2-.2,4.9-1.5a.78.78,0,0,0,.4-.4l1.7-5.6a.56.56,0,0,1,.6-.5c.2,0,.4.1.4.3l2.8,5a.54.54,0,0,0,.4.3l5.1.2a.62.62,0,0,1,.5.8c0,.1-.1.2-.1.3l-3.2,4.6a.66.66,0,0,0-.1.6l1.4,5.7c.1.5-.3,1-.7.8l-4.7-2.1c-.2-.1-.4-.1-.5.1l-4.2,3.4A.8.8,0,0,1,836.27,554.77Z" transform="translate(-16.86 -6.31)"/><path class="cls-60" d="M1147.5,841.5l-5.1-.1a.55.55,0,0,0-.5.3l-2.9,4.9a.52.52,0,0,1-.7.3.55.55,0,0,1-.3-.5l-1.5-5.7c0-.2-.2-.3-.4-.4l-4.8-1.8a.69.69,0,0,1-.3-.9.22.22,0,0,1,.2-.2l4.2-3.4c.2-.1.2-.3.2-.5v-6c0-.5.5-.9.9-.5l4,3.6a.44.44,0,0,0,.5.1l4.8-1.9c.4-.2.8.3.7.8l-1.6,5.6a.66.66,0,0,0,.1.6l3,4.8a.74.74,0,0,1-.1.9Z" transform="translate(-16.86 -6.31)"/><path class="cls-61" d="M1226.8,882l-4.4-6.8a.84.84,0,0,0-.7-.4l-7.3.3a.89.89,0,0,1-.8-1,.52.52,0,0,1,.2-.4l4.2-7a1.41,1.41,0,0,0,.1-.9l-2.5-8c-.2-.7.3-1.4,1-1.2l6.9,2.5a.62.62,0,0,0,.7-.2l5.7-5.3c.5-.5,1.3-.1,1.3.7l.1,8.5a.91.91,0,0,0,.4.8l6,4.7a1,1,0,0,1,.1,1.4c-.1.1-.2.2-.3.2l-6.9,2.7c-.3.1-.4.3-.5.6l-2,8.2a.77.77,0,0,1-.8.7C1227.1,882.3,1226.9,882.2,1226.8,882Z" transform="translate(-16.86 -6.31)"/><path class="cls-62" d="M927.5,803.5l3-4.8a1.27,1.27,0,0,0,.1-.6l-1.6-5.6c-.2-.5.3-1,.7-.8l4.8,1.9a.44.44,0,0,0,.5-.1l4.1-3.6a.56.56,0,0,1,.9.5l-.1,5.9a.76.76,0,0,0,.2.5l4.2,3.4a.67.67,0,0,1,0,1l-.2.2-4.9,1.8a.78.78,0,0,0-.4.4l-1.5,5.7a.54.54,0,0,1-.5.5.55.55,0,0,1-.5-.3l-2.9-4.9a.55.55,0,0,0-.5-.3l-5.1.1a.62.62,0,0,1-.5-.8C927.4,803.7,927.4,803.6,927.5,803.5Z" transform="translate(-16.86 -6.31)"/></g><g class="cls-1"><path class="cls-63" d="M257.87,773.2l.3-5.9a1.42,1.42,0,0,0-.2-.6l-4-3.6a.67.67,0,0,1,0-1l.2-.2,4.9-1.5a.78.78,0,0,0,.4-.4l1.7-5.6a.56.56,0,0,1,.6-.5c.2,0,.4.1.4.3l2.8,5a.55.55,0,0,0,.5.3l5.1.2a.62.62,0,0,1,.5.8c0,.1,0,.1-.1.2l-3.2,4.6a1.27,1.27,0,0,0-.1.6l1.4,5.7c.1.5-.3,1-.7.8l-4.7-2.1a.44.44,0,0,0-.5.1l-4.2,3.4C258.37,774.1,257.87,773.8,257.87,773.2Z" transform="translate(-16.86 -6.31)"/><path class="cls-64" d="M53.7,826.6l.3-5.9a1.42,1.42,0,0,0-.2-.6l-4-3.6a.67.67,0,0,1,0-1l.2-.2,4.9-1.5a.78.78,0,0,0,.4-.4l1.7-5.6a.56.56,0,0,1,.6-.5c.2,0,.4.1.4.3l2.8,5a.55.55,0,0,0,.5.3l5.1.2a.62.62,0,0,1,.5.8c0,.1,0,.1-.1.2l-3.2,4.6a1.27,1.27,0,0,0-.1.6l1.4,5.7c.1.5-.3,1-.7.8l-4.7-2.1a.44.44,0,0,0-.5.1l-4.2,3.4C54.2,827.5,53.7,827.2,53.7,826.6Z" transform="translate(-16.86 -6.31)"/><path class="cls-65" d="M145,574.71l.3-5.9a1.42,1.42,0,0,0-.2-.6l-4-3.6a.67.67,0,0,1,0-1l.2-.2,4.9-1.5a.78.78,0,0,0,.4-.4l1.7-5.6a.56.56,0,0,1,.6-.5c.2,0,.4.1.4.3l2.8,5a.55.55,0,0,0,.5.3l5.1.2a.62.62,0,0,1,.5.8c0,.1,0,.1-.1.2l-3.2,4.6a1.27,1.27,0,0,0-.1.6l1.4,5.7c.1.5-.3,1-.7.8l-4.7-2.1a.44.44,0,0,0-.5.1l-4.2,3.4C145.46,575.61,145,575.31,145,574.71Z" transform="translate(-16.86 -6.31)"/><path class="cls-66" d="M545.5,830.6l-5.1-.1a.55.55,0,0,0-.5.3l-2.9,4.9a.52.52,0,0,1-.7.3.55.55,0,0,1-.3-.5l-1.5-5.7a.43.43,0,0,0-.4-.4l-4.8-1.8a.69.69,0,0,1-.3-.9.22.22,0,0,1,.2-.2l4.2-3.4c.2-.1.2-.3.2-.5l-.1-6a.56.56,0,0,1,.9-.5l4.1,3.6a.44.44,0,0,0,.5.1l4.8-1.9c.4-.2.8.3.7.8l-1.7,5.6a.66.66,0,0,0,.1.6l3,4.8a.65.65,0,0,1-.2.9C545.7,830.5,545.6,830.5,545.5,830.6Z" transform="translate(-16.86 -6.31)"/><path class="cls-67" d="M641.8,814.1l-4.4-6.8a.84.84,0,0,0-.7-.4l-7.3.3a.89.89,0,0,1-.8-1,.52.52,0,0,1,.2-.4l4.2-7a1,1,0,0,0,.1-.9l-2.5-8c-.2-.7.3-1.4,1-1.2l6.9,2.5a.62.62,0,0,0,.7-.2l5.7-5.3c.5-.5,1.3-.1,1.3.7l.1,8.5a.91.91,0,0,0,.4.8l6,4.7a1,1,0,0,1,.1,1.4c-.1.1-.2.2-.3.2l-6.9,2.8c-.3.1-.4.3-.5.6l-2,8.2a.77.77,0,0,1-.8.7A.37.37,0,0,1,641.8,814.1Z" transform="translate(-16.86 -6.31)"/><path class="cls-68" d="M342.23,724.1l3-4.8a1.27,1.27,0,0,0,.1-.6l-1.6-5.6c-.2-.5.3-1,.7-.8l4.8,1.9a.44.44,0,0,0,.5-.1l4.1-3.6a.56.56,0,0,1,.9.5l-.1,6a.76.76,0,0,0,.2.5l4.1,3.5a.67.67,0,0,1,0,1l-.2.2-4.9,1.8a.78.78,0,0,0-.4.4l-1.5,5.7a.54.54,0,0,1-.5.5.55.55,0,0,1-.5-.3l-2.9-4.9a.55.55,0,0,0-.5-.3l-5.1.1a.62.62,0,0,1-.5-.8Q342.23,724.25,342.23,724.1Z" transform="translate(-16.86 -6.31)"/></g><path class="cls-69" d="M612.5,646.76l-.9,5.8a1.27,1.27,0,0,0,.1.6l3.6,4.2a.63.63,0,0,1-.1.9.37.37,0,0,1-.3.1l-5,.8c-.2,0-.3.2-.4.3l-2.3,5.3c-.1.3-.3.5-.6.4a.43.43,0,0,1-.4-.4l-2.2-5.4a.78.78,0,0,0-.4-.4l-5-1a.72.72,0,0,1-.5-.9c0-.1.1-.2.2-.3l3.7-4a1.42,1.42,0,0,0,.2-.6l-.8-5.9a.6.6,0,0,1,.8-.7l4.4,2.8a.45.45,0,0,0,.5,0l4.5-2.7C612.1,645.86,612.6,646.26,612.5,646.76Z" transform="translate(-16.86 -6.31)"/><path class="cls-70" d="M1117.3,575.2l3.6,4.2a.76.76,0,0,0,.5.2l5-1.2c.4-.1.8.4.6.9l-2.2,5.3a.64.64,0,0,0,0,.6l2.5,5.2a.69.69,0,0,1-.5,1l-5-.9a.76.76,0,0,0-.5.2l-3.4,4.4a.49.49,0,0,1-.7.1.52.52,0,0,1-.2-.4l-.9-5.8a.55.55,0,0,0-.3-.5l-4.6-2.5a.75.75,0,0,1-.2-1l.2-.2,4.5-2.8a.55.55,0,0,0,.3-.5l.6-5.9a.63.63,0,0,1,.5-.6C1117.1,575.1,1117.2,575.1,1117.3,575.2Z" transform="translate(-16.86 -6.31)"/><path class="cls-71" d="M714.6,687.2l5,.9c.2,0,.4,0,.5-.2l3.5-4.3a.49.49,0,0,1,.7-.1.76.76,0,0,1,.2.4l.8,5.9a.55.55,0,0,0,.3.5l4.6,2.5a.78.78,0,0,1,.2,1l-.2.2-4.5,2.7a.55.55,0,0,0-.3.5l-.6,5.9a.63.63,0,0,1-.5.6.52.52,0,0,1-.4-.2l-3.6-4.2a.76.76,0,0,0-.5-.2l-5,1.1c-.5.1-.8-.4-.6-.9l2.3-5.3a.64.64,0,0,0,0-.6l-2.4-5.2C713.8,687.7,714.1,687.1,714.6,687.2Z" transform="translate(-16.86 -6.31)"/><path class="cls-72" d="M875.9,653.6l-3.6,4.2a.66.66,0,0,0-.1.6l1,5.8a.6.6,0,0,1-.8.7l-4.5-2.7a.45.45,0,0,0-.5,0l-4.4,2.9c-.4.3-.9-.1-.8-.7l.8-5.9a.73.73,0,0,0-.2-.6l-3.7-4.1a.68.68,0,0,1,.1-1c.1-.1.1-.1.2-.1l5-1c.2,0,.3-.2.4-.4l2.2-5.4a.62.62,0,0,1,.6-.4c.2,0,.3.2.4.4l2.3,5.3c.1.2.2.3.4.3l5,.7a.62.62,0,0,1,.5.8C876,653.4,876,653.5,875.9,653.6Z" transform="translate(-16.86 -6.31)"/><path class="cls-73" d="M476.2,706.1l2.5,5.2c.1.2.2.3.4.3l5,.5a.66.66,0,0,1,.5.8c0,.1-.1.2-.1.3l-3.4,4.4a.66.66,0,0,0-.1.6l1.1,5.8c.1.5-.3,1-.8.7l-4.6-2.5a.45.45,0,0,0-.5,0l-4.3,3a.53.53,0,0,1-.8-.6l.6-5.9a.73.73,0,0,0-.2-.6l-3.8-3.9a.67.67,0,0,1,0-1c.1-.1.1-.1.2-.1l5-1.2a.78.78,0,0,0,.4-.4l2-5.5a.43.43,0,0,1,.7-.2C476.1,705.9,476.2,706,476.2,706.1Z" transform="translate(-16.86 -6.31)"/><path class="cls-74" d="M403.16,814.86l2.5,5.2c.1.2.2.3.4.3l5,.5a.62.62,0,0,1,.5.8c0,.1-.1.2-.1.3l-3.4,4.4a.66.66,0,0,0-.1.6l1.1,5.8c.1.5-.3,1-.8.7l-4.6-2.5a.45.45,0,0,0-.5,0l-4.3,3a.53.53,0,0,1-.8-.6l.6-5.9a.73.73,0,0,0-.2-.6l-3.8-3.9a.67.67,0,0,1,0-1c.1-.1.1-.1.2-.1l5-1.2a.78.78,0,0,0,.4-.4l2-5.5c.1-.3.3-.5.6-.4A.85.85,0,0,1,403.16,814.86Z" transform="translate(-16.86 -6.31)"/><path class="cls-75" d="M112.2,720.5l4.3-3.1a.55.55,0,0,0,.3-.5l.3-5.9c0-.5.6-.8.9-.5l3.8,3.9a.44.44,0,0,0,.5.1l4.9-1.5c.4-.1.8.4.7.9l-2,5.5a.64.64,0,0,0,0,.6l2.8,5a.65.65,0,0,1-.2.9.37.37,0,0,1-.3.1l-5-.5a.76.76,0,0,0-.5.2l-3.2,4.6a.44.44,0,0,1-.7.2.55.55,0,0,1-.3-.5l-1.2-5.8a.85.85,0,0,0-.3-.5l-4.7-2.1a.69.69,0,0,1-.3-.9C112.1,720.7,112.1,720.6,112.2,720.5Z" transform="translate(-16.86 -6.31)"/><path class="cls-76" d="M19.46,710.39l4.3-3.1a.55.55,0,0,0,.3-.5l.3-5.9c0-.5.6-.8.9-.5l3.8,3.9a.44.44,0,0,0,.5.1l4.9-1.5c.4-.1.8.4.7.9l-2,5.5a.64.64,0,0,0,0,.6l2.8,5a.65.65,0,0,1-.2.9.37.37,0,0,1-.3.1l-5-.5a.76.76,0,0,0-.5.2l-3.2,4.6a.44.44,0,0,1-.7.2.55.55,0,0,1-.3-.5l-1.2-5.8a.85.85,0,0,0-.3-.5l-4.7-2.1a.69.69,0,0,1-.3-.9C19.36,710.59,19.36,710.49,19.46,710.39Z" transform="translate(-16.86 -6.31)"/><path class="cls-77" d="M529.9,596.1l-.4,5.9a.76.76,0,0,0,.2.5l3.9,3.7a.67.67,0,0,1,0,1l-.2.2-4.9,1.4a.78.78,0,0,0-.4.4l-1.8,5.5a.44.44,0,0,1-.6.4c-.2,0-.3-.2-.4-.3l-2.6-5.1a.54.54,0,0,0-.4-.3l-5.1-.3a.62.62,0,0,1-.5-.8c0-.1.1-.2.1-.3l3.3-4.5a.66.66,0,0,0,.1-.6l-1.3-5.7c-.1-.5.3-1,.7-.8l4.7,2.3a.45.45,0,0,0,.5,0l4.2-3.3A.62.62,0,0,1,529.9,596.1Z" transform="translate(-16.86 -6.31)"/><path class="cls-78" d="M258.5,637.6l-.4,5.9a.76.76,0,0,0,.2.5l3.9,3.7a.67.67,0,0,1,0,1l-.2.2-4.9,1.4a.78.78,0,0,0-.4.4l-1.8,5.5a.44.44,0,0,1-.6.4c-.2,0-.3-.2-.4-.3l-2.6-5.1a.54.54,0,0,0-.4-.3l-5.1-.3a.62.62,0,0,1-.5-.8c0-.1.1-.2.1-.3l3.3-4.5a.66.66,0,0,0,.1-.6l-1.3-5.7c-.1-.5.3-1,.7-.8l4.7,2.3a.45.45,0,0,0,.5,0l4.2-3.3C258,636.7,258.5,637.1,258.5,637.6Z" transform="translate(-16.86 -6.31)"/><path class="cls-79" d="M1135.06,675.93l.3-5.9a.76.76,0,0,0-.2-.5l-4-3.6a.67.67,0,0,1,0-1l.2-.2,4.8-1.6a.78.78,0,0,0,.4-.4l1.7-5.6a.56.56,0,0,1,.6-.5c.2,0,.4.1.4.3l2.8,5a.54.54,0,0,0,.4.3l5.1.2a.62.62,0,0,1,.5.8c0,.1-.1.2-.1.3l-3.2,4.6a.66.66,0,0,0-.1.6l1.4,5.7c.1.5-.3,1-.7.8l-4.7-2.1a.44.44,0,0,0-.5.1l-4.2,3.4A.64.64,0,0,1,1135.06,675.93Z" transform="translate(-16.86 -6.31)"/><path class="cls-80" d="M1007.9,722.9l.3-5.9a.76.76,0,0,0-.2-.5l-4-3.6a.67.67,0,0,1,0-1l.2-.2,4.9-1.5a.78.78,0,0,0,.4-.4l1.7-5.6a.56.56,0,0,1,.6-.5c.2,0,.4.1.4.3l2.8,5a.54.54,0,0,0,.4.3l5,.1a.62.62,0,0,1,.5.8c0,.1-.1.2-.1.3l-3.2,4.6a1.27,1.27,0,0,0-.1.6l1.4,5.7c.1.5-.3,1-.7.8l-4.7-2.1a.44.44,0,0,0-.5.1l-4.2,3.4C1008.4,723.8,1007.9,723.4,1007.9,722.9Z" transform="translate(-16.86 -6.31)"/><path class="cls-81" d="M1206.1,735.8l-5.1-.1a.55.55,0,0,0-.5.3l-2.9,4.8a.44.44,0,0,1-.7.2c-.2-.1-.3-.2-.3-.4l-1.5-5.7a.43.43,0,0,0-.4-.4l-4.8-1.8a.69.69,0,0,1-.3-.9.22.22,0,0,1,.2-.2l4.1-3.4c.2-.1.2-.3.2-.5v-5.9a.56.56,0,0,1,.9-.5l4,3.6a.44.44,0,0,0,.5.1l4.8-1.9c.4-.2.8.3.7.8l-1.6,5.6a.66.66,0,0,0,.1.6l3,4.8a.74.74,0,0,1-.1.9A.19.19,0,0,0,1206.1,735.8Z" transform="translate(-16.86 -6.31)"/></svg>