<svg id="Layer_1" data-name="Layer 1" xmlns="http://www.w3.org/2000/svg" xmlns:xlink="http://www.w3.org/1999/xlink" viewBox="0 0 1353 1080"><defs><style>.cls-1,.cls-68,.cls-69,.cls-70,.cls-71,.cls-72,.cls-73,.cls-74,.cls-75,.cls-76,.cls-77,.cls-78,.cls-79{opacity:0.4;}.cls-2{fill:url(#linear-gradient);}.cls-3{fill:url(#linear-gradient-2);}.cls-4{fill:url(#linear-gradient-3);}.cls-5{fill:url(#linear-gradient-4);}.cls-6{fill:url(#linear-gradient-5);}.cls-7{fill:url(#linear-gradient-6);}.cls-8{fill:url(#linear-gradient-7);}.cls-9{fill:url(#linear-gradient-8);}.cls-10{fill:url(#linear-gradient-9);}.cls-11{fill:url(#linear-gradient-10);}.cls-12{fill:url(#linear-gradient-11);}.cls-13{fill:url(#linear-gradient-12);}.cls-14{fill:url(#linear-gradient-13);}.cls-15{fill:url(#linear-gradient-14);}.cls-16{fill:url(#linear-gradient-15);}.cls-17{fill:url(#linear-gradient-16);}.cls-18{fill:url(#linear-gradient-17);}.cls-19{fill:url(#linear-gradient-18);}.cls-20{fill:url(#linear-gradient-19);}.cls-21{fill:url(#linear-gradient-20);}.cls-22{fill:url(#linear-gradient-21);}.cls-23{fill:url(#linear-gradient-22);}.cls-24{fill:url(#linear-gradient-23);}.cls-25{fill:url(#linear-gradient-24);}.cls-26{fill:url(#linear-gradient-25);}.cls-27{fill:url(#linear-gradient-26);}.cls-28{fill:url(#linear-gradient-27);}.cls-29{fill:url(#linear-gradient-28);}.cls-30{fill:url(#linear-gradient-29);}.cls-31{fill:url(#linear-gradient-30);}.cls-32{fill:url(#linear-gradient-31);}.cls-33{fill:url(#linear-gradient-32);}.cls-34{fill:url(#linear-gradient-33);}.cls-35{fill:url(#linear-gradient-34);}.cls-36{fill:url(#linear-gradient-35);}.cls-37{fill:url(#linear-gradient-36);}.cls-38{fill:url(#linear-gradient-37);}.cls-39{fill:url(#linear-gradient-38);}.cls-40{fill:url(#linear-gradient-39);}.cls-41{fill:url(#linear-gradient-40);}.cls-42{fill:url(#linear-gradient-41);}.cls-43{fill:url(#linear-gradient-42);}.cls-44{fill:url(#linear-gradient-43);}.cls-45{fill:url(#linear-gradient-44);}.cls-46{fill:url(#linear-gradient-45);}.cls-47{fill:url(#linear-gradient-46);}.cls-48{fill:url(#linear-gradient-47);}.cls-49{fill:url(#linear-gradient-48);}.cls-50{fill:url(#linear-gradient-49);}.cls-51{fill:url(#linear-gradient-50);}.cls-52{fill:url(#linear-gradient-51);}.cls-53{fill:url(#linear-gradient-52);}.cls-54{fill:url(#linear-gradient-53);}.cls-55{fill:url(#linear-gradient-54);}.cls-56{fill:url(#linear-gradient-55);}.cls-57{fill:url(#linear-gradient-56);}.cls-58{fill:url(#linear-gradient-57);}.cls-59{fill:url(#linear-gradient-58);}.cls-60{fill:url(#linear-gradient-59);}.cls-61{fill:url(#linear-gradient-60);}.cls-62{fill:url(#linear-gradient-61);}.cls-63{fill:url(#linear-gradient-62);}.cls-64{fill:url(#linear-gradient-63);}.cls-65{fill:url(#linear-gradient-64);}.cls-66{fill:url(#linear-gradient-65);}.cls-67{fill:url(#linear-gradient-66);}.cls-68{fill:url(#linear-gradient-67);}.cls-69{fill:url(#linear-gradient-68);}.cls-70{fill:url(#linear-gradient-69);}.cls-71{fill:url(#linear-gradient-70);}.cls-72{fill:url(#linear-gradient-71);}.cls-73{fill:url(#linear-gradient-72);}.cls-74{fill:url(#linear-gradient-73);}.cls-75{fill:url(#linear-gradient-74);}.cls-76{fill:url(#linear-gradient-75);}.cls-77{fill:url(#linear-gradient-76);}.cls-78{fill:url(#linear-gradient-77);}.cls-79{fill:url(#linear-gradient-78);}</style><linearGradient id="linear-gradient" x1="494.44" y1="349.44" x2="-647.78" y2="349.44" gradientUnits="userSpaceOnUse"><stop offset="0" stop-color="#2affe4" stop-opacity="0.6"/><stop offset="1" stop-color="#94fdff" stop-opacity="0.2"/></linearGradient><linearGradient id="linear-gradient-2" x1="636.87" y1="330.98" x2="-525.5" y2="330.98" xlink:href="#linear-gradient"/><linearGradient id="linear-gradient-3" x1="647.2" y1="419.26" x2="-519.1" y2="419.26" xlink:href="#linear-gradient"/><linearGradient id="linear-gradient-4" x1="794.82" y1="438.36" x2="-401.71" y2="438.36" xlink:href="#linear-gradient"/><linearGradient id="linear-gradient-5" x1="787.11" y1="365.26" x2="-345.88" y2="365.26" xlink:href="#linear-gradient"/><linearGradient id="linear-gradient-6" x1="971.49" y1="367.29" x2="-226.8" y2="367.29" xlink:href="#linear-gradient"/><linearGradient id="linear-gradient-7" x1="924.8" y1="425.42" x2="-265.86" y2="425.42" xlink:href="#linear-gradient"/><linearGradient id="linear-gradient-8" x1="496.34" y1="426.2" x2="-703.3" y2="426.2" xlink:href="#linear-gradient"/><linearGradient id="linear-gradient-9" x1="644" y1="513.67" x2="-537.15" y2="513.67" xlink:href="#linear-gradient"/><linearGradient id="linear-gradient-10" x1="783.46" y1="508.62" x2="-424.65" y2="508.62" xlink:href="#linear-gradient"/><linearGradient id="linear-gradient-11" x1="889.36" y1="509.98" x2="-219.6" y2="509.98" xlink:href="#linear-gradient"/><linearGradient id="linear-gradient-12" x1="1070.84" y1="492.06" x2="-117.6" y2="492.06" xlink:href="#linear-gradient"/><linearGradient id="linear-gradient-13" x1="457.64" y1="107.18" x2="-697.78" y2="107.18" xlink:href="#linear-gradient"/><linearGradient id="linear-gradient-14" x1="258.35" y1="53.72" x2="-915.16" y2="53.72" xlink:href="#linear-gradient"/><linearGradient id="linear-gradient-15" x1="149.03" y1="96.22" x2="-991.32" y2="96.22" xlink:href="#linear-gradient"/><linearGradient id="linear-gradient-16" x1="702.12" y1="81.63" x2="-414.96" y2="81.63" xlink:href="#linear-gradient"/><linearGradient id="linear-gradient-17" x1="750.81" y1="-598.33" x2="-310.67" y2="-163.68" gradientTransform="translate(-25.79 470.16) rotate(22.27)" xlink:href="#linear-gradient"/><linearGradient id="linear-gradient-18" x1="888.43" y1="570.04" x2="-292.72" y2="570.04" xlink:href="#linear-gradient"/><linearGradient id="linear-gradient-19" x1="665.42" y1="576.32" x2="-520.57" y2="576.32" xlink:href="#linear-gradient"/><linearGradient id="linear-gradient-20" x1="869.45" y1="658.17" x2="-311.7" y2="658.17" xlink:href="#linear-gradient"/><linearGradient id="linear-gradient-21" x1="1016.15" y1="619.35" x2="-114.7" y2="619.35" xlink:href="#linear-gradient"/><linearGradient id="linear-gradient-22" x1="1039.71" y1="567.19" x2="-72.06" y2="567.19" xlink:href="#linear-gradient"/><linearGradient id="linear-gradient-23" x1="759.39" y1="563.2" x2="-442.54" y2="563.2" xlink:href="#linear-gradient"/><linearGradient id="linear-gradient-24" x1="1177.31" y1="693.15" x2="-3.84" y2="693.15" xlink:href="#linear-gradient"/><linearGradient id="linear-gradient-25" x1="752.14" y1="663.78" x2="-397.66" y2="663.78" xlink:href="#linear-gradient"/><linearGradient id="linear-gradient-26" x1="1142.57" y1="610.79" x2="-12.06" y2="610.79" xlink:href="#linear-gradient"/><linearGradient id="linear-gradient-27" x1="638.05" y1="632.69" x2="-516.58" y2="632.69" xlink:href="#linear-gradient"/><linearGradient id="linear-gradient-28" x1="1002.98" y1="700.56" x2="-163.46" y2="700.56" xlink:href="#linear-gradient"/><linearGradient id="linear-gradient-29" x1="835.11" y1="261.25" x2="-327.25" y2="261.25" xlink:href="#linear-gradient"/><linearGradient id="linear-gradient-30" x1="324.8" y1="224.99" x2="-784.27" y2="224.99" xlink:href="#linear-gradient"/><linearGradient id="linear-gradient-31" x1="-45.76" y1="-1136.44" x2="-898.07" y2="-463.65" gradientTransform="translate(-223.34 1122.42) rotate(38.29)" xlink:href="#linear-gradient"/><linearGradient id="linear-gradient-32" x1="675.44" y1="204.97" x2="-526.64" y2="204.97" xlink:href="#linear-gradient"/><linearGradient id="linear-gradient-33" x1="315.59" y1="335.23" x2="-816.47" y2="335.23" xlink:href="#linear-gradient"/><linearGradient id="linear-gradient-34" x1="516.32" y1="502.53" x2="-659.83" y2="502.53" xlink:href="#linear-gradient"/><linearGradient id="linear-gradient-35" x1="1068.6" y1="327.53" x2="-73.62" y2="327.53" xlink:href="#linear-gradient"/><linearGradient id="linear-gradient-36" x1="1271.98" y1="341.93" x2="109.62" y2="341.93" xlink:href="#linear-gradient"/><linearGradient id="linear-gradient-37" x1="1282.44" y1="430.21" x2="116.14" y2="430.21" xlink:href="#linear-gradient"/><linearGradient id="linear-gradient-38" x1="1430.96" y1="449.31" x2="234.44" y2="449.31" xlink:href="#linear-gradient"/><linearGradient id="linear-gradient-39" x1="1421.34" y1="376.21" x2="288.35" y2="376.21" xlink:href="#linear-gradient"/><linearGradient id="linear-gradient-40" x1="1607.69" y1="378.24" x2="409.4" y2="378.24" xlink:href="#linear-gradient"/><linearGradient id="linear-gradient-41" x1="1560.77" y1="436.38" x2="370.1" y2="436.38" xlink:href="#linear-gradient"/><linearGradient id="linear-gradient-42" x1="1156.21" y1="437.91" x2="-33.13" y2="437.91" xlink:href="#linear-gradient"/><linearGradient id="linear-gradient-43" x1="1279.68" y1="524.62" x2="98.53" y2="524.62" xlink:href="#linear-gradient"/><linearGradient id="linear-gradient-44" x1="1419.96" y1="519.57" x2="211.84" y2="519.57" xlink:href="#linear-gradient"/><linearGradient id="linear-gradient-45" x1="1522.86" y1="520.93" x2="413.9" y2="520.93" xlink:href="#linear-gradient"/><linearGradient id="linear-gradient-46" x1="1696.55" y1="532.88" x2="508.11" y2="532.88" xlink:href="#linear-gradient"/><linearGradient id="linear-gradient-47" x1="1106.97" y1="74.65" x2="-48.44" y2="74.65" xlink:href="#linear-gradient"/><linearGradient id="linear-gradient-48" x1="908.24" y1="65.66" x2="-265.28" y2="65.66" xlink:href="#linear-gradient"/><linearGradient id="linear-gradient-49" x1="1292.16" y1="107.59" x2="175.09" y2="107.59" xlink:href="#linear-gradient"/><linearGradient id="linear-gradient-50" x1="1517.74" y1="226.72" x2="324.39" y2="226.72" xlink:href="#linear-gradient"/><linearGradient id="linear-gradient-51" x1="1524.11" y1="580.99" x2="342.97" y2="580.99" xlink:href="#linear-gradient"/><linearGradient id="linear-gradient-52" x1="1301.25" y1="587.27" x2="115.26" y2="587.27" xlink:href="#linear-gradient"/><linearGradient id="linear-gradient-53" x1="1472.24" y1="631.28" x2="291.09" y2="631.28" xlink:href="#linear-gradient"/><linearGradient id="linear-gradient-54" x1="1650.32" y1="630.3" x2="519.47" y2="630.3" xlink:href="#linear-gradient"/><linearGradient id="linear-gradient-55" x1="1673.3" y1="578.14" x2="561.53" y2="578.14" xlink:href="#linear-gradient"/><linearGradient id="linear-gradient-56" x1="1395.7" y1="574.16" x2="193.77" y2="574.16" xlink:href="#linear-gradient"/><linearGradient id="linear-gradient-57" x1="1780.64" y1="683.19" x2="599.49" y2="683.19" xlink:href="#linear-gradient"/><linearGradient id="linear-gradient-58" x1="1386.88" y1="674.74" x2="237.08" y2="674.74" xlink:href="#linear-gradient"/><linearGradient id="linear-gradient-59" x1="1777.45" y1="621.74" x2="622.82" y2="621.74" xlink:href="#linear-gradient"/><linearGradient id="linear-gradient-60" x1="1303.47" y1="700.4" x2="148.84" y2="700.4" xlink:href="#linear-gradient"/><linearGradient id="linear-gradient-61" x1="1605.42" y1="683.22" x2="438.98" y2="683.22" xlink:href="#linear-gradient"/><linearGradient id="linear-gradient-62" x1="1441.32" y1="289.13" x2="278.95" y2="289.13" xlink:href="#linear-gradient"/><linearGradient id="linear-gradient-63" x1="1560.25" y1="89.63" x2="397.89" y2="89.63" xlink:href="#linear-gradient"/><linearGradient id="linear-gradient-64" x1="1090.27" y1="239.86" x2="-86.83" y2="239.86" xlink:href="#linear-gradient"/><linearGradient id="linear-gradient-65" x1="1280.35" y1="241.81" x2="78.26" y2="241.81" xlink:href="#linear-gradient"/><linearGradient id="linear-gradient-66" x1="1181.35" y1="551.27" x2="16.7" y2="551.27" xlink:href="#linear-gradient"/><linearGradient id="linear-gradient-67" x1="1320.11" y1="954.49" x2="127.47" y2="954.49" xlink:href="#linear-gradient"/><linearGradient id="linear-gradient-68" x1="958.25" y1="863.76" x2="-154.23" y2="863.76" xlink:href="#linear-gradient"/><linearGradient id="linear-gradient-69" x1="1329.81" y1="825.11" x2="219.52" y2="825.11" xlink:href="#linear-gradient"/><linearGradient id="linear-gradient-70" x1="1202.25" y1="822.38" x2="-1.95" y2="822.38" xlink:href="#linear-gradient"/><linearGradient id="linear-gradient-71" x1="1580.08" y1="784.81" x2="373.1" y2="784.81" xlink:href="#linear-gradient"/><linearGradient id="linear-gradient-72" x1="1819.03" y1="1007.89" x2="612.06" y2="1007.89" xlink:href="#linear-gradient"/><linearGradient id="linear-gradient-73" x1="1657.64" y1="779.96" x2="526.44" y2="779.96" xlink:href="#linear-gradient"/><linearGradient id="linear-gradient-74" x1="1616.48" y1="895.17" x2="424.67" y2="895.17" xlink:href="#linear-gradient"/><linearGradient id="linear-gradient-75" x1="810.42" y1="863.27" x2="-370.73" y2="863.27" xlink:href="#linear-gradient"/><linearGradient id="linear-gradient-76" x1="1007.15" y1="786.74" x2="-173.99" y2="786.74" xlink:href="#linear-gradient"/><linearGradient id="linear-gradient-77" x1="781.14" y1="769.39" x2="-368.66" y2="769.39" xlink:href="#linear-gradient"/><linearGradient id="linear-gradient-78" x1="1070.87" y1="1058" x2="-95.57" y2="1058" xlink:href="#linear-gradient"/></defs><title>starbg2</title><g class="cls-1"><path class="cls-2" d="M220.2,313.13l11.68,17.12a1.94,1.94,0,0,0,1.73.89l18.65-1.59c1.67-.14,2.76,2,1.84,3.67l-10.27,18.33a2.68,2.68,0,0,0-.18,2.2l7,20.31c.64,1.82-.79,3.71-2.41,3.19l-18-5.79a1.8,1.8,0,0,0-1.84.47l-14.29,14.14c-1.28,1.27-3.25.26-3.33-1.7l-.87-21.91a2.48,2.48,0,0,0-1-1.91L193.08,349a2.57,2.57,0,0,1,.36-4.24L210.93,337a2.31,2.31,0,0,0,1.25-1.66l4.47-21.29C217.05,312.14,219.15,311.6,220.2,313.13Z"/><path class="cls-3" d="M384.3,296.27l-.1,22a2.54,2.54,0,0,0,.88,2l15.4,12.57a2.57,2.57,0,0,1-.54,4.23l-17.88,6.7a2.25,2.25,0,0,0-1.32,1.58l-5.43,21.07c-.49,1.89-2.62,2.3-3.6.7l-10.95-17.87a2,2,0,0,0-1.7-1l-18.75.45c-1.69,0-2.68-2.2-1.69-3.8l11.11-17.74A2.74,2.74,0,0,0,350,325l-6.16-20.79c-.56-1.87.95-3.67,2.55-3.05L364.22,308a1.81,1.81,0,0,0,1.87-.37L381,294.36C382.38,293.17,384.31,294.3,384.3,296.27Z"/><path class="cls-4" d="M318,392l-.22,17.32a2,2,0,0,0,.67,1.56l12,10a2,2,0,0,1-.45,3.33l-14.12,5.11a1.76,1.76,0,0,0-1.05,1.23l-4.42,16.53a1.51,1.51,0,0,1-2.83.52l-8.51-14.17a1.53,1.53,0,0,0-1.32-.79l-14.77.18c-1.33,0-2.1-1.76-1.3-3L290.53,416a2.15,2.15,0,0,0,.24-1.72l-4.72-16.42c-.42-1.48.78-2.88,2-2.38l14,5.6a1.41,1.41,0,0,0,1.47-.27l11.85-10.33C316.46,389.53,318,390.44,318,392Z"/><path class="cls-5" d="M406.94,412.46l13.58,6.82a1.37,1.37,0,0,0,1.48-.13l12.49-9.26c1.12-.83,2.57.21,2.45,1.76l-1.33,17.26a2,2,0,0,0,.57,1.61l11.36,11.07a2,2,0,0,1-.67,3.28l-14.4,3.84a1.68,1.68,0,0,0-1.13,1.14l-5.47,16.09a1.51,1.51,0,0,1-2.86.27l-7.57-14.88a1.58,1.58,0,0,0-1.27-.91l-14.74-1.13c-1.32-.1-2-1.94-1.1-3.11l9.73-13a2.14,2.14,0,0,0,.34-1.7l-3.64-16.79C404.43,413.14,405.72,411.85,406.94,412.46Z"/><path class="cls-6" d="M498.72,335.52l3.74,17.9a1.91,1.91,0,0,0,1.05,1.39l14.69,6.53a2.15,2.15,0,0,1,.29,3.56l-13.35,9.71a2.06,2.06,0,0,0-.81,1.6l-.75,18.41c-.07,1.65-1.73,2.49-2.8,1.42l-12-11.9a1.52,1.52,0,0,0-1.54-.4l-15.16,4.85c-1.36.43-2.56-1.15-2-2.68L476,368.85a2.29,2.29,0,0,0-.16-1.85l-8.61-15.41c-.77-1.39.15-3.21,1.55-3.09l15.67,1.36a1.61,1.61,0,0,0,1.45-.75l9.84-14.37C496.62,333.45,498.38,333.91,498.72,335.52Z"/><path class="cls-7" d="M653.57,330.75l8.81,20.93a2.22,2.22,0,0,0,1.62,1.38l19.7,3.35c1.77.3,2.47,2.85,1.19,4.32L670.65,377a2.81,2.81,0,0,0-.62,2.24l3.36,23c.31,2.06-1.54,3.64-3.13,2.66l-17.61-10.85a1.87,1.87,0,0,0-2,0L633,404.94c-1.58,1-3.43-.6-3.13-2.66l3.36-23a2.81,2.81,0,0,0-.62-2.24l-14.25-16.29c-1.28-1.46-.57-4,1.19-4.31l19.7-3.37a2.2,2.2,0,0,0,1.62-1.38l8.8-20.93A2,2,0,0,1,653.57,330.75Z"/><path class="cls-8" d="M562,398.14l6.21,15.72a1.68,1.68,0,0,0,1.19,1.06L584,417.83a2,2,0,0,1,.82,3.23L574,432.85a2.08,2.08,0,0,0-.49,1.65l2.14,17.14c.19,1.54-1.2,2.67-2.36,1.91l-12.91-8.43a1.41,1.41,0,0,0-1.49-.05l-13.23,7.69c-1.19.69-2.54-.52-2.28-2.05l2.85-17a2.09,2.09,0,0,0-.43-1.67l-10.32-12.39a2,2,0,0,1,.95-3.18l14.67-2.07a1.64,1.64,0,0,0,1.22-1l6.86-15.35A1.51,1.51,0,0,1,562,398.14Z"/><path class="cls-9" d="M133.1,398.37l13.1,8a1.38,1.38,0,0,0,1.49,0l13-8.13c1.18-.73,2.55.43,2.33,2l-2.43,17.09a2.11,2.11,0,0,0,.47,1.66l10.62,12a2,2,0,0,1-.87,3.2l-14.61,2.57a1.64,1.64,0,0,0-1.2,1l-6.48,15.57a1.51,1.51,0,0,1-2.87,0l-6.6-15.5a1.61,1.61,0,0,0-1.2-1l-14.63-2.42a2,2,0,0,1-.9-3.19l10.53-12.15a2.06,2.06,0,0,0,.45-1.67l-2.56-17.06C130.55,398.83,131.92,397.65,133.1,398.37Z"/><path class="cls-10" d="M229.84,493.78l-.57,12.74a1.48,1.48,0,0,0,.46,1.17l8.62,7.77a1.49,1.49,0,0,1-.41,2.44l-10.51,3.3a1.26,1.26,0,0,0-.8.87l-3.64,12a1.12,1.12,0,0,1-2.1.29L215,523.68a1.19,1.19,0,0,0-1-.63l-10.87-.34a1.42,1.42,0,0,1-.89-2.25l6.85-9.91a1.61,1.61,0,0,0,.21-1.27l-3.08-12.23c-.28-1.1.64-2.09,1.55-1.68l10.16,4.57a1,1,0,0,0,1.09-.15l9-7.22C228.8,491.92,229.89,492.64,229.84,493.78Z"/><path class="cls-11" d="M369.73,503.06l-8.25,10.45a1.72,1.72,0,0,0-.32,1.38l2.66,13.9c.24,1.25-.84,2.28-1.83,1.74l-11-6a1.15,1.15,0,0,0-1.22.08l-10.45,7.26c-.93.65-2.1-.24-2-1.51l1.44-14.14a1.74,1.74,0,0,0-.44-1.35l-9.12-9.4a1.65,1.65,0,0,1,.62-2.68l11.91-2.76a1.39,1.39,0,0,0,.95-.91l4.81-13.07a1.24,1.24,0,0,1,2.36-.14l5.92,12.43a1.31,1.31,0,0,0,1,.78l12.09,1.33A1.62,1.62,0,0,1,369.73,503.06Z"/><path class="cls-12" d="M499,522.28l-9.7-1.79a1,1,0,0,0-.94.37l-6.76,8.36a1,1,0,0,1-1.82-.66l-1.55-11.38a1.2,1.2,0,0,0-.59-.93l-8.87-5a1.35,1.35,0,0,1,0-2.24l8.75-5.24a1.28,1.28,0,0,0,.57-.95l1.28-11.42c.11-1,1.18-1.46,1.81-.73l6.95,8.15a1,1,0,0,0,.94.34l9.66-2.1c.87-.19,1.55.87,1.15,1.79l-4.46,10.27a1.45,1.45,0,0,0,0,1.17l4.69,10.12C500.57,521.36,499.92,522.44,499,522.28Z"/><path class="cls-13" d="M645.22,515.33l-6.49-12.22a1.31,1.31,0,0,0-1.07-.73l-12.26-.65a1.61,1.61,0,0,1-1-2.56l7.9-11a1.76,1.76,0,0,0,.26-1.42l-3.26-13.88c-.3-1.24.76-2.34,1.78-1.86l11.37,5.41a1.15,1.15,0,0,0,1.23-.15L654,468.32c.92-.71,2.13.13,2.06,1.42l-.87,14.36a1.68,1.68,0,0,0,.5,1.32l9.59,9a1.67,1.67,0,0,1-.51,2.74l-11.91,3.47a1.41,1.41,0,0,0-.92,1l-4.31,13.48A1.26,1.26,0,0,1,645.22,515.33Z"/><path class="cls-14" d="M359.16,54.09l22.11,18.73a2.6,2.6,0,0,0,2.72.46l25.7-10.75c2.3-1,4.55,1.6,3.8,4.33l-8.35,30.46a3.92,3.92,0,0,0,.47,3.18l16.65,25.34c1.5,2.28.12,5.58-2.33,5.59l-27.28.09a2.85,2.85,0,0,0-2.43,1.5l-15.4,26.41c-1.39,2.38-4.49,1.86-5.25-.87l-8.5-30.41a3.26,3.26,0,0,0-2-2.24l-26.17-9c-2.35-.82-2.89-4.44-.91-6.13l22-18.88a3.68,3.68,0,0,0,1.21-2.9l-.77-32C354.4,54.13,357.17,52.41,359.16,54.09Z"/><path class="cls-15" d="M237.47,35.39,220.71,60.64a3.94,3.94,0,0,0-.48,3.17l8.23,30.51c.74,2.74-1.52,5.28-3.83,4.3L199,87.73a2.59,2.59,0,0,0-2.72.44l-22.19,18.61c-2,1.67-4.76-.07-4.67-2.94l.9-32a3.69,3.69,0,0,0-1.2-2.9L147.16,50c-2-1.71-1.42-5.32.94-6.12L174.3,35a3.23,3.23,0,0,0,2-2.23l8.63-30.36c.77-2.72,3.88-3.23,5.25-.85L205.46,28a2.87,2.87,0,0,0,2.43,1.53l27.27.24C237.61,29.81,239,33.12,237.47,35.39Z"/><path class="cls-16" d="M71.69,45.22l1.41,32A3.64,3.64,0,0,0,74.5,80L97.74,96.7c2.09,1.5,1.8,5.16-.49,6.19L71.78,114.34A3.31,3.31,0,0,0,70,116.76l-6.4,31.11c-.58,2.79-3.64,3.6-5.18,1.36L41.24,124.35a2.79,2.79,0,0,0-2.53-1.27l-27.19,2.47c-2.44.22-4-2.94-2.71-5.35L23.68,93.38a4,4,0,0,0,.26-3.22L13.53,60.59c-.93-2.66,1.13-5.42,3.5-4.68l26.34,8.3a2.63,2.63,0,0,0,2.69-.7L66.82,42.76C68.69,40.89,71.56,42.35,71.69,45.22Z"/><path class="cls-17" d="M561.1,77.29l24.83-13.24a3.43,3.43,0,0,0,1.69-2.55L592.39,30c.43-2.83,3.44-3.86,5.1-1.73L615.9,51.88A2.7,2.7,0,0,0,618.48,53l27-4.41c2.43-.39,4.19,2.65,3,5.15L635,81.54a4,4,0,0,0-.09,3.23l11.92,28.78c1.07,2.58-.85,5.49-3.25,4.91l-26.73-6.41a2.69,2.69,0,0,0-2.64.9l-19.65,22.2c-1.76,2-4.71.74-5-2.11l-3.06-31.8A3.56,3.56,0,0,0,585,98.57L560.93,83.51A3.76,3.76,0,0,1,561.1,77.29Z"/><path class="cls-18" d="M759.11,170.23l-12.39,28.51a4,4,0,0,0,0,3.22l13,28.14c1.17,2.52-.64,5.52-3.06,5.07l-26.94-5a2.71,2.71,0,0,0-2.61,1l-18.79,23.19c-1.69,2.08-4.68,1-5.06-1.85L699,220.94a3.47,3.47,0,0,0-1.65-2.59l-24.61-13.79a3.76,3.76,0,0,1-.07-6.22L697,183.82a3.51,3.51,0,0,0,1.59-2.64l3.58-31.72c.32-2.85,3.29-4,5-2l19.29,22.62a2.67,2.67,0,0,0,2.62,1l26.83-5.8C758.35,164.72,760.22,167.67,759.11,170.23Z"/><path class="cls-19" d="M415.1,554.52l-.45,9.94a1.16,1.16,0,0,0,.36.91l6.73,6.07a1.15,1.15,0,0,1-.33,1.89l-8.19,2.58a1,1,0,0,0-.63.68L409.75,586a.87.87,0,0,1-1.63.23l-4.62-8.35a.91.91,0,0,0-.75-.49l-8.48-.27a1.11,1.11,0,0,1-.69-1.76l5.34-7.73a1.25,1.25,0,0,0,.17-1l-2.41-9.55c-.21-.86.5-1.63,1.21-1.31l7.92,3.57a.82.82,0,0,0,.85-.12l7-5.63C414.29,553.07,415.14,553.63,415.1,554.52Z"/><path class="cls-20" d="M172.88,578.68l6.4-6.75a1.21,1.21,0,0,0,.3-1l-1.12-10c-.1-.9.73-1.54,1.4-1.09l7.45,5a.83.83,0,0,0,.87,0l7.77-4.34c.69-.39,1.47.33,1.31,1.21l-1.79,9.88a1.21,1.21,0,0,0,.24,1l5.92,7.33a1.14,1.14,0,0,1-.58,1.84l-8.56,1a1,1,0,0,0-.73.57l-4.11,8.87a.88.88,0,0,1-1.67-.08l-3.5-9.22a1,1,0,0,0-.68-.63l-8.46-1.85A1.16,1.16,0,0,1,172.88,578.68Z"/><path class="cls-21" d="M320.57,648.91l-.27,5.93a.69.69,0,0,0,.21.54l4,3.62a.69.69,0,0,1-.19,1.13l-4.89,1.54a.6.6,0,0,0-.38.41l-1.69,5.6a.52.52,0,0,1-1,.13l-2.76-5a.51.51,0,0,0-.44-.29l-5.07-.16a.66.66,0,0,1-.41-1l3.19-4.62a.75.75,0,0,0,.1-.59l-1.44-5.69c-.13-.51.3-1,.73-.79l4.72,2.13a.48.48,0,0,0,.51-.07l4.18-3.36C320.08,648,320.59,648.37,320.57,648.91Z"/><path class="cls-22" d="M507.75,606.44l5,5a.64.64,0,0,0,.65.17l6.36-2c.57-.18,1.07.49.84,1.13l-2.53,7.13a.94.94,0,0,0,.06.77l3.57,6.5c.32.58-.07,1.34-.66,1.28l-6.56-.62a.68.68,0,0,0-.62.31l-4.16,6a.68.68,0,0,1-1.24-.33l-1.53-7.52a.79.79,0,0,0-.43-.59l-6.14-2.79a.9.9,0,0,1-.12-1.49l5.63-4a.88.88,0,0,0,.34-.67l.36-7.72C506.61,606.33,507.3,606,507.75,606.44Z"/><path class="cls-23" d="M585.8,554.76l.83,7.66a.87.87,0,0,0,.38.64l5.86,3.54a.91.91,0,0,1,0,1.5l-6,3.3a.85.85,0,0,0-.4.62l-1.06,7.63a.69.69,0,0,1-1.23.43l-4.51-5.62a.67.67,0,0,0-.63-.26l-6.51,1.17c-.58.11-1-.62-.73-1.23l3.16-6.77a1,1,0,0,0,0-.78l-3-6.9c-.27-.62.18-1.33.77-1.2l6.47,1.44a.63.63,0,0,0,.63-.23l4.68-5.43C585,553.78,585.73,554.07,585.8,554.76Z"/><path class="cls-24" d="M282.25,550.84l3.29,6.68a.72.72,0,0,0,.57.42l6.56.6a.88.88,0,0,1,.48,1.4l-4.4,5.74a1,1,0,0,0-.17.76l1.54,7.51c.14.67-.44,1.24-1,1l-6-3.14a.61.61,0,0,0-.66.06l-5.62,4c-.5.36-1.14-.12-1.08-.81l.68-7.68a.93.93,0,0,0-.25-.72l-5-5a.89.89,0,0,1,.32-1.45l6.44-1.62a.75.75,0,0,0,.51-.5l2.52-7.14A.67.67,0,0,1,282.25,550.84Z"/><path class="cls-25" d="M586.47,683.89l-.27,5.93a.68.68,0,0,0,.21.54l4,3.62a.7.7,0,0,1-.19,1.14l-4.89,1.53a.6.6,0,0,0-.38.41l-1.69,5.6a.52.52,0,0,1-1,.13l-2.76-5a.51.51,0,0,0-.44-.29l-5.07-.16a.66.66,0,0,1-.41-1.05l3.19-4.62a.73.73,0,0,0,.1-.58l-1.44-5.7c-.13-.51.3-1,.73-.78l4.72,2.12a.48.48,0,0,0,.51-.07l4.18-3.36C586,683,586.49,683.35,586.47,683.89Z"/><path class="cls-26" d="M205.19,659.06l5.06.09a.51.51,0,0,0,.46-.27l2.94-4.84a.52.52,0,0,1,1,.19l1.48,5.68a.62.62,0,0,0,.36.42l4.83,1.79a.69.69,0,0,1,.15,1.14l-4.14,3.41a.64.64,0,0,0-.23.53l0,5.94c0,.54-.51.85-.88.52l-4-3.56a.49.49,0,0,0-.51-.1l-4.8,1.89c-.43.17-.84-.32-.69-.82l1.64-5.62a.72.72,0,0,0-.08-.59l-3-4.78A.65.65,0,0,1,205.19,659.06Z"/><path class="cls-27" d="M628,596.8l4.34,6.8a.73.73,0,0,0,.66.36l7.24-.34c.65,0,1,.83.67,1.45L636.75,612a1,1,0,0,0-.09.84l2.51,8c.23.71-.35,1.42-1,1.2l-6.92-2.51a.68.68,0,0,0-.71.16L624.89,625c-.51.47-1.27,0-1.27-.71l-.11-8.49a1,1,0,0,0-.35-.76l-6-4.71a1,1,0,0,1,.19-1.63l6.85-2.75a.87.87,0,0,0,.5-.62l2-8.18A.74.74,0,0,1,628,596.8Z"/><path class="cls-28" d="M126.18,618.71l4.34,6.79a.78.78,0,0,0,.66.37l7.24-.34a.93.93,0,0,1,.67,1.45l-4.17,6.94a1.05,1.05,0,0,0-.09.85l2.51,8c.23.72-.34,1.43-1,1.2l-6.92-2.5a.69.69,0,0,0-.72.16l-5.68,5.26c-.51.47-1.26.06-1.27-.71l-.11-8.49a1,1,0,0,0-.35-.75l-6-4.71a1,1,0,0,1,.18-1.64l6.85-2.74a.89.89,0,0,0,.5-.62l2-8.18A.74.74,0,0,1,126.18,618.71Z"/><path class="cls-29" d="M424.52,696.93l-3,4.75a.74.74,0,0,0-.08.6l1.61,5.63c.15.5-.27,1-.7.81l-4.79-1.92a.46.46,0,0,0-.5.09L413,710.43c-.36.32-.88,0-.87-.53l.07-5.93a.65.65,0,0,0-.23-.54L407.79,700a.7.7,0,0,1,.16-1.14l4.84-1.75a.59.59,0,0,0,.36-.42l1.52-5.67a.52.52,0,0,1,1-.18l2.92,4.86a.51.51,0,0,0,.45.27l5.06-.06A.66.66,0,0,1,424.52,696.93Z"/><path class="cls-30" d="M620.88,221.77l-.11,25a2.89,2.89,0,0,0,1,2.25l17.51,14.29c1.58,1.28,1.21,4.13-.61,4.81l-20.33,7.62a2.53,2.53,0,0,0-1.51,1.8l-6.17,24c-.56,2.15-3,2.62-4.1.8L594.11,282a2.24,2.24,0,0,0-1.93-1.13l-21.33.52c-1.92.05-3.05-2.51-1.92-4.32l12.63-20.18a3.09,3.09,0,0,0,.32-2.49l-7-23.65c-.63-2.12,1.09-4.17,2.91-3.46L598,235.14a2,2,0,0,0,2.13-.41l17-15.13C618.7,218.24,620.89,219.52,620.88,221.77Z"/><path class="cls-31" d="M135.39,175.44l17.46,21.47a2.5,2.5,0,0,0,2.41,1l25-4.7c2.24-.42,3.93,2.35,2.85,4.7l-12,26.11a3.71,3.71,0,0,0,0,3l11.53,26.4c1,2.37-.69,5.11-2.93,4.63l-24.88-5.33a2.5,2.5,0,0,0-2.43.9l-17.84,21c-1.61,1.88-4.36.8-4.66-1.84l-3.37-29.4A3.23,3.23,0,0,0,125,240.9l-22.55-13.41a3.49,3.49,0,0,1,0-5.77l22.79-12.84a3.18,3.18,0,0,0,1.52-2.4l3.91-29.31C131.05,174.53,133.82,173.52,135.39,175.44Z"/><path class="cls-32" d="M320.12,197.9l-18.44,16.92a3.18,3.18,0,0,0-1,2.52l1.42,27.4c.13,2.47-2.2,4-3.95,2.65l-19.41-15.34a2.22,2.22,0,0,0-2.34-.3l-21.78,10.07c-2,.9-3.95-1.22-3.37-3.59l6.44-26.4a3.38,3.38,0,0,0-.48-2.71l-14.89-21.18c-1.34-1.91-.23-4.78,1.87-4.87l23.39-1a2.47,2.47,0,0,0,2.05-1.37l12.57-23.16c1.13-2.08,3.81-1.73,4.53.58l8,25.8a2.75,2.75,0,0,0,1.75,1.86l22.66,6.87C321.23,193.29,321.78,196.38,320.12,197.9Z"/><path class="cls-33" d="M443.5,191.57l25-4.62a2.86,2.86,0,0,0,2-1.79l10.91-26.76a2.58,2.58,0,0,1,4.91-.07l11.47,26.43a2.79,2.79,0,0,0,2.08,1.73L525,190.4c2.25.35,3.19,3.57,1.58,5.46l-17.89,21a3.6,3.6,0,0,0-.76,2.86l4.58,29.17c.41,2.62-1.92,4.66-3.94,3.45L486,238.82a2.38,2.38,0,0,0-2.55,0L461.23,253c-2,1.27-4.37-.7-4-3.33l4-29.29a3.59,3.59,0,0,0-.81-2.84L442,197.08C440.39,195.24,441.26,192,443.5,191.57Z"/><path class="cls-34" d="M76.13,300.16,77.5,322a2.46,2.46,0,0,0,1,1.88L94.63,335a2.57,2.57,0,0,1-.26,4.25l-17.3,8.28a2.35,2.35,0,0,0-1.22,1.69l-4,21.43c-.36,1.92-2.44,2.53-3.53,1L56.27,354.91a1.93,1.93,0,0,0-1.75-.83l-18.6,2.17c-1.67.19-2.81-1.95-1.92-3.62L43.85,334a2.72,2.72,0,0,0,.13-2.2l-7.5-20.09c-.68-1.8.71-3.73,2.34-3.26L57,313.67a1.81,1.81,0,0,0,1.83-.53l14-14.58C74,297.25,76,298.2,76.13,300.16Z"/><path class="cls-35" d="M127,500l-8.32,8.23a1.52,1.52,0,0,0-.41,1.19l1.06,12.69c.1,1.15-1,1.92-1.79,1.31l-9.24-6.73a1,1,0,0,0-1.09-.09l-10,5.11c-.89.45-1.85-.49-1.62-1.6l2.61-12.39a1.6,1.6,0,0,0-.26-1.25L90.78,497a1.43,1.43,0,0,1,.79-2.29l10.85-.93a1.16,1.16,0,0,0,.93-.67l5.5-11a1.11,1.11,0,0,1,2.11.18l4.1,11.82a1.27,1.27,0,0,0,.84.83l10.62,2.73A1.47,1.47,0,0,1,127,500Z"/></g><g class="cls-1"><path class="cls-36" d="M788.89,291.23l11.69,17.12a1.88,1.88,0,0,0,1.72.88L821,307.64c1.67-.14,2.76,2,1.84,3.68l-10.27,18.32a2.74,2.74,0,0,0-.18,2.21l7,20.31c.63,1.82-.8,3.7-2.42,3.18l-18-5.79a1.79,1.79,0,0,0-1.84.48l-14.29,14.14c-1.28,1.27-3.25.26-3.33-1.71l-.87-21.9a2.47,2.47,0,0,0-1-1.91l-15.87-11.57a2.56,2.56,0,0,1,.35-4.24l17.49-7.75a2.3,2.3,0,0,0,1.25-1.65l4.47-21.29C785.75,290.23,787.84,289.69,788.89,291.23Z"/><path class="cls-37" d="M984.39,307.22l-.09,22a2.52,2.52,0,0,0,.87,2l15.41,12.57A2.57,2.57,0,0,1,1000,348l-17.88,6.7a2.26,2.26,0,0,0-1.33,1.58l-5.42,21.07c-.49,1.89-2.62,2.31-3.6.7l-11-17.87a1.93,1.93,0,0,0-1.69-1l-18.76.45c-1.68,0-2.68-2.2-1.68-3.79l11.11-17.75a2.74,2.74,0,0,0,.28-2.19l-6.17-20.79c-.55-1.87,1-3.67,2.56-3.05L964.32,319a1.79,1.79,0,0,0,1.86-.37l15-13.3C982.48,304.12,984.4,305.25,984.39,307.22Z"/><path class="cls-38" d="M918.05,403l-.22,17.32a2,2,0,0,0,.67,1.56l12,10a2,2,0,0,1-.46,3.32L916,440.3a1.77,1.77,0,0,0-1.06,1.23l-4.41,16.53a1.52,1.52,0,0,1-2.84.52l-8.5-14.16a1.52,1.52,0,0,0-1.32-.8l-14.77.18c-1.33,0-2.1-1.76-1.3-3l8.86-13.86a2.17,2.17,0,0,0,.23-1.73l-4.71-16.42c-.42-1.48.78-2.88,2-2.38l14,5.6a1.42,1.42,0,0,0,1.48-.27l11.85-10.33C916.56,400.48,918.07,401.39,918.05,403Z"/><path class="cls-39" d="M1007,423.41l13.58,6.83a1.4,1.4,0,0,0,1.48-.14l12.49-9.25c1.12-.84,2.57.2,2.45,1.75l-1.34,17.26a2.05,2.05,0,0,0,.58,1.61l11.36,11.07a2,2,0,0,1-.67,3.28l-14.41,3.84a1.72,1.72,0,0,0-1.13,1.14L1026,476.89a1.51,1.51,0,0,1-2.87.27l-7.56-14.88a1.6,1.6,0,0,0-1.27-.91l-14.74-1.13c-1.33-.1-2-1.94-1.1-3.11l9.72-13a2.11,2.11,0,0,0,.35-1.7l-3.64-16.79C1004.53,424.09,1005.82,422.8,1007,423.41Z"/><path class="cls-40" d="M1098.81,346.47l3.75,17.9a1.89,1.89,0,0,0,1,1.39l14.69,6.53a2.17,2.17,0,0,1,.29,3.57l-13.36,9.7a2.12,2.12,0,0,0-.8,1.6l-.76,18.41c-.06,1.65-1.72,2.5-2.8,1.43l-12-11.9a1.52,1.52,0,0,0-1.55-.41l-15.15,4.85c-1.36.43-2.56-1.15-2-2.68l5.94-17.06a2.25,2.25,0,0,0-.15-1.85l-8.61-15.41c-.77-1.39.14-3.21,1.55-3.09l15.67,1.36a1.6,1.6,0,0,0,1.45-.74l9.83-14.37A1.62,1.62,0,0,1,1098.81,346.47Z"/><path class="cls-41" d="M1253.67,341.7l8.81,20.93a2.22,2.22,0,0,0,1.62,1.38l19.69,3.35c1.77.3,2.48,2.85,1.2,4.32L1270.74,388a2.82,2.82,0,0,0-.62,2.24l3.37,23c.3,2.06-1.55,3.64-3.13,2.67L1252.75,405a1.87,1.87,0,0,0-2,0l-17.61,10.86c-1.58,1-3.43-.6-3.13-2.66l3.36-23a2.81,2.81,0,0,0-.62-2.24l-14.25-16.29c-1.28-1.46-.58-4,1.19-4.31l19.69-3.36a2.22,2.22,0,0,0,1.63-1.39l8.8-20.93A2,2,0,0,1,1253.67,341.7Z"/><path class="cls-42" d="M1162.12,409.1l6.21,15.71a1.67,1.67,0,0,0,1.19,1.07l14.56,2.91a2,2,0,0,1,.82,3.22l-10.83,11.79a2.05,2.05,0,0,0-.49,1.65l2.14,17.14c.19,1.54-1.21,2.67-2.37,1.91l-12.9-8.43a1.39,1.39,0,0,0-1.49,0l-13.24,7.68c-1.18.69-2.53-.52-2.28-2l2.86-17a2.11,2.11,0,0,0-.43-1.68l-10.32-12.39a2,2,0,0,1,1-3.18l14.67-2.07a1.6,1.6,0,0,0,1.22-1l6.86-15.35A1.51,1.51,0,0,1,1162.12,409.1Z"/><path class="cls-43" d="M747.74,442.19l10.87-11.73a2.13,2.13,0,0,0,.5-1.65L757,411.66c-.19-1.54,1.21-2.67,2.37-1.9l12.87,8.5a1.41,1.41,0,0,0,1.49.05L787,410.69c1.2-.69,2.54.53,2.28,2.05l-2.92,17a2.15,2.15,0,0,0,.42,1.68l10.28,12.44a2,2,0,0,1-1,3.17l-14.67,2a1.63,1.63,0,0,0-1.23,1l-6.91,15.31a1.51,1.51,0,0,1-2.87-.1l-6.16-15.75a1.68,1.68,0,0,0-1.18-1.07l-14.55-3A2,2,0,0,1,747.74,442.19Z"/><path class="cls-44" d="M829.93,504.73l-.57,12.74a1.5,1.5,0,0,0,.46,1.17l8.63,7.78a1.48,1.48,0,0,1-.42,2.43l-10.5,3.3a1.27,1.27,0,0,0-.81.87l-3.63,12a1.12,1.12,0,0,1-2.1.3l-5.93-10.7a1.13,1.13,0,0,0-.95-.63l-10.88-.35a1.42,1.42,0,0,1-.88-2.25l6.84-9.91a1.56,1.56,0,0,0,.22-1.26L806.33,508c-.28-1.1.64-2.09,1.55-1.68L818,510.89a1,1,0,0,0,1.09-.15l9-7.22C828.9,502.87,830,503.59,829.93,504.73Z"/><path class="cls-45" d="M969.83,514l-8.25,10.45a1.68,1.68,0,0,0-.32,1.38l2.66,13.9c.24,1.25-.85,2.28-1.84,1.74l-11-6a1.13,1.13,0,0,0-1.22.07l-10.45,7.26c-.94.65-2.11-.24-2-1.51l1.44-14.14a1.7,1.7,0,0,0-.43-1.34l-9.12-9.41a1.64,1.64,0,0,1,.61-2.68L941.82,511a1.39,1.39,0,0,0,1-.9L947.59,497a1.24,1.24,0,0,1,2.36-.14l5.92,12.43a1.31,1.31,0,0,0,1,.79L969,511.42A1.61,1.61,0,0,1,969.83,514Z"/><path class="cls-46" d="M1099.14,533.23l-9.7-1.79a1,1,0,0,0-.94.37l-6.76,8.36a1,1,0,0,1-1.82-.66l-1.55-11.38a1.22,1.22,0,0,0-.59-.93l-8.87-5a1.35,1.35,0,0,1,0-2.24l8.75-5.24a1.28,1.28,0,0,0,.57-1l1.28-11.42c.11-1,1.18-1.45,1.8-.72l7,8.14a.94.94,0,0,0,.94.34l9.66-2.1c.87-.19,1.54.87,1.14,1.79l-4.45,10.28a1.46,1.46,0,0,0,0,1.16l4.69,10.12C1100.66,532.31,1100,533.39,1099.14,533.23Z"/><path class="cls-47" d="M1210.52,556.15l-6.5-12.22a1.31,1.31,0,0,0-1.07-.73l-12.25-.65a1.6,1.6,0,0,1-1-2.56l7.89-11a1.8,1.8,0,0,0,.27-1.42l-3.27-13.87c-.29-1.25.76-2.35,1.78-1.86l11.38,5.4a1.15,1.15,0,0,0,1.23-.15l10.24-7.92c.92-.72,2.14.12,2.06,1.41l-.86,14.36a1.7,1.7,0,0,0,.49,1.33l9.6,9A1.67,1.67,0,0,1,1230,538l-11.91,3.47a1.41,1.41,0,0,0-.92,1l-4.32,13.48A1.25,1.25,0,0,1,1210.52,556.15Z"/><path class="cls-48" d="M973.68,21.55,995.8,40.29a2.57,2.57,0,0,0,2.72.45L1024.21,30c2.31-1,4.56,1.59,3.81,4.33l-8.36,30.46a3.94,3.94,0,0,0,.47,3.17l16.66,25.35c1.49,2.27.11,5.57-2.34,5.58l-27.27.09a2.87,2.87,0,0,0-2.44,1.51l-15.4,26.41c-1.38,2.37-4.48,1.85-5.25-.88l-8.5-30.4a3.22,3.22,0,0,0-2-2.25l-26.17-9c-2.35-.81-2.89-4.43-.91-6.13l22-18.88a3.66,3.66,0,0,0,1.21-2.89l-.77-32C968.93,21.59,971.7,19.87,973.68,21.55Z"/><path class="cls-49" d="M852,47.34,835.24,72.58a4,4,0,0,0-.49,3.18L843,106.27c.74,2.74-1.52,5.28-3.82,4.3L813.51,99.68a2.57,2.57,0,0,0-2.72.44L788.6,118.73c-2,1.67-4.76-.07-4.68-2.94l.91-32a3.71,3.71,0,0,0-1.2-2.9l-21.94-19c-2-1.71-1.42-5.32.93-6.12l26.21-8.87a3.23,3.23,0,0,0,2-2.24l8.62-30.35c.78-2.73,3.88-3.23,5.26-.85L820,40a2.87,2.87,0,0,0,2.42,1.52l27.28.25C852.14,41.76,853.5,45.07,852,47.34Z"/><path class="cls-50" d="M1117.49,103.26,1142.32,90a3.45,3.45,0,0,0,1.69-2.55L1148.78,56c.43-2.83,3.44-3.85,5.1-1.73l18.41,23.61a2.7,2.7,0,0,0,2.58,1.09l27-4.4c2.43-.4,4.19,2.64,3,5.14l-13.45,27.84a4,4,0,0,0-.09,3.22l11.92,28.78c1.07,2.59-.85,5.49-3.25,4.92L1173.27,138a2.67,2.67,0,0,0-2.64.9L1151,161.11c-1.76,2-4.71.75-5-2.11l-3.06-31.79a3.54,3.54,0,0,0-1.54-2.67l-24.07-15.07A3.75,3.75,0,0,1,1117.49,103.26Z"/><path class="cls-51" d="M1319.65,177.27l-2.25,31.89a3.78,3.78,0,0,0,1.07,3l21.12,20.25c1.9,1.82,1.19,5.4-1.19,6.06l-26.55,7.34a3.14,3.14,0,0,0-2.08,2.12l-9.9,29.81c-.89,2.68-4,3-5.28.55l-14.15-27.36a3,3,0,0,0-2.36-1.66l-27.23-1.83c-2.45-.16-3.67-3.54-2.08-5.72l17.81-24.25a4,4,0,0,0,.62-3.14l-6.94-31c-.62-2.78,1.75-5.19,4-4.08l25.15,12.37a2.58,2.58,0,0,0,2.74-.28l22.95-17.29C1317.17,172.51,1319.86,174.41,1319.65,177.27Z"/><path class="cls-52" d="M1015.19,565.48l-.44,9.93a1.16,1.16,0,0,0,.36.92l6.72,6.06a1.15,1.15,0,0,1-.32,1.9l-8.19,2.57a1,1,0,0,0-.63.68l-2.84,9.38a.87.87,0,0,1-1.64.23l-4.62-8.35a.88.88,0,0,0-.74-.49l-8.48-.27a1.1,1.1,0,0,1-.69-1.75l5.34-7.74a1.2,1.2,0,0,0,.16-1l-2.4-9.55c-.22-.85.5-1.63,1.21-1.31l7.92,3.57a.8.8,0,0,0,.85-.12l7-5.63C1014.38,564,1015.23,564.58,1015.19,565.48Z"/><path class="cls-53" d="M773,589.63l6.4-6.75a1.2,1.2,0,0,0,.3-1l-1.12-10c-.1-.9.72-1.54,1.39-1.09l7.46,5a.79.79,0,0,0,.86,0l7.77-4.34c.7-.39,1.48.33,1.32,1.22l-1.79,9.87a1.21,1.21,0,0,0,.23,1l5.92,7.33a1.14,1.14,0,0,1-.58,1.84l-8.56,1.06a.92.92,0,0,0-.72.56l-4.11,8.87a.88.88,0,0,1-1.67-.08l-3.5-9.22a1,1,0,0,0-.68-.63l-8.46-1.85A1.16,1.16,0,0,1,773,589.63Z"/><path class="cls-54" d="M920.66,622,920.4,628a.69.69,0,0,0,.21.54l4,3.62a.69.69,0,0,1-.2,1.13l-4.89,1.54a.6.6,0,0,0-.37.4l-1.7,5.6a.51.51,0,0,1-1,.14l-2.76-5a.56.56,0,0,0-.45-.3l-5.06-.16a.65.65,0,0,1-.41-1l3.19-4.62a.76.76,0,0,0,.1-.59l-1.44-5.7c-.13-.51.3-1,.72-.78l4.73,2.13a.48.48,0,0,0,.51-.07l4.17-3.36C920.18,621.16,920.69,621.49,920.66,622Z"/><path class="cls-55" d="M1107.85,617.39l5,5a.6.6,0,0,0,.64.17l6.37-2c.57-.18,1.07.49.84,1.13l-2.53,7.13a1,1,0,0,0,.06.78l3.56,6.49a.83.83,0,0,1-.65,1.29l-6.57-.63a.67.67,0,0,0-.61.31l-4.16,6a.69.69,0,0,1-1.25-.34l-1.52-7.52a.8.8,0,0,0-.44-.58l-6.14-2.79a.91.91,0,0,1-.11-1.5l5.62-4a.89.89,0,0,0,.35-.67l.36-7.71C1106.7,617.28,1107.4,616.94,1107.85,617.39Z"/><path class="cls-56" d="M1185.9,565.71l.83,7.66a.82.82,0,0,0,.38.64l5.86,3.55a.91.91,0,0,1,0,1.5l-6,3.29a.8.8,0,0,0-.4.62l-1.07,7.63a.69.69,0,0,1-1.22.44l-4.51-5.63a.65.65,0,0,0-.63-.25l-6.51,1.17c-.59.1-1-.63-.74-1.23l3.17-6.78a1,1,0,0,0,0-.78l-3-6.9c-.26-.62.19-1.33.77-1.2l6.47,1.44a.64.64,0,0,0,.64-.22l4.68-5.44C1185.11,564.73,1185.83,565,1185.9,565.71Z"/><path class="cls-57" d="M882.34,561.79l3.3,6.68a.72.72,0,0,0,.56.42l6.57.6a.88.88,0,0,1,.48,1.4l-4.41,5.74a1,1,0,0,0-.16.76l1.54,7.51c.14.68-.44,1.24-1,1l-6-3.13a.63.63,0,0,0-.67,0l-5.61,4c-.51.36-1.15-.11-1.08-.8l.68-7.69a.93.93,0,0,0-.25-.72l-5-5a.89.89,0,0,1,.32-1.45l6.44-1.62a.74.74,0,0,0,.51-.49l2.52-7.14A.67.67,0,0,1,882.34,561.79Z"/><path class="cls-58" d="M1173,673.93l-.26,5.93a.72.72,0,0,0,.21.55l4,3.62a.69.69,0,0,1-.2,1.13l-4.89,1.54a.58.58,0,0,0-.37.4l-1.7,5.6a.52.52,0,0,1-1,.14l-2.76-5a.57.57,0,0,0-.45-.29l-5.06-.16a.66.66,0,0,1-.41-1l3.19-4.61a.72.72,0,0,0,.09-.59l-1.43-5.7c-.13-.51.3-1,.72-.78l4.73,2.13a.5.5,0,0,0,.51-.07l4.17-3.36C1172.5,673.06,1173,673.4,1173,673.93Z"/><path class="cls-59" d="M805.28,670l5.07.1a.53.53,0,0,0,.45-.27l2.94-4.84a.52.52,0,0,1,1,.18l1.49,5.68a.63.63,0,0,0,.36.43l4.83,1.78a.69.69,0,0,1,.15,1.14l-4.14,3.41a.69.69,0,0,0-.24.54l.05,5.94c0,.53-.51.84-.88.52l-4.05-3.57a.47.47,0,0,0-.5-.1l-4.8,1.89c-.43.17-.84-.31-.7-.82l1.65-5.62a.72.72,0,0,0-.08-.59l-3-4.77A.66.66,0,0,1,805.28,670Z"/><path class="cls-60" d="M1228.11,607.75l4.34,6.8a.75.75,0,0,0,.66.37l7.23-.35A.94.94,0,0,1,1241,616l-4.17,7a1.05,1.05,0,0,0-.1.85l2.52,8c.22.72-.35,1.43-1,1.2l-6.92-2.5a.72.72,0,0,0-.72.15L1225,635.9c-.51.47-1.26.05-1.27-.71l-.1-8.49a1,1,0,0,0-.35-.75l-6-4.71a1,1,0,0,1,.18-1.64l6.85-2.74a.89.89,0,0,0,.51-.63l2-8.17A.75.75,0,0,1,1228.11,607.75Z"/><path class="cls-61" d="M709.3,686.41l4.35,6.8a.72.72,0,0,0,.66.36l7.23-.34a.93.93,0,0,1,.67,1.45l-4.16,6.94a1.05,1.05,0,0,0-.1.85l2.51,8c.23.71-.34,1.42-1,1.2l-6.92-2.51a.69.69,0,0,0-.72.16l-5.68,5.27c-.51.47-1.26.05-1.27-.71l-.11-8.49a1,1,0,0,0-.35-.76l-6-4.71a1,1,0,0,1,.18-1.63l6.85-2.75a.86.86,0,0,0,.5-.62l2-8.18A.74.74,0,0,1,709.3,686.41Z"/><path class="cls-62" d="M1016.46,679.59l-3,4.75a.74.74,0,0,0-.08.6l1.61,5.63c.15.5-.27,1-.7.81l-4.79-1.92a.48.48,0,0,0-.5.09l-4.07,3.54c-.36.32-.88,0-.87-.52l.07-5.94a.65.65,0,0,0-.23-.54l-4.13-3.44a.7.7,0,0,1,.16-1.14l4.84-1.75a.59.59,0,0,0,.36-.42l1.52-5.67a.52.52,0,0,1,1-.18l2.91,4.86a.53.53,0,0,0,.46.27l5.06-.06A.66.66,0,0,1,1016.46,679.59Z"/><path class="cls-63" d="M1192.07,249.65l-.11,25a2.89,2.89,0,0,0,1,2.24l17.52,14.3a2.92,2.92,0,0,1-.61,4.81l-20.33,7.62a2.53,2.53,0,0,0-1.51,1.79l-6.18,24c-.55,2.15-3,2.62-4.09.79l-12.46-20.32a2.22,2.22,0,0,0-1.92-1.13l-21.34.52c-1.91,0-3-2.51-1.91-4.32l12.63-20.18a3.09,3.09,0,0,0,.32-2.49l-7-23.65c-.63-2.12,1.09-4.17,2.91-3.46l20.26,7.85a2,2,0,0,0,2.12-.42l17-15.12C1189.88,246.12,1192.08,247.4,1192.07,249.65Z"/><path class="cls-64" d="M1311,50.15l-.11,25a2.87,2.87,0,0,0,1,2.24l17.52,14.3a2.92,2.92,0,0,1-.62,4.81l-20.33,7.62a2.56,2.56,0,0,0-1.51,1.79l-6.17,24c-.56,2.15-3,2.62-4.09.79l-12.46-20.32a2.24,2.24,0,0,0-1.93-1.13l-21.33.52c-1.92,0-3-2.51-1.91-4.32l12.62-20.18a3.09,3.09,0,0,0,.32-2.49l-7-23.65c-.63-2.12,1.09-4.17,2.91-3.46l20.26,7.85a2.05,2.05,0,0,0,2.13-.42l17-15.12C1308.82,46.62,1311,47.9,1311,50.15Z"/><path class="cls-65" d="M908.44,198.74l-6,28.83a3.65,3.65,0,0,0,.62,2.9l16.85,22.12c1.52,2,.43,5.14-1.83,5.35l-25.22,2.23a2.72,2.72,0,0,0-2.16,1.59L878,287.39a2.58,2.58,0,0,1-4.9-.39l-9.6-27.45a2.93,2.93,0,0,0-2-1.92l-24.72-6.27c-2.22-.57-2.92-3.87-1.19-5.6l19.28-19.19a3.52,3.52,0,0,0,1-2.78l-2.55-29.51c-.23-2.65,2.23-4.46,4.16-3.06L879,206.8a2.41,2.41,0,0,0,2.55.21l23.14-12C906.75,194,909,196.16,908.44,198.74Z"/><path class="cls-66" d="M1012.19,228.41l25-4.62a2.86,2.86,0,0,0,2-1.79l10.91-26.76a2.58,2.58,0,0,1,4.91-.07l11.47,26.43a2.79,2.79,0,0,0,2.09,1.73l25.06,3.91c2.26.35,3.19,3.57,1.58,5.46l-17.89,21a3.6,3.6,0,0,0-.76,2.86l4.58,29.17c.42,2.62-1.91,4.66-3.94,3.45l-22.52-13.48a2.38,2.38,0,0,0-2.55,0l-22.24,14.12c-2,1.27-4.37-.7-4-3.33l4-29.3a3.54,3.54,0,0,0-.81-2.83l-18.33-20.44C1009.09,232.08,1010,228.83,1012.19,228.41Z"/><path class="cls-67" d="M719,531.18l-.12,12.76a1.43,1.43,0,0,0,.5,1.14l8.89,7.35a1.48,1.48,0,0,1-.33,2.45l-10.37,3.81a1.29,1.29,0,0,0-.78.91l-3.21,12.19a1.11,1.11,0,0,1-2.08.39l-6.3-10.4a1.13,1.13,0,0,0-1-.58l-10.87.19a1.41,1.41,0,0,1-1-2.21l6.49-10.24a1.6,1.6,0,0,0,.17-1.27l-3.51-12.07c-.32-1.09.56-2.13,1.49-1.76l10.3,4.07a1,1,0,0,0,1.09-.2l8.7-7.65C717.88,529.37,719,530,719,531.18Z"/></g><path class="cls-68" d="M487.83,963.22l.94-5.84a.71.71,0,0,0-.14-.57l-3.57-4.22a.67.67,0,0,1,.32-1.09l5-.75a.58.58,0,0,0,.42-.35l2.32-5.27a.51.51,0,0,1,1,0l2.16,5.37a.57.57,0,0,0,.41.36l5,1A.69.69,0,0,1,502,953L498.3,957a.69.69,0,0,0-.17.57l.77,5.87c.06.53-.41.92-.81.66l-4.44-2.85a.45.45,0,0,0-.51,0l-4.53,2.66C488.21,964.15,487.74,963.74,487.83,963.22Z"/><path class="cls-69" d="M272.36,873.7l-3.62-4.15a.5.5,0,0,0-.49-.17l-5,1.15c-.45.11-.8-.43-.6-.91l2.24-5.33a.74.74,0,0,0,0-.6l-2.47-5.19c-.23-.46.1-1,.55-1l5,.86a.51.51,0,0,0,.48-.2l3.44-4.36a.53.53,0,0,1,.94.33l.86,5.85a.66.66,0,0,0,.31.48l4.6,2.49a.69.69,0,0,1,0,1.15l-4.48,2.77a.64.64,0,0,0-.29.49l-.6,5.9A.54.54,0,0,1,272.36,873.7Z"/><path class="cls-70" d="M667.09,831.4l-5-.9a.5.5,0,0,0-.48.2L658.13,835a.53.53,0,0,1-.94-.34l-.82-5.86a.63.63,0,0,0-.31-.48l-4.58-2.53a.7.7,0,0,1,0-1.16l4.5-2.72a.65.65,0,0,0,.29-.5l.64-5.89a.53.53,0,0,1,.93-.37l3.6,4.17a.48.48,0,0,0,.48.18l5-1.11c.45-.1.8.44.59.92l-2.27,5.31a.74.74,0,0,0,0,.6l2.43,5.2C667.87,830.92,667.54,831.48,667.09,831.4Z"/><path class="cls-71" d="M476.78,824.29l3.56-4.23a.71.71,0,0,0,.15-.57l-.95-5.83c-.09-.53.37-.94.78-.7l4.53,2.66a.47.47,0,0,0,.51,0l4.44-2.86c.39-.26.87.13.8.66l-.76,5.87a.72.72,0,0,0,.17.57l3.69,4.06a.69.69,0,0,1-.28,1.11l-5,1a.59.59,0,0,0-.41.36l-2.15,5.38a.52.52,0,0,1-1,0l-2.32-5.27a.58.58,0,0,0-.42-.35l-5-.74A.67.67,0,0,1,476.78,824.29Z"/><path class="cls-72" d="M877.12,794.29l-2.48-5.18a.55.55,0,0,0-.43-.33l-5.05-.53a.67.67,0,0,1-.35-1.08l3.43-4.37a.74.74,0,0,0,.13-.58l-1.12-5.79c-.1-.52.35-.95.76-.73l4.6,2.48a.49.49,0,0,0,.51,0l4.35-3c.39-.27.88.1.83.63l-.59,5.9a.7.7,0,0,0,.19.56l3.81,3.91a.69.69,0,0,1-.25,1.12l-5,1.17a.59.59,0,0,0-.4.37l-2,5.46A.52.52,0,0,1,877.12,794.29Z"/><path class="cls-73" d="M916.15,1017.36l-2.48-5.17a.55.55,0,0,0-.43-.33l-5-.54a.66.66,0,0,1-.35-1.07l3.43-4.37a.75.75,0,0,0,.13-.58l-1.12-5.8c-.1-.52.35-1,.76-.72l4.61,2.47a.47.47,0,0,0,.51,0l4.35-3c.39-.27.87.1.82.63l-.58,5.9a.66.66,0,0,0,.18.56l3.81,3.91a.68.68,0,0,1-.25,1.11l-5,1.17a.57.57,0,0,0-.39.38l-2,5.46A.51.51,0,0,1,916.15,1017.36Z"/><path class="cls-74" d="M1006.16,779.89l-4.32,3.1a.67.67,0,0,0-.26.51l-.27,5.93c0,.54-.56.8-.91.46L996.55,786a.46.46,0,0,0-.49-.13l-4.9,1.53c-.44.13-.82-.38-.65-.87l2-5.49a.74.74,0,0,0-.05-.6l-2.75-5a.65.65,0,0,1,.51-1l5,.48a.5.5,0,0,0,.47-.24l3.2-4.61a.53.53,0,0,1,1,.26l1.17,5.78a.66.66,0,0,0,.34.45l4.72,2.14A.69.69,0,0,1,1006.16,779.89Z"/><path class="cls-75" d="M823.4,904.36l.4-5.92a.68.68,0,0,0-.2-.55l-3.93-3.74a.69.69,0,0,1,.22-1.13l4.92-1.38a.6.6,0,0,0,.39-.4L827,885.7a.52.52,0,0,1,1-.11l2.64,5.07a.58.58,0,0,0,.44.31l5.06.31a.66.66,0,0,1,.38,1.06l-3.29,4.52a.74.74,0,0,0-.11.58l1.31,5.74c.11.52-.32,1-.74.76L829,901.67a.49.49,0,0,0-.51.05L824.25,905C823.87,905.24,823.37,904.89,823.4,904.36Z"/><path class="cls-76" d="M93.09,854l-.27,5.93a.69.69,0,0,0,.22.55l4,3.62a.69.69,0,0,1-.19,1.13L92,866.78a.57.57,0,0,0-.38.4l-1.69,5.6a.52.52,0,0,1-1,.14l-2.76-5a.54.54,0,0,0-.44-.29l-5.06-.16a.66.66,0,0,1-.42-1.05l3.19-4.61a.72.72,0,0,0,.1-.59l-1.43-5.7c-.13-.51.29-1,.72-.78l4.73,2.13a.48.48,0,0,0,.5-.07l4.18-3.36C92.61,853.14,93.11,853.48,93.09,854Z"/><path class="cls-77" d="M345.41,777.48l-.27,5.93a.69.69,0,0,0,.22.55l4,3.62a.69.69,0,0,1-.19,1.13l-4.89,1.53a.6.6,0,0,0-.38.41l-1.69,5.6a.52.52,0,0,1-1,.14l-2.76-5a.54.54,0,0,0-.44-.29L333,791a.66.66,0,0,1-.42-1.05l3.19-4.61a.76.76,0,0,0,.1-.59l-1.43-5.7c-.13-.51.29-1,.72-.78l4.73,2.13a.48.48,0,0,0,.5-.07l4.18-3.37C344.92,776.61,345.43,777,345.41,777.48Z"/><path class="cls-78" d="M147.26,764.66l5.06.1a.55.55,0,0,0,.46-.27l2.93-4.84a.53.53,0,0,1,1,.19l1.48,5.67a.61.61,0,0,0,.36.43l4.83,1.78a.69.69,0,0,1,.15,1.14l-4.14,3.42a.68.68,0,0,0-.24.53l.05,5.94c0,.53-.51.84-.88.52l-4-3.57a.48.48,0,0,0-.51-.09l-4.8,1.88c-.43.17-.84-.31-.69-.82l1.64-5.61a.74.74,0,0,0-.08-.6l-3-4.77A.66.66,0,0,1,147.26,764.66Z"/><path class="cls-79" d="M195.34,1054.37l-3,4.75a.83.83,0,0,0-.08.6l1.62,5.63c.14.5-.27,1-.7.81l-4.79-1.92a.48.48,0,0,0-.51.09l-4.06,3.54c-.37.32-.89,0-.88-.52l.08-5.94a.68.68,0,0,0-.23-.54l-4.13-3.44a.69.69,0,0,1,.16-1.14l4.84-1.75a.62.62,0,0,0,.36-.42l1.51-5.67a.53.53,0,0,1,1-.18l2.91,4.86a.51.51,0,0,0,.46.27l5.06-.06A.66.66,0,0,1,195.34,1054.37Z"/></svg>