<svg id="Layer_1" data-name="Layer 1" xmlns="http://www.w3.org/2000/svg" xmlns:xlink="http://www.w3.org/1999/xlink" viewBox="0 0 2323.01 2574.86"><defs><style>.cls-1,.cls-3{stroke:#010101;stroke-miterlimit:10;stroke-width:2px;}.cls-1{fill:url(#linear-gradient);}.cls-2{fill:#e8ad22;}.cls-3{fill:url(#linear-gradient-2);}</style><linearGradient id="linear-gradient" x1="2032.89" y1="2549.05" x2="2320.89" y2="2549.05" gradientUnits="userSpaceOnUse"><stop offset="0" stop-color="#a41d4e"/><stop offset="0.34" stop-color="#d01e4e"/><stop offset="1" stop-color="#991b4e"/></linearGradient><linearGradient id="linear-gradient-2" x1="2.13" y1="18.62" x2="206.68" y2="18.62" xlink:href="#linear-gradient"/></defs><title>submitbutton</title><polygon class="cls-1" points="2320.89 2573.86 2032.89 2573.86 2053.46 2549.05 2032.89 2524.23 2320.89 2524.23 2300.32 2549.05 2320.89 2573.86"/><path class="cls-2" d="M2131.73,2658.41a11.06,11.06,0,0,1-3.89-.65,7.63,7.63,0,0,1-2.88-1.84l-.4,2.09h-2v-8.17h2.19a7.9,7.9,0,0,0,1.71,5,6.06,6.06,0,0,0,4.59,1.57q5.14,0,5.15-3.93a4.29,4.29,0,0,0-.45-2,5.24,5.24,0,0,0-1.28-1.57,9.58,9.58,0,0,0-2-1.29c-.8-.4-1.71-.8-2.72-1.21s-2.17-.91-3-1.35a9.05,9.05,0,0,1-2.2-1.51,5.8,5.8,0,0,1-1.35-1.95,6.85,6.85,0,0,1-.46-2.68,6.77,6.77,0,0,1,2.14-5.33,9.48,9.48,0,0,1,11.53.11l.29-1.62h2v8.17h-2c0-2.32-.43-4-1.28-5.05a5,5,0,0,0-4.09-1.57q-4.93,0-4.93,4.5a4.58,4.58,0,0,0,.22,1.53,2.76,2.76,0,0,0,.81,1.17,6.81,6.81,0,0,0,1.6,1c.67.34,1.53.74,2.59,1.19,1.49.65,2.76,1.27,3.82,1.86a11.75,11.75,0,0,1,2.57,1.85,6.35,6.35,0,0,1,1.46,2.09,6.47,6.47,0,0,1,.47,2.52,7.1,7.1,0,0,1-.6,3,6.26,6.26,0,0,1-1.65,2.21,7.23,7.23,0,0,1-2.56,1.37A11,11,0,0,1,2131.73,2658.41Z" transform="translate(-4.11 -97.14)"/><path class="cls-2" d="M2148.68,2648.76c0,.77,0,1.44,0,2s.05,1.06.09,1.47a6.5,6.5,0,0,0,.16,1.05,3,3,0,0,0,.29.75,3,3,0,0,0,3,1.77,5,5,0,0,0,1.87-.36,5.37,5.37,0,0,0,1.59-1,4.38,4.38,0,0,0,1.17-1.67,8,8,0,0,0,.45-2.47v-9.61l-3.13-.68v-1.48h6.62v17.28l2.77.69V2658l-5.58.36-.39-4h-.15a7.68,7.68,0,0,1-2.84,2.9,7.45,7.45,0,0,1-3.85,1.06,6.21,6.21,0,0,1-2.51-.5,4.25,4.25,0,0,1-1.78-1.44,6.77,6.77,0,0,1-1-2.83,30.21,30.21,0,0,1-.31-4.91v-8l-2.41-.68v-1.48h5.9Z" transform="translate(-4.11 -97.14)"/><path class="cls-2" d="M2184.5,2648.11a14.26,14.26,0,0,1-.68,4.45,9.91,9.91,0,0,1-1.91,3.47,7.24,7.24,0,0,1-5.8,2.34,6.37,6.37,0,0,1-3.27-.84,7.2,7.2,0,0,1-2.56-3.15l-1.08,3.63h-1.69v-25.92l-2.77-.68v-1.48H2171v10.73a6,6,0,0,1,2.41-1.91,7.92,7.92,0,0,1,3-.54,9.69,9.69,0,0,1,3.33.54,5.3,5.3,0,0,1,2.43,1.73,9.74,9.74,0,0,1,1.73,3.35A14.38,14.38,0,0,1,2184.5,2648.11Zm-13.5,0q0,4.42,1.26,6.44a4,4,0,0,0,1.41,1.42,4.23,4.23,0,0,0,2.19.49,4.14,4.14,0,0,0,3.64-1.69,6.57,6.57,0,0,0,.93-2.59,21.76,21.76,0,0,0,.29-3.82q0-4.32-1.26-6.41a4.42,4.42,0,0,0-1.44-1.42,4.33,4.33,0,0,0-2.19-.49,5.07,5.07,0,0,0-2.16.42,3.15,3.15,0,0,0-1.41,1.24,7.94,7.94,0,0,0-.93,2.61A19.05,19.05,0,0,0,2171,2648.15Z" transform="translate(-4.11 -97.14)"/><path class="cls-2" d="M2190.23,2640.73l-2.78-.68v-1.48h5.19l.79,3.6h.14a8,8,0,0,1,2.79-2.9,7.15,7.15,0,0,1,3.73-1.06,6,6,0,0,1,2.65.56,4,4,0,0,1,1.67,1.39,8,8,0,0,1,.94,2.37,8.47,8.47,0,0,1,3-3.18,7.35,7.35,0,0,1,3.93-1.14,5.9,5.9,0,0,1,2.59.56,4.07,4.07,0,0,1,1.76,1.53,4.58,4.58,0,0,1,.54,1.22,10.61,10.61,0,0,1,.36,1.79,23,23,0,0,1,.2,2.5c0,1,.06,2.09.06,3.38v6.66l2.77.69V2658h-8.68v-1.47l2.41-.69v-8c0-1.53,0-2.69-.12-3.47a5.79,5.79,0,0,0-.45-1.82,3.14,3.14,0,0,0-3-1.76,4.53,4.53,0,0,0-1.78.36,5.59,5.59,0,0,0-1.53,1,4.45,4.45,0,0,0-1.17,1.67,8,8,0,0,0-.45,2.47v9.61l2.41.69V2658h-8.31v-1.47l2.41-.69v-8a33.2,33.2,0,0,0-.13-3.47,5.29,5.29,0,0,0-.45-1.82,3.13,3.13,0,0,0-3-1.76,4.49,4.49,0,0,0-1.78.36,5.3,5.3,0,0,0-1.53,1,4.45,4.45,0,0,0-1.17,1.67,8,8,0,0,0-.45,2.47v9.61l2.41.69V2658h-8.68v-1.47l2.78-.69Z" transform="translate(-4.11 -97.14)"/><path class="cls-2" d="M2222.55,2640.05v-1.48h6.27v17.28l2.77.69V2658h-9v-1.47l2.78-.69v-15.12Zm2.27-7.27a2.27,2.27,0,0,1,.6-1.66,2.15,2.15,0,0,1,1.63-.61,2.11,2.11,0,0,1,2.27,2.27,2.15,2.15,0,0,1-.61,1.63,2.27,2.27,0,0,1-1.66.6,2.07,2.07,0,0,1-2.23-2.23Z" transform="translate(-4.11 -97.14)"/><path class="cls-2" d="M2232.81,2639.08l3.5-.51.46-4.53,3-.44v5h4.61v1.8h-4.61v12.85q0,1.23,0,1.68a3.2,3.2,0,0,0,.15.74.54.54,0,0,0,.39.36,5,5,0,0,0,.94.07h2.52v1a26.86,26.86,0,0,1-3,1,10,10,0,0,1-2.11.3,2,2,0,0,1-2.09-1.33,3.78,3.78,0,0,1-.23-1.1c0-.44-.05-1.12-.05-2v-13.54h-3.5Z" transform="translate(-4.11 -97.14)"/><polygon class="cls-3" points="206.68 36.25 2.13 36.25 16.74 18.63 2.13 1 206.68 1 192.07 18.63 206.68 36.25"/><path class="cls-2" d="M73.52,124.44a7.76,7.76,0,0,1-2.76-.46,5.46,5.46,0,0,1-2.05-1.3l-.28,1.48H67v-5.8h1.56a5.53,5.53,0,0,0,1.22,3.56A4.27,4.27,0,0,0,73,123q3.64,0,3.65-2.79a3,3,0,0,0-.32-1.43,3.51,3.51,0,0,0-.91-1.11,6.61,6.61,0,0,0-1.44-.92c-.57-.29-1.21-.57-1.93-.86a22.87,22.87,0,0,1-2.16-1,6.39,6.39,0,0,1-1.56-1.07,4.09,4.09,0,0,1-1-1.38,4.92,4.92,0,0,1-.33-1.91,4.77,4.77,0,0,1,1.52-3.78,6.71,6.71,0,0,1,8.19.07l.21-1.15h1.43v5.81H77a5.68,5.68,0,0,0-.91-3.6,3.52,3.52,0,0,0-2.9-1.11q-3.5,0-3.5,3.2a3.5,3.5,0,0,0,.15,1.09,2.21,2.21,0,0,0,.58.83,5.23,5.23,0,0,0,1.14.74c.47.24,1.09.52,1.84.84,1,.46,2,.9,2.71,1.32a8.63,8.63,0,0,1,1.83,1.31,4.76,4.76,0,0,1,1,1.49,4.61,4.61,0,0,1,.33,1.79,5.13,5.13,0,0,1-.42,2.11,4.46,4.46,0,0,1-1.17,1.57,5.12,5.12,0,0,1-1.82,1A7.88,7.88,0,0,1,73.52,124.44Z" transform="translate(-4.11 -97.14)"/><path class="cls-2" d="M85.56,117.59c0,.55,0,1,0,1.43s0,.76.06,1a5.45,5.45,0,0,0,.12.74,2.26,2.26,0,0,0,.2.54,2.17,2.17,0,0,0,2.15,1.25,3.57,3.57,0,0,0,1.33-.25,3.81,3.81,0,0,0,1.13-.69,3.25,3.25,0,0,0,.83-1.19,5.7,5.7,0,0,0,.32-1.75v-6.83l-2.23-.49v-1.05h4.71v12.28l2,.48v1l-4,.26-.28-2.81h-.1a5.59,5.59,0,0,1-2,2,5.25,5.25,0,0,1-2.74.76,4.24,4.24,0,0,1-1.77-.36A3,3,0,0,1,84,123a5,5,0,0,1-.73-2,22.54,22.54,0,0,1-.22-3.49v-5.65l-1.71-.49v-1.05h4.19Z" transform="translate(-4.11 -97.14)"/><path class="cls-2" d="M111,117.13a10.11,10.11,0,0,1-.49,3.16,7.08,7.08,0,0,1-1.36,2.47,5.14,5.14,0,0,1-4.11,1.66,4.52,4.52,0,0,1-2.33-.6,5.07,5.07,0,0,1-1.82-2.24l-.76,2.58h-1.2V105.75l-2-.48v-1h4.45v7.62a4.25,4.25,0,0,1,1.71-1.36,5.72,5.72,0,0,1,2.12-.38,7.1,7.1,0,0,1,2.37.38,3.84,3.84,0,0,1,1.72,1.23,7,7,0,0,1,1.23,2.38A10.25,10.25,0,0,1,111,117.13Zm-9.59,0a8.88,8.88,0,0,0,.89,4.57,2.85,2.85,0,0,0,1,1,3.05,3.05,0,0,0,1.56.35,2.93,2.93,0,0,0,2.58-1.2,4.7,4.7,0,0,0,.67-1.84,16.76,16.76,0,0,0,.2-2.71,9.15,9.15,0,0,0-.89-4.56,3.29,3.29,0,0,0-1-1,3.06,3.06,0,0,0-1.56-.34,3.73,3.73,0,0,0-1.53.29,2.26,2.26,0,0,0-1,.88,5.76,5.76,0,0,0-.66,1.86A13.32,13.32,0,0,0,101.42,117.16Z" transform="translate(-4.11 -97.14)"/><path class="cls-2" d="M115.07,111.89l-2-.49v-1.05h3.68l.57,2.56h.1a5.59,5.59,0,0,1,2-2.06,5,5,0,0,1,2.65-.75,4.16,4.16,0,0,1,1.88.4,2.85,2.85,0,0,1,1.18,1,5.46,5.46,0,0,1,.67,1.69,6.11,6.11,0,0,1,2.12-2.27,5.28,5.28,0,0,1,2.79-.8,4.11,4.11,0,0,1,1.84.4,3,3,0,0,1,1.25,1.08,3.51,3.51,0,0,1,.39.87,8.9,8.9,0,0,1,.25,1.27,16.33,16.33,0,0,1,.14,1.77c0,.69,0,1.49,0,2.41v4.73l2,.48v1h-6.16v-1l1.71-.48v-5.7c0-1.09,0-1.92-.09-2.47a4,4,0,0,0-.32-1.29,2.22,2.22,0,0,0-2.15-1.26,3.19,3.19,0,0,0-1.26.26,3.87,3.87,0,0,0-1.09.69,3.25,3.25,0,0,0-.83,1.19,5.42,5.42,0,0,0-.32,1.75v6.83l1.71.48v1h-5.9v-1l1.71-.48v-5.7c0-1.09,0-1.92-.09-2.47a4,4,0,0,0-.32-1.29,2.22,2.22,0,0,0-2.15-1.26,3.19,3.19,0,0,0-1.26.26,3.87,3.87,0,0,0-1.09.69,3.25,3.25,0,0,0-.83,1.19,5.42,5.42,0,0,0-.32,1.75v6.83l1.71.48v1H113.1v-1l2-.48Z" transform="translate(-4.11 -97.14)"/><path class="cls-2" d="M138,111.4v-1.05h4.45v12.28l2,.48v1H138v-1l2-.48V111.89Zm1.61-5.16a1.62,1.62,0,0,1,.42-1.18,1.55,1.55,0,0,1,1.17-.43,1.5,1.5,0,0,1,1.61,1.61,1.54,1.54,0,0,1-.44,1.16,1.61,1.61,0,0,1-1.17.42,1.46,1.46,0,0,1-1.59-1.58Z" transform="translate(-4.11 -97.14)"/><path class="cls-2" d="M145.32,110.71l2.48-.36.33-3.22,2.15-.3v3.52h3.27v1.28h-3.27v9.13c0,.58,0,1,0,1.19a1.69,1.69,0,0,0,.11.52.37.37,0,0,0,.28.26,3.23,3.23,0,0,0,.66,0h1.79v.74a16.65,16.65,0,0,1-2.16.68,6.66,6.66,0,0,1-1.49.22,1.41,1.41,0,0,1-1.49-1,2.54,2.54,0,0,1-.16-.78c0-.31,0-.79,0-1.44v-9.62h-2.48Z" transform="translate(-4.11 -97.14)"/></svg>