<?xml version="1.0" encoding="utf-8"?>
<!-- Generator: Adobe Illustrator 22.1.0, SVG Export Plug-In . SVG Version: 6.00 Build 0)  -->
<svg version="1.1" id="Layer_1" xmlns="http://www.w3.org/2000/svg" xmlns:xlink="http://www.w3.org/1999/xlink" x="0px" y="0px"
	 viewBox="0 0 217 50" style="enable-background:new 0 0 217 50;" xml:space="preserve">
<style type="text/css">
	.st0{fill:url(#SVGID_1_);stroke:#010101;stroke-width:2;stroke-miterlimit:10;}
	.st1{fill:#E8AD22;}
</style>
<title>submitbutton</title>
<linearGradient id="SVGID_1_" gradientUnits="userSpaceOnUse" x1="8.13" y1="2547.375" x2="212.68" y2="2547.375" gradientTransform="matrix(1 0 0 -1 0 2574)">
	<stop  offset="0" style="stop-color:#A41D4E"/>
	<stop  offset="0.34" style="stop-color:#D01E4E"/>
	<stop  offset="1" style="stop-color:#991B4E"/>
</linearGradient>
<polygon class="st0" points="212.7,44.3 8.1,44.3 22.7,26.6 8.1,9 212.7,9 198.1,26.6 "/>
<path class="st1" d="M75.4,35.3c-0.9,0-1.9-0.1-2.8-0.5c-0.8-0.3-1.5-0.7-2.1-1.3L70.3,35h-1.4v-5.8h1.6c0,1.3,0.4,2.6,1.2,3.6
	c0.9,0.8,2,1.2,3.2,1.1c2.4,0,3.6-0.9,3.7-2.8c0-0.5-0.1-1-0.3-1.4c-0.2-0.4-0.5-0.8-0.9-1.1c-0.4-0.4-0.9-0.7-1.4-0.9
	c-0.6-0.3-1.2-0.6-1.9-0.9c-0.7-0.3-1.5-0.6-2.2-1c-0.6-0.3-1.1-0.6-1.6-1.1c-0.4-0.4-0.8-0.9-1-1.4c-0.2-0.6-0.3-1.3-0.3-1.9
	c-0.1-1.4,0.5-2.8,1.5-3.8c2.4-1.8,5.8-1.8,8.2,0.1l0.2-1.2h1.4v5.8h-1.3c0.1-1.3-0.2-2.5-0.9-3.6c-0.7-0.8-1.8-1.2-2.9-1.1
	c-2.3,0-3.5,1.1-3.5,3.2c0,0.4,0,0.7,0.2,1.1c0.1,0.3,0.3,0.6,0.6,0.8c0.3,0.3,0.7,0.5,1.1,0.7c0.5,0.2,1.1,0.5,1.8,0.8
	c1,0.5,2,0.9,2.7,1.3c0.7,0.4,1.3,0.8,1.8,1.3c0.4,0.4,0.8,0.9,1,1.5c0.2,0.6,0.3,1.2,0.3,1.8c0,0.7-0.1,1.4-0.4,2.1
	c-0.3,0.6-0.7,1.1-1.2,1.6c-0.5,0.5-1.2,0.8-1.8,1C77,35.2,76.2,35.3,75.4,35.3z"/>
<path class="st1" d="M87.4,28.4c0,0.6,0,1,0,1.4s0,0.8,0.1,1c0,0.2,0.1,0.5,0.1,0.7c0,0.2,0.1,0.4,0.2,0.5c0.4,0.8,1.2,1.3,2.2,1.3
	c0.5,0,0.9-0.1,1.3-0.3c0.4-0.2,0.8-0.4,1.1-0.7c0.4-0.3,0.6-0.7,0.8-1.2c0.2-0.6,0.3-1.2,0.3-1.8v-6.8l-2.2-0.5v-1.1h4.7v12.3
	l2,0.5v1l-4,0.3l-0.3-2.8h-0.1c-0.5,0.8-1.2,1.5-2,2c-0.8,0.5-1.8,0.8-2.7,0.8c-0.6,0-1.2-0.1-1.8-0.4c-0.5-0.2-0.9-0.5-1.3-0.9
	c-0.4-0.6-0.6-1.3-0.7-2c-0.2-1.2-0.2-2.3-0.2-3.5v-5.7l-1.7-0.5v-1.1h4.2L87.4,28.4z"/>
<path class="st1" d="M112.9,28c0,1.1-0.2,2.1-0.5,3.2c-0.3,0.9-0.7,1.7-1.4,2.5c-1,1.1-2.6,1.8-4.1,1.7c-0.8,0-1.6-0.2-2.3-0.6
	c-0.8-0.6-1.4-1.3-1.8-2.2L102,35h-1.2V16.6l-2-0.5v-1h4.4v7.6c0.4-0.6,1-1.1,1.7-1.4c0.7-0.3,1.4-0.4,2.1-0.4
	c0.8,0,1.6,0.1,2.4,0.4c0.7,0.2,1.3,0.7,1.7,1.2c0.6,0.7,1,1.5,1.2,2.4C112.7,26,112.9,27,112.9,28z M103.3,28
	c-0.1,1.6,0.2,3.2,0.9,4.6c0.2,0.4,0.6,0.8,1,1c0.5,0.3,1,0.4,1.6,0.3c1,0.1,2-0.4,2.6-1.2c0.4-0.6,0.6-1.2,0.7-1.8
	c0.1-0.9,0.2-1.8,0.2-2.7c0.1-1.6-0.2-3.1-0.9-4.6c-0.3-0.4-0.6-0.7-1-1c-0.5-0.2-1-0.4-1.6-0.3c-0.5,0-1,0.1-1.5,0.3
	c-0.4,0.2-0.8,0.5-1,0.9c-0.3,0.6-0.5,1.2-0.7,1.9C103.4,26.2,103.3,27.1,103.3,28L103.3,28z"/>
<path class="st1" d="M117,22.8l-2-0.5v-1.1h3.7l0.6,2.6h0.1c0.5-0.8,1.2-1.6,2-2.1c0.8-0.5,1.7-0.8,2.7-0.8c0.6,0,1.3,0.1,1.9,0.4
	c0.5,0.2,0.9,0.6,1.2,1c0.3,0.5,0.5,1.1,0.7,1.7c0.5-0.9,1.2-1.7,2.1-2.3c0.8-0.5,1.8-0.8,2.8-0.8c0.6,0,1.3,0.1,1.8,0.4
	c0.5,0.2,0.9,0.6,1.3,1.1c0.2,0.3,0.3,0.6,0.4,0.9c0.1,0.4,0.2,0.8,0.3,1.3c0.1,0.6,0.1,1.2,0.1,1.8c0,0.7,0,1.5,0,2.4v4.7l2,0.5v1
	h-6.2v-1l1.7-0.5v-5.7c0-1.1,0-1.9-0.1-2.5c0-0.4-0.1-0.9-0.3-1.3c-0.4-0.8-1.2-1.3-2.1-1.3c-0.4,0-0.9,0.1-1.3,0.3
	c-0.4,0.2-0.8,0.4-1.1,0.7c-0.4,0.3-0.6,0.7-0.8,1.2c-0.2,0.6-0.3,1.2-0.3,1.8v6.8l1.7,0.5v1h-5.9v-1l1.7-0.5v-5.7
	c0-1.1,0-1.9-0.1-2.5c0-0.4-0.1-0.9-0.3-1.3c-0.4-0.8-1.2-1.3-2.2-1.3c-0.4,0-0.9,0.1-1.3,0.3c-0.4,0.2-0.8,0.4-1.1,0.7
	c-0.4,0.3-0.6,0.7-0.8,1.2c-0.2,0.6-0.3,1.2-0.3,1.8v6.8l1.7,0.5v1H115v-1l2-0.5L117,22.8z"/>
<path class="st1" d="M139.9,22.3v-1.1h4.4v12.3l2,0.5v1h-6.4v-1l2-0.5V22.8L139.9,22.3z M141.5,17.1c0-0.4,0.1-0.9,0.4-1.2
	c0.3-0.3,0.7-0.5,1.2-0.4c0.8-0.1,1.5,0.6,1.6,1.4c0,0.1,0,0.2,0,0.2c0,0.4-0.1,0.9-0.4,1.2c-0.3,0.3-0.7,0.4-1.2,0.4
	c-0.8,0.1-1.5-0.5-1.6-1.3C141.5,17.3,141.5,17.2,141.5,17.1z"/>
<path class="st1" d="M147.2,21.6l2.5-0.4L150,18l2.1-0.3v3.5h3.3v1.3h-3.3v9.1c0,0.6,0,1,0,1.2c0,0.2,0,0.4,0.1,0.5
	c0,0.1,0.1,0.2,0.3,0.3c0.2,0,0.4,0,0.7,0h1.8v0.7c-0.7,0.3-1.4,0.5-2.2,0.7c-0.5,0.1-1,0.2-1.5,0.2c-0.7,0.1-1.3-0.4-1.5-1
	c-0.1-0.2-0.1-0.5-0.2-0.8c0-0.3,0-0.8,0-1.4v-9.6h-2.5L147.2,21.6z"/>
</svg>
