<svg id="Layer_1" data-name="Layer 1" xmlns="http://www.w3.org/2000/svg" xmlns:xlink="http://www.w3.org/1999/xlink" viewBox="0 0 413 1117"><defs><style>.cls-1,.cls-10,.cls-11,.cls-12,.cls-13,.cls-14,.cls-15,.cls-16,.cls-17,.cls-18,.cls-19,.cls-2,.cls-20,.cls-21,.cls-3,.cls-4,.cls-5,.cls-6,.cls-7,.cls-8,.cls-9{fill:#140c2d;}.cls-1,.cls-23,.cls-24,.cls-25,.cls-26,.cls-27{stroke:#000;}.cls-1,.cls-10,.cls-11,.cls-12,.cls-13,.cls-14,.cls-15,.cls-16,.cls-17,.cls-18,.cls-19,.cls-2,.cls-20,.cls-21,.cls-24,.cls-25,.cls-26,.cls-27,.cls-3,.cls-4,.cls-5,.cls-6,.cls-7,.cls-8,.cls-9{stroke-miterlimit:10;}.cls-1,.cls-24,.cls-25,.cls-26,.cls-27{stroke-width:2px;}.cls-2{stroke:url(#linear-gradient);}.cls-10,.cls-11,.cls-12,.cls-13,.cls-14,.cls-15,.cls-16,.cls-17,.cls-18,.cls-19,.cls-20,.cls-21,.cls-3,.cls-4,.cls-5,.cls-6,.cls-7,.cls-8,.cls-9{opacity:0.4;}.cls-3{stroke:url(#linear-gradient-2);}.cls-4{stroke:url(#linear-gradient-3);}.cls-5{stroke:url(#linear-gradient-4);}.cls-6{stroke:url(#linear-gradient-5);}.cls-7{stroke:url(#linear-gradient-6);}.cls-8{stroke:url(#linear-gradient-7);}.cls-9{stroke:url(#linear-gradient-8);}.cls-10{stroke:url(#linear-gradient-9);}.cls-11{stroke:url(#linear-gradient-10);}.cls-12{stroke:url(#linear-gradient-11);}.cls-13{stroke:url(#linear-gradient-12);}.cls-14{stroke:url(#linear-gradient-13);}.cls-15{stroke:url(#linear-gradient-14);}.cls-16{stroke:url(#linear-gradient-15);}.cls-17{stroke:url(#linear-gradient-16);}.cls-18{stroke:url(#linear-gradient-17);}.cls-19{stroke:url(#linear-gradient-18);}.cls-20{stroke:url(#linear-gradient-19);}.cls-21{stroke:url(#linear-gradient-20);}.cls-22{fill:url(#linear-gradient-21);}.cls-23{fill:#336;stroke-linejoin:round;stroke-width:0.75px;}.cls-24{fill:#366;}.cls-25{fill:#563636;}.cls-26{fill:#5b5a42;}.cls-27{fill:#e08b19;}.cls-28{opacity:0.3;fill:url(#radial-gradient);}</style><linearGradient id="linear-gradient" x1="38.49" y1="628.5" x2="373.51" y2="628.5" gradientUnits="userSpaceOnUse"><stop offset="0" stop-color="#c7841f"/><stop offset="0.02" stop-color="#c88422" stop-opacity="0.98"/><stop offset="0.51" stop-color="#e57f6c" stop-opacity="0.46"/><stop offset="0.84" stop-color="#f87c9a" stop-opacity="0.13"/><stop offset="1" stop-color="#ff7bac" stop-opacity="0"/></linearGradient><linearGradient id="linear-gradient-2" x1="239.3" y1="1094.67" x2="249.88" y2="1094.67" xlink:href="#linear-gradient"/><linearGradient id="linear-gradient-3" x1="74.16" y1="1043.85" x2="130.29" y2="1043.85" xlink:href="#linear-gradient"/><linearGradient id="linear-gradient-4" x1="315.66" y1="1087.11" x2="361.67" y2="1087.11" xlink:href="#linear-gradient"/><linearGradient id="linear-gradient-5" x1="192.44" y1="1023.82" x2="229.3" y2="1023.82" xlink:href="#linear-gradient"/><linearGradient id="linear-gradient-6" x1="41.42" y1="948.79" x2="78.71" y2="948.79" xlink:href="#linear-gradient"/><linearGradient id="linear-gradient-7" x1="299.28" y1="1021.82" x2="331.43" y2="1021.82" xlink:href="#linear-gradient"/><linearGradient id="linear-gradient-8" x1="228.04" y1="922.16" x2="253.4" y2="922.16" xlink:href="#linear-gradient"/><linearGradient id="linear-gradient-9" x1="139.09" y1="922.57" x2="163.97" y2="922.57" xlink:href="#linear-gradient"/><linearGradient id="linear-gradient-10" x1="202.44" y1="823.03" x2="222.03" y2="823.03" xlink:href="#linear-gradient"/><linearGradient id="linear-gradient-11" x1="112.58" y1="859.73" x2="139.77" y2="859.73" xlink:href="#linear-gradient"/><linearGradient id="linear-gradient-12" x1="359.92" y1="910.49" x2="369.68" y2="910.49" xlink:href="#linear-gradient"/><linearGradient id="linear-gradient-13" x1="304.2" y1="743.04" x2="336.5" y2="743.04" xlink:href="#linear-gradient"/><linearGradient id="linear-gradient-14" x1="332.08" y1="605.58" x2="363.37" y2="605.58" xlink:href="#linear-gradient"/><linearGradient id="linear-gradient-15" x1="315.72" y1="527.84" x2="347.87" y2="527.84" xlink:href="#linear-gradient"/><linearGradient id="linear-gradient-16" x1="80.42" y1="741.69" x2="107.61" y2="741.69" xlink:href="#linear-gradient"/><linearGradient id="linear-gradient-17" x1="192.78" y1="672.38" x2="212.28" y2="672.38" xlink:href="#linear-gradient"/><linearGradient id="linear-gradient-18" x1="346.35" y1="821.97" x2="366.19" y2="821.97" xlink:href="#linear-gradient"/><linearGradient id="linear-gradient-19" x1="53.58" y1="380.72" x2="63.2" y2="380.72" xlink:href="#linear-gradient"/><linearGradient id="linear-gradient-20" x1="70.34" y1="518.85" x2="90.02" y2="518.85" xlink:href="#linear-gradient"/><linearGradient id="linear-gradient-21" x1="206" y1="1097" x2="206" y2="160" gradientUnits="userSpaceOnUse"><stop offset="0" stop-color="#c7841f" stop-opacity="0.5"/><stop offset="0.09" stop-color="#cc832c" stop-opacity="0.45"/><stop offset="0.71" stop-color="#f17d88" stop-opacity="0.13"/><stop offset="1" stop-color="#ff7bac" stop-opacity="0"/></linearGradient><radialGradient id="radial-gradient" cx="206.5" cy="712.98" r="66.98" gradientTransform="translate(0 -184) scale(1 1.52)" gradientUnits="userSpaceOnUse"><stop offset="0" stop-color="#ffe000"/><stop offset="0.17" stop-color="#ffdf02" stop-opacity="0.78"/><stop offset="0.4" stop-color="#ffde04" stop-opacity="0.51"/><stop offset="0.6" stop-color="#ffdc06" stop-opacity="0.29"/><stop offset="0.78" stop-color="#ffdc08" stop-opacity="0.13"/><stop offset="0.92" stop-color="#ffdb09" stop-opacity="0.04"/><stop offset="1" stop-color="#ffdb09" stop-opacity="0"/></radialGradient></defs><title>tower-spell1</title><polygon class="cls-1" points="373 1097 39 1097 59 160 353 160 373 1097"/><path class="cls-2" d="M367.11,919.77a.6.6,0,0,1-1-.41l-.34-5.54a.64.64,0,0,0-.29-.48l-4.77-2.86a.61.61,0,0,1,.09-1.08l5.16-2a.58.58,0,0,0,.37-.42l1.24-5.42a.61.61,0,0,1,1.06-.25l.2.25-6-280-4.51-1.67A1.43,1.43,0,0,0,357,620l-10.89,7.66a1.45,1.45,0,0,1-2.28-1.24l.55-13.31a1.45,1.45,0,0,0-.58-1.21l-10.65-8a1.45,1.45,0,0,1,.48-2.55l12.82-3.59a1.46,1.46,0,0,0,1-.92l4.31-12.6a1.44,1.44,0,0,1,2.56-.34L361.69,595a1.41,1.41,0,0,0,.61.5L353,160H59L54.45,373.35,57,371.53a.6.6,0,0,1,.95.52l-.21,5.55a.59.59,0,0,0,.24.5l4.45,3.32a.6.6,0,0,1-.19,1.06L56.91,384a.57.57,0,0,0-.4.38l-1.78,5.26a.6.6,0,0,1-.64.39l-11.57,542,8.86,2.81a1.49,1.49,0,0,0,1.34-.24l10.62-8.26a1.45,1.45,0,0,1,2.35,1.14l.1,13.45a1.47,1.47,0,0,0,.64,1.2l11.14,7.55a1.46,1.46,0,0,1-.35,2.59l-12.77,4.25a1.46,1.46,0,0,0-.94,1l-3.74,12.93a1.45,1.45,0,0,1-2.57.46l-8-10.83A1.51,1.51,0,0,0,48,959.5l-6,.2L39,1097H240.8l5.77-4.31a1.76,1.76,0,0,1,2.81,1.43l0,2.88h66.84a1.44,1.44,0,0,1,1-1.68l12.82-3.59a1.46,1.46,0,0,0,1-.92l4.31-12.6a1.44,1.44,0,0,1,2.56-.34l7.38,11.09a1.48,1.48,0,0,0,1.18.64l13.32.2a1.45,1.45,0,0,1,1.11,2.34L357,1097h16l-3.82-179ZM316.4,534.31l5.28-7.67a1,1,0,0,0,.11-.93L318.47,517a1,1,0,0,1,1.23-1.32l8.92,2.64a1,1,0,0,0,.92-.18l7.23-5.84a1,1,0,0,1,1.65.76l.23,9.3a1,1,0,0,0,.46.82l7.8,5.07a1,1,0,0,1-.22,1.8l-8.77,3.1a1,1,0,0,0-.64.69l-2.42,9a1,1,0,0,1-1.77.35l-5.66-7.38a1,1,0,0,0-.85-.4l-9.3.48A1,1,0,0,1,316.4,534.31ZM216.19,814.22l.14,5.55a.6.6,0,0,0,.27.49l4.66,3a.61.61,0,0,1-.13,1.08l-5.24,1.85a.58.58,0,0,0-.38.41L214.07,832a.6.6,0,0,1-1.06.21l-3.38-4.41a.59.59,0,0,0-.51-.23l-5.55.28a.6.6,0,0,1-.52-.94l3.15-4.58a.6.6,0,0,0,.06-.55l-2-5.19a.6.6,0,0,1,.73-.79l5.33,1.58a.64.64,0,0,0,.55-.11l4.32-3.49A.6.6,0,0,1,216.19,814.22ZM193.56,672.49l4.72-2.93a.59.59,0,0,0,.29-.48l.27-5.55a.6.6,0,0,1,1-.43l4.24,3.59a.59.59,0,0,0,.54.12l5.36-1.46a.61.61,0,0,1,.72.81l-2.1,5.14a.59.59,0,0,0,0,.56l3,4.64a.61.61,0,0,1-.54.94L205.6,677a.59.59,0,0,0-.52.22l-3.47,4.33a.61.61,0,0,1-1.06-.23l-1.32-5.4a.62.62,0,0,0-.37-.42l-5.19-2A.6.6,0,0,1,193.56,672.49Zm-101.29,56,5.24,6a.86.86,0,0,0,.75.29l7.89-.94a.87.87,0,0,1,.84,1.3l-4,6.83a.87.87,0,0,0,0,.8l3.33,7.2a.86.86,0,0,1-1,1.2l-7.74-1.74a.89.89,0,0,0-.78.21L90.9,755a.86.86,0,0,1-1.44-.55l-.73-7.91a.87.87,0,0,0-.44-.67L81.36,742a.86.86,0,0,1,.08-1.54l7.29-3.14a.87.87,0,0,0,.51-.62l1.54-7.79A.86.86,0,0,1,92.27,728.47ZM76.9,528.09a.6.6,0,0,1-1-.48v-5.55a.6.6,0,0,0-.26-.5l-4.57-3.15a.6.6,0,0,1,.16-1.07l5.28-1.71a.58.58,0,0,0,.39-.4l1.59-5.32a.6.6,0,0,1,1.06-.18l3.26,4.49a.61.61,0,0,0,.51.25l5.55-.13a.6.6,0,0,1,.5.95l-3.27,4.49a.59.59,0,0,0-.08.56l1.84,5.23a.6.6,0,0,1-.75.78l-5.28-1.72a.57.57,0,0,0-.55.09Zm52.42,509.34-11,11.91a1.76,1.76,0,0,0-.42,1.58l3.59,15.8a1.76,1.76,0,0,1-2.45,2l-14.72-6.76a1.75,1.75,0,0,0-1.63.09l-13.91,8.29a1.76,1.76,0,0,1-2.65-1.71L88,1052.52a1.75,1.75,0,0,0-.58-1.52l-12.19-10.68a1.75,1.75,0,0,1,.81-3L92,1034.1a1.73,1.73,0,0,0,1.27-1l6.39-14.89a1.76,1.76,0,0,1,3.14-.17l7.93,14.13a1.8,1.8,0,0,0,1.38.89l16.13,1.46A1.76,1.76,0,0,1,129.32,1037.43Zm9.83-184.31-4.05,6.82a.87.87,0,0,0,0,.8l3.33,7.21a.86.86,0,0,1-1,1.2l-7.75-1.74a.83.83,0,0,0-.77.21L123.07,873a.86.86,0,0,1-1.44-.55l-.74-7.91a.87.87,0,0,0-.44-.67L113.52,860a.86.86,0,0,1,.08-1.54l7.3-3.14a.86.86,0,0,0,.5-.62l1.55-7.79a.86.86,0,0,1,1.49-.4l5.24,6a.84.84,0,0,0,.75.29l7.88-.94A.86.86,0,0,1,139.15,853.12Zm23.92,69.63-6.27,3.58a.8.8,0,0,0-.4.61l-.6,7.2a.78.78,0,0,1-1.31.51l-5.34-4.86a.8.8,0,0,0-.71-.18l-7,1.65a.79.79,0,0,1-.89-1.09l3-6.58a.79.79,0,0,0-.05-.73l-3.73-6.18a.78.78,0,0,1,.75-1.18l7.18.79a.77.77,0,0,0,.68-.27l4.72-5.46a.78.78,0,0,1,1.36.35l1.47,7.07a.77.77,0,0,0,.46.56l6.66,2.81A.78.78,0,0,1,163.07,922.75Zm64.47,111-10.74-.84a1.16,1.16,0,0,0-1,.43l-6.79,8.36a1.16,1.16,0,0,1-2-.46l-2.51-10.47a1.17,1.17,0,0,0-.72-.82l-10.05-3.87a1.16,1.16,0,0,1-.2-2.08l9.19-5.63a1.15,1.15,0,0,0,.55-.93l.57-10.76a1.17,1.17,0,0,1,1.93-.83l8.19,7a1.16,1.16,0,0,0,1.06.24l10.41-2.79a1.17,1.17,0,0,1,1.38,1.58l-4.12,9.95a1.15,1.15,0,0,0,.1,1.08l5.86,9A1.17,1.17,0,0,1,227.54,1033.72Zm24.58-106-7.23,0a.78.78,0,0,0-.64.34L240.13,934a.77.77,0,0,1-1.38-.2l-2.21-6.88a.82.82,0,0,0-.53-.51l-6.91-2.08a.78.78,0,0,1-.24-1.38l5.86-4.23a.79.79,0,0,0,.33-.65l-.17-7.22a.79.79,0,0,1,1.25-.65l5.83,4.26a.81.81,0,0,0,.72.11l6.82-2.39a.79.79,0,0,1,1,1L248.25,920a.78.78,0,0,0,.12.72l4.37,5.75A.77.77,0,0,1,252.12,927.72Zm78.13,96.33-8.77,3.1a1,1,0,0,0-.64.68l-2.42,9a1,1,0,0,1-1.77.35l-5.66-7.39a1,1,0,0,0-.85-.39l-9.29.47a1,1,0,0,1-.89-1.57l5.28-7.67a1,1,0,0,0,.11-.93L302,1011a1,1,0,0,1,1.23-1.33l8.92,2.65a1,1,0,0,0,.92-.18l7.23-5.85a1,1,0,0,1,1.65.76l.23,9.3a1,1,0,0,0,.46.82l7.8,5.08A1,1,0,0,1,330.25,1024.05Zm5.1-279.18-8.76,3.47a1.06,1.06,0,0,0-.62.72l-2.1,9.19a1,1,0,0,1-1.79.42l-6-7.26a1.07,1.07,0,0,0-.88-.37l-9.39.84a1,1,0,0,1-.95-1.57l5.05-7.95a1,1,0,0,0,.08-1l-3.69-8.67a1,1,0,0,1,1.19-1.39l9.13,2.34a1,1,0,0,0,.92-.22l7.1-6.19a1,1,0,0,1,1.69.71l.6,9.4a1,1,0,0,0,.49.82l8.08,4.84A1,1,0,0,1,335.35,744.87Zm24.07,80.77-2,5.19a.61.61,0,0,1-1.08.11l-2.93-4.72a.59.59,0,0,0-.48-.29l-5.55-.26a.6.6,0,0,1-.43-1l3.59-4.24a.64.64,0,0,0,.12-.55l-1.47-5.36a.6.6,0,0,1,.81-.71l5.14,2.09a.58.58,0,0,0,.56,0l4.64-3.05a.6.6,0,0,1,.93.55l-.4,5.54a.61.61,0,0,0,.22.51l4.34,3.48a.6.6,0,0,1-.24,1.05l-5.39,1.33A.58.58,0,0,0,359.42,825.64Z"/><path class="cls-3" d="M246.57,1092.69,240.8,1097h8.54l0-2.88A1.76,1.76,0,0,0,246.57,1092.69Z"/><path class="cls-4" d="M128.19,1034.49,112.06,1033a1.8,1.8,0,0,1-1.38-.89L102.75,1018a1.76,1.76,0,0,0-3.14.17l-6.39,14.89a1.73,1.73,0,0,1-1.27,1l-15.88,3.18a1.75,1.75,0,0,0-.81,3L87.45,1051a1.75,1.75,0,0,1,.58,1.52l-1.88,16.09a1.76,1.76,0,0,0,2.65,1.71l13.91-8.29a1.75,1.75,0,0,1,1.63-.09l14.72,6.76a1.76,1.76,0,0,0,2.45-2l-3.59-15.8a1.76,1.76,0,0,1,.42-1.58l11-11.91A1.76,1.76,0,0,0,128.19,1034.49Z"/><path class="cls-5" d="M359.75,1089.8l-13.32-.2a1.48,1.48,0,0,1-1.18-.64l-7.38-11.09a1.44,1.44,0,0,0-2.56.34l-4.31,12.6a1.46,1.46,0,0,1-1,.92l-12.82,3.59a1.44,1.44,0,0,0-1,1.68H357l3.84-4.86A1.45,1.45,0,0,0,359.75,1089.8Z"/><path class="cls-6" d="M222.75,1022.88a1.15,1.15,0,0,1-.1-1.08l4.12-9.95a1.17,1.17,0,0,0-1.38-1.58L215,1013.06a1.16,1.16,0,0,1-1.06-.24l-8.19-7a1.17,1.17,0,0,0-1.93.83l-.57,10.76a1.15,1.15,0,0,1-.55.93l-9.19,5.63a1.16,1.16,0,0,0,.2,2.08l10.05,3.87a1.17,1.17,0,0,1,.72.82l2.51,10.47a1.16,1.16,0,0,0,2,.46l6.79-8.36a1.16,1.16,0,0,1,1-.43l10.74.84a1.17,1.17,0,0,0,1.07-1.8Z"/><path class="cls-7" d="M49.21,960.09l8,10.83a1.45,1.45,0,0,0,2.57-.46l3.74-12.93a1.46,1.46,0,0,1,.94-1l12.77-4.25a1.46,1.46,0,0,0,.35-2.59l-11.14-7.55a1.47,1.47,0,0,1-.64-1.2l-.1-13.45a1.45,1.45,0,0,0-2.35-1.14l-10.62,8.26a1.49,1.49,0,0,1-1.34.24l-8.86-2.81-.59,27.64,6-.2A1.51,1.51,0,0,1,49.21,960.09Z"/><path class="cls-8" d="M330.47,1022.25l-7.8-5.08a1,1,0,0,1-.46-.82l-.23-9.3a1,1,0,0,0-1.65-.76l-7.23,5.85a1,1,0,0,1-.92.18l-8.92-2.65A1,1,0,0,0,302,1011l3.32,8.69a1,1,0,0,1-.11.93l-5.28,7.67a1,1,0,0,0,.89,1.57l9.29-.47a1,1,0,0,1,.85.39l5.66,7.39a1,1,0,0,0,1.77-.35l2.42-9a1,1,0,0,1,.64-.68l8.77-3.1A1,1,0,0,0,330.47,1022.25Z"/><path class="cls-9" d="M248.37,920.72a.78.78,0,0,1-.12-.72l2.25-6.86a.79.79,0,0,0-1-1l-6.82,2.39a.81.81,0,0,1-.72-.11l-5.83-4.26a.79.79,0,0,0-1.25.65l.17,7.22a.79.79,0,0,1-.33.65l-5.86,4.23a.78.78,0,0,0,.24,1.38l6.91,2.08a.82.82,0,0,1,.53.51l2.21,6.88a.77.77,0,0,0,1.38.2l4.12-5.93a.78.78,0,0,1,.64-.34l7.23,0a.77.77,0,0,0,.62-1.25Z"/><path class="cls-10" d="M163,921.35l-6.66-2.81a.77.77,0,0,1-.46-.56l-1.47-7.07a.78.78,0,0,0-1.36-.35L148.32,916a.77.77,0,0,1-.68.27l-7.18-.79a.78.78,0,0,0-.75,1.18l3.73,6.18a.79.79,0,0,1,.05.73l-3,6.58a.79.79,0,0,0,.89,1.09l7-1.65a.8.8,0,0,1,.71.18l5.34,4.86a.78.78,0,0,0,1.31-.51l.6-7.2a.8.8,0,0,1,.4-.61l6.27-3.58A.78.78,0,0,0,163,921.35Z"/><path class="cls-11" d="M210.34,817.37,205,815.79a.6.6,0,0,0-.73.79l2,5.19a.6.6,0,0,1-.06.55l-3.15,4.58a.6.6,0,0,0,.52.94l5.55-.28a.59.59,0,0,1,.51.23L213,832.2a.6.6,0,0,0,1.06-.21l1.44-5.36a.58.58,0,0,1,.38-.41l5.24-1.85a.61.61,0,0,0,.13-1.08l-4.66-3a.6.6,0,0,1-.27-.49l-.14-5.55a.6.6,0,0,0-1-.45l-4.32,3.49A.64.64,0,0,1,210.34,817.37Z"/><path class="cls-12" d="M138.31,851.82l-7.88.94a.84.84,0,0,1-.75-.29l-5.24-6a.86.86,0,0,0-1.49.4l-1.55,7.79a.86.86,0,0,1-.5.62l-7.3,3.14a.86.86,0,0,0-.08,1.54l6.93,3.88a.87.87,0,0,1,.44.67l.74,7.91a.86.86,0,0,0,1.44.55l5.83-5.39a.83.83,0,0,1,.77-.21l7.75,1.74a.86.86,0,0,0,1-1.2l-3.33-7.21a.87.87,0,0,1,0-.8l4.05-6.82A.86.86,0,0,0,138.31,851.82Z"/><path class="cls-13" d="M367.57,901.52l-1.24,5.42a.58.58,0,0,1-.37.42l-5.16,2a.61.61,0,0,0-.09,1.08l4.77,2.86a.64.64,0,0,1,.29.48l.34,5.54a.6.6,0,0,0,1,.41l2.07-1.8-.35-16.45-.2-.25A.61.61,0,0,0,367.57,901.52Z"/><path class="cls-14" d="M335.5,743.05l-8.08-4.84a1,1,0,0,1-.49-.82l-.6-9.4a1,1,0,0,0-1.69-.71l-7.1,6.19a1,1,0,0,1-.92.22l-9.13-2.34a1,1,0,0,0-1.19,1.39l3.69,8.67a1,1,0,0,1-.08,1l-5.05,7.95a1,1,0,0,0,.95,1.57l9.39-.84a1.07,1.07,0,0,1,.88.37l6,7.26a1,1,0,0,0,1.79-.42l2.1-9.19a1.06,1.06,0,0,1,.62-.72l8.76-3.47A1,1,0,0,0,335.5,743.05Z"/><path class="cls-15" d="M361.69,595l-7.38-11.09a1.44,1.44,0,0,0-2.56.34l-4.31,12.6a1.46,1.46,0,0,1-1,.92l-12.82,3.59a1.45,1.45,0,0,0-.48,2.55l10.65,8a1.45,1.45,0,0,1,.58,1.21l-.55,13.31a1.45,1.45,0,0,0,2.28,1.24L357,620a1.43,1.43,0,0,1,1.33-.17l4.51,1.67-.55-26A1.41,1.41,0,0,1,361.69,595Z"/><path class="cls-16" d="M317.28,535.89l9.3-.48a1,1,0,0,1,.85.4l5.66,7.38a1,1,0,0,0,1.77-.35l2.42-9a1,1,0,0,1,.64-.69l8.77-3.1a1,1,0,0,0,.22-1.8l-7.8-5.07a1,1,0,0,1-.46-.82l-.23-9.3a1,1,0,0,0-1.65-.76l-7.23,5.84a1,1,0,0,1-.92.18l-8.92-2.64a1,1,0,0,0-1.23,1.32l3.32,8.69a1,1,0,0,1-.11.93l-5.28,7.67A1,1,0,0,0,317.28,535.89Z"/><path class="cls-17" d="M88.73,737.28l-7.29,3.14a.86.86,0,0,0-.08,1.54l6.93,3.88a.87.87,0,0,1,.44.67l.73,7.91a.86.86,0,0,0,1.44.55l5.83-5.39a.89.89,0,0,1,.78-.21l7.74,1.74a.86.86,0,0,0,1-1.2l-3.33-7.2a.87.87,0,0,1,0-.8l4-6.83a.87.87,0,0,0-.84-1.3l-7.89.94a.86.86,0,0,1-.75-.29l-5.24-6a.86.86,0,0,0-1.49.4l-1.54,7.79A.87.87,0,0,1,88.73,737.28Z"/><path class="cls-18" d="M193.67,673.56l5.19,2a.62.62,0,0,1,.37.42l1.32,5.4a.61.61,0,0,0,1.06.23l3.47-4.33a.59.59,0,0,1,.52-.22l5.54.41a.61.61,0,0,0,.54-.94l-3-4.64a.59.59,0,0,1,0-.56l2.1-5.14a.61.61,0,0,0-.72-.81l-5.36,1.46a.59.59,0,0,1-.54-.12l-4.24-3.59a.6.6,0,0,0-1,.43l-.27,5.55a.59.59,0,0,1-.29.48l-4.72,2.93A.6.6,0,0,0,193.67,673.56Z"/><path class="cls-19" d="M365.47,822.89l-4.34-3.48a.61.61,0,0,1-.22-.51l.4-5.54a.6.6,0,0,0-.93-.55l-4.64,3.05a.58.58,0,0,1-.56,0L350,813.82a.6.6,0,0,0-.81.71l1.47,5.36a.64.64,0,0,1-.12.55L347,824.68a.6.6,0,0,0,.43,1l5.55.26a.59.59,0,0,1,.48.29l2.93,4.72a.61.61,0,0,0,1.08-.11l2-5.19a.58.58,0,0,1,.42-.37l5.39-1.33A.6.6,0,0,0,365.47,822.89Z"/><path class="cls-20" d="M54.73,389.64l1.78-5.26a.57.57,0,0,1,.4-.38l5.35-1.52a.6.6,0,0,0,.19-1.06L58,378.1a.59.59,0,0,1-.24-.5l.21-5.55a.6.6,0,0,0-.95-.52l-2.57,1.82L54.09,390A.6.6,0,0,0,54.73,389.64Z"/><path class="cls-21" d="M81.86,524.63l5.28,1.72a.6.6,0,0,0,.75-.78l-1.84-5.23a.59.59,0,0,1,.08-.56l3.27-4.49a.6.6,0,0,0-.5-.95l-5.55.13a.61.61,0,0,1-.51-.25l-3.26-4.49a.6.6,0,0,0-1.06.18l-1.59,5.32a.58.58,0,0,1-.39.4l-5.28,1.71a.6.6,0,0,0-.16,1.07l4.57,3.15a.6.6,0,0,1,.26.5v5.55a.6.6,0,0,0,1,.48l4.41-3.37A.57.57,0,0,1,81.86,524.63Z"/><polygon class="cls-22" points="373 1097 39 1097 59 160 353 160 373 1097"/><path class="cls-2" d="M134.84,1093.88l17.17-2.8a1.87,1.87,0,0,0,1.4-1l7.43-15.74a1.89,1.89,0,0,1,3.38-.06l8,15.47a1.89,1.89,0,0,0,1.43,1l17.27,2.2a1.89,1.89,0,0,1,1.1,3.2l-.89.89h75.66l.18-2.81a2.37,2.37,0,0,0-.9-2l-17.33-13.72a2.39,2.39,0,0,1,.9-4.2l21.43-5.41a2.37,2.37,0,0,0,1.66-1.49l7.69-20.72a2.4,2.4,0,0,1,4.28-.44l11.77,18.71a2.41,2.41,0,0,0,1.93,1.12l22.08.91a2.39,2.39,0,0,1,1.74,3.93l-14.16,17a2.39,2.39,0,0,0-.46,2.18l2,7H373l-3.66-171.54-5.58-7.92a2.38,2.38,0,0,0-2-1l-22,.23a2.39,2.39,0,0,1-1.93-3.82L351,895.32a2.39,2.39,0,0,0,.35-2.19l-7-20.88a2.38,2.38,0,0,1,3-3l20.84,7.12h.05l-2.91-136.13-9.26-1.94a2.54,2.54,0,0,1-1.14-4.41l10.08-8.68-2.34-109.81-10.42-2.45a1.89,1.89,0,0,1-.76-3.3l10.87-8.9L353,160H59L54.43,373.88l1.26.23a.65.65,0,0,1,.31,1.12l-1.63,1.46L48,673.61,52.5,668a.91.91,0,0,0,.16-.84L50.2,659a.92.92,0,0,1,1.21-1.13l8,3a.92.92,0,0,0,.85-.1l7-4.87a.93.93,0,0,1,1.45.8l-.4,8.53a.92.92,0,0,0,.36.77l6.8,5.17a.92.92,0,0,1-.32,1.62l-8.23,2.25a1,1,0,0,0-.63.59l-2.81,8.06a.92.92,0,0,1-1.64.2l-4.69-7.13a.92.92,0,0,0-.75-.42L48,676.2l-2.3,107.65,2.49-.66a.64.64,0,0,1,.76.87l-2.28,5.51a.64.64,0,0,0,.06.6l3.24,5a.64.64,0,0,1-.59,1l-3.93-.3L42.88,915.2l4.29.39a.65.65,0,0,1,.42,1.08l-4,4.39a.63.63,0,0,0-.16.58l1.33,5.82a.64.64,0,0,1-.89.73l-1.22-.56-2.17,101.46,3.24-7.6a1.09,1.09,0,0,1,1.94-.11l4.91,8.71a1.08,1.08,0,0,0,.85.54l10,.89a1.08,1.08,0,0,1,.7,1.81l-6.76,7.36a1.1,1.1,0,0,0-.26,1l2.23,9.74a1.08,1.08,0,0,1-1.5,1.23l-9.09-4.15a1.09,1.09,0,0,0-1,0L40,1052l-1,45h94.75A1.88,1.88,0,0,1,134.84,1093.88Zm146-130.29-16.14,6.5a1.88,1.88,0,0,0-1.14,1.34l-3.79,17a1.89,1.89,0,0,1-3.29.8l-11.17-13.34a1.88,1.88,0,0,0-1.62-.67l-17.33,1.63a1.88,1.88,0,0,1-1.77-2.87l9.24-14.75a1.87,1.87,0,0,0,.13-1.75l-6.91-16a1.89,1.89,0,0,1,2.19-2.58l16.88,4.23a1.87,1.87,0,0,0,1.7-.41l13.06-11.51A1.89,1.89,0,0,1,264,932.5l1.19,17.37a1.89,1.89,0,0,0,.92,1.49l15,8.86A1.89,1.89,0,0,1,280.86,963.59Zm53.46-481.8,8.47-7.89a1.26,1.26,0,0,1,2.11.8l1.1,11.52a1.25,1.25,0,0,0,.64,1l10.12,5.62a1.25,1.25,0,0,1-.11,2.25L346,499.67a1.27,1.27,0,0,0-.73.91l-2.22,11.36a1.25,1.25,0,0,1-2.17.59l-7.66-8.67a1.27,1.27,0,0,0-1.1-.41l-11.48,1.4a1.25,1.25,0,0,1-1.24-1.88l5.88-10a1.24,1.24,0,0,0,.05-1.17l-4.88-10.49a1.25,1.25,0,0,1,1.41-1.75l11.3,2.5A1.24,1.24,0,0,0,334.32,481.79Zm-35.24-102,9.8-2a1.08,1.08,0,0,0,.78-.64l3.92-9.19a1.08,1.08,0,0,1,1.94-.11l4.91,8.71a1.08,1.08,0,0,0,.85.54l10,.89a1.09,1.09,0,0,1,.71,1.81l-6.76,7.36a1.09,1.09,0,0,0-.26,1l2.23,9.74a1.08,1.08,0,0,1-1.5,1.23l-9.1-4.16a1.1,1.1,0,0,0-1,.06L307,400.12a1.08,1.08,0,0,1-1.63-1.05l1.14-9.93a1.09,1.09,0,0,0-.36-.94l-7.54-6.57A1.09,1.09,0,0,1,299.08,379.75ZM262.52,249.14l5.85-1.18a.65.65,0,0,0,.47-.38l2.33-5.49a.65.65,0,0,1,1.16-.06l2.94,5.19a.63.63,0,0,0,.5.33l5.94.53a.64.64,0,0,1,.42,1.08l-4,4.39a.64.64,0,0,0-.15.59l1.33,5.81a.64.64,0,0,1-.9.73L273,258.21a.64.64,0,0,0-.6,0l-5.12,3.06a.64.64,0,0,1-1-.62l.68-5.93a.66.66,0,0,0-.22-.56l-4.5-3.92A.66.66,0,0,1,262.52,249.14Zm.17,416.58,14.22-2.61a1.58,1.58,0,0,0,1.15-.9L284,649a1.56,1.56,0,0,1,2.8-.1l6.88,12.71a1.58,1.58,0,0,0,1.21.82L309.24,664a1.57,1.57,0,0,1,1,2.64l-10,10.47a1.54,1.54,0,0,0-.4,1.4l3,14.15a1.57,1.57,0,0,1-2.21,1.74l-13-6.25a1.58,1.58,0,0,0-1.45,0l-12.54,7.21a1.57,1.57,0,0,1-2.33-1.57l1.91-14.33a1.57,1.57,0,0,0-.5-1.37l-10.73-9.7A1.56,1.56,0,0,1,262.69,665.72ZM255.32,821.4l17.38-.93a1.89,1.89,0,0,0,1.51-.9l9.08-14.84a1.88,1.88,0,0,1,3.37.3l6.25,16.24a1.92,1.92,0,0,0,1.32,1.16l16.93,4.05a1.89,1.89,0,0,1,.75,3.3l-13.51,11a1.91,1.91,0,0,0-.69,1.62l1.37,17.35a1.88,1.88,0,0,1-2.9,1.73L281.57,852a1.87,1.87,0,0,0-1.75-.16l-16.07,6.67a1.88,1.88,0,0,1-2.54-2.23l4.48-16.81a1.89,1.89,0,0,0-.39-1.71L254,824.51A1.89,1.89,0,0,1,255.32,821.4ZM239.51,563.58l5,6a.82.82,0,0,0,.73.3l7.72-.69a.84.84,0,0,1,.79,1.28L249.55,577a.86.86,0,0,0-.06.78l3,7.14a.84.84,0,0,1-1,1.14L244,584.15a.82.82,0,0,0-.76.18l-5.84,5.1a.84.84,0,0,1-1.39-.57l-.5-7.75a.87.87,0,0,0-.41-.67l-6.66-4a.85.85,0,0,1,.12-1.51l7.21-2.86a.9.9,0,0,0,.51-.6l1.72-7.57A.85.85,0,0,1,239.51,563.58ZM213,472.88l7.68,1.1a.82.82,0,0,0,.74-.26l5.27-5.7a.84.84,0,0,1,1.44.43l1.32,7.65a.87.87,0,0,0,.48.62L237,480a.84.84,0,0,1,0,1.51l-6.86,3.62a.86.86,0,0,0-.45.65l-.9,7.7a.85.85,0,0,1-1.43.51l-5.56-5.41a.81.81,0,0,0-.75-.22l-7.61,1.51a.84.84,0,0,1-.92-1.19l3.43-7a.83.83,0,0,0,0-.78l-3.79-6.77A.84.84,0,0,1,213,472.88ZM201.32,701.21l6.76,10.89a1.4,1.4,0,0,0,1.11.65l12.8.6a1.4,1.4,0,0,1,1,2.29l-8.27,9.79a1.4,1.4,0,0,0-.27,1.26l3.38,12.36A1.39,1.39,0,0,1,216,740.7l-11.86-4.83a1.4,1.4,0,0,0-1.29.12l-10.71,7a1.39,1.39,0,0,1-2.15-1.26l.93-12.78a1.39,1.39,0,0,0-.51-1.19l-10-8a1.39,1.39,0,0,1,.53-2.43l12.45-3.06a1.38,1.38,0,0,0,1-.86l4.53-12A1.39,1.39,0,0,1,201.32,701.21ZM178.48,350.12l3.86-4.54a.67.67,0,0,0,.14-.59l-1.55-5.76a.65.65,0,0,1,.87-.77l5.52,2.28a.62.62,0,0,0,.59-.06l5-3.25a.64.64,0,0,1,1,.59l-.46,6a.67.67,0,0,0,.24.55l4.64,3.75a.64.64,0,0,1-.25,1.13l-5.8,1.41a.65.65,0,0,0-.46.39l-2.13,5.57a.65.65,0,0,1-1.16.11l-3.12-5.08a.64.64,0,0,0-.52-.31l-6-.31A.64.64,0,0,1,178.48,350.12ZM166.05,618.67l5.33-6.66a.91.91,0,0,0,.16-.84L169.08,603a.93.93,0,0,1,1.22-1.13l8,3a.92.92,0,0,0,.85-.1l7-4.87a.93.93,0,0,1,1.45.81l-.4,8.52a.92.92,0,0,0,.36.78l6.79,5.16a.92.92,0,0,1-.31,1.62l-8.23,2.26a.92.92,0,0,0-.63.58l-2.81,8.06a.93.93,0,0,1-1.65.2L176,620.77a1,1,0,0,0-.75-.42l-8.53-.18A.92.92,0,0,1,166.05,618.67ZM158.6,847.25l12.56-2.54a1.37,1.37,0,0,0,1-.82l5-11.78a1.39,1.39,0,0,1,2.49-.14l6.3,11.16a1.4,1.4,0,0,0,1.08.7L199.82,845a1.39,1.39,0,0,1,.9,2.32l-8.66,9.44a1.4,1.4,0,0,0-.33,1.25l2.86,12.49a1.39,1.39,0,0,1-1.93,1.58L181,866.71a1.4,1.4,0,0,0-1.29.07l-11,6.59a1.39,1.39,0,0,1-2.09-1.35l1.46-12.73a1.4,1.4,0,0,0-.46-1.21L158,849.66A1.39,1.39,0,0,1,158.6,847.25Zm-6-54.36-7.94,6.3a1.11,1.11,0,0,0-.41.94l.69,10.11a1.11,1.11,0,0,1-1.71,1l-8.45-5.61a1.07,1.07,0,0,0-1-.1l-9.41,3.78a1.1,1.1,0,0,1-1.47-1.31l2.72-9.77a1.1,1.1,0,0,0-.22-1l-6.5-7.78a1.09,1.09,0,0,1,.79-1.8l10.13-.43a1.12,1.12,0,0,0,.89-.52l5.38-8.59a1.1,1.1,0,0,1,2,.2l3.55,9.5a1.06,1.06,0,0,0,.76.68l9.83,2.47A1.1,1.1,0,0,1,152.55,792.89ZM90.66,408.94l5.85-1.18a.7.7,0,0,0,.47-.38l2.34-5.49a.64.64,0,0,1,1.15-.07l2.94,5.2a.62.62,0,0,0,.5.32l6,.53a.65.65,0,0,1,.41,1.09l-4,4.39a.65.65,0,0,0-.15.58l1.33,5.82a.65.65,0,0,1-.9.73L101.09,418a.67.67,0,0,0-.6,0l-5.12,3.07a.64.64,0,0,1-1-.63l.68-5.93a.66.66,0,0,0-.22-.56l-4.5-3.92A.65.65,0,0,1,90.66,408.94Zm24.13,118.68,5.85-1.19a.61.61,0,0,0,.46-.38l2.34-5.49a.65.65,0,0,1,1.16-.06l2.93,5.19a.66.66,0,0,0,.51.33l5.94.53a.65.65,0,0,1,.42,1.08l-4,4.4a.64.64,0,0,0-.16.58l1.34,5.81a.65.65,0,0,1-.9.74l-5.43-2.48a.64.64,0,0,0-.6,0l-5.12,3.07a.65.65,0,0,1-1-.63l.68-5.93a.66.66,0,0,0-.22-.56l-4.5-3.92A.65.65,0,0,1,114.79,527.62Zm-15.42,382-7.68-1.08a.85.85,0,0,1-.48-1.44l5.54-5.44a.84.84,0,0,0,.24-.74l-1.35-7.64a.85.85,0,0,1,1.22-.9l6.88,3.59a.88.88,0,0,0,.79,0l6.85-3.64a.84.84,0,0,1,1.22.88l-1.28,7.66a.85.85,0,0,0,.25.74l5.58,5.39a.84.84,0,0,1-.46,1.44L109,909.57a.83.83,0,0,0-.63.46l-3.4,7a.84.84,0,0,1-1.51,0L100,910.07A.83.83,0,0,0,99.37,909.61Zm33.35,99.57-6.47,12.76a1.55,1.55,0,0,1-2.78,0l-6.19-12.9a1.58,1.58,0,0,0-1.16-.86L102,1005.94a1.55,1.55,0,0,1-.83-2.65l10.36-9.87a1.59,1.59,0,0,0,.46-1.37l-2.27-14.13a1.55,1.55,0,0,1,2.27-1.61l12.59,6.8a1.53,1.53,0,0,0,1.44,0l12.73-6.52a1.56,1.56,0,0,1,2.24,1.66l-2.58,14.08a1.53,1.53,0,0,0,.44,1.37l10.13,10.1a1.55,1.55,0,0,1-.89,2.63l-14.18,1.91A1.54,1.54,0,0,0,132.72,1009.18Z"/><polygon class="cls-1" points="393 16 392.11 160 20.89 160 20 16 65.19 16 65.19 73 85.56 73 85.56 16 130.75 16 130.75 73 152.01 73 152.01 16 197.2 16 197.2 73 215.8 73 215.8 16 260.99 16 260.99 73 283.14 73 283.14 16 328.32 16 328.32 73 347.81 73 347.81 16 393 16"/><g id="NOSPELL"><path class="cls-23" d="M234.83,359.22H177.4c0-35.06-1.62-66.42,5.28-87.37C188.2,255.1,198.33,245,206.12,245s17.92,10.1,23.44,26.85C236.46,292.8,234.83,324.16,234.83,359.22Z"/><path class="cls-24" d="M234.83,557.9H177.4c0-35-1.62-66.42,5.28-87.37,5.52-16.75,15.65-26.85,23.44-26.85s17.92,10.1,23.44,26.85C236.46,491.48,234.83,522.85,234.83,557.9Z"/><path class="cls-25" d="M234.83,751.32H177.4c0-35.05-1.62-66.42,5.28-87.37,5.52-16.75,15.65-26.85,23.44-26.85S224,647.2,229.56,664C236.46,684.9,234.83,716.27,234.83,751.32Z"/><path class="cls-26" d="M234.83,950H177.4c0-35-1.62-66.41,5.28-87.37,5.52-16.75,15.65-26.85,23.44-26.85s17.92,10.1,23.44,26.85C236.46,883.59,234.83,915,234.83,950Z"/></g><path class="cls-27" d="M234.83,950H177.4c0-35-1.62-66.41,5.28-87.37,5.52-16.75,15.65-26.85,23.44-26.85s17.92,10.1,23.44,26.85C236.46,883.59,234.83,915,234.83,950Z"/><ellipse class="cls-28" cx="206.5" cy="896.5" rx="66.98" ry="101.5"/></svg>